<svg xmlns="http://www.w3.org/2000/svg" viewBox="0 0 196 141"><defs><style>.a95c403f-8771-438a-92a9-76b96eb923b6{fill:#b68457;stroke:#6e4220;stroke-miterlimit:10;stroke-width:5.01px;}</style></defs><g id="b9ce19eb-672d-4d15-9b52-1eea43b9fd05" data-name="Livello 2"><path class="a95c403f-8771-438a-92a9-76b96eb923b6" d="M173.14,62a19.79,19.79,0,0,1-.26-3.46h0a2.64,2.64,0,0,0-1.17-2.32c-.18-.12-.36-.22-.54-.32l-.23-.13c-.63-.37-1.07-.84-.1-1.74,1.18-1.1,1.41-2.65,1.64-4.14l0-.16c0-.17,0-.34-.06-.54a6,6,0,0,1,0-.61l0-1.15c0-.65,0-1.31,0-2a46,46,0,0,1,.25-7.14,15.53,15.53,0,0,0,.1-4.45,1.72,1.72,0,0,1,.29-1.33,4.29,4.29,0,0,0,.53-4.24,10.45,10.45,0,0,1-.36-1.12q-.12-.43-.27-.87a10.16,10.16,0,0,0-.52-1.22A2,2,0,0,0,170.73,24l-.46-.05a20.15,20.15,0,0,0-2.08-.15c-3.07,0-6.14,0-9.2,0-2,0-4.16,0-6.29-.21a27.12,27.12,0,0,0-6.3.14,14.07,14.07,0,0,1-4.44,0,24.78,24.78,0,0,0-4.13-.49c-1.72,0-3.44,0-5.16,0-2.27,0-4.62,0-6.91,0a66.1,66.1,0,0,0-9,.34,39.18,39.18,0,0,1-6.5.09c-1.65-.1-3.46-.12-5.71-.08h-.69a53.65,53.65,0,0,1-6.21-.14A60.12,60.12,0,0,0,90.29,23c-2.09,0-4.18.06-6.29.08-.39,0-.79,0-1.19,0-.81,0-1.65,0-2.49.05-1.76.13-3.51.29-5.27.45l-2.91.25a58,58,0,0,1-7.67.27,34.59,34.59,0,0,0-6.73.29,29.54,29.54,0,0,1-6.21.46c-1.85-.1-3.81-.12-6-.1-1.71,0-3.42.07-5.13.13L37.9,25H36.83c-.75,0-1.5-.06-2.25-.11a24.45,24.45,0,0,0-4.53,0l-1.64.22c-.88.12-1.76.24-2.65.32-.64.06-1.29.08-1.94.09s-1.25,0-1.85.09A16.07,16.07,0,0,0,19,26c-.59.17-1.87.74-1,2.58a1.42,1.42,0,0,1,.16.61c0,1-.1,2-.16,3l-.07,1.33c-.06,1-.12,1.95-.19,2.93a3.15,3.15,0,0,1-.09.42,2.87,2.87,0,0,0-.11.57c0,.42,0,.84-.05,1.25s0,.52,0,.79,0,.35,0,.53-.05.48-.05.69a1.89,1.89,0,0,0,1.36,2l.29.07h0a1.43,1.43,0,0,1,.77,1l-1.27.6a1.71,1.71,0,0,0-1,1.33c-.06.32-.1.65-.13,1l0,.19a7.62,7.62,0,0,0,0,1.17,4.55,4.55,0,0,1-.16,1.79.59.59,0,0,0,.05.36,3.37,3.37,0,0,1,.11,1.59l0,.34a16.65,16.65,0,0,0-.11,8.69,2.19,2.19,0,0,0,.47,1.5l.25.3v0c-.6,3.24-.3,4-.47,6.31a11.11,11.11,0,0,0,0,1.29A1.75,1.75,0,0,0,19,72.18a1.71,1.71,0,0,1,.31.15l.38.18a10.5,10.5,0,0,0,1.91.67,17.09,17.09,0,0,0,5.2,0l2.4-.3c1-.14,2.09-.28,3.13-.37a69.32,69.32,0,0,1,9.11-.2,17.3,17.3,0,0,0,4.19-.24,6.52,6.52,0,0,1,2.16,0c1.36.17,2.75.4,4.09.61l1.68.27.31.06c.68.12,1.36.24,2,.32a40,40,0,0,0,7.89,0l.42,0a25.92,25.92,0,0,1,5.21.31,20.85,20.85,0,0,0,4,.31c1.42-.08,2.85-.23,4.24-.38,1-.11,2-.21,2.92-.29,1.87-.15,3.5-.22,5-.22,3.51,0,6.36-.06,9-.28.33,0,.66-.06,1-.09a25,25,0,0,1,3-.16c3.19,0,6.42.21,9.15.37,1.95.11,3.88.24,5.82.38l4.46.29a63.9,63.9,0,0,0,8.07-.07l.87-.06c1.6-.1,3.26-.2,4.87-.23,1.91,0,3.81,0,5.76,0,.78,0,1.56,0,2.33.07l1.34,0,1.09,0c1.05,0,2.09.07,3.13.07.61,0,1.26,0,1.88,0,.89,0,1.73,0,2.57,0,1,0,2,.12,3.06.2.81.06,1.61.13,2.42.17.58,0,1.15,0,1.73,0,.74,0,1.44,0,2.12.07a36.07,36.07,0,0,0,3.89.21c.74,0,1.48,0,2.22-.07s1.69-.09,2.52-.1c.67,0,1.35,0,2-.07a6.45,6.45,0,0,0,1.78-.42,2,2,0,0,0,1.18-1,8.37,8.37,0,0,0,.51-2.1,30.61,30.61,0,0,0,0-6.56C173.29,63.16,173.21,62.6,173.14,62ZM48.65,38.29Zm75.47-12.93Zm12.72,0Z"/></g></svg>