<svg xmlns="http://www.w3.org/2000/svg" viewBox="0 0 151 129"><defs><style>.b322431b-ef00-4236-b97b-1ea8a765d6af{fill:#b68457;stroke:#6e4220;stroke-miterlimit:10;stroke-width:4.25px;}.a0f139c8-ae9d-446f-9b0c-fe2a575c074b{fill:#6e4220;}</style></defs><g id="ba44d4b3-388c-4ddb-aa5e-305c08606eca" data-name="Livello 1"><path class="b322431b-ef00-4236-b97b-1ea8a765d6af" d="M127.74,100a28.11,28.11,0,0,1-.19-3.46h0a3,3,0,0,0-.84-2.32c-.13-.12-.26-.22-.39-.32l-.17-.13c-.45-.37-.77-.84-.07-1.74a8.15,8.15,0,0,0,1.18-4.14l0-.16c0-.17,0-.34,0-.54s0-.4,0-.61l0-1.15c0-.65,0-1.31,0-2a65.34,65.34,0,0,1,.18-7.14,21.65,21.65,0,0,0,.08-4.45,2.2,2.2,0,0,1,.21-1.33,5.7,5.7,0,0,0,.37-4.24c-.1-.36-.18-.74-.25-1.12s-.12-.58-.19-.87-.24-.83-.38-1.22A1.52,1.52,0,0,0,126,62l-.33,0a10.59,10.59,0,0,0-1.5-.15c-2.22,0-4.43,0-6.63,0-1.41,0-3-.05-4.54-.21a14.2,14.2,0,0,0-4.55.14,7.35,7.35,0,0,1-3.2,0,13.07,13.07,0,0,0-3-.49c-1.24,0-2.48,0-3.72,0-1.63,0-3.33,0-5,0a34.48,34.48,0,0,0-6.5.34,20.43,20.43,0,0,1-4.69.09,37.9,37.9,0,0,0-4.12-.08h-.49a27.93,27.93,0,0,1-4.48-.14A31.51,31.51,0,0,0,68,61c-1.51,0-3,.06-4.54.08-.28,0-.57,0-.86,0-.58,0-1.19,0-1.8.05-1.26.13-2.53.29-3.79.45l-2.11.25a30.2,30.2,0,0,1-5.53.27,18,18,0,0,0-4.85.29,15.49,15.49,0,0,1-4.48.46c-1.33-.1-2.74-.12-4.31-.1-1.24,0-2.47.07-3.7.13L30.2,63h-.77c-.54,0-1.08-.06-1.63-.11a12.69,12.69,0,0,0-3.26,0l-1.19.22c-.63.12-1.27.24-1.9.32a13.33,13.33,0,0,1-1.4.09c-.45,0-.9,0-1.34.09a8.63,8.63,0,0,0-2.15.47c-.42.17-1.35.74-.72,2.58a2,2,0,0,1,.12.61c0,1-.07,2-.12,3l-.05,1.33c0,1-.08,2-.14,2.93,0,.14,0,.28-.06.42a3.72,3.72,0,0,0-.08.57c0,.42,0,.84,0,1.25,0,.26,0,.52,0,.79s0,.35,0,.53,0,.48,0,.69a2,2,0,0,0,1,2l.21.07h0a1.49,1.49,0,0,1,.56,1l-.92.6a1.75,1.75,0,0,0-.73,1.33c0,.32-.07.65-.09,1l0,.19c0,.39,0,.78,0,1.17a6.35,6.35,0,0,1-.11,1.79.68.68,0,0,0,0,.36,4.89,4.89,0,0,1,.08,1.59l0,.34a22.81,22.81,0,0,0-.08,8.69,2.75,2.75,0,0,0,.34,1.5l.18.3v0a51.06,51.06,0,0,0-.34,6.31c0,.43,0,.86,0,1.29,0,.89.23,1.54,1.06,1.85a1.45,1.45,0,0,1,.23.15l.27.18a6.52,6.52,0,0,0,1.38.67,8.93,8.93,0,0,0,3.75,0c.58-.09,1.16-.2,1.73-.3.74-.14,1.51-.28,2.25-.37a36.23,36.23,0,0,1,6.58-.2,9,9,0,0,0,3-.24,3.42,3.42,0,0,1,1.56,0c1,.17,2,.4,2.94.61l1.22.27.23.06c.48.12,1,.24,1.46.32a20.83,20.83,0,0,0,5.69,0l.31,0a13.64,13.64,0,0,1,3.76.31,10.91,10.91,0,0,0,2.91.31c1-.08,2.06-.23,3-.38.71-.11,1.41-.21,2.11-.29a32.6,32.6,0,0,1,3.6-.22,52.31,52.31,0,0,0,6.48-.28c.24,0,.47-.06.71-.09a13.17,13.17,0,0,1,2.14-.16c2.3,0,4.63.21,6.6.37,1.4.11,2.8.24,4.19.38l3.22.29a33.28,33.28,0,0,0,5.82-.07l.63-.06c1.15-.1,2.35-.2,3.51-.23,1.38,0,2.75,0,4.16,0,.56,0,1.12,0,1.68.07l1,0,.79,0c.75,0,1.51.07,2.26.07.44,0,.9,0,1.36,0,.64,0,1.24,0,1.85,0s1.47.12,2.2.2c.58.06,1.16.13,1.75.17.41,0,.83,0,1.25,0a14.77,14.77,0,0,1,1.52.07,18.88,18.88,0,0,0,2.81.21c.53,0,1.07,0,1.6-.07s1.22-.09,1.82-.1,1,0,1.48-.07a3.58,3.58,0,0,0,1.28-.42,1.56,1.56,0,0,0,.85-1,11.11,11.11,0,0,0,.37-2.1,42.25,42.25,0,0,0,0-6.56C127.85,101.16,127.79,100.6,127.74,100ZM38,76.29ZM92.39,63.36Zm9.17,0Z"/><path class="a0f139c8-ae9d-446f-9b0c-fe2a575c074b" d="M43,73.2a.12.12,0,0,1,.17,0c.07,0,.13,0,.17,0a1.21,1.21,0,0,0,.38.19.62.62,0,0,0,.32.19l.28.25a2.09,2.09,0,0,0,.5.44l.33.19a1.07,1.07,0,0,1,.38.19.29.29,0,0,0,.12.13L46,75a1.18,1.18,0,0,1,.28.22,1.38,1.38,0,0,1,.27.08.41.41,0,0,1,.21.11,1.58,1.58,0,0,1,.08.44,1.23,1.23,0,0,0,0,.19.53.53,0,0,0-.11.21.29.29,0,0,1-.08.14,1.7,1.7,0,0,1-.22.31,2.92,2.92,0,0,1-.3.24l-.14.11a2.18,2.18,0,0,1-.33.3.16.16,0,0,0-.08,0,.61.61,0,0,0-.22.29c-.09,0-.15,0-.18.07a.22.22,0,0,1-.14.11l-.27.21-.08.08a2.66,2.66,0,0,0-.27.24l-.14.14c-.17.19-.26.3-.28.33l-.1.11a2.14,2.14,0,0,1-.22.3.18.18,0,0,0-.06.08,4,4,0,0,1-.29.35.89.89,0,0,0-.16.22c-.1.19-.17.3-.19.33a.11.11,0,0,0,0,.11.77.77,0,0,1-.17.29.26.26,0,0,0-.11.16.69.69,0,0,1,0,.35.7.7,0,0,0-.07.31c0,.23,0,.37.07.41a2,2,0,0,0,.15.56,1.46,1.46,0,0,1,.16.36,2.18,2.18,0,0,1,.11.27c0,.09.07.18.11.27a2.3,2.3,0,0,0,.19.39l.13.18a1.47,1.47,0,0,0,.27.27.13.13,0,0,1,.08.08.69.69,0,0,0,.11.23.76.76,0,0,1,.08.11c.08.13.15.24.2.34s.11.18.18.27a2.6,2.6,0,0,1,.14.3.48.48,0,0,0,.08.11,1.82,1.82,0,0,0,.19.31,1.44,1.44,0,0,0,.24.34s0,0,0,0c.06.26.11.45.14.57s.07.26.12.38a.91.91,0,0,0,.11.24.49.49,0,0,0,.11.14l.12.41a3.86,3.86,0,0,0,.19.35.09.09,0,0,1,0,.06,1.78,1.78,0,0,1,.07.42.61.61,0,0,0,.06.25l.06.24a.7.7,0,0,1,0,.27,1.06,1.06,0,0,0,0,.34.35.35,0,0,1,0,.13,1.8,1.8,0,0,1,0,.27,1.78,1.78,0,0,0,0,.3.68.68,0,0,1,0,.24.37.37,0,0,0,0,.11,3,3,0,0,1-.11.47.36.36,0,0,0,0,.19,3.39,3.39,0,0,0-.21.46.23.23,0,0,1-.08.14c-.06.15-.1.25-.11.29a.21.21,0,0,1-.08.12.92.92,0,0,1-.25.35c-.11.21-.21.34-.32.38a.33.33,0,0,1-.06.21l-.13.17c-.08.09-.12.15-.12.19a.31.31,0,0,1,0,.13,3.64,3.64,0,0,0-.34.36.35.35,0,0,1-.17.14,4.06,4.06,0,0,0-.32.37,1.86,1.86,0,0,0-.25.46.64.64,0,0,0-.28.25A1.63,1.63,0,0,1,43,96s0,0-.07.08l-.14.24-.08.14a1.11,1.11,0,0,0-.32.22,1.35,1.35,0,0,1-.2.19l-.11.06c-.15.13-.22.2-.22.22a.08.08,0,0,1,0,.07,2.23,2.23,0,0,1-.26.39l-.18.18a.36.36,0,0,0-.22.28l-.33.25a.67.67,0,0,1-.21.1q-.35.06-.39,0s-.1,0-.21,0a1.23,1.23,0,0,0-.3-.21s0,0,0,0a.91.91,0,0,1-.11-.16.64.64,0,0,0-.11-.16,3.49,3.49,0,0,1-.3-.28s0,0-.08,0a3.42,3.42,0,0,1-.54-.54,1.12,1.12,0,0,0-.28-.18l-.16,0-.25-.51a2.14,2.14,0,0,1-.33-.33.2.2,0,0,0-.08-.08L37,95.48a2.31,2.31,0,0,0-.34-.54.34.34,0,0,0-.1-.27.4.4,0,0,1-.13-.24.53.53,0,0,1,0-.2,1,1,0,0,1,.11-.21,1.79,1.79,0,0,1,.24-.4,1,1,0,0,1,.21-.17,1,1,0,0,0,.31-.32,4.15,4.15,0,0,1,.51-.5,1.39,1.39,0,0,0,.11-.21.35.35,0,0,1,.17-.17l.45-.48c.1-.1.21-.21.31-.33a4.46,4.46,0,0,0,.32-.39l.3-.37a.44.44,0,0,0,.08-.11,1.7,1.7,0,0,0,.27-.43.57.57,0,0,1,0-.14,3.35,3.35,0,0,0,.34-.6.82.82,0,0,0,0-.51l0-.34a2.06,2.06,0,0,1-.19-.4.67.67,0,0,0-.1-.21,1,1,0,0,0-.31-.31.4.4,0,0,0-.13-.24.67.67,0,0,1-.16-.24.34.34,0,0,1-.11-.19.22.22,0,0,0-.08-.15,3.82,3.82,0,0,1-.25-.38c0-.09-.08-.17-.13-.26a1,1,0,0,0-.15-.23s0,0-.07-.08l-.28-.32a2.8,2.8,0,0,0-.15-.3c0-.1-.11-.2-.17-.3a2,2,0,0,0-.14-.25,2,2,0,0,1-.14-.29,1.1,1.1,0,0,1-.13-.25.13.13,0,0,0,0-.07,1.93,1.93,0,0,1-.22-.34L37,83.36q-.14-.28-.15-.3a.07.07,0,0,1,0,0l-.16-.21-.06-.11a1.71,1.71,0,0,1-.1-.38,2.88,2.88,0,0,0-.14-.47.54.54,0,0,1,0-.22c0-.21.08-.4.13-.57a2,2,0,0,1,.09-.34l.07-.11a2.49,2.49,0,0,0,0-.58,1,1,0,0,1,.05-.4,3.52,3.52,0,0,0,.25-.53,4.14,4.14,0,0,0,.19-.46,1.13,1.13,0,0,1,.07-.18,1.1,1.1,0,0,1,.22-.41l.22-.3.06-.11a2.39,2.39,0,0,0,.41-.44,2.07,2.07,0,0,1,.27-.32.87.87,0,0,0,.21-.25,1,1,0,0,1,.11-.19l.11-.13c.15-.1.23-.18.25-.24a.45.45,0,0,1,.1-.14l.2-.17a.62.62,0,0,0,.18-.18l.11-.12.11-.16a2.93,2.93,0,0,0,.51-.32,1,1,0,0,1,.22-.16,2.81,2.81,0,0,0,.5-.41l.24-.19s0,0,0-.06a2.32,2.32,0,0,0,.25-.21l.29-.23a1,1,0,0,1,.22-.29,0,0,0,0,0,0,0,1.28,1.28,0,0,1,.59-.32C42.86,73.05,43,73.09,43,73.2Z"/><path class="a0f139c8-ae9d-446f-9b0c-fe2a575c074b" d="M55.22,83.26a.78.78,0,0,0,.35,0,.85.85,0,0,1,.38,0l.34.09q.68,0,1.14,0l1,0h.57a2.31,2.31,0,0,0,.53,0h.35l.32,0h.32a1,1,0,0,1,0-.4c0-.11,0-.23,0-.33a1,1,0,0,0,0-.24.88.88,0,0,1,0-.24,1.25,1.25,0,0,0,0-.3.31.31,0,0,1,0-.11,1.82,1.82,0,0,0,.05-.34s0,0,0,0a.93.93,0,0,0,0-.44,2.15,2.15,0,0,1,0-.44.52.52,0,0,1,0-.18.47.47,0,0,0,0-.17.63.63,0,0,0,0-.19.85.85,0,0,1,0-.25v-.35a2,2,0,0,0,0-.22,1.86,1.86,0,0,1,0-.22,2.44,2.44,0,0,1,0-.54v-.45a1,1,0,0,0-.11-.36.15.15,0,0,1,0-.08,1,1,0,0,1,0-.47,3.47,3.47,0,0,1-.08-.4,1,1,0,0,0-.08-.3.27.27,0,0,1,0-.16,1.15,1.15,0,0,0,0-.19c0-.1,0-.19,0-.27a1.24,1.24,0,0,1,0-.3.8.8,0,0,0,0-.33.2.2,0,0,1,0-.11.86.86,0,0,1,.06-.33s0,0,0-.08l.29-.29c.19-.1.31-.14.38-.12a.58.58,0,0,0,.19,0,1.51,1.51,0,0,1,.45,0,.44.44,0,0,0,.15,0,1.48,1.48,0,0,1,.42,0,.25.25,0,0,0,.15,0h.38a1.41,1.41,0,0,1,.31,0,.22.22,0,0,0,.1,0,2.45,2.45,0,0,1,.52-.05.4.4,0,0,0,.2,0c.2,0,.31,0,.35-.07l.22,0a.38.38,0,0,0,.29,0,.76.76,0,0,0,.63,0,1.12,1.12,0,0,0,.24.1,1,1,0,0,0,.27,0c.23.15.34.24.31.28s0,.07,0,.07c.06.23.1.36.11.39a.37.37,0,0,1,0,.11,3.29,3.29,0,0,0-.09.56.54.54,0,0,1-.07.27,2.39,2.39,0,0,1,0,.34s0,.11-.05.19a2.89,2.89,0,0,1,0,.42.22.22,0,0,0,0,.09l0,.35a2.65,2.65,0,0,0,0,.43.31.31,0,0,1,0,.11,3.37,3.37,0,0,1,0,.44,1.08,1.08,0,0,0,0,.44,2.45,2.45,0,0,1,0,.27c0,.1,0,.2,0,.3s0,.3-.05.32a.11.11,0,0,0,0,.09,1.15,1.15,0,0,1,0,.48.82.82,0,0,0,0,.28,2,2,0,0,0,0,.33,1.34,1.34,0,0,1,0,.21l-.06.46a1.37,1.37,0,0,0,0,.49,2,2,0,0,1-.08.36.07.07,0,0,0,0,0c0,.25.06.39.06.41a1.87,1.87,0,0,1,0,.27.58.58,0,0,0,0,.27.62.62,0,0,0,.38,0l.25.08a.37.37,0,0,0,.29,0,.29.29,0,0,0,.16.1.27.27,0,0,1,.15.13L67,84a.56.56,0,0,1,.06.35c0,.1,0,.2-.06.28a.72.72,0,0,0,0,.29.41.41,0,0,1,0,.19.68.68,0,0,1,0,.19.41.41,0,0,0,0,.19,1.86,1.86,0,0,0,0,.36,2.38,2.38,0,0,1,0,.39,2.38,2.38,0,0,0,0,.26c0,.08,0,.18,0,.28a3.23,3.23,0,0,1-.1.38.69.69,0,0,0,0,.27.22.22,0,0,1,0,.14.38.38,0,0,0-.1.19.18.18,0,0,1-.06.13.59.59,0,0,1-.06.33,1.18,1.18,0,0,0-.13.18l-.4,0-.14,0s-.06.15-.06.34a1.88,1.88,0,0,0-.06.38,2,2,0,0,0,0,.34,1.84,1.84,0,0,1,0,.33,2.76,2.76,0,0,1-.06.5,2.57,2.57,0,0,0,0,.4.13.13,0,0,1,0,.08.44.44,0,0,0,0,.24.2.2,0,0,1,0,.11.7.7,0,0,1,0,.25.69.69,0,0,0,0,.25,2.82,2.82,0,0,1,.11.7,1.94,1.94,0,0,0,0,.41,1.85,1.85,0,0,0,.06.44c0,.17,0,.27,0,.29a.1.1,0,0,1,0,.09,1.5,1.5,0,0,1,0,.32s0,0,0,0a1.27,1.27,0,0,1,.05.32.14.14,0,0,0,0,.06l.07.38.09.38c0,.09,0,.18,0,.29a.34.34,0,0,0,0,.25c.09.23.13.37.15.43a.14.14,0,0,0,.07.11,2,2,0,0,1,0,.46,1,1,0,0,0,0,.2v.4a.26.26,0,0,1,0,.11c-.19.17-.31.25-.36.25s-.08,0-.08.06a1.43,1.43,0,0,0-.4,0h-.2a.72.72,0,0,0-.38,0,.44.44,0,0,0-.21,0h-.2a4.84,4.84,0,0,0-1.08,0,3.08,3.08,0,0,0-.62,0,.91.91,0,0,1-.33,0,1.59,1.59,0,0,0-.58,0,.89.89,0,0,1-.37,0l-.15,0a.91.91,0,0,1-.23-.08,1.59,1.59,0,0,1-.41-.16,3.12,3.12,0,0,0-.09-.44,1.08,1.08,0,0,1-.05-.38,1.37,1.37,0,0,0,0-.16c0-.19,0-.29,0-.29s0,0,0-.06c0-.23,0-.35,0-.35s0,0,0-.06a1.91,1.91,0,0,0,.06-.41.63.63,0,0,0,.05-.24.59.59,0,0,1,0-.17.76.76,0,0,0,0-.42l0-.53v-.38a3.68,3.68,0,0,1,0-.56,1.06,1.06,0,0,0,0-.3,1.32,1.32,0,0,0,0-.5,1.15,1.15,0,0,1,0-.26,2,2,0,0,0,0-.38.61.61,0,0,1,0-.15,1,1,0,0,1,0-.29.07.07,0,0,0,0-.06,1.9,1.9,0,0,0,0-.48,1.25,1.25,0,0,1,0-.35.54.54,0,0,0,0-.3.19.19,0,0,1,0-.2.52.52,0,0,0,0-.21.71.71,0,0,1,0-.14c0-.17,0-.31,0-.43a1.82,1.82,0,0,0-.08-.36q-.34,0-.36,0a.1.1,0,0,0-.08,0,1.41,1.41,0,0,1-.32,0h-.1a2.23,2.23,0,0,1-.56.08l-.32,0a3.09,3.09,0,0,1-.59,0l-.39,0a1.22,1.22,0,0,1-.29,0l-.06,0a1.88,1.88,0,0,0-.4,0h-.14a2.82,2.82,0,0,1-.47-.06.69.69,0,0,1-.22,0,.31.31,0,0,0-.19,0,2,2,0,0,1-.41,0h-.16c-.19.08-.29.15-.29.2v.14a1.21,1.21,0,0,0,0,.4.39.39,0,0,1,0,.14,2.47,2.47,0,0,0,0,.56,1.36,1.36,0,0,1,0,.3c0,.23.06.36.06.38a4.1,4.1,0,0,1-.08.91.9.9,0,0,0,.08.64.44.44,0,0,0,0,.2,2.13,2.13,0,0,1,0,.27,2,2,0,0,1,0,.22,2.15,2.15,0,0,0,0,.62,1.54,1.54,0,0,1,.05.43,1.11,1.11,0,0,1,0,.23.19.19,0,0,0,.06.21.45.45,0,0,0,0,.27l.06.24a1.7,1.7,0,0,0,0,.44.85.85,0,0,1,0,.25.67.67,0,0,0,0,.27.2.2,0,0,1,0,.11.72.72,0,0,0,0,.25.13.13,0,0,1,0,.1,1.7,1.7,0,0,0,0,.28.26.26,0,0,1-.05.19,1.16,1.16,0,0,1-.1.51,2.33,2.33,0,0,0-.19.32s0,0-.06.06a1.37,1.37,0,0,0-.38.19,1.55,1.55,0,0,0-.36,0h0a5.15,5.15,0,0,1-.7.07,1.53,1.53,0,0,0-.47.06,1.17,1.17,0,0,0-.43,0,.73.73,0,0,1-.3,0,1.9,1.9,0,0,1-.35-.06l-.35,0-.31-.06a.17.17,0,0,1-.13-.07,2,2,0,0,0-.39,0l-.05,0a2.27,2.27,0,0,0-.46.08.37.37,0,0,1-.33-.08h-.29a.44.44,0,0,1-.25,0,.66.66,0,0,1-.22-.29,1,1,0,0,1-.07-.35,1.51,1.51,0,0,1,0-.6l.1-.6a1.24,1.24,0,0,0,0-.3.13.13,0,0,1,0-.08,1.06,1.06,0,0,0,0-.46.3.3,0,0,1,0-.2.9.9,0,0,1,0-.18.64.64,0,0,1,0-.17.93.93,0,0,0,0-.48c0-.27,0-.47,0-.6a1.31,1.31,0,0,1,.06-.38.16.16,0,0,1,0-.14.52.52,0,0,0,0-.21.67.67,0,0,1,0-.39,1.34,1.34,0,0,0,.06-.36,3.9,3.9,0,0,1,.06-.51,1.29,1.29,0,0,0,0-.29,3.34,3.34,0,0,0,.05-.71c0-.16,0-.32,0-.49a2.26,2.26,0,0,1,0-.27,1.64,1.64,0,0,0,0-.23,1.85,1.85,0,0,1,0-.54.35.35,0,0,0,0-.26,1,1,0,0,0,0-.45c0-.06,0-.1.07-.15,0-.4,0-.73-.07-1a2.69,2.69,0,0,1,0-.76.33.33,0,0,1,0-.17.29.29,0,0,0,0-.18l0-.66a1,1,0,0,1,0-.36q0-.12.06-.21a.63.63,0,0,0,0-.25c0-.11,0-.21,0-.32a.93.93,0,0,1,0-.41,3.89,3.89,0,0,1,0-.46.51.51,0,0,0,0-.24,3.76,3.76,0,0,1,0-1,.66.66,0,0,1-.06-.27v-.3c0-.3,0-.44-.06-.44a4.65,4.65,0,0,0,.08-.86c0-.19,0-.4-.05-.63s0-.26-.07-.4a.71.71,0,0,1,.07-.42,2.77,2.77,0,0,1,0-.51,1.15,1.15,0,0,0,0-.16,1.3,1.3,0,0,0-.1-.25,1.52,1.52,0,0,1-.09-.25,1.32,1.32,0,0,0,0-.34,1.2,1.2,0,0,0,0-.23c0-.19,0-.35,0-.48a1.28,1.28,0,0,0-.08-.35.68.68,0,0,1-.05-.28.21.21,0,0,0,0-.16,1.52,1.52,0,0,1,0-.4.34.34,0,0,0,0-.11v-.33a1.69,1.69,0,0,1,0-.3,2.39,2.39,0,0,1,.43-.24.22.22,0,0,1,.14,0,1.23,1.23,0,0,1,.38-.22.3.3,0,0,0,.19-.13.43.43,0,0,0,.23,0,.41.41,0,0,1,.19,0h.38a.59.59,0,0,1,.17,0l.17,0,.46-.09c.08,0,.12,0,.14,0a.63.63,0,0,0,.26,0l.19-.08.38,0a2.51,2.51,0,0,1,.47,0,1.83,1.83,0,0,0,.4,0l.27-.06a1.52,1.52,0,0,0,.36,0,.22.22,0,0,1,.14,0,1.15,1.15,0,0,1,.26.08.57.57,0,0,0,.25,0,.33.33,0,0,0,.16.21.4.4,0,0,1,.15.14c0,.21.06.33,0,.35s0,0,0,.06a.82.82,0,0,0-.08.3.17.17,0,0,1,0,.08.7.7,0,0,1,0,.23.24.24,0,0,0,0,.22.7.7,0,0,0-.08.2,5.12,5.12,0,0,0-.11.46.41.41,0,0,0,0,.22l0,.35a1.9,1.9,0,0,0,0,.35c0,.06,0,.14,0,.24a1.06,1.06,0,0,0,0,.3.34.34,0,0,0,0,.2.44.44,0,0,1,0,.15.25.25,0,0,0-.05.18,1.37,1.37,0,0,1,0,.19,1.72,1.72,0,0,1,0,.34s0,0,0,0a.66.66,0,0,0,0,.32.28.28,0,0,1,0,.13,2,2,0,0,0,0,.31.22.22,0,0,0,.07.19,3.58,3.58,0,0,0-.1.62.66.66,0,0,0,.06.27,1,1,0,0,0-.08.41c0,.11,0,.21,0,.32a2.29,2.29,0,0,1,0,.39.91.91,0,0,0,0,.33l.06.45a1.24,1.24,0,0,1,0,.3.05.05,0,0,0,0,0,1.67,1.67,0,0,1,.05.48A.45.45,0,0,0,55.22,83.26Z"/><path class="a0f139c8-ae9d-446f-9b0c-fe2a575c074b" d="M80.56,73.39l.29,0a.19.19,0,0,0,.16,0,1.62,1.62,0,0,0,.57.09h.66a1.19,1.19,0,0,0,.32.11.44.44,0,0,0,.15,0,1.48,1.48,0,0,0,.32.06.2.2,0,0,1,.16.07,2.17,2.17,0,0,0,.47.15l.38.07.38,0a.42.42,0,0,0,.22.11.87.87,0,0,1,.26.08.35.35,0,0,0,.16.09.56.56,0,0,1,.15.1.46.46,0,0,1,.29.11,2.23,2.23,0,0,1,.22.21,3,3,0,0,1,.44.15,2.55,2.55,0,0,0,.48.16.27.27,0,0,1,.12,0l.3.27.08.08.42.27a.23.23,0,0,0,.19,0,1.16,1.16,0,0,0,.34.22.31.31,0,0,1,.13,0l.16.16.12.12a1.23,1.23,0,0,1,.23.23,1,1,0,0,0,.12.15q.23.11.24.15s0,0,.08,0l.25.26a1.48,1.48,0,0,0,.25.34s0,0,.07.07l.2.25.11.13c.15.21.24.31.27.31a.1.1,0,0,1,.08,0,1.49,1.49,0,0,1,.26.31.47.47,0,0,1,0,.17.62.62,0,0,0,.19.14.41.41,0,0,1,.16.18,1.45,1.45,0,0,0,.06.19,1.16,1.16,0,0,1,.06.15.89.89,0,0,1,.19.23.18.18,0,0,0,.1.09,1.61,1.61,0,0,0,.17.4,3.1,3.1,0,0,1,.21.36,3.29,3.29,0,0,0,.19.54.53.53,0,0,1,0,.16,1.8,1.8,0,0,0,0,.19.86.86,0,0,1,.19.41.64.64,0,0,0,.07.28l.12.37a.39.39,0,0,1,0,.14,2.42,2.42,0,0,1,.08.65,1.5,1.5,0,0,0,0,.36c0,.19.07.3.08.33a.76.76,0,0,0,0,.11,2.11,2.11,0,0,0,.05.32s0,0,0,.06,0,.18,0,.29a.82.82,0,0,0,.07.28,1.93,1.93,0,0,1,0,.26.41.41,0,0,0,0,.19v.34a.81.81,0,0,1,0,.29.2.2,0,0,0,0,.09.76.76,0,0,0,0,.26,2.09,2.09,0,0,1,0,.25,2.63,2.63,0,0,1,0,.41,2.73,2.73,0,0,0,0,.41,1.14,1.14,0,0,0,0,.32s0,0,0,0a2.54,2.54,0,0,1-.19.76.76.76,0,0,1,0,.3l-.06.3a1.5,1.5,0,0,0-.08.27,1,1,0,0,1-.08.24,4.35,4.35,0,0,0-.19.42,1.12,1.12,0,0,0,0,.27.81.81,0,0,0-.21.37.55.55,0,0,1-.23.33,1.24,1.24,0,0,0-.22.38.38.38,0,0,1,0,.13,1.64,1.64,0,0,1-.17.26,1.34,1.34,0,0,0-.17.31,2.42,2.42,0,0,1-.23.28,1.37,1.37,0,0,1-.2.3.7.7,0,0,0-.14.21l-.15.19a.53.53,0,0,0-.11.25c-.15.13-.22.21-.23.25a.69.69,0,0,1,0,.13l-.18.25a.22.22,0,0,1-.07.07,3.55,3.55,0,0,0-.31.28l-.14.16c-.21.17-.35.27-.41.31a.81.81,0,0,0-.16.16,2.36,2.36,0,0,1-.25.24s0,0-.06,0l-.37.38a.64.64,0,0,1-.17.16,2.35,2.35,0,0,0-.21.16l-.2.16-.16.12-.16.13a2.47,2.47,0,0,1-.33.24.15.15,0,0,0-.08.08,1.49,1.49,0,0,0-.43.19,1.82,1.82,0,0,1-.43.19,3.9,3.9,0,0,0-.41.2l-.12.08a1,1,0,0,1-.34.08s0,0-.07,0a1.43,1.43,0,0,1-.46.11.46.46,0,0,0-.27,0L84,97.5c-.34.06-.58.12-.73.16a3.43,3.43,0,0,1-.44.09,2,2,0,0,1-.44,0l-.24.07-.14,0a2.15,2.15,0,0,1-.51,0A1.12,1.12,0,0,0,81,98a.34.34,0,0,0-.26,0,.23.23,0,0,1-.21,0,2.15,2.15,0,0,0-.44,0,1.11,1.11,0,0,1-.23,0l-.42,0a.34.34,0,0,0-.18,0L79,97.83a.16.16,0,0,0-.11,0l-.34-.06a1.07,1.07,0,0,0-.42-.12.28.28,0,0,1-.18,0,.83.83,0,0,1-.29-.1.28.28,0,0,0-.25,0,3.67,3.67,0,0,0-.4-.23.85.85,0,0,0-.24-.08L76.4,97l-.11-.06a1.83,1.83,0,0,1-.38-.16.12.12,0,0,0-.09,0c-.17-.13-.26-.18-.27-.17s0,0-.08,0q-.31-.28-.3-.3s0,0,0-.08a1.13,1.13,0,0,1-.28-.14s0,0,0,0l-.34-.28-.32-.19a1.52,1.52,0,0,1-.25-.32L73.6,95c-.23-.19-.38-.31-.46-.36a2.51,2.51,0,0,0-.27-.18l-.14-.25a.18.18,0,0,0-.08-.06c-.15-.24-.24-.38-.28-.43a.73.73,0,0,0-.16-.14,1.15,1.15,0,0,0-.35-.51c-.15-.21-.24-.34-.28-.38s-.09-.16-.15-.24a1.26,1.26,0,0,1-.14-.26A3.1,3.1,0,0,0,71,91.9a1.57,1.57,0,0,1-.16-.32,1.18,1.18,0,0,1-.16-.34,4.8,4.8,0,0,1-.25-.51,1.54,1.54,0,0,1-.19-.41.19.19,0,0,0-.06-.13c-.09-.23-.14-.37-.16-.41l-.13-.44a2.1,2.1,0,0,1-.16-.51,1.39,1.39,0,0,0-.12-.41c0-.13,0-.22-.05-.27a1.19,1.19,0,0,0-.08-.21,2.78,2.78,0,0,1-.16-1,1.38,1.38,0,0,1,0-.22,1.48,1.48,0,0,0,0-.22,2.34,2.34,0,0,1,0-.26c0-.08,0-.17,0-.28a.92.92,0,0,0,0-.41.33.33,0,0,1,0-.22q-.08-.2,0-.27a.7.7,0,0,0,0-.24,1.17,1.17,0,0,1,0-.25.22.22,0,0,0,0-.1,1.07,1.07,0,0,0,0-.25,1.07,1.07,0,0,1,0-.25c0-.19,0-.32,0-.38a1.48,1.48,0,0,1,0-.26,2.15,2.15,0,0,1,.1-.44,3.61,3.61,0,0,0,.06-.44.41.41,0,0,1,0-.19,1,1,0,0,0,.12-.27.09.09,0,0,1,.06-.08,3.57,3.57,0,0,1,.1-.57,1.48,1.48,0,0,0,.22-.4.3.3,0,0,1,0-.11.94.94,0,0,1,.1-.14l.12-.17a2.68,2.68,0,0,0,.18-.33,1.68,1.68,0,0,1,.2-.34c0-.06,0-.12,0-.19a.14.14,0,0,0,0-.19,1.1,1.1,0,0,0,.2-.28.65.65,0,0,1,.21-.25.37.37,0,0,1,.08-.26,1.33,1.33,0,0,0,.14-.19.55.55,0,0,1,.17-.2,1.24,1.24,0,0,0,.21-.18,1.35,1.35,0,0,0,.22-.28.09.09,0,0,1,0-.06,1.7,1.7,0,0,1,.21-.26.23.23,0,0,0,.08-.12.46.46,0,0,0,.2-.13.9.9,0,0,1,.18-.16,1.06,1.06,0,0,1,.2-.14.33.33,0,0,0,.11-.08l.29-.32.12-.12.13-.13a1.29,1.29,0,0,1,.29-.25l.27-.18a.38.38,0,0,1,.17-.08l.25-.25.26-.25a.44.44,0,0,0,.06-.1l.35-.22a.57.57,0,0,1,.34-.22,1.3,1.3,0,0,1,.4-.19.38.38,0,0,0,.18-.06l.41-.1a1.16,1.16,0,0,1,.25-.14l.13,0a1.28,1.28,0,0,0,.6-.06,2.14,2.14,0,0,1,.35-.16,3.62,3.62,0,0,0,.34-.21.92.92,0,0,1,.29-.11,2.84,2.84,0,0,0,.47-.06.93.93,0,0,1,.26,0l.47-.1a1,1,0,0,1,.4,0l.14,0ZM86.16,81a.43.43,0,0,0-.08-.27,1.13,1.13,0,0,1-.14-.27c-.19-.19-.31-.3-.36-.34a1.18,1.18,0,0,0-.18-.13,1.65,1.65,0,0,0-.38-.35c-.12-.15-.2-.22-.23-.22s-.05,0-.05-.06l-.32-.19a2.85,2.85,0,0,0-.63-.38l-.35-.1a1.8,1.8,0,0,1-.44-.22.87.87,0,0,0-.32-.13.41.41,0,0,1-.16,0,3.08,3.08,0,0,1-.41-.16,1.17,1.17,0,0,1-.38-.07s-.08,0-.12,0h-.48l-.44,0a.89.89,0,0,0-.29.08,3.26,3.26,0,0,1-.53.09.68.68,0,0,0-.29.07l-.31.12s-.08,0-.1,0l-.32.08-.06,0-.32.16-.2.11-.14.11-.45.32c-.19.16-.28.24-.28.22a4.55,4.55,0,0,1-.46.58,2.1,2.1,0,0,0-.24.3.31.31,0,0,0-.22.16.35.35,0,0,1-.19.19,1,1,0,0,1-.16.32,1.49,1.49,0,0,0-.16.31l-.26.43a1.84,1.84,0,0,0-.18.33,1.49,1.49,0,0,0-.06.35c-.11.17-.15.27-.14.3a.25.25,0,0,1,0,.08,2,2,0,0,1,0,.29.5.5,0,0,0,0,.12,2.25,2.25,0,0,1-.08.37.05.05,0,0,0,0,0c-.06.24-.09.36-.07.38a.14.14,0,0,1,0,.1,1.72,1.72,0,0,0-.11.58c0,.14,0,.26,0,.37a1,1,0,0,0,0,.33,1.49,1.49,0,0,1,0,.21,2,2,0,0,0,0,.52,1.69,1.69,0,0,1,0,.23,1.15,1.15,0,0,1,0,.19.4.4,0,0,0,0,.19s.05.1.07.16a.68.68,0,0,1,0,.19,1.5,1.5,0,0,0,0,.38.25.25,0,0,1,0,.1,1.39,1.39,0,0,1,0,.42.5.5,0,0,0,.11.34c0,.06,0,.14,0,.25a.71.71,0,0,0,0,.22.94.94,0,0,1,.16.32l.19.35a.57.57,0,0,0,.1.25.73.73,0,0,1,.09.22,4.28,4.28,0,0,1,.29.33,1.55,1.55,0,0,1,.19.43l.15.13a.38.38,0,0,1,.16.19,2.89,2.89,0,0,1,.41.41,1.11,1.11,0,0,1,.3.17c.1.08.2.15.3.24l.2.14.15.11a.66.66,0,0,0,.32.19.38.38,0,0,1,.16,0,2.8,2.8,0,0,1,.38.16l.35.13c.25.1.42.17.5.19l.19.06a1.19,1.19,0,0,0,.43,0l.14,0h.35s.05,0,.09,0a2.24,2.24,0,0,0,.49.08l.18-.05a1.18,1.18,0,0,1,.6,0l.3-.11.27-.11a.34.34,0,0,1,.24-.08.22.22,0,0,0,.14,0,1.27,1.27,0,0,0,.35-.16.54.54,0,0,1,.33-.14l.17,0a.35.35,0,0,0,.22-.11.33.33,0,0,1,.19-.11.88.88,0,0,0,.35-.16,1.55,1.55,0,0,0,.41-.21.12.12,0,0,1,.1,0,3.32,3.32,0,0,0,.44-.51l.29-.25a.82.82,0,0,1,.15-.38c.13,0,.21-.09.24-.15l.08-.14a3.07,3.07,0,0,1,.19-.31.13.13,0,0,0,0-.07,1,1,0,0,0,0-.28.25.25,0,0,1,0-.1,1.5,1.5,0,0,0,.26-.54c0-.1,0-.22.08-.36a.58.58,0,0,1,.11-.27l.16-.46.06-.23a1.86,1.86,0,0,1,.06-.31.35.35,0,0,0,0-.14,1.09,1.09,0,0,1,0-.39s0-.07,0-.11a3,3,0,0,0,.1-.51,2.1,2.1,0,0,1,0-.4.17.17,0,0,0,0-.17,1.63,1.63,0,0,0,0-.76l-.09-.38a1.38,1.38,0,0,1-.1-.38,1,1,0,0,0-.12-.47.73.73,0,0,1-.12-.35.5.5,0,0,0,0-.16,1.54,1.54,0,0,0-.08-.19,1.54,1.54,0,0,1-.08-.19,1.85,1.85,0,0,0-.06-.41,1.4,1.4,0,0,1-.16-.38,1.63,1.63,0,0,1-.16-.46.83.83,0,0,0-.06-.27.22.22,0,0,1-.21-.09C86.24,81,86.21,81,86.16,81Z"/><path class="a0f139c8-ae9d-446f-9b0c-fe2a575c074b" d="M101.86,91.71a2.1,2.1,0,0,0,0,.27c0,.07,0,.17,0,.3a.88.88,0,0,1,0,.3,1.06,1.06,0,0,0,0,.21,1.51,1.51,0,0,1,0,.33.08.08,0,0,0,0,0,1.49,1.49,0,0,0,0,.17,1.49,1.49,0,0,1,0,.21.44.44,0,0,1,0,.2.49.49,0,0,0,0,.21,1.5,1.5,0,0,0,0,.3.05.05,0,0,1,0,0,.9.9,0,0,1,0,.18.91.91,0,0,0,0,.17,2.77,2.77,0,0,0,.06.45v.25a1.07,1.07,0,0,0,0,.25l.07.63a1.1,1.1,0,0,1,0,.34.15.15,0,0,0,0,.11.51.51,0,0,0,0,.22.25.25,0,0,1,0,.19.22.22,0,0,1-.12.13.66.66,0,0,0-.19.09l-.42.21s0,0-.09,0a.18.18,0,0,1-.18,0,.24.24,0,0,0-.17,0,1.38,1.38,0,0,0-.3,0h-.08a2.82,2.82,0,0,0-.47-.06,1.72,1.72,0,0,0-.6,0,2.32,2.32,0,0,0-.4,0,.2.2,0,0,1-.11,0l-.27,0a1.39,1.39,0,0,0-.3,0l-.36,0s0,0,0,0l-.48.06-.44,0a.4.4,0,0,1-.22,0,.33.33,0,0,0-.22,0,1,1,0,0,0-.25,0c-.09,0-.15,0-.19-.16a1.2,1.2,0,0,1-.15-.38.92.92,0,0,1,0-.28l0-.45,0-.34a1,1,0,0,1,.07-.22.8.8,0,0,0,0-.23.47.47,0,0,0,0-.2,1,1,0,0,1,0-.18,3.37,3.37,0,0,1,0-.44,3.48,3.48,0,0,0,0-.47,2.66,2.66,0,0,0,0-.3c0-.1,0-.2,0-.3a2.7,2.7,0,0,0,0-.48c0-.1,0-.21,0-.32a.85.85,0,0,1,0-.25.63.63,0,0,0,0-.19,1.93,1.93,0,0,0,0-.24.86.86,0,0,1,0-.23,2,2,0,0,1,0-.37.82.82,0,0,0,0-.27c-.06-.21-.07-.31,0-.31s0,0,0-.07a2.09,2.09,0,0,0,0-.5,4.36,4.36,0,0,1,0-.51c0-.17,0-.32,0-.46a2.42,2.42,0,0,0,0-.46.94.94,0,0,0,0-.41l-.11-.19c0-.1,0-.2,0-.3a3.22,3.22,0,0,0,0-.33.85.85,0,0,1,0-.32.69.69,0,0,0,0-.22,1,1,0,0,0,0-.28,1.1,1.1,0,0,1-.05-.29c0-.21,0-.36,0-.46v-.3q0-.29,0-.3s0,0,0,0v-.38a3.44,3.44,0,0,1,0-.61c0-.1,0-.2,0-.28a3.18,3.18,0,0,1,0-.38.45.45,0,0,0,0-.25,1,1,0,0,0,0-.24.53.53,0,0,1,0-.14,5.44,5.44,0,0,1,0-.57,5.44,5.44,0,0,0,0-.57,3.17,3.17,0,0,1,0-.41v-.45a1.35,1.35,0,0,0,0-.38.27.27,0,0,1,0-.12c0-.19,0-.33,0-.41s0-.15,0-.19v-.41a2.32,2.32,0,0,1-.06-.45v-.3a1.69,1.69,0,0,0,0-.3A3,3,0,0,1,96,78c0-.11,0-.23,0-.36a2.31,2.31,0,0,1-.15-.48.66.66,0,0,0-.08-.25,1,1,0,0,1,0-.39.13.13,0,0,0,0-.12.92.92,0,0,0-.09-.38.18.18,0,0,0,0-.2.52.52,0,0,1,0-.21,1.22,1.22,0,0,1,0-.22.11.11,0,0,0,0-.12.84.84,0,0,1,0-.29.22.22,0,0,0,0-.09,1,1,0,0,0,0-.18.33.33,0,0,1,0-.17,2.06,2.06,0,0,1,.19-.35A.88.88,0,0,0,96.1,74a.11.11,0,0,1,.09-.05h.38a.41.41,0,0,1,.22,0L97,74h.45a1.52,1.52,0,0,0,.36.05l.11,0a4.58,4.58,0,0,0,.48.11l.22.05a1.48,1.48,0,0,1,.36,0,1,1,0,0,0,.24,0l.24,0,.27,0,.34,0h.34s0,0,.07,0a1.23,1.23,0,0,1,.29,0l.29.06.33,0a1.84,1.84,0,0,1,.33,0,1.93,1.93,0,0,1,.33,0l.33,0h.8l.3,0,.26,0H104l.27,0h.32l.35,0a2.47,2.47,0,0,0,.42,0l.21,0,.3,0h.2a1.82,1.82,0,0,0,.46,0,.15.15,0,0,1,.11,0l.19.06.22.06.2,0a.23.23,0,0,1,.15.11.18.18,0,0,1,.22,0,.42.42,0,0,0,.26.08A.25.25,0,0,0,108,75a.67.67,0,0,1,.24.08l.41.25a2.39,2.39,0,0,1,.46.25.88.88,0,0,0,.27.16l.3.19s0,0,0,0l.29.28a1.44,1.44,0,0,0,.25.22.16.16,0,0,1,.07.13l.2.16a.33.33,0,0,1,.11.13.58.58,0,0,1,.21.17,1.29,1.29,0,0,0,.2.21l.29.22a3.57,3.57,0,0,0,.24.42.31.31,0,0,1,0,.15.4.4,0,0,1,.1.15.66.66,0,0,0,.09.19c.13.32.22.54.29.67a.48.48,0,0,1,.12.22.22.22,0,0,0,0,.13,1.09,1.09,0,0,1,.12.25.33.33,0,0,0,0,.1c0,.1.1.21.16.31l.13.35a.49.49,0,0,1,.08.21.39.39,0,0,0,.08.2l.12.57a1.13,1.13,0,0,1,.05.4.54.54,0,0,0,0,.26,2.79,2.79,0,0,0,0,.46.39.39,0,0,1,0,.18,1,1,0,0,0,.06.41.34.34,0,0,0,0,.25c0,.11,0,.21,0,.32a1.48,1.48,0,0,1,0,.22.5.5,0,0,0,0,.16.88.88,0,0,0,0,.47,1.42,1.42,0,0,0-.08.38,1.27,1.27,0,0,1-.08.38.43.43,0,0,0-.06.22,1.59,1.59,0,0,1,0,.29,1.44,1.44,0,0,1-.15.35s0,0,0,0a1.47,1.47,0,0,0-.3.52.25.25,0,0,1-.18.21.38.38,0,0,1-.06.19.64.64,0,0,1-.13.15,1.27,1.27,0,0,0-.12.26.23.23,0,0,1,0,.09l-.26.26c-.17.21-.29.35-.38.44l-.22.31-.25.29a2.07,2.07,0,0,0-.51.38l-.24.2-.11.12a2.53,2.53,0,0,1-.36.28.18.18,0,0,0-.11.13,3.73,3.73,0,0,0-.41.22,1.11,1.11,0,0,0-.16.12.46.46,0,0,0-.21,0l-.17.08a.68.68,0,0,0-.41.19,3.08,3.08,0,0,1-.38.1.31.31,0,0,0-.13,0l-.44.17a.42.42,0,0,0-.25.18l-.35,0a.05.05,0,0,0-.06.06c-.17,0-.26,0-.27,0h-.08a2.78,2.78,0,0,0-.6.13l-.3,0a.36.36,0,0,0-.24,0,1.86,1.86,0,0,1-.37.12.38.38,0,0,0-.14,0l-.47.06a.38.38,0,0,0-.22.05.25.25,0,0,1-.19,0,1.86,1.86,0,0,0-.38.07l-.19.06a1.42,1.42,0,0,0-.42,0,2,2,0,0,0-.44.09Zm.41-3.45a5.23,5.23,0,0,0,.63-.09l.57-.1.35-.22.3-.11a.23.23,0,0,0,.11,0l.3-.3a.43.43,0,0,0,.08-.2c.23-.11.33-.17.3-.19s0,0,0-.07a1.05,1.05,0,0,1,.44-.28,2.77,2.77,0,0,0,.3-.29l.08-.09A3.49,3.49,0,0,1,106,86l.07,0c.17-.17.25-.27.25-.32a3.44,3.44,0,0,1,.25-.28,1.24,1.24,0,0,0,.37-.24.76.76,0,0,1,.11-.14,3.05,3.05,0,0,0,.33-.36c0-.06.06-.1.08-.15s.17-.3.19-.35a.66.66,0,0,0,.13-.26.62.62,0,0,1,0-.18l.06-.17a.48.48,0,0,0,0-.18,1,1,0,0,0,0-.3,2.66,2.66,0,0,1,0-.3,2,2,0,0,0,.07-.38.46.46,0,0,0,0-.19L107.9,82a1.46,1.46,0,0,0-.06-.23.48.48,0,0,1,0-.18,1.48,1.48,0,0,0-.23-.36s0,0,0-.08l-.22-.32a3.61,3.61,0,0,1-.22-.31.19.19,0,0,0-.1-.1c-.06-.12-.09-.21-.11-.25a.3.3,0,0,0,0-.1,3.39,3.39,0,0,0-.32-.25,3.07,3.07,0,0,0-.19-.31,1.36,1.36,0,0,0-.21-.24A.66.66,0,0,1,106,79a.37.37,0,0,1-.28-.25,1.71,1.71,0,0,0-.27-.14l-.08,0a1.9,1.9,0,0,0-.29-.29.28.28,0,0,1-.12-.16.21.21,0,0,1-.19-.09c0-.06-.09-.08-.13-.06l-.31-.29a1.4,1.4,0,0,0-.34-.19l-.11,0a1.2,1.2,0,0,0-.9-.4,2.44,2.44,0,0,1-.81-.07l-.28.17a.05.05,0,0,0,0,0,.72.72,0,0,0,0,.3,1.66,1.66,0,0,1,0,.24,4.39,4.39,0,0,0,0,.44,1.11,1.11,0,0,1,0,.19,1.28,1.28,0,0,1-.07.43.18.18,0,0,0,0,.11,5.72,5.72,0,0,0,0,.64.57.57,0,0,1,0,.37v.44a1.93,1.93,0,0,1,0,.36s0,0,0,.05a.63.63,0,0,1,0,.35v.79a1.62,1.62,0,0,1,0,.44l-.06.51v.57c0,.3-.08.52-.1.68a.85.85,0,0,0,0,.4v.41a1.46,1.46,0,0,1,0,.66c0,.13,0,.26,0,.4a1.68,1.68,0,0,0,0,.39,1.27,1.27,0,0,0,0,.29,1.2,1.2,0,0,1,0,.28v.41q0,.25.06.48a1.85,1.85,0,0,1,0,.47.38.38,0,0,0,.29,0Z"/></g><g id="bdcaf328-08b6-4522-be29-ec60597d47d9" data-name="Livello 2"><path class="b322431b-ef00-4236-b97b-1ea8a765d6af" d="M127.74,100a28.11,28.11,0,0,1-.19-3.46h0a3,3,0,0,0-.84-2.32c-.13-.12-.26-.22-.39-.32l-.17-.13c-.45-.37-.77-.84-.07-1.74a8.15,8.15,0,0,0,1.18-4.14l0-.16c0-.17,0-.34,0-.54s0-.4,0-.61l0-1.15c0-.65,0-1.31,0-2a65.34,65.34,0,0,1,.18-7.14,21.65,21.65,0,0,0,.08-4.45,2.2,2.2,0,0,1,.21-1.33,5.7,5.7,0,0,0,.37-4.24c-.1-.36-.18-.74-.25-1.12s-.12-.58-.19-.87-.24-.83-.38-1.22A1.52,1.52,0,0,0,126,62l-.33,0a10.59,10.59,0,0,0-1.5-.15c-2.22,0-4.43,0-6.63,0-1.41,0-3-.05-4.54-.21a14.2,14.2,0,0,0-4.55.14,7.35,7.35,0,0,1-3.2,0,13.07,13.07,0,0,0-3-.49c-1.24,0-2.48,0-3.72,0-1.63,0-3.33,0-5,0a34.48,34.48,0,0,0-6.5.34,20.43,20.43,0,0,1-4.69.09,37.9,37.9,0,0,0-4.12-.08h-.49a27.93,27.93,0,0,1-4.48-.14A31.51,31.51,0,0,0,68,61c-1.51,0-3,.06-4.54.08-.28,0-.57,0-.86,0-.58,0-1.19,0-1.8.05-1.26.13-2.53.29-3.79.45l-2.11.25a30.2,30.2,0,0,1-5.53.27,18,18,0,0,0-4.85.29,15.49,15.49,0,0,1-4.48.46c-1.33-.1-2.74-.12-4.31-.1-1.24,0-2.47.07-3.7.13L30.2,63h-.77c-.54,0-1.08-.06-1.63-.11a12.69,12.69,0,0,0-3.26,0l-1.19.22c-.63.12-1.27.24-1.9.32a13.33,13.33,0,0,1-1.4.09c-.45,0-.9,0-1.34.09a8.63,8.63,0,0,0-2.15.47c-.42.17-1.35.74-.72,2.58a2,2,0,0,1,.12.61c0,1-.07,2-.12,3l-.05,1.33c0,1-.08,2-.14,2.93,0,.14,0,.28-.06.42a3.72,3.72,0,0,0-.08.57c0,.42,0,.84,0,1.25,0,.26,0,.52,0,.79s0,.35,0,.53,0,.48,0,.69a2,2,0,0,0,1,2l.21.07h0a1.49,1.49,0,0,1,.56,1l-.92.6a1.75,1.75,0,0,0-.73,1.33c0,.32-.07.65-.09,1l0,.19c0,.39,0,.78,0,1.17a6.35,6.35,0,0,1-.11,1.79.68.68,0,0,0,0,.36,4.89,4.89,0,0,1,.08,1.59l0,.34a22.81,22.81,0,0,0-.08,8.69,2.75,2.75,0,0,0,.34,1.5l.18.3v0a51.06,51.06,0,0,0-.34,6.31c0,.43,0,.86,0,1.29,0,.89.23,1.54,1.06,1.85a1.45,1.45,0,0,1,.23.15l.27.18a6.52,6.52,0,0,0,1.38.67,8.93,8.93,0,0,0,3.75,0c.58-.09,1.16-.2,1.73-.3.74-.14,1.51-.28,2.25-.37a36.23,36.23,0,0,1,6.58-.2,9,9,0,0,0,3-.24,3.42,3.42,0,0,1,1.56,0c1,.17,2,.4,2.94.61l1.22.27.23.06c.48.12,1,.24,1.46.32a20.83,20.83,0,0,0,5.69,0l.31,0a13.64,13.64,0,0,1,3.76.31,10.91,10.91,0,0,0,2.91.31c1-.08,2.06-.23,3-.38.71-.11,1.41-.21,2.11-.29a32.6,32.6,0,0,1,3.6-.22,52.31,52.31,0,0,0,6.48-.28c.24,0,.47-.06.71-.09a13.17,13.17,0,0,1,2.14-.16c2.3,0,4.63.21,6.6.37,1.4.11,2.8.24,4.19.38l3.22.29a33.28,33.28,0,0,0,5.82-.07l.63-.06c1.15-.1,2.35-.2,3.51-.23,1.38,0,2.75,0,4.16,0,.56,0,1.12,0,1.68.07l1,0,.79,0c.75,0,1.51.07,2.26.07.44,0,.9,0,1.36,0,.64,0,1.24,0,1.85,0s1.47.12,2.2.2c.58.06,1.16.13,1.75.17.41,0,.83,0,1.25,0a14.77,14.77,0,0,1,1.52.07,18.88,18.88,0,0,0,2.81.21c.53,0,1.07,0,1.6-.07s1.22-.09,1.82-.1,1,0,1.48-.07a3.58,3.58,0,0,0,1.28-.42,1.56,1.56,0,0,0,.85-1,11.11,11.11,0,0,0,.37-2.1,42.25,42.25,0,0,0,0-6.56C127.85,101.16,127.79,100.6,127.74,100ZM38,76.29ZM92.39,63.36Zm9.17,0Z"/><path class="a0f139c8-ae9d-446f-9b0c-fe2a575c074b" d="M43,73.2a.12.12,0,0,1,.17,0c.07,0,.13,0,.17,0a1.21,1.21,0,0,0,.38.19.62.62,0,0,0,.32.19l.28.25a2.09,2.09,0,0,0,.5.44l.33.19a1.07,1.07,0,0,1,.38.19.29.29,0,0,0,.12.13L46,75a1.18,1.18,0,0,1,.28.22,1.38,1.38,0,0,1,.27.08.41.41,0,0,1,.21.11,1.58,1.58,0,0,1,.08.44,1.23,1.23,0,0,0,0,.19.53.53,0,0,0-.11.21.29.29,0,0,1-.08.14,1.7,1.7,0,0,1-.22.31,2.92,2.92,0,0,1-.3.24l-.14.11a2.18,2.18,0,0,1-.33.3.16.16,0,0,0-.08,0,.61.61,0,0,0-.22.29c-.09,0-.15,0-.18.07a.22.22,0,0,1-.14.11l-.27.21-.08.08a2.66,2.66,0,0,0-.27.24l-.14.14c-.17.19-.26.3-.28.33l-.1.11a2.14,2.14,0,0,1-.22.3.18.18,0,0,0-.06.08,4,4,0,0,1-.29.35.89.89,0,0,0-.16.22c-.1.19-.17.3-.19.33a.11.11,0,0,0,0,.11.77.77,0,0,1-.17.29.26.26,0,0,0-.11.16.69.69,0,0,1,0,.35.7.7,0,0,0-.07.31c0,.23,0,.37.07.41a2,2,0,0,0,.15.56,1.46,1.46,0,0,1,.16.36,2.18,2.18,0,0,1,.11.27c0,.09.07.18.11.27a2.3,2.3,0,0,0,.19.39l.13.18a1.47,1.47,0,0,0,.27.27.13.13,0,0,1,.08.08.69.69,0,0,0,.11.23.76.76,0,0,1,.08.11c.08.13.15.24.2.34s.11.18.18.27a2.6,2.6,0,0,1,.14.3.48.48,0,0,0,.08.11,1.82,1.82,0,0,0,.19.31,1.44,1.44,0,0,0,.24.34s0,0,0,0c.06.26.11.45.14.57s.07.26.12.38a.91.91,0,0,0,.11.24.49.49,0,0,0,.11.14l.12.41a3.86,3.86,0,0,0,.19.35.09.09,0,0,1,0,.06,1.78,1.78,0,0,1,.07.42.61.61,0,0,0,.06.25l.06.24a.7.7,0,0,1,0,.27,1.06,1.06,0,0,0,0,.34.35.35,0,0,1,0,.13,1.8,1.8,0,0,1,0,.27,1.78,1.78,0,0,0,0,.3.68.68,0,0,1,0,.24.37.37,0,0,0,0,.11,3,3,0,0,1-.11.47.36.36,0,0,0,0,.19,3.39,3.39,0,0,0-.21.46.23.23,0,0,1-.08.14c-.06.15-.1.25-.11.29a.21.21,0,0,1-.08.12.92.92,0,0,1-.25.35c-.11.21-.21.34-.32.38a.33.33,0,0,1-.06.21l-.13.17c-.08.09-.12.15-.12.19a.31.31,0,0,1,0,.13,3.64,3.64,0,0,0-.34.36.35.35,0,0,1-.17.14,4.06,4.06,0,0,0-.32.37,1.86,1.86,0,0,0-.25.46.64.64,0,0,0-.28.25A1.63,1.63,0,0,1,43,96s0,0-.07.08l-.14.24-.08.14a1.11,1.11,0,0,0-.32.22,1.35,1.35,0,0,1-.2.19l-.11.06c-.15.13-.22.2-.22.22a.08.08,0,0,1,0,.07,2.23,2.23,0,0,1-.26.39l-.18.18a.36.36,0,0,0-.22.28l-.33.25a.67.67,0,0,1-.21.1q-.35.06-.39,0s-.1,0-.21,0a1.23,1.23,0,0,0-.3-.21s0,0,0,0a.91.91,0,0,1-.11-.16.64.64,0,0,0-.11-.16,3.49,3.49,0,0,1-.3-.28s0,0-.08,0a3.42,3.42,0,0,1-.54-.54,1.12,1.12,0,0,0-.28-.18l-.16,0-.25-.51a2.14,2.14,0,0,1-.33-.33.2.2,0,0,0-.08-.08L37,95.48a2.31,2.31,0,0,0-.34-.54.34.34,0,0,0-.1-.27.4.4,0,0,1-.13-.24.53.53,0,0,1,0-.2,1,1,0,0,1,.11-.21,1.79,1.79,0,0,1,.24-.4,1,1,0,0,1,.21-.17,1,1,0,0,0,.31-.32,4.15,4.15,0,0,1,.51-.5,1.39,1.39,0,0,0,.11-.21.35.35,0,0,1,.17-.17l.45-.48c.1-.1.21-.21.31-.33a4.46,4.46,0,0,0,.32-.39l.3-.37a.44.44,0,0,0,.08-.11,1.7,1.7,0,0,0,.27-.43.57.57,0,0,1,0-.14,3.35,3.35,0,0,0,.34-.6.82.82,0,0,0,0-.51l0-.34a2.06,2.06,0,0,1-.19-.4.67.67,0,0,0-.1-.21,1,1,0,0,0-.31-.31.4.4,0,0,0-.13-.24.67.67,0,0,1-.16-.24.34.34,0,0,1-.11-.19.22.22,0,0,0-.08-.15,3.82,3.82,0,0,1-.25-.38c0-.09-.08-.17-.13-.26a1,1,0,0,0-.15-.23s0,0-.07-.08l-.28-.32a2.8,2.8,0,0,0-.15-.3c0-.1-.11-.2-.17-.3a2,2,0,0,0-.14-.25,2,2,0,0,1-.14-.29,1.1,1.1,0,0,1-.13-.25.13.13,0,0,0,0-.07,1.93,1.93,0,0,1-.22-.34L37,83.36q-.14-.28-.15-.3a.07.07,0,0,1,0,0l-.16-.21-.06-.11a1.71,1.71,0,0,1-.1-.38,2.88,2.88,0,0,0-.14-.47.54.54,0,0,1,0-.22c0-.21.08-.4.13-.57a2,2,0,0,1,.09-.34l.07-.11a2.49,2.49,0,0,0,0-.58,1,1,0,0,1,.05-.4,3.52,3.52,0,0,0,.25-.53,4.14,4.14,0,0,0,.19-.46,1.13,1.13,0,0,1,.07-.18,1.1,1.1,0,0,1,.22-.41l.22-.3.06-.11a2.39,2.39,0,0,0,.41-.44,2.07,2.07,0,0,1,.27-.32.87.87,0,0,0,.21-.25,1,1,0,0,1,.11-.19l.11-.13c.15-.1.23-.18.25-.24a.45.45,0,0,1,.1-.14l.2-.17a.62.62,0,0,0,.18-.18l.11-.12.11-.16a2.93,2.93,0,0,0,.51-.32,1,1,0,0,1,.22-.16,2.81,2.81,0,0,0,.5-.41l.24-.19s0,0,0-.06a2.32,2.32,0,0,0,.25-.21l.29-.23a1,1,0,0,1,.22-.29,0,0,0,0,0,0,0,1.28,1.28,0,0,1,.59-.32C42.86,73.05,43,73.09,43,73.2Z"/><path class="a0f139c8-ae9d-446f-9b0c-fe2a575c074b" d="M55.22,83.26a.78.78,0,0,0,.35,0,.85.85,0,0,1,.38,0l.34.09q.68,0,1.14,0l1,0h.57a2.31,2.31,0,0,0,.53,0h.35l.32,0h.32a1,1,0,0,1,0-.4c0-.11,0-.23,0-.33a1,1,0,0,0,0-.24.88.88,0,0,1,0-.24,1.25,1.25,0,0,0,0-.3.31.31,0,0,1,0-.11,1.82,1.82,0,0,0,.05-.34s0,0,0,0a.93.93,0,0,0,0-.44,2.15,2.15,0,0,1,0-.44.52.52,0,0,1,0-.18.47.47,0,0,0,0-.17.63.63,0,0,0,0-.19.85.85,0,0,1,0-.25v-.35a2,2,0,0,0,0-.22,1.86,1.86,0,0,1,0-.22,2.44,2.44,0,0,1,0-.54v-.45a1,1,0,0,0-.11-.36.15.15,0,0,1,0-.08,1,1,0,0,1,0-.47,3.47,3.47,0,0,1-.08-.4,1,1,0,0,0-.08-.3.27.27,0,0,1,0-.16,1.15,1.15,0,0,0,0-.19c0-.1,0-.19,0-.27a1.24,1.24,0,0,1,0-.3.8.8,0,0,0,0-.33.2.2,0,0,1,0-.11.86.86,0,0,1,.06-.33s0,0,0-.08l.29-.29c.19-.1.31-.14.38-.12a.58.58,0,0,0,.19,0,1.51,1.51,0,0,1,.45,0,.44.44,0,0,0,.15,0,1.48,1.48,0,0,1,.42,0,.25.25,0,0,0,.15,0h.38a1.41,1.41,0,0,1,.31,0,.22.22,0,0,0,.1,0,2.45,2.45,0,0,1,.52-.05.4.4,0,0,0,.2,0c.2,0,.31,0,.35-.07l.22,0a.38.38,0,0,0,.29,0,.76.76,0,0,0,.63,0,1.12,1.12,0,0,0,.24.1,1,1,0,0,0,.27,0c.23.15.34.24.31.28s0,.07,0,.07c.06.23.1.36.11.39a.37.37,0,0,1,0,.11,3.29,3.29,0,0,0-.09.56.54.54,0,0,1-.07.27,2.39,2.39,0,0,1,0,.34s0,.11-.05.19a2.89,2.89,0,0,1,0,.42.22.22,0,0,0,0,.09l0,.35a2.65,2.65,0,0,0,0,.43.31.31,0,0,1,0,.11,3.37,3.37,0,0,1,0,.44,1.08,1.08,0,0,0,0,.44,2.45,2.45,0,0,1,0,.27c0,.1,0,.2,0,.3s0,.3-.05.32a.11.11,0,0,0,0,.09,1.15,1.15,0,0,1,0,.48.82.82,0,0,0,0,.28,2,2,0,0,0,0,.33,1.34,1.34,0,0,1,0,.21l-.06.46a1.37,1.37,0,0,0,0,.49,2,2,0,0,1-.08.36.07.07,0,0,0,0,0c0,.25.06.39.06.41a1.87,1.87,0,0,1,0,.27.58.58,0,0,0,0,.27.62.62,0,0,0,.38,0l.25.08a.37.37,0,0,0,.29,0,.29.29,0,0,0,.16.1.27.27,0,0,1,.15.13L67,84a.56.56,0,0,1,.06.35c0,.1,0,.2-.06.28a.72.72,0,0,0,0,.29.41.41,0,0,1,0,.19.68.68,0,0,1,0,.19.41.41,0,0,0,0,.19,1.86,1.86,0,0,0,0,.36,2.38,2.38,0,0,1,0,.39,2.38,2.38,0,0,0,0,.26c0,.08,0,.18,0,.28a3.23,3.23,0,0,1-.1.38.69.69,0,0,0,0,.27.22.22,0,0,1,0,.14.38.38,0,0,0-.1.19.18.18,0,0,1-.06.13.59.59,0,0,1-.06.33,1.18,1.18,0,0,0-.13.18l-.4,0-.14,0s-.06.15-.06.34a1.88,1.88,0,0,0-.06.38,2,2,0,0,0,0,.34,1.84,1.84,0,0,1,0,.33,2.76,2.76,0,0,1-.06.5,2.57,2.57,0,0,0,0,.4.13.13,0,0,1,0,.08.44.44,0,0,0,0,.24.2.2,0,0,1,0,.11.7.7,0,0,1,0,.25.69.69,0,0,0,0,.25,2.82,2.82,0,0,1,.11.7,1.94,1.94,0,0,0,0,.41,1.85,1.85,0,0,0,.06.44c0,.17,0,.27,0,.29a.1.1,0,0,1,0,.09,1.5,1.5,0,0,1,0,.32s0,0,0,0a1.27,1.27,0,0,1,.05.32.14.14,0,0,0,0,.06l.07.38.09.38c0,.09,0,.18,0,.29a.34.34,0,0,0,0,.25c.09.23.13.37.15.43a.14.14,0,0,0,.07.11,2,2,0,0,1,0,.46,1,1,0,0,0,0,.2v.4a.26.26,0,0,1,0,.11c-.19.17-.31.25-.36.25s-.08,0-.08.06a1.43,1.43,0,0,0-.4,0h-.2a.72.72,0,0,0-.38,0,.44.44,0,0,0-.21,0h-.2a4.84,4.84,0,0,0-1.08,0,3.08,3.08,0,0,0-.62,0,.91.91,0,0,1-.33,0,1.59,1.59,0,0,0-.58,0,.89.89,0,0,1-.37,0l-.15,0a.91.91,0,0,1-.23-.08,1.59,1.59,0,0,1-.41-.16,3.12,3.12,0,0,0-.09-.44,1.08,1.08,0,0,1-.05-.38,1.37,1.37,0,0,0,0-.16c0-.19,0-.29,0-.29s0,0,0-.06c0-.23,0-.35,0-.35s0,0,0-.06a1.91,1.91,0,0,0,.06-.41.63.63,0,0,0,.05-.24.59.59,0,0,1,0-.17.76.76,0,0,0,0-.42l0-.53v-.38a3.68,3.68,0,0,1,0-.56,1.06,1.06,0,0,0,0-.3,1.32,1.32,0,0,0,0-.5,1.15,1.15,0,0,1,0-.26,2,2,0,0,0,0-.38.61.61,0,0,1,0-.15,1,1,0,0,1,0-.29.07.07,0,0,0,0-.06,1.9,1.9,0,0,0,0-.48,1.25,1.25,0,0,1,0-.35.54.54,0,0,0,0-.3.19.19,0,0,1,0-.2.52.52,0,0,0,0-.21.71.71,0,0,1,0-.14c0-.17,0-.31,0-.43a1.82,1.82,0,0,0-.08-.36q-.34,0-.36,0a.1.1,0,0,0-.08,0,1.41,1.41,0,0,1-.32,0h-.1a2.23,2.23,0,0,1-.56.08l-.32,0a3.09,3.09,0,0,1-.59,0l-.39,0a1.22,1.22,0,0,1-.29,0l-.06,0a1.88,1.88,0,0,0-.4,0h-.14a2.82,2.82,0,0,1-.47-.06.69.69,0,0,1-.22,0,.31.31,0,0,0-.19,0,2,2,0,0,1-.41,0h-.16c-.19.08-.29.15-.29.2v.14a1.21,1.21,0,0,0,0,.4.39.39,0,0,1,0,.14,2.47,2.47,0,0,0,0,.56,1.36,1.36,0,0,1,0,.3c0,.23.06.36.06.38a4.1,4.1,0,0,1-.08.91.9.9,0,0,0,.08.64.44.44,0,0,0,0,.2,2.13,2.13,0,0,1,0,.27,2,2,0,0,1,0,.22,2.15,2.15,0,0,0,0,.62,1.54,1.54,0,0,1,.05.43,1.11,1.11,0,0,1,0,.23.19.19,0,0,0,.06.21.45.45,0,0,0,0,.27l.06.24a1.7,1.7,0,0,0,0,.44.85.85,0,0,1,0,.25.67.67,0,0,0,0,.27.2.2,0,0,1,0,.11.72.72,0,0,0,0,.25.13.13,0,0,1,0,.1,1.7,1.7,0,0,0,0,.28.26.26,0,0,1-.05.19,1.16,1.16,0,0,1-.1.51,2.33,2.33,0,0,0-.19.32s0,0-.06.06a1.37,1.37,0,0,0-.38.19,1.55,1.55,0,0,0-.36,0h0a5.15,5.15,0,0,1-.7.07,1.53,1.53,0,0,0-.47.06,1.17,1.17,0,0,0-.43,0,.73.73,0,0,1-.3,0,1.9,1.9,0,0,1-.35-.06l-.35,0-.31-.06a.17.17,0,0,1-.13-.07,2,2,0,0,0-.39,0l-.05,0a2.27,2.27,0,0,0-.46.08.37.37,0,0,1-.33-.08h-.29a.44.44,0,0,1-.25,0,.66.66,0,0,1-.22-.29,1,1,0,0,1-.07-.35,1.51,1.51,0,0,1,0-.6l.1-.6a1.24,1.24,0,0,0,0-.3.13.13,0,0,1,0-.08,1.06,1.06,0,0,0,0-.46.3.3,0,0,1,0-.2.9.9,0,0,1,0-.18.64.64,0,0,1,0-.17.93.93,0,0,0,0-.48c0-.27,0-.47,0-.6a1.31,1.31,0,0,1,.06-.38.16.16,0,0,1,0-.14.52.52,0,0,0,0-.21.67.67,0,0,1,0-.39,1.34,1.34,0,0,0,.06-.36,3.9,3.9,0,0,1,.06-.51,1.29,1.29,0,0,0,0-.29,3.34,3.34,0,0,0,.05-.71c0-.16,0-.32,0-.49a2.26,2.26,0,0,1,0-.27,1.64,1.64,0,0,0,0-.23,1.85,1.85,0,0,1,0-.54.35.35,0,0,0,0-.26,1,1,0,0,0,0-.45c0-.06,0-.1.07-.15,0-.4,0-.73-.07-1a2.69,2.69,0,0,1,0-.76.33.33,0,0,1,0-.17.29.29,0,0,0,0-.18l0-.66a1,1,0,0,1,0-.36q0-.12.06-.21a.63.63,0,0,0,0-.25c0-.11,0-.21,0-.32a.93.93,0,0,1,0-.41,3.89,3.89,0,0,1,0-.46.51.51,0,0,0,0-.24,3.76,3.76,0,0,1,0-1,.66.66,0,0,1-.06-.27v-.3c0-.3,0-.44-.06-.44a4.65,4.65,0,0,0,.08-.86c0-.19,0-.4-.05-.63s0-.26-.07-.4a.71.71,0,0,1,.07-.42,2.77,2.77,0,0,1,0-.51,1.15,1.15,0,0,0,0-.16,1.3,1.3,0,0,0-.1-.25,1.52,1.52,0,0,1-.09-.25,1.32,1.32,0,0,0,0-.34,1.2,1.2,0,0,0,0-.23c0-.19,0-.35,0-.48a1.28,1.28,0,0,0-.08-.35.68.68,0,0,1-.05-.28.21.21,0,0,0,0-.16,1.52,1.52,0,0,1,0-.4.34.34,0,0,0,0-.11v-.33a1.69,1.69,0,0,1,0-.3,2.39,2.39,0,0,1,.43-.24.22.22,0,0,1,.14,0,1.23,1.23,0,0,1,.38-.22.3.3,0,0,0,.19-.13.43.43,0,0,0,.23,0,.41.41,0,0,1,.19,0h.38a.59.59,0,0,1,.17,0l.17,0,.46-.09c.08,0,.12,0,.14,0a.63.63,0,0,0,.26,0l.19-.08.38,0a2.51,2.51,0,0,1,.47,0,1.83,1.83,0,0,0,.4,0l.27-.06a1.52,1.52,0,0,0,.36,0,.22.22,0,0,1,.14,0,1.15,1.15,0,0,1,.26.08.57.57,0,0,0,.25,0,.33.33,0,0,0,.16.21.4.4,0,0,1,.15.14c0,.21.06.33,0,.35s0,0,0,.06a.82.82,0,0,0-.08.3.17.17,0,0,1,0,.08.7.7,0,0,1,0,.23.24.24,0,0,0,0,.22.7.7,0,0,0-.08.2,5.12,5.12,0,0,0-.11.46.41.41,0,0,0,0,.22l0,.35a1.9,1.9,0,0,0,0,.35c0,.06,0,.14,0,.24a1.06,1.06,0,0,0,0,.3.34.34,0,0,0,0,.2.44.44,0,0,1,0,.15.25.25,0,0,0-.05.18,1.37,1.37,0,0,1,0,.19,1.72,1.72,0,0,1,0,.34s0,0,0,0a.66.66,0,0,0,0,.32.28.28,0,0,1,0,.13,2,2,0,0,0,0,.31.22.22,0,0,0,.07.19,3.58,3.58,0,0,0-.1.62.66.66,0,0,0,.06.27,1,1,0,0,0-.08.41c0,.11,0,.21,0,.32a2.29,2.29,0,0,1,0,.39.91.91,0,0,0,0,.33l.06.45a1.24,1.24,0,0,1,0,.3.05.05,0,0,0,0,0,1.67,1.67,0,0,1,.05.48A.45.45,0,0,0,55.22,83.26Z"/><path class="a0f139c8-ae9d-446f-9b0c-fe2a575c074b" d="M80.56,73.39l.29,0a.19.19,0,0,0,.16,0,1.62,1.62,0,0,0,.57.09h.66a1.19,1.19,0,0,0,.32.11.44.44,0,0,0,.15,0,1.48,1.48,0,0,0,.32.06.2.2,0,0,1,.16.07,2.17,2.17,0,0,0,.47.15l.38.07.38,0a.42.42,0,0,0,.22.11.87.87,0,0,1,.26.08.35.35,0,0,0,.16.09.56.56,0,0,1,.15.1.46.46,0,0,1,.29.11,2.23,2.23,0,0,1,.22.21,3,3,0,0,1,.44.15,2.55,2.55,0,0,0,.48.16.27.27,0,0,1,.12,0l.3.27.08.08.42.27a.23.23,0,0,0,.19,0,1.16,1.16,0,0,0,.34.22.31.31,0,0,1,.13,0l.16.16.12.12a1.23,1.23,0,0,1,.23.23,1,1,0,0,0,.12.15q.23.11.24.15s0,0,.08,0l.25.26a1.48,1.48,0,0,0,.25.34s0,0,.07.07l.2.25.11.13c.15.21.24.31.27.31a.1.1,0,0,1,.08,0,1.49,1.49,0,0,1,.26.31.47.47,0,0,1,0,.17.62.62,0,0,0,.19.14.41.41,0,0,1,.16.18,1.45,1.45,0,0,0,.06.19,1.16,1.16,0,0,1,.06.15.89.89,0,0,1,.19.23.18.18,0,0,0,.1.09,1.61,1.61,0,0,0,.17.4,3.1,3.1,0,0,1,.21.36,3.29,3.29,0,0,0,.19.54.53.53,0,0,1,0,.16,1.8,1.8,0,0,0,0,.19.86.86,0,0,1,.19.41.64.64,0,0,0,.07.28l.12.37a.39.39,0,0,1,0,.14,2.42,2.42,0,0,1,.08.65,1.5,1.5,0,0,0,0,.36c0,.19.07.3.08.33a.76.76,0,0,0,0,.11,2.11,2.11,0,0,0,.05.32s0,0,0,.06,0,.18,0,.29a.82.82,0,0,0,.07.28,1.93,1.93,0,0,1,0,.26.41.41,0,0,0,0,.19v.34a.81.81,0,0,1,0,.29.2.2,0,0,0,0,.09.76.76,0,0,0,0,.26,2.09,2.09,0,0,1,0,.25,2.63,2.63,0,0,1,0,.41,2.73,2.73,0,0,0,0,.41,1.14,1.14,0,0,0,0,.32s0,0,0,0a2.54,2.54,0,0,1-.19.76.76.76,0,0,1,0,.3l-.06.3a1.5,1.5,0,0,0-.08.27,1,1,0,0,1-.08.24,4.35,4.35,0,0,0-.19.42,1.12,1.12,0,0,0,0,.27.81.81,0,0,0-.21.37.55.55,0,0,1-.23.33,1.24,1.24,0,0,0-.22.38.38.38,0,0,1,0,.13,1.64,1.64,0,0,1-.17.26,1.34,1.34,0,0,0-.17.31,2.42,2.42,0,0,1-.23.28,1.37,1.37,0,0,1-.2.3.7.7,0,0,0-.14.21l-.15.19a.53.53,0,0,0-.11.25c-.15.13-.22.21-.23.25a.69.69,0,0,1,0,.13l-.18.25a.22.22,0,0,1-.07.07,3.55,3.55,0,0,0-.31.28l-.14.16c-.21.17-.35.27-.41.31a.81.81,0,0,0-.16.16,2.36,2.36,0,0,1-.25.24s0,0-.06,0l-.37.38a.64.64,0,0,1-.17.16,2.35,2.35,0,0,0-.21.16l-.2.16-.16.12-.16.13a2.47,2.47,0,0,1-.33.24.15.15,0,0,0-.08.08,1.49,1.49,0,0,0-.43.19,1.82,1.82,0,0,1-.43.19,3.9,3.9,0,0,0-.41.2l-.12.08a1,1,0,0,1-.34.08s0,0-.07,0a1.43,1.43,0,0,1-.46.11.46.46,0,0,0-.27,0L84,97.5c-.34.06-.58.12-.73.16a3.43,3.43,0,0,1-.44.09,2,2,0,0,1-.44,0l-.24.07-.14,0a2.15,2.15,0,0,1-.51,0A1.12,1.12,0,0,0,81,98a.34.34,0,0,0-.26,0,.23.23,0,0,1-.21,0,2.15,2.15,0,0,0-.44,0,1.11,1.11,0,0,1-.23,0l-.42,0a.34.34,0,0,0-.18,0L79,97.83a.16.16,0,0,0-.11,0l-.34-.06a1.07,1.07,0,0,0-.42-.12.28.28,0,0,1-.18,0,.83.83,0,0,1-.29-.1.28.28,0,0,0-.25,0,3.67,3.67,0,0,0-.4-.23.85.85,0,0,0-.24-.08L76.4,97l-.11-.06a1.83,1.83,0,0,1-.38-.16.12.12,0,0,0-.09,0c-.17-.13-.26-.18-.27-.17s0,0-.08,0q-.31-.28-.3-.3s0,0,0-.08a1.13,1.13,0,0,1-.28-.14s0,0,0,0l-.34-.28-.32-.19a1.52,1.52,0,0,1-.25-.32L73.6,95c-.23-.19-.38-.31-.46-.36a2.51,2.51,0,0,0-.27-.18l-.14-.25a.18.18,0,0,0-.08-.06c-.15-.24-.24-.38-.28-.43a.73.73,0,0,0-.16-.14,1.15,1.15,0,0,0-.35-.51c-.15-.21-.24-.34-.28-.38s-.09-.16-.15-.24a1.26,1.26,0,0,1-.14-.26A3.1,3.1,0,0,0,71,91.9a1.57,1.57,0,0,1-.16-.32,1.18,1.18,0,0,1-.16-.34,4.8,4.8,0,0,1-.25-.51,1.54,1.54,0,0,1-.19-.41.19.19,0,0,0-.06-.13c-.09-.23-.14-.37-.16-.41l-.13-.44a2.1,2.1,0,0,1-.16-.51,1.39,1.39,0,0,0-.12-.41c0-.13,0-.22-.05-.27a1.19,1.19,0,0,0-.08-.21,2.78,2.78,0,0,1-.16-1,1.38,1.38,0,0,1,0-.22,1.48,1.48,0,0,0,0-.22,2.34,2.34,0,0,1,0-.26c0-.08,0-.17,0-.28a.92.92,0,0,0,0-.41.33.33,0,0,1,0-.22q-.08-.2,0-.27a.7.7,0,0,0,0-.24,1.17,1.17,0,0,1,0-.25.22.22,0,0,0,0-.1,1.07,1.07,0,0,0,0-.25,1.07,1.07,0,0,1,0-.25c0-.19,0-.32,0-.38a1.48,1.48,0,0,1,0-.26,2.15,2.15,0,0,1,.1-.44,3.61,3.61,0,0,0,.06-.44.41.41,0,0,1,0-.19,1,1,0,0,0,.12-.27.09.09,0,0,1,.06-.08,3.57,3.57,0,0,1,.1-.57,1.48,1.48,0,0,0,.22-.4.3.3,0,0,1,0-.11.94.94,0,0,1,.1-.14l.12-.17a2.68,2.68,0,0,0,.18-.33,1.68,1.68,0,0,1,.2-.34c0-.06,0-.12,0-.19a.14.14,0,0,0,0-.19,1.1,1.1,0,0,0,.2-.28.65.65,0,0,1,.21-.25.37.37,0,0,1,.08-.26,1.33,1.33,0,0,0,.14-.19.55.55,0,0,1,.17-.2,1.24,1.24,0,0,0,.21-.18,1.35,1.35,0,0,0,.22-.28.09.09,0,0,1,0-.06,1.7,1.7,0,0,1,.21-.26.23.23,0,0,0,.08-.12.46.46,0,0,0,.2-.13.9.9,0,0,1,.18-.16,1.06,1.06,0,0,1,.2-.14.33.33,0,0,0,.11-.08l.29-.32.12-.12.13-.13a1.29,1.29,0,0,1,.29-.25l.27-.18a.38.38,0,0,1,.17-.08l.25-.25.26-.25a.44.44,0,0,0,.06-.1l.35-.22a.57.57,0,0,1,.34-.22,1.3,1.3,0,0,1,.4-.19.38.38,0,0,0,.18-.06l.41-.1a1.16,1.16,0,0,1,.25-.14l.13,0a1.28,1.28,0,0,0,.6-.06,2.14,2.14,0,0,1,.35-.16,3.62,3.62,0,0,0,.34-.21.92.92,0,0,1,.29-.11,2.84,2.84,0,0,0,.47-.06.93.93,0,0,1,.26,0l.47-.1a1,1,0,0,1,.4,0l.14,0ZM86.16,81a.43.43,0,0,0-.08-.27,1.13,1.13,0,0,1-.14-.27c-.19-.19-.31-.3-.36-.34a1.18,1.18,0,0,0-.18-.13,1.65,1.65,0,0,0-.38-.35c-.12-.15-.2-.22-.23-.22s-.05,0-.05-.06l-.32-.19a2.85,2.85,0,0,0-.63-.38l-.35-.1a1.8,1.8,0,0,1-.44-.22.87.87,0,0,0-.32-.13.41.41,0,0,1-.16,0,3.08,3.08,0,0,1-.41-.16,1.17,1.17,0,0,1-.38-.07s-.08,0-.12,0h-.48l-.44,0a.89.89,0,0,0-.29.08,3.26,3.26,0,0,1-.53.09.68.68,0,0,0-.29.07l-.31.12s-.08,0-.1,0l-.32.08-.06,0-.32.16-.2.11-.14.11-.45.32c-.19.16-.28.24-.28.22a4.55,4.55,0,0,1-.46.58,2.1,2.1,0,0,0-.24.3.31.31,0,0,0-.22.16.35.35,0,0,1-.19.19,1,1,0,0,1-.16.32,1.49,1.49,0,0,0-.16.31l-.26.43a1.84,1.84,0,0,0-.18.33,1.49,1.49,0,0,0-.06.35c-.11.17-.15.27-.14.3a.25.25,0,0,1,0,.08,2,2,0,0,1,0,.29.5.5,0,0,0,0,.12,2.25,2.25,0,0,1-.08.37.05.05,0,0,0,0,0c-.06.24-.09.36-.07.38a.14.14,0,0,1,0,.1,1.72,1.72,0,0,0-.11.58c0,.14,0,.26,0,.37a1,1,0,0,0,0,.33,1.49,1.49,0,0,1,0,.21,2,2,0,0,0,0,.52,1.69,1.69,0,0,1,0,.23,1.15,1.15,0,0,1,0,.19.4.4,0,0,0,0,.19s.05.1.07.16a.68.68,0,0,1,0,.19,1.5,1.5,0,0,0,0,.38.25.25,0,0,1,0,.1,1.39,1.39,0,0,1,0,.42.5.5,0,0,0,.11.34c0,.06,0,.14,0,.25a.71.71,0,0,0,0,.22.94.94,0,0,1,.16.32l.19.35a.57.57,0,0,0,.1.25.73.73,0,0,1,.09.22,4.28,4.28,0,0,1,.29.33,1.55,1.55,0,0,1,.19.43l.15.13a.38.38,0,0,1,.16.19,2.89,2.89,0,0,1,.41.41,1.11,1.11,0,0,1,.3.17c.1.08.2.15.3.24l.2.14.15.11a.66.66,0,0,0,.32.19.38.38,0,0,1,.16,0,2.8,2.8,0,0,1,.38.16l.35.13c.25.1.42.17.5.19l.19.06a1.19,1.19,0,0,0,.43,0l.14,0h.35s.05,0,.09,0a2.24,2.24,0,0,0,.49.08l.18-.05a1.18,1.18,0,0,1,.6,0l.3-.11.27-.11a.34.34,0,0,1,.24-.08.22.22,0,0,0,.14,0,1.27,1.27,0,0,0,.35-.16.54.54,0,0,1,.33-.14l.17,0a.35.35,0,0,0,.22-.11.33.33,0,0,1,.19-.11.88.88,0,0,0,.35-.16,1.55,1.55,0,0,0,.41-.21.12.12,0,0,1,.1,0,3.32,3.32,0,0,0,.44-.51l.29-.25a.82.82,0,0,1,.15-.38c.13,0,.21-.09.24-.15l.08-.14a3.07,3.07,0,0,1,.19-.31.13.13,0,0,0,0-.07,1,1,0,0,0,0-.28.25.25,0,0,1,0-.1,1.5,1.5,0,0,0,.26-.54c0-.1,0-.22.08-.36a.58.58,0,0,1,.11-.27l.16-.46.06-.23a1.86,1.86,0,0,1,.06-.31.35.35,0,0,0,0-.14,1.09,1.09,0,0,1,0-.39s0-.07,0-.11a3,3,0,0,0,.1-.51,2.1,2.1,0,0,1,0-.4.17.17,0,0,0,0-.17,1.63,1.63,0,0,0,0-.76l-.09-.38a1.38,1.38,0,0,1-.1-.38,1,1,0,0,0-.12-.47.73.73,0,0,1-.12-.35.5.5,0,0,0,0-.16,1.54,1.54,0,0,0-.08-.19,1.54,1.54,0,0,1-.08-.19,1.85,1.85,0,0,0-.06-.41,1.4,1.4,0,0,1-.16-.38,1.63,1.63,0,0,1-.16-.46.83.83,0,0,0-.06-.27.22.22,0,0,1-.21-.09C86.24,81,86.21,81,86.16,81Z"/><path class="a0f139c8-ae9d-446f-9b0c-fe2a575c074b" d="M101.86,91.71a2.1,2.1,0,0,0,0,.27c0,.07,0,.17,0,.3a.88.88,0,0,1,0,.3,1.06,1.06,0,0,0,0,.21,1.51,1.51,0,0,1,0,.33.08.08,0,0,0,0,0,1.49,1.49,0,0,0,0,.17,1.49,1.49,0,0,1,0,.21.44.44,0,0,1,0,.2.49.49,0,0,0,0,.21,1.5,1.5,0,0,0,0,.3.05.05,0,0,1,0,0,.9.9,0,0,1,0,.18.91.91,0,0,0,0,.17,2.77,2.77,0,0,0,.06.45v.25a1.07,1.07,0,0,0,0,.25l.07.63a1.1,1.1,0,0,1,0,.34.15.15,0,0,0,0,.11.51.51,0,0,0,0,.22.25.25,0,0,1,0,.19.22.22,0,0,1-.12.13.66.66,0,0,0-.19.09l-.42.21s0,0-.09,0a.18.18,0,0,1-.18,0,.24.24,0,0,0-.17,0,1.38,1.38,0,0,0-.3,0h-.08a2.82,2.82,0,0,0-.47-.06,1.72,1.72,0,0,0-.6,0,2.32,2.32,0,0,0-.4,0,.2.2,0,0,1-.11,0l-.27,0a1.39,1.39,0,0,0-.3,0l-.36,0s0,0,0,0l-.48.06-.44,0a.4.4,0,0,1-.22,0,.33.33,0,0,0-.22,0,1,1,0,0,0-.25,0c-.09,0-.15,0-.19-.16a1.2,1.2,0,0,1-.15-.38.92.92,0,0,1,0-.28l0-.45,0-.34a1,1,0,0,1,.07-.22.8.8,0,0,0,0-.23.47.47,0,0,0,0-.2,1,1,0,0,1,0-.18,3.37,3.37,0,0,1,0-.44,3.48,3.48,0,0,0,0-.47,2.66,2.66,0,0,0,0-.3c0-.1,0-.2,0-.3a2.7,2.7,0,0,0,0-.48c0-.1,0-.21,0-.32a.85.85,0,0,1,0-.25.63.63,0,0,0,0-.19,1.93,1.93,0,0,0,0-.24.86.86,0,0,1,0-.23,2,2,0,0,1,0-.37.82.82,0,0,0,0-.27c-.06-.21-.07-.31,0-.31s0,0,0-.07a2.09,2.09,0,0,0,0-.5,4.36,4.36,0,0,1,0-.51c0-.17,0-.32,0-.46a2.42,2.42,0,0,0,0-.46.94.94,0,0,0,0-.41l-.11-.19c0-.1,0-.2,0-.3a3.22,3.22,0,0,0,0-.33.85.85,0,0,1,0-.32.69.69,0,0,0,0-.22,1,1,0,0,0,0-.28,1.1,1.1,0,0,1-.05-.29c0-.21,0-.36,0-.46v-.3q0-.29,0-.3s0,0,0,0v-.38a3.44,3.44,0,0,1,0-.61c0-.1,0-.2,0-.28a3.18,3.18,0,0,1,0-.38.45.45,0,0,0,0-.25,1,1,0,0,0,0-.24.53.53,0,0,1,0-.14,5.44,5.44,0,0,1,0-.57,5.44,5.44,0,0,0,0-.57,3.17,3.17,0,0,1,0-.41v-.45a1.35,1.35,0,0,0,0-.38.27.27,0,0,1,0-.12c0-.19,0-.33,0-.41s0-.15,0-.19v-.41a2.32,2.32,0,0,1-.06-.45v-.3a1.69,1.69,0,0,0,0-.3A3,3,0,0,1,96,78c0-.11,0-.23,0-.36a2.31,2.31,0,0,1-.15-.48.66.66,0,0,0-.08-.25,1,1,0,0,1,0-.39.13.13,0,0,0,0-.12.92.92,0,0,0-.09-.38.18.18,0,0,0,0-.2.52.52,0,0,1,0-.21,1.22,1.22,0,0,1,0-.22.11.11,0,0,0,0-.12.84.84,0,0,1,0-.29.22.22,0,0,0,0-.09,1,1,0,0,0,0-.18.33.33,0,0,1,0-.17,2.06,2.06,0,0,1,.19-.35A.88.88,0,0,0,96.1,74a.11.11,0,0,1,.09-.05h.38a.41.41,0,0,1,.22,0L97,74h.45a1.52,1.52,0,0,0,.36.05l.11,0a4.58,4.58,0,0,0,.48.11l.22.05a1.48,1.48,0,0,1,.36,0,1,1,0,0,0,.24,0l.24,0,.27,0,.34,0h.34s0,0,.07,0a1.23,1.23,0,0,1,.29,0l.29.06.33,0a1.84,1.84,0,0,1,.33,0,1.93,1.93,0,0,1,.33,0l.33,0h.8l.3,0,.26,0H104l.27,0h.32l.35,0a2.47,2.47,0,0,0,.42,0l.21,0,.3,0h.2a1.82,1.82,0,0,0,.46,0,.15.15,0,0,1,.11,0l.19.06.22.06.2,0a.23.23,0,0,1,.15.11.18.18,0,0,1,.22,0,.42.42,0,0,0,.26.08A.25.25,0,0,0,108,75a.67.67,0,0,1,.24.08l.41.25a2.39,2.39,0,0,1,.46.25.88.88,0,0,0,.27.16l.3.19s0,0,0,0l.29.28a1.44,1.44,0,0,0,.25.22.16.16,0,0,1,.07.13l.2.16a.33.33,0,0,1,.11.13.58.58,0,0,1,.21.17,1.29,1.29,0,0,0,.2.21l.29.22a3.57,3.57,0,0,0,.24.42.31.31,0,0,1,0,.15.4.4,0,0,1,.1.15.66.66,0,0,0,.09.19c.13.32.22.54.29.67a.48.48,0,0,1,.12.22.22.22,0,0,0,0,.13,1.09,1.09,0,0,1,.12.25.33.33,0,0,0,0,.1c0,.1.1.21.16.31l.13.35a.49.49,0,0,1,.08.21.39.39,0,0,0,.08.2l.12.57a1.13,1.13,0,0,1,.05.4.54.54,0,0,0,0,.26,2.79,2.79,0,0,0,0,.46.39.39,0,0,1,0,.18,1,1,0,0,0,.06.41.34.34,0,0,0,0,.25c0,.11,0,.21,0,.32a1.48,1.48,0,0,1,0,.22.5.5,0,0,0,0,.16.88.88,0,0,0,0,.47,1.42,1.42,0,0,0-.08.38,1.27,1.27,0,0,1-.08.38.43.43,0,0,0-.06.22,1.59,1.59,0,0,1,0,.29,1.44,1.44,0,0,1-.15.35s0,0,0,0a1.47,1.47,0,0,0-.3.52.25.25,0,0,1-.18.21.38.38,0,0,1-.06.19.64.64,0,0,1-.13.15,1.27,1.27,0,0,0-.12.26.23.23,0,0,1,0,.09l-.26.26c-.17.21-.29.35-.38.44l-.22.31-.25.29a2.07,2.07,0,0,0-.51.38l-.24.2-.11.12a2.53,2.53,0,0,1-.36.28.18.18,0,0,0-.11.13,3.73,3.73,0,0,0-.41.22,1.11,1.11,0,0,0-.16.12.46.46,0,0,0-.21,0l-.17.08a.68.68,0,0,0-.41.19,3.08,3.08,0,0,1-.38.1.31.31,0,0,0-.13,0l-.44.17a.42.42,0,0,0-.25.18l-.35,0a.05.05,0,0,0-.06.06c-.17,0-.26,0-.27,0h-.08a2.78,2.78,0,0,0-.6.13l-.3,0a.36.36,0,0,0-.24,0,1.86,1.86,0,0,1-.37.12.38.38,0,0,0-.14,0l-.47.06a.38.38,0,0,0-.22.05.25.25,0,0,1-.19,0,1.86,1.86,0,0,0-.38.07l-.19.06a1.42,1.42,0,0,0-.42,0,2,2,0,0,0-.44.09Zm.41-3.45a5.23,5.23,0,0,0,.63-.09l.57-.1.35-.22.3-.11a.23.23,0,0,0,.11,0l.3-.3a.43.43,0,0,0,.08-.2c.23-.11.33-.17.3-.19s0,0,0-.07a1.05,1.05,0,0,1,.44-.28,2.77,2.77,0,0,0,.3-.29l.08-.09A3.49,3.49,0,0,1,106,86l.07,0c.17-.17.25-.27.25-.32a3.44,3.44,0,0,1,.25-.28,1.24,1.24,0,0,0,.37-.24.76.76,0,0,1,.11-.14,3.05,3.05,0,0,0,.33-.36c0-.06.06-.1.08-.15s.17-.3.19-.35a.66.66,0,0,0,.13-.26.62.62,0,0,1,0-.18l.06-.17a.48.48,0,0,0,0-.18,1,1,0,0,0,0-.3,2.66,2.66,0,0,1,0-.3,2,2,0,0,0,.07-.38.46.46,0,0,0,0-.19L107.9,82a1.46,1.46,0,0,0-.06-.23.48.48,0,0,1,0-.18,1.48,1.48,0,0,0-.23-.36s0,0,0-.08l-.22-.32a3.61,3.61,0,0,1-.22-.31.19.19,0,0,0-.1-.1c-.06-.12-.09-.21-.11-.25a.3.3,0,0,0,0-.1,3.39,3.39,0,0,0-.32-.25,3.07,3.07,0,0,0-.19-.31,1.36,1.36,0,0,0-.21-.24A.66.66,0,0,1,106,79a.37.37,0,0,1-.28-.25,1.71,1.71,0,0,0-.27-.14l-.08,0a1.9,1.9,0,0,0-.29-.29.28.28,0,0,1-.12-.16.21.21,0,0,1-.19-.09c0-.06-.09-.08-.13-.06l-.31-.29a1.4,1.4,0,0,0-.34-.19l-.11,0a1.2,1.2,0,0,0-.9-.4,2.44,2.44,0,0,1-.81-.07l-.28.17a.05.05,0,0,0,0,0,.72.72,0,0,0,0,.3,1.66,1.66,0,0,1,0,.24,4.39,4.39,0,0,0,0,.44,1.11,1.11,0,0,1,0,.19,1.28,1.28,0,0,1-.07.43.18.18,0,0,0,0,.11,5.72,5.72,0,0,0,0,.64.57.57,0,0,1,0,.37v.44a1.93,1.93,0,0,1,0,.36s0,0,0,.05a.63.63,0,0,1,0,.35v.79a1.62,1.62,0,0,1,0,.44l-.06.51v.57c0,.3-.08.52-.1.68a.85.85,0,0,0,0,.4v.41a1.46,1.46,0,0,1,0,.66c0,.13,0,.26,0,.4a1.68,1.68,0,0,0,0,.39,1.27,1.27,0,0,0,0,.29,1.2,1.2,0,0,1,0,.28v.41q0,.25.06.48a1.85,1.85,0,0,1,0,.47.38.38,0,0,0,.29,0Z"/></g></svg>