<svg width="156" height="54" viewBox="0 0 156 54" fill="none" xmlns="http://www.w3.org/2000/svg">
<path d="M0.824602 41.9331C0.165966 41.7322 0.117404 41.0892 0.0809818 40.3659C-0.0551285 37.2562 -0.0196264 34.1376 0.187211 31.0348C0.229703 30.2913 0.354149 29.5037 0.0718767 28.7723C0.0462001 28.7186 0.0364649 28.6542 0.0445565 28.5915C0.402709 27.5426 0.108298 26.4375 0.208459 25.3766C0.247917 24.9748 0.281304 24.5488 0.351113 24.1429C0.385714 23.9048 0.467033 23.6828 0.586903 23.4994C0.706774 23.316 0.860977 23.1776 1.03403 23.0981L2.68821 22.2662C2.63964 21.3219 2.18437 20.8397 1.62589 20.478C1.46433 20.4082 1.30022 20.3492 1.13419 20.3012C0.855602 20.2237 0.608484 20.0126 0.440387 19.7084C0.272289 19.4043 0.195088 19.0285 0.223636 18.6536C0.223636 18.2075 0.293445 17.7614 0.308621 17.3114C0.335938 16.584 0.308622 15.8566 0.36629 15.1333C0.387536 14.7716 0.539292 14.422 0.566609 14.0603C0.657665 12.8106 0.721407 11.5608 0.788181 10.311C0.864061 8.93666 0.949044 7.55829 0.994571 6.17992C0.986035 5.87067 0.913598 5.57044 0.785143 5.31191C0.311654 4.23895 0.481624 3.49953 1.39218 3.22627C2.31514 2.9702 3.25183 2.81031 4.19366 2.74806C5.47147 2.63956 6.75536 2.68376 8.03317 2.55919C9.48095 2.41854 10.9196 2.15733 12.3674 1.96846C14.5952 1.68716 16.82 2.08098 19.0448 2.11714C19.409 2.11714 19.7702 2.11714 20.1345 2.11714C22.6992 2.04079 25.2639 1.92023 27.8287 1.88809C29.8137 1.86397 31.8017 1.88808 33.7837 1.99257C35.9428 2.07118 38.1029 1.90041 40.2395 1.48221C42.4084 1.15351 44.5936 1.05541 46.7743 1.18885C49.3927 1.272 52.0126 1.17408 54.6233 0.895499C57.355 0.646348 60.0866 0.352993 62.8183 0.140009C64.0324 0.0475818 65.2464 0.107859 66.4605 0.0917849C68.5669 0.0676735 70.6764 0.0435616 72.7828 0.00337592C75.2064 -0.0235468 77.6295 0.110574 80.043 0.405233C82.3922 0.66644 84.7414 0.590087 87.0937 0.549902C88.9816 0.513734 90.8756 0.517753 92.7604 0.634291C94.9854 0.802146 97.2165 0.767235 99.4378 0.529807C102.407 0.190961 105.388 0.0728985 108.367 0.176175C112.413 0.292713 116.462 0.13197 120.508 0.176175C121.841 0.227216 123.171 0.395023 124.487 0.678496C126.075 0.966402 127.684 0.977211 129.274 0.710645C131.299 0.413313 133.34 0.364883 135.371 0.565976C137.496 0.742793 139.621 0.77494 141.767 0.80307C144.844 0.843256 147.925 0.803073 151.003 0.843259C151.828 0.843259 152.651 0.963815 153.47 1.05624C153.69 1.07179 153.904 1.15827 154.093 1.30816C154.281 1.45804 154.44 1.66679 154.554 1.91622C154.747 2.32488 154.916 2.75204 155.061 3.19412C155.285 3.90139 155.437 4.65688 155.689 5.34807C155.955 6.01832 156.054 6.78296 155.972 7.53233C155.889 8.28169 155.63 8.97729 155.231 9.51935C155.062 9.74881 154.939 10.03 154.872 10.3378C154.805 10.6456 154.797 10.9705 154.848 11.2835C155.091 12.8628 154.924 14.426 154.742 15.9812C154.473 18.5568 154.389 21.1606 154.493 23.7571C154.523 24.8743 154.529 25.9955 154.551 27.1167C154.551 27.3738 154.575 27.627 154.596 27.8842C154.629 28.0385 154.647 28.198 154.648 28.3584C154.423 29.9658 154.22 31.5733 153.13 32.6663C152.107 33.687 152.183 34.555 153.34 35.2864C153.579 35.4391 153.831 35.5677 154.062 35.7445C154.361 35.9369 154.611 36.2387 154.784 36.6142C154.957 36.9896 155.044 37.4228 155.036 37.8623C154.957 39.7792 155.34 41.6116 155.501 43.4883C155.727 45.8127 155.721 48.1664 155.483 50.4887C155.404 51.2394 155.239 51.9698 154.994 52.6547C154.807 52.9929 154.535 53.2299 154.226 53.3218C153.698 53.5455 153.152 53.6871 152.599 53.7437C151.082 53.8401 149.543 53.7879 148.019 53.9286C146.034 54.0606 144.044 54.0096 142.064 53.7758C140.759 53.6593 139.448 53.7276 138.139 53.6553C136.3 53.5468 134.464 53.3298 132.625 53.2534C131.125 53.1932 129.623 53.3097 128.12 53.3017C126.715 53.3017 125.31 53.2333 123.904 53.1891C122.672 53.1489 121.437 53.0726 120.202 53.0605C118.265 53.0405 116.326 53.0244 114.389 53.0605C112.453 53.0967 110.513 53.2454 108.577 53.374C105.915 53.5776 103.246 53.6044 100.582 53.4544C97.1432 53.2253 93.7074 52.9319 90.2625 52.723C87.1878 52.5381 84.1071 52.3774 81.0294 52.3211C79.6757 52.289 78.319 52.4819 76.9653 52.6024C73.9878 52.8636 71.0072 52.9199 68.0236 52.8958C66.327 52.8958 64.6303 52.9922 62.9367 53.1369C60.5449 53.3459 58.1593 53.7196 55.7645 53.8602C54.4804 53.8867 53.1967 53.7805 51.925 53.5428C50.1237 53.2235 48.3052 53.1065 46.489 53.1932C43.7573 53.3981 41.0257 53.6392 38.294 53.2735C37.523 53.169 36.7551 53.0163 35.9872 52.8717C34.0387 52.5462 32.0961 52.1765 30.1445 51.9152C29.3274 51.7845 28.5008 51.7967 27.686 51.9514C26.3683 52.2108 25.0342 52.2943 23.7038 52.2006C20.6032 52.0525 17.4989 52.1236 14.404 52.4136C12.5435 52.5864 10.692 52.9239 8.83446 53.1369C7.18939 53.3258 5.54128 53.4865 3.89925 53.1369C3.31001 52.9726 2.73074 52.751 2.16615 52.4738C1.88995 52.3573 1.63196 52.1564 1.35273 52.072C0.627316 51.863 0.360217 51.5134 0.311654 50.557C0.291869 50.1083 0.297957 49.6582 0.329865 49.2108C0.481624 46.9403 0.633384 44.6698 0.80032 42.3993C0.824601 42.3269 0.824602 42.1984 0.824602 41.9331ZM100.986 24.7417H100.524L97.6288 24.5247L97.1857 24.3398C96.7629 24.2111 96.3454 24.0528 95.9352 23.8656C94.1353 22.9253 92.3233 22.0251 90.5569 20.9803C88.3552 19.6506 86.0662 18.5906 83.7186 17.8137C79.014 16.3107 74.4097 14.3738 69.7962 12.465C67.8597 11.6612 65.9142 10.8977 63.9474 10.2266C62.4085 9.70018 60.8424 9.3144 59.2762 8.93666C57.9741 8.61919 56.6629 8.33387 55.3457 8.16107C53.8099 7.95612 52.2649 7.87575 50.7231 7.75921C48.9384 7.61856 47.1537 7.47389 45.369 7.37745C43.5327 7.281 41.6934 7.23278 39.8541 7.17652C37.4836 7.10017 35.1131 7.03587 32.7396 6.96354C32.6425 6.96354 32.5453 6.96354 32.4513 6.93943C31.6348 6.82691 30.8214 6.69028 30.0079 6.60187C29.1399 6.50542 28.2718 6.46122 27.4037 6.38486C26.7299 6.32458 26.0561 6.26029 25.3823 6.17992C23.9922 6.0031 22.6021 5.79815 21.2089 5.63339C19.9129 5.48069 18.6138 5.36415 17.3148 5.23153L15.439 5.02257C14.3342 4.89799 13.2294 4.70108 12.1246 4.68099C10.7709 4.68099 9.41722 4.78146 8.06656 4.86183C7.51112 4.89398 6.96175 4.9864 6.40631 5.01855C5.97228 5.04668 5.53521 5.01855 5.09815 5.01855C4.13296 4.97837 3.1708 4.90603 2.20561 4.87388C2.07066 4.89508 1.93991 4.9496 1.82014 5.03462C1.88388 6.0473 1.94155 6.95952 1.99315 7.87575C2.04475 8.79199 2.08421 9.5957 2.12973 10.4557C2.16312 11.7818 1.78676 13.1039 2.08724 14.4742C2.30577 14.4742 2.49699 14.5144 2.69428 14.5184C7.87838 14.631 13.0625 14.3014 18.2466 14.6993C19.8856 14.8279 21.5337 14.5908 23.1757 14.8841C24.1318 15.0529 25.1031 15.0328 26.0683 15.1011C26.1623 15.1011 26.2595 15.1413 26.3536 15.1494C27.3855 15.2619 28.4175 15.4387 29.4494 15.4548C30.5846 15.4789 31.7167 15.3222 32.8519 15.3021C33.3327 15.324 33.8116 15.3938 34.2845 15.511C34.8551 15.6195 35.4227 15.7682 35.9933 15.8647C36.9251 16.0214 37.8782 16.0375 38.7887 16.3027C40.9801 16.9376 43.1564 17.6489 45.3265 18.3964C47.7759 19.2362 50.1828 20.3092 52.6717 20.9441C54.4473 21.3902 56.1986 22.005 57.9559 22.5516C59.1488 22.9534 60.3325 23.3553 61.5283 23.733C62.7242 24.1108 63.8806 24.3961 65.0552 24.7417C66.3027 25.1034 67.5441 25.4891 68.7885 25.8589C69.4927 26.0678 70.1968 26.2888 70.9131 26.4616C72.6644 26.8836 74.4188 27.2854 76.1731 27.6953C77.1687 27.9244 78.1612 28.1655 79.1567 28.3825C79.349 28.4186 79.5441 28.4186 79.7364 28.3825C81.3572 28.0811 82.9719 27.7476 84.5927 27.4663C85.9525 27.2332 87.3244 27.0644 88.6842 26.8595C90.4537 26.6023 92.2232 26.3411 93.9957 26.108C94.7151 26.0116 95.4374 25.9794 96.1598 25.899C96.2679 25.8577 96.3703 25.7939 96.4633 25.7102H97.3284C97.6082 25.7383 97.8893 25.7383 98.1691 25.7102C98.2936 25.6901 98.3998 25.4891 98.5151 25.3686H99.2314C99.3535 25.4548 99.486 25.5119 99.623 25.5374C100.078 25.4972 100.534 25.4168 100.983 25.3525C101.611 25.2561 102.245 25.1757 102.874 25.0551C103.168 24.9828 103.459 24.8889 103.745 24.7738C104.155 24.7738 104.57 24.7738 104.98 24.7497C106.133 24.6412 107.287 24.4564 108.443 24.4001C111.175 24.2675 113.907 24.4443 116.638 24.2474C119.707 24.0264 122.787 24.0907 125.865 24.0023C126.976 23.9741 128.09 23.934 129.204 23.7853C130.57 23.6044 131.936 23.2749 133.286 23.0659C135.608 22.7083 137.812 21.776 139.994 20.7231C141.445 20.0239 142.859 19.1157 144.41 18.8947C145.454 18.7379 146.171 17.9865 146.899 17.1064C147.536 16.3348 148.198 15.499 148.963 15.0248C150.308 14.1889 151.576 13.0959 153.076 12.6337C153.115 12.2888 153.115 11.9379 153.076 11.5929C152.772 10.3874 153.115 9.39075 153.555 8.40219C153.859 7.98024 154.381 7.70295 154.211 6.82288C154.02 6.89522 153.865 6.94344 153.713 7.00774C153.076 7.27297 152.438 7.53819 151.804 7.81146C151.397 7.98827 150.993 8.18518 150.59 8.37004C150.556 8.35791 150.52 8.35791 150.487 8.37004C150.44 8.3735 150.393 8.38293 150.347 8.39817C150.144 8.4906 149.934 8.56695 149.74 8.67947C148.345 9.57462 146.881 10.2646 145.372 10.737C144.779 10.8891 144.197 11.1096 143.633 11.396C141.569 12.4971 139.505 13.6062 137.469 14.7957C135.342 16.1103 133.116 17.1232 130.828 17.8177C129.034 18.312 127.231 18.746 125.425 19.1639C124.381 19.401 123.328 19.5979 122.272 19.7225C121.693 19.7686 121.113 19.7282 120.541 19.6019C119.255 19.3528 117.992 18.8987 116.669 18.971C116.022 19.0032 115.37 18.8665 114.72 18.8143C114.598 18.8083 114.476 18.8164 114.356 18.8384C112.773 19.1281 111.165 19.0793 109.594 18.6937C108.288 18.3763 106.992 18.0066 105.693 17.6489C103.022 16.9135 100.345 16.2304 97.6896 15.4186C94.0109 14.2974 90.3565 13.0517 86.8388 11.2192C84.3621 9.92924 81.9035 8.57096 79.4815 7.11222C77.4509 5.90665 75.4811 4.49614 73.49 3.15795C73.1044 2.89015 72.6749 2.75213 72.2395 2.7561C68.746 2.7561 65.2586 2.7561 61.759 2.78021C61.5659 2.76616 61.3724 2.76616 61.1793 2.78021C59.8833 2.95703 58.5933 3.18207 57.2973 3.31066C55.8283 3.47408 54.3592 3.60133 52.8902 3.69242C51.318 3.79289 49.7457 3.84915 48.1735 3.88532C47.694 3.88532 47.2144 3.72055 46.7348 3.72859C45.1626 3.76074 43.5904 3.82503 42.0182 3.90541C41.2212 3.92264 40.4257 4.00046 39.6355 4.13848C38.4638 4.35808 37.2828 4.48155 36.0995 4.50819C33.6107 4.63277 31.1249 4.18269 28.633 4.45997C28.5616 4.45249 28.4906 4.43907 28.4205 4.41978C26.9029 4.38763 25.3853 4.34343 23.8677 4.33539C23.3639 4.33539 22.8601 4.44791 22.3501 4.48006C21.9222 4.50417 21.4912 4.48006 21.0632 4.48006C21.5155 4.70034 21.9903 4.82904 22.4716 4.86183C23.5308 4.95024 24.5962 5.00649 25.6585 5.07883C25.7313 5.07883 25.8012 5.07883 25.874 5.10696C26.739 5.21948 27.601 5.34807 28.466 5.44452C29.3311 5.54096 30.1536 5.57713 30.9944 5.66554C32.6546 5.83834 34.3118 6.09552 35.9721 6.19599C38.2697 6.3286 40.5704 6.33664 42.871 6.41701C44.3461 6.46523 45.8213 6.53757 47.2933 6.62196C48.0673 6.66214 48.8382 6.74653 49.6092 6.81887C50.9082 6.93943 52.2103 7.04793 53.5063 7.19661C54.5181 7.31717 55.5298 7.46854 56.5415 7.65071C57.6615 7.85566 58.7815 8.09677 59.8984 8.33789C61.2309 8.62321 62.5907 8.77993 63.8867 9.25412C67.9872 10.745 72.0574 12.3966 76.1519 13.9157C78.407 14.7555 80.6864 15.4588 82.9568 16.2223C83.2967 16.3589 83.6306 16.5157 83.9766 16.6242C84.6504 16.8452 85.3333 17.026 86.0071 17.2511C86.6809 17.4761 87.4397 17.7695 88.153 18.0307C88.3121 18.2031 88.484 18.3539 88.6659 18.4808C89.9802 19.2121 91.3035 19.9154 92.6117 20.6387C94.1991 21.5067 95.7835 22.3989 97.468 22.869C98.6821 23.2066 99.9477 23.3071 101.18 23.5924C102.091 23.7308 102.97 24.121 103.76 24.7377L100.986 24.7417ZM153.391 16.809C153.34 15.9491 153.285 15.0891 153.237 14.2251C153.237 13.996 153.237 13.7589 153.237 13.5379C152.947 13.8255 152.643 14.086 152.326 14.3175C151.452 14.8681 150.572 15.3985 149.679 15.8928C148.821 16.4218 148.047 17.1639 147.4 18.0789C146.713 18.9906 145.873 19.6726 144.947 20.0681C144.055 20.4499 143.163 20.8718 142.301 21.3661C140.149 22.6765 137.914 23.7361 135.623 24.5327C135.277 24.6412 134.94 24.7899 134.6 24.9346H134.324L133.717 25.1114H133.441C133.321 25.0954 133.2 25.0954 133.08 25.1114C131.561 25.4854 130.018 25.6644 128.472 25.6459C124.694 25.6459 120.915 25.8428 117.136 25.5052C115.448 25.3525 113.752 25.3525 112.058 25.2802C111.961 25.2802 111.867 25.2802 111.755 25.2561C110.122 25.1154 108.504 24.7055 106.85 25.0672C105.284 25.4128 103.699 25.6418 102.121 25.899C100.543 26.1562 98.9127 26.3813 97.3102 26.6385C96.3085 26.7952 95.3069 26.9921 94.3053 27.1609C93.0396 27.3779 91.774 27.5989 90.5053 27.7837C89.5553 27.9204 88.5992 27.9967 87.6461 28.1133C86.4958 28.2539 85.3455 28.4589 84.1921 28.5473C83.0099 28.6254 81.8401 28.9022 80.7107 29.3711C79.7574 29.7592 78.7512 29.8648 77.7635 29.6805C75.9242 29.3671 74.0849 29.0014 72.2699 28.5071C69.5534 27.7717 66.8551 26.9198 64.1507 26.0959C61.3766 25.2561 58.5994 24.4162 55.8313 23.5401C53.5063 22.8088 51.1753 22.1015 48.8746 21.2455C46.2462 20.269 43.6602 19.0876 41.0317 18.107C39.6847 17.6488 38.3199 17.2879 36.9433 17.026C35.7535 16.7648 34.5486 16.6242 33.4073 16.0616C32.8534 15.8171 32.2598 15.7754 31.6894 15.941C31.4763 15.9958 31.26 16.0267 31.0429 16.0334C29.1571 15.9772 27.2702 15.9129 25.3823 15.8406H25.2396C24.0832 15.72 22.9299 15.507 21.7765 15.499C15.3753 15.4628 8.97104 15.4749 2.56983 15.4749C2.35737 15.4749 2.14491 15.511 1.84746 15.5392V16.8171C1.81104 17.2189 1.80497 17.6449 1.73819 18.0468C1.70976 18.1349 1.69508 18.2298 1.69504 18.3256C1.69499 18.4215 1.70958 18.5164 1.73793 18.6046C1.76628 18.6928 1.80781 18.7725 1.86001 18.8389C1.91221 18.9053 1.97401 18.9571 2.04171 18.9911C2.50592 19.2801 2.88557 19.7629 3.12224 20.3655C3.84158 22.001 3.77784 23.6285 2.48788 24.2072C2.44639 24.2378 2.40681 24.2728 2.36951 24.3117C2.22992 24.4068 2.11593 24.5567 2.04313 24.7408C1.97033 24.925 1.94227 25.1344 1.9628 25.3405C1.99011 26.321 1.9628 27.3055 1.9628 28.3222C2.3513 28.4026 2.77319 28.5352 3.19812 28.5794C4.59026 28.7294 5.98543 28.8634 7.38364 28.9813C8.56433 29.0737 9.74501 29.1179 10.9287 29.1862C11.0016 29.1862 11.0744 29.1862 11.1473 29.1862C12.2976 29.3068 13.451 29.4595 14.6043 29.5519C15.7577 29.6443 16.9657 29.7046 18.1494 29.7448C20.4228 29.8171 22.7022 29.6564 24.9725 29.9256C26.4143 30.0944 27.8681 29.8413 29.3189 30.1105C30.3514 30.2541 31.3888 30.3252 32.427 30.3235C34.3118 30.4039 36.1967 30.5083 38.0846 30.5083C39.8237 30.5083 41.5629 30.3315 43.302 30.3476C46.3038 30.3757 49.3026 30.2833 52.3074 30.4842C55.7129 30.7133 59.1305 30.653 62.5451 30.7213C62.6423 30.7213 62.7394 30.7213 62.8335 30.7213C64.2721 30.9062 65.7078 31.1232 67.1465 31.2719C68.4941 31.3964 69.8508 31.4406 71.2015 31.4648C71.8085 31.4648 72.4156 31.3522 73.0013 31.2879H74.4613V31.4808C74.1729 31.4808 73.8785 31.4808 73.5902 31.5331C72.7039 31.6376 71.8176 31.8586 70.9283 31.8586C68.0479 31.8586 65.1615 32.0153 62.2841 31.7139C60.5965 31.5411 58.8968 31.5371 57.2032 31.509C55.3366 31.4768 53.4699 31.509 51.6033 31.509L49.4331 31.4889C49.1858 31.4002 48.9328 31.3423 48.6774 31.3161C45.8304 31.3603 42.9864 31.4286 40.1394 31.4808C39.5839 31.4808 39.0255 31.4808 38.47 31.4808C37.5109 31.4406 36.5487 31.3884 35.5866 31.3402L29.0518 31.0991C28.904 31.0103 28.7478 30.9481 28.5875 30.9142C27.2823 30.9142 25.9742 30.9142 24.669 30.9142H22.6446L21.6035 30.7816C21.5064 30.7816 21.4092 30.7575 21.3 30.7535C18.7656 30.6691 16.2312 30.5967 13.6938 30.4963C12.7559 30.4601 11.815 30.3757 10.8771 30.3034L6.32436 29.9417C6.09858 29.8637 5.86953 29.8033 5.63841 29.7609C5.25294 29.7127 4.86747 29.7167 4.482 29.6725C3.73838 29.5841 2.9978 29.4635 2.25721 29.3791C2.14597 29.3807 2.0359 29.4093 1.93244 29.4635C1.62892 31.8746 1.40129 34.2215 1.05224 36.5282C0.821488 37.9356 0.742799 39.3793 0.81853 40.816C1.17972 41.1013 1.58643 41.3303 1.63803 41.9613C1.7473 43.2593 1.87781 44.5573 1.94155 45.8633C1.99315 46.9804 1.95976 48.1056 1.9628 49.2309V51.2884C2.27262 51.2907 2.58195 51.3216 2.88853 51.3808C4.33935 51.8188 5.77803 51.433 7.2167 51.3004C8.26991 51.204 9.31402 50.9468 10.3642 50.782C11.0107 50.6815 11.6602 50.6293 12.3067 50.5449C13.1444 50.4364 13.9821 50.2355 14.8198 50.2154C16.9263 50.1672 19.0357 50.2154 21.1452 50.2154C21.3637 50.2154 21.5822 50.2154 21.7977 50.2636C22.6597 50.3681 23.5217 50.4806 24.3807 50.5931C25.1456 50.7258 25.8983 50.9146 26.6692 50.9709C27.6344 51.0432 28.6117 50.9106 29.5709 51.0352C30.6915 51.2521 31.8225 51.3609 32.9551 51.3607C33.5318 51.3285 34.1054 51.1959 34.6821 51.1839C38.1149 51.0995 41.5477 51.0472 44.9805 50.9548C45.3552 50.8908 45.7235 50.7736 46.0792 50.6052C46.6711 50.6655 47.263 50.7619 47.8579 50.778C48.7684 50.8101 49.679 50.778 50.5895 50.778C50.7565 50.7981 50.9264 50.8101 51.0934 50.8383C52.5017 51.0593 53.9009 51.429 55.3426 51.3486C55.8222 51.3245 56.3017 51.22 56.7813 51.1758C57.6463 51.0914 58.5144 51.0352 59.3825 50.9508C59.4729 50.9173 59.5582 50.8628 59.6344 50.7901C59.8198 50.845 60.009 50.8746 60.1989 50.8785C60.9881 50.7981 61.7803 50.6012 62.5694 50.6092C65.0127 50.6092 67.4561 50.7217 69.8994 50.7901C69.9479 50.7901 69.9965 50.7901 70.0451 50.7901C71.2197 50.9106 72.3973 51.1276 73.575 51.1276C75.9698 51.1276 78.3645 50.999 80.7593 50.9709C81.6698 50.9709 82.5804 51.0834 83.5061 51.1437C84.7505 51.2763 85.995 51.4933 87.2394 51.5134C90.3383 51.5737 93.4403 51.5656 96.5392 51.5335C99.6381 51.5013 102.825 51.4169 105.966 51.3285C106.616 51.3285 107.263 51.1919 107.912 51.1196L111.151 50.7579C111.7 50.6976 112.252 50.5972 112.805 50.5851C116.097 50.5047 119.389 50.4378 122.681 50.3842C122.875 50.3814 123.069 50.3948 123.261 50.4244C124.074 50.5329 124.888 50.7338 125.689 50.7458C126.821 50.7458 127.956 50.5811 129.092 50.5931C130.913 50.5931 132.734 50.6936 134.528 50.8021C135.611 50.8664 136.686 51.0633 137.769 51.1397C138.592 51.1959 139.417 51.1397 140.24 51.1598C141.085 51.1681 141.929 51.2393 142.768 51.3727C144.105 51.6416 145.456 51.7626 146.808 51.7344C147.366 51.7344 147.925 51.6902 148.48 51.7344C149.273 51.8068 150.062 51.9394 150.848 52.068C151.758 52.2126 152.654 52.4698 153.649 52.1925C153.701 51.5576 153.78 50.9307 153.792 50.2998C153.813 49.0942 153.828 47.8565 153.792 46.6389C153.756 45.59 153.631 44.5452 153.552 43.5004C153.44 41.9773 153.1 40.4824 153.218 38.9272C153.249 38.5254 153.261 38.1235 153.282 37.6453C153.048 37.6734 152.86 37.6815 152.675 37.7217C151.631 37.9467 150.593 38.2642 149.543 38.3887C148.268 38.5455 146.984 38.5415 145.706 38.6058C145.633 38.5997 145.56 38.5997 145.488 38.6058C143.97 38.9634 142.452 39.3492 140.935 39.6707C139.721 39.9319 138.507 40.1609 137.293 40.3136C136.188 40.4463 135.071 40.4221 133.954 40.5306C132.944 40.606 131.937 40.7481 130.937 40.9566C129.209 41.4014 127.455 41.6448 125.695 41.684C125.416 41.6025 125.133 41.5408 124.848 41.4991C123.738 41.4147 122.627 41.3745 121.51 41.2741C120.934 41.2159 120.361 41.1112 119.795 40.9606C118.503 40.681 117.19 40.6095 115.886 40.7477C114.975 40.8079 114.064 41.0651 113.154 41.0812C106.683 41.1937 100.209 40.9486 93.7286 41.2861L90.1046 41.471C89.4399 41.5072 88.7752 41.5554 88.1105 41.5996C88.3928 41.3725 88.7 41.2044 89.0211 41.1013C90.912 40.4744 92.8545 40.398 94.7879 40.3699C100.925 40.2815 107.059 40.3297 113.196 40.3257C113.415 40.3257 113.633 40.3257 113.852 40.2976C114.981 40.185 116.11 39.9841 117.242 39.9761C118.153 39.9761 119.063 40.2132 119.974 40.3177C121.224 40.4623 122.475 40.6311 123.728 40.6914C125.638 40.7838 127.553 40.8039 129.441 40.2895C131.705 39.6351 134.009 39.2517 136.324 39.1442C137.001 39.1378 137.675 39.0626 138.343 38.9192C139.697 38.6098 141.035 38.1959 142.389 37.8704C143.66 37.4975 144.947 37.229 146.243 37.0666C148.443 36.9072 150.648 37.0134 152.833 37.3841C153.088 37.4283 153.388 37.4926 153.476 36.8737C153.264 36.6527 153.018 36.4036 152.781 36.1424C152.506 35.8876 152.257 35.5864 152.041 35.2462C151.4 34.0005 151.458 32.6301 151.822 31.296C152.159 30.0583 152.578 28.8647 152.493 27.4984C152.503 27.2615 152.533 27.0268 152.584 26.7992C152.67 26.1443 152.664 25.474 152.566 24.8221C152.283 25.1516 152.098 25.3766 151.907 25.5976C151.3 26.3009 150.693 27.0725 149.965 27.6069C148.376 28.6933 146.712 29.5748 144.996 30.2391C143.829 30.7684 142.608 31.0624 141.375 31.1111C140.723 31.1355 140.073 31.2039 139.426 31.3161C138.212 31.4889 136.998 31.6697 135.763 31.8706C135.174 31.9671 134.591 32.1198 134.006 32.2484L132.719 32.3006L132.112 32.4372L130.093 32.4774H121.655C121.39 32.4514 121.123 32.4433 120.857 32.4533C119.224 32.6301 117.591 32.811 115.961 33.0079C115.242 33.0963 114.526 33.2289 113.809 33.3454C112.972 33.4861 112.137 33.6428 111.299 33.7714C110.295 33.9241 109.287 34.0487 108.264 34.1974C107.093 34.3702 105.921 34.5711 104.749 34.7318C103.578 34.8926 102.488 34.973 101.365 35.1337C99.6199 35.415 97.8868 35.8088 96.1386 36.0459C94.0245 36.3629 91.9694 37.1724 90.0682 38.437C89.021 39.095 87.9397 39.6536 86.8327 40.1087C84.4349 41.1174 81.9278 41.1455 79.4511 41.2339C76.9744 41.3223 74.5189 41.3424 72.0483 41.1374C70.0967 40.9727 68.142 40.9446 66.1904 40.7356C64.4087 40.5387 62.624 40.4221 60.8394 40.3337C59.4098 40.2735 57.9802 40.3337 56.5506 40.3337H48.2615C47.8366 39.9841 47.3783 40.169 46.9291 40.185L42.5857 39.9359L41.9787 39.7952L40.8375 39.7551C40.7555 39.6948 40.6766 39.5863 40.5916 39.5782C39.1742 39.4376 37.7598 39.2608 36.3424 39.1764C33.9545 39.0651 31.5636 39.1994 29.1915 39.5782C28.6664 39.6586 28.1443 39.7752 27.6253 39.9037C26.5599 40.173 25.5007 40.4503 24.4384 40.7477C23.8829 40.9044 23.3335 41.1174 22.7842 41.3062L21.3485 41.3585C21.2271 41.3585 21.1088 41.3143 20.9873 41.3102C19.6579 41.2379 18.3285 41.1817 16.9991 41.0932C16.3496 41.049 15.7001 40.9606 15.0536 40.8642C13.9275 40.6994 12.8045 40.4945 11.6784 40.3418C10.4644 40.181 9.27456 40.0564 8.07263 39.9399C6.77357 39.8033 5.47451 39.6827 4.17241 39.5662C3.35291 39.4898 2.53341 39.4416 1.71391 39.3693C1.4802 39.3693 1.25256 39.2969 1.15847 38.9353C1.24042 38.879 1.27988 38.8308 1.32237 38.8268C1.51662 38.8268 1.71088 38.7906 1.90209 38.7906C4.22705 38.7906 6.54896 38.7464 8.86178 39.1603C10.0758 39.3773 11.3112 39.4456 12.5374 39.5983C13.9305 39.7752 15.3207 39.9801 16.7108 40.1529C17.506 40.2493 18.3103 40.2373 19.0964 40.39C20.5073 40.6724 21.9441 40.6358 23.3457 40.2815C25.1668 39.8113 26.9606 39.1523 28.809 38.9232C29.9836 38.7785 31.1552 38.4772 32.3298 38.441C35.0883 38.3096 37.8502 38.4197 40.5977 38.7705C42.0849 38.9875 43.5843 39.088 45.0776 39.1724C47.0626 39.2768 49.0477 39.3492 51.0327 39.3612C52.5503 39.3612 54.0679 39.2206 55.6037 39.2166C56.9088 39.2166 58.2139 39.317 59.519 39.3733C61.0184 39.4376 62.5178 39.4818 64.0172 39.5742C65.729 39.6787 67.4409 39.8475 69.1527 39.948C70.7978 40.0404 72.4429 40.1408 74.0879 40.1328C76.5343 40.1328 78.9807 40.0404 81.424 39.96C82.2216 39.9441 83.0179 39.8717 83.8096 39.743C86.0219 39.366 88.1739 38.5207 90.1835 37.2394C92.1625 36.0324 94.276 35.2575 96.4421 34.9448C97.6137 34.7519 98.7822 34.543 99.9538 34.322C101.244 34.0889 102.528 33.8277 103.821 33.6067C104.777 33.4419 105.739 33.3374 106.695 33.1847C107.772 33.0159 108.847 32.823 109.921 32.6261C110.877 32.4533 111.83 32.2604 112.784 32.0876C113.573 31.943 114.362 31.7862 115.154 31.6858C116.426 31.525 117.704 31.3964 118.978 31.2839C120.35 31.1513 121.71 30.9865 123.097 30.9343C124.745 30.878 126.396 30.9102 128.044 30.9343C128.551 30.9343 129.058 31.1111 129.562 31.079C130.864 30.9986 132.163 30.862 133.462 30.7294C134.676 30.6048 135.866 30.4601 137.068 30.3275C138.586 30.1467 140.103 29.9779 141.621 29.7649C142.439 29.6791 143.25 29.5112 144.049 29.2626C146.89 28.266 149.616 26.8796 152.092 24.7296C152.463 24.4081 152.73 24.0786 152.657 23.4236C152.636 23.1364 152.664 22.8466 152.739 22.5757C153.012 21.4183 153.282 20.2529 153.607 19.1197C153.828 18.3401 153.91 17.6409 153.379 17.0301L153.391 16.809ZM95.1309 6.61794C95.2777 6.8021 95.4419 6.96015 95.6196 7.08811C96.955 7.73912 98.3087 8.33387 99.6381 9.00899C102.066 10.2347 104.561 11.0705 107.044 11.9988C107.722 12.2269 108.381 12.546 109.011 12.9512C110.926 14.2733 112.893 15.2137 115.081 15.0971C116.386 15.0288 117.704 15.1936 118.99 14.848C120.997 14.3055 122.997 13.7348 124.988 13.1039C126.421 12.6498 127.835 12.1073 129.237 11.5568C131.951 10.4388 134.584 9.00253 137.104 7.26493C138.832 6.11562 140.592 5.06677 142.337 3.9697C142.516 3.85317 142.683 3.70046 142.856 3.56785L142.823 3.40308L140.413 3.14992C139.544 3.09223 138.674 3.19639 137.827 3.45934C137.151 3.68901 136.46 3.8237 135.763 3.8612C134.774 3.8944 133.791 4.0682 132.831 4.3796C131.471 4.81762 130.099 5.24359 128.743 5.60928C127.386 5.97497 126.029 6.17589 124.691 6.57775C121.992 7.43342 119.231 7.89563 116.456 7.95612C116.286 7.95612 116.116 7.95612 115.949 7.98827C115.06 8.10079 114.177 8.25751 113.287 8.31779C111.983 8.37701 110.677 8.25038 109.393 7.94005C107.615 7.5382 105.818 7.22073 104.066 6.67018C101.602 5.89058 99.1434 5.06275 96.7335 4.00587C95.0034 3.25842 93.243 3.06553 91.4644 2.94899C90.2503 2.86862 89.0362 2.92488 87.8222 2.94899C87.6189 2.96048 87.4163 2.98597 87.2151 3.02534C87.3549 3.24848 87.542 3.41088 87.7523 3.49149C89.5735 4.29521 91.3612 5.14715 93.1732 5.93478C93.8136 6.2201 94.4783 6.3929 95.1309 6.61794ZM133.414 11.3478C131.559 12.0792 129.717 12.8668 127.85 13.5299C124.906 14.5787 121.947 15.5793 118.906 15.941C117.48 16.0602 116.05 16.0468 114.626 15.9008C113.609 15.8365 112.65 15.3583 111.676 14.9685C109.478 14.0885 107.278 13.2205 105.023 12.6096C101.526 11.6653 98.1904 10.0176 94.8668 8.32985C91.4492 6.59383 88.0043 4.96631 84.4986 3.59196C83.9935 3.37091 83.4729 3.21744 82.9446 3.13384C81.8823 3.01328 80.82 3.00525 79.7546 2.91282C78.6893 2.82039 77.63 2.65563 76.5798 2.57124C75.9728 2.519 75.3475 2.57124 74.7314 2.57124L74.6828 2.77619C74.8906 2.96329 75.1053 3.13631 75.3263 3.29458C76.4584 4.02596 77.5905 4.76538 78.7348 5.46059C80.3435 6.4371 81.9369 7.46988 83.5911 8.31378C85.6854 9.40281 87.8131 10.3914 89.9468 11.3357C91.6192 12.0792 93.3067 12.7905 95.0216 13.345C99.4682 14.7435 103.927 16.0656 108.392 17.3636C109.665 17.7436 110.956 18.0121 112.255 18.1673C113.791 18.3361 115.336 18.2919 116.878 18.3964C117.789 18.4566 118.699 18.6375 119.61 18.7379C120.375 18.8765 121.147 18.9316 121.919 18.9027C123.134 18.7661 124.348 18.4245 125.562 18.2236C127.838 17.807 130.081 17.1252 132.266 16.1862C135.056 15.0489 137.681 13.3932 140.328 11.8059C141.758 10.9329 143.246 10.2335 144.771 9.71626C145.851 9.37061 146.917 8.9535 147.964 8.46648C149.33 7.81548 150.663 7.03587 152.117 6.76662C152.806 6.63803 153.495 6.52149 154.262 6.38486C154.114 5.41237 154.004 4.50819 153.837 3.62411C153.671 2.74002 153.646 2.75208 152.994 2.77619C151.883 2.81637 150.769 2.88469 149.655 2.94899C148.441 3.0173 147.227 3.0816 146.031 3.16599C145.839 3.1826 145.65 3.24665 145.476 3.35486C144.067 4.21484 142.656 5.06275 141.263 5.97095C139.87 6.87915 138.549 7.81548 137.196 8.74377C136.843 9.00899 136.504 9.30235 136.139 9.54748C135.335 10.0659 134.522 10.5441 133.711 11.0504C133.604 11.1345 133.504 11.2342 133.414 11.3478ZM133.738 3.04945C133.31 2.75496 132.822 2.64803 132.345 2.74404C131.265 2.8646 130.187 3.02936 129.107 3.10973C126.741 3.2462 124.372 3.02509 122.044 2.45069C121.211 2.26861 120.369 2.17855 119.525 2.18144C118.55 2.18144 117.573 2.2819 116.596 2.34218C116.523 2.3372 116.451 2.32647 116.38 2.31003C116 2.23596 115.617 2.18767 115.233 2.16536C112.96 2.16536 110.68 2.06088 108.41 2.33013C107.867 2.39442 107.311 2.18948 106.756 2.16536C105.26 2.13257 103.764 2.25079 102.282 2.519C101.068 2.71591 99.8536 2.80432 98.6396 2.92086C98.807 3.11373 99.0103 3.24411 99.2284 3.2986C101.226 3.89335 103.232 4.46399 105.235 5.09892C107.557 5.81517 109.914 6.3147 112.289 6.59383C112.793 6.65813 113.293 6.74252 113.806 6.81485C114.637 6.99092 115.476 7.09962 116.316 7.14036C117.664 7.10821 119.006 6.86308 120.353 6.8028C121.582 6.68985 122.8 6.43572 123.996 6.04329C124.773 5.82628 125.553 5.61732 126.333 5.43246C127.422 5.17929 128.533 5.03061 129.602 4.68903C130.97 4.23493 132.339 3.60803 133.738 3.04945Z" fill="#6E4220"/>
<path d="M134.009 32.2484C134.594 32.1198 135.177 31.9671 135.766 31.8706C136.98 31.6697 138.194 31.4688 139.429 31.3161C140.076 31.2039 140.726 31.1355 141.378 31.1111C142.61 31.062 143.83 30.768 144.996 30.2391C146.714 29.5647 148.379 28.6725 149.968 27.5748C150.708 27.0604 151.288 26.2888 151.91 25.5655C152.101 25.3445 152.286 25.1194 152.569 24.7899C152.669 25.4525 152.674 26.1341 152.584 26.7992C152.534 27.0457 152.507 27.2995 152.505 27.5547C152.59 28.921 152.171 30.1145 151.834 31.3522C151.47 32.6864 151.412 34.0567 152.053 35.3025C152.269 35.6426 152.518 35.9439 152.793 36.1986C153.03 36.4598 153.276 36.709 153.488 36.93C153.4 37.5489 153.1 37.4846 152.845 37.4404C150.66 37.0697 148.455 36.9634 146.256 37.1229C144.959 37.2853 143.672 37.5537 142.401 37.9266C141.047 38.2521 139.709 38.666 138.355 38.9755C137.688 39.1189 137.013 39.1941 136.337 39.2005C134.021 39.308 131.717 39.6913 129.453 40.3458C127.565 40.8481 125.65 40.828 123.741 40.7477C122.487 40.6874 121.237 40.5186 119.986 40.3739C119.075 40.2694 118.165 40.0283 117.254 40.0323C116.122 40.0323 114.993 40.2413 113.864 40.3538C113.646 40.3779 113.427 40.3779 113.208 40.382C107.071 40.382 100.937 40.3378 94.8001 40.4262C92.8788 40.4543 90.9363 40.5306 89.0332 41.1575C88.7121 41.2606 88.405 41.4287 88.1227 41.6558C88.7874 41.6116 89.4521 41.5634 90.1168 41.5272L93.7408 41.3424C100.209 41.0048 106.683 41.25 113.166 41.1374C114.077 41.1374 114.987 40.8642 115.898 40.8039C117.202 40.6658 118.515 40.7373 119.807 41.0169C120.373 41.1674 120.946 41.2721 121.522 41.3303C122.633 41.4308 123.744 41.471 124.861 41.5554C125.145 41.5971 125.428 41.6588 125.707 41.7402C125.673 42.0767 125.556 42.389 125.376 42.6298C125.195 42.8706 124.96 43.0267 124.706 43.0744C124.229 43.2311 123.735 43.2753 123.246 43.3718C123.751 43.4255 124.258 43.4348 124.763 43.3999C125.531 43.3276 126.281 43.1025 127.061 43.1065C129.116 43.1065 131.174 43.215 133.229 43.2793C134.266 43.2844 135.3 43.1088 136.303 42.7569C137.353 42.4194 138.376 41.9532 139.481 41.8809C140.777 41.8045 142.067 41.5112 143.36 41.3625C144.322 41.25 145.287 41.2218 146.253 41.1535C146.395 41.1535 146.538 41.0812 146.681 41.0611C147.272 40.9194 147.871 40.8348 148.471 40.8079C149.145 40.8555 149.814 40.9792 150.471 41.1776C151.139 41.3545 151.795 41.6157 152.614 41.8929C152.347 42.114 152.241 42.2707 152.123 42.2948C151.5 42.3872 150.875 42.4555 150.25 42.5158C149.43 42.5922 148.611 42.6484 147.794 42.7248C146.495 42.8453 145.199 42.986 143.9 43.0865C142.814 43.1749 141.727 43.2231 140.641 43.2793C139.241 43.3517 137.839 43.3798 136.44 43.4923C135.745 43.5784 135.054 43.7126 134.37 43.8942C134.291 43.9143 134.227 44.0831 134.118 44.2398C134.216 44.3124 134.317 44.3768 134.421 44.4327C135.464 44.844 136.548 45.0365 137.636 45.0033C139.372 44.9149 141.105 45.2726 142.841 45.0314C142.937 45.0409 143.032 45.0597 143.126 45.0877C143.63 45.1319 144.137 45.2042 144.644 45.1922C145.318 45.1922 145.992 45.0676 146.665 45.0234C147.797 44.9511 148.933 44.8948 150.065 44.8386C150.168 44.8519 150.27 44.8802 150.368 44.9229C150.206 45.157 149.995 45.322 149.761 45.3971C148.504 45.8474 147.214 46.1169 145.913 46.2008C144.565 46.3013 143.217 46.446 141.873 46.5706C141.126 46.6389 140.379 46.6991 139.636 46.7795C139.132 46.8318 138.628 46.9242 138.118 46.9804C136.992 47.105 135.863 47.2457 134.734 47.3341C134.033 47.3863 133.326 47.3341 132.609 47.3622C131.171 47.4627 129.732 47.6716 128.293 47.7038C126.855 47.7359 125.492 47.5631 124.09 47.5471C121.495 47.5149 118.899 47.5471 116.304 47.5471C116.11 47.5471 115.916 47.5471 115.722 47.5672C114.377 47.6837 113.029 47.9007 111.682 47.9128C107.244 47.961 102.804 47.9128 98.3664 47.9409C97.1098 47.9409 95.8533 48.0655 94.5997 48.1338C94.5269 48.1338 94.454 48.1338 94.3812 48.1619C93.5921 48.2784 92.8059 48.4834 92.0168 48.4954C85.3394 48.62 78.6863 48.3548 72.021 48.6682C70.1513 48.7567 68.2725 48.4432 66.3968 48.3307C65.0431 48.2463 63.6924 48.1619 62.3387 48.1338C57.8709 48.0333 53.4001 48.2584 48.9293 47.961C47.5035 47.8453 46.073 47.8883 44.6527 48.0896C43.2806 48.2585 41.9027 48.3309 40.5248 48.3066C38.2029 48.3387 35.884 48.3066 33.5621 48.3307C32.433 48.3307 31.307 48.2624 30.1749 48.2825C28.8485 48.3066 27.5191 48.1338 26.1897 48.1378C24.3048 48.1378 22.4169 48.2624 20.5321 48.2784C19.4538 48.2388 18.3748 48.3141 17.3057 48.5035C16.8777 48.5959 16.4467 48.6562 16.0157 48.7004C15.2448 48.7808 14.4738 48.837 13.7059 48.9094C12.4919 49.0299 11.2535 49.2389 10.0273 49.263C7.33812 49.3152 4.64287 49.263 1.95066 49.263C1.95066 48.1378 1.98101 47.0126 1.92941 45.8954C1.87174 44.5894 1.74123 43.2914 1.62589 41.9934C1.57429 41.3625 1.16758 41.1334 0.806393 40.8481C0.730662 39.4114 0.809351 37.9677 1.0401 36.5603C1.38915 34.2536 1.62589 31.9108 1.92031 29.4957C2.02376 29.4415 2.13383 29.4129 2.24507 29.4113C2.98565 29.4957 3.72624 29.6162 4.46986 29.7046C4.85533 29.7488 5.2408 29.7448 5.62627 29.793C5.8574 29.8355 6.08644 29.8959 6.31222 29.9739C6.11497 30.0618 5.91163 30.1237 5.70518 30.1587C5.07387 30.1828 4.44558 30.1587 3.81426 30.1587H2.09331V30.3556C2.37862 30.3556 2.66393 30.3556 2.9462 30.3556C3.7657 30.4199 4.5852 30.4722 5.40167 30.5807C6.61574 30.7374 7.79339 30.9464 8.98925 31.1192C10.0182 31.2678 11.0501 31.4005 12.0821 31.521L16.3951 32.0756C16.8018 32.1318 17.2085 32.2243 17.6092 32.2604C18.5197 32.3408 19.4303 32.3971 20.356 32.4694C21.0541 32.5257 21.7522 32.606 22.4503 32.6623C24.062 32.7949 25.6767 32.9476 27.2914 33.032C29.8319 33.1646 32.3754 32.8431 34.9128 33.2249C35.8719 33.3696 36.831 33.4821 37.7901 33.5866C38.0794 33.612 38.3698 33.6053 38.6582 33.5665C39.499 33.466 40.3336 33.2691 41.1744 33.245C42.9196 33.1927 44.6648 33.245 46.4131 33.245C46.6043 33.245 46.7986 33.245 46.9928 33.245C48.2069 33.1284 49.4453 32.9878 50.6715 32.8954C51.2785 32.8471 51.8856 32.8954 52.4926 32.8954L61.3523 32.7025C61.4412 32.6916 61.5294 32.6728 61.6164 32.6462C61.3624 32.5406 61.096 32.497 60.8302 32.5176C60.2961 32.5176 59.7619 32.5176 59.2307 32.4895C58.053 32.389 56.8784 32.2283 55.6978 32.1359C54.4685 32.0434 53.2362 31.9952 52.0039 31.9309C51.8006 31.9309 51.6124 31.9028 51.5669 31.5692C53.4335 31.5692 55.3001 31.5331 57.1668 31.5692C58.8604 31.5974 60.5601 31.6014 62.2477 31.7742C65.1281 32.0756 68.0145 31.9108 70.8919 31.9189C71.7812 31.9189 72.6675 31.6978 73.5537 31.5933C73.8421 31.5572 74.1365 31.5572 74.4248 31.5411L76.4584 31.1192C75.7797 30.9725 75.0841 31.0512 74.434 31.3482H72.974C73.1592 30.5445 73.0985 30.4239 72.5309 30.3838C72.3609 30.3838 72.191 30.3838 72.021 30.3838L66.2906 30.1909H66.072C64.8579 30.0703 63.6256 29.9176 62.3964 29.8372C61.5496 29.781 60.6997 29.8091 59.8529 29.8372C58.7908 29.8557 57.7301 29.7305 56.6872 29.4635C56.0303 29.2543 55.3612 29.1199 54.687 29.0616C52.7809 29.0215 50.8809 28.8366 48.9748 28.6799C46.9261 28.5151 44.8652 28.5272 42.8103 28.4629C42.2306 28.4629 41.6236 28.5674 41.0742 28.3906C39.8146 27.9887 38.5368 27.9887 37.2651 27.9123C36.136 27.8561 34.9978 28.0731 33.8656 28.053C32.8337 28.053 31.8078 28.1414 30.7728 28.1092C26.5235 27.9726 22.2955 27.9485 18.0584 27.8882C17.597 27.8882 17.1478 27.8882 16.6774 27.8882C16.4588 27.8882 16.2403 27.8681 16.0248 27.84C15.26 27.7315 14.5072 27.5627 13.7302 27.5145C12.0396 27.414 10.346 27.3698 8.65539 27.3096C8.52164 27.3314 8.3859 27.3057 8.26215 27.2351C8.13839 27.1644 8.03107 27.0514 7.95122 26.9077C8.04228 26.8354 8.09387 26.767 8.15458 26.755C9.6054 26.4777 11.0623 26.2245 12.5131 25.9513C14.1796 25.5979 15.8639 25.4125 17.5515 25.3967H25.094C25.3115 25.3676 25.5309 25.377 25.7465 25.4248C26.6055 25.7584 27.4128 25.4972 28.2263 25.1516C28.3601 25.0916 28.5008 25.0631 28.6421 25.0672C29.1247 25.0993 29.6012 25.1717 30.0838 25.1918C30.6646 25.1521 31.2468 25.1668 31.826 25.236C33.295 25.5936 34.7185 25.3083 36.2847 24.9185C36.1433 24.8142 35.9962 24.7242 35.8446 24.6493C34.5395 24.1751 33.1918 24.0465 31.8533 23.8455C31.2068 23.7491 30.5573 23.6727 29.9138 23.5642C29.0943 23.4276 28.287 23.287 27.51 23.8536C27.2684 23.9976 27.0032 24.0584 26.739 24.0304C25.5796 23.9849 24.4212 23.9219 23.2637 23.8415C22.5652 23.8116 21.8683 23.7352 21.1755 23.6125C19.3908 23.2548 17.6456 22.6239 15.8336 22.4591C14.5861 22.3506 13.3478 22.0573 12.1034 21.9367C10.5099 21.8041 8.91337 21.7961 7.3199 21.7197C7.1089 21.7336 6.89904 21.6711 6.71286 21.5389C6.08762 20.8999 5.49879 20.2087 4.89175 19.5296C4.72482 19.3447 4.55181 19.1679 4.38791 18.9831L3.24972 17.7012C4.08743 17.8217 4.9221 17.9664 5.75982 18.0548C7.13172 18.1995 8.49148 18.3803 9.87249 18.4124C12.419 18.4727 14.9655 18.4124 17.5121 18.4406C18.4044 18.4406 19.2968 18.5491 20.1891 18.6174C21.9222 18.742 23.6553 18.9429 25.3914 18.9871C26.909 19.0273 28.4266 18.8906 29.9594 18.8505C30.1254 18.8735 30.2898 18.9138 30.4511 18.971C30.9519 19.0554 31.4678 19.2604 31.9504 19.172C32.8086 19.0011 33.6813 19.0011 34.5395 19.172C35.538 19.3769 36.5579 19.405 37.5564 19.614C39.1954 19.9596 40.8405 20.3132 42.4583 20.7995C44.8433 21.4891 47.1868 22.4105 49.4695 23.5562C49.8338 23.7411 50.2162 23.8656 50.5895 24.0183L50.6472 23.8255C50.4438 23.6768 50.2496 23.4999 50.0402 23.3754C47.8427 22.1135 45.6634 20.7995 43.4386 19.6341C42.4377 19.1705 41.4064 18.8315 40.3579 18.6214C39.4474 18.4004 38.5368 18.3361 37.6262 18.1914C36.5032 18.0186 35.3832 17.7896 34.2572 17.673C33.7024 17.6541 33.1475 17.7052 32.6 17.8257C31.8564 17.9382 31.1188 18.0709 30.445 17.448C30.2986 17.334 30.1322 17.2731 29.9624 17.2712C28.9031 17.1948 27.8378 17.1345 26.7785 17.0662C26.6328 17.0662 26.475 17.0662 26.3444 17.0662C25.1911 16.9457 24.0377 16.7206 22.8843 16.7327C21.4153 16.7327 19.9493 16.4916 18.4803 16.6804C18.3372 16.663 18.1952 16.6321 18.0554 16.588C17.6456 16.5599 17.2359 16.5277 16.8261 16.5478C16.4164 16.5679 15.9641 16.6804 15.5301 16.6885C14.0762 16.7126 12.6224 16.6885 11.1655 16.6885C10.9712 16.6885 10.78 16.6885 10.5858 16.7086C9.45061 16.7568 8.31544 16.8573 7.18028 16.8492C5.78106 16.8492 4.37881 16.7407 2.97959 16.6764C2.85931 16.6498 2.73576 16.6744 2.62669 16.7466C2.51762 16.8188 2.42865 16.9349 2.37255 17.0783L1.81407 16.8693V15.5472C2.11759 15.5191 2.32399 15.4829 2.53645 15.4829C8.93766 15.4829 15.3419 15.4829 21.7431 15.507C22.8965 15.507 24.0498 15.728 25.2063 15.8486H25.3489C27.2368 15.9182 29.1237 15.9825 31.0095 16.0415C31.2266 16.0348 31.4429 16.0039 31.656 15.9491C32.2264 15.7835 32.82 15.8251 33.3739 16.0696C34.5152 16.6403 35.7201 16.7729 36.9099 17.0341C38.294 17.3029 39.666 17.6718 41.0196 18.1392C43.6481 19.1197 46.234 20.3012 48.8625 21.2777C51.1632 22.1336 53.4942 22.8409 55.8192 23.5723C58.5872 24.4483 61.3644 25.2882 64.1386 26.1281C66.843 26.9318 69.5412 27.7958 72.2577 28.5392C74.0788 29.0335 75.9 29.3992 77.7514 29.7127C78.7391 29.897 79.7452 29.7913 80.6986 29.4032C81.828 28.9344 82.9978 28.6575 84.1799 28.5794C85.3333 28.491 86.4837 28.2861 87.634 28.1454C88.587 28.0289 89.5431 27.9525 90.4931 27.8159C91.7618 27.631 93.0275 27.414 94.2932 27.193C95.2948 27.0242 96.2964 26.8273 97.298 26.6706C98.9006 26.4134 100.506 26.1924 102.109 25.9312C103.711 25.67 105.271 25.4449 106.838 25.0993C108.492 24.7377 110.11 25.1476 111.742 25.2882C111.84 25.2882 111.934 25.3083 112.046 25.3123C113.74 25.3847 115.436 25.3847 117.124 25.5374C120.903 25.8749 124.681 25.674 128.46 25.678C130.006 25.6966 131.548 25.5176 133.068 25.1435C133.188 25.1275 133.309 25.1275 133.429 25.1435C133.307 25.2641 133.198 25.461 133.068 25.4932C132.005 25.7222 130.943 25.9231 129.875 26.1361L125.598 26.9961C125.58 26.7068 125.568 26.4898 125.553 26.2768L125.589 26.1964L125.556 26.2808C125.49 26.3711 125.431 26.4693 125.38 26.5742C124.958 27.5909 125.052 27.84 125.908 27.8159C127.407 27.7757 128.904 27.7087 130.4 27.615C131.007 27.5748 131.599 27.4663 132.197 27.3578C133.028 27.2051 133.863 27.0524 134.692 26.8555C136.042 26.5299 137.396 26.2245 138.731 25.8146C139.736 25.5002 140.726 25.1043 141.694 24.6292C142.837 24.115 143.952 23.4987 145.032 22.7846C146.483 21.772 147.843 20.5302 149.282 19.4693C150.571 18.452 151.943 17.6285 153.37 17.014C153.904 17.6248 153.819 18.324 153.598 19.1036C153.273 20.2369 152.991 21.4023 152.73 22.5596C152.655 22.8305 152.627 23.1203 152.648 23.4075C152.721 24.0625 152.453 24.3921 152.083 24.7136C149.606 26.8635 146.881 28.2499 144.04 29.2465C143.241 29.4951 142.43 29.663 141.612 29.7488C140.094 29.9618 138.577 30.1507 137.059 30.3114C135.845 30.4521 134.658 30.5967 133.453 30.7133C132.154 30.8459 130.855 30.9825 129.553 31.0629C129.052 31.095 128.545 30.9263 128.035 30.9182C126.387 30.8981 124.736 30.866 123.088 30.9182C121.713 30.9705 120.356 31.1352 118.969 31.2678C117.694 31.3924 116.417 31.521 115.145 31.6697C114.353 31.7702 113.564 31.9269 112.774 32.0716C111.821 32.2444 110.868 32.4372 109.912 32.61C108.838 32.807 107.763 33.0119 106.686 33.1686C105.73 33.3213 104.768 33.4258 103.812 33.5906C102.519 33.8116 101.235 34.0728 99.9447 34.3059C98.7731 34.5229 97.6046 34.7359 96.433 34.9288C94.2763 35.2533 92.1732 36.0363 90.2048 37.2475C88.1952 38.5287 86.0431 39.374 83.8309 39.751C83.0392 39.8797 82.2428 39.9522 81.4452 39.968C79.0171 40.0484 76.5556 40.1328 74.1092 40.1408C72.4641 40.1408 70.819 40.0484 69.174 39.956C67.4621 39.8555 65.7503 39.6867 64.0384 39.5823C62.5391 39.4898 61.0397 39.4456 59.5403 39.3813C58.2352 39.3251 56.93 39.2206 55.6249 39.2246C54.1073 39.2246 52.5897 39.3773 51.0539 39.3693C49.0689 39.3693 47.0839 39.2849 45.0989 39.1804C43.6056 39.104 42.1062 39.0036 40.6189 38.7785C37.8744 38.4296 35.1155 38.3209 32.3602 38.453C31.1856 38.4892 30.014 38.7906 28.8394 38.9353C26.9788 39.1643 25.1972 39.8234 23.376 40.2935C21.9745 40.6478 20.5376 40.6845 19.1268 40.4021C18.3407 40.2493 17.5363 40.2614 16.7411 40.165C15.351 39.9922 13.9609 39.7872 12.5677 39.6104C11.3537 39.4577 10.1092 39.3894 8.89213 39.1724C6.57932 38.7705 4.2574 38.7986 1.93244 38.8027C1.74123 38.8027 1.54698 38.8027 1.35273 38.8388C1.31024 38.8388 1.27078 38.8911 1.18883 38.9473C1.28292 39.309 1.51056 39.3492 1.74426 39.3813C2.56377 39.4537 3.38327 39.5019 4.20277 39.5782C5.50486 39.6948 6.80392 39.8153 8.10298 39.952C9.31705 40.0765 10.5068 40.2011 11.7088 40.3538C12.8348 40.5065 13.9579 40.7115 15.0839 40.8762C15.7304 40.9727 16.3799 41.0611 17.0295 41.1053C18.3589 41.1937 19.6883 41.25 21.0177 41.3223C21.1391 41.3223 21.2575 41.3545 21.3789 41.3705C21.3091 41.692 21.1118 41.68 20.9115 41.696C20.2619 41.7483 19.6154 41.8246 18.9659 41.8809C17.4726 42.0135 15.9793 42.1863 14.486 42.2586C12.2126 42.3671 9.9332 42.4033 7.66288 42.4716C7.42057 42.454 7.17753 42.4688 6.93747 42.5158C6.32107 42.6605 5.69026 42.6605 5.07387 42.5158C4.25427 42.4501 3.43266 42.4407 2.61233 42.4877C3.54413 42.7208 4.46986 42.8895 5.40167 43.0141C7.10441 43.2271 8.81018 43.416 10.516 43.5888C11.7695 43.7013 13.0261 43.7857 14.2826 43.7776C16.1462 43.7776 18.0068 43.6651 19.8704 43.6008H20.0161C21.8706 43.4763 23.7281 43.3075 25.5857 43.2392C27.1609 43.1789 28.7392 43.2593 30.3145 43.215C30.9885 43.1841 31.6594 43.0806 32.3207 42.9056C33.7829 42.505 35.2631 42.2298 36.7521 42.0818C38.2697 41.9773 39.7873 41.9371 41.3201 41.8849C43.5479 41.8085 45.7727 41.7603 47.9975 41.68C49.0112 41.6398 50.025 41.5473 51.0327 41.479H51.1753C52.2498 41.2942 53.3273 41.1374 54.3987 40.9204C55.1271 40.7758 55.8495 40.5507 56.5749 40.3619C58.0045 40.3619 59.4341 40.3136 60.8636 40.3619C62.6483 40.4382 64.433 40.5548 66.2147 40.7637C68.1663 40.9807 70.1209 41.0089 72.0726 41.1656C74.5432 41.3705 77.0108 41.3504 79.4754 41.262C81.94 41.1736 84.4592 41.1455 86.857 40.1368C87.9591 39.677 89.0352 39.1143 90.0773 38.453C91.9785 37.1885 94.0336 36.379 96.1477 36.062C97.896 35.8249 99.629 35.4311 101.374 35.1498C102.497 34.9689 103.632 34.8846 104.759 34.7479C105.885 34.6113 107.102 34.3862 108.273 34.2135C109.281 34.0648 110.289 33.9402 111.308 33.7875C112.146 33.6589 112.981 33.5022 113.819 33.3615C114.535 33.245 115.251 33.1124 115.97 33.024C117.6 32.827 119.233 32.6462 120.866 32.4694C121.132 32.4594 121.399 32.4674 121.665 32.4935C121.628 32.5779 121.607 32.7185 121.558 32.7346C120.857 32.9677 120.159 33.2249 119.452 33.4017C118.648 33.5986 117.831 33.7192 117.024 33.8759C115.831 34.105 114.641 34.3501 113.448 34.5631C112.538 34.7238 111.627 34.8404 110.717 34.9931C109.712 35.1618 108.713 35.3507 107.712 35.5356C106.783 35.7084 105.851 35.8771 104.925 36.0741C103.711 36.3312 102.497 36.5965 101.283 36.8778C100.297 37.1189 99.3164 37.4082 98.333 37.6815C98.6096 37.7958 98.9004 37.8367 99.1889 37.802C100.148 37.6976 101.107 37.5408 102.066 37.4645C103.32 37.364 104.579 37.3319 105.833 37.2475C106.482 37.2033 107.132 37.1229 107.779 37.0305C108.498 36.93 109.211 36.7773 109.93 36.6889C111.178 36.5362 112.431 36.4397 113.676 36.287C114.753 36.1383 115.825 35.8852 116.899 35.7445C118.485 35.5638 120.055 35.1898 121.589 34.6274C122.143 34.3901 122.73 34.3241 123.307 34.4345C124.065 34.6141 124.831 34.7202 125.601 34.7519C126.761 34.7519 127.917 34.6394 129.076 34.5791C130.43 34.5095 131.783 34.4465 133.134 34.3903C134.561 34.322 135.985 34.2697 137.411 34.1893C138.231 34.1451 139.053 34.1331 139.867 33.9884C141.223 33.7473 142.574 33.4258 143.925 33.1124C144.805 32.9114 145.679 32.6824 146.55 32.4413C147.661 32.1278 148.766 31.7903 149.889 31.4607C149.76 31.3345 149.598 31.2811 149.439 31.312C148.578 31.4286 147.719 31.6094 146.854 31.6617C145.163 31.7702 143.469 31.8144 141.779 31.8706C141.002 31.8947 140.225 31.8706 139.451 31.9108C138.394 31.9912 137.326 32.1399 136.282 32.2604C135.924 32.3046 135.566 32.385 135.208 32.4051C134.849 32.4252 134.373 32.6141 134.009 32.2484ZM119.646 43.5968V43.2472C119.364 43.2472 119.082 43.2472 118.802 43.2472C117.986 43.1749 117.145 43.2191 116.356 42.9699C115.26 42.6243 114.149 42.6926 113.051 42.5038C112.043 42.3529 111.029 42.2845 110.015 42.2988C107.718 42.2787 105.426 42.114 103.135 41.917C102.022 41.843 100.908 41.843 99.796 41.917C98.6881 41.9653 97.5864 41.8367 96.4785 41.8769C94.6422 41.9492 92.809 41.9693 90.9818 42.2787C89.5735 42.5198 88.1591 42.6806 86.7325 42.8936C85.306 43.1065 83.9068 43.2954 82.4833 43.4361C81.3997 43.5446 80.3131 43.5928 79.2265 43.633C76.9764 43.7134 74.7263 43.779 72.4763 43.8299C71.3624 43.854 70.2454 43.8299 69.1376 43.8299C68.9251 43.8299 68.7126 43.854 68.5002 43.8661C69.3379 44.0214 70.1756 44.134 71.0133 44.2036C72.0483 44.292 73.0863 44.3362 74.1244 44.4166C74.8467 44.4729 75.5661 44.5452 76.2885 44.6216C77.4175 44.7381 78.5436 44.939 79.6757 44.9671C82.7686 45.0355 85.8614 45.0314 88.9391 44.4327C90.1987 44.1835 91.4826 44.1232 92.7574 44.0308C94.1809 43.9304 95.6074 43.854 97.034 43.846C98.1661 43.846 99.3012 44.0188 100.436 43.9987C102.953 43.9545 105.469 44.1192 107.988 43.862C110.179 43.641 112.389 43.6852 114.589 43.637C116.046 43.6089 117.5 43.637 118.957 43.637C119.197 43.6249 119.418 43.6089 119.646 43.5968ZM119.006 27.3819V27.2935C117.858 27.1448 116.714 26.8916 115.567 26.8916C113.633 26.8916 111.7 26.7429 109.764 27.0242C108.088 27.2694 106.394 27.3136 104.71 27.4261C103.696 27.5024 102.682 27.5547 101.675 27.631C101.369 27.7 101.059 27.7376 100.749 27.7436C99.2339 27.4989 97.6998 27.5517 96.1963 27.9003C95.4405 28.0972 94.6999 28.3946 93.9411 28.5714C92.5662 28.8889 91.1852 29.1541 89.8041 29.4314C88.2562 29.7368 86.7083 30.0261 85.1633 30.3275C84.0191 30.5485 82.8748 30.7655 81.7366 31.0066C80.7866 31.2116 79.8427 31.4688 78.8926 31.6737C77.7605 31.9229 76.6284 32.1439 75.3263 32.4091C76.2035 32.4975 76.9198 32.606 77.6361 32.6301C78.75 32.6623 79.8669 32.6301 80.9748 32.6301C81.169 32.6301 81.3633 32.6301 81.5545 32.602C82.4408 32.4895 83.3271 32.3569 84.2133 32.2524C84.96 32.168 85.7066 32.1399 86.4503 32.0314C88.0043 31.8023 89.5583 31.5652 91.1062 31.2799C92.5146 31.0227 93.9108 30.7012 95.313 30.3998C95.9715 30.2057 96.637 30.0568 97.3071 29.9538C98.8004 29.8332 100.3 29.8171 101.799 29.7408C102.692 29.7323 103.584 29.6571 104.47 29.5157C106.492 29.1139 108.501 28.5875 110.516 28.1253C112.103 27.7274 113.71 27.495 115.324 27.4301C116.368 27.406 117.409 27.4301 118.453 27.4301C118.644 27.4221 118.824 27.398 119.006 27.3819ZM69.2104 28.4629C68.9312 28.3785 68.655 28.282 68.3757 28.2097C66.6032 27.7556 64.8185 27.3658 63.0581 26.8474C60.985 26.2326 58.9393 25.469 56.8693 24.8381C56.1103 24.6619 55.3422 24.5625 54.5717 24.5408C54.4624 24.5408 54.3441 24.7136 54.1711 24.8542C59.0729 27.4824 64.1143 28.1494 69.2104 28.4629ZM122.751 43.5888C121.825 43.2914 121.737 43.2954 121.091 43.5888H122.751ZM120.287 43.3276L120.235 43.4843C120.274 43.5084 120.323 43.5606 120.353 43.5446C120.384 43.5285 120.39 43.4481 120.408 43.3919L120.287 43.3276ZM51.0843 24.0585C51.0843 24.0384 51.0843 24.0103 51.0569 24.0023C51.0296 23.9942 51.0205 24.0023 51.0023 24.0023L51.0387 24.0907L51.0843 24.0585Z" fill="#A76633"/>
<path d="M103.736 24.7296C102.946 24.113 102.067 23.7228 101.156 23.5843C99.9235 23.299 98.6669 23.1825 97.4437 22.861C95.7622 22.3908 94.1778 21.4987 92.5874 20.6307C91.2732 19.9073 89.9498 19.2041 88.6417 18.4727C88.4597 18.3458 88.2879 18.1951 88.1287 18.0226C88.8116 18.2276 89.4885 18.4526 90.1714 18.6335C91.8468 19.0675 93.5101 19.5135 95.2068 19.8873C96.3693 20.1404 97.5469 20.269 98.7154 20.4659C99.3741 20.5785 100.03 20.7231 100.685 20.8678C100.476 20.6015 100.224 20.4021 99.9477 20.2851C97.5037 19.1866 94.998 18.3455 92.4539 17.7695C90.9666 17.3957 89.5097 16.797 88.0528 16.2304C87.2698 15.9249 86.5352 15.4467 85.7491 15.1052C84.3985 14.5064 83.0448 13.9237 81.682 13.3852C80.1644 12.7824 78.6468 12.2037 77.0988 11.6653C75.3718 11.0625 73.6418 10.4597 71.9026 9.95737C71.0744 9.75263 70.2385 9.60642 69.3986 9.51935C69.1753 9.51082 68.9518 9.52831 68.7308 9.57159V9.78457L71.7903 11.1067C74.0363 12.0738 76.2834 13.045 78.5315 14.0201C79.7941 14.5707 81.0567 15.1212 82.3103 15.6999C82.5409 15.8044 82.8687 15.7642 82.9416 16.2263C80.6713 15.4628 78.3888 14.7596 76.1367 13.9197C72.0422 12.4007 67.972 10.749 63.8715 9.25814C62.5755 8.78395 61.2157 8.62723 59.8833 8.34191C58.7663 8.10079 57.6463 7.85968 56.5263 7.65473C55.5146 7.47524 54.5029 7.32387 53.4912 7.20063C52.1951 7.05194 50.893 6.94344 49.594 6.82288C48.823 6.75055 48.0521 6.66616 47.2781 6.62598C45.8061 6.54159 44.331 6.46925 42.8559 6.42103C40.5552 6.34066 38.2545 6.33262 35.9569 6.20001C34.2966 6.09955 32.6394 5.84236 30.9792 5.66956C30.1384 5.58115 29.2916 5.54096 28.4509 5.44853C27.6101 5.35611 26.7239 5.2235 25.8588 5.11098C25.786 5.11098 25.7162 5.08687 25.6433 5.08285C24.581 5.01052 23.5187 4.95425 22.4564 4.86584C21.9751 4.83306 21.5003 4.70436 21.0481 4.48408C21.476 4.48408 21.907 4.48408 22.335 4.48408C22.8418 4.45193 23.3457 4.33539 23.8526 4.33941C25.3702 4.33941 26.8878 4.39165 28.4053 4.4238C28.4755 4.44309 28.5464 4.45651 28.6178 4.46399C31.1097 4.18671 33.5955 4.63679 36.0844 4.51221C37.2677 4.48557 38.4486 4.3621 39.6204 4.1425C40.4105 4.00448 41.2061 3.92666 42.003 3.90943C43.5752 3.82905 45.1474 3.76476 46.7197 3.73261C47.1992 3.73261 47.6788 3.90139 48.1583 3.88933C49.7306 3.85316 51.3028 3.79691 52.875 3.69644C54.3441 3.60535 55.8131 3.4781 57.2821 3.31468C58.5781 3.17403 59.8681 2.96104 61.1641 2.78422C61.3572 2.77017 61.5507 2.77017 61.7438 2.78422C65.2373 2.78422 68.7248 2.78423 72.2243 2.76011C72.6598 2.75615 73.0892 2.89417 73.4748 3.16197C75.4659 4.50015 77.4358 5.89862 79.4663 7.11624C81.8944 8.57499 84.3469 9.92924 86.8236 11.2232C90.3414 13.0557 93.9957 14.3014 97.6744 15.4226C100.33 16.2263 103.007 16.9175 105.678 17.6529C106.977 18.0106 108.273 18.3803 109.578 18.6978C111.15 19.0833 112.758 19.1322 114.341 18.8424C114.461 18.8204 114.583 18.8123 114.705 18.8183C115.354 18.8706 116.007 19.0072 116.653 18.975C117.977 18.9027 119.239 19.3568 120.526 19.606C121.098 19.7322 121.678 19.7726 122.256 19.7265C123.313 19.6019 124.381 19.405 125.41 19.1679C127.216 18.7661 129.019 18.316 130.813 17.8217C133.099 17.1084 135.322 16.0765 137.444 14.7435C139.481 13.5379 141.545 12.4449 143.609 11.3438C144.173 11.0574 144.755 10.8369 145.348 10.6847C146.856 10.2123 148.321 9.52238 149.716 8.62722C149.913 8.5147 150.122 8.43835 150.323 8.34593L150.459 8.31378C150.493 8.30165 150.529 8.30165 150.563 8.31378L153.528 8.34191C153.088 9.33048 152.751 10.3311 153.048 11.5326C153.088 11.8776 153.088 12.2285 153.048 12.5735C151.549 13.0356 150.28 14.1286 148.936 14.9645C148.171 15.4387 147.509 16.2746 146.872 17.0461C146.143 17.9262 145.427 18.6777 144.383 18.8344C142.832 19.0675 141.417 19.9636 139.967 20.6628C137.784 21.7157 135.581 22.648 133.259 23.0057C131.896 23.2146 130.542 23.5442 129.177 23.725C128.072 23.8737 126.958 23.9139 125.838 23.942C122.76 24.0304 119.679 23.9661 116.611 24.1871C113.879 24.384 111.148 24.1871 108.416 24.3398C107.259 24.3961 106.106 24.5809 104.953 24.6894C104.543 24.7256 104.127 24.6894 103.717 24.7136L103.736 24.7296ZM66.9279 7.71099L66.9613 7.58642C66.8957 7.5059 66.8209 7.43946 66.7398 7.3895C65.9597 7.05194 65.1918 6.65009 64.3936 6.41299C62.9154 5.97497 61.4221 5.60928 59.9288 5.25966C58.5272 4.92566 57.1027 4.79094 55.6795 4.8578C55.3153 4.8578 54.9511 4.88192 54.5899 4.8578C53.5647 4.81064 52.5402 4.97882 51.5547 5.35611C51.6792 5.45256 51.755 5.55302 51.84 5.56909C52.3651 5.66956 52.8902 5.77002 53.4183 5.82226C53.8766 5.86647 54.3289 5.82227 54.7993 5.86647C55.6613 5.96291 56.5203 6.10758 57.3853 6.21207C58.1289 6.30449 58.8756 6.36075 59.6192 6.44514C60.5298 6.55365 61.4403 6.66215 62.3509 6.79476C63.4041 6.95148 64.4543 7.11222 65.5014 7.30913C65.9779 7.39352 66.4514 7.57436 66.9279 7.71099ZM67.365 7.80342L67.3013 7.82753C67.3013 7.84762 67.3013 7.89183 67.3164 7.89183C67.3375 7.89735 67.3591 7.89735 67.3802 7.89183L67.365 7.80342ZM101.171 20.9803L101.071 20.9401C101.071 20.9642 101.071 21.0084 101.086 21.0084C101.115 21.0035 101.144 20.9941 101.171 20.9803Z" fill="#A76633"/>
<path d="M2.12063 10.4517C2.0751 9.59169 2.03565 8.73171 1.98405 7.87173C1.93245 7.01176 1.87478 6.04329 1.81104 5.03061C1.93081 4.94558 2.06156 4.89106 2.19651 4.86986C3.1617 4.90201 4.12385 4.97434 5.08904 5.01453C5.52611 5.03462 5.96317 5.04668 6.39721 5.01453C6.95265 4.98238 7.50201 4.88995 8.05745 4.85781C9.40811 4.77743 10.7618 4.65688 12.1155 4.67697C13.2203 4.67697 14.3251 4.89398 15.4299 5.01855L17.3057 5.22752C18.6047 5.36415 19.9038 5.48069 21.1998 5.62938C22.593 5.79414 23.9831 5.99908 25.3732 6.1759C26.047 6.25627 26.7208 6.32057 27.3946 6.38085C28.2627 6.4572 29.1308 6.5014 29.9988 6.59785C30.8122 6.68625 31.6257 6.82289 32.4422 6.93541C32.5362 6.93541 32.6334 6.93541 32.7305 6.95952C35.104 7.03186 37.4745 7.09615 39.845 7.1725C41.6843 7.22877 43.5236 7.27699 45.3599 7.37343C47.1446 7.46988 48.9293 7.61455 50.714 7.7552C52.2558 7.87173 53.8008 7.95211 55.3366 8.15705C56.6538 8.32985 57.965 8.61517 59.2671 8.93263C60.8333 9.31038 62.3994 9.69617 63.9383 10.2226C65.9051 10.8937 67.8506 11.6612 69.7871 12.4609C74.4006 14.3698 79.0049 16.3067 83.7095 17.8097C86.0571 18.5866 88.3461 19.6466 90.5478 20.9763C92.3142 22.0211 94.1262 22.9213 95.9261 23.8616C96.3363 24.0488 96.7538 24.207 97.1766 24.3358C96.9782 24.4005 96.7735 24.4249 96.5696 24.4081C95.7462 24.1475 94.8954 24.0741 94.0534 24.1911C93.2939 24.3552 92.5277 24.4598 91.7588 24.5046C90.6479 24.5046 89.537 24.384 88.4201 24.3398C86.5565 24.2635 84.6959 24.2153 82.8354 24.1349C82.0159 24.0987 81.1933 24.0264 80.3799 23.9219C79.8983 23.9004 79.4221 23.7798 78.9685 23.5642C77.6907 22.8128 76.2976 22.7123 74.9742 22.2421C74.4188 22.0412 73.8391 21.9528 73.2715 21.8403C72.1788 21.5951 71.0892 21.346 69.9965 21.125C68.5669 20.8356 67.1374 20.5744 65.7078 20.2972C64.4694 20.0601 63.2341 19.8189 61.9958 19.5859C61.498 19.4894 61.0002 19.409 60.5024 19.3206C61.1006 19.6697 61.7254 19.9324 62.3661 20.1043C64.7123 20.8276 67.0706 21.4866 69.4016 22.2984C71.3411 22.9695 73.2958 23.504 75.2626 23.9942C76.2065 24.2313 77.1929 24.4282 78.0489 24.9587C79.0051 25.4867 80.0223 25.7952 81.0567 25.8709C82.113 26.0156 83.1814 26.0156 84.2406 26.0959C84.3551 26.1307 84.4647 26.189 84.5654 26.2687C83.656 26.4929 82.7343 26.6179 81.8095 26.6425C80.6531 26.6425 79.4936 26.5581 78.3372 26.4576C77.6878 26.4193 77.0419 26.3077 76.4068 26.1241C73.5477 25.2199 70.6976 24.2514 67.8355 23.3392C66.9947 23.07 66.1266 22.9374 65.2829 22.7003C63.5467 22.1819 61.8167 21.6032 60.0806 21.0928C58.2594 20.5463 56.3958 20.1726 54.6172 19.3769C53.3394 18.8063 52.0312 18.3401 50.7383 17.8217C50.3224 17.657 49.9127 17.4641 49.5029 17.2832C48.5195 16.8492 47.5331 16.4273 46.5558 15.9692C44.8743 15.1654 43.1988 14.3617 41.5234 13.558C41.4081 13.5058 41.2958 13.4334 41.1835 13.3732C46.3949 13.775 51.5031 15.2137 56.6811 15.7843C56.6649 15.7345 56.6411 15.6897 56.6114 15.6524C56.5817 15.6151 56.5465 15.5861 56.5081 15.5673C55.1727 15.0168 53.8432 14.4381 52.4956 13.9358C51.2061 13.4076 49.896 12.9717 48.5711 12.6297C46.4465 12.1555 44.3856 11.396 42.2367 11.1871C41.4233 11.1067 40.6129 10.9178 39.8085 10.8776C39.2015 10.8495 38.5945 11.0303 38.0056 11.0344C36.5639 11.0344 35.1192 11.0544 33.6744 10.9901C32.2297 10.9258 30.8365 10.7088 29.4252 10.6847C27.9076 10.6847 26.39 10.8495 24.8724 10.8415C22.5019 10.8415 20.1314 10.7048 17.7609 10.6727C15.5028 10.6405 13.2476 10.6727 10.9925 10.6727C10.4431 10.6727 9.89374 10.6727 9.34437 10.6727C8.79501 10.6727 8.28509 10.7611 7.75697 10.7932C7.42634 10.8153 7.09509 10.8153 6.76447 10.7932C5.20438 10.6807 3.6625 10.5642 2.12063 10.4517Z" fill="#A76633"/>
<path d="M1.98101 49.2188C4.67322 49.2188 7.36847 49.255 10.0576 49.2188C11.2717 49.1947 12.5101 48.9857 13.7363 48.8652C14.5042 48.7928 15.2751 48.7366 16.0461 48.6562C16.4771 48.612 16.9081 48.5517 17.336 48.4593C18.4019 48.2651 19.4777 48.1845 20.5533 48.2182C22.4382 48.2182 24.3261 48.0856 26.2109 48.0775C27.5403 48.0775 28.8697 48.2463 30.1961 48.2222C31.3282 48.2021 32.4543 48.2865 33.5834 48.2704C35.9053 48.2342 38.2242 48.2704 40.5461 48.2463C41.924 48.2706 43.3019 48.1982 44.6739 48.0293C46.0942 47.828 47.5248 47.785 48.9505 47.9007C53.4214 48.1981 57.8922 47.973 62.36 48.0735C63.7137 48.1016 65.0643 48.186 66.418 48.2704C68.2938 48.3829 70.1726 48.6964 72.0422 48.608C78.7196 48.2945 85.3728 48.5597 92.038 48.4352C92.8272 48.4352 93.6133 48.2182 94.4025 48.1016C94.4753 48.1016 94.5481 48.0775 94.621 48.0735C95.8745 48.0052 97.1311 47.8886 98.3877 47.8806C102.825 47.8565 107.266 47.8806 111.703 47.8525C113.051 47.8525 114.398 47.6234 115.743 47.5069C115.937 47.5069 116.131 47.4868 116.326 47.4868C118.921 47.4868 121.516 47.4868 124.111 47.4868C125.513 47.4868 126.915 47.6757 128.315 47.6435C129.714 47.6114 131.192 47.4024 132.631 47.3019C133.332 47.2577 134.039 47.326 134.755 47.2738C135.884 47.1854 137.013 47.0447 138.139 46.9202C138.643 46.8639 139.147 46.7715 139.657 46.7192C140.401 46.6389 141.147 46.5786 141.894 46.5103C143.239 46.3857 144.586 46.241 145.934 46.1406C147.235 46.0566 148.525 45.7871 149.782 45.3369C150.016 45.2617 150.227 45.0967 150.39 44.8627C150.291 44.8199 150.189 44.7917 150.086 44.7783C148.954 44.8345 147.819 44.8908 146.687 44.9631C146.013 45.0073 145.339 45.1118 144.665 45.1319C144.161 45.1319 143.654 45.0716 143.148 45.0274C143.054 44.9995 142.958 44.9806 142.862 44.9712C141.126 45.2123 139.393 44.8546 137.657 44.943C136.57 44.9762 135.485 44.7837 134.443 44.3724C134.339 44.3165 134.237 44.2521 134.139 44.1795C134.248 44.0228 134.312 43.854 134.391 43.8339C135.075 43.6523 135.766 43.5182 136.461 43.432C137.86 43.3195 139.263 43.2914 140.662 43.2191C141.748 43.1628 142.835 43.1146 143.922 43.0262C145.221 42.9257 146.517 42.7851 147.816 42.6645C148.632 42.5882 149.452 42.5319 150.271 42.4555C150.896 42.3953 151.522 42.3269 152.144 42.2345C152.262 42.2345 152.368 42.0617 152.636 41.8327C151.816 41.5554 151.16 41.2942 150.493 41.1174C149.835 40.9189 149.166 40.7952 148.493 40.7477C147.892 40.7745 147.293 40.8591 146.702 41.0008C146.559 41.0008 146.416 41.0812 146.274 41.0932C145.309 41.1616 144.343 41.1897 143.381 41.3022C142.088 41.4509 140.798 41.7443 139.502 41.8206C138.397 41.8849 137.378 42.3591 136.324 42.6967C135.321 43.0485 134.288 43.2241 133.25 43.2191C131.195 43.1548 129.137 43.0583 127.082 43.0463C126.317 43.0463 125.565 43.2673 124.785 43.3396C124.279 43.3746 123.772 43.3652 123.267 43.3115C123.756 43.215 124.25 43.1708 124.727 43.0141C124.981 42.9664 125.216 42.8104 125.397 42.5695C125.578 42.3287 125.694 42.0164 125.729 41.68C127.489 41.6408 129.243 41.3974 130.97 40.9526C131.97 40.7441 132.977 40.6019 133.987 40.5266C135.092 40.4181 136.209 40.4422 137.326 40.3096C138.54 40.1569 139.754 39.9078 140.968 39.6667C142.486 39.3452 144.003 38.9594 145.521 38.6017C145.594 38.5956 145.667 38.5956 145.74 38.6017C147.017 38.5374 148.301 38.5415 149.576 38.3847C150.626 38.2602 151.664 37.9427 152.708 37.7176C152.894 37.6775 153.082 37.6694 153.315 37.6413C153.294 38.1195 153.282 38.5214 153.252 38.9232C153.133 40.4784 153.473 41.9733 153.586 43.4963C153.664 44.5412 153.789 45.586 153.825 46.6348C153.868 47.8404 153.853 49.0781 153.825 50.2958C153.825 50.9267 153.734 51.5536 153.683 52.1885C152.687 52.4578 151.786 52.1885 150.881 52.0639C150.095 51.9353 149.306 51.8027 148.514 51.7304C147.958 51.6782 147.4 51.7304 146.841 51.7304C145.49 51.7586 144.138 51.6376 142.802 51.3687C141.962 51.2352 141.118 51.1641 140.273 51.1557C139.451 51.1236 138.625 51.1919 137.803 51.1356C136.719 51.0593 135.645 50.8624 134.561 50.7981C132.74 50.6896 130.937 50.6092 129.125 50.5891C127.99 50.5891 126.855 50.7579 125.723 50.7418C124.909 50.7418 124.096 50.5288 123.294 50.4203C123.102 50.3908 122.908 50.3774 122.715 50.3802C119.42 50.4418 116.128 50.5087 112.838 50.5811C112.286 50.5811 111.733 50.6936 111.184 50.7539C111.087 50.1632 110.723 50.3882 110.471 50.3882C106.379 50.3882 102.276 50.3641 98.1904 50.3882C97.0097 50.3882 95.829 50.5088 94.6483 50.5771H94.5755C93.1202 50.855 91.6507 50.9826 90.1805 50.9588C88.2198 50.9347 86.256 50.9588 84.2953 50.9588C84.04 50.9871 83.7871 51.0449 83.5395 51.1316C82.629 51.0714 81.7184 50.9468 80.7927 50.9588C78.3979 50.987 76.0031 51.1196 73.6084 51.1156C72.4307 51.1156 71.2531 50.8986 70.0785 50.778C70.0299 50.778 69.9813 50.778 69.9328 50.778C67.4894 50.7097 65.0461 50.6173 62.6028 50.5972C61.8136 50.5972 61.0215 50.786 60.2323 50.8664C60.0424 50.8625 59.8532 50.8329 59.6678 50.778C59.4222 50.6822 59.1701 50.619 58.915 50.5891C56.6751 50.5891 54.4321 50.5891 52.1921 50.5891C51.7856 50.5765 51.38 50.5296 50.978 50.4485C50.7595 50.4123 50.6563 50.5047 50.635 50.782C49.7245 50.782 48.8139 50.8061 47.9034 50.782C47.2963 50.782 46.7166 50.6695 46.1248 50.6092C45.9547 50.5126 45.7746 50.4503 45.5906 50.4244C45.111 50.4525 44.6345 50.5851 44.1549 50.5931C42.4613 50.6173 40.7677 50.6373 39.074 50.5931C37.3804 50.5489 35.6594 50.7137 33.9537 50.6132C31.9747 50.5007 29.9927 50.7177 28.0138 50.4364C27.0232 50.356 26.0299 50.356 25.0393 50.4364C24.8331 50.4689 24.6298 50.5281 24.4323 50.6132C23.5733 50.5007 22.7113 50.3882 21.8493 50.2837C21.6338 50.2556 21.4153 50.2355 21.1968 50.2355C19.0873 50.2355 16.9779 50.1993 14.8714 50.2355C14.0337 50.2355 13.196 50.4565 12.3583 50.565C11.7118 50.6494 11.0623 50.7016 10.4158 50.8021C9.36562 50.9669 8.32151 51.204 7.2683 51.3205C5.82963 51.4531 4.39095 51.8389 2.94013 51.4009C2.63354 51.3417 2.32422 51.3108 2.0144 51.3084L1.98101 49.2188Z" fill="#8B5327"/>
<path d="M2.12063 10.4517C3.6625 10.5642 5.20438 10.6807 6.74322 10.7852C7.07384 10.8073 7.4051 10.8073 7.73572 10.7852C8.26385 10.753 8.79197 10.6847 9.32313 10.6646C9.85428 10.6445 10.4219 10.6646 10.9712 10.6646C13.2264 10.6646 15.4815 10.6405 17.7397 10.6646C20.1102 10.6968 22.4807 10.8214 24.8511 10.8334C26.3687 10.8334 27.8863 10.6566 29.4039 10.6767C30.8274 10.7008 32.2449 10.9218 33.6532 10.9821C35.0615 11.0424 36.5427 11.0424 37.9844 11.0263C38.5914 11.0263 39.1985 10.8415 39.7873 10.8696C40.6038 10.9098 41.4142 11.0986 42.2154 11.179C44.3644 11.388 46.4374 12.1475 48.5499 12.6217C49.8748 12.9636 51.1848 13.3996 52.4744 13.9277C53.822 14.43 55.1514 15.0087 56.4869 15.5593C56.5253 15.5781 56.5604 15.607 56.5902 15.6443C56.6199 15.6816 56.6436 15.7265 56.6599 15.7763C51.4758 15.2217 46.3736 13.7911 41.1622 13.3651C41.2745 13.4254 41.3868 13.4977 41.5022 13.55C43.1776 14.3537 44.8409 15.1574 46.5345 15.9611C47.5118 16.4192 48.4983 16.8412 49.4817 17.2752C49.8914 17.456 50.3012 17.6489 50.717 17.8137C52.01 18.3321 53.3182 18.7982 54.596 19.3689C56.3807 20.1726 58.2382 20.5383 60.0593 21.0848C61.7954 21.6032 63.5255 22.1819 65.2616 22.6922C66.1054 22.9414 66.9735 23.0619 67.8142 23.3312C70.6764 24.2434 73.5264 25.2119 76.3856 26.116C77.0207 26.2997 77.6665 26.4113 78.316 26.4496C79.4724 26.55 80.6318 26.6425 81.7882 26.6344C82.713 26.6099 83.6348 26.4849 84.5442 26.2607C84.4434 26.1809 84.3338 26.1226 84.2194 26.0879C83.1571 26.0075 82.0948 26.0075 81.0355 25.8629C80.001 25.7871 78.9838 25.4786 78.0276 24.9506C77.1717 24.4202 76.1853 24.2233 75.2413 23.9862C73.2745 23.4839 71.3199 22.9615 69.3804 22.2904C67.0493 21.4866 64.691 20.8196 62.3448 20.0962C61.7042 19.9243 61.0794 19.6616 60.4812 19.3126C60.979 19.401 61.4767 19.4814 61.9745 19.5778C63.2129 19.8109 64.4482 20.052 65.6865 20.2891C67.1161 20.5664 68.5457 20.8276 69.9753 21.1169C71.0679 21.338 72.1576 21.5871 73.2502 21.8322C73.8178 21.9608 74.3975 22.0492 74.953 22.2341C76.2763 22.7043 77.6695 22.8047 78.9473 23.5562C79.4009 23.7717 79.877 23.8924 80.3586 23.9139C81.1721 24.0183 81.9946 24.0907 82.8141 24.1268C84.6747 24.2072 86.5352 24.2554 88.3988 24.3318C89.5067 24.376 90.6176 24.5086 91.7376 24.4966C92.5064 24.4518 93.2726 24.3471 94.0322 24.1831C94.8741 24.0661 95.725 24.1394 96.5483 24.4001C96.7523 24.4169 96.957 24.3925 97.1554 24.3278L97.5985 24.5126C97.295 24.6452 96.9915 24.7578 96.688 24.9145C96.5119 25.0298 96.3434 25.1642 96.1841 25.3163L96.433 25.686C96.34 25.7698 96.2375 25.8336 96.1295 25.8749C95.4071 25.9553 94.6847 25.9874 93.9654 26.0839C92.1928 26.317 90.4233 26.5782 88.6538 26.8354C87.288 27.0323 85.9221 27.2091 84.5624 27.4422C82.9416 27.7235 81.3269 28.057 79.7061 28.3584C79.5138 28.3945 79.3186 28.3945 79.1264 28.3584C78.1308 28.1414 77.1383 27.9003 76.1428 27.6712C74.3884 27.2694 72.6341 26.8675 70.8828 26.4375C70.1726 26.2647 69.4684 26.0357 68.7582 25.8347C67.5137 25.465 66.2723 25.0792 65.0249 24.7176C63.8503 24.372 62.6696 24.0706 61.498 23.7089C60.3264 23.3472 59.1184 22.9052 57.9256 22.5275C56.1682 21.9729 54.4169 21.358 52.6413 20.92C50.1464 20.2851 47.7456 19.2121 45.2962 18.3723C43.126 17.6248 40.9498 16.9135 38.7584 16.2786C37.8478 16.0134 36.8948 15.9973 35.963 15.8406C35.3923 15.7441 34.8248 15.5954 34.2542 15.4869C33.7813 15.3697 33.3024 15.2999 32.8215 15.278C31.6864 15.298 30.5543 15.4548 29.4191 15.4307C28.3871 15.4307 27.3552 15.2378 26.3232 15.1252C26.2291 15.1252 26.132 15.0851 26.0379 15.077C25.0727 15.0087 24.1014 15.0288 23.1454 14.86C21.5033 14.5667 19.8552 14.8038 18.2162 14.6752C13.0321 14.2733 7.84802 14.6069 2.66393 14.4943C2.47271 14.4943 2.28149 14.4662 2.05689 14.4501C1.77765 13.0999 2.15402 11.7778 2.12063 10.4517Z" fill="#8B5327"/>
<path d="M137.208 8.71563C138.561 7.78734 139.909 6.83495 141.275 5.94282C142.641 5.0507 144.079 4.18671 145.488 3.32673C145.662 3.21852 145.851 3.15447 146.043 3.13786C147.257 3.05347 148.471 2.98917 149.667 2.92086C150.778 2.85656 151.892 2.78825 153.006 2.74806C153.658 2.72395 153.689 2.74806 153.85 3.59598C154.01 4.4439 154.126 5.38424 154.275 6.35674C153.507 6.49337 152.818 6.6099 152.129 6.7385C150.675 7.00774 149.342 7.78734 147.977 8.43835C146.929 8.92537 145.863 9.34248 144.784 9.68813C143.258 10.2053 141.77 10.9048 140.34 11.7778C137.693 13.3651 135.068 15.0208 132.279 16.158C130.092 17.096 127.848 17.7764 125.571 18.1914C124.357 18.3923 123.143 18.7339 121.929 18.8706C121.157 18.8994 120.384 18.8443 119.619 18.7058C118.708 18.6053 117.798 18.4245 116.887 18.3642C115.345 18.2597 113.8 18.3039 112.265 18.1352C110.965 17.9799 109.674 17.7114 108.401 17.3314C103.936 16.0334 99.4773 14.7113 95.0307 13.3129C93.3158 12.7744 91.6283 12.0631 89.9559 11.3036C87.8313 10.3592 85.7066 9.37066 83.6002 8.28163C81.9551 7.42969 80.3617 6.40496 78.7439 5.42845C77.5996 4.73324 76.4675 3.99382 75.3354 3.26244C75.1144 3.10416 74.8997 2.93114 74.6919 2.74404L74.7405 2.53909C75.3475 2.53909 75.9758 2.49891 76.5889 2.53909C77.6482 2.62348 78.7136 2.78825 79.7637 2.88067C80.8139 2.9731 81.8884 2.98114 82.9537 3.10169C83.482 3.18529 84.0026 3.33877 84.5077 3.55981C88.0134 4.93416 91.4583 6.56168 94.8759 8.29771C98.2146 9.9855 101.535 11.6331 105.032 12.5775C107.287 13.1883 109.487 14.0563 111.685 14.9364C112.659 15.3382 113.618 15.8044 114.635 15.8687C116.059 16.0146 117.489 16.028 118.915 15.9089C121.95 15.5392 124.915 14.5385 127.859 13.4977C129.726 12.8347 131.568 12.047 133.423 11.3156C134.716 11.1187 135.851 10.3753 136.922 9.47113C137.022 9.39798 137.102 9.28668 137.153 9.15185C137.204 9.01703 137.223 8.86497 137.208 8.71563Z" fill="#B68457"/>
<path d="M3.274 17.6288L4.4122 18.9107C4.5761 19.0956 4.7491 19.2724 4.91603 19.4573C5.52307 20.1243 6.13011 20.8155 6.73715 21.4666C6.92332 21.5987 7.13319 21.6613 7.34418 21.6474C8.93766 21.7237 10.5342 21.7318 12.1276 21.8644C13.3721 21.9689 14.6104 22.2662 15.8579 22.3868C17.679 22.5516 19.4151 23.1905 21.1998 23.5401C21.8925 23.6628 22.5895 23.7393 23.288 23.7692C24.4454 23.8496 25.6039 23.9125 26.7633 23.9581C27.0274 23.9861 27.2926 23.9253 27.5342 23.7812C28.3113 23.2146 29.1186 23.3553 29.9381 23.4919C30.5816 23.6004 31.2311 23.6768 31.8776 23.7732C33.2161 23.9701 34.5637 24.0987 35.8689 24.5769C36.0205 24.6519 36.1676 24.7419 36.309 24.8462C34.7428 25.248 33.3193 25.5213 31.8503 25.1636C31.2711 25.0945 30.6889 25.0797 30.1081 25.1194C29.6255 25.0993 29.149 25.027 28.6664 24.9949C28.5251 24.9907 28.3844 25.0193 28.2505 25.0792C27.4371 25.4248 26.6298 25.686 25.7708 25.3525C25.5552 25.3047 25.3357 25.2953 25.1182 25.3244H17.5758C15.8882 25.3402 14.2038 25.5256 12.5374 25.8789C11.0866 26.1723 9.62968 26.4255 8.17886 26.6827C8.11816 26.6827 8.06656 26.763 7.9755 26.8354C8.05535 26.9791 8.16267 27.0921 8.28643 27.1627C8.41018 27.2333 8.54592 27.2591 8.67967 27.2372C10.3703 27.2975 12.0639 27.3417 13.7545 27.4422C14.5224 27.4904 15.2721 27.6592 16.0491 27.7677C16.2646 27.7958 16.4831 27.8119 16.7017 27.8159C17.163 27.8159 17.6122 27.8159 18.0827 27.8159C22.3319 27.8762 26.56 27.9003 30.7971 28.0369C31.8321 28.0691 32.858 27.9646 33.8899 27.9807C35.0221 28.0007 36.1603 27.7837 37.2893 27.84C38.5611 27.9003 39.8389 27.9083 41.0985 28.3182C41.6479 28.495 42.2549 28.3745 42.8346 28.3906C44.8894 28.4548 46.9503 28.4428 48.9991 28.6075C50.9052 28.7643 52.8052 28.9491 54.7113 28.9893C55.3855 29.0476 56.0546 29.182 56.7115 29.3912C57.7544 29.6582 58.8151 29.7834 59.8772 29.7649C60.724 29.7448 61.5739 29.7167 62.4207 29.7649C63.6499 29.8453 64.8731 29.998 66.0963 30.1185H66.3148L72.0453 30.3114C72.2152 30.3114 72.3852 30.3114 72.5552 30.3114C73.1227 30.3516 73.1835 30.4802 72.9983 31.2759C72.3913 31.3402 71.7994 31.4648 71.1984 31.4527C69.8478 31.4286 68.4911 31.3844 67.1434 31.2598C65.7048 31.1272 64.2691 30.8941 62.8304 30.7093C62.7363 30.7093 62.6392 30.7093 62.5421 30.7093C59.1275 30.6409 55.7099 30.7093 52.3044 30.4722C49.2996 30.2712 46.3008 30.3637 43.299 30.3355C41.5598 30.3355 39.8207 30.5003 38.0815 30.4963C36.1936 30.4963 34.3088 30.3918 32.4239 30.3114C31.3858 30.3131 30.3483 30.242 29.3159 30.0984C27.8651 29.8292 26.4112 30.0984 24.9695 29.9136C22.6931 29.6443 20.4167 29.8051 18.1464 29.7327C16.9627 29.6926 15.782 29.6323 14.6013 29.5399C13.4206 29.4474 12.2946 29.2947 11.1442 29.1742C11.0714 29.1742 10.9985 29.1742 10.9257 29.1742C9.74198 29.1059 8.5613 29.0616 7.38061 28.9692C5.98442 28.8621 4.58925 28.7281 3.19508 28.5674C2.77016 28.5232 2.34827 28.3905 1.95976 28.3102C1.95976 27.2935 1.97798 26.3009 1.95976 25.3284C1.93924 25.1223 1.9673 24.9129 2.0401 24.7288C2.1129 24.5446 2.22689 24.3947 2.36648 24.2996C2.40377 24.2607 2.44336 24.2258 2.48485 24.1952C3.77481 23.6165 3.83854 21.989 3.1192 20.3534C2.88253 19.7509 2.50289 19.268 2.03868 18.9791C1.97098 18.9451 1.90918 18.8933 1.85697 18.8269C1.80477 18.7604 1.76325 18.6807 1.7349 18.5925C1.70655 18.5043 1.69195 18.4094 1.692 18.3136C1.69205 18.2177 1.70673 18.1229 1.73516 18.0347C1.80193 17.6328 1.808 17.231 1.84443 16.805L2.4029 17.014C2.50265 17.1982 2.63313 17.3495 2.7842 17.4561C2.93528 17.5628 3.10288 17.6219 3.274 17.6288Z" fill="#8B5327"/>
<path d="M95.1309 6.61794C94.4783 6.3929 93.8136 6.21608 93.1732 5.9388C91.3521 5.13509 89.5583 4.33137 87.7524 3.49551C87.539 3.41017 87.3505 3.2405 87.2121 3.00927C87.4133 2.96989 87.6159 2.94441 87.8191 2.93291C89.0332 2.93291 90.2473 2.86861 91.4614 2.93291C93.24 3.04945 95.0004 3.24234 96.7304 3.98979C99.1404 5.02659 101.587 5.8745 104.063 6.6541C105.815 7.20465 107.612 7.52613 109.39 7.92397C110.674 8.2343 111.98 8.36094 113.284 8.30172C114.174 8.24144 115.057 8.08471 115.946 7.97219C116.113 7.9521 116.283 7.94005 116.453 7.94005C119.228 7.87956 121.989 7.41735 124.688 6.56168C126.026 6.15982 127.395 5.95487 128.74 5.5932C130.084 5.23153 131.471 4.78949 132.828 4.36352C133.788 4.05212 134.771 3.87832 135.76 3.84513C136.457 3.80763 137.148 3.67293 137.824 3.44327C138.671 3.18032 139.541 3.07616 140.41 3.13384C140.225 3.72859 139.782 3.87326 139.402 4.08624C138.337 4.68903 137.25 5.22752 136.182 5.8303C134.385 6.83896 132.612 7.94005 130.794 8.88441C129.484 9.56048 128.145 10.1361 126.785 10.6084C125.44 11.0826 124.053 11.4121 122.69 11.7456C121.397 12.1206 120.087 12.389 118.769 12.5493C117.442 12.7154 116.106 12.6722 114.787 12.4208C113.415 12.0912 112.013 11.9546 110.656 11.5527C107.247 10.5441 103.857 9.43897 100.461 8.362C98.6881 7.7793 96.9095 7.1926 95.1309 6.61794Z" fill="#A76633"/>
<path d="M133.738 3.04945C132.339 3.60803 130.97 4.23493 129.571 4.69707C128.503 5.0507 127.392 5.18733 126.302 5.4405C125.522 5.62536 124.742 5.84236 123.965 6.05132C122.77 6.44375 121.551 6.69788 120.323 6.81083C118.975 6.87111 117.634 7.11625 116.286 7.1484C115.445 7.10766 114.607 6.99896 113.776 6.82289C113.272 6.75055 112.771 6.66617 112.258 6.60187C109.894 6.31824 107.547 5.81603 105.235 5.09892C103.247 4.45595 101.241 3.89335 99.2436 3.30664C99.0255 3.25215 98.8222 3.12177 98.6548 2.92889C99.8688 2.79628 101.083 2.70787 102.297 2.52704C103.773 2.25736 105.263 2.13646 106.753 2.16537C107.308 2.18948 107.864 2.39443 108.407 2.33013C110.68 2.06088 112.96 2.18144 115.23 2.16537C115.614 2.18767 115.997 2.23596 116.377 2.31003C116.448 2.32647 116.52 2.3372 116.593 2.34218C117.57 2.28191 118.547 2.16938 119.522 2.18144C120.366 2.17855 121.208 2.26861 122.041 2.45069C124.369 3.02509 126.738 3.2462 129.104 3.10973C130.184 3.02936 131.262 2.8646 132.342 2.74404C132.82 2.64715 133.309 2.75411 133.738 3.04945Z" fill="#8B5327"/>
<path d="M95.1309 6.61794C96.9095 7.1926 98.6881 7.77931 100.47 8.34191C103.866 9.41889 107.256 10.524 110.665 11.5326C112.022 11.9345 113.424 12.0711 114.796 12.4007C116.115 12.6521 117.451 12.6953 118.778 12.5293C120.096 12.3689 121.406 12.1005 122.699 11.7255C124.071 11.392 125.449 11.0625 126.794 10.5883C128.148 10.1191 129.481 9.54748 130.785 8.87637C132.606 7.93201 134.376 6.83093 136.173 5.82226C137.241 5.21948 138.328 4.68099 139.393 4.0782C139.772 3.86522 140.216 3.72055 140.401 3.1258L142.811 3.37897L142.844 3.54373C142.671 3.68037 142.504 3.83307 142.325 3.94559C140.58 5.04266 138.819 6.09151 137.092 7.24082C134.583 8.97578 131.963 10.412 129.262 11.5326C127.85 12.0832 126.436 12.6257 125.012 13.0798C123.021 13.7107 121.021 14.2854 119.015 14.8239C117.728 15.1695 116.411 15.0047 115.105 15.073C112.902 15.1896 110.935 14.2693 109.035 12.9271C108.406 12.5219 107.747 12.2028 107.068 11.9747C104.585 11.0464 102.081 10.2105 99.6624 8.98488C98.333 8.30976 96.9793 7.71501 95.6438 7.064C95.4587 6.94593 95.2863 6.79594 95.1309 6.61794Z" fill="#8B5327"/>
<path d="M56.5597 40.3578C55.8343 40.5467 55.112 40.7597 54.3835 40.9164C53.3121 41.1334 52.2346 41.2902 51.1601 41.475H51.0175C50.0037 41.5433 48.99 41.6358 47.9823 41.6759C45.7575 41.7563 43.5327 41.8045 41.3049 41.8809C39.7873 41.9331 38.2697 41.9733 36.7369 42.0778C35.248 42.2258 33.7677 42.5009 32.3056 42.9016C31.6442 43.0765 30.9733 43.18 30.2993 43.211C28.724 43.2552 27.1457 43.1749 25.5705 43.2351C23.7129 43.3035 21.8554 43.4722 20.0009 43.5968H19.8552C17.9916 43.6611 16.131 43.7656 14.2674 43.7736C13.0109 43.7736 11.7543 43.6973 10.5008 43.5848C8.79501 43.428 7.08923 43.2231 5.38649 43.0101C4.45469 42.8895 3.52895 42.7167 2.59715 42.4837C3.41748 42.4367 4.23909 42.4461 5.05869 42.5118C5.67509 42.6565 6.30589 42.6565 6.92229 42.5118C7.16235 42.4648 7.40539 42.4499 7.6477 42.4676C9.92409 42.3993 12.2005 42.3631 14.4708 42.2546C15.9641 42.1823 17.4574 42.0095 18.9507 41.8769C19.6003 41.8206 20.2468 41.7443 20.8963 41.692C21.0966 41.692 21.2939 41.692 21.3637 41.3665L22.7994 41.3143C22.9721 41.3934 23.1515 41.4447 23.3335 41.467C23.8131 41.4388 24.2927 41.3223 24.7692 41.3183C26.7785 41.2982 28.7847 41.3183 30.794 41.2982C31.4193 41.2998 32.0427 41.2054 32.6516 41.0169C34.4068 40.4517 36.2054 40.1564 38.0117 40.1368C38.8767 40.1127 39.7418 40.0203 40.6068 39.9399C40.6918 39.9399 40.7737 39.8314 40.8557 39.7711L41.9969 39.8073C42.1426 40.2775 42.3581 40.2092 42.6039 39.952L46.9473 40.2011C47.3055 40.603 47.6606 40.6472 48.2798 40.3498H51.1753C51.2421 40.4583 51.3089 40.5628 51.3726 40.6713L51.6427 40.3538H53.5124C53.5497 40.4122 53.5962 40.4592 53.6486 40.4913C53.7011 40.5235 53.7581 40.5402 53.8159 40.5402C53.8737 40.5402 53.9308 40.5235 53.9832 40.4913C54.0356 40.4592 54.0821 40.4122 54.1194 40.3538L56.5597 40.3578Z" fill="#B68457"/>
<path d="M134.009 32.2484C134.382 32.6141 134.801 32.4091 135.198 32.393C135.596 32.377 135.915 32.2926 136.273 32.2484C137.329 32.1278 138.397 31.9791 139.442 31.8988C140.216 31.8425 140.993 31.8988 141.77 31.8586C143.46 31.8023 145.154 31.7581 146.844 31.6496C147.709 31.5974 148.568 31.4165 149.43 31.3C149.589 31.269 149.751 31.3225 149.88 31.4487C148.772 31.7782 147.667 32.1158 146.541 32.4292C145.67 32.6703 144.796 32.8994 143.915 33.1003C142.565 33.4138 141.214 33.7352 139.857 33.9764C139.044 34.121 138.221 34.1331 137.402 34.1773C135.975 34.2577 134.552 34.3099 133.125 34.3782C131.772 34.4372 130.419 34.5001 129.067 34.5671C127.908 34.6274 126.751 34.7479 125.592 34.7399C124.822 34.7082 124.055 34.6021 123.297 34.4224C122.721 34.312 122.133 34.378 121.58 34.6153C120.046 35.1777 118.476 35.5517 116.89 35.7325C115.816 35.8892 114.744 36.1343 113.667 36.275C112.422 36.4438 111.169 36.5402 109.921 36.6768C109.202 36.7652 108.489 36.9179 107.769 37.0184C107.123 37.1108 106.473 37.1912 105.824 37.2354C104.57 37.3198 103.311 37.352 102.057 37.4524C101.098 37.5288 100.139 37.6855 99.1798 37.79C98.8913 37.8247 98.6005 37.7837 98.3239 37.6694C99.3073 37.4042 100.288 37.1149 101.274 36.8657C102.488 36.5683 103.702 36.3031 104.916 36.062C105.827 35.8651 106.774 35.6963 107.703 35.5235C108.704 35.3387 109.703 35.1498 110.707 34.981C111.618 34.8283 112.529 34.7118 113.439 34.551C114.632 34.338 115.822 34.0929 117.015 33.8638C117.822 33.7071 118.638 33.5866 119.443 33.3896C120.15 33.2128 120.848 32.9556 121.549 32.7226C121.598 32.7226 121.619 32.5658 121.655 32.4814H122.93C123.03 32.598 123.118 32.7949 123.234 32.819C123.986 32.9717 124.751 33.1284 125.504 33.2008C125.885 33.1772 126.264 33.1222 126.639 33.036C127.644 32.9556 128.648 32.8954 129.653 32.8351C129.853 32.8351 130.042 32.811 130.099 32.4855L132.118 32.4453C132.361 32.7025 132.576 32.7668 132.725 32.3087L134.009 32.2484Z" fill="#B68457"/>
<path d="M51.6063 31.4969C51.6518 31.8304 51.84 31.8505 52.0434 31.8586C53.2757 31.9229 54.508 31.9711 55.7372 32.0635C56.9179 32.1559 58.0925 32.3167 59.2702 32.4172C59.8013 32.4614 60.3355 32.4372 60.8697 32.4453C61.1355 32.4247 61.4018 32.4682 61.6558 32.5739C61.5689 32.6004 61.4806 32.6192 61.3918 32.6301L52.532 32.823C51.925 32.823 51.318 32.7909 50.7109 32.823C49.4969 32.9155 48.2585 33.0561 47.0323 33.1726C46.838 33.1726 46.6438 33.1726 46.4526 33.1726C44.7043 33.1726 42.9591 33.1365 41.2138 33.1726C40.3731 33.1968 39.5384 33.3937 38.6977 33.4941C38.4092 33.533 38.1189 33.5397 37.8296 33.5142C36.8705 33.4097 35.9114 33.2972 34.9522 33.1525C32.4148 32.7708 29.8713 33.0923 27.3309 32.9597C25.7162 32.8753 24.1015 32.7226 22.4898 32.59C21.7917 32.5337 21.0936 32.4533 20.3955 32.3971C19.4849 32.3247 18.5744 32.2685 17.6486 32.1881C17.2419 32.1519 16.8352 32.0595 16.4346 32.0032L12.1216 31.4487C11.0896 31.3161 10.0576 31.1835 9.02871 31.0468C7.83285 30.874 6.64002 30.6651 5.44112 30.5083C4.62466 30.3998 3.80516 30.3476 2.98565 30.2833C2.70338 30.2592 2.41808 30.2833 2.13277 30.2833V30.0864H3.85979C4.49111 30.0864 5.11939 30.0864 5.75071 30.0864C5.95716 30.0514 6.16049 29.9895 6.35775 29.9015L10.9105 30.2632C11.8484 30.3355 12.7893 30.4199 13.7272 30.4561C16.2646 30.5566 18.799 30.6289 21.3334 30.7133C21.4305 30.7133 21.5276 30.7334 21.6369 30.7414C21.9404 31.2518 22.3077 31.1433 22.6779 30.874H24.7024C24.7783 31.3321 25.0545 31.2317 25.2852 31.2317C26.3718 31.2317 27.4584 31.2317 28.548 31.2317C28.7318 31.2013 28.9121 31.142 29.0852 31.0549L35.617 31.2678C35.6716 31.3683 35.7141 31.5451 35.7778 31.5572C36.554 31.769 37.3397 31.914 38.1301 31.9912C39.068 32.0274 40.0089 31.8586 40.9498 31.8304C43.5358 31.7461 46.1096 31.6938 48.7077 31.6134C48.963 31.5809 49.2157 31.5204 49.4635 31.4326L51.6063 31.4969Z" fill="#B68457"/>
<path d="M82.9294 16.2103C82.8566 15.7481 82.5288 15.7883 82.2981 15.6838C81.0446 15.1052 79.782 14.5546 78.5193 14.0041C76.2733 13.0262 74.0262 12.0551 71.7782 11.0906L68.7187 9.7685V9.55551C68.9397 9.51223 69.1631 9.49475 69.3864 9.50328C70.2264 9.59035 71.0623 9.73656 71.8905 9.9413C73.6296 10.4597 75.3597 11.0464 77.0867 11.6492C78.6225 12.1877 80.1492 12.7664 81.6698 13.3691C83.0326 13.9076 84.3863 14.4903 85.737 15.0891C86.514 15.4307 87.2546 15.8928 88.0407 16.2143C89.4976 16.7809 90.9545 17.3797 92.4417 17.7534C94.9858 18.3294 97.4916 19.1706 99.9356 20.269C100.215 20.3844 100.471 20.5838 100.682 20.8517C100.027 20.7231 99.371 20.5784 98.7124 20.4499C97.5439 20.2529 96.3662 20.1243 95.2037 19.8712C93.5192 19.4975 91.8438 19.0675 90.1684 18.6174C89.4854 18.4366 88.8086 18.2155 88.1257 18.0066C87.4428 17.7976 86.6991 17.4681 85.9798 17.227C85.2605 16.9858 84.6231 16.8251 83.9493 16.6001C83.6032 16.5036 83.2694 16.3509 82.9294 16.2103Z" fill="#B68457"/>
<path d="M153.382 17.0059C151.955 17.6204 150.583 18.444 149.294 19.4613C147.861 20.5222 146.501 21.7639 145.045 22.7766C143.964 23.4907 142.849 24.107 141.706 24.6211C140.738 25.0962 139.748 25.4921 138.743 25.8066C137.408 26.2085 136.054 26.5219 134.704 26.8474C133.875 27.0443 133.04 27.197 132.209 27.3497C131.602 27.4582 131.013 27.5667 130.412 27.6069C128.915 27.7007 127.417 27.7677 125.92 27.8079C125.064 27.832 124.97 27.5828 125.392 26.5661C125.443 26.4613 125.502 26.3631 125.568 26.2728C125.568 26.4857 125.595 26.7027 125.613 26.9921L129.89 26.1321C130.955 25.9191 132.014 25.7303 133.083 25.4891C133.213 25.457 133.323 25.2601 133.444 25.1395H133.72C133.972 25.3927 134.194 25.461 134.327 24.9627H134.604C134.774 25.0386 134.952 25.0753 135.132 25.0712C135.672 24.9306 136.206 24.7417 136.74 24.5528C137.742 24.2032 138.753 23.9018 139.733 23.4678C141.927 22.5033 143.982 21.0968 146.128 19.9475C147.779 19.0634 149.467 18.2638 151.145 17.5083C151.885 17.2309 152.636 17.0108 153.394 16.8492L153.382 17.0059Z" fill="#B68457"/>
<path d="M83.5061 51.1437C83.7537 51.0569 84.0066 50.9991 84.2619 50.9709C86.2226 50.9709 88.1864 50.9428 90.1471 50.9709C91.6174 50.9947 93.0868 50.867 94.5421 50.5891H94.6119C95.7926 50.5208 96.9733 50.4083 98.1539 50.4002C102.248 50.3761 106.349 50.4002 110.434 50.4002C110.686 50.4002 111.041 50.1752 111.148 50.7659L107.909 51.1276C107.26 51.1999 106.613 51.3205 105.963 51.3366C102.822 51.425 99.6776 51.5094 96.5362 51.5415C93.3948 51.5737 90.3353 51.5817 87.2364 51.5214C85.995 51.4933 84.7505 51.2763 83.5061 51.1437Z" fill="#A76633"/>
<path d="M40.8496 39.7792C40.7677 39.8395 40.6857 39.9439 40.6007 39.948C39.7357 40.0283 38.8707 40.1208 38.0056 40.1449C36.1993 40.1644 34.4007 40.4597 32.6455 41.0249C32.0366 41.2134 31.4133 41.3078 30.788 41.3062C28.7787 41.3384 26.7724 41.3062 24.7631 41.3263C24.2866 41.3263 23.807 41.4469 23.3275 41.475C23.1454 41.4527 22.9661 41.4014 22.7933 41.3223C23.3427 41.1334 23.892 40.9204 24.4475 40.7637C25.5067 40.4664 26.5721 40.1891 27.6344 39.9198C28.1534 39.7912 28.6755 39.6747 29.2006 39.5943C31.5727 39.2155 33.9636 39.0811 36.3515 39.1925C37.7719 39.2648 39.1863 39.4416 40.6007 39.5943C40.6887 39.6104 40.7677 39.7189 40.8496 39.7792Z" fill="#A76633"/>
<path d="M153.382 16.809C152.623 16.9707 151.872 17.1907 151.133 17.4681C149.446 18.2236 147.767 19.0233 146.116 19.9074C143.976 21.0567 141.915 22.4632 139.721 23.4276C138.74 23.8616 137.73 24.163 136.728 24.5126C136.194 24.7015 135.66 24.8904 135.119 25.031C134.94 25.0351 134.761 24.9984 134.591 24.9225C134.931 24.7899 135.268 24.6412 135.614 24.5207C137.905 23.724 140.14 22.6644 142.292 21.354C143.154 20.8557 144.046 20.4378 144.938 20.056C145.864 19.6605 146.704 18.9786 147.391 18.0668C148.038 17.1518 148.812 16.4097 149.67 15.8807C150.563 15.3865 151.443 14.856 152.317 14.3055C152.634 14.074 152.938 13.8135 153.227 13.5259C153.227 13.7469 153.227 13.984 153.227 14.213C153.276 15.0891 153.331 15.9491 153.382 16.809Z" fill="#A76633"/>
<path d="M24.3989 50.569C24.5964 50.4839 24.7997 50.4247 25.0059 50.3922C25.9965 50.3118 26.9899 50.3118 27.9804 50.3922C29.9594 50.6735 31.9413 50.4565 33.9203 50.569C35.6261 50.6695 37.3318 50.5047 39.0406 50.5489C40.7495 50.5931 42.4279 50.5731 44.1215 50.5489C44.6011 50.5489 45.0776 50.4083 45.5572 50.3802C45.7412 50.4061 45.9213 50.4684 46.0914 50.565C45.7357 50.7334 45.3673 50.8506 44.9926 50.9146C41.5598 51.007 38.127 51.0593 34.6943 51.1437C34.1176 51.1437 33.5439 51.2884 32.9672 51.3205C31.8347 51.3207 30.7036 51.2119 29.583 50.995C28.6239 50.8704 27.6465 50.995 26.6814 50.9307C25.9226 50.9106 25.1638 50.7016 24.3989 50.569Z" fill="#A76633"/>
<path d="M49.4362 31.4768C49.1884 31.5646 48.9357 31.6251 48.6804 31.6576C46.0944 31.738 43.5206 31.7903 40.9225 31.8746C39.9815 31.9028 39.0406 32.0716 38.1028 32.0354C37.3124 31.9582 36.5267 31.8132 35.7505 31.6014C35.6868 31.6014 35.6443 31.4125 35.5896 31.312C36.5518 31.3603 37.5139 31.4125 38.4731 31.4527C39.0285 31.4527 39.587 31.4808 40.1424 31.4527C42.9894 31.4005 45.8334 31.3321 48.6804 31.2879C48.9362 31.3195 49.1893 31.3827 49.4362 31.4768Z" fill="#A76633"/>
<path d="M50.6017 50.7619C50.6229 50.4846 50.7261 50.3922 50.9446 50.4284C51.3467 50.5095 51.7522 50.5564 52.1587 50.569C54.3987 50.569 56.6417 50.569 58.8817 50.569C59.1367 50.5989 59.3888 50.6621 59.6344 50.7579C59.5582 50.8307 59.4729 50.8851 59.3825 50.9186C58.5144 51.003 57.6463 51.0593 56.7813 51.1437C56.3017 51.1879 55.8222 51.2924 55.3426 51.3165C53.9131 51.3969 52.5138 51.0271 51.0934 50.8061C50.9386 50.7941 50.7686 50.782 50.6017 50.7619Z" fill="#A76633"/>
<path d="M130.096 32.4774C130.039 32.8029 129.85 32.815 129.65 32.827C128.645 32.8873 127.641 32.9476 126.636 33.028C126.261 33.1142 125.882 33.1692 125.501 33.1927C124.739 33.1204 123.983 32.9637 123.231 32.811C123.118 32.7869 123.03 32.59 122.927 32.4734L130.096 32.4774Z" fill="#A76633"/>
<path d="M153.534 8.34994L150.569 8.32182C150.972 8.13696 151.376 7.91996 151.783 7.76323C152.417 7.48595 153.054 7.22073 153.692 6.95952C153.844 6.89522 153.995 6.847 154.19 6.77466C154.36 7.65071 153.853 7.91192 153.534 8.34994Z" fill="#B37F50"/>
<path d="M96.4512 25.682L96.2023 25.3123C96.3616 25.1602 96.5301 25.0258 96.7062 24.9105C97.0097 24.7537 97.3132 24.6412 97.6167 24.5086L100.512 24.7256C100.494 25.0873 100.294 25.0632 100.099 25.0953C99.796 25.1435 99.5107 25.2279 99.2163 25.2962H98.4969C98.218 25.2701 97.9381 25.2701 97.6592 25.2962C97.5348 25.3204 97.4285 25.5213 97.3132 25.6459L96.4512 25.682Z" fill="#A76633"/>
<path d="M137.208 8.71563C137.23 8.87506 137.212 9.03966 137.157 9.18462C137.103 9.32959 137.014 9.44706 136.904 9.51935C135.824 10.4235 134.698 11.167 133.405 11.3639C133.495 11.2343 133.597 11.1196 133.708 11.0223C134.515 10.516 135.329 10.0377 136.136 9.51935C136.516 9.2702 136.856 8.97684 137.208 8.71563Z" fill="#8B5327"/>
<path d="M29.0518 31.0991C28.8787 31.1862 28.6984 31.2456 28.5146 31.2759C27.425 31.2759 26.3384 31.2759 25.2518 31.2759C25.0211 31.2759 24.7449 31.3763 24.669 30.9182C25.9742 30.9182 27.2823 30.9182 28.5875 30.9182C28.7476 30.9509 28.9038 31.0117 29.0518 31.0991Z" fill="#A76633"/>
<path d="M100.986 24.7417H103.745C103.459 24.8567 103.168 24.9506 102.874 25.023C102.245 25.1435 101.611 25.2239 100.983 25.3204C100.986 25.1114 100.986 24.9265 100.986 24.7417Z" fill="#A76633"/>
<path d="M100.986 24.7417C100.986 24.9265 100.986 25.1114 100.986 25.3003C100.534 25.3646 100.075 25.4449 99.626 25.4851C99.489 25.4597 99.3565 25.4025 99.2345 25.3163C99.538 25.248 99.8203 25.1636 100.118 25.1154C100.312 25.0833 100.512 25.1154 100.53 24.7457L100.986 24.7417Z" fill="#8B5327"/>
<path d="M74.4734 31.2719C75.1235 30.9749 75.8191 30.8962 76.4979 31.0428L74.4643 31.4648L74.4734 31.2719Z" fill="#8B5327"/>
<path d="M48.2706 40.3578C47.6636 40.6552 47.2963 40.615 46.9382 40.2092C47.3874 40.1931 47.8457 40.0082 48.2706 40.3578Z" fill="#A76633"/>
<path d="M97.3162 25.674C97.4316 25.5494 97.5378 25.3485 97.6622 25.3244C97.9411 25.2983 98.2211 25.2983 98.5 25.3244C98.3876 25.4449 98.2814 25.6459 98.157 25.666C97.8773 25.6968 97.5962 25.6995 97.3162 25.674Z" fill="#8B5327"/>
<path d="M22.6506 30.9022C22.2803 31.1674 21.9222 31.2799 21.6096 30.7695L22.6506 30.9022Z" fill="#A76633"/>
<path d="M134.315 24.9426C134.191 25.4409 133.969 25.3726 133.708 25.1194L134.315 24.9426Z" fill="#A76633"/>
<path d="M132.722 32.3006C132.573 32.7587 132.357 32.7025 132.115 32.4372L132.722 32.3006Z" fill="#A76633"/>
<path d="M42.5948 39.96C42.352 40.2172 42.1365 40.2855 41.9878 39.8153L42.5948 39.96Z" fill="#A76633"/>
<path d="M51.6336 40.382L51.3635 40.6994C51.2998 40.5909 51.233 40.4864 51.1662 40.3779L51.6336 40.382Z" fill="#A76633"/>
<path d="M54.0982 40.3739C54.0609 40.4323 54.0144 40.4792 53.962 40.5114C53.9096 40.5436 53.8525 40.5603 53.7947 40.5603C53.7369 40.5603 53.6798 40.5436 53.6274 40.5114C53.575 40.4792 53.5285 40.4323 53.4912 40.3739H54.0982Z" fill="#A76633"/>
<path d="M150.459 8.31378L150.32 8.34191C150.365 8.32667 150.412 8.31724 150.459 8.31378Z" fill="#B37F50"/>
<path d="M3.274 17.6288C3.10262 17.6229 2.93458 17.5648 2.78296 17.4588C2.63134 17.3529 2.50024 17.202 2.39987 17.018C2.45596 16.8746 2.54494 16.7585 2.65401 16.6863C2.76307 16.6141 2.88663 16.5896 3.0069 16.6161C4.40612 16.6804 5.80838 16.7769 7.2076 16.7889C8.34276 16.7889 9.47792 16.6965 10.6131 16.6483C10.8073 16.6483 10.9986 16.6282 11.1928 16.6282C12.6497 16.6282 14.1035 16.6282 15.5574 16.6282C15.9914 16.6282 16.4194 16.5076 16.8534 16.4875C17.2875 16.4675 17.6729 16.4875 18.0827 16.5277C18.2225 16.5718 18.3645 16.6027 18.5076 16.6202C19.9766 16.4313 21.4426 16.6804 22.9117 16.6724C24.065 16.6724 25.2184 16.8854 26.3718 17.0059C26.5144 17.0059 26.6601 17.0059 26.8058 17.0059C27.8681 17.0743 28.9304 17.1345 29.9897 17.2109C30.1595 17.2128 30.3259 17.2738 30.4723 17.3877C31.1461 18.0106 31.8837 17.878 32.6273 17.7655C33.1748 17.645 33.7297 17.5938 34.2845 17.6127C35.4106 17.7293 36.5305 17.9583 37.6536 18.1311C38.5641 18.2758 39.4747 18.3401 40.3852 18.5611C41.4324 18.7689 42.4628 19.1052 43.4629 19.5658C45.6877 20.7312 47.867 22.0452 50.0644 23.3071C50.2739 23.4316 50.4681 23.6084 50.6715 23.7571L50.6138 23.95C50.2405 23.7973 49.858 23.6727 49.4938 23.4879C47.2111 22.3422 44.8676 21.4208 42.4825 20.7312C40.8648 20.2449 39.2197 19.8913 37.5807 19.5457C36.5821 19.3367 35.5623 19.3086 34.5637 19.1036C33.7056 18.9328 32.8329 18.9328 31.9747 19.1036C31.4921 19.192 30.9762 18.9871 30.4753 18.9027C30.3141 18.8455 30.1497 18.8051 29.9836 18.7822C28.4661 18.8223 26.9485 18.959 25.4157 18.9188C23.6796 18.8746 21.9465 18.6737 20.2134 18.5491C19.321 18.4808 18.4287 18.3843 17.5363 18.3723C14.9898 18.3481 12.4433 18.4044 9.89678 18.3441C8.52487 18.312 7.16511 18.1311 5.7841 17.9865C4.94639 17.8941 4.11171 17.7494 3.274 17.6288Z" fill="#B68457"/>
<path d="M119.646 43.5968C119.418 43.5968 119.191 43.6249 118.963 43.6249C117.506 43.6249 116.052 43.6048 114.596 43.6249C112.395 43.6732 110.185 43.6249 107.994 43.85C105.475 44.1072 102.959 43.9424 100.442 43.9866C99.3073 44.0067 98.1721 43.8259 97.04 43.8339C95.6135 43.8339 94.1869 43.9183 92.7634 44.0188C91.4887 44.1112 90.2048 44.1715 88.9452 44.4206C85.8675 45.0194 82.7746 45.0234 79.6818 44.9551C78.5497 44.927 77.4236 44.726 76.2945 44.6095C75.5721 44.5331 74.8528 44.4608 74.1304 44.4045C73.0924 44.3242 72.0544 44.28 71.0194 44.1916C70.1817 44.1219 69.3439 44.0094 68.5062 43.854C68.7187 43.854 68.9312 43.8178 69.1436 43.8178C70.2575 43.8178 71.3745 43.8178 72.4823 43.8178C74.7344 43.7669 76.9845 43.7013 79.2326 43.6209C80.3192 43.5807 81.4058 43.5325 82.4893 43.424C83.9068 43.2793 85.3181 43.0744 86.7386 42.8815C88.1591 42.6886 89.5674 42.5078 90.9879 42.2667C92.809 41.9532 94.6483 41.9331 96.4846 41.8648C97.5924 41.8246 98.6942 41.9532 99.802 41.905C100.914 41.8309 102.029 41.8309 103.141 41.905C105.432 42.1019 107.724 42.2667 110.022 42.2868C111.035 42.2724 112.049 42.3409 113.057 42.4917C114.155 42.6806 115.266 42.6123 116.362 42.9579C117.151 43.207 117.992 43.1628 118.808 43.2351C119.088 43.2592 119.37 43.2351 119.652 43.2351L119.646 43.5968Z" fill="#B68457"/>
<path d="M119.006 27.3819C118.824 27.3819 118.644 27.4221 118.465 27.4221C117.421 27.4221 116.38 27.4221 115.336 27.4221C113.722 27.4869 112.115 27.7194 110.528 28.1173C108.513 28.5794 106.504 29.0978 104.482 29.5077C103.596 29.6491 102.704 29.7242 101.811 29.7328C100.312 29.8091 98.8126 29.8252 97.3193 29.9457C96.6492 30.0487 95.9836 30.1976 95.3251 30.3918C93.9229 30.6932 92.5267 31.0147 91.1184 31.2719C89.5704 31.5572 88.0164 31.7943 86.4624 32.0233C85.7188 32.1318 84.9721 32.16 84.2255 32.2444C83.3392 32.3488 82.4529 32.4815 81.5666 32.594C81.3754 32.6181 81.1812 32.6221 80.9869 32.6221C79.873 32.6221 78.7561 32.6502 77.6482 32.6221C76.9319 32.598 76.2156 32.4895 75.3384 32.4011C76.6405 32.1359 77.7666 31.9148 78.9048 31.6657C79.8548 31.4607 80.7987 31.2035 81.7487 30.9986C82.8869 30.7575 84.0312 30.5405 85.1755 30.3195C86.7204 30.0181 88.2683 29.7287 89.8163 29.4233C91.1973 29.146 92.5783 28.8808 93.9532 28.5633C94.712 28.3865 95.4526 28.0892 96.2084 27.8922C97.7119 27.5437 99.246 27.4909 100.761 27.7355C101.071 27.7296 101.381 27.692 101.687 27.623C102.698 27.5467 103.711 27.4944 104.722 27.4181C106.407 27.2935 108.1 27.2493 109.776 27.0162C111.712 26.7349 113.646 26.8715 115.579 26.8836C116.726 26.8836 117.87 27.1528 119.018 27.2854L119.006 27.3819Z" fill="#B68457"/>
<path d="M69.2104 28.4629C64.1143 28.1494 59.0729 27.4824 54.1711 24.8663C54.3441 24.7256 54.4746 24.5408 54.5717 24.5528C55.3422 24.5746 56.1103 24.674 56.8693 24.8502C58.9393 25.469 60.985 26.2326 63.0581 26.8595C64.8185 27.3779 66.6032 27.7677 68.3757 28.2218C68.655 28.282 68.9312 28.3785 69.2104 28.4629Z" fill="#B68457"/>
<path d="M121.091 43.5888H122.751C121.825 43.2753 121.737 43.2954 121.091 43.5888Z" fill="#B68457"/>
<path d="M120.287 43.3276L120.408 43.3919C120.39 43.4481 120.381 43.5285 120.353 43.5446C120.326 43.5606 120.274 43.5084 120.235 43.4843L120.287 43.3276Z" fill="#B68457"/>
<path d="M51.0843 24.0585L51.0387 24.0987L51.0023 24.0103C51.0205 24.0103 51.0418 24.0103 51.0569 24.0103C51.0721 24.0103 51.0752 24.0384 51.0843 24.0585Z" fill="#B68457"/>
<path d="M125.571 26.2728L125.604 26.1884L125.568 26.2687L125.571 26.2728Z" fill="#B68457"/>
<path d="M66.9279 7.71099C66.4514 7.57436 65.9779 7.39353 65.4953 7.30914C64.4482 7.11223 63.398 6.95148 62.3448 6.79476C61.4342 6.66215 60.5237 6.55365 59.6131 6.44515C58.8695 6.36076 58.1229 6.3045 57.3792 6.21207C56.5142 6.10759 55.6553 5.96292 54.7933 5.86647C54.3349 5.81825 53.8827 5.86647 53.4123 5.82227C52.8841 5.77002 52.359 5.66956 51.834 5.56909C51.749 5.56909 51.6731 5.45256 51.5486 5.35611C52.5341 4.97883 53.5586 4.81064 54.5838 4.85781C54.945 4.88192 55.3092 4.85781 55.6735 4.85781C57.0966 4.79095 58.5212 4.92566 59.9227 5.25966C61.416 5.60928 62.9094 5.97497 64.3875 6.413C65.1857 6.65009 65.9536 7.05195 66.7337 7.38951C66.8148 7.43946 66.8896 7.5059 66.9553 7.58642L66.9279 7.71099Z" fill="#B68457"/>
<path d="M67.365 7.80342V7.87173C67.344 7.87725 67.3223 7.87725 67.3013 7.87173C67.3013 7.87173 67.3013 7.82753 67.2861 7.80744L67.365 7.80342Z" fill="#B68457"/>
<path d="M101.171 20.9803C101.144 20.9941 101.115 21.0035 101.086 21.0084C101.086 21.0084 101.086 20.9642 101.071 20.9401L101.171 20.9803Z" fill="#B68457"/>
</svg>
