<svg width="1785" height="112" viewBox="0 0 1785 112" fill="none" xmlns="http://www.w3.org/2000/svg">
<path d="M9.43535 86.9724C1.89904 86.5557 1.34337 85.2221 0.926619 83.7218C-0.630797 77.2722 -0.224572 70.8039 2.14212 64.3684C2.62833 62.8265 4.05228 61.1928 0.822435 59.6759C0.528636 59.5645 0.417242 59.4308 0.509829 59.3008C4.60791 57.1255 1.23918 54.8334 2.38525 52.633C2.83674 51.7995 3.21877 50.916 4.01755 50.0742C4.41346 49.5802 5.34393 49.12 6.71553 48.7396C8.08712 48.3592 9.85157 48.0721 11.8317 47.9072L30.7593 46.1819C30.2036 44.2232 24.9942 43.223 18.6039 42.4729C16.7553 42.3281 14.8775 42.2057 12.9778 42.1061C9.79006 41.9455 6.96246 41.5076 5.03904 40.8768C3.11562 40.2459 2.23225 39.4666 2.55891 38.6889C2.55891 37.7637 3.35769 36.8385 3.53133 35.905C3.8439 34.3964 3.53134 32.8878 4.1912 31.3876C4.43431 30.6374 6.17075 29.9123 6.48331 29.1622C7.5252 26.57 8.25456 23.9779 9.01861 21.3858C9.88685 18.5353 10.8592 15.6764 11.3802 12.8176C11.2825 12.1762 10.4537 11.5535 8.98385 11.0173C3.56604 8.79189 5.51089 7.25828 15.9298 6.69152C26.4905 6.16042 37.2085 5.8288 47.9852 5.69968C62.6063 5.47464 77.2969 5.56632 91.918 5.30794C108.484 5.01622 124.946 4.47446 141.512 4.08272C167.003 3.49929 192.46 4.3161 217.917 4.39111C222.084 4.39111 226.217 4.39111 230.385 4.39111C259.731 4.23275 289.078 3.98271 318.424 3.91603C341.137 3.86602 363.885 3.91603 386.563 4.13273C411.268 4.29578 435.985 3.9416 460.433 3.07421C485.25 2.39246 510.254 2.189 535.206 2.46577C565.167 2.63822 595.144 2.43513 625.016 1.85733C656.273 1.34057 687.53 0.732134 718.786 0.290389C732.678 0.0986881 746.57 0.223708 760.462 0.190369C784.564 0.14036 808.701 0.09035 832.803 0.00700192C860.535 -0.0488377 888.261 0.229339 915.876 0.840483C942.757 1.38225 969.638 1.22388 996.553 1.14054C1018.15 1.06552 1039.83 1.07386 1061.39 1.31557C1086.85 1.66371 1112.38 1.5913 1137.8 1.09886C1171.77 0.396067 1205.88 0.151197 1239.97 0.365399C1286.27 0.607108 1332.6 0.273716 1378.89 0.365399C1394.15 0.471264 1409.36 0.819308 1424.42 1.40725C1442.59 2.00439 1461 2.02681 1479.19 1.47393C1502.36 0.857241 1525.72 0.756794 1548.96 1.17388C1573.27 1.54061 1597.58 1.60728 1622.14 1.66563C1657.35 1.74898 1692.6 1.66563 1727.82 1.74898C1737.26 1.74898 1746.68 1.99902 1756.05 2.19072C1758.57 2.22297 1761.01 2.40234 1763.18 2.71321C1765.34 3.02409 1767.15 3.45705 1768.45 3.97437C1770.66 4.82198 1772.6 5.70793 1774.25 6.62484C1776.82 8.09177 1778.56 9.65871 1781.44 11.0923C1784.49 12.4824 1785.62 14.0684 1784.68 15.6226C1783.74 17.1768 1780.77 18.6196 1776.2 19.7438C1774.27 20.2198 1772.86 20.8029 1772.09 21.4414C1771.33 22.0798 1771.24 22.7536 1771.82 23.4028C1774.6 26.6784 1772.69 29.9206 1770.6 33.1462C1767.52 38.4882 1766.57 43.8886 1767.76 49.2741C1768.1 51.5911 1768.17 53.9165 1768.42 56.242C1768.42 56.7754 1768.69 57.3005 1768.94 57.8339C1769.32 58.154 1769.51 58.4847 1769.53 58.8174C1766.96 62.1513 1764.63 65.4853 1752.16 67.7523C1740.46 69.8694 1741.33 71.6697 1754.56 73.1866C1757.3 73.5034 1760.19 73.7701 1762.83 74.1368C1766.24 74.5357 1769.11 75.1618 1771.08 75.9405C1773.06 76.7192 1774.06 77.6177 1773.97 78.5292C1773.07 82.505 1777.45 86.3056 1779.29 90.198C1781.88 95.0189 1781.8 99.9007 1779.08 104.717C1778.18 106.274 1776.29 107.789 1773.49 109.21C1771.35 109.911 1768.23 110.403 1764.7 110.593C1758.66 111.057 1752.41 111.351 1746.09 111.468C1728.72 111.668 1711.11 111.56 1693.68 111.852C1670.96 112.126 1648.19 112.02 1625.54 111.535C1610.61 111.293 1595.6 111.435 1580.63 111.285C1559.59 111.06 1538.58 110.61 1517.53 110.452C1500.37 110.327 1483.18 110.568 1465.99 110.552C1449.91 110.552 1433.83 110.41 1417.75 110.318C1403.65 110.235 1389.52 110.077 1375.38 110.052C1353.23 110.01 1331.03 109.976 1308.88 110.052C1286.72 110.127 1264.53 110.435 1242.37 110.702C1211.91 111.124 1181.38 111.179 1150.89 110.868C1111.54 110.393 1072.23 109.785 1032.81 109.351C997.63 108.968 962.379 108.635 927.163 108.518C911.674 108.451 896.15 108.851 880.661 109.101C846.591 109.643 812.487 109.76 778.347 109.71C758.934 109.71 739.52 109.91 720.141 110.21C692.774 110.643 665.476 111.418 638.075 111.71C623.381 111.765 608.693 111.545 594.142 111.052C573.531 110.389 552.723 110.147 531.941 110.327C500.685 110.752 469.428 111.252 438.172 110.493C429.35 110.277 420.564 109.96 411.777 109.66C389.481 108.985 367.254 108.218 344.923 107.676C335.573 107.405 326.114 107.43 316.792 107.751C301.714 108.289 286.449 108.462 271.227 108.268C235.749 107.961 200.228 108.108 164.815 108.71C143.526 109.068 122.341 109.768 101.087 110.21C82.2632 110.602 63.4051 110.935 44.6164 110.21C37.8742 109.869 31.246 109.41 24.7858 108.835C21.6254 108.593 18.6734 108.176 15.4783 108.001C7.17794 107.568 4.12172 106.843 3.56605 104.859C3.33966 103.928 3.40931 102.995 3.77441 102.067C5.51089 97.3576 7.24738 92.6484 9.1575 87.9393C9.43534 87.7892 9.43535 87.5225 9.43535 86.9724ZM1155.51 51.3161H1150.23L1117.1 50.866L1112.03 50.4826C1107.19 50.2156 1102.41 49.8873 1097.72 49.4991C1077.13 47.5488 1056.39 45.6818 1036.18 43.5147C1010.99 40.7568 984.796 38.5583 957.934 36.9469C904.103 33.8297 851.418 29.8123 798.629 25.8532C776.472 24.1863 754.21 22.6027 731.706 21.2108C714.098 20.1189 696.177 19.3188 678.257 18.5353C663.358 17.8768 648.355 17.2851 633.282 16.9267C615.709 16.5016 598.032 16.3349 580.389 16.0932C559.968 15.8015 539.547 15.5014 519.126 15.3014C498.115 15.1013 477.069 15.0013 456.023 14.8846C428.899 14.7263 401.775 14.5929 374.616 14.4429C373.505 14.4429 372.394 14.4429 371.317 14.3929C361.975 14.1595 352.667 13.8761 343.36 13.6928C333.427 13.4927 323.495 13.401 313.562 13.2427C305.852 13.1177 298.142 12.9843 290.432 12.8176C274.526 12.4509 258.62 12.0258 242.679 11.6841C227.849 11.3673 212.985 11.1256 198.121 10.8506L176.658 10.4172C164.017 10.1588 151.375 9.75039 138.733 9.70872C123.244 9.70872 107.755 9.91709 92.3 10.0838C85.9445 10.1505 79.6585 10.3422 73.303 10.4088C68.3366 10.4672 63.3356 10.4088 58.3345 10.4088C47.2906 10.3255 36.2813 10.1755 25.2373 10.1088C23.6931 10.1528 22.197 10.2658 20.8266 10.4422C21.556 12.5426 22.2158 14.4346 22.8062 16.3349C23.3966 18.2352 23.8481 19.9022 24.3691 21.6858C24.7511 24.4363 20.4446 27.1785 23.8828 30.0207C26.3834 30.0207 28.5713 30.104 30.8288 30.1123C90.1468 30.3457 149.465 29.6623 208.783 30.4874C227.537 30.7541 246.395 30.2624 265.184 30.8708C276.123 31.2209 287.237 31.1792 298.281 31.3209C299.358 31.3209 300.469 31.4042 301.545 31.4209C313.353 31.6543 325.162 32.021 336.97 32.0544C349.958 32.1044 362.913 31.7793 375.901 31.7376C381.403 31.7831 386.883 31.9279 392.294 32.171C398.823 32.3961 405.317 32.7045 411.846 32.9045C422.508 33.2295 433.414 33.2629 443.832 33.813C468.907 35.1299 493.808 36.6051 518.64 38.1554C546.667 39.8974 574.207 42.1228 602.685 43.4397C623.002 44.3649 643.041 45.6401 663.15 46.7736C676.798 47.6071 690.343 48.4406 704.026 49.2241C717.71 50.0075 730.942 50.5993 744.382 51.3161C758.656 52.0662 772.86 52.8664 787.099 53.6332C795.157 54.0666 803.214 54.525 811.41 54.8834C831.449 55.7585 851.523 56.592 871.596 57.4422C882.987 57.9173 894.344 58.4174 905.735 58.8674C907.935 58.9422 910.168 58.9422 912.369 58.8674C930.914 58.2423 949.39 57.5505 967.936 56.9671C983.495 56.4837 999.193 56.1336 1014.75 55.7085C1035 55.1751 1055.25 54.6333 1075.53 54.1499C1083.76 53.9499 1092.02 53.8832 1100.29 53.7165C1101.53 53.6308 1102.7 53.4985 1103.76 53.3248H1113.66C1116.86 53.3832 1120.08 53.3832 1123.28 53.3248C1124.71 53.2831 1125.92 52.8664 1127.24 52.6163H1135.44C1136.83 52.7951 1138.35 52.9136 1139.92 52.9664C1145.13 52.883 1150.34 52.7163 1155.48 52.583C1162.66 52.3829 1169.92 52.2163 1177.11 51.9662C1180.48 51.8161 1183.8 51.6213 1187.08 51.3828C1191.77 51.3828 1196.53 51.3828 1201.21 51.3328C1214.41 51.1077 1227.61 50.7243 1240.84 50.6076C1272.1 50.3326 1303.35 50.6993 1334.61 50.2909C1369.72 49.8325 1404.97 49.9658 1440.19 49.7825C1452.9 49.7241 1465.64 49.6408 1478.39 49.3324C1494.02 48.9573 1509.65 48.2739 1525.1 47.8405C1551.67 47.0987 1576.88 45.165 1601.85 42.9813C1618.45 41.531 1634.64 39.6474 1652.39 39.1889C1664.33 38.8639 1672.53 37.3053 1680.86 35.48C1688.16 33.8797 1695.73 32.146 1704.48 31.1625C1719.87 29.4289 1734.38 27.1618 1751.54 26.2033C1751.99 25.4879 1751.99 24.7601 1751.54 24.0446C1748.07 21.5442 1751.99 19.4771 1757.03 17.4268C1760.5 16.5516 1766.47 15.9765 1764.53 14.1512C1762.34 14.3012 1760.57 14.4012 1758.83 14.5346C1751.54 15.0847 1744.25 15.6348 1736.99 16.2015C1732.33 16.5683 1727.71 16.9767 1723.09 17.3601C1722.71 17.3349 1722.3 17.3349 1721.91 17.3601C1721.38 17.3673 1720.84 17.3868 1720.32 17.4184C1717.99 17.6101 1715.59 17.7685 1713.37 18.0019C1697.41 19.8585 1680.65 21.2895 1663.39 22.2693C1656.61 22.5848 1649.95 23.0422 1643.49 23.6362C1619.88 25.9199 1596.26 28.2203 1572.96 30.6874C1548.62 33.4139 1523.15 35.5149 1496.97 36.9552C1476.45 37.9804 1455.82 38.8806 1435.15 39.7474C1423.21 40.2391 1411.15 40.6475 1399.07 40.9059C1392.45 41.0015 1385.81 40.9177 1379.27 40.6559C1364.55 40.1391 1350.1 39.1973 1334.96 39.3473C1327.56 39.414 1320.09 39.1306 1312.66 39.0223C1311.27 39.0098 1309.87 39.0265 1308.49 39.0723C1290.38 39.6732 1271.98 39.5719 1254 38.7722C1239.07 38.1138 1224.24 37.3469 1209.38 36.6051C1178.81 35.0799 1148.18 33.663 1117.79 31.9793C1075.7 29.6539 1033.89 27.0701 993.636 23.2695C965.297 20.594 937.166 17.7768 909.451 14.7513C886.217 12.2508 863.678 9.32532 840.895 6.54983C836.483 5.99438 831.569 5.70813 826.587 5.71635C786.613 5.71635 746.709 5.71635 706.666 5.76636C704.456 5.73721 702.242 5.73721 700.032 5.76636C685.203 6.13309 670.443 6.59984 655.613 6.86655C638.804 7.2055 621.995 7.46944 605.186 7.65836C587.196 7.86673 569.206 7.98342 551.216 8.05843C545.729 8.05843 540.242 7.7167 534.754 7.73337C516.765 7.80005 498.775 7.93341 480.785 8.1001C471.666 8.13584 462.563 8.29725 453.522 8.58352C440.114 9.03899 426.602 9.29508 413.062 9.35032C384.584 9.6087 356.14 8.67521 327.627 9.25031C326.811 9.2348 325.999 9.20696 325.196 9.16696C307.832 9.10028 290.467 9.0086 273.102 8.99193C267.337 8.99193 261.572 9.2253 255.737 9.29198C250.84 9.34199 245.909 9.29198 241.012 9.29198C246.187 9.74885 251.62 10.0158 257.126 10.0838C269.247 10.2672 281.437 10.3838 293.592 10.5339C294.426 10.5339 295.225 10.5339 296.058 10.5922C305.956 10.8256 315.819 11.0923 325.717 11.2923C335.615 11.4924 345.027 11.5674 354.647 11.7508C373.644 12.1091 392.606 12.6426 411.603 12.8509C437.894 13.126 464.219 13.1427 490.544 13.3094C507.422 13.4094 524.301 13.5594 541.145 13.7344C550.001 13.8178 558.822 13.9928 567.643 14.1428C582.508 14.3929 597.406 14.6179 612.236 14.9263C623.813 15.1764 635.389 15.4903 646.966 15.8682C659.781 16.2932 672.596 16.7933 685.376 17.2934C700.623 17.8852 716.181 18.2102 731.011 19.1937C777.931 22.2859 824.503 25.7116 871.353 28.8621C897.157 30.6041 923.239 32.0627 949.217 33.6463C953.106 33.9297 956.927 34.2547 960.886 34.4798C968.596 34.9382 976.41 35.3133 984.12 35.78C991.83 36.2468 1000.51 36.8552 1008.67 37.397C1010.49 37.7546 1012.46 38.0673 1014.54 38.3305C1029.58 39.8474 1044.72 41.306 1059.69 42.8063C1077.85 44.6066 1095.98 46.4569 1115.26 47.4321C1129.15 48.1322 1143.63 48.3406 1157.73 48.9323C1168.16 49.2195 1178.21 50.0287 1187.25 51.3078L1155.51 51.3161ZM1755.15 34.8632C1754.56 33.0795 1753.93 31.2959 1753.38 29.5039C1753.38 29.0288 1753.38 28.5371 1753.38 28.0786C1750.07 28.6752 1746.59 29.2155 1742.96 29.6956C1732.96 30.8375 1722.89 31.9377 1712.68 32.9628C1702.85 34.06 1694 35.5992 1686.59 37.497C1678.74 39.388 1669.12 40.8023 1658.53 41.6227C1648.32 42.4145 1638.11 43.2897 1628.25 44.3148C1603.62 47.0327 1578.06 49.2303 1551.84 50.8827C1547.88 51.1077 1544.03 51.4161 1540.14 51.7162H1536.98L1530.03 52.0829H1526.87C1525.5 52.0497 1524.11 52.0497 1522.74 52.0829C1505.36 52.8587 1487.7 53.2299 1470.02 53.1914C1426.78 53.1914 1383.54 53.5998 1340.31 52.8997C1321 52.583 1301.58 52.583 1282.2 52.433C1281.09 52.433 1280.02 52.433 1278.73 52.3829C1260.05 52.0912 1241.54 51.2411 1222.61 51.9912C1204.69 52.708 1186.56 53.1831 1168.5 53.7165C1150.44 54.2499 1131.79 54.7167 1113.45 55.2501C1101.99 55.5752 1090.53 55.9836 1079.07 56.3336C1064.59 56.7837 1050.11 57.2421 1035.59 57.6255C1024.72 57.9089 1013.78 58.0673 1002.87 58.309C989.711 58.6007 976.549 59.0258 963.352 59.2092C949.825 59.3712 936.44 59.9453 923.517 60.9178C912.608 61.7228 901.095 61.9419 889.794 61.5596C868.748 60.9095 847.702 60.151 826.934 59.1258C795.851 57.6005 764.977 55.8336 734.033 54.1249C702.29 52.3829 670.512 50.641 638.839 48.824C612.236 47.307 585.564 45.8401 559.239 44.0648C529.163 42.0394 499.573 39.589 469.498 37.5553C454.085 36.6049 438.468 35.8564 422.717 35.3133C409.103 34.7715 395.315 34.4798 382.257 33.3129C375.918 32.8058 369.126 32.7194 362.6 33.0629C360.161 33.1765 357.686 33.2407 355.203 33.2546C333.624 33.1379 312.034 33.0045 290.432 32.8545H288.8C275.568 32.6044 262.371 32.1627 249.173 32.146C175.929 32.071 102.649 32.096 29.4048 32.096C26.9738 32.096 24.5427 32.171 21.1392 32.2294V34.8798C20.7224 35.7133 20.653 36.5968 19.8889 37.4303C19.5636 37.6132 19.3956 37.8099 19.3951 38.0087C19.3946 38.2075 19.5616 38.4043 19.886 38.5873C20.2103 38.7702 20.6855 38.9356 21.2828 39.0733C21.8801 39.2111 22.5873 39.3185 23.3619 39.389C28.6735 39.9883 33.0175 40.9898 35.7256 42.2395C43.9565 45.6318 43.2272 49.0074 28.4671 50.2076C27.9923 50.271 27.5394 50.3435 27.1127 50.4243C25.5155 50.6215 24.2112 50.9324 23.3781 51.3143C22.5451 51.6962 22.2241 52.1306 22.4589 52.558C22.7715 54.5917 22.4589 56.6337 22.4589 58.7424C26.9043 58.9091 31.7317 59.1841 36.5939 59.2758C52.5232 59.587 68.4871 59.8648 84.4859 60.1093C97.9957 60.301 111.505 60.3927 125.05 60.5344C125.883 60.5344 126.717 60.5344 127.55 60.5344C140.713 60.7844 153.91 61.1012 167.107 61.2929C180.305 61.4846 194.127 61.6096 207.672 61.6929C233.684 61.843 259.766 61.5096 285.744 62.068C302.24 62.4181 318.876 61.893 335.476 62.4514C347.29 62.7493 359.161 62.8967 371.039 62.8931C392.606 63.0598 414.173 63.2765 435.775 63.2765C455.675 63.2765 475.575 62.9098 495.475 62.9432C529.823 63.0015 564.136 62.8098 598.518 63.2265C637.484 63.7016 676.59 63.5766 715.661 63.7183C716.772 63.7183 717.883 63.7183 718.96 63.7183C735.422 64.1017 751.849 64.5518 768.311 64.8602C783.731 65.1185 799.255 65.2102 814.709 65.2602C821.655 65.2602 828.601 65.0269 835.304 64.8935H852.009V65.2936C848.709 65.2936 845.341 65.2936 842.041 65.4019C831.9 65.6186 821.759 66.077 811.584 66.077C778.625 66.077 745.597 66.4021 712.674 65.777C693.364 65.4186 673.916 65.4103 654.537 65.3519C633.178 65.2852 611.819 65.3519 590.461 65.3519L565.629 65.3102C562.799 65.1263 559.904 65.0063 556.981 64.9518C524.405 65.0435 491.863 65.1852 459.287 65.2936C452.932 65.2936 446.541 65.2936 440.186 65.2936C429.211 65.2102 418.202 65.1019 407.193 65.0019L332.42 64.5018C330.728 64.3177 328.941 64.1888 327.106 64.1184C312.173 64.1184 297.204 64.1184 282.271 64.1184H259.106L247.194 63.8433C246.082 63.8433 244.971 63.7933 243.721 63.785C214.722 63.6099 185.722 63.4599 156.689 63.2515C145.957 63.1765 135.191 63.0015 124.46 62.8515L72.3653 62.1013C69.7818 61.9396 67.161 61.8143 64.5164 61.7263C60.1057 61.6262 55.6951 61.6346 51.2845 61.5429C42.7757 61.3595 34.3017 61.1095 25.8277 60.9345C24.5549 60.9378 23.2953 60.9972 22.1116 61.1095C18.6387 66.1104 16.034 70.9779 12.0401 75.7621C9.39972 78.6812 8.49933 81.6755 9.36587 84.6553C13.4987 85.2471 18.1524 85.7222 18.7428 87.0308C19.9931 89.7229 21.4865 92.415 22.2158 95.1239C22.8062 97.4409 22.4242 99.7747 22.4589 102.108V106.376C26.004 106.381 29.5434 106.445 33.0514 106.568C49.6522 107.476 66.1139 106.676 82.5757 106.401C94.6269 106.201 106.574 105.667 118.59 105.326C125.988 105.117 133.42 105.009 140.817 104.834C150.403 104.609 159.988 104.192 169.573 104.15C193.676 104.05 217.813 104.15 241.95 104.15C244.45 104.15 246.951 104.15 249.416 104.25C259.28 104.467 269.143 104.701 278.971 104.934C287.723 105.209 296.336 105.601 305.157 105.717C316.201 105.867 327.384 105.592 338.359 105.851C351.181 106.301 364.123 106.526 377.082 106.526C383.681 106.459 390.245 106.184 396.843 106.159C436.122 105.984 475.402 105.876 514.681 105.684C518.968 105.551 523.183 105.308 527.253 104.959C534.025 105.084 540.797 105.284 547.604 105.317C558.023 105.384 568.442 105.317 578.861 105.317C580.771 105.359 582.716 105.384 584.626 105.442C600.74 105.901 616.751 106.668 633.247 106.501C638.735 106.451 644.222 106.234 649.709 106.142C659.607 105.967 669.54 105.851 679.472 105.676C680.507 105.606 681.483 105.493 682.355 105.342C684.476 105.456 686.641 105.518 688.815 105.526C697.844 105.359 706.909 104.951 715.938 104.967C743.896 104.967 771.853 105.201 799.81 105.342C800.366 105.342 800.922 105.342 801.477 105.342C814.918 105.592 828.393 106.042 841.868 106.042C869.269 106.042 896.671 105.776 924.072 105.717C934.491 105.717 944.91 105.951 955.503 106.076C969.742 106.351 983.981 106.801 998.22 106.843C1033.68 106.968 1069.17 106.951 1104.63 106.884C1140.09 106.818 1176.56 106.643 1212.5 106.459C1219.93 106.459 1227.33 106.176 1234.76 106.026L1271.82 105.276C1278.11 105.151 1284.43 104.942 1290.75 104.917C1328.42 104.751 1366.09 104.612 1403.76 104.501C1405.97 104.495 1408.19 104.523 1410.39 104.584C1419.7 104.809 1429.01 105.226 1438.17 105.251C1451.13 105.251 1464.12 104.909 1477.11 104.934C1497.94 104.934 1518.78 105.142 1539.31 105.367C1551.7 105.501 1564 105.909 1576.4 106.067C1585.81 106.184 1595.26 106.067 1604.67 106.109C1614.34 106.127 1624 106.274 1633.6 106.551C1648.89 107.109 1664.35 107.36 1679.82 107.301C1686.21 107.301 1692.6 107.209 1698.96 107.301C1708.02 107.451 1717.05 107.726 1726.05 107.993C1736.47 108.293 1746.71 108.826 1758.1 108.251C1758.69 106.934 1759.6 105.634 1759.73 104.325C1759.98 101.825 1760.15 99.2579 1759.73 96.7325C1759.32 94.5571 1757.89 92.39 1756.99 90.223C1755.71 87.0641 1751.82 83.9635 1753.17 80.738C1753.52 79.9045 1753.66 79.071 1753.9 78.0792C1751.23 78.1375 1749.07 78.1542 1746.95 78.2375C1735.01 78.7043 1723.13 79.3627 1711.11 79.6211C1696.53 79.9462 1681.84 79.9378 1667.22 80.0712C1666.38 80.0585 1665.55 80.0585 1664.71 80.0712C1647.35 80.813 1629.99 81.6131 1612.62 82.2799C1598.73 82.8217 1584.84 83.2968 1570.94 83.6135C1558.3 83.8885 1545.52 83.8385 1532.74 84.0636C1521.18 84.2198 1509.66 84.5146 1498.22 84.947C1478.45 85.8696 1458.38 86.3744 1438.24 86.4557C1435.04 86.2867 1431.81 86.1587 1428.55 86.0723C1415.84 85.8972 1403.13 85.8139 1390.35 85.6055C1383.76 85.4847 1377.21 85.2676 1370.73 84.9554C1355.95 84.3755 1340.93 84.2272 1326 84.5136C1315.58 84.6387 1305.16 85.1721 1294.74 85.2054C1220.7 85.4388 1146.62 84.9304 1072.47 85.6305L1031 86.0139C1023.4 86.0889 1015.79 86.1889 1008.19 86.2806C1011.42 85.8095 1014.93 85.4609 1018.61 85.2471C1040.24 83.9469 1062.47 83.7885 1084.59 83.7302C1154.82 83.5468 1225 83.6468 1295.23 83.6385C1297.73 83.6385 1300.23 83.6385 1302.73 83.5801C1315.65 83.3468 1328.57 82.93 1341.52 82.9134C1351.94 82.9134 1362.36 83.4051 1372.78 83.6218C1387.09 83.9219 1401.4 84.2719 1415.74 84.397C1437.58 84.5887 1459.5 84.6303 1481.1 83.5635C1507 82.206 1533.37 81.411 1559.87 81.1881C1567.6 81.1748 1575.32 81.0188 1582.96 80.7213C1598.45 80.0795 1613.77 79.221 1629.26 78.5459C1643.8 77.7725 1658.53 77.2158 1673.36 76.879C1698.53 76.5482 1723.76 76.7686 1748.76 77.5374C1751.68 77.6291 1755.12 77.7625 1756.12 76.4789C1753.69 76.0205 1750.88 75.5037 1748.17 74.962C1745.02 74.4336 1742.17 73.8088 1739.7 73.1033C1732.37 70.5195 1733.03 67.6773 1737.2 64.9102C1741.05 62.343 1745.84 59.8676 1744.87 57.0338C1744.98 56.5423 1745.33 56.0556 1745.91 55.5835C1746.9 54.2252 1746.83 52.8349 1745.7 51.4828C1742.47 52.1662 1740.36 52.633 1738.17 53.0914C1731.22 54.55 1724.28 56.1503 1715.94 57.2588C1697.76 59.5121 1678.73 61.3403 1659.09 62.7181C1645.73 63.816 1631.77 64.4257 1617.66 64.5268C1610.2 64.5772 1602.76 64.7191 1595.36 64.9518C1581.47 65.3102 1567.58 65.6853 1553.44 66.102C1546.7 66.3021 1540.04 66.6188 1533.33 66.8855L1518.61 66.9939L1511.66 67.2773L1488.57 67.3606H1392.02C1388.98 67.3066 1385.93 67.2899 1382.88 67.3106C1364.2 67.6773 1345.52 68.0524 1326.87 68.4608C1318.63 68.6442 1310.44 68.9192 1302.24 69.1609C1292.66 69.4526 1283.11 69.7777 1273.52 70.0444C1262.03 70.3611 1250.5 70.6195 1238.79 70.9279C1225.39 71.2863 1211.98 71.703 1198.57 72.0364C1185.17 72.3698 1172.7 72.5365 1159.85 72.8699C1139.88 73.4534 1120.05 74.2702 1100.05 74.7619C1075.86 75.4195 1052.34 77.0984 1030.59 79.7211C1018.61 81.0859 1006.23 82.2446 993.566 83.1884C966.13 85.2804 937.443 85.3388 909.104 85.5222C880.765 85.7055 852.669 85.7472 824.399 85.3221C802.068 84.9804 779.702 84.922 757.371 84.4886C736.984 84.0802 716.564 83.8385 696.143 83.6552C679.785 83.5301 663.427 83.6552 647.07 83.6552H552.223C547.361 82.93 542.117 83.3134 536.977 83.3468L487.279 82.83L480.333 82.5383L467.275 82.4549C466.337 82.3299 465.434 82.1049 464.462 82.0882C448.243 81.7965 432.059 81.4298 415.84 81.2547C388.517 81.0238 361.161 81.3025 334.018 82.0882C328.009 82.2549 322.036 82.4966 316.097 82.7633C303.907 83.3218 291.786 83.8969 279.631 84.5136C273.276 84.8387 266.99 85.2804 260.704 85.6722L244.276 85.7805C242.887 85.7805 241.533 85.6889 240.144 85.6805C224.932 85.5305 209.721 85.4138 194.509 85.2304C187.077 85.1388 179.645 84.9554 172.247 84.7553C159.363 84.4136 146.513 83.9885 133.628 83.6718C119.736 83.3384 106.122 83.0801 92.3695 82.8383C77.5053 82.555 62.641 82.3049 47.742 82.0632C38.3651 81.9048 28.9881 81.8048 19.6111 81.6548C16.9369 81.6548 14.3322 81.5048 13.2556 80.7546C14.1933 80.638 14.6448 80.5379 15.131 80.5296C17.3537 80.5296 19.5764 80.4546 21.7643 80.4546C48.3672 80.4546 74.9352 80.3629 101.399 81.2214C115.291 81.6715 129.426 81.8132 143.457 82.1299C159.397 82.4966 175.304 82.9217 191.21 83.2801C200.309 83.4801 209.512 83.4551 218.507 83.7719C234.651 84.3577 251.091 84.2816 267.129 83.5468C287.966 82.5716 308.491 81.2047 329.642 80.7296C343.082 80.4296 356.488 79.8045 369.928 79.7295C401.491 79.457 433.094 79.6853 464.531 80.4129C481.549 80.863 498.705 81.0714 515.792 81.2464C538.505 81.4631 561.218 81.6131 583.931 81.6381C601.296 81.6381 618.661 81.3464 636.234 81.3381C651.168 81.3381 666.102 81.5464 681.035 81.6631C698.192 81.7965 715.348 81.8882 732.504 82.0799C752.092 82.2966 771.679 82.6466 791.267 82.855C810.09 83.0467 828.914 83.2551 847.737 83.2384C875.729 83.2384 903.721 83.0467 931.678 82.88C940.804 82.8471 949.917 82.6969 958.976 82.4299C984.289 81.648 1008.91 79.8948 1031.91 77.2374C1054.55 74.7338 1078.74 73.1267 1103.52 72.4782C1116.93 72.0781 1130.3 71.6447 1143.7 71.1863C1158.46 70.7029 1173.15 70.1611 1187.95 69.7027C1198.89 69.361 1209.9 69.1442 1220.84 68.8275C1233.17 68.4775 1245.46 68.0774 1257.75 67.669C1268.69 67.3106 1279.6 66.9105 1290.5 66.5521C1299.53 66.2521 1308.56 65.927 1317.63 65.7187C1332.18 65.3853 1346.8 65.1185 1361.39 64.8852C1377.08 64.6101 1392.64 64.2684 1408.51 64.16C1427.37 64.0433 1446.27 64.11 1465.12 64.16C1470.92 64.16 1476.72 64.5268 1482.49 64.4601C1497.39 64.2934 1512.25 64.01 1527.12 63.735C1541.01 63.4766 1554.62 63.1765 1568.37 62.9015C1585.74 62.5264 1603.1 62.1764 1620.47 61.7346C1629.83 61.5567 1639.11 61.2084 1648.25 60.6928C1680.76 58.6257 1711.95 55.7502 1740.29 51.2911C1744.52 50.6243 1747.58 49.9409 1746.75 48.5823C1746.51 47.9866 1746.83 47.3856 1747.68 46.8236C1750.81 44.4232 1753.9 42.0061 1757.62 39.6557C1760.15 38.0387 1761.09 36.5885 1755.01 35.3216L1755.15 34.8632ZM1088.52 13.7261C1090.2 14.1081 1092.08 14.4359 1094.11 14.7013C1109.39 16.0515 1124.88 17.2851 1140.09 18.6853C1167.87 21.2274 1196.42 22.9611 1224.83 24.8864C1232.59 25.3596 1240.13 26.0214 1247.34 26.8618C1269.25 29.6039 1291.75 31.5543 1316.79 31.3126C1331.73 31.1709 1346.8 31.5126 1361.53 30.7958C1384.48 29.6706 1407.37 28.487 1430.15 27.1785C1446.54 26.2366 1462.73 25.1115 1478.77 23.9696C1509.82 21.6509 1539.95 18.6719 1568.79 15.068C1588.55 12.6842 1608.7 10.5089 1628.67 8.23346C1630.71 7.99175 1632.62 7.67503 1634.6 7.39998L1634.22 7.05825L1606.65 6.53316C1596.71 6.41352 1586.75 6.62956 1577.06 7.17494C1569.33 7.65127 1561.41 7.93064 1553.44 8.00842C1542.13 8.07727 1530.88 8.43774 1519.89 9.08361C1504.33 9.9921 1488.64 10.8756 1473.11 11.6341C1457.59 12.3925 1442.06 12.8093 1426.75 13.6427C1395.87 15.4175 1364.27 16.3761 1332.53 16.5016C1330.58 16.5016 1328.64 16.5016 1326.73 16.5683C1316.55 16.8016 1306.44 17.1267 1296.27 17.2517C1281.34 17.3745 1266.4 17.1119 1251.71 16.4683C1231.36 15.6348 1210.8 14.9763 1190.76 13.8345C1162.56 12.2175 1134.43 10.5005 1106.85 8.30847C1087.06 6.7582 1066.92 6.35813 1046.56 6.11642C1032.67 5.94972 1018.78 6.06641 1004.89 6.11642C1002.56 6.14026 1000.24 6.19312 997.942 6.27478C999.541 6.73758 1001.68 7.07442 1004.09 7.24162C1024.93 8.90858 1045.38 10.6756 1066.12 12.3092C1073.44 12.901 1081.05 13.2593 1088.52 13.7261ZM1526.56 23.5362C1505.34 25.0531 1484.26 26.6867 1462.9 28.062C1429.21 30.2374 1395.35 32.3127 1360.55 33.0629C1344.24 33.31 1327.88 33.2822 1311.58 32.9795C1299.95 32.8462 1288.98 31.8543 1277.83 31.0458C1252.68 29.2205 1227.5 27.4202 1201.7 26.1533C1161.69 24.1946 1123.52 20.7773 1085.5 17.2767C1046.39 13.6761 1006.97 10.3005 966.859 7.44999C961.079 6.99153 955.122 6.67321 949.078 6.49982C936.922 6.24978 924.767 6.2331 912.577 6.0414C900.387 5.8497 888.266 5.50798 876.25 5.33295C869.304 5.22459 862.15 5.33295 855.1 5.33295L854.544 5.75802C856.921 6.14607 859.378 6.50493 861.907 6.83321C874.861 8.35015 887.815 9.88375 900.908 11.3257C919.315 13.351 937.548 15.4931 956.475 17.2434C980.439 19.5021 1004.78 21.5525 1029.2 23.5112C1048.33 25.0531 1067.64 26.5284 1087.27 27.6786C1138.15 30.5791 1189.16 33.3212 1240.25 36.0134C1254.82 36.8015 1269.59 37.3583 1284.46 37.6803C1302.03 38.0304 1319.71 37.9387 1337.35 38.1554C1347.77 38.2804 1358.19 38.6555 1368.61 38.8639C1377.37 39.1512 1386.21 39.2655 1395.04 39.2056C1408.93 38.9222 1422.82 38.2138 1436.72 37.797C1462.76 36.9331 1488.43 35.519 1513.43 33.5713C1545.35 31.2125 1575.39 27.7786 1605.67 24.4863C1622.04 22.6756 1639.06 21.225 1656.52 20.1522C1668.87 19.4353 1681.06 18.5702 1693.05 17.5601C1708.68 16.2099 1723.93 14.5929 1740.56 14.0345C1748.45 13.7678 1756.33 13.5261 1765.12 13.2427C1763.42 11.2257 1762.17 9.35033 1760.26 7.51667C1758.35 5.68301 1758.07 5.70801 1750.6 5.75802C1737.89 5.84137 1725.14 5.98306 1712.4 6.11642C1698.51 6.25811 1684.61 6.39147 1670.93 6.5665C1668.73 6.60094 1666.57 6.7338 1664.58 6.95824C1648.46 8.74189 1632.31 10.5005 1616.37 12.3842C1600.43 14.2679 1585.32 16.2099 1569.83 18.1352C1565.8 18.6853 1561.92 19.2938 1557.75 19.8022C1548.54 20.8774 1539.24 21.8692 1529.96 22.9194C1528.74 23.0937 1527.6 23.3006 1526.56 23.5362ZM1530.28 6.32479C1525.38 5.714 1519.79 5.4922 1514.34 5.69134C1501.97 5.94139 1489.64 6.28312 1477.28 6.44981C1450.21 6.73287 1423.1 6.27427 1396.46 5.0829C1386.94 4.70527 1377.29 4.51848 1367.64 4.52447C1356.49 4.52447 1345.31 4.73284 1334.12 4.85786C1333.3 4.84753 1332.47 4.82526 1331.66 4.79118C1327.31 4.63754 1322.92 4.53739 1318.53 4.49113C1292.52 4.49113 1266.44 4.27443 1240.46 4.83286C1234.24 4.96621 1227.89 4.54114 1221.53 4.49113C1204.41 4.4231 1187.3 4.66831 1170.34 5.2246C1156.45 5.633 1142.56 5.81637 1128.66 6.05808C1130.58 6.45811 1132.91 6.72852 1135.4 6.84154C1158.25 8.0751 1181.21 9.25864 1204.13 10.5755C1230.7 12.0611 1257.67 13.0972 1284.84 13.6761C1290.61 13.8094 1296.34 13.9845 1302.21 14.1345C1311.72 14.4997 1321.31 14.7251 1330.93 14.8096C1346.35 14.7429 1361.7 14.2345 1377.12 14.1095C1391.18 13.8752 1405.12 13.3482 1418.79 12.5342C1427.69 12.0841 1436.61 11.6507 1445.54 11.2673C1458 10.7422 1470.72 10.4339 1482.94 9.72539C1498.6 8.78356 1514.27 7.48333 1530.28 6.32479Z" fill="#6E4220"/>
<path d="M1533.37 66.8855C1540.07 66.6188 1546.74 66.3021 1553.48 66.102C1567.37 65.6853 1581.26 65.2686 1595.39 64.9518C1602.79 64.7191 1610.23 64.5772 1617.69 64.5268C1631.79 64.4248 1645.74 63.8151 1659.09 62.7181C1678.75 61.3194 1697.8 59.4688 1715.98 57.1921C1724.45 56.1253 1731.08 54.525 1738.2 53.0247C1740.39 52.5663 1742.51 52.0996 1745.74 51.4161C1746.89 52.7903 1746.94 54.2041 1745.91 55.5835C1745.34 56.0947 1745.04 56.6211 1745.01 57.1505C1745.98 59.9843 1741.19 62.4597 1737.33 65.0269C1733.17 67.794 1732.51 70.6362 1739.83 73.22C1742.31 73.9255 1745.16 74.5503 1748.31 75.0786C1751.02 75.6204 1753.83 76.1372 1756.26 76.5956C1755.25 77.8791 1751.82 77.7458 1748.9 77.6541C1723.9 76.8853 1698.67 76.6649 1673.5 76.9956C1658.67 77.3325 1643.94 77.8892 1629.39 78.6626C1613.91 79.3377 1598.59 80.1962 1583.1 80.838C1575.46 81.1354 1567.74 81.2915 1560.01 81.3047C1533.51 81.5277 1507.14 82.3227 1481.24 83.6802C1459.64 84.722 1437.72 84.6803 1415.88 84.5136C1401.53 84.3886 1387.23 84.0386 1372.92 83.7385C1362.5 83.5218 1352.08 83.0217 1341.66 83.03C1328.71 83.03 1315.79 83.4635 1302.87 83.6968C1300.37 83.7468 1297.87 83.7468 1295.37 83.7552C1225.14 83.7552 1154.95 83.6635 1084.73 83.8469C1062.75 83.9052 1040.52 84.0636 1018.75 85.3638C1015.07 85.5776 1011.56 85.9262 1008.33 86.3973C1015.93 86.3056 1023.54 86.2056 1031.14 86.1306L1072.61 85.7472C1146.62 85.0471 1220.7 85.5555 1294.88 85.3221C1305.3 85.3221 1315.72 84.7554 1326.14 84.6303C1341.07 84.3439 1356.09 84.4922 1370.87 85.0721C1377.35 85.3843 1383.9 85.6014 1390.49 85.7222C1403.2 85.9306 1415.91 86.0139 1428.69 86.1889C1431.95 86.2754 1435.18 86.4034 1438.38 86.5723C1437.99 87.2701 1436.66 87.918 1434.59 88.4174C1432.52 88.9169 1429.83 89.2406 1426.92 89.3395C1421.47 89.6646 1415.81 89.7562 1410.22 89.9563C1415.99 90.0676 1421.79 90.0871 1427.58 90.0146C1436.37 89.8646 1444.95 89.3978 1453.87 89.4062C1477.38 89.4062 1500.93 89.6312 1524.44 89.7646C1536.32 89.7751 1548.14 89.4108 1559.62 88.6811C1571.64 87.9809 1583.34 87.0141 1595.99 86.8641C1610.81 86.7057 1625.57 86.0973 1640.37 85.7889C1651.38 85.5555 1662.42 85.4971 1673.47 85.3555C1675.1 85.3555 1676.73 85.2054 1678.36 85.1638C1685.13 84.8699 1691.98 84.6944 1698.85 84.6387C1706.56 84.7373 1714.22 84.9939 1721.74 85.4055C1729.38 85.7722 1736.88 86.314 1746.26 86.8891C1743.2 87.3475 1741.99 87.6725 1740.63 87.7225C1733.51 87.9142 1726.36 88.0559 1719.21 88.181C1709.83 88.3393 1700.45 88.456 1691.11 88.6144C1676.24 88.8644 1661.42 89.1561 1646.55 89.3645C1634.12 89.5479 1621.68 89.6479 1609.25 89.7646C1593.24 89.9146 1577.2 89.9729 1561.19 90.2063C1553.24 90.3849 1545.33 90.6631 1537.5 91.0398C1536.6 91.0815 1535.87 91.4315 1534.62 91.7566C1535.74 91.9071 1536.9 92.0408 1538.09 92.1567C1550.02 93.0097 1562.43 93.409 1574.87 93.3402C1594.73 93.1568 1614.57 93.8986 1634.43 93.3985C1635.53 93.4182 1636.62 93.4572 1637.7 93.5152C1643.46 93.6069 1649.26 93.757 1655.06 93.7319C1662.77 93.7319 1670.48 93.4736 1678.19 93.3819C1691.14 93.2319 1704.13 93.1152 1717.09 92.9985C1718.27 93.0262 1719.43 93.0849 1720.56 93.1735C1718.7 93.659 1716.28 94.0012 1713.61 94.157C1699.23 95.0909 1684.46 95.6498 1669.58 95.824C1654.16 96.0323 1638.74 96.3324 1623.35 96.5908C1614.81 96.7325 1606.27 96.8575 1597.76 97.0242C1591.99 97.1325 1586.23 97.3242 1580.39 97.4409C1567.51 97.6993 1554.59 97.991 1541.67 98.1744C1533.65 98.2828 1525.55 98.1744 1517.36 98.2327C1500.9 98.4411 1484.43 98.8745 1467.97 98.9412C1451.51 99.0079 1435.92 98.6495 1419.87 98.6161C1390.18 98.5495 1360.48 98.6161 1330.79 98.6161C1328.57 98.6161 1326.34 98.6161 1324.12 98.6578C1308.74 98.8995 1293.32 99.3496 1277.9 99.3746C1227.12 99.4746 1176.31 99.3746 1125.54 99.433C1111.16 99.433 1096.78 99.6913 1082.44 99.833C1081.61 99.833 1080.77 99.833 1079.94 99.8914C1070.91 100.133 1061.91 100.558 1052.88 100.583C976.479 100.842 900.352 100.291 824.086 100.942C802.693 101.125 781.195 100.475 759.732 100.241C744.243 100.066 728.788 99.8914 713.299 99.833C662.177 99.6246 611.02 100.091 559.864 99.4746C543.55 99.2347 527.181 99.3239 510.93 99.7413C495.23 100.092 479.464 100.242 463.698 100.191C437.13 100.258 410.596 100.191 384.028 100.241C371.109 100.241 358.224 100.1 345.27 100.141C330.093 100.191 314.882 99.833 299.67 99.8414C278.103 99.8414 256.501 100.1 234.934 100.133C222.596 100.051 210.251 100.207 198.017 100.6C193.12 100.792 188.188 100.917 183.257 101.008C174.435 101.175 165.614 101.292 156.828 101.442C142.936 101.692 128.766 102.125 114.735 102.175C83.965 102.283 53.1252 102.175 22.32 102.175C22.32 99.8414 22.6673 97.5076 22.0769 95.1905C21.4171 92.4817 19.9237 89.7896 18.604 87.0974C18.0136 85.7889 13.3598 85.3138 9.227 84.722C8.36046 81.7422 9.26084 78.7479 11.9012 75.8288C15.8951 71.0446 18.604 66.1854 21.9727 61.1762C23.1565 61.0638 24.4159 61.0045 25.6888 61.0011C34.1628 61.1762 42.6368 61.4262 51.1455 61.6096C55.5562 61.7013 59.9669 61.6929 64.3775 61.7929C67.0222 61.881 69.6429 62.0062 72.2264 62.168C69.9693 62.3504 67.6427 62.4788 65.2805 62.5514C58.0567 62.6014 50.8677 62.5514 43.644 62.5514H23.9523V62.9598C27.2169 62.9598 30.4815 62.9598 33.7113 62.9598C43.0883 63.0932 52.4653 63.2015 61.8075 63.4266C75.6993 63.7516 89.1744 64.185 102.858 64.5434C114.631 64.8518 126.439 65.1269 138.247 65.3769L187.598 66.5271C192.252 66.6438 196.905 66.8355 201.49 66.9105C211.909 67.0772 222.327 67.1939 232.92 67.3439C240.908 67.4606 248.896 67.6273 256.883 67.744C275.325 68.0191 293.801 68.3358 312.277 68.5108C341.346 68.7859 370.449 68.1191 399.483 68.9109C410.457 69.2109 421.432 69.4443 432.406 69.661C435.716 69.7138 439.039 69.6999 442.339 69.6193C451.959 69.411 461.51 69.0026 471.13 68.9525C491.099 68.8442 511.069 68.9525 531.073 68.9525C533.261 68.9525 535.484 68.9525 537.706 68.9525C551.598 68.7108 565.768 68.4191 579.799 68.2274C586.745 68.1274 593.69 68.2274 600.636 68.2274L702.012 67.8274C703.029 67.8048 704.038 67.7658 705.033 67.7107C702.127 67.4916 699.079 67.4012 696.038 67.4439C689.926 67.4439 683.814 67.444 677.736 67.3856C664.261 67.1772 650.821 66.8438 637.311 66.6521C623.245 66.4604 609.145 66.3604 595.045 66.2271C592.718 66.2271 590.565 66.1687 590.044 65.4769C611.402 65.4769 632.761 65.4019 654.12 65.4769C673.499 65.5353 692.947 65.5436 712.257 65.902C745.215 66.5271 778.243 66.1854 811.167 66.2021C821.343 66.2021 831.484 65.7436 841.625 65.5269C844.924 65.4519 848.293 65.4519 851.592 65.4186L874.861 64.5434C867.094 64.2393 859.135 64.4025 851.696 65.0185H834.991C837.11 63.3516 836.415 63.1015 829.921 63.0182C827.976 63.0182 826.031 63.0182 824.086 63.0182L758.517 62.6181H756.016C742.124 62.3681 728.024 62.0513 713.959 61.8846C704.269 61.7679 694.545 61.8263 684.856 61.8846C672.703 61.923 660.565 61.6633 648.633 61.1095C641.116 60.6757 633.46 60.3968 625.746 60.276C603.936 60.1927 582.195 59.8093 560.385 59.4842C536.942 59.1425 513.361 59.1675 489.849 59.0341C483.216 59.0341 476.27 59.2508 469.984 58.8841C455.571 58.0506 440.95 58.0506 426.398 57.8923C413.479 57.7756 400.455 58.2256 387.501 58.184C375.693 58.184 363.955 58.3673 352.112 58.3007C303.49 58.0173 255.112 57.9673 206.63 57.8423C201.351 57.8423 196.211 57.8423 190.828 57.8423C188.327 57.8423 185.827 57.8006 183.361 57.7422C174.609 57.5172 165.996 57.1671 157.105 57.0671C137.761 56.8587 118.382 56.7671 99.0376 56.642C97.5072 56.6873 95.9541 56.634 94.538 56.4875C93.1219 56.341 91.8939 56.1067 90.9803 55.8086C92.0222 55.6585 92.6126 55.5168 93.3072 55.4918C109.908 54.9167 126.578 54.3916 143.179 53.8249C162.247 53.0919 181.519 52.7074 200.83 52.6747H287.133C289.621 52.6143 292.133 52.6339 294.6 52.733C304.428 53.4248 313.666 52.883 322.974 52.1662C324.505 52.0419 326.115 51.9827 327.732 51.9912C333.254 52.0579 338.706 52.2079 344.228 52.2496C350.874 52.1672 357.535 52.1979 364.163 52.3413C380.972 53.0831 397.26 52.4913 415.181 51.6828C413.563 51.4666 411.879 51.2799 410.145 51.1244C395.211 50.1409 379.791 49.8742 364.475 49.4574C357.078 49.2574 349.646 49.099 342.283 48.874C332.906 48.5906 323.668 48.2989 314.778 49.4741C312.013 49.7728 308.978 49.8989 305.956 49.8408C292.69 49.7464 279.434 49.6158 266.191 49.4491C258.198 49.3871 250.223 49.2285 242.297 48.974C221.876 48.2322 201.906 46.9236 181.173 46.5819C166.899 46.3569 152.729 45.7484 138.49 45.4984C120.257 45.2233 101.99 45.2067 83.7566 45.0483C81.3423 45.0771 78.9409 44.9474 76.8107 44.6733C69.6564 43.348 62.9188 41.9144 55.9729 40.5058C54.0628 40.1224 52.0833 39.7557 50.2079 39.3723L37.1843 36.7135C46.7696 36.9636 56.3202 37.2636 65.9056 37.447C81.6033 37.747 97.1622 38.1221 112.964 38.1888C142.102 38.3138 171.24 38.1888 200.378 38.2471C210.589 38.2471 220.799 38.4721 231.01 38.6138C250.84 38.8722 270.671 39.289 290.536 39.3806C307.901 39.464 325.266 39.1806 342.804 39.0973C344.704 39.1449 346.585 39.2286 348.43 39.3473C354.161 39.5223 360.065 39.9474 365.587 39.764C375.406 39.4098 385.391 39.4098 395.211 39.764C406.637 40.1891 418.306 40.2475 429.732 40.6809C448.486 41.3977 467.31 42.1311 485.821 43.1396C513.111 44.57 539.925 46.481 566.046 48.8573C570.213 49.2407 574.589 49.4991 578.861 49.8158L579.521 49.4158C577.194 49.1074 574.971 48.7406 572.575 48.4823C547.431 45.8651 522.495 43.1396 497.038 40.7225C485.585 39.7611 473.784 39.0579 461.788 38.6222C451.369 38.1638 440.95 38.0304 430.531 37.7304C417.681 37.372 404.866 36.8969 391.981 36.6552C385.633 36.6159 379.283 36.722 373.019 36.9719C364.51 37.2053 356.071 37.4803 348.361 36.1884C346.686 35.9521 344.782 35.8256 342.839 35.8217C330.718 35.6633 318.528 35.5383 306.408 35.3966C304.741 35.3966 302.935 35.3966 301.441 35.3966C288.244 35.1466 275.047 34.6798 261.85 34.7048C245.041 34.7048 228.266 34.2047 211.457 34.5965C209.82 34.5603 208.195 34.4962 206.595 34.4048C201.906 34.3464 197.218 34.2797 192.53 34.3214C187.841 34.3631 182.666 34.5965 177.7 34.6131C161.065 34.6631 144.429 34.6131 127.759 34.6131C125.536 34.6131 123.348 34.6131 121.126 34.6548C108.137 34.7548 95.1479 34.9632 82.159 34.9465C66.1487 34.9465 50.1037 34.7215 34.0934 34.5881C32.7171 34.533 31.3034 34.5839 30.0554 34.7337C28.8074 34.8834 27.7893 35.1243 27.1475 35.4216L20.7572 34.9882V32.246C24.2301 32.1877 26.5918 32.1127 29.0228 32.1127C102.267 32.1127 175.547 32.1127 248.791 32.1627C261.989 32.1627 275.186 32.6211 288.418 32.8712H290.05C311.652 33.0156 333.242 33.149 354.821 33.2712C357.305 33.2573 359.779 33.1932 362.218 33.0795C368.744 32.7361 375.536 32.8225 381.875 33.3296C394.933 34.5131 408.721 34.7882 422.335 35.3299C438.172 35.8875 453.87 36.6527 469.359 37.622C499.434 39.6557 529.024 42.1061 559.1 44.1315C585.425 45.9068 612.097 47.3737 638.7 48.8907C670.373 50.7077 702.151 52.4496 733.894 54.1916C764.838 55.8586 795.712 57.6506 826.795 59.1925C847.633 60.2177 868.471 60.9761 889.656 61.6263C900.957 62.0086 912.469 61.7894 923.378 60.9845C936.301 60.012 949.686 59.4379 963.213 59.2758C976.41 59.0925 989.573 58.6674 1002.74 58.3757C1013.64 58.134 1024.58 57.9756 1035.45 57.6922C1049.97 57.3088 1064.45 56.8587 1078.93 56.4003C1090.39 56.0503 1101.85 55.6419 1113.31 55.3168C1131.65 54.7834 1150.02 54.325 1168.36 53.7832C1186.7 53.2414 1204.55 52.7747 1222.47 52.0579C1241.4 51.3078 1259.91 52.1579 1278.59 52.4496C1279.7 52.4496 1280.78 52.4913 1282.06 52.4996C1301.44 52.6497 1320.86 52.6497 1340.17 52.9664C1383.41 53.6665 1426.64 53.2498 1469.88 53.2581C1487.56 53.2966 1505.22 52.9254 1522.6 52.1496C1523.98 52.1164 1525.36 52.1164 1526.73 52.1496C1525.35 52.3996 1524.09 52.808 1522.6 52.8747C1510.45 53.3498 1498.29 53.7665 1486.07 54.2083L1437.13 55.9919C1436.92 55.3918 1436.78 54.9417 1436.61 54.5L1437.03 54.3333L1436.65 54.5083C1435.9 54.6956 1435.22 54.8993 1434.63 55.1168C1429.8 57.2255 1430.88 57.7422 1440.67 57.6922C1457.83 57.6089 1474.96 57.47 1492.07 57.2755C1499.02 57.1921 1505.79 56.9671 1512.63 56.7421C1522.15 56.4253 1531.7 56.1086 1541.18 55.7002C1556.64 55.0251 1572.13 54.3916 1587.41 53.5415C1598.9 52.8893 1610.22 52.0681 1621.3 51.0827C1634.38 50.0163 1647.15 48.7381 1659.51 47.257C1676.11 45.1567 1691.66 42.5812 1708.13 40.3808C1722.88 38.2708 1738.57 36.5627 1754.91 35.2882C1761.02 36.5551 1760.05 38.0054 1757.51 39.6224C1753.8 41.9728 1750.57 44.3899 1747.58 46.7903C1746.72 47.3522 1746.4 47.9533 1746.64 48.5489C1747.48 49.9075 1744.42 50.591 1740.18 51.2577C1711.84 55.7169 1680.66 58.5924 1648.15 60.6594C1639.01 61.175 1629.72 61.5233 1620.37 61.7013C1603 62.143 1585.64 62.5348 1568.27 62.8681C1554.38 63.1599 1540.8 63.4599 1527.01 63.7016C1512.15 63.9767 1497.28 64.2601 1482.38 64.4268C1476.65 64.4934 1470.85 64.1434 1465.02 64.1267C1446.16 64.085 1427.27 64.0183 1408.41 64.1267C1392.68 64.235 1377.15 64.5768 1361.28 64.8518C1346.7 65.1102 1332.08 65.3769 1317.52 65.6853C1308.46 65.8937 1299.43 66.2187 1290.4 66.5188C1279.49 66.8772 1268.59 67.2773 1257.65 67.6357C1245.36 68.0441 1233.06 68.4691 1220.73 68.7942C1209.79 69.1109 1198.78 69.3276 1187.84 69.6693C1173.05 70.1278 1158.36 70.6695 1143.6 71.1529C1130.19 71.603 1116.82 72.0448 1103.42 72.4448C1078.74 73.118 1054.67 74.7419 1032.15 77.254C1009.16 79.9115 984.532 81.6647 959.219 82.4466C950.16 82.7135 941.048 82.8638 931.921 82.8967C904.138 83.0634 875.972 83.2384 847.98 83.2551C829.157 83.2551 810.333 83.0634 791.51 82.8717C771.922 82.6633 752.335 82.3132 732.747 82.0965C715.591 81.9048 698.435 81.8132 681.278 81.6798C666.345 81.5631 651.411 81.3464 636.477 81.3547C619.112 81.3547 601.748 81.6715 584.174 81.6548C561.461 81.6548 538.748 81.4798 516.035 81.2631C498.948 81.1047 481.792 80.8963 464.774 80.4296C433.371 79.7059 401.803 79.4804 370.275 79.7545C356.835 79.8295 343.429 80.4546 329.989 80.7546C308.7 81.2297 288.314 82.5966 267.476 83.5718C251.439 84.3066 234.998 84.3827 218.855 83.7969C209.86 83.4801 200.656 83.5051 191.557 83.3051C175.651 82.9467 159.745 82.5216 143.804 82.1549C129.912 81.8382 115.673 81.6965 101.746 81.2464C75.2826 80.4129 48.7145 80.4713 22.1116 80.4796C19.9237 80.4796 17.701 80.4796 15.4783 80.5546C14.9921 80.5546 14.5406 80.663 13.6029 80.7796C14.6795 81.5298 17.2842 81.6131 19.9584 81.6798C29.3354 81.8298 38.7124 81.9299 48.0894 82.0882C62.9883 82.3299 77.8525 82.58 92.7168 82.8633C106.609 83.1217 120.223 83.3801 133.975 83.6968C146.86 84.0135 159.71 84.4386 172.595 84.7804C179.992 84.9804 187.424 85.1638 194.856 85.2554C210.068 85.4388 225.279 85.5555 240.491 85.7055C241.88 85.7055 243.235 85.7722 244.624 85.8055C243.825 86.4723 241.568 86.4473 239.275 86.4807C231.843 86.589 224.446 86.7474 217.014 86.8641C199.927 87.1391 182.84 87.4975 165.753 87.6475C139.741 87.8726 113.659 87.9476 87.681 88.0893C84.9084 88.0527 82.1275 88.0834 79.3807 88.181C72.3276 88.481 65.1097 88.481 58.0567 88.181C48.6787 88.0447 39.2775 88.0253 29.8911 88.1226C40.553 88.606 51.1456 88.9561 61.8075 89.2145C81.2908 89.6562 100.809 90.048 120.327 90.4063C134.67 90.6397 149.048 90.8148 163.426 90.7981C184.75 90.7981 206.039 90.5647 227.363 90.4314H229.03C250.25 90.173 271.504 89.8229 292.759 89.6812C310.784 89.5562 328.843 89.7229 346.868 89.6312C354.579 89.5669 362.257 89.3523 369.824 88.9894C386.555 88.1584 403.492 87.5877 420.529 87.2808C437.894 87.0641 455.259 86.9807 472.797 86.8724C498.288 86.714 523.745 86.614 549.202 86.4473C560.802 86.364 572.401 86.1723 583.931 86.0306H585.564C597.858 85.6472 610.187 85.3221 622.447 84.872C630.782 84.572 639.047 84.1052 647.348 83.7135C663.705 83.7135 680.063 83.6135 696.42 83.7135C716.841 83.8719 737.262 84.1136 757.649 84.547C779.98 84.9971 802.345 85.0554 824.677 85.3805C852.946 85.8055 881.182 85.7639 909.382 85.5805C937.582 85.3971 966.408 85.3388 993.844 83.2467C1006.46 82.293 1018.77 81.1259 1030.69 79.7545C1052.45 77.1317 1075.96 75.4528 1100.15 74.7953C1120.16 74.3035 1139.99 73.4867 1159.96 72.9033C1172.81 72.5282 1185.79 72.3531 1198.68 72.0698C1211.56 71.7864 1225.49 71.3196 1238.9 70.9612C1250.43 70.6528 1261.96 70.3945 1273.63 70.0778C1283.21 69.811 1292.76 69.486 1302.35 69.1943C1310.54 68.9526 1318.74 68.6775 1326.97 68.4941C1345.62 68.0857 1364.3 67.7107 1382.99 67.3439C1386.03 67.3232 1389.08 67.3399 1392.12 67.3939C1391.71 67.569 1391.46 67.8607 1390.91 67.894C1382.88 68.3774 1374.9 68.9109 1366.8 69.2776C1357.6 69.686 1348.26 69.9361 1339.02 70.2611C1325.37 70.7362 1311.76 71.2446 1298.11 71.6864C1287.69 72.0198 1277.27 72.2615 1266.85 72.5782C1255.36 72.9283 1243.93 73.32 1232.47 73.7034C1221.84 74.0618 1211.18 74.4118 1200.59 74.8203C1186.7 75.3537 1172.81 75.9038 1158.91 76.4872C1147.63 76.9873 1136.41 77.5874 1125.16 78.1542C1128.32 78.3912 1131.65 78.4762 1134.95 78.4042C1145.92 78.1875 1156.9 77.8625 1167.87 77.7041C1182.22 77.4957 1196.63 77.4291 1210.97 77.254C1218.41 77.1623 1225.84 76.9957 1233.23 76.8039C1241.47 76.5956 1249.63 76.2788 1257.86 76.0955C1272.13 75.7788 1286.48 75.5787 1300.71 75.262C1313.04 74.9536 1325.3 74.4285 1337.6 74.1368C1355.74 73.7619 1373.7 72.9863 1391.25 71.8197C1397.59 71.3276 1404.32 71.1907 1410.91 71.4197C1419.58 71.7922 1428.36 72.0123 1437.17 72.0781C1450.43 72.0781 1463.67 71.8447 1476.93 71.7197C1492.42 71.5752 1507.9 71.4447 1523.37 71.328C1539.69 71.1863 1555.98 71.0779 1572.3 70.9112C1581.68 70.8195 1591.09 70.7945 1600.4 70.4945C1615.92 69.9944 1631.37 69.3276 1646.83 68.6775C1656.9 68.2608 1666.9 67.7857 1676.87 67.2856C1689.58 66.6355 1702.22 65.9354 1715.07 65.2519C1713.6 64.9902 1711.75 64.8793 1709.93 64.9435C1700.07 65.1852 1690.24 65.5603 1680.34 65.6686C1661 65.8937 1641.62 65.9854 1622.28 66.102C1613.38 66.1521 1604.49 66.102 1595.64 66.1854C1583.55 66.3521 1571.33 66.6605 1559.38 66.9105C1555.28 67.0022 1551.18 67.1689 1547.09 67.2106C1542.99 67.2523 1537.54 67.644 1533.37 66.8855ZM1369.03 90.423V89.6979C1365.8 89.6979 1362.57 89.6979 1359.37 89.6979C1350.03 89.5479 1340.41 89.6396 1331.38 89.1228C1318.84 88.406 1306.13 88.5477 1293.56 88.156C1282.03 87.8431 1270.43 87.7012 1258.83 87.7309C1232.54 87.6892 1206.32 87.3475 1180.1 86.9391C1167.37 86.7854 1154.62 86.7854 1141.9 86.9391C1129.22 87.0391 1116.61 86.7724 1103.94 86.8557C1082.93 87.0058 1061.95 87.0474 1041.04 87.6892C1024.93 88.1893 1008.74 88.5227 992.42 88.9644C976.097 89.4062 960.087 89.7979 943.799 90.0896C931.401 90.3147 918.967 90.4147 906.534 90.498C880.788 90.6647 855.042 90.8009 829.296 90.9064C816.55 90.9565 803.769 90.9064 791.093 90.9064C788.662 90.9064 786.231 90.9565 783.8 90.9815C793.385 91.3037 802.971 91.5371 812.556 91.6816C824.399 91.8649 836.276 91.9566 848.154 92.1233C856.419 92.24 864.65 92.39 872.916 92.5484C885.835 92.7901 898.72 93.2069 911.674 93.2652C947.064 93.4069 982.453 93.3986 1017.67 92.1567C1032.08 91.6399 1046.77 91.5149 1061.36 91.3232C1077.65 91.1148 1093.97 90.9565 1110.29 90.9398C1123.25 90.9398 1136.24 91.2982 1149.22 91.2565C1178.02 91.1648 1206.81 91.5066 1235.63 90.9731C1260.71 90.5147 1285.99 90.6064 1311.17 90.5064C1327.84 90.448 1344.47 90.5064 1361.14 90.5064C1363.89 90.4814 1366.42 90.448 1369.03 90.423ZM1361.7 56.7921V56.6087C1348.57 56.3003 1335.48 55.7752 1322.35 55.7752C1300.23 55.7752 1278.11 55.4668 1255.95 56.0503C1236.78 56.5587 1217.4 56.6504 1198.12 56.8837C1186.52 57.0421 1174.92 57.1505 1163.39 57.3088C1159.89 57.4519 1156.35 57.5299 1152.8 57.5422C1135.46 57.0348 1117.91 57.1443 1100.71 57.8673C1092.06 58.2757 1083.59 58.8924 1074.9 59.2592C1059.17 59.9176 1043.37 60.4677 1027.57 61.0428C1009.85 61.6763 992.142 62.2764 974.465 62.9015C961.372 63.3599 948.279 63.81 935.255 64.3101C924.385 64.7351 913.584 65.2686 902.714 65.6936C889.76 66.2104 876.806 66.6688 861.907 67.2189C871.943 67.4023 880.14 67.6273 888.336 67.6773C901.082 67.744 913.862 67.6773 926.538 67.6773C928.761 67.6773 930.984 67.6773 933.172 67.619C943.313 67.3856 953.454 67.1106 963.595 66.8939C972.138 66.7188 980.682 66.6605 989.19 66.4354C1006.97 65.9604 1024.75 65.4686 1042.47 64.8768C1058.58 64.3434 1074.56 63.6766 1090.6 63.0515C1098.13 62.6488 1105.75 62.34 1113.42 62.1263C1130.51 61.8763 1147.66 61.843 1164.82 61.6846C1175.03 61.6669 1185.24 61.5111 1195.38 61.2178C1218.51 60.3844 1241.5 59.2925 1264.56 58.334C1282.71 57.5087 1301.11 57.0266 1319.57 56.8921C1331.52 56.8421 1343.43 56.8921 1355.38 56.8921C1357.57 56.8754 1359.62 56.8254 1361.7 56.7921ZM791.927 59.0341C788.732 58.8591 785.571 58.6591 782.376 58.509C762.094 57.5672 741.673 56.7587 721.53 55.6835C697.81 54.4083 674.402 52.8247 650.716 51.5161C642.031 51.1506 633.242 50.9445 624.426 50.8994C623.176 50.8994 621.821 51.2578 619.842 51.5495C675.93 57.0004 733.616 58.384 791.927 59.0341ZM1404.56 90.4063C1393.96 89.7896 1392.96 89.7979 1385.56 90.4063H1404.56ZM1376.36 89.8646L1375.76 90.1897C1376.22 90.2397 1376.77 90.348 1377.12 90.3147C1377.47 90.2813 1377.54 90.1146 1377.74 89.9979L1376.36 89.8646ZM584.522 49.8992C584.522 49.8575 584.522 49.7992 584.209 49.7825C583.897 49.7658 583.793 49.7825 583.584 49.7825L584.001 49.9658L584.522 49.8992Z" fill="#A76633"/>
<path d="M1186.98 51.2911C1177.94 50.0121 1167.88 49.2028 1157.46 48.9157C1143.35 48.3239 1128.98 48.0822 1114.98 47.4154C1095.74 46.4402 1077.61 44.5899 1059.41 42.7896C1044.38 41.2893 1029.23 39.8307 1014.27 38.3138C1012.18 38.0507 1010.22 37.7379 1008.4 37.3803C1016.21 37.8054 1023.95 38.2721 1031.77 38.6472C1050.94 39.5473 1069.97 40.4725 1089.39 41.2476C1102.69 41.7727 1116.16 42.0395 1129.53 42.4479C1137.07 42.6812 1144.57 42.9813 1152.07 43.2813C1149.68 42.7289 1146.79 42.3155 1143.63 42.0728C1115.67 39.7945 1087 38.0499 1057.89 36.8552C1040.87 36.0801 1024.2 34.8382 1007.53 33.663C998.568 33.0295 990.163 32.0377 981.168 31.3292C965.713 30.0873 950.224 28.8788 934.63 27.7619C917.266 26.5117 899.901 25.3115 882.189 24.1946C862.428 22.9444 842.632 21.6942 822.732 20.6523C813.255 20.2277 803.691 19.9244 794.08 19.7438C791.525 19.7262 788.968 19.7624 786.439 19.8522V20.2939L821.447 23.0361C847.147 25.042 872.858 27.0562 898.581 29.0788C913.029 30.2207 927.476 31.3626 941.819 32.5628C944.459 32.7795 948.21 32.6961 949.043 33.6546C923.065 32.071 896.949 30.6124 871.179 28.8704C824.329 25.7199 777.757 22.2943 730.837 19.2021C716.008 18.2186 700.449 17.8935 685.203 17.3017C672.422 16.8016 659.607 16.3016 646.792 15.8765C635.215 15.5042 623.639 15.1902 612.062 14.9346C597.233 14.6263 582.334 14.4012 567.47 14.1512C558.648 14.0011 549.827 13.8261 540.971 13.7428C524.127 13.5677 507.249 13.4177 490.37 13.3177C464.045 13.151 437.72 13.1343 411.43 12.8593C392.433 12.6509 373.47 12.1175 354.473 11.7591C344.853 11.5757 335.164 11.4924 325.544 11.3007C315.924 11.109 305.783 10.8339 295.885 10.6005C295.051 10.6005 294.252 10.5505 293.419 10.5422C281.263 10.3922 269.108 10.2755 256.953 10.0921C251.446 10.0241 246.013 9.75719 240.838 9.30032C245.735 9.30032 250.667 9.30032 255.564 9.30032C261.363 9.23364 267.129 8.99193 272.928 9.00026C290.293 9.00026 307.658 9.10861 325.023 9.17529C325.825 9.21529 326.637 9.24313 327.454 9.25864C355.967 8.68354 384.41 9.61704 412.888 9.35866C426.428 9.30341 439.94 9.04733 453.348 8.59186C462.39 8.30559 471.492 8.14418 480.611 8.10844C498.601 7.94174 516.591 7.80838 534.581 7.7417C540.068 7.7417 545.555 8.09177 551.043 8.06676C569.032 7.99175 587.022 7.87506 605.012 7.66669C621.821 7.47777 638.63 7.21383 655.44 6.87488C670.269 6.58316 685.029 6.14142 699.859 5.77469C702.068 5.74554 704.282 5.74554 706.492 5.77469C746.466 5.77469 786.37 5.77469 826.413 5.72468C831.395 5.71647 836.309 6.00271 840.722 6.55816C863.504 9.33365 886.044 12.2342 909.278 14.7596C937.061 17.7852 965.123 20.594 993.462 23.2778C1033.71 27.0785 1075.53 29.6623 1117.62 31.9877C1148.01 33.6546 1178.64 35.0882 1209.2 36.6135C1224.07 37.3553 1238.9 38.1221 1253.83 38.7805C1271.81 39.5802 1290.21 39.6815 1308.32 39.0806C1309.7 39.0349 1311.1 39.0181 1312.49 39.0306C1319.92 39.1389 1327.39 39.4223 1334.78 39.3556C1349.93 39.2056 1364.37 40.1475 1379.1 40.6642C1385.64 40.926 1392.28 41.0099 1398.89 40.9142C1410.98 40.6559 1423.21 40.2475 1434.98 39.7557C1455.64 38.9222 1476.27 37.9887 1496.8 36.9636C1522.96 35.484 1548.4 33.3439 1572.68 30.5791C1595.98 28.0786 1619.6 25.8116 1643.22 23.5278C1649.67 22.9338 1656.33 22.4765 1663.12 22.1609C1680.38 21.1811 1697.13 19.7501 1713.09 17.8935C1715.35 17.6601 1717.75 17.5018 1720.04 17.3101L1721.6 17.2434C1721.99 17.2182 1722.4 17.2182 1722.78 17.2434L1756.71 17.3017C1751.68 19.3521 1747.82 21.4275 1751.23 23.9196C1751.68 24.635 1751.68 25.3628 1751.23 26.0783C1734.07 27.0368 1719.55 29.3039 1704.17 31.0375C1695.42 32.021 1687.84 33.7546 1680.55 35.3549C1672.22 37.1803 1664.02 38.7389 1652.07 39.0639C1634.33 39.5473 1618.14 41.406 1601.54 42.8563C1576.57 45.04 1551.36 46.9737 1524.79 47.7155C1509.2 48.1489 1493.71 48.8323 1478.08 49.2074C1465.44 49.5158 1452.69 49.5991 1439.88 49.6575C1404.66 49.8408 1369.41 49.7075 1334.3 50.1659C1303.04 50.5743 1271.78 50.1659 1240.53 50.4826C1227.3 50.5993 1214.1 50.9827 1200.9 51.2077C1196.21 51.2828 1191.46 51.2077 1186.77 51.2577L1186.98 51.2911ZM765.81 15.9932L766.192 15.7348C765.441 15.5678 764.585 15.43 763.657 15.3264C754.731 14.6263 745.945 13.7928 736.811 13.301C719.898 12.3925 702.811 11.6341 685.724 10.9089C669.687 10.2162 653.387 9.93677 637.102 10.0754C632.935 10.0754 628.767 10.1255 624.635 10.0754C612.903 9.97762 601.181 10.3265 589.905 11.109C591.329 11.309 592.197 11.5174 593.169 11.5507C599.178 11.7591 605.186 11.9675 611.229 12.0758C616.473 12.1675 621.648 12.0758 627.031 12.1675C636.894 12.3675 646.722 12.6676 656.62 12.8843C665.129 13.076 673.673 13.1927 682.181 13.3677C692.6 13.5927 703.019 13.8178 713.438 14.0928C725.489 14.4179 737.505 14.7513 749.487 15.1597C754.94 15.3347 760.358 15.7098 765.81 15.9932ZM770.811 16.1849L770.082 16.2349C770.082 16.2765 770.082 16.3682 770.255 16.3682C770.496 16.3797 770.744 16.3797 770.985 16.3682L770.811 16.1849ZM1157.63 43.5147L1156.48 43.4314C1156.48 43.4814 1156.48 43.5731 1156.66 43.5731C1156.99 43.5629 1157.32 43.5433 1157.63 43.5147Z" fill="#A76633"/>
<path d="M24.2649 21.6775C23.7439 19.8939 23.2925 18.1102 22.7021 16.3266C22.1117 14.5429 21.4518 12.5342 20.7225 10.4339C22.0929 10.2575 23.589 10.1444 25.1331 10.1005C36.1771 10.1671 47.1864 10.3172 58.2304 10.4005C63.2314 10.4422 68.2325 10.4672 73.1988 10.4005C79.5543 10.3338 85.8404 10.1421 92.1959 10.0754C107.651 9.90875 123.14 9.65871 138.629 9.70039C151.271 9.70039 163.912 10.1505 176.554 10.4088L198.017 10.8423C212.881 11.1256 227.745 11.3674 242.575 11.6757C258.516 12.0175 274.422 12.4425 290.328 12.8093C298.038 12.976 305.748 13.1093 313.458 13.2343C323.39 13.3927 333.323 13.4844 343.256 13.6844C352.563 13.8678 361.871 14.1512 371.213 14.3846C372.29 14.3846 373.401 14.3846 374.512 14.4346C401.671 14.5846 428.795 14.7179 455.918 14.8763C476.964 14.993 498.011 15.093 519.022 15.293C539.443 15.4931 559.864 15.7931 580.285 16.0849C597.927 16.3266 615.605 16.4933 633.178 16.9183C648.251 17.2767 663.254 17.8685 678.153 18.5269C696.073 19.3104 713.994 20.1106 731.601 21.2024C754.106 22.5943 776.368 24.1863 798.525 25.8449C851.314 29.804 903.999 33.8213 957.83 36.9386C984.692 38.55 1010.88 40.7484 1036.08 43.5064C1056.29 45.6734 1077.02 47.5404 1097.62 49.4908C1102.31 49.8789 1107.09 50.2072 1111.92 50.4743C1109.65 50.6085 1107.31 50.6591 1104.98 50.6243C1095.56 50.0837 1085.82 49.9315 1076.19 50.1742C1067.5 50.5144 1058.73 50.7315 1049.93 50.8243C1037.22 50.8243 1024.51 50.5743 1011.73 50.4826C990.406 50.3243 969.117 50.2242 947.828 50.0575C938.451 49.9825 929.039 49.8325 919.731 49.6158C914.22 49.5713 908.772 49.321 903.582 48.874C888.961 47.3154 873.02 47.107 857.878 46.1318C851.522 45.7151 844.889 45.5317 838.395 45.2984C825.892 44.7899 813.424 44.2732 800.922 43.8148C784.564 43.2147 768.206 42.6729 751.849 42.0978C737.679 41.606 723.544 41.106 709.375 40.6225C703.679 40.4225 697.983 40.2558 692.288 40.0724C699.132 40.7963 706.281 41.3412 713.612 41.6977C740.458 43.198 767.442 44.5649 794.115 46.2485C816.307 47.6404 838.673 48.749 861.177 49.7658C871.978 50.2576 883.265 50.666 893.059 51.7662C904.001 52.8612 915.639 53.5011 927.476 53.6582C939.562 53.9582 951.787 53.9582 963.907 54.1249C965.217 54.1969 966.471 54.3179 967.623 54.4833C957.218 54.9482 946.671 55.2075 936.089 55.2585C922.857 55.2585 909.59 55.0834 896.358 54.8751C888.927 54.7956 881.538 54.5642 874.27 54.1833C841.555 52.3079 808.944 50.2992 776.194 48.4072C766.574 47.8488 756.641 47.5738 746.987 47.082C727.121 46.0068 707.326 44.8066 687.46 43.7481C666.622 42.6146 645.299 41.8394 624.947 40.1891C610.326 39.0056 595.357 38.0387 580.563 36.9636C575.805 36.6218 571.116 36.2218 566.428 35.8467C555.175 34.9465 543.888 34.0714 532.705 33.1212C513.465 31.4542 494.294 29.7873 475.124 28.1203C473.804 28.012 472.519 27.8619 471.234 27.7369C530.865 28.5704 589.315 31.5543 648.563 32.7378C648.377 32.6346 648.105 32.5415 647.765 32.4642C647.425 32.3868 647.023 32.3268 646.583 32.2877C631.302 31.1459 616.091 29.9456 600.671 28.9038C585.916 27.8084 570.926 26.9042 555.766 26.195C531.455 25.2115 507.874 23.6362 483.285 23.2028C473.978 23.0361 464.705 22.6444 455.502 22.561C448.556 22.5027 441.61 22.8777 434.872 22.8861C418.376 22.8861 401.844 22.9277 385.313 22.7944C368.782 22.661 352.841 22.2109 336.692 22.1609C319.327 22.1609 301.962 22.5026 284.598 22.486C257.474 22.486 230.35 22.2026 203.226 22.1359C177.387 22.0692 151.583 22.1359 125.779 22.1359C119.493 22.1359 113.207 22.1359 106.921 22.1359C100.635 22.1359 94.8006 22.3193 88.7576 22.386C84.9745 22.4318 81.1842 22.4318 77.4011 22.386C59.5501 22.1526 41.9075 21.9109 24.2649 21.6775Z" fill="#A76633"/>
<path d="M22.6673 102.083C53.4724 102.083 84.3122 102.158 115.083 102.083C128.974 102.033 143.144 101.6 157.175 101.35C165.961 101.2 174.783 101.083 183.604 100.917C188.536 100.825 193.467 100.7 198.364 100.508C210.56 100.105 222.87 99.9382 235.177 100.008C256.744 100.008 278.346 99.733 299.913 99.7163C315.125 99.7163 330.336 100.066 345.513 100.016C358.467 99.9747 371.352 100.15 384.271 100.116C410.839 100.041 437.373 100.116 463.941 100.066C479.707 100.117 495.473 99.9666 511.173 99.6163C527.424 99.1989 543.793 99.1097 560.107 99.3496C611.264 99.9664 662.42 99.4996 713.542 99.708C729.031 99.7663 744.486 99.9414 759.975 100.116C781.438 100.35 802.936 101 824.329 100.817C900.734 100.166 976.861 100.717 1053.13 100.458C1062.16 100.458 1071.15 100.008 1080.18 99.7663C1081.02 99.7663 1081.85 99.7163 1082.68 99.708C1097.03 99.5663 1111.4 99.3246 1125.78 99.3079C1176.56 99.2579 1227.37 99.3079 1278.14 99.2496C1293.56 99.2496 1308.98 98.7745 1324.37 98.5328C1326.59 98.5328 1328.81 98.4911 1331.03 98.4911C1360.73 98.4911 1390.42 98.4911 1420.11 98.4911C1436.16 98.4911 1452.2 98.8829 1468.21 98.8162C1484.23 98.7495 1501.14 98.3161 1517.6 98.1077C1525.62 98.016 1533.71 98.1577 1541.91 98.0494C1554.83 97.866 1567.75 97.5743 1580.63 97.3159C1586.4 97.1992 1592.16 97.0075 1598 96.8992C1606.51 96.7325 1615.05 96.6075 1623.6 96.4658C1638.98 96.2074 1654.4 95.9073 1669.82 95.699C1684.71 95.5248 1699.47 94.9659 1713.86 94.032C1716.53 93.8762 1718.94 93.5339 1720.8 93.0485C1719.68 92.9599 1718.51 92.9012 1717.33 92.8735C1704.38 92.9902 1691.39 93.1068 1678.43 93.2569C1670.72 93.3485 1663.01 93.5652 1655.3 93.6069C1649.54 93.6069 1643.74 93.4819 1637.94 93.3902C1636.86 93.3322 1635.77 93.2932 1634.67 93.2735C1614.81 93.7736 1594.98 93.0318 1575.11 93.2152C1562.67 93.284 1550.26 92.8847 1538.33 92.0316C1537.14 91.9157 1535.98 91.7821 1534.86 91.6316C1536.11 91.3065 1536.84 90.9565 1537.74 90.9148C1545.57 90.5381 1553.48 90.2599 1561.43 90.0813C1577.44 89.8479 1593.48 89.7896 1609.49 89.6395C1621.93 89.5229 1634.36 89.4229 1646.79 89.2395C1661.66 89.0311 1676.49 88.7394 1691.35 88.4893C1700.69 88.331 1710.07 88.2143 1719.45 88.0559C1726.6 87.9309 1733.76 87.7892 1740.88 87.5975C1742.23 87.5975 1743.45 87.2391 1746.5 86.764C1737.13 86.1889 1729.62 85.6472 1721.98 85.2804C1714.46 84.8688 1706.8 84.6123 1699.1 84.5136C1692.22 84.5694 1685.37 84.7449 1678.61 85.0387C1676.97 85.0387 1675.34 85.2054 1673.71 85.2304C1662.67 85.3721 1651.62 85.4305 1640.61 85.6638C1625.82 85.9722 1611.06 86.5807 1596.23 86.739C1583.59 86.8724 1571.92 87.8559 1559.87 88.556C1548.39 89.2857 1536.56 89.65 1524.69 89.6395C1501.17 89.5062 1477.63 89.3062 1454.11 89.2811C1445.36 89.2811 1436.75 89.7396 1427.82 89.8896C1422.04 89.9621 1416.24 89.9426 1410.46 89.8312C1416.05 89.6312 1421.71 89.5395 1427.16 89.2145C1430.07 89.1156 1432.76 88.7918 1434.83 88.2924C1436.9 87.793 1438.23 87.1451 1438.63 86.4473C1458.76 86.3661 1478.83 85.8613 1498.6 84.9387C1510.04 84.5063 1521.56 84.2114 1533.12 84.0552C1545.77 83.8302 1558.55 83.8802 1571.33 83.6051C1585.22 83.2884 1599.11 82.7717 1613 82.2716C1630.37 81.6048 1647.73 80.8046 1665.1 80.0629C1665.93 80.0502 1666.76 80.0502 1667.6 80.0629C1682.22 79.9295 1696.91 79.9378 1711.5 79.6128C1723.51 79.3544 1735.39 78.6959 1747.34 78.2292C1749.45 78.1458 1751.61 78.1292 1754.28 78.0708C1754.04 79.0627 1753.9 79.8962 1753.55 80.7296C1752.2 83.9552 1756.09 87.0558 1757.37 90.2147C1758.28 92.3817 1759.7 94.5488 1760.12 96.7241C1760.6 99.2246 1760.43 101.792 1760.12 104.317C1760.12 105.626 1759.07 106.926 1758.48 108.243C1747.09 108.801 1736.78 108.243 1726.43 107.984C1717.43 107.718 1708.4 107.443 1699.34 107.293C1692.98 107.184 1686.59 107.293 1680.2 107.293C1664.74 107.351 1649.27 107.1 1633.98 106.543C1624.38 106.266 1614.72 106.118 1605.05 106.101C1595.64 106.034 1586.19 106.176 1576.78 106.059C1564.38 105.901 1552.09 105.492 1539.69 105.359C1518.85 105.134 1498.22 104.967 1477.49 104.926C1464.5 104.926 1451.51 105.276 1438.56 105.242C1429.25 105.242 1419.94 104.801 1410.77 104.576C1408.57 104.514 1406.36 104.486 1404.14 104.492C1366.45 104.62 1328.78 104.759 1291.13 104.909C1284.81 104.909 1278.49 105.142 1272.2 105.267C1271.09 104.042 1266.92 104.509 1264.04 104.509C1217.22 104.509 1170.27 104.459 1123.52 104.509C1110.01 104.509 1096.5 104.759 1082.99 104.901H1082.16C1065.51 105.477 1048.7 105.742 1031.87 105.692C1009.44 105.642 986.968 105.692 964.533 105.692C961.612 105.751 958.718 105.871 955.885 106.051C945.466 105.926 935.047 105.667 924.455 105.692C897.053 105.751 869.651 106.026 842.25 106.017C828.775 106.017 815.3 105.567 801.859 105.317C801.304 105.317 800.748 105.317 800.192 105.317C772.235 105.176 744.278 104.984 716.32 104.942C707.291 104.942 698.226 105.334 689.197 105.501C687.023 105.493 684.858 105.431 682.737 105.317C679.927 105.119 677.042 104.987 674.124 104.926C648.494 104.926 622.828 104.926 597.198 104.926C592.546 104.899 587.906 104.802 583.306 104.634C580.806 104.559 579.625 104.751 579.382 105.326C568.963 105.326 558.544 105.376 548.125 105.326C541.179 105.326 534.546 105.092 527.774 104.967C525.827 104.767 523.767 104.638 521.661 104.584C516.174 104.642 510.722 104.917 505.234 104.934C485.855 104.984 466.476 105.026 447.097 104.934C427.718 104.842 408.026 105.184 388.508 104.976C365.865 104.742 343.186 105.192 320.543 104.609C309.208 104.442 297.842 104.442 286.508 104.609C284.148 104.676 281.821 104.799 279.562 104.976C269.733 104.742 259.87 104.509 250.007 104.292C247.541 104.234 245.041 104.192 242.54 104.192C218.403 104.192 194.266 104.117 170.164 104.192C160.578 104.192 150.993 104.651 141.408 104.876C134.01 105.051 126.578 105.159 119.181 105.367C107.164 105.709 95.2173 106.201 83.1662 106.443C66.7044 106.718 50.2426 107.518 33.6419 106.609C30.1338 106.486 26.5944 106.422 23.0493 106.418L22.6673 102.083Z" fill="#8B5327"/>
<path d="M24.2649 21.6775C41.9075 21.9109 59.5501 22.1526 77.158 22.3693C80.9411 22.4151 84.7314 22.4151 88.5145 22.3693C94.5575 22.3026 100.6 22.1609 106.678 22.1193C112.756 22.0776 119.25 22.1193 125.536 22.1193C151.34 22.1193 177.144 22.0692 202.983 22.1193C230.107 22.1859 257.231 22.4443 284.354 22.4693C301.719 22.4693 319.084 22.1026 336.449 22.1443C352.737 22.1943 368.956 22.6527 385.07 22.7777C401.185 22.9027 418.133 22.9027 434.629 22.8694C441.575 22.8694 448.521 22.486 455.258 22.5443C464.601 22.6277 473.874 23.0194 483.042 23.1861C507.631 23.6195 531.351 25.1948 555.523 26.1783C570.682 26.8875 585.673 27.7917 600.428 28.8871C615.848 29.929 631.059 31.1292 646.34 32.271C646.78 32.3101 647.182 32.3702 647.522 32.4475C647.862 32.5249 648.134 32.6179 648.32 32.7211C589.002 31.5709 530.622 28.6037 470.991 27.7203C472.276 27.8453 473.561 27.9953 474.881 28.1036C494.051 29.7706 513.083 31.4376 532.462 33.1045C543.645 34.0547 554.932 34.9299 566.185 35.83C570.873 36.2051 575.562 36.6052 580.32 36.9469C595.114 38.0221 610.083 38.9889 624.704 40.1724C645.125 41.8394 666.379 42.5979 687.217 43.7314C707.082 44.8066 726.878 46.0068 746.743 47.0653C756.398 47.5821 766.331 47.8321 775.951 48.3906C808.701 50.2826 841.312 52.2913 874.027 54.1666C881.295 54.5475 888.684 54.779 896.115 54.8584C909.347 55.0668 922.614 55.2585 935.846 55.2418C946.428 55.1908 956.975 54.9316 967.38 54.4667C966.228 54.3012 964.974 54.1802 963.664 54.1082C951.509 53.9416 939.354 53.9416 927.233 53.6415C915.396 53.4844 903.757 52.8446 892.816 51.7495C883.022 50.6493 871.735 50.2409 860.934 49.7491C838.429 48.7073 816.064 47.6238 793.871 46.2319C767.199 44.5649 740.214 43.1813 713.368 41.6811C706.038 41.3246 698.889 40.7796 692.044 40.0558C697.74 40.2391 703.436 40.4058 709.131 40.6059C723.301 41.0893 737.436 41.5894 751.606 42.0811C767.963 42.6562 784.321 43.198 800.678 43.7981C813.181 44.2565 825.649 44.7733 838.152 45.2817C844.646 45.5484 851.279 45.7318 857.635 46.1152C872.777 47.0903 888.718 47.2987 903.339 48.8573C908.529 49.3043 913.977 49.5546 919.488 49.5991C928.796 49.8158 938.208 49.9659 947.585 50.0409C968.874 50.2076 990.163 50.3076 1011.49 50.4659C1024.16 50.5576 1036.87 50.8327 1049.69 50.8077C1058.49 50.7149 1067.25 50.4978 1075.94 50.1576C1085.58 49.9148 1095.31 50.067 1104.74 50.6076C1107.07 50.6424 1109.41 50.5918 1111.68 50.4576L1116.75 50.841C1113.28 51.1161 1109.81 51.3494 1106.33 51.6745C1104.32 51.9136 1102.39 52.1924 1100.57 52.508L1103.42 53.2748C1102.35 53.4485 1101.18 53.5807 1099.94 53.6665C1091.68 53.8332 1083.41 53.8999 1075.18 54.0999C1054.9 54.5833 1034.65 55.1251 1014.4 55.6585C998.776 56.0669 983.148 56.4337 967.589 56.9171C949.043 57.5005 930.567 58.1923 912.021 58.8174C909.821 58.8922 907.588 58.8922 905.388 58.8174C893.997 58.3673 882.64 57.8673 871.249 57.3922C851.175 56.5587 831.102 55.7252 811.063 54.8334C802.936 54.475 794.879 53.9999 786.752 53.5832C772.513 52.8164 758.308 52.0162 744.035 51.2661C730.594 50.5493 717.084 49.9242 703.679 49.174C690.273 48.4239 676.451 47.5071 662.802 46.7236C642.694 45.5734 622.655 44.2982 602.338 43.3897C573.79 42.0728 546.319 39.8474 518.293 38.1054C493.461 36.5551 468.56 35.0799 443.485 33.763C433.066 33.2129 422.161 33.1795 411.499 32.8545C404.97 32.6544 398.476 32.3461 391.947 32.121C386.536 31.8779 381.056 31.7331 375.554 31.6876C362.565 31.7293 349.611 32.0544 336.622 32.0043C324.814 32.0043 313.006 31.6043 301.198 31.3709C300.122 31.3709 299.01 31.2875 297.934 31.2709C286.89 31.1292 275.776 31.1709 264.836 30.8208C246.048 30.2123 227.19 30.7041 208.436 30.4374C149.118 29.6039 89.7995 30.2957 30.4815 30.0623C28.2935 30.0623 26.1055 30.004 23.5356 29.9706C20.3404 27.1702 24.6469 24.428 24.2649 21.6775Z" fill="#8B5327"/>
<path d="M1569.97 18.0769C1585.46 16.1515 1600.88 14.1762 1616.51 12.3259C1632.14 10.4755 1648.6 8.68354 1664.71 6.89989C1666.71 6.67545 1668.87 6.5426 1671.07 6.50816C1684.96 6.33313 1698.85 6.19977 1712.54 6.05808C1725.25 5.92472 1737.99 5.78303 1750.74 5.69968C1758.21 5.64967 1758.55 5.69968 1760.39 7.45833C1762.24 9.21697 1763.55 11.1673 1765.26 13.1843C1756.47 13.4677 1748.59 13.7094 1740.7 13.9761C1724.07 14.5346 1708.82 16.1515 1693.19 17.5018C1681.2 18.5119 1669.01 19.377 1656.66 20.0939C1639.2 21.1666 1622.18 22.6173 1605.81 24.428C1575.53 27.7202 1545.49 31.1542 1513.57 33.5129C1488.55 35.4583 1462.87 36.8696 1436.82 37.7304C1422.93 38.1471 1409.04 38.8556 1395.14 39.1389C1386.31 39.1988 1377.47 39.0846 1368.71 38.7972C1358.3 38.5888 1347.88 38.2138 1337.46 38.0887C1319.82 37.872 1302.14 37.9637 1284.57 37.6137C1269.69 37.2917 1254.92 36.7348 1240.35 35.9467C1189.27 33.2546 1138.25 30.5124 1087.37 27.6119C1067.75 26.495 1048.44 25.0198 1029.3 23.4445C1004.99 21.4858 980.682 19.4354 956.579 17.1767C937.756 15.4097 919.523 13.2844 901.012 11.259C887.919 9.81708 874.965 8.28347 862.011 6.76654C859.482 6.43825 857.025 6.0794 854.648 5.69134L855.204 5.26627C862.15 5.26627 869.339 5.18292 876.354 5.26627C888.475 5.4413 900.665 5.78303 912.681 5.97473C924.698 6.16643 936.992 6.1831 949.182 6.43314C955.226 6.60654 961.183 6.92485 966.963 7.38331C1007.08 10.2338 1046.49 13.6094 1085.6 17.2101C1123.8 20.7107 1161.8 24.1279 1201.8 26.0866C1227.61 27.3535 1252.79 29.1538 1277.93 30.9792C1289.08 31.8126 1300.05 32.7795 1311.69 32.9128C1327.98 33.2155 1344.35 33.2434 1360.66 32.9962C1395.39 32.2294 1429.32 30.154 1463.01 27.9953C1484.36 26.62 1505.44 24.9864 1526.66 23.4695C1541.46 23.0611 1554.45 21.5192 1566.71 19.6438C1567.85 19.4921 1568.77 19.2613 1569.35 18.9816C1569.93 18.702 1570.15 18.3866 1569.97 18.0769Z" fill="#B68457"/>
<path d="M37.4621 36.5635L50.4857 39.2223C52.3611 39.6057 54.3406 39.9724 56.2508 40.3558C63.1967 41.7394 70.1426 43.173 77.0885 44.5232C79.2188 44.7974 81.6201 44.9271 84.0344 44.8983C102.267 45.0566 120.535 45.0733 138.768 45.3484C153.007 45.5651 167.177 46.1819 181.451 46.4319C202.288 46.7736 222.154 48.0989 242.575 48.824C250.501 49.0785 258.476 49.237 266.469 49.2991C279.712 49.4658 292.967 49.5963 306.234 49.6908C309.256 49.7489 312.291 49.6228 315.055 49.3241C323.946 48.1489 333.184 48.4406 342.561 48.724C349.924 48.949 357.356 49.1074 364.753 49.3074C380.069 49.7158 395.489 49.9825 410.423 50.9744C412.157 51.1299 413.841 51.3166 415.458 51.5328C397.538 52.3663 381.25 52.933 364.441 52.1912C357.813 52.0478 351.152 52.0172 344.506 52.0996C338.984 52.0579 333.531 51.9079 328.009 51.8412C326.393 51.8326 324.783 51.8919 323.251 52.0162C313.944 52.733 304.706 53.2748 294.877 52.583C292.41 52.4838 289.899 52.4642 287.411 52.5246H201.108C181.797 52.5574 162.525 52.9419 143.457 53.6749C126.856 54.2833 110.186 54.8084 93.585 55.3418C92.8904 55.3418 92.3 55.5085 91.2582 55.6585C92.1718 55.9566 93.3998 56.191 94.8158 56.3375C96.2319 56.484 97.785 56.5373 99.3154 56.492C118.66 56.617 138.039 56.7087 157.383 56.9171C166.17 57.0171 174.748 57.3672 183.639 57.5922C186.105 57.6506 188.605 57.6839 191.106 57.6922C196.384 57.6922 201.524 57.6922 206.908 57.6922C255.529 57.8172 303.907 57.8673 352.39 58.1506C364.232 58.2173 375.971 58.0006 387.779 58.034C400.733 58.0756 413.757 57.6255 426.676 57.7422C441.228 57.8672 455.849 57.8839 470.262 58.7341C476.548 59.1008 483.494 58.8508 490.127 58.8841C513.639 59.0175 537.22 58.9925 560.663 59.3342C582.473 59.6592 604.214 60.0426 626.024 60.126C633.738 60.2468 641.394 60.5256 648.91 60.9595C660.843 61.5133 672.98 61.773 685.133 61.7346C694.823 61.6929 704.547 61.6346 714.237 61.7346C728.302 61.9013 742.298 62.218 756.294 62.4681H758.795L824.364 62.8681C826.309 62.8681 828.254 62.8681 830.199 62.8681C836.693 62.9515 837.388 63.2182 835.269 64.8685C828.323 65.0019 821.551 65.2602 814.674 65.2352C799.22 65.1852 783.696 65.0935 768.276 64.8352C751.814 64.5601 735.387 64.0767 718.925 63.6933C717.849 63.6933 716.737 63.6933 715.626 63.6933C676.555 63.5516 637.45 63.6933 598.483 63.2015C564.101 62.7848 529.788 62.9765 495.441 62.9182C475.541 62.9182 455.641 63.2599 435.74 63.2515C414.139 63.2515 392.572 63.0348 371.005 62.8681C359.126 62.8717 347.255 62.7243 335.442 62.4264C318.841 61.868 302.205 62.4264 285.709 62.043C259.662 61.4846 233.615 61.818 207.637 61.6679C194.092 61.5846 180.583 61.4596 167.073 61.2679C153.563 61.0762 140.678 60.7594 127.516 60.5094C126.682 60.5094 125.849 60.5094 125.015 60.5094C111.471 60.3677 97.961 60.276 84.4512 60.0843C68.4756 59.862 52.5116 59.5842 36.5591 59.2508C31.697 59.1591 26.8696 58.8841 22.4242 58.7174C22.4242 56.6087 22.6326 54.55 22.4242 52.533C22.1894 52.1056 22.5104 51.6712 23.3435 51.2893C24.1765 50.9074 25.4808 50.5965 27.078 50.3993C27.5047 50.3185 27.9576 50.246 28.4324 50.1826C43.1925 48.9823 43.9218 45.6068 35.6909 42.2145C32.9828 40.9648 28.6388 39.9633 23.3272 39.364C22.5526 39.2934 21.8454 39.1861 21.2481 39.0483C20.6507 38.9105 20.1756 38.7452 19.8512 38.5623C19.5268 38.3793 19.3599 38.1825 19.3604 37.9837C19.3609 37.7849 19.5289 37.5881 19.8542 37.4053C20.6183 36.5718 20.6877 35.7383 21.1045 34.8548L27.4947 35.2882C28.6361 35.6703 30.129 35.9841 31.8577 36.2053C33.5863 36.4265 35.5041 36.549 37.4621 36.5635Z" fill="#8B5327"/>
<path d="M1088.52 13.7261C1081.05 13.2593 1073.44 12.8926 1066.12 12.3175C1045.28 10.6505 1024.75 8.98359 1004.09 7.24995C1001.65 7.07294 999.491 6.72104 997.908 6.24144C1000.21 6.15978 1002.53 6.10692 1004.85 6.08308C1018.75 6.08308 1032.64 5.94972 1046.53 6.08308C1066.88 6.32479 1087.02 6.72485 1106.82 8.27513C1134.39 10.4255 1162.39 12.1842 1190.73 13.8011C1210.77 14.943 1231.32 15.6098 1251.68 16.4349C1266.37 17.0785 1281.31 17.3412 1296.23 17.2184C1306.41 17.0934 1316.52 16.7683 1326.69 16.5349C1328.6 16.4932 1330.55 16.4683 1332.49 16.4683C1364.24 16.3428 1395.83 15.3841 1426.71 13.6094C1442.03 12.7759 1457.69 12.3508 1473.08 11.6007C1488.46 10.8506 1504.33 9.93376 1519.86 9.05027C1530.85 8.4044 1542.1 8.04393 1553.41 7.97508C1561.38 7.8973 1569.29 7.61793 1577.02 7.14159C1586.71 6.59621 1596.67 6.38018 1606.61 6.49982C1604.49 7.73337 1599.42 8.03342 1595.08 8.47517C1582.89 9.72539 1570.46 10.8423 1558.23 12.0925C1537.67 14.1845 1517.39 16.4682 1496.59 18.4269C1481.6 19.8291 1466.28 21.023 1450.71 22.0026C1435.33 22.9861 1419.45 23.6695 1403.86 24.3613C1389.06 25.1391 1374.08 25.6958 1358.99 26.0283C1343.81 26.3726 1328.52 26.2831 1313.43 25.7616C1297.73 25.0781 1281.68 24.7947 1266.16 23.9612C1227.16 21.8692 1188.36 19.5771 1149.5 17.3434C1129.22 16.1349 1108.87 14.918 1088.52 13.7261Z" fill="#A76633"/>
<path d="M1530.28 6.32479C1514.27 7.48333 1498.6 8.78356 1482.59 9.74206C1470.37 10.4755 1457.66 10.7589 1445.19 11.284C1436.26 11.6674 1427.34 12.1175 1418.45 12.5509C1404.77 13.3648 1390.83 13.8919 1376.77 14.1262C1361.35 14.2512 1346 14.7596 1330.58 14.8263C1320.96 14.7418 1311.37 14.5164 1301.86 14.1512C1296.1 14.0011 1290.37 13.8261 1284.5 13.6928C1257.44 13.1045 1230.58 12.0629 1204.13 10.5755C1181.38 9.24197 1158.43 8.0751 1135.58 6.85822C1133.08 6.7452 1130.75 6.47478 1128.84 6.07474C1142.73 5.7997 1156.62 5.61633 1170.51 5.24126C1187.4 4.68193 1204.45 4.43117 1221.5 4.49113C1227.85 4.54114 1234.21 4.96622 1240.42 4.83286C1266.44 4.27443 1292.52 4.52447 1318.5 4.49113C1322.89 4.53739 1327.27 4.63754 1331.62 4.79118C1332.44 4.82526 1333.26 4.84753 1334.09 4.85786C1345.27 4.73284 1356.46 4.49946 1367.6 4.52447C1377.26 4.51848 1386.9 4.70527 1396.43 5.08291C1423.06 6.27427 1450.18 6.73287 1477.24 6.44981C1489.61 6.28312 1501.94 5.94139 1514.3 5.69134C1519.77 5.49039 1525.37 5.71224 1530.28 6.32479Z" fill="#8B5327"/>
<path d="M1088.52 13.7261C1108.87 14.918 1129.22 16.1349 1149.61 17.3017C1188.47 19.5355 1227.26 21.8275 1266.26 23.9196C1281.79 24.753 1297.83 25.0364 1313.53 25.7199C1328.62 26.2414 1343.92 26.331 1359.09 25.9866C1374.18 25.6541 1389.17 25.0974 1403.97 24.3196C1419.66 23.6279 1435.43 22.9444 1450.82 21.9609C1466.31 20.9877 1481.56 19.8022 1496.48 18.4103C1517.32 16.4516 1537.57 14.1678 1558.13 12.0758C1570.35 10.8256 1582.79 9.70872 1594.98 8.4585C1599.32 8.01675 1604.39 7.7167 1606.51 6.48315L1634.08 7.00824L1634.47 7.34997C1632.49 7.63335 1630.58 7.95007 1628.53 8.18345C1608.56 10.4589 1588.41 12.6342 1568.65 15.018C1539.94 18.6164 1509.96 21.5953 1479.05 23.9196C1462.9 25.0614 1446.72 26.1866 1430.43 27.1285C1407.65 28.437 1384.76 29.6289 1361.8 30.7458C1347.08 31.4626 1332.01 31.1209 1317.07 31.2625C1291.86 31.5043 1269.35 29.5956 1247.61 26.8117C1240.41 25.9714 1232.87 25.3096 1225.11 24.8364C1196.7 22.9111 1168.05 21.1774 1140.37 18.6353C1125.16 17.2351 1109.67 16.0015 1094.39 14.6513C1092.27 14.4064 1090.29 14.0953 1088.52 13.7261Z" fill="#8B5327"/>
<path d="M647.174 83.7052C638.874 84.0969 630.608 84.5387 622.273 84.8637C610.013 85.3138 597.684 85.6388 585.39 86.0222H583.758C572.158 86.1639 560.558 86.3556 549.028 86.439C523.571 86.6057 498.115 86.7057 472.623 86.8641C455.258 86.9724 437.894 87.0558 420.355 87.2725C403.318 87.5794 386.381 88.1501 369.65 88.9811C362.083 89.344 354.406 89.5586 346.694 89.6229C328.669 89.7146 310.61 89.5479 292.585 89.6729C271.331 89.8146 250.076 90.1646 228.857 90.423H227.19C205.866 90.5564 184.576 90.7731 163.252 90.7898C148.874 90.7898 134.496 90.6314 120.153 90.398C100.635 90.073 81.1171 89.6479 61.6339 89.2061C50.9719 88.9561 40.3794 88.5977 29.7174 88.1143C39.1039 88.0169 48.505 88.0364 57.8831 88.1726C64.9361 88.4727 72.154 88.4727 79.207 88.1726C81.9539 88.0751 84.7348 88.0443 87.5074 88.0809C113.555 87.9393 139.602 87.8642 165.579 87.6392C182.666 87.4892 199.753 87.1308 216.84 86.8557C224.272 86.739 231.67 86.5807 239.102 86.4723C241.394 86.4723 243.651 86.4723 244.45 85.7972L260.877 85.6888C262.854 85.8529 264.907 85.9593 266.99 86.0056C272.477 85.9472 277.964 85.7055 283.417 85.6972C306.408 85.6555 329.364 85.6972 352.355 85.6555C359.51 85.6588 366.642 85.463 373.609 85.0721C393.693 83.8998 414.273 83.2873 434.942 83.2467C444.84 83.1967 454.738 83.005 464.635 82.8383C465.608 82.8383 466.546 82.6133 467.483 82.4883L480.542 82.5633C482.209 83.5385 484.674 83.3968 487.487 82.8633L537.185 83.3801C541.284 84.2136 545.347 84.3053 552.432 83.6885H585.564C586.328 83.9135 587.092 84.1302 587.821 84.3553L590.912 83.6968H612.305C612.733 83.8179 613.265 83.9153 613.864 83.982C614.464 84.0488 615.117 84.0834 615.778 84.0834C616.44 84.0834 617.093 84.0488 617.693 83.982C618.292 83.9153 618.824 83.8179 619.251 83.6968L647.174 83.7052Z" fill="#B68457"/>
<path d="M1533.37 66.8855C1537.64 67.644 1542.43 67.2189 1546.98 67.1856C1551.53 67.1522 1555.18 66.9772 1559.28 66.8855C1571.36 66.6355 1583.59 66.3271 1595.53 66.1604C1604.39 66.0437 1613.28 66.1604 1622.17 66.077C1641.52 65.9604 1660.89 65.8687 1680.24 65.6436C1690.14 65.5353 1699.97 65.1602 1709.83 64.9185C1711.64 64.8543 1713.49 64.9652 1714.97 65.2269C1702.29 65.9104 1689.65 66.6105 1676.77 67.2606C1666.8 67.7607 1656.8 68.2357 1646.72 68.6525C1631.27 69.3026 1615.82 69.9694 1600.29 70.4695C1590.98 70.7695 1581.57 70.7945 1572.2 70.8862C1555.87 71.0529 1539.58 71.1613 1523.26 71.303C1507.77 71.4252 1492.29 71.5558 1476.83 71.6947C1463.56 71.8197 1450.33 72.0698 1437.06 72.0531C1428.26 71.9873 1419.48 71.7672 1410.81 71.3947C1404.21 71.1657 1397.49 71.3026 1391.15 71.7947C1373.6 72.9613 1355.64 73.7369 1337.49 74.1118C1325.2 74.4369 1312.94 74.9453 1300.61 75.237C1286.37 75.5871 1272.03 75.7871 1257.75 76.0705C1249.52 76.2538 1241.36 76.5706 1233.13 76.7789C1225.73 76.9706 1218.3 77.1373 1210.87 77.229C1196.53 77.4041 1182.11 77.4707 1167.77 77.6791C1156.8 77.8375 1145.82 78.1625 1134.85 78.3792C1131.54 78.4512 1128.22 78.3662 1125.05 78.1292C1136.3 77.5791 1147.52 76.979 1158.81 76.4622C1172.7 75.8454 1186.59 75.2953 1200.48 74.7953C1210.9 74.3868 1221.74 74.0368 1232.37 73.6784C1243.83 73.295 1255.25 72.9033 1266.75 72.5532C1277.17 72.2365 1287.59 71.9948 1298.01 71.6614C1311.65 71.2196 1325.27 70.7112 1338.92 70.2361C1348.16 69.9111 1357.5 69.661 1366.7 69.2526C1374.79 68.8859 1382.78 68.3524 1390.8 67.869C1391.36 67.869 1391.6 67.544 1392.02 67.3689H1406.6C1407.75 67.6106 1408.76 68.0191 1410.08 68.0691C1418.69 68.3858 1427.44 68.7108 1436.06 68.8609C1440.41 68.812 1444.75 68.6979 1449.04 68.5191C1460.54 68.3524 1472.04 68.2274 1483.53 68.1024C1485.82 68.1024 1487.98 68.0524 1488.64 67.3773L1511.73 67.2939C1514.51 67.8274 1516.98 67.9607 1518.68 67.0105L1533.37 66.8855Z" fill="#B68457"/>
<path d="M590.495 65.3269C591.016 66.0187 593.169 66.0604 595.496 66.077C609.597 66.2104 623.697 66.3104 637.762 66.5021C651.272 66.6938 664.712 67.0272 678.187 67.2356C684.265 67.3273 690.377 67.2773 696.49 67.2939C699.531 67.2512 702.579 67.3415 705.485 67.5606C704.49 67.6157 703.48 67.6547 702.463 67.6773L601.088 68.0774C594.142 68.0774 587.196 68.0107 580.25 68.0774C566.358 68.2691 552.189 68.5608 538.158 68.8025C535.935 68.8025 533.712 68.8025 531.524 68.8025C511.52 68.8025 491.551 68.7275 471.581 68.8025C461.961 68.8525 452.411 69.2609 442.791 69.4693C439.49 69.5498 436.168 69.5638 432.858 69.511C421.883 69.2943 410.909 69.0609 399.934 68.7608C370.9 67.969 341.797 68.6358 312.728 68.3608C294.252 68.1858 275.776 67.869 257.335 67.594C249.347 67.4773 241.359 67.3106 233.371 67.1939C222.953 67.0439 212.534 66.9272 201.941 66.7605C197.287 66.6855 192.634 66.4938 188.049 66.3771L138.699 65.2269C126.891 64.9519 115.083 64.6768 103.309 64.3934C89.6259 64.035 75.9772 63.6016 62.259 63.2765C52.9168 63.0515 43.5398 62.9431 34.1628 62.8098C30.9329 62.7598 27.6684 62.8098 24.4038 62.8098V62.4014H44.1649C51.3886 62.4014 58.5776 62.4014 65.8014 62.4014C68.1637 62.3288 70.4903 62.2004 72.7473 62.018L124.842 62.7681C135.573 62.9181 146.339 63.0932 157.071 63.1682C186.105 63.3766 215.104 63.5266 244.103 63.7016C245.214 63.7016 246.326 63.7433 247.576 63.76C251.049 64.8185 255.251 64.5934 259.488 64.035H282.653C283.521 64.9852 286.681 64.7768 289.321 64.7768C301.754 64.7768 314.187 64.7768 326.655 64.7768C328.758 64.7139 330.821 64.5908 332.802 64.4101L407.54 64.8518C408.165 65.0602 408.651 65.4269 409.381 65.4519C418.262 65.8912 427.253 66.1919 436.296 66.3521C447.028 66.4271 457.794 66.077 468.56 66.0187C498.15 65.8437 527.6 65.7353 557.329 65.5686C560.249 65.501 563.142 65.3756 565.976 65.1936L590.495 65.3269Z" fill="#B68457"/>
<path d="M948.904 33.6213C948.071 32.6628 944.32 32.7461 941.68 32.5294C927.337 31.3292 912.89 30.1874 898.442 29.0455C872.742 27.0173 847.031 25.0031 821.308 23.0027L786.3 20.2606V19.8188C788.829 19.7291 791.386 19.6928 793.941 19.7105C803.552 19.8911 813.116 20.1943 822.593 20.619C842.493 21.6942 862.289 22.9111 882.05 24.1613C899.623 25.2781 917.092 26.4784 934.491 27.7286C950.085 28.8454 965.574 30.054 981.029 31.2959C989.92 32.0043 998.394 32.9628 1007.39 33.6296C1024.06 34.8048 1040.73 36.0467 1057.75 36.8219C1086.86 38.0165 1115.53 39.7612 1143.49 42.0394C1146.69 42.2787 1149.62 42.6923 1152.04 43.248C1144.54 42.9813 1137.03 42.6812 1129.5 42.4145C1116.13 42.0061 1102.65 41.7394 1089.35 41.2143C1070.08 40.4392 1050.9 39.5473 1031.73 38.6138C1023.92 38.2388 1016.18 37.7804 1008.36 37.3469C1000.55 36.9135 992.038 36.2301 983.807 35.73C975.576 35.2299 968.283 34.8965 960.573 34.4298C956.614 34.2297 952.794 33.913 948.904 33.6213Z" fill="#B68457"/>
<path d="M1755.05 35.2716C1738.71 36.5461 1723.02 38.2542 1708.27 40.3642C1691.87 42.5645 1676.31 45.14 1659.64 47.2404C1647.29 48.7215 1634.52 49.9996 1621.44 51.0661C1610.36 52.0515 1599.04 52.8726 1587.55 53.5248C1572.26 54.3583 1556.78 55.0084 1541.32 55.6835C1531.84 56.0919 1522.29 56.4087 1512.77 56.7254C1505.83 56.9504 1499.09 57.1755 1492.21 57.2588C1475.08 57.4533 1457.95 57.5922 1440.81 57.6755C1431.02 57.7256 1429.94 57.2088 1434.77 55.1001C1435.36 54.8827 1436.04 54.679 1436.78 54.4917C1436.78 54.9334 1437.1 55.3835 1437.31 55.9836L1486.24 54.1999C1498.43 53.7582 1510.55 53.3665 1522.78 52.8664C1524.27 52.7997 1525.52 52.3913 1526.91 52.1412H1530.07C1532.95 52.6663 1535.49 52.808 1537.01 51.7745H1540.17C1542.12 51.9319 1544.16 52.008 1546.22 51.9995C1552.4 51.7078 1558.51 51.3161 1564.62 50.9244C1576.08 50.1992 1587.65 49.5741 1598.87 48.674C1623.98 46.6736 1647.49 43.7564 1672.04 41.3727C1690.94 39.539 1710.25 37.8804 1729.45 36.3134C1737.91 35.7382 1746.5 35.2817 1755.19 34.9465L1755.05 35.2716Z" fill="#B68457"/>
<path d="M955.503 106.076C958.336 105.896 961.23 105.776 964.15 105.717C986.586 105.717 1009.06 105.659 1031.49 105.717C1048.31 105.767 1065.13 105.502 1081.78 104.926H1082.58C1096.09 104.784 1109.6 104.551 1123.11 104.534C1169.96 104.484 1216.88 104.534 1263.62 104.534C1266.51 104.534 1270.57 104.067 1271.78 105.292L1234.73 106.042C1227.3 106.192 1219.9 106.443 1212.47 106.476C1176.52 106.659 1140.54 106.834 1104.6 106.901C1068.65 106.968 1033.64 106.984 998.185 106.859C983.981 106.801 969.742 106.351 955.503 106.076Z" fill="#A76633"/>
<path d="M467.414 82.505C466.476 82.63 465.538 82.8467 464.566 82.855C454.668 83.0217 444.77 83.2134 434.872 83.2634C414.204 83.304 393.624 83.9165 373.54 85.0887C366.573 85.4797 359.44 85.6755 352.285 85.6722C329.294 85.7389 306.338 85.6722 283.347 85.7139C277.895 85.7139 272.407 85.9639 266.92 86.0223C264.837 85.976 262.785 85.8696 260.808 85.7055C267.094 85.3138 273.38 84.872 279.735 84.547C291.856 83.9302 304.046 83.3551 316.201 82.7967C322.14 82.53 328.114 82.2883 334.122 82.1216C361.265 81.3358 388.622 81.0572 415.945 81.2881C432.198 81.4381 448.382 81.8048 464.566 82.1216C465.573 82.1549 466.476 82.3799 467.414 82.505Z" fill="#A76633"/>
<path d="M1755.05 34.8632C1746.36 35.1984 1737.77 35.6548 1729.31 36.2301C1710 37.797 1690.8 39.4557 1671.9 41.2893C1647.42 43.6731 1623.84 46.5903 1598.73 48.5906C1587.51 49.4908 1575.95 50.1159 1564.49 50.841C1558.37 51.2327 1552.26 51.6245 1546.08 51.9162C1544.03 51.9247 1541.98 51.8485 1540.04 51.6912C1543.93 51.4161 1547.78 51.1077 1551.74 50.8577C1577.95 49.2053 1603.52 47.0077 1628.14 44.2898C1638.01 43.2563 1648.22 42.3895 1658.43 41.5977C1669.02 40.7773 1678.64 39.363 1686.49 37.472C1693.9 35.5742 1702.75 34.035 1712.57 32.9378C1722.78 31.9127 1732.85 30.8125 1742.86 29.6706C1746.48 29.1905 1749.96 28.6502 1753.28 28.0536C1753.28 28.5121 1753.28 29.0038 1753.28 29.4789C1753.83 31.2959 1754.46 33.0795 1755.05 34.8632Z" fill="#A76633"/>
<path d="M279.18 104.884C281.439 104.707 283.766 104.585 286.126 104.517C297.46 104.35 308.826 104.35 320.161 104.517C342.804 105.101 365.483 104.651 388.126 104.884C407.644 105.092 427.162 104.751 446.715 104.842C466.268 104.934 485.473 104.892 504.852 104.842C510.34 104.842 515.792 104.551 521.279 104.492C523.385 104.546 525.445 104.675 527.392 104.876C523.322 105.225 519.107 105.468 514.82 105.601C475.54 105.792 436.261 105.901 396.982 106.076C390.384 106.076 383.82 106.376 377.221 106.443C364.262 106.443 351.32 106.217 338.498 105.767C327.523 105.509 316.34 105.767 305.296 105.634C296.614 105.592 287.932 105.159 279.18 104.884Z" fill="#A76633"/>
<path d="M565.664 65.2852C562.829 65.4673 559.937 65.5927 557.016 65.6603C527.427 65.827 497.976 65.9354 468.247 66.1104C457.481 66.1687 446.715 66.5188 435.984 66.4438C426.94 66.2836 417.95 65.9829 409.068 65.5436C408.339 65.5436 407.853 65.1519 407.228 64.9435C418.237 65.0435 429.246 65.1519 440.221 65.2352C446.576 65.2352 452.966 65.2936 459.322 65.2352C491.898 65.1269 524.44 64.9852 557.016 64.8935C559.943 64.9589 562.839 65.09 565.664 65.2852Z" fill="#A76633"/>
<path d="M579 105.284C579.243 104.709 580.424 104.517 582.924 104.592C587.524 104.76 592.164 104.858 596.816 104.884C622.446 104.884 648.112 104.884 673.742 104.884C676.66 104.946 679.545 105.077 682.355 105.276C681.483 105.427 680.507 105.539 679.472 105.609C669.54 105.784 659.607 105.901 649.709 106.076C644.222 106.167 638.735 106.384 633.247 106.434C616.89 106.601 600.879 105.834 584.626 105.376C582.855 105.351 580.91 105.326 579 105.284Z" fill="#A76633"/>
<path d="M1488.6 67.3606C1487.94 68.0357 1485.79 68.0607 1483.5 68.0857C1472 68.2108 1460.51 68.3358 1449.01 68.5025C1444.71 68.6813 1440.38 68.7954 1436.02 68.8442C1427.3 68.6942 1418.66 68.3691 1410.04 68.0524C1408.76 68.0024 1407.75 67.594 1406.57 67.3523L1488.6 67.3606Z" fill="#A76633"/>
<path d="M1756.78 17.3184L1722.85 17.2601C1727.47 16.8767 1732.09 16.4266 1736.74 16.1015C1744 15.5264 1751.3 14.9763 1758.59 14.4346C1760.33 14.3012 1762.06 14.2012 1764.28 14.0512C1766.23 15.8681 1760.43 16.4099 1756.78 17.3184Z" fill="#B37F50"/>
<path d="M1103.62 53.2664L1100.78 52.4996C1102.6 52.1841 1104.53 51.9053 1106.54 51.6662C1110.01 51.3411 1113.49 51.1077 1116.96 50.8327L1150.09 51.2827C1149.88 52.0329 1147.59 51.9829 1145.37 52.0496C1141.9 52.1496 1138.63 52.3246 1135.26 52.4663H1127.03C1123.84 52.4121 1120.64 52.4121 1117.45 52.4663C1116.02 52.5163 1114.81 52.933 1113.49 53.1914L1103.62 53.2664Z" fill="#A76633"/>
<path d="M1569.97 18.0769C1570.22 18.4075 1570.02 18.7489 1569.4 19.0496C1568.77 19.3503 1567.75 19.5939 1566.5 19.7438C1554.14 21.6192 1541.25 23.1611 1526.46 23.5695C1527.49 23.3008 1528.66 23.063 1529.93 22.8611C1539.17 21.8109 1548.47 20.819 1557.71 19.7438C1562.05 19.2271 1565.94 18.6186 1569.97 18.0769Z" fill="#8B5327"/>
<path d="M332.42 64.5018C330.439 64.6825 328.376 64.8056 326.273 64.8685C313.805 64.8685 301.372 64.8685 288.939 64.8685C286.299 64.8685 283.139 65.0769 282.271 64.1267C297.204 64.1267 312.173 64.1267 327.106 64.1267C328.939 64.1944 330.726 64.3205 332.42 64.5018Z" fill="#A76633"/>
<path d="M1155.51 51.3161H1187.08C1183.8 51.5547 1180.48 51.7494 1177.11 51.8995C1169.92 52.1496 1162.66 52.3163 1155.48 52.5163C1155.51 52.0829 1155.51 51.6995 1155.51 51.3161Z" fill="#A76633"/>
<path d="M1155.51 51.3161C1155.51 51.6995 1155.51 52.0829 1155.51 52.4746C1150.34 52.608 1145.09 52.7747 1139.95 52.858C1138.38 52.8052 1136.87 52.6867 1135.47 52.508C1138.94 52.3663 1142.17 52.1912 1145.58 52.0912C1147.8 52.0246 1150.09 52.0912 1150.3 51.3244L1155.51 51.3161Z" fill="#8B5327"/>
<path d="M852.148 64.8602C859.586 64.2442 867.546 64.0809 875.312 64.3851L852.043 65.2602L852.148 64.8602Z" fill="#8B5327"/>
<path d="M552.328 83.7052C545.382 84.3219 541.179 84.2386 537.081 83.3968C542.221 83.3634 547.465 82.98 552.328 83.7052Z" fill="#A76633"/>
<path d="M1113.52 53.2498C1114.84 52.9914 1116.06 52.5747 1117.48 52.5246C1120.67 52.4705 1123.88 52.4705 1127.07 52.5246C1125.78 52.7747 1124.57 53.1914 1123.14 53.2331C1119.94 53.297 1116.73 53.3026 1113.52 53.2498Z" fill="#8B5327"/>
<path d="M259.176 64.0934C254.938 64.6435 250.84 64.8768 247.263 63.8183L259.176 64.0934Z" fill="#A76633"/>
<path d="M1536.88 51.7328C1535.45 52.7664 1532.92 52.6247 1529.93 52.0996L1536.88 51.7328Z" fill="#A76633"/>
<path d="M1518.64 66.9939C1516.94 67.944 1514.47 67.8273 1511.7 67.2773L1518.64 66.9939Z" fill="#A76633"/>
<path d="M487.383 82.88C484.605 83.4134 482.139 83.5551 480.437 82.58L487.383 82.88Z" fill="#A76633"/>
<path d="M590.808 83.7552L587.717 84.4136C586.988 84.1886 586.224 83.9719 585.459 83.7468L590.808 83.7552Z" fill="#A76633"/>
<path d="M619.008 83.7385C618.581 83.8596 618.049 83.957 617.449 84.0237C616.85 84.0905 616.196 84.1251 615.535 84.1251C614.874 84.1251 614.221 84.0905 613.621 84.0237C613.021 83.957 612.489 83.8596 612.062 83.7385H619.008Z" fill="#A76633"/>
<path d="M1721.6 17.2434L1720 17.3017C1720.53 17.2701 1721.06 17.2506 1721.6 17.2434Z" fill="#B37F50"/>
<path d="M37.4621 36.5635C35.5011 36.5513 33.5783 36.4306 31.8435 36.2109C30.1086 35.9911 28.6085 35.6782 27.46 35.2966C28.1019 34.9993 29.1199 34.7584 30.3679 34.6087C31.616 34.4589 33.0297 34.408 34.4059 34.4631C50.4162 34.5965 66.4613 34.7965 82.4716 34.8215C95.4604 34.8215 108.449 34.6298 121.438 34.5298C123.661 34.5298 125.849 34.4881 128.071 34.4881C144.742 34.4881 161.377 34.4881 178.013 34.4881C182.979 34.4881 187.876 34.2381 192.842 34.1964C197.808 34.1547 202.219 34.1964 206.908 34.2798C208.507 34.3712 210.132 34.4353 211.77 34.4714C228.579 34.0797 245.353 34.5965 262.162 34.5798C275.359 34.5798 288.557 35.0215 301.754 35.2716C303.386 35.2716 305.053 35.2716 306.72 35.2716C318.876 35.4133 331.031 35.5383 343.151 35.6967C345.094 35.7006 346.999 35.8271 348.673 36.0634C356.383 37.3553 364.823 37.0802 373.331 36.8469C379.596 36.597 385.945 36.4909 392.294 36.5301C405.178 36.7719 417.994 37.2469 430.844 37.6053C441.262 37.9054 451.681 38.0387 462.1 38.4972C474.083 38.928 485.872 39.6256 497.316 40.5809C522.773 42.998 547.709 45.7234 572.853 48.3406C575.249 48.5989 577.472 48.9657 579.799 49.2741L579.139 49.6741C574.867 49.3574 570.491 49.099 566.324 48.7156C540.203 46.3394 513.389 44.4283 486.098 42.998C467.587 41.9894 448.764 41.256 430.01 40.5392C418.584 40.1058 406.915 40.0474 395.489 39.6224C385.669 39.2681 375.684 39.2681 365.865 39.6224C360.343 39.8057 354.439 39.3807 348.708 39.2056C346.863 39.0869 344.982 39.0033 343.082 38.9556C325.717 39.0389 308.352 39.3223 290.814 39.239C270.949 39.1473 251.118 38.7305 231.288 38.4722C221.077 38.3305 210.867 38.1304 200.656 38.1054C171.518 38.0554 142.38 38.1721 113.242 38.0471C97.5442 37.9804 81.9854 37.6053 66.1834 37.3053C56.5981 37.1136 47.0475 36.8135 37.4621 36.5635Z" fill="#B68457"/>
<path d="M1369.03 90.423C1366.42 90.423 1363.82 90.4814 1361.21 90.4814C1344.54 90.4814 1327.91 90.4397 1311.24 90.4814C1286.06 90.5814 1260.78 90.4814 1235.7 90.9481C1206.88 91.4815 1178.08 91.1398 1149.29 91.2315C1136.3 91.2732 1123.32 90.8981 1110.36 90.9148C1094.04 90.9148 1077.72 91.0898 1061.43 91.2982C1046.84 91.4899 1032.15 91.6149 1017.74 92.1317C982.522 93.3735 947.133 93.3819 911.743 93.2402C898.789 93.1818 885.905 92.7651 872.985 92.5234C864.72 92.365 856.489 92.215 848.223 92.0983C836.346 91.9316 824.468 91.8399 812.625 91.6566C803.04 91.5121 793.455 91.2787 783.869 90.9564C786.3 90.9564 788.732 90.8814 791.163 90.8814C803.908 90.8814 816.689 90.8814 829.365 90.8814C855.134 90.7759 880.88 90.6397 906.603 90.473C919.037 90.3897 931.47 90.2897 943.868 90.0646C960.087 89.7646 976.236 89.3395 992.49 88.9394C1008.74 88.5394 1024.86 88.1643 1041.11 87.6642C1061.95 87.0141 1082.99 86.9724 1104.01 86.8307C1116.68 86.7474 1129.29 87.0141 1141.97 86.9141C1154.69 86.7604 1167.44 86.7604 1180.17 86.9141C1206.39 87.3225 1232.61 87.6642 1258.9 87.7059C1270.5 87.6761 1282.1 87.8181 1293.63 88.1309C1306.2 88.5227 1318.91 88.381 1331.45 89.0978C1340.48 89.6145 1350.1 89.5229 1359.44 89.6729C1362.64 89.7229 1365.87 89.6729 1369.1 89.6729L1369.03 90.423Z" fill="#B68457"/>
<path d="M1361.7 56.7921C1359.62 56.7921 1357.57 56.8754 1355.52 56.8754C1343.57 56.8754 1331.66 56.8754 1319.71 56.8754C1301.25 57.0099 1282.85 57.492 1264.7 58.3173C1241.64 59.2758 1218.65 60.351 1195.52 61.2012C1185.38 61.4944 1175.17 61.6502 1164.96 61.6679C1147.8 61.8263 1130.64 61.8596 1113.56 62.1097C1105.89 62.3233 1098.27 62.6321 1090.74 63.0348C1074.69 63.66 1058.72 64.3267 1042.6 64.8602C1024.89 65.4519 1007.11 65.9437 989.329 66.4188C980.821 66.6438 972.277 66.7022 963.734 66.8772C953.593 67.0939 943.452 67.3689 933.31 67.6023C931.123 67.6523 928.9 67.6607 926.677 67.6607C913.931 67.6607 901.151 67.719 888.475 67.6607C880.279 67.6107 872.082 67.3856 862.046 67.2022C876.945 66.6522 889.829 66.1937 902.853 65.677C913.723 65.2519 924.524 64.7185 935.394 64.2934C948.418 63.7933 961.511 63.3432 974.604 62.8848C992.281 62.2597 1009.99 61.6596 1027.71 61.0262C1043.51 60.451 1059.31 59.901 1075.04 59.2425C1083.72 58.8758 1092.2 58.259 1100.85 57.8506C1118.05 57.1276 1135.6 57.0181 1152.94 57.5255C1156.49 57.5132 1160.03 57.4352 1163.53 57.2922C1175.1 57.1338 1186.7 57.0254 1198.26 56.8671C1217.54 56.6087 1236.92 56.517 1256.09 56.0336C1278.24 55.4502 1300.37 55.7336 1322.49 55.7586C1335.62 55.7586 1348.71 56.317 1361.84 56.592L1361.7 56.7921Z" fill="#B68457"/>
<path d="M791.927 59.0341C733.616 58.384 675.93 57.0004 619.842 51.5745C621.821 51.2828 623.315 50.8994 624.426 50.9244C633.242 50.9695 642.031 51.1756 650.716 51.5411C674.402 52.8247 697.81 54.4083 721.53 55.7085C741.673 56.7837 762.094 57.5922 782.376 58.534C785.571 58.6591 788.732 58.8591 791.927 59.0341Z" fill="#B68457"/>
<path d="M1385.56 90.4063H1404.56C1393.96 89.7562 1392.96 89.7979 1385.56 90.4063Z" fill="#B68457"/>
<path d="M1376.36 89.8646L1377.74 89.9979C1377.54 90.1146 1377.43 90.2813 1377.12 90.3147C1376.81 90.348 1376.22 90.2397 1375.76 90.1897L1376.36 89.8646Z" fill="#B68457"/>
<path d="M584.522 49.8992L584.001 49.9825L583.584 49.7992C583.793 49.7992 584.036 49.7992 584.209 49.7992C584.383 49.7992 584.418 49.8575 584.522 49.8992Z" fill="#B68457"/>
<path d="M1436.82 54.4917L1437.2 54.3166L1436.78 54.4833L1436.82 54.4917Z" fill="#B68457"/>
<path d="M765.81 15.9932C760.358 15.7098 754.94 15.3347 749.418 15.1597C737.436 14.7513 725.42 14.4179 713.368 14.0928C702.95 13.8178 692.531 13.5928 682.112 13.3677C673.603 13.1927 665.06 13.076 656.551 12.8843C646.653 12.6676 636.825 12.3675 626.961 12.1675C621.717 12.0675 616.542 12.1675 611.159 12.0758C605.116 11.9675 599.108 11.7591 593.1 11.5507C592.128 11.5507 591.259 11.309 589.835 11.109C601.112 10.3265 612.834 9.97762 624.565 10.0754C628.698 10.1255 632.865 10.0754 637.033 10.0754C653.317 9.93678 669.617 10.2162 685.654 10.9089C702.741 11.6341 719.828 12.3925 736.741 13.301C745.875 13.7928 754.662 14.6263 763.587 15.3264C764.516 15.43 765.371 15.5678 766.123 15.7348L765.81 15.9932Z" fill="#B68457"/>
<path d="M770.811 16.1849V16.3266C770.57 16.338 770.323 16.338 770.082 16.3266C770.082 16.3266 770.082 16.2349 769.908 16.1932L770.811 16.1849Z" fill="#B68457"/>
<path d="M1157.63 43.5147C1157.32 43.5433 1156.99 43.5629 1156.66 43.5731C1156.66 43.5731 1156.66 43.4814 1156.48 43.4314L1157.63 43.5147Z" fill="#B68457"/>
</svg>
