<svg id="b26c7a76-4691-4519-be05-4cb9f58f19a4" data-name="Livello 3" xmlns="http://www.w3.org/2000/svg" viewBox="0 0 572.05 712.85"><path d="M268.29,727.35l-8.42,6.45-9.29-9.63a156.81,156.81,0,0,1-20-25.66c-1.06-1.68-2.09-3.41-3.1-5.17a303.35,303.35,0,0,1-113.8-60.58,299.18,299.18,0,0,1-65.51-78.85l-.86-.13-3.33-7.48a371.36,371.36,0,0,1-28-95.6c-6.74-44.63-4.71-94.6,5.73-140.7,4.85-21.42,15-66,45.93-114.42A326.53,326.53,0,0,1,97.4,156l1-1.17h0c23.25-26.14,63.19-61.09,121.44-79.18A262.86,262.86,0,0,1,297.62,63.9H298a261.71,261.71,0,0,1,77.77,11.76c56,17.44,94.9,50.48,118.35,76.25h0s2.39,2.68,2.62,3a327.55,327.55,0,0,1,30.8,40.71c31,48.43,41.08,93,45.93,114.42a388.86,388.86,0,0,1,5.74,140.63,381,381,0,0,1-27.05,95.49l-3.32,7.7-1,.15a300,300,0,0,1-65.48,78.79,304,304,0,0,1-115.44,61.1c-1.38,2.26-2.8,4.5-4.23,6.68a223.46,223.46,0,0,1-18.08,23.8l-9.88,11.33-8.42-7.37-28.84,47Z" transform="translate(-11.55 -63.4)" fill="#fff" stroke="#fff" stroke-miterlimit="10"/><path d="M558.84,313.32c-5.1-22.5-14.77-64.06-43.94-109.66a311.3,311.3,0,0,0-29.39-38.86l-9.79-3.35c5.2,1.22,8.62,2.35,9.79,3.35C468,145.06,430.55,108.45,371.27,90A246.85,246.85,0,0,0,298,78.9h-.32A248.28,248.28,0,0,0,224.33,90c-59,18.34-96.68,54.58-114.69,74.83h0l-.73.84-.25.28h0a311.17,311.17,0,0,0-28.41,37.74c-29.17,45.6-38.84,87.16-43.94,109.66-15,66.14-8,119.13-5.53,135.14a356.37,356.37,0,0,0,26.86,91.73c.91.14,2.53,1.25,4.65,3.08-1.73-1.09-3.29-2.13-4.65-3.08A285.09,285.09,0,0,0,237.53,680.53c1.69,3.24,3.57,6.59,5.72,10a142.44,142.44,0,0,0,18.13,23.21l11.05-8.46,25.11,41.24,25.3-41.24,10.49,9.18a207.47,207.47,0,0,0,16.85-22.19c2.54-3.86,4.85-7.66,6.95-11.35A285.43,285.43,0,0,0,538.38,540.19c-1.58,1.1-3.42,2.32-5.49,3.59,1-1.07,1.85-2.14,2.67-3.18l2.82-.41a365.79,365.79,0,0,0,26-91.73A372.33,372.33,0,0,0,558.84,313.32Zm-323.52,366,2,.75.13.27C236.8,680,236.09,679.69,235.32,679.28Zm161.29-33v0C397.09,646.24,397.13,646.25,396.61,646.27Z" transform="translate(-11.55 -63.4)" fill="#fff" stroke="#fff" stroke-miterlimit="10"/><path d="M242.21,351.06c0,2.7.66,5.92.31,5.71-2.55-1.59-6.24-4.13-9-5.58-.38-.19-.43-3.79-.67-6.68-1.14-13.68-1.37-27.53-1.16-41.1.24-15.54,1-31.45,2.5-47.09.3-3.21,1.27-5.39,1.06-5.59-3.86,15.73-6,17.52-9.27,33.07-1.17,5.67-2.26,10.33-3.07,13.59a2.44,2.44,0,0,1-4.56.48c-1.25-2.57-2.41-6.47-3.84-12-3.81-14.79-3.35-11.71-7.16-26.33-.06-.49.7-1.51.5-2.09-.16.94-1.11,2.91-1,4.91a370.34,370.34,0,0,0,4,41.11c1.79,11.72,4.18,23.67,7.15,35.35.65,2.55,1.65,5.9,1.25,5.75-2.92-1-6.55-2.33-9.57-3.17-.31-.08-2.82-.74-3.05-1.18a21.83,21.83,0,0,1-.94-2.25A290.74,290.74,0,0,1,195,301.46c-3.25-14.3-5-29.75-6.19-44.56a309.39,309.39,0,0,1,.67-57.34c1-9.59,4.49-30.66,4.56-31.88a2,2,0,0,1,1.38-1.79c1.54-.5,3.7-1.19,4.95-1.57,2.13-.66,5.56-1.46,10-2.88a106.6,106.6,0,0,1,10.39-2.63c.44-.11.15,1.63,0,4.52-1.67,27-2.14,53.91-1.13,81,.37,6.53.94,10,1.49,10,.29,0,1-4.22,2.72-12.07,7-31.27,25.2-88.75,26-88.86,1.17-.15,25.3-3.53,26.52-3.64,1-.08,5.31-.37,6.35-.42,1.24,0,1.68.55.71,2.22-8,13.77-12.62,33.52-17.09,48.49-5.44,18.18-8.33,26.29-12.81,45.5-4.09,17.52-6.12,39.15-7.58,57C244.68,318.12,242.33,335.35,242.21,351.06Z" transform="translate(-11.55 -63.4)" fill="#1d1d1b" stroke="#1d1d1b"/><path d="M465.9,198s10.49,8.2,10.1,8c-.67-.33-24.42-10.18-43-13.78,2.63,14.46,5.76,44,6.56,58.61.83,15.07-2,43-3.58,57.87-1.38,12.87-.37,13.66-3.33,26.38-.29,1.23-.48,2.7-.64,3-.06.12-8.19-1.18-8.5-1.24-2.79-.58-11.07-.22-11-.62,2.45-13.23,3.28-17.4,4.15-30.55,1-15.25,2.52-38.35,2.09-54.19-.41-14.94-2.12-50.63-5.59-65.17-3.6-.78-11.82-1.21-12.53-1.63a2.86,2.86,0,0,1-1.53-1.72c-1.15-3.4-2.22-7.95-3.45-11.19-1.95-5.18-3.21-9.21-2.91-9.06,5.22,1,12.41,4,19.23,6.55,1.93.74,14,5.78,14,5.79.42.18,9.28,4.38,9.28,4.38L451,188.12Z" transform="translate(-11.55 -63.4)" fill="#1d1d1b" stroke="#1d1d1b" stroke-miterlimit="10"/><path d="M383.46,164.72a279.79,279.79,0,0,1,13.35,38.87,327.44,327.44,0,0,1,8.54,46c2.56,28.17,2.43,56-2.26,84-.32,1.91-.47,3-1.24,3.08s-5.61,1-6.24,1.15-5.24,1.05-5.91,1.2c-.47.11-.92-1.78-1.28-4.11-2.73-18.38-7.27-36.33-12.23-54.22q-6.18-21.39-14.29-42.1a8.28,8.28,0,0,0-1-1.86,12.22,12.22,0,0,0,.29,3.46,461.49,461.49,0,0,1,6.29,54.35,451.35,451.35,0,0,1,.78,47.26c-.13,2.86-.54,4.38-1.15,4.67-4.73,2.23-11.3,6.82-15.51,9.45-.59.36-.83-3.57-.85-6.24-.11-15.59-1.21-31.59-2.4-47.09-1.35-17.7-4.61-36.09-7.77-53.61-3.25-18-5.33-30.82-11-48.87-4.64-14.82-19.94-51.07-18.54-51,2.09.08,23.21,1.81,24.27,1.9.44,0,26.1,44.1,38.16,67.77,4.73,9.84,7.86,21.33,11.49,31.63,1.17,3.2,8,30.72,8.57,30.75s-3.14-50.34-6.08-59.72c-4.48-14.25-20.7-45.47-28.06-56.6-1.57-2.37-7.66-11.55-6.9-11.4,2.19.42,14.6,3.06,18.84,3.71a83.16,83.16,0,0,1,9.86,2.41C381.87,159.69,382.53,162.58,383.46,164.72Z" transform="translate(-11.55 -63.4)" fill="#1d1d1b" stroke="#1d1d1b" stroke-miterlimit="10"/><path d="M468.32,355.51a.81.81,0,0,1-.81.41c-.66-.06-9.91-7-9.61-7.9.72-2,1.79-5.11,3-9.75a179.18,179.18,0,0,0,4.84-28.65c.2-2.54-3.28-6.71-4.38-7.22.51.25-.4.08-2.78-.4-.27-.05-.66,1.52-1.29,4.75-.84,4.3-2.1,10.87-4.25,19a139.4,139.4,0,0,1-5.74,17.63L438.16,340a256,256,0,0,0,7.7-28.92c2.08-10.68,2.11-21.26,2.19-32.16.15-21.3-.65-41.91-1.72-65.22-.15-.48-.37-11.83-.53-12.31-.32-1,1.34-1.31,2.1-1.27s18.26,13.68,20.83,15.75c4.95,4,15.4,10.6,17.71,16.21,2.7,6.55,2.19,27.42,1.8,33.59a13.57,13.57,0,0,1-.67,3.58c-2.49,7.33-9.75,15.86-13.49,16.48-.39.48,2.11,4.43,4.47,10.39a31.33,31.33,0,0,1,1.83,16.37c-.83,5.39-2.07,10.63-3.09,16.09C475.69,337.18,472.54,347.74,468.32,355.51Zm8.47-98.75c0-8.91-2.19-18.28-4.1-22.08-1.47-2.93-8.67-6.81-11.53-7.87-2.06-.77-3.07-.24-3,1.56.12,2.13,2.1,23.51,2.43,34.85.05,1.61.11,4,.11,7.17s-.51,7.46-.57,8.93c0,.33.35.45,1.15.78,1.52.65,4.55,1.84,5.8,2.49C471.2,284.73,476.8,269.48,476.79,256.76Z" transform="translate(-11.55 -63.4)" fill="#1d1d1b" stroke="#1d1d1b" stroke-miterlimit="10"/><path d="M342.57,361.26c-1.1-17.53-4.57-63.3-10.46-99-4.2-25.44-9.26-44.19-11.81-55.68-5-22.42-11.91-38.43-16.82-47.89l.07,0c-3.39-6.46-5.7-10.29-5.78-10.15a1.33,1.33,0,0,0-.13.19l0-.05,0,.13c-1.67,2.46-14.65,21.94-22.61,57.79-2.55,11.49-7.61,30.24-11.8,55.68-5.89,35.7-9.37,81.47-10.47,99a5,5,0,0,0,1.52,3.91c1.56,1.49,1.76,2.78,5.35,5.67a106.42,106.42,0,0,0,13.27,9,2.59,2.59,0,0,0,3.79-1.59c.55-2.09-2.87-48.2-.76-77.29.6-8.36,5.11-44.4,5.95-45.79.54-.77,32.41-.14,32.95.63.84,1.39,3.3,28.42,4.35,36.74.51,4-1,83.62-.47,85.71.43,1.64,2,1.27,3.44.42a97.19,97.19,0,0,0,12.39-8.57,74.27,74.27,0,0,0,6.5-5.83C342,363.26,342.66,362.73,342.57,361.26Zm-58.69-119c.46-9.81,3.42-43.52,13.32-61,11,17,16.31,50.62,16.83,61.6Z" transform="translate(-11.55 -63.4)" fill="#1d1d1b" stroke="#1d1d1b"/><path d="M156.8,186.56a329.33,329.33,0,0,0-3.87,37.12,277.47,277.47,0,0,0,1.26,41.48c3.15,24,8.08,47.29,16.41,70.1.58,1.59,1.22,2.67.62,2.74s-4.52.65-5,.74-4.41.89-4.94,1c-.37.09-1.31-1.42-2.53-3.16a368.12,368.12,0,0,1-22.2-37.13c-4.3-8.54-7.91-17.33-11.48-26.21a3.19,3.19,0,0,0-.61-1.06,10.47,10.47,0,0,0,.08,2.68A292.08,292.08,0,0,0,132,311.77a285.71,285.71,0,0,0,10.44,31.3c.74,1.91,1,3.26.51,3.53a68.42,68.42,0,0,0-10,6.24c-.54.39-1.36-.34-2.18-1.91-4.49-8.69-6.9-18.84-9.52-28.44a306.39,306.39,0,0,1-7.12-33.14,233.12,233.12,0,0,1-3.15-36.94c0-12.57.61-26.27,1.67-39.08a3,3,0,0,1,1.11-1.92c1.11-1,4.76-4.17,6.07-5.35,1.06-1,2.53-2.08,3.14-2.57.25-.2.61-.33,1,.31.89,16.26,2.18,26.83,5,37.27,1.34,4.47,4.66,15,8.16,24.35.85,2.17,3.08,10.45,3.46,10.28s.69-4,0-10.28c-1.34-12-2.49-29.8-2.06-42.24.41-12,0-10.08,1.57-21.52.28-2.07,0-10.35.49-10.62,1.41-.78,6-3.5,8.95-5.3s6.35-3.47,7.85-4.18C157.86,181.33,157.14,184.46,156.8,186.56Z" transform="translate(-11.55 -63.4)" fill="#1d1d1b" stroke="#000" stroke-miterlimit="10"/><path d="M184,286.22c1.15,6.26,3.05,15.47,6.2,26.52s5.85,18.41,7.59,23.17c.51,1.39.34,2.11-.46,2.23-1.09.16-3.84-.1-8.28-.44s-7.23-.79-7.79-2.35c-.37-1-.69-1.9-.95-2.64-.11-.32-.45-1.29-1-2.95-1.47-4.4-3.66-11.11-6.17-21s-4.09-18.11-5-23.67A390.61,390.61,0,0,1,163.22,228c0-1.28,0-2.12,0-2.52,0-1.59.37-2.38,1-2.36a22.67,22.67,0,0,0,3.32.25,17.8,17.8,0,0,0,3.94-.42,28,28,0,0,0,4-1.69,21.93,21.93,0,0,1,4.07-1.6c.74-.16,1.07.62,1,2.36,0,.34-.08,1.18-.18,2.5A249.16,249.16,0,0,0,184,286.22Zm-.11-98c-2.09,13.62-5.54,21.85-11.58,23.72-2.58.8-4.78,0-5.83-3.24-1.14-3.55-1.47-8.24-.68-14.22a38.14,38.14,0,0,1,4.93-14.79c2.35-4,4.89-6.54,7.43-7.56s4.25-.15,5.38,2.63C184.74,177.76,184.81,182.23,183.89,188.26Z" transform="translate(-11.55 -63.4)" fill="#1d1d1b" stroke="#1d1d1b"/><path d="M237.38,419.24c-4.6-24.4-23.11-43.17-47.95-43.17s-46.06,23.08-41.78,47.54c4.71,26.89,19.16,37.3,35.63,43.35C213.3,478,243,448.74,237.38,419.24Z" transform="translate(-11.55 -63.4)"/><path d="M357.29,419.23c4.6-24.4,23.12-43.16,47.95-43.16S451.3,399.14,447,423.6c-4.71,26.89-19.16,37.3-35.62,43.35C381.37,478,351.72,448.73,357.29,419.23Z" transform="translate(-11.55 -63.4)"/><path d="M43.33,359.19l53.81-41.91-2.39-24.45L54.22,319.26Z" transform="translate(-11.55 -63.4)" stroke="#000" stroke-miterlimit="10"/><path d="M553.29,359.29l-53.81-41.92,2.39-24.45,40.54,26.43Z" transform="translate(-11.55 -63.4)" stroke="#000" stroke-miterlimit="10"/><path d="M414.18,500.23s18.71,7.77,37.29,9.63,31.95,1.43,47.89-4.09c4.23-1.47,15.59-7.44,24.06-19.73,6.78-9.85,9.06-18.66,10.11-37.78,3.75-68.44.63-79.77.63-79.77L509.3,352.23a222.15,222.15,0,0,1-6.81,27.21A50,50,0,0,1,491.9,398s.44,15.09.48,27.43c.05,17.39-7.21,30.63-10.35,36.33-3.27,6-11.38,20.75-27.67,29.6A76.65,76.65,0,0,1,414.18,500.23Z" transform="translate(-11.55 -63.4)" stroke="#000" stroke-miterlimit="10" stroke-width="1.02"/><path d="M179.38,500.23s-18.71,7.77-37.3,9.63-32,1.43-47.88-4.09C90,504.3,78.61,498.33,70.14,486c-6.78-9.85-9.06-18.66-10.11-37.78-3.76-68.44-.64-79.77-.64-79.77l24.86-16.26a223.57,223.57,0,0,0,6.82,27.21A49.87,49.87,0,0,0,101.66,398s-.45,15.09-.48,27.43c-.05,17.39,7.21,30.63,10.34,36.33,3.28,6,11.39,20.75,27.68,29.6A76.64,76.64,0,0,0,179.38,500.23Z" transform="translate(-11.55 -63.4)" stroke="#000" stroke-miterlimit="10" stroke-width="1.02"/><path d="M558.84,313.32c-5.1-22.5-14.77-64.06-43.94-109.66a311.3,311.3,0,0,0-29.39-38.86,369.65,369.65,0,0,1,8.66,59.6c2,32.46-.82,56.19-3.19,76-1.41,11.76-3.12,22.1-7.22,34.35a152.12,152.12,0,0,1-11.25,25.54l17.2,17.56a376.16,376.16,0,0,0,17.87-89,374.59,374.59,0,0,0-.61-64.69s26.52,64.53,30.89,85.18c5.07,24,6.18,43.87,8.16,79.18a364.42,364.42,0,0,1,.39,39.56c-1.18,24.82-2.06,39.89-10.76,56.46-3.83,7.3-10.1,19.24-23.43,27.27-14,8.43-27.56,7.6-49.11,6.3C433.06,516.22,412.05,507,406,504.12c-8.51-3.95-19.6-9.22-31.4-19.84-1.72-1.56-3.21-3-4.53-4.36,11.41,7.86,27.78,15.49,46.75,14.55,20.13-1,33.88-14.3,40.69-20.84,3.91-3.74,20.35-20.28,23.74-47,1-7.84,3.07-24.12-6.3-40.7a58.28,58.28,0,0,0-18.95-20c-45-33.7-81.09-16.11-108.83,10.91-.77.75-1.58,1.51-2.43,2.27a22.92,22.92,0,0,0-6.86,11.15L297.64,542.58,257.32,390.27a22.92,22.92,0,0,0-6.86-11.15c-.85-.76-1.66-1.52-2.43-2.27-27.74-27-63.87-44.61-108.83-10.91a58.38,58.38,0,0,0-19,20c-9.36,16.58-7.29,32.86-6.29,40.7,3.39,26.71,19.83,43.25,23.74,47,6.81,6.54,20.56,19.84,40.69,20.84,19,.94,35.34-6.69,46.75-14.55-1.32,1.36-2.81,2.8-4.53,4.36-11.8,10.62-22.9,15.89-31.4,19.84C183.1,507,162.09,516.22,132,518c-21.55,1.3-35.12,2.13-49.11-6.3-13.34-8-19.6-20-23.43-27.27C50.8,467.9,49.92,452.83,48.74,428a361.89,361.89,0,0,1,.39-39.56c2-35.31,3.09-55.22,8.16-79.18,4.37-20.65,30.89-85.18,30.89-85.18A374.87,374.87,0,0,0,105.44,377.8l17.2-17.56a152.12,152.12,0,0,1-11.25-25.54c-4.1-12.25-5.81-22.59-7.22-34.35-2.37-19.76-5.22-43.49-3.19-76a369.65,369.65,0,0,1,8.66-59.6,311.3,311.3,0,0,0-29.39,38.86c-29.17,45.6-38.84,87.16-43.94,109.66a372.33,372.33,0,0,0-5.53,135.14,366.13,366.13,0,0,0,20.27,77.81,93.06,93.06,0,0,0,35.19,17.86C97.29,547,106.09,547,113.7,547a146.47,146.47,0,0,0,47.46-8.1c24.13-8.47,39.35-21.19,53.33-32.85a240.56,240.56,0,0,0,36.86-38.58l-13.66-12-.2.48-.05-.1C225.19,474,203.37,484.37,180.52,476c-19.82-7.28-37.22-19.83-42.88-52.19-5.15-29.45,20.4-57.23,50.3-57.23,21.19,0,42.39,19.19,53.54,31.61a40.8,40.8,0,0,1,9.75,20.08l17.34,98.61a62.53,62.53,0,0,0,5.58,17l17.9,42.71a6.23,6.23,0,0,0,11.18,0l17.72-43A62.94,62.94,0,0,0,326.32,517l17.6-98.79a40.71,40.71,0,0,1,9.75-20.08c11.15-12.42,32.35-31.61,53.54-31.61,29.9,0,55.45,27.78,50.3,57.23-5.67,32.36-23.06,44.91-42.89,52.19-22.85,8.39-44.67-2-56.91-20.15l0,.1-.2-.48-13.66,12A240.12,240.12,0,0,0,380.66,506c14,11.66,29.2,24.38,53.33,32.85a146.47,146.47,0,0,0,47.46,8.1c7.61,0,16.41,0,27.45-2.86a93.12,93.12,0,0,0,35.2-17.86,365.59,365.59,0,0,0,20.26-77.81A372.26,372.26,0,0,0,558.84,313.32Z" transform="translate(-11.55 -63.4)" stroke="#000" stroke-miterlimit="10" stroke-width="1.1"/><path d="M279.53,485.11c-13.69.05-6.24.36-12.85,2.18-11.44,3.14-20.17,7.4-26.67,15-2.68,3.12-7.13,8.43-5.53,13.66,1.24,4.07,5.76,6.83,9.76,7.48,5.95,1,8.65-3.07,16.91-4.55a32.28,32.28,0,0,1,12.68.32" transform="translate(-11.55 -63.4)" fill="none" stroke="#000" stroke-miterlimit="10" stroke-width="12"/><path d="M321,519.16a32.33,32.33,0,0,1,12.69-.32c8.25,1.48,10.95,5.53,16.91,4.55,4-.65,8.51-3.41,9.76-7.48,1.59-5.23-2.86-10.54-5.53-13.66-6.5-7.56-15.23-11.82-26.67-15-6.5-1.78,3.82-2.05-9.51-2.18" transform="translate(-11.55 -63.4)" fill="none" stroke="#000" stroke-miterlimit="10" stroke-width="12"/><path d="M230.22,664a143,143,0,0,0,31.16,49.75l11.05-8.46,25.11,41.24,25.3-41.24,10.49,9.18a207.47,207.47,0,0,0,16.85-22.19A209.67,209.67,0,0,0,365.8,664a159.9,159.9,0,0,1-135.58,0Z" transform="translate(-11.55 -63.4)" stroke="#000" stroke-miterlimit="10" stroke-width="0.99"/><path d="M498.84,557.27a106.42,106.42,0,0,1-38,1l-.09.12c-11-2.6-24.91-8.84-36.49-14.56a260.84,260.84,0,0,1-29.83-17l-11.26-9.15a107.14,107.14,0,0,1-58.06,22.82l-8,20.62c3.78-.61,7.8-1.36,12.05-2.29,5.18,10,9.54,24.19,12.81,36.41,4.16,15.53,7.72,29.28,10.19,42.83a235.11,235.11,0,0,1-29.06,8.19,120.9,120.9,0,0,1-20.19,2.53c-.2-13.55-.79-52.6-.89-62.06a20.16,20.16,0,0,1-4.48.9,16.64,16.64,0,0,1-4.34-.87v62a120.35,120.35,0,0,1-20.33-2.54A233.33,233.33,0,0,1,243.74,638c2.46-13.53,6-27.27,10.17-42.79,3.23-12.05,7.51-26,12.59-36,4.2.92,8.19,1.66,11.92,2.26l-8-20.62a107.15,107.15,0,0,1-58.05-22.82l-10.05,8.16a257.26,257.26,0,0,1-30.69,17.55c-11.55,5.71-25.4,11.93-36.41,14.54l-.07-.1a106.53,106.53,0,0,1-77.5-18A285.16,285.16,0,0,0,229.16,678.26a113.71,113.71,0,0,1-8.48-18.54s-3.29-1.82-4.93-2.71c-51.4-27.82-83.18-63-90.91-82.59a264.87,264.87,0,0,0,34,32.63c15,12.07,70,58.65,138.8,57.92h.48c68.77.73,123.75-45.85,138.8-57.92a266.22,266.22,0,0,0,34-32.63C463.18,594,431.4,629.19,380,657c-1.65.89-4.93,2.71-4.93,2.71a113.74,113.74,0,0,1-8.54,18.64A285.2,285.2,0,0,0,538.38,540.19,106.74,106.74,0,0,1,498.84,557.27Zm-357.39,9c10.43-3.94,22.06-8.09,33.66-13.8,9.87-4.87,21.28-10.5,30.95-15.77,1.92,1,3.92,2.1,6,3.15-4,10.73-8.75,22.57-12.22,35.5s-6.16,25.11-8.27,36.46A233.59,233.59,0,0,1,141.45,566.27Zm57.86,50.53c2.41-12.11,5.64-24.53,9.34-38.35,3.38-12.62,7.09-24.6,12.4-34.27,4.5,2,9.27,4,14.33,5.92A226.64,226.64,0,0,0,257.17,557c-4,10.63-8.66,22.34-12.09,35.12-3.68,13.69-8.08,30.15-10.41,42.48a231.09,231.09,0,0,1-27.4-13.12Q203.18,619.2,199.31,616.8Zm162,17.85c-2.34-12.34-6.74-28.82-10.42-42.52-3.49-13-8.25-24.82-12.26-35.57,6.81-1.8,14.05-4,21.61-6.86,5.09-1.9,9.9-3.91,14.43-6,5.43,9.75,9.22,21.9,12.65,34.72,3.7,13.84,6.94,26.27,9.34,38.41-2.55,1.56-5.16,3.11-7.86,4.63A231.75,231.75,0,0,1,361.26,634.65Zm43.11-22.78c-2.1-11.36-4.8-23.6-8.27-36.52-3.53-13.13-8.37-25.13-12.41-36q2.91-1.49,5.62-3c9.79,5.34,21.44,11.1,31.49,16.06,11.63,5.72,23.29,9.88,33.74,13.83A233.24,233.24,0,0,1,404.37,611.87Z" transform="translate(-11.55 -63.4)" stroke="#000" stroke-miterlimit="10" stroke-width="1.38"/><path d="M474.56,170.84c-2.27-8.78-7.31-24.62-7.31-24.62A245.69,245.69,0,0,0,298,78.9h-.32a245.69,245.69,0,0,0-169.3,67.32s-5,15.84-7.3,24.62c-2,7.58-3.57,14.87-4.91,21.79C157,162,204,144,255,137a316.76,316.76,0,0,1,42.64-3.33H298A316.62,316.62,0,0,1,340.59,137c51,7,98,25,138.87,55.63C478.13,185.71,476.51,178.42,474.56,170.84Z" transform="translate(-11.55 -63.4)" stroke="#000" stroke-miterlimit="10"/></svg>