<svg width="120" height="108" viewBox="0 0 120 108" fill="none" xmlns="http://www.w3.org/2000/svg">
<g filter="url(#filter0_d_185_173)">
<path d="M66.3221 28.0151C73.439 27.5872 80.3703 27.8633 87.2383 26.5887C92.3506 25.6418 97.5135 24.9671 102.66 24.1514C104.159 23.9102 105.667 23.6597 107.152 23.3128C107.727 23.1612 108.329 23.1483 108.91 23.2753C109.491 23.4022 110.035 23.6655 110.499 24.0442C112.626 25.7729 114.645 27.6057 114.309 30.8326C114.264 31.6834 114.328 32.5366 114.499 33.3705C115.203 37.8851 114.856 42.4184 114.734 46.9471C114.657 49.9896 114.606 53.0306 114.651 56.0747C114.76 63.0856 116.325 70.0089 115.939 77.0495C115.901 77.9678 115.814 78.8833 115.68 79.7921C115.514 80.6904 114.956 81.1236 113.965 81.2898C110.529 81.7273 107.051 81.7065 103.619 81.2279C100.813 80.8033 97.9669 80.718 95.1408 80.9737C93.2506 81.2295 91.2761 80.7797 89.339 80.8251C87.4018 80.8705 85.6258 81.1461 83.7733 81.3019C83.0173 81.3773 82.257 81.3992 81.498 81.3676C77 81.0518 72.5082 80.6912 68.0117 80.4019C67.2062 80.3972 66.4013 80.4456 65.6019 80.5468C65.3528 84.8255 65.148 88.9684 64.8652 93.1159C64.7368 94.9623 64.3452 95.2612 62.4876 95.6305C62.0412 95.7535 61.6348 95.9956 61.3103 96.332C60.1355 97.4407 58.7171 98.2449 57.1745 98.677C56.3194 98.9327 55.3944 98.8817 54.7942 99.7883C54.626 100.038 53.8188 100.069 53.4506 99.8691C52.808 99.6145 52.263 99.1551 51.8963 98.5591C50.5816 95.5203 47.7841 94.0718 45.5261 92.0224C42.1671 88.9821 38.6323 86.059 36.4272 81.9101C35.9595 80.873 35.1138 80.0633 34.0702 79.6535C33.4451 79.3508 32.8658 78.9578 32.3502 78.4866C31.2688 77.7431 30.2466 76.9135 29.2931 76.0056C27.26 73.7828 24.7684 72.0583 22.7139 69.9168C17.4752 64.449 12.4997 58.7168 7.42468 53.0704C6.67149 52.2274 5.90963 51.385 5.134 50.6055C4.7666 50.2871 4.47405 49.8884 4.27798 49.4389C4.08192 48.9894 3.98737 48.5006 4.00135 48.0088C4.23121 45.8098 4.6227 43.6988 6.37418 42.0923C9.4947 39.1865 12.4276 36.0433 15.7077 33.3412C18.4489 31.0978 21.5674 29.3647 24.5136 27.3577C25.7027 26.6269 26.8056 25.7588 27.8004 24.7706C31.9774 20.1225 37.1069 16.7584 42.2253 13.3505C43.9594 12.1981 45.5585 10.8139 47.2222 9.49695C48.886 8.17997 50.2449 7.00569 51.8317 5.86211C53.4585 4.78463 54.8823 3.41727 56.0352 1.82529C56.4623 1.08019 57.1318 0.511682 57.9272 0.218771C58.7225 -0.0741395 59.5932 -0.0728769 60.3878 0.222307C60.5951 0.254784 60.7928 0.33391 60.9665 0.453981C63.0665 2.62836 65.8869 4.32418 65.8851 7.91294C65.8832 10.7467 65.6987 13.5825 65.7137 16.4063C65.7363 19.5139 65.8716 22.6148 65.9977 25.7073C66.0673 26.4817 66.1756 27.2519 66.3221 28.0151ZM83.7266 76.4191L80.7191 75.8538L81.3658 79.0749C84.1515 78.8097 86.9938 79.6781 89.8529 78.8755C88.4225 77.7535 87.0299 76.8335 85.8509 75.6963C84.6719 74.5591 83.6352 74.5326 81.977 75.0409L83.7261 76.4103L83.7266 76.4191ZM105.3 37.5122C106.852 38.1828 107.195 38.1 107.685 36.9336L107.531 32.7591C107.629 30.5325 107.735 28.3054 107.854 25.8289C106.139 26.2695 104.706 26.7554 103.241 26.9945C99.4992 27.5748 95.7376 28.1118 92.0229 28.5572C87.621 29.0529 83.2206 29.4744 78.8218 29.8218C75.2284 30.1089 71.6269 30.2544 68.0294 30.4707C67.3446 30.5118 66.6644 30.6327 65.973 30.7098C63.9935 30.9265 62.0028 31.2505 60.0131 31.2902C59.311 31.3324 58.103 30.7477 57.9693 30.2405C57.2874 27.4657 56.2251 24.7315 56.662 21.7473C57.0257 19.6796 57.2481 17.5885 57.3276 15.4893C57.3534 11.7125 56.4572 7.93793 57.714 3.78517C55.7376 5.56508 54.132 6.98516 52.5539 8.43023C52.3305 8.69406 52.1371 8.98281 51.9772 9.291C51.6119 9.46595 51.2708 9.68956 50.963 9.956C48.9393 12.2717 46.9446 14.639 44.9296 16.9542C43.8618 17.5277 42.8382 18.1831 41.8676 18.9149C40.5266 20.097 39.4135 21.6118 38.0669 22.6965C37.1402 23.3524 36.3874 24.2328 35.8757 25.2588C35.3641 26.2849 35.1096 27.4245 35.1352 28.5756L34.4005 29.1083L33.0655 29.1885L31.8095 28.3758C31.5933 27.0386 31.379 25.7368 31.1184 24.0825C29.5423 25.865 28.2309 27.7115 26.8925 29.5419L20.3919 34.9249C19.9878 34.9816 19.5974 35.1134 19.24 35.3139C16.7466 37.3292 14.3083 39.3946 11.8608 41.4515C11.6375 41.735 11.448 42.0446 11.2964 42.3737C11.7127 42.2971 12.1223 42.1863 12.5212 42.0425C15.5566 40.6241 18.9475 40.2 22.2284 40.8282C23.3166 40.9937 24.4226 41.016 25.5225 41.0831C27.7829 41.2137 30.0459 41.3885 32.3196 41.4473C33.5394 41.4805 34.8442 41.633 35.7447 40.504L38.2362 40.7184C37.9231 41.0215 37.6564 41.5261 37.3036 41.5917C35.6128 41.9343 33.9054 42.1852 32.1887 42.3434C28.2669 42.668 24.3467 43.0192 20.4305 42.0821C19.3525 41.8438 18.2332 41.8867 17.1757 42.2067C14.2703 43.1098 11.4479 44.2478 8.56341 45.2118C8.05861 45.3323 7.59809 45.5977 7.23618 45.9767C6.87426 46.3558 6.62603 46.8326 6.5208 47.351C6.70947 47.7881 6.94938 48.2002 7.23526 48.5782C8.57845 49.9987 9.93797 51.4004 11.3566 52.7718C12.2815 53.8188 13.37 54.7019 14.5779 55.3851C17.7366 56.8758 21.2035 57.5577 24.6784 57.3716C26.0522 57.2593 27.4319 57.2446 28.8077 57.3276C32.1069 57.5201 35.0466 58.8712 38.0067 60.2743C42.9362 62.6428 46.4926 66.3907 49.4738 70.8749C48.092 73.01 48.089 73.1078 45.8611 73.0908C44.3559 72.9852 42.8591 72.7785 41.3805 72.4719C41.7967 72.2666 42.234 72.1092 42.6843 72.0027C43.7128 71.8875 44.7561 71.8781 45.7963 71.8156C46.2762 71.8606 46.7552 71.7206 47.1389 71.4229C47.5227 71.1253 47.7833 70.6917 47.8695 70.2075C47.4811 69.5822 47.0124 69.0129 46.4759 68.5147C43.3729 66.2941 40.3087 63.9911 37.0553 62.0282C34.3073 60.2218 31.0959 59.2896 27.8283 59.3496C24.3806 59.5167 20.9288 59.1246 17.6013 58.188C17.1239 58.1037 16.6414 58.0525 16.1573 58.0349L17.6585 59.9344C18.399 60.8581 19.2231 61.7235 19.8712 62.7061C21.6397 65.5006 24.3106 67.5745 27.4203 68.5678C28.6587 69.0227 29.8733 69.5427 31.0592 70.1256L30.9174 70.5339L25.6214 69.2001L27.9901 71.6603C29.217 73.9316 31.3899 75.1068 33.3582 76.5074C35.3265 77.908 37.5116 78.3895 39.0215 80.2885C40.057 81.5082 41.1751 82.652 42.3678 83.7114C42.9741 84.2701 43.7441 84.6502 44.3835 85.1803C47.2142 87.5062 50.0296 89.8685 52.8893 92.2459C53.7984 91.5694 53.6668 90.6447 53.6143 89.7329C53.451 86.9002 53.5064 84.0899 55.192 81.6435C55.4275 81.21 55.552 80.7229 55.554 80.2271C55.5516 78.8229 55.6393 77.4201 55.8164 76.0275C56.0835 74.7768 55.5735 73.3241 56.5413 72.3065C57.4132 72.3429 58.1832 72.421 58.9389 72.4022C62.9443 72.3212 66.9481 72.2138 70.953 72.124C71.2304 72.1073 71.5078 72.0906 71.8234 72.1338C74.5693 72.2352 77.3346 72.522 80.0662 72.3755C83.5336 72.167 86.9414 72.7349 90.3778 72.8925C93.3256 73.0261 96.3086 73.1666 99.1937 72.3624C101.394 71.7593 103.555 71.0609 106.112 71.6622C106.765 68.9581 107.384 66.2561 108.072 63.4166C106.819 62.98 105.595 62.4601 104.407 61.8604C101.247 59.9985 97.7805 59.0166 94.3308 58.0249C93.3348 57.7471 92.2987 57.65 91.2698 57.7381C89.1373 57.8663 87.0304 58.4371 84.901 58.4675C81.8058 58.5944 78.7056 58.4839 75.6266 58.1368C69.6208 57.3165 63.667 56.191 57.6866 55.2093C56.5363 55.0209 55.3589 54.9673 54.1866 54.8512C52.002 53.9255 49.74 53.1644 47.372 53.5822C46.0799 53.802 44.798 54.1988 43.5436 54.4697C40.528 55.1218 37.6016 56.115 34.3856 55.7043C30.0049 55.1594 25.5895 55.0695 21.1991 54.6584C19.4501 54.4971 17.75 53.9775 16.0362 53.6719C17.2682 53.4312 18.5282 53.3764 19.7759 53.5092C23.5615 53.6902 27.3471 53.8712 31.1139 54.0267C33.0393 54.1936 34.9739 54.2198 36.9029 54.105C38.8834 53.8308 40.8366 53.3804 42.7404 52.7592C45.4352 51.9754 48.2188 51.2217 50.9117 51.9125C55.753 53.0656 60.6504 53.9572 65.5837 54.5835C69.3999 55.1446 73.2365 55.6068 77.0696 56.007C78.9252 56.2063 80.7945 56.1916 82.6567 56.204C84.7215 56.3468 86.7948 56.2906 88.8491 56.0361C90.8156 55.6787 92.836 55.7851 94.756 56.3471C98.33 57.2132 101.775 58.5624 104.999 60.3591C105.9 60.9001 106.804 61.4854 108.101 62.2513C108.095 58.8229 108.108 55.7397 108.078 52.6503C108.062 51.0257 107.969 49.4058 107.919 47.7744C108.016 47.2857 107.93 46.7774 107.676 46.3512C107.423 45.925 107.021 45.6124 106.551 45.476C103.391 44.227 100.311 42.8665 97.1416 41.6003C93.0004 39.9897 88.5865 39.2375 84.1575 39.3875C82.793 39.4074 81.4177 39.0903 80.0527 39.1013C78.3139 39.1171 76.5042 39.2614 74.7389 39.4208C73.7971 39.5308 72.8956 40.038 71.9584 40.0765C68.2273 40.2387 64.4983 40.2853 60.7632 40.3766L59.3252 40.1788C60.7819 39.5347 62.3784 39.2917 63.9557 39.474C67.3232 39.6446 70.7096 39.6897 73.948 38.5268C75.9254 37.7007 78.0795 37.4151 80.198 37.698C80.3302 37.7352 80.4685 37.7448 80.6044 37.726C80.7404 37.7072 80.8712 37.6605 80.989 37.5886C81.1067 37.5168 81.2091 37.4213 81.2897 37.308C81.3704 37.1947 81.4278 37.0659 81.4584 36.9294L89.7792 36.8643C90.1372 37.0366 90.5157 37.1602 90.9051 37.2319C93.4364 37.3817 95.9763 37.531 98.5207 37.609C100.507 37.6672 102.497 37.6275 104.489 37.6321L105.3 37.5122ZM100.775 39.1434L100.702 39.6808C102.892 40.5528 104.978 41.7244 107.524 41.9799L107.37 39.3243L100.775 39.1434ZM112.931 79.3356L113.523 78.8914C113.379 78.338 113.149 77.812 112.841 77.3335C111.496 75.8688 110.067 74.4712 108.626 73.0211C108.002 73.5117 107.378 74.1621 108.099 74.8916C109.65 76.4505 111.332 77.8595 112.931 79.3356ZM112.456 34.5859C112.488 31.3773 112.571 31.3013 111.233 29.6762C110.653 28.9738 110.298 27.796 108.752 27.6846C109.517 28.8822 108.832 30.4246 110.372 31.0338C110.442 31.1004 110.495 31.1838 110.526 31.2765C110.558 31.3691 110.566 31.4682 110.55 31.5649C110.061 33.1932 111.421 33.5467 112.473 34.5849L112.456 34.5859ZM112.541 64.2761C112.596 62.0609 110.848 61.6153 109.399 60.7786L110.261 64.4131L112.541 64.2761ZM111.547 55.3375C109.904 53.7042 111.319 51.3806 109.479 49.6525C109.43 51.3521 109.418 52.6674 109.329 53.9786C109.239 55.2897 109.327 55.4621 111.547 55.3375ZM111.375 52.3544C111.412 52.7736 111.594 53.1656 111.888 53.4604C112.183 53.7551 112.57 53.9334 112.981 53.9633C113.179 52.5657 112.105 52.6392 111.375 52.3544ZM108.659 26.0647C108.614 26.1918 108.509 26.3402 108.549 26.4266C108.589 26.513 108.772 26.5198 108.888 26.5661C108.933 26.4391 109.037 26.2907 108.997 26.2042C108.958 26.1178 108.78 26.0574 108.659 26.0647Z" fill="#6E4323"/>
<path d="M35.7891 40.5192C34.8453 41.6507 33.5404 41.4982 32.364 41.4623C30.0903 41.4036 27.8273 41.2288 25.5668 41.0982C24.4669 41.0311 23.3609 41.0088 22.2728 40.8432C18.9919 40.215 15.601 40.6392 12.5656 42.0576C12.1667 42.2014 11.7571 42.3122 11.3408 42.3888C11.4924 42.0596 11.6819 41.75 11.9052 41.4666C14.396 39.407 16.7997 37.3438 19.2844 35.3291C19.6418 35.1285 20.0322 34.9967 20.4362 34.94C20.2629 36.0075 18.6695 36.4319 19.2366 38.1211C20.0196 37.9813 20.7829 37.7445 21.5097 37.416C23.8794 35.9707 26.2105 34.4596 28.503 32.8827C30.0097 31.8595 29.9715 31.7996 31.6568 32.8175C32.9184 33.5766 33.3243 33.5256 34.3389 32.4164C35.1548 31.479 35.967 30.4797 36.8557 29.6002C39.4534 26.9805 42.0819 24.3916 44.7412 21.8333C45.4892 21.0974 46.3306 20.4672 47.2427 19.9597C49.586 18.6283 51.6998 16.9138 53.5001 14.8844C55.3051 12.9993 54.7732 10.8639 52.4311 9.61902C52.2639 9.50112 52.1077 9.3678 51.9645 9.22072C52.1243 8.91252 52.3178 8.62375 52.5411 8.35993C54.1192 6.91486 55.7254 5.50365 57.7012 3.71489C56.4445 7.86765 57.3406 11.6423 57.3148 15.419C57.2354 17.5182 57.0129 19.6093 56.6492 21.677C56.2124 24.6612 57.2747 27.3954 57.9566 30.1703C58.0902 30.6774 59.2967 31.2356 60.0004 31.2199C61.9901 31.1802 63.9807 30.8562 65.9602 30.6395C66.6537 30.5978 67.3319 30.4415 68.0167 30.4004C71.6142 30.1841 75.2152 30.0297 78.809 29.7515C83.2075 29.3982 87.6079 28.9767 92.0102 28.487C95.7698 28.0655 99.5314 27.5284 103.228 26.9242C104.694 26.7028 106.128 26.2169 107.841 25.7586C107.723 28.2439 107.616 30.4622 107.518 32.6888C105.354 32.2593 103.184 31.8835 101.041 31.3816C98.2091 30.8107 95.2845 30.9409 92.5121 31.7612C89.6479 32.4752 86.7205 32.9977 83.8564 33.7117C82.0992 34.1638 80.4446 34.8851 78.687 35.4793L78.7125 35.9219C79.277 35.9033 79.8418 35.9438 80.3983 36.0427C80.7931 36.2157 81.1568 36.455 81.4742 36.7508C81.4436 36.8873 81.3862 37.0161 81.3055 37.1294C81.2249 37.2427 81.1225 37.3382 81.0048 37.41C80.887 37.4818 80.7562 37.5286 80.6202 37.5474C80.4843 37.5662 80.346 37.5566 80.2138 37.5194C78.0953 37.2365 75.9412 37.5221 73.9638 38.3482C70.7254 39.5111 67.339 39.466 63.9715 39.2954C62.3942 39.1131 60.7977 39.3561 59.341 40.0002L60.779 40.198C61.5735 41.758 63.1609 41.8313 64.5112 42.0166C68.0189 42.5075 71.5205 42.8921 75.0119 43.0997C76.8816 43.2618 78.7646 43.1155 80.5888 42.6666C83.2424 41.9208 85.7853 42.2743 88.3686 42.723C91.4878 43.2638 94.5779 44.0551 97.6584 44.8293C99.2731 45.2163 100.852 45.7455 102.377 46.4109C104.102 47.313 106.035 47.7188 107.968 47.5848C108.019 49.2162 108.112 50.8361 108.128 52.4608C108.158 55.5502 108.147 58.6776 108.151 62.0617C106.886 61.2494 105.985 60.7085 105.049 60.1696C101.804 58.3877 98.3395 57.0575 94.7484 56.2143C92.8284 55.6523 90.8079 55.5459 88.8415 55.9032C86.7871 56.1578 84.7138 56.2141 82.6491 56.0713C80.7869 56.0589 78.9175 56.0735 77.062 55.8742C73.2289 55.474 69.3923 55.0118 65.576 54.4507C60.6428 53.8244 55.7453 52.9328 50.9041 51.7797C48.2091 51.0535 45.4276 51.8426 42.7327 52.6264C40.829 53.2476 38.8758 53.698 36.8953 53.9722C34.9662 54.087 33.0316 54.0609 31.1062 53.8939C27.3221 53.7395 23.5365 53.5585 19.7682 53.3764C18.5206 53.2436 17.2606 53.2984 16.0285 53.5391C17.7877 53.8775 19.4598 54.3632 21.1915 54.5256C25.5645 54.9377 30.0059 55.026 34.3779 55.5715C37.594 55.9822 40.5203 54.989 43.5359 54.3369C44.8163 54.0645 46.1069 53.6671 47.3643 53.4494C49.767 53.0295 51.9944 53.7928 54.1789 54.7185L52.4508 54.9201C56.3487 56.2935 60.323 57.1827 64.2168 58.3343C69.7117 59.9492 75.3494 60.1166 80.9921 60.3725C83.12 60.4666 85.2688 60.4706 87.3742 60.7793C92.0859 61.482 96.5681 63.1845 101.161 64.3918C101.506 64.45 101.817 64.6389 102.031 64.9207C102.246 65.2025 102.348 65.5565 102.319 65.9122C102.335 66.9505 101.739 68.2387 100.803 68.4372C98.654 68.8862 96.5195 69.583 94.2626 69.2124C93.4514 69.0956 92.6272 69.1122 91.8211 69.2615C88.1192 69.9282 84.4172 70.2929 80.7264 69.3423C76.1968 68.1756 71.5861 68.1686 66.976 68.0194C64.7797 67.9471 62.6116 67.7577 60.3883 67.6693C58.3915 67.5851 56.3931 67.4743 54.3953 67.5234C53.0603 67.6036 52.5867 68.1384 52.9141 69.4423C53.2919 70.3648 53.7895 71.2312 54.3935 72.0182C53.2753 72.6894 53.0219 73.8772 53.1576 75.3258C53.1619 76.2332 53.0443 77.1369 52.808 78.0117C52.5302 79.5296 52.182 81.0339 51.8929 82.5081C51.7099 83.4074 51.6019 84.3998 51.4321 85.5293C48.5704 84.0225 45.6837 82.988 43.3849 80.6835C41.6862 79.1272 39.8378 77.7504 37.8679 76.5738C35.9592 75.3028 33.8996 74.2808 32.0154 72.9817C30.8206 72.1369 29.4189 71.649 27.9676 71.5729L25.5989 69.1126L30.895 70.4464L31.0367 70.0382C29.8509 69.4552 28.6363 68.9353 27.3979 68.4804C24.2882 67.487 21.6173 65.4131 19.8488 62.6186C19.2006 61.6361 18.3766 60.7707 17.6361 59.847C18.1674 59.1044 18.6626 59.5454 19.252 59.812C22.0306 61.0839 24.8857 62.3246 27.9896 62.1469C30.2036 62.0435 32.3964 62.627 34.2794 63.8206C36.0238 64.9624 37.9307 65.8216 39.9325 66.3676C41.6933 66.7326 42.7606 68.1963 43.9977 69.8896L39.7615 71.8497L41.3193 72.4667C42.7979 72.7733 44.2947 72.98 45.8 73.0856C48.0278 73.1026 48.0308 73.0047 49.4126 70.8697C46.4314 66.3855 42.847 62.6038 37.9455 60.2691C34.9854 58.866 32.0457 57.5149 28.7465 57.3225C27.3707 57.2395 25.991 57.2541 24.6172 57.3664C21.1548 57.539 17.7032 56.8504 14.559 55.3596C13.3512 54.6764 12.2626 53.7933 11.3378 52.7464C9.92115 51.4103 8.5703 50.0081 7.21639 48.5528C6.93051 48.1747 6.69062 47.7626 6.50195 47.3255C10.8515 46.4244 15.2755 46.3627 19.6781 46.0802C21.8886 45.9473 24.1776 46.1206 26.2861 45.5763C28.2327 45.1605 30.2397 45.1334 32.1965 45.4963C35.2106 45.8747 37.9141 44.9394 40.6911 44.2217C41.2678 44.0766 41.7829 43.7444 42.1589 43.2749C42.535 42.8054 42.7517 42.224 42.7765 41.618L40.6298 42.5554L39.8577 40.6298C42.1538 40.7253 44.4229 40.0957 46.356 38.8268C47.8841 37.7222 49.7723 37.733 51.5729 37.8824C53.9032 38.0176 56.2549 38.2226 58.5475 38.1559C60.4735 38.0204 62.3906 37.7747 64.2896 37.4198C67.7576 36.7894 71.0692 35.4642 74.0334 33.5207C74.1027 33.5165 74.0191 33.2728 74.0629 32.977C72.6759 33.0604 71.2457 33.4484 69.9418 33.1626C67.5373 32.7433 65.0644 33.1255 62.8892 34.2529C60.3924 35.2894 57.7266 35.8354 55.0315 35.8623C53.9219 35.9291 52.8124 35.9958 51.7028 36.0625C48.8855 36.2319 46.0182 36.1378 43.3382 37.3293C42.804 37.4957 42.2436 37.5565 41.6871 37.5085C38.854 37.5545 36.0286 37.5823 33.1945 37.6106C31.7162 37.6195 30.4466 38.2288 28.6828 39.1699C29.9954 39.4551 30.8428 39.6707 31.6954 39.8237C33.1202 40.0934 34.4541 40.2974 35.7891 40.5192ZM57.2183 50.1032L57.1403 50.561C57.4075 50.7283 57.6835 50.8807 57.9669 51.0175C61.9251 52.5141 66.0383 53.5425 70.2259 54.0823C72.6267 54.3807 75.055 54.363 77.4514 54.0298C81.1988 53.5469 84.8385 52.5553 88.6986 52.9716C92.7167 53.414 96.638 53.8356 100.187 56.0916C101.02 56.6637 102.006 56.9603 103.01 56.9412C104.014 56.9221 104.988 56.5884 105.8 55.9851C105.512 53.8528 103.829 51.9731 101.927 51.8742C98.5587 51.6948 95.1754 51.7028 91.8028 51.5947C89.9457 51.5198 88.1014 51.3642 86.2488 51.218C82.9548 50.963 79.65 50.3712 76.3692 50.4974C72.7595 50.6522 69.2059 50.1197 65.614 50.1314C62.8049 50.1404 60.0111 50.113 57.2096 50.1038L57.2183 50.1032ZM33.267 67.6834C31.6438 65.9333 26.2631 64.0362 24.4412 64.5721C26.7543 66.3695 31.2645 67.9548 33.2583 67.6839L33.267 67.6834ZM34.4214 67.9426C34.3781 67.9452 34.3205 68.0019 34.3052 68.0384C34.2899 68.0749 34.3536 68.1243 34.373 68.1587L34.5637 67.9962L34.4214 67.9426Z" fill="#A76633"/>
<path d="M27.9707 71.626C29.422 71.7022 30.8237 72.19 32.0185 73.0348C33.9027 74.3339 35.9623 75.3559 37.871 76.6269C39.8409 77.8035 41.6893 79.1803 43.388 80.7366C45.6868 83.0411 48.5735 84.0756 51.4352 85.5824C51.6049 84.453 51.7155 83.5047 51.896 82.5612C52.183 81.0516 52.5312 79.5473 52.8111 78.0648C53.0473 77.19 53.165 76.2863 53.1607 75.3789C53.025 73.9303 53.2763 72.7071 54.3966 72.0713C53.7925 71.2843 53.2949 70.4179 52.9172 69.4954C52.5897 68.1915 53.0609 67.6125 54.3984 67.5765C56.3962 67.5274 58.3946 67.6382 60.3914 67.7225C62.5886 67.8124 64.7568 68.0018 66.979 68.0725C71.5892 68.2217 76.1998 68.2288 80.7295 69.3954C84.4203 70.346 88.1222 69.9813 91.8242 69.3146C92.6302 69.1653 93.4545 69.1487 94.2657 69.2655C96.52 69.5918 98.657 68.9393 100.806 68.4903C101.743 68.2919 102.338 67.0036 102.322 65.9653C102.351 65.6096 102.249 65.2556 102.034 64.9738C101.82 64.692 101.509 64.5031 101.164 64.4449C96.5707 63.2287 92.0884 61.5263 87.3773 60.8324C85.2718 60.5238 83.123 60.5197 80.9952 60.4256C75.3524 60.1697 69.7148 60.0023 64.2199 58.3874C60.3261 57.2358 56.3517 56.3466 52.4539 54.9732L54.182 54.7716C55.3456 54.8882 56.523 54.9418 57.682 55.1297C63.6619 56.1026 69.6162 57.2369 75.6221 58.0572C78.701 58.4043 81.8012 58.5148 84.8964 58.3878C87.0258 58.3575 89.1353 57.8309 91.2652 57.6585C92.2941 57.5704 93.3302 57.6674 94.3262 57.9452C97.7774 58.9635 101.244 59.9454 104.403 61.7807C105.59 62.3804 106.814 62.9003 108.068 63.3369C107.364 66.2129 106.759 68.843 106.108 71.5825C103.542 70.9818 101.381 71.6802 99.1891 72.2828C96.303 73.0692 93.32 72.9288 90.3732 72.8128C86.9368 72.6553 83.5387 72.1045 80.0616 72.2958C77.331 72.46 74.5647 72.1556 71.8188 72.0542C71.5415 72.0709 71.261 72.0344 70.9484 72.0443C66.9435 72.1341 62.9397 72.2416 58.9343 72.3225C58.1802 72.3679 57.426 72.2622 56.5367 72.2268C55.5689 73.2444 56.0789 74.6972 55.8118 75.9479C55.6347 77.3404 55.547 78.7432 55.5494 80.1475C55.5474 80.6432 55.4229 81.1303 55.1874 81.5638C53.5043 84.0545 53.4923 86.8622 53.6097 89.6532C53.6607 90.5384 53.7765 91.4908 52.8847 92.1662C50.025 89.7888 47.2096 87.4265 44.379 85.1006C43.7395 84.5705 42.9695 84.1905 42.3632 83.6318C41.1706 82.5723 40.0524 81.4285 39.0169 80.2088C37.507 78.3098 35.2057 77.7731 33.3536 76.4277C31.5015 75.0823 29.1977 73.8973 27.9707 71.626Z" fill="#8B5327"/>
<path d="M107.912 47.6593C105.978 47.7932 104.046 47.3874 102.321 46.4854C100.795 45.8199 99.2165 45.2907 97.6018 44.9037C94.5213 44.1296 91.4225 43.3388 88.312 42.7974C85.7548 42.3472 83.1858 41.9953 80.5322 42.7411C78.708 43.19 76.825 43.3362 74.9553 43.1741C71.4639 42.9665 67.9623 42.5819 64.4546 42.0911C63.1038 41.8969 61.5169 41.8325 60.7224 40.2725C64.4575 40.1811 68.1865 40.1346 71.9176 39.9724C72.8538 39.9161 73.7563 39.4266 74.6981 39.3167C76.4267 39.1239 78.2364 38.9796 80.0119 38.9972C81.377 38.9862 82.7522 39.3032 84.1167 39.2833C88.5457 39.1333 92.9596 39.8856 97.1008 41.4962C100.246 42.7905 103.343 44.1499 106.51 45.3719C106.984 45.501 107.392 45.8089 107.652 46.2334C107.913 46.658 108.005 47.1676 107.912 47.6593Z" fill="#8B5327"/>
<path d="M51.887 9.23424C52.0302 9.38132 52.1864 9.51467 52.3535 9.63257C54.6946 10.8598 55.2251 12.9686 53.4226 14.898C51.6223 16.9274 49.5085 18.6418 47.1652 19.9732C46.2531 20.4808 45.4117 21.1109 44.6637 21.8469C41.9986 24.4055 39.3702 26.9944 36.7782 29.6138C35.89 30.5022 35.1466 31.4884 34.2614 32.4299C33.2468 33.5391 32.8409 33.5901 31.5793 32.831C29.894 31.8131 29.9322 31.873 28.4255 32.8963C26.1326 34.4672 23.8016 35.9783 21.4322 37.4295C20.7054 37.758 19.942 37.9948 19.1591 38.1347C18.592 36.4455 20.1854 36.021 20.3587 34.9536L26.7701 29.5315C28.3411 28.8686 29.9101 28.1702 31.6861 28.3477L32.9421 29.1604L33.4006 30.1722L34.2766 29.0713L35.0113 28.5386C35.5387 28.4427 36.0437 28.2466 36.5002 27.9605C37.9532 26.6738 39.2949 25.2617 40.5105 23.7399C42.1243 21.5554 43.3872 19.1699 44.8031 16.873C46.8172 14.5401 48.8128 12.1905 50.8366 9.87477C51.157 9.61413 51.5103 9.39869 51.887 9.23424Z" fill="#B68457"/>
<path d="M35.7891 40.5192C34.4541 40.2974 33.1548 40.0913 31.7938 39.8711C30.9153 39.7196 30.0938 39.5025 28.7812 39.2172C30.545 38.2762 31.8146 37.6669 33.2929 37.658C36.127 37.6297 38.9524 37.6019 41.7855 37.5559C42.342 37.6039 42.9024 37.5431 43.4366 37.3767C46.1167 36.1852 48.9849 36.297 51.8012 36.1099C52.9108 36.0431 54.0203 35.9764 55.1299 35.9097C57.825 35.8828 60.4909 35.3367 62.9876 34.3003C65.1628 33.1729 67.6357 32.7906 70.0402 33.21C71.3441 33.4958 72.7744 33.1078 74.1613 33.0244C74.1782 33.3165 74.1904 33.529 74.1318 33.568C71.1745 35.5047 67.872 36.8262 64.4135 37.4568C62.5145 37.8117 60.5974 38.0574 58.6714 38.1929C56.3442 38.2617 53.9924 38.0567 51.6968 37.9193C49.8728 37.8158 48.008 37.7592 46.4799 38.8637C44.5468 40.1327 42.2777 40.7623 39.9816 40.6668L38.3433 40.7653L35.7891 40.5192Z" fill="#B68457"/>
<path d="M38.2805 40.7335L39.9189 40.635L40.691 42.5605L42.8377 41.6232C42.8129 42.2292 42.5961 42.8106 42.2201 43.2801C41.8441 43.7496 41.329 44.0818 40.7523 44.2268C37.9753 44.9445 35.2718 45.8799 32.2577 45.5015C30.3009 45.1386 28.2939 45.1657 26.3472 45.5815C24.2388 46.1258 21.9492 45.9437 19.7393 46.0854C15.3357 46.3502 10.9127 46.4296 6.56313 47.3307C6.66837 46.8123 6.91658 46.3355 7.2785 45.9565C7.64041 45.5774 8.10094 45.312 8.60574 45.1915C11.4903 44.2275 14.3116 43.0718 17.218 42.1865C18.2755 41.8664 19.3949 41.8235 20.4728 42.0618C24.389 42.9989 28.3352 42.6461 32.231 42.3231C33.9477 42.1649 35.6551 41.914 37.3459 41.5714C37.6835 41.5422 37.9675 41.0366 38.2805 40.7335Z" fill="#8B5327"/>
<path d="M81.4523 36.8232C81.1349 36.5274 80.7712 36.2881 80.3763 36.1151C79.8199 36.0162 79.255 35.9757 78.6906 35.9944L78.665 35.5517C80.3707 34.9606 82.0687 34.2367 83.8345 33.7841C86.6976 33.0524 89.626 32.5476 92.4902 31.8336C95.2626 31.0133 98.1872 30.8831 101.019 31.454C103.162 31.9559 105.332 32.3317 107.497 32.7612C107.577 34.1509 107.596 35.5444 107.65 36.9357L105.265 37.5143L104.494 37.5607C104.379 37.3811 104.3 37.0661 104.169 37.0473C100.65 36.3706 97.2672 34.4244 93.4985 35.7436C92.288 36.1716 91.0254 36.4519 89.7838 36.793L81.4523 36.8232Z" fill="#B68457"/>
<path d="M41.383 72.5162L39.8252 71.8992L44.0615 69.939C42.8238 68.2369 41.7223 66.7842 39.9962 66.4172C37.9945 65.8711 36.0875 65.0119 34.3432 63.8701C32.4601 62.6765 30.2673 62.093 28.0533 62.1963C24.95 62.3829 22.0944 61.1334 19.3158 59.8615C18.7263 59.5949 18.2311 59.1539 17.6998 59.8964L16.1986 57.997C16.6828 58.0145 17.1652 58.0657 17.6426 58.15C20.9701 59.0866 24.4219 59.4787 27.8696 59.3116C31.1468 59.2743 34.3606 60.2345 37.1012 62.0699C40.3546 64.0328 43.4361 66.3347 46.5217 68.5564C47.0582 69.0546 47.527 69.6239 47.9154 70.2491C47.8292 70.7333 47.5686 71.1669 47.1848 71.4646C46.8011 71.7622 46.3221 71.9023 45.8422 71.8572C44.802 71.9197 43.7618 71.9823 42.7302 72.0443C42.265 72.1485 41.813 72.3068 41.383 72.5162Z" fill="#8B5327"/>
<path d="M44.8393 16.8975C43.4234 19.1944 42.1258 21.582 40.5467 23.7644C39.3311 25.2862 37.9894 26.6983 36.5364 27.985C36.0799 28.2711 35.5749 28.4672 35.0475 28.563C35.0219 27.4119 35.2764 26.2724 35.788 25.2464C36.2996 24.2203 37.0525 23.3399 37.9792 22.684C39.3677 21.5701 40.4374 20.0579 41.7799 18.9024C42.7482 18.1555 43.771 17.4852 44.8393 16.8975Z" fill="#A76633"/>
<path d="M83.7266 76.4191L81.9775 75.0498C83.6352 74.5326 84.754 74.6252 85.8514 75.7051C86.9488 76.785 88.423 77.7623 89.8534 78.8844C86.9943 79.6869 84.152 78.8186 81.3664 79.0838L80.7196 75.8626L83.7271 76.428L83.9061 76.5149L83.7266 76.4191Z" fill="#8B5327"/>
<path d="M89.7731 36.7581C91.0147 36.417 92.2773 36.1368 93.4878 35.7087C97.2565 34.3895 100.631 36.3363 104.158 37.0125C104.288 37.0047 104.368 37.3462 104.483 37.5259C102.491 37.5213 100.501 37.561 98.5146 37.5028C95.9701 37.4248 93.4302 37.2755 90.899 37.1257C90.5096 37.054 90.1311 36.9304 89.7731 36.7581Z" fill="#A76633"/>
<path d="M100.732 39.146L107.327 39.318L107.48 41.9736C104.934 41.7181 102.848 40.5466 100.658 39.6746L100.732 39.146Z" fill="#8B5327"/>
<path d="M112.931 79.3356C111.315 77.8605 109.633 76.4515 108.099 74.8916C107.378 74.1621 108.019 73.5106 108.626 73.0211C110.058 74.4717 111.496 75.8688 112.841 77.3335C113.149 77.812 113.379 78.338 113.523 78.8914L112.931 79.3356Z" fill="#8B5327"/>
<path d="M112.473 34.5849C111.421 33.5467 110.061 33.1932 110.559 31.5644C110.574 31.4677 110.566 31.3686 110.535 31.2759C110.504 31.1833 110.451 31.0999 110.381 31.0333C108.841 30.4241 109.526 28.8817 108.761 27.6841C110.307 27.7955 110.662 28.9733 111.242 29.6757C112.588 31.3003 112.505 31.3763 112.473 34.5849Z" fill="#8B5327"/>
<path d="M31.704 28.3555C29.9529 28.1587 28.358 28.8587 26.788 29.5393C28.1249 27.6824 29.4358 25.827 31.0139 24.0799C31.2888 25.6801 31.5051 27.0173 31.704 28.3555Z" fill="#A76633"/>
<path d="M112.558 64.275L110.278 64.4121L109.416 60.7775C110.865 61.6142 112.613 62.0599 112.558 64.275Z" fill="#8B5327"/>
<path d="M111.547 55.3375C109.336 55.4705 109.233 55.3434 109.32 53.9791C109.407 52.6148 109.418 51.3083 109.471 49.653C111.319 51.3806 109.896 53.7047 111.547 55.3375Z" fill="#8B5327"/>
<path d="M111.375 52.3544C112.079 52.6407 113.127 52.5688 112.981 53.9633C112.57 53.9334 112.183 53.7551 111.888 53.4604C111.594 53.1656 111.412 52.7736 111.375 52.3544Z" fill="#8B5327"/>
<path d="M105.3 37.5122L107.685 36.9336C107.152 38.1026 106.809 38.1854 105.3 37.5122Z" fill="#A76633"/>
<path d="M34.3561 29.0932L33.4801 30.194L33.0217 29.1823L34.3561 29.0932Z" fill="#A76633"/>
<path d="M108.659 26.0647C108.783 26.1105 108.958 26.1266 108.997 26.2042C109.037 26.2818 108.933 26.4391 108.888 26.5661C108.772 26.5198 108.588 26.5042 108.549 26.4266C108.51 26.349 108.612 26.1564 108.659 26.0647Z" fill="#8B5327"/>
<path d="M57.2096 50.1038C60.0111 50.113 62.8039 50.1227 65.6043 50.1142C69.1962 50.1025 72.7498 50.635 76.3595 50.4802C79.6403 50.354 82.9466 50.9724 86.2391 51.2009C88.0917 51.3471 89.936 51.5026 91.7932 51.5775C95.1668 51.7034 98.5501 51.6954 101.917 51.8571C103.828 51.9554 105.511 53.8351 105.79 55.9679C104.978 56.5712 104.004 56.9049 103 56.924C101.996 56.9431 101.01 56.6465 100.177 56.0745C96.6456 53.8174 92.7244 53.3958 88.6889 52.9544C84.8115 52.5391 81.1717 53.5308 77.4417 54.0126C75.0453 54.3458 72.617 54.3635 70.2162 54.0651C66.0286 53.5253 61.9154 52.497 57.9572 51.0004C57.6738 50.8635 57.3978 50.7111 57.1306 50.5438L57.2096 50.1038Z" fill="#B68457"/>
<path d="M33.2583 67.6839C31.2645 67.9548 26.7543 66.3695 24.4325 64.5726C26.2544 64.0367 31.6351 65.9338 33.2583 67.6839Z" fill="#B37F50"/>
<path d="M34.4128 67.9431L34.555 67.9967L34.3643 68.1592C34.3643 68.1592 34.2899 68.0748 34.2965 68.0389C34.3031 68.003 34.3709 67.9723 34.4128 67.9431Z" fill="#B37F50"/>
</g>
<defs>
<filter id="filter0_d_185_173" x="0" y="0" width="120" height="108" filterUnits="userSpaceOnUse" color-interpolation-filters="sRGB">
<feFlood flood-opacity="0" result="BackgroundImageFix"/>
<feColorMatrix in="SourceAlpha" type="matrix" values="0 0 0 0 0 0 0 0 0 0 0 0 0 0 0 0 0 0 127 0" result="hardAlpha"/>
<feOffset dy="4"/>
<feGaussianBlur stdDeviation="2"/>
<feComposite in2="hardAlpha" operator="out"/>
<feColorMatrix type="matrix" values="0 0 0 0 0 0 0 0 0 0 0 0 0 0 0 0 0 0 0.25 0"/>
<feBlend mode="normal" in2="BackgroundImageFix" result="effect1_dropShadow_185_173"/>
<feBlend mode="normal" in="SourceGraphic" in2="effect1_dropShadow_185_173" result="shape"/>
</filter>
</defs>
</svg>
