<svg width="112" height="100" viewBox="0 0 112 100" fill="none" xmlns="http://www.w3.org/2000/svg">
<path d="M62.3221 28.0151C69.439 27.5872 76.3703 27.8633 83.2383 26.5887C88.3506 25.6418 93.5135 24.9671 98.6595 24.1514C100.159 23.9102 101.667 23.6597 103.152 23.3128C103.727 23.1612 104.329 23.1483 104.91 23.2753C105.491 23.4022 106.035 23.6655 106.499 24.0442C108.626 25.7729 110.645 27.6057 110.309 30.8326C110.264 31.6834 110.328 32.5366 110.499 33.3705C111.203 37.8851 110.856 42.4184 110.734 46.9471C110.657 49.9896 110.606 53.0306 110.651 56.0747C110.76 63.0856 112.325 70.0089 111.939 77.0495C111.901 77.9678 111.814 78.8833 111.68 79.7921C111.514 80.6904 110.956 81.1236 109.965 81.2898C106.529 81.7273 103.051 81.7065 99.6192 81.2279C96.8127 80.8033 93.9669 80.718 91.1408 80.9737C89.2506 81.2295 87.2761 80.7797 85.339 80.8251C83.4018 80.8705 81.6258 81.1461 79.7733 81.3019C79.0173 81.3773 78.257 81.3992 77.498 81.3676C73 81.0518 68.5082 80.6912 64.0117 80.4019C63.2062 80.3972 62.4013 80.4456 61.6019 80.5468C61.3528 84.8255 61.148 88.9684 60.8652 93.1159C60.7368 94.9623 60.3452 95.2612 58.4876 95.6305C58.0412 95.7535 57.6348 95.9956 57.3103 96.332C56.1355 97.4407 54.7171 98.2449 53.1745 98.677C52.3194 98.9327 51.3944 98.8817 50.7942 99.7883C50.626 100.038 49.8188 100.069 49.4506 99.8691C48.808 99.6145 48.263 99.1551 47.8963 98.5591C46.5816 95.5203 43.7841 94.0718 41.5261 92.0224C38.1671 88.9821 34.6323 86.059 32.4272 81.9101C31.9595 80.873 31.1138 80.0633 30.0702 79.6535C29.4451 79.3508 28.8658 78.9578 28.3502 78.4866C27.2688 77.7431 26.2466 76.9135 25.2931 76.0056C23.26 73.7828 20.7684 72.0583 18.7139 69.9168C13.4752 64.449 8.49966 58.7168 3.42468 53.0704C2.67149 52.2274 1.90963 51.385 1.134 50.6055C0.766604 50.2871 0.474045 49.8884 0.27798 49.4389C0.0819154 48.9894 -0.0126251 48.5006 0.00135209 48.0088C0.231206 45.8098 0.622703 43.6988 2.37418 42.0923C5.4947 39.1865 8.42756 36.0433 11.7077 33.3412C14.4489 31.0978 17.5674 29.3647 20.5136 27.3577C21.7027 26.6269 22.8056 25.7588 23.8004 24.7706C27.9774 20.1225 33.1069 16.7584 38.2253 13.3505C39.9594 12.1981 41.5585 10.8139 43.2222 9.49695C44.886 8.17997 46.2449 7.00569 47.8317 5.86211C49.4585 4.78463 50.8823 3.41727 52.0352 1.82529C52.4623 1.08019 53.1318 0.511682 53.9272 0.218771C54.7225 -0.0741395 55.5932 -0.0728769 56.3878 0.222307C56.5951 0.254784 56.7928 0.33391 56.9665 0.453981C59.0665 2.62836 61.8869 4.32418 61.8851 7.91294C61.8832 10.7467 61.6987 13.5825 61.7137 16.4063C61.7363 19.5139 61.8716 22.6148 61.9977 25.7073C62.0673 26.4817 62.1756 27.2519 62.3221 28.0151ZM79.7266 76.4191L76.7191 75.8538L77.3658 79.0749C80.1515 78.8097 82.9938 79.6781 85.8529 78.8755C84.4225 77.7535 83.0299 76.8335 81.8509 75.6963C80.6719 74.5591 79.6352 74.5326 77.977 75.0409L79.7261 76.4103L79.7266 76.4191ZM101.3 37.5122C102.852 38.1828 103.195 38.1 103.685 36.9336L103.531 32.7591C103.629 30.5325 103.735 28.3054 103.854 25.8289C102.139 26.2695 100.706 26.7554 99.2409 26.9945C95.4992 27.5748 91.7376 28.1118 88.0229 28.5572C83.621 29.0529 79.2206 29.4744 74.8218 29.8218C71.2284 30.1089 67.6269 30.2544 64.0294 30.4707C63.3446 30.5118 62.6644 30.6327 61.973 30.7098C59.9935 30.9265 58.0028 31.2505 56.0131 31.2902C55.311 31.3324 54.103 30.7477 53.9693 30.2405C53.2874 27.4657 52.2251 24.7315 52.662 21.7473C53.0257 19.6796 53.2481 17.5885 53.3276 15.4893C53.3534 11.7125 52.4572 7.93793 53.714 3.78517C51.7376 5.56508 50.132 6.98516 48.5539 8.43023C48.3305 8.69406 48.1371 8.98281 47.9772 9.291C47.6119 9.46595 47.2708 9.68956 46.963 9.956C44.9393 12.2717 42.9446 14.639 40.9296 16.9542C39.8618 17.5277 38.8382 18.1831 37.8676 18.9149C36.5266 20.097 35.4135 21.6118 34.0669 22.6965C33.1402 23.3524 32.3874 24.2328 31.8757 25.2588C31.3641 26.2849 31.1096 27.4245 31.1352 28.5756L30.4005 29.1083L29.0655 29.1885L27.8095 28.3758C27.5933 27.0386 27.379 25.7368 27.1184 24.0825C25.5423 25.865 24.2309 27.7115 22.8925 29.5419L16.3919 34.9249C15.9878 34.9816 15.5974 35.1134 15.24 35.3139C12.7466 37.3292 10.3083 39.3946 7.86084 41.4515C7.63753 41.735 7.44805 42.0446 7.2964 42.3737C7.71272 42.2971 8.1223 42.1863 8.5212 42.0425C11.5566 40.6241 14.9475 40.2 18.2284 40.8282C19.3166 40.9937 20.4226 41.016 21.5225 41.0831C23.7829 41.2137 26.0459 41.3885 28.3196 41.4473C29.5394 41.4805 30.8442 41.633 31.7447 40.504L34.2362 40.7184C33.9231 41.0215 33.6564 41.5261 33.3036 41.5917C31.6128 41.9343 29.9054 42.1852 28.1887 42.3434C24.2669 42.668 20.3467 43.0192 16.4305 42.0821C15.3525 41.8438 14.2332 41.8867 13.1757 42.2067C10.2703 43.1098 7.44795 44.2478 4.56341 45.2118C4.05861 45.3323 3.59809 45.5977 3.23618 45.9767C2.87426 46.3558 2.62603 46.8326 2.5208 47.351C2.70947 47.7881 2.94938 48.2002 3.23526 48.5782C4.57845 49.9987 5.93797 51.4004 7.35663 52.7718C8.28151 53.8188 9.37004 54.7019 10.5779 55.3851C13.7366 56.8758 17.2035 57.5577 20.6784 57.3716C22.0522 57.2593 23.4319 57.2446 24.8077 57.3276C28.1069 57.5201 31.0466 58.8712 34.0067 60.2743C38.9362 62.6428 42.4926 66.3907 45.4738 70.8749C44.092 73.01 44.089 73.1078 41.8611 73.0908C40.3559 72.9852 38.8591 72.7785 37.3805 72.4719C37.7967 72.2666 38.234 72.1092 38.6843 72.0027C39.7128 71.8875 40.7561 71.8781 41.7963 71.8156C42.2762 71.8606 42.7552 71.7206 43.1389 71.4229C43.5227 71.1253 43.7833 70.6917 43.8695 70.2075C43.4811 69.5822 43.0124 69.0129 42.4759 68.5147C39.3729 66.2941 36.3087 63.9911 33.0553 62.0282C30.3073 60.2218 27.0959 59.2896 23.8283 59.3496C20.3806 59.5167 16.9288 59.1246 13.6013 58.188C13.1239 58.1037 12.6414 58.0525 12.1573 58.0349L13.6585 59.9344C14.399 60.8581 15.2231 61.7235 15.8712 62.7061C17.6397 65.5006 20.3106 67.5745 23.4203 68.5678C24.6587 69.0227 25.8733 69.5427 27.0592 70.1256L26.9174 70.5339L21.6214 69.2001L23.9901 71.6603C25.217 73.9316 27.3899 75.1068 29.3582 76.5074C31.3265 77.908 33.5116 78.3895 35.0215 80.2885C36.057 81.5082 37.1751 82.652 38.3678 83.7114C38.9741 84.2701 39.7441 84.6502 40.3835 85.1803C43.2142 87.5062 46.0296 89.8685 48.8893 92.2459C49.7984 91.5694 49.6668 90.6447 49.6143 89.7329C49.451 86.9002 49.5064 84.0899 51.192 81.6435C51.4275 81.21 51.552 80.7229 51.554 80.2271C51.5516 78.8229 51.6393 77.4201 51.8164 76.0275C52.0835 74.7768 51.5735 73.3241 52.5413 72.3065C53.4132 72.3429 54.1832 72.421 54.9389 72.4022C58.9443 72.3212 62.9481 72.2138 66.953 72.124C67.2304 72.1073 67.5078 72.0906 67.8234 72.1338C70.5693 72.2352 73.3346 72.522 76.0662 72.3755C79.5336 72.167 82.9414 72.7349 86.3778 72.8925C89.3256 73.0261 92.3086 73.1666 95.1937 72.3624C97.3944 71.7593 99.5549 71.0609 102.112 71.6622C102.765 68.9581 103.384 66.2561 104.072 63.4166C102.819 62.98 101.595 62.4601 100.407 61.8604C97.2469 59.9985 93.7805 59.0166 90.3308 58.0249C89.3348 57.7471 88.2987 57.65 87.2698 57.7381C85.1373 57.8663 83.0304 58.4371 80.901 58.4675C77.8058 58.5944 74.7056 58.4839 71.6266 58.1368C65.6208 57.3165 59.667 56.191 53.6866 55.2093C52.5363 55.0209 51.3589 54.9673 50.1866 54.8512C48.002 53.9255 45.74 53.1644 43.372 53.5822C42.0799 53.802 40.798 54.1988 39.5436 54.4697C36.528 55.1218 33.6016 56.115 30.3856 55.7043C26.0049 55.1594 21.5895 55.0695 17.1991 54.6584C15.4501 54.4971 13.75 53.9775 12.0362 53.6719C13.2682 53.4312 14.5282 53.3764 15.7759 53.5092C19.5615 53.6902 23.3471 53.8712 27.1139 54.0267C29.0393 54.1936 30.9739 54.2198 32.9029 54.105C34.8834 53.8308 36.8366 53.3804 38.7404 52.7592C41.4352 51.9754 44.2188 51.2217 46.9117 51.9125C51.753 53.0656 56.6504 53.9572 61.5837 54.5835C65.3999 55.1446 69.2365 55.6068 73.0696 56.007C74.9252 56.2063 76.7945 56.1916 78.6567 56.204C80.7215 56.3468 82.7948 56.2906 84.8491 56.0361C86.8156 55.6787 88.836 55.7851 90.756 56.3471C94.33 57.2132 97.7749 58.5624 100.999 60.3591C101.9 60.9001 102.804 61.4854 104.101 62.2513C104.095 58.8229 104.108 55.7397 104.078 52.6503C104.062 51.0257 103.969 49.4058 103.919 47.7744C104.016 47.2857 103.93 46.7774 103.676 46.3512C103.423 45.925 103.021 45.6124 102.551 45.476C99.3908 44.227 96.3113 42.8665 93.1416 41.6003C89.0004 39.9897 84.5865 39.2375 80.1575 39.3875C78.793 39.4074 77.4177 39.0903 76.0527 39.1013C74.3139 39.1171 72.5042 39.2614 70.7389 39.4208C69.7971 39.5308 68.8956 40.038 67.9584 40.0765C64.2273 40.2387 60.4983 40.2853 56.7632 40.3766L55.3252 40.1788C56.7819 39.5347 58.3784 39.2917 59.9557 39.474C63.3232 39.6446 66.7096 39.6897 69.948 38.5268C71.9254 37.7007 74.0795 37.4151 76.198 37.698C76.3302 37.7352 76.4685 37.7448 76.6044 37.726C76.7404 37.7072 76.8712 37.6605 76.989 37.5886C77.1067 37.5168 77.2091 37.4213 77.2897 37.308C77.3704 37.1947 77.4278 37.0659 77.4584 36.9294L85.7792 36.8643C86.1372 37.0366 86.5157 37.1602 86.9051 37.2319C89.4364 37.3817 91.9763 37.531 94.5207 37.609C96.5074 37.6672 98.497 37.6275 100.489 37.6321L101.3 37.5122ZM96.7752 39.1434L96.7018 39.6808C98.8919 40.5528 100.978 41.7244 103.524 41.9799L103.37 39.3243L96.7752 39.1434ZM108.931 79.3356L109.523 78.8914C109.379 78.338 109.149 77.812 108.841 77.3335C107.496 75.8688 106.067 74.4712 104.626 73.0211C104.002 73.5117 103.378 74.1621 104.099 74.8916C105.65 76.4505 107.332 77.8595 108.931 79.3356ZM108.456 34.5859C108.488 31.3773 108.571 31.3013 107.233 29.6762C106.653 28.9738 106.298 27.796 104.752 27.6846C105.517 28.8822 104.832 30.4246 106.372 31.0338C106.442 31.1004 106.495 31.1838 106.526 31.2765C106.558 31.3691 106.566 31.4682 106.55 31.5649C106.061 33.1932 107.421 33.5467 108.473 34.5849L108.456 34.5859ZM108.541 64.2761C108.596 62.0609 106.848 61.6153 105.399 60.7786L106.261 64.4131L108.541 64.2761ZM107.547 55.3375C105.904 53.7042 107.319 51.3806 105.479 49.6525C105.43 51.3521 105.418 52.6674 105.329 53.9786C105.239 55.2897 105.327 55.4621 107.547 55.3375ZM107.375 52.3544C107.412 52.7736 107.594 53.1656 107.888 53.4604C108.183 53.7551 108.57 53.9334 108.981 53.9633C109.179 52.5657 108.105 52.6392 107.375 52.3544ZM104.659 26.0647C104.614 26.1918 104.509 26.3402 104.549 26.4266C104.589 26.513 104.772 26.5198 104.888 26.5661C104.933 26.4391 105.037 26.2907 104.997 26.2042C104.958 26.1178 104.78 26.0574 104.659 26.0647Z" fill="#6E4323"/>
<path d="M31.7891 40.5192C30.8453 41.6507 29.5404 41.4982 28.364 41.4623C26.0903 41.4036 23.8273 41.2288 21.5668 41.0982C20.4669 41.0311 19.3609 41.0088 18.2728 40.8432C14.9919 40.215 11.601 40.6392 8.56557 42.0576C8.16668 42.2014 7.75709 42.3122 7.34077 42.3888C7.49242 42.0596 7.68189 41.75 7.90519 41.4666C10.396 39.407 12.7997 37.3438 15.2844 35.3291C15.6418 35.1285 16.0322 34.9967 16.4362 34.94C16.2629 36.0075 14.6695 36.4319 15.2366 38.1211C16.0196 37.9813 16.7829 37.7445 17.5097 37.416C19.8794 35.9707 22.2105 34.4596 24.503 32.8827C26.0097 31.8595 25.9715 31.7996 27.6568 32.8175C28.9184 33.5766 29.3243 33.5256 30.3389 32.4164C31.1548 31.479 31.967 30.4797 32.8557 29.6002C35.4534 26.9805 38.0819 24.3916 40.7412 21.8333C41.4892 21.0974 42.3306 20.4672 43.2427 19.9597C45.586 18.6283 47.6998 16.9138 49.5001 14.8844C51.3051 12.9993 50.7732 10.8639 48.4311 9.61902C48.2639 9.50112 48.1077 9.3678 47.9645 9.22072C48.1243 8.91252 48.3178 8.62375 48.5411 8.35993C50.1192 6.91486 51.7254 5.50365 53.7012 3.71489C52.4445 7.86765 53.3406 11.6423 53.3148 15.419C53.2354 17.5182 53.0129 19.6093 52.6492 21.677C52.2124 24.6612 53.2747 27.3954 53.9566 30.1703C54.0902 30.6774 55.2967 31.2356 56.0004 31.2199C57.9901 31.1802 59.9807 30.8562 61.9602 30.6395C62.6537 30.5978 63.3319 30.4415 64.0167 30.4004C67.6142 30.1841 71.2152 30.0297 74.809 29.7515C79.2075 29.3982 83.6079 28.9767 88.0102 28.487C91.7698 28.0655 95.5314 27.5284 99.2282 26.9242C100.694 26.7028 102.128 26.2169 103.841 25.7586C103.723 28.2439 103.616 30.4622 103.518 32.6888C101.354 32.2593 99.1836 31.8835 97.0409 31.3816C94.2091 30.8107 91.2845 30.9409 88.5121 31.7612C85.6479 32.4752 82.7205 32.9977 79.8564 33.7117C78.0992 34.1638 76.4446 34.8851 74.687 35.4793L74.7125 35.9219C75.277 35.9033 75.8418 35.9438 76.3983 36.0427C76.7931 36.2157 77.1568 36.455 77.4742 36.7508C77.4436 36.8873 77.3862 37.0161 77.3055 37.1294C77.2249 37.2427 77.1225 37.3382 77.0048 37.41C76.887 37.4818 76.7562 37.5286 76.6202 37.5474C76.4843 37.5662 76.346 37.5566 76.2138 37.5194C74.0953 37.2365 71.9412 37.5221 69.9638 38.3482C66.7254 39.5111 63.339 39.466 59.9715 39.2954C58.3942 39.1131 56.7977 39.3561 55.341 40.0002L56.779 40.198C57.5735 41.758 59.1609 41.8313 60.5112 42.0166C64.0189 42.5075 67.5205 42.8921 71.0119 43.0997C72.8816 43.2618 74.7646 43.1155 76.5888 42.6666C79.2424 41.9208 81.7853 42.2743 84.3686 42.723C87.4878 43.2638 90.5779 44.0551 93.6584 44.8293C95.2731 45.2163 96.8519 45.7455 98.3772 46.4109C100.102 47.313 102.035 47.7188 103.968 47.5848C104.019 49.2162 104.112 50.8361 104.128 52.4608C104.158 55.5502 104.147 58.6776 104.151 62.0617C102.886 61.2494 101.985 60.7085 101.049 60.1696C97.8039 58.3877 94.3395 57.0575 90.7484 56.2143C88.8284 55.6523 86.8079 55.5459 84.8415 55.9032C82.7871 56.1578 80.7138 56.2141 78.6491 56.0713C76.7869 56.0589 74.9175 56.0735 73.062 55.8742C69.2289 55.474 65.3923 55.0118 61.576 54.4507C56.6428 53.8244 51.7453 52.9328 46.9041 51.7797C44.2091 51.0535 41.4276 51.8426 38.7327 52.6264C36.829 53.2476 34.8758 53.698 32.8953 53.9722C30.9662 54.087 29.0316 54.0609 27.1062 53.8939C23.3221 53.7395 19.5365 53.5585 15.7682 53.3764C14.5206 53.2436 13.2606 53.2984 12.0285 53.5391C13.7877 53.8775 15.4598 54.3632 17.1915 54.5256C21.5645 54.9377 26.0059 55.026 30.3779 55.5715C33.594 55.9822 36.5203 54.989 39.5359 54.3369C40.8163 54.0645 42.1069 53.6671 43.3643 53.4494C45.767 53.0295 47.9944 53.7928 50.1789 54.7185L48.4508 54.9201C52.3487 56.2935 56.323 57.1827 60.2168 58.3343C65.7117 59.9492 71.3494 60.1166 76.9921 60.3725C79.12 60.4666 81.2688 60.4706 83.3742 60.7793C88.0859 61.482 92.5681 63.1845 97.161 64.3918C97.5059 64.45 97.8166 64.6389 98.0311 64.9207C98.2457 65.2025 98.3483 65.5565 98.3186 65.9122C98.335 66.9505 97.7394 68.2387 96.8027 68.4372C94.654 68.8862 92.5195 69.583 90.2626 69.2124C89.4514 69.0956 88.6272 69.1122 87.8211 69.2615C84.1192 69.9282 80.4172 70.2929 76.7264 69.3423C72.1968 68.1756 67.5861 68.1686 62.976 68.0194C60.7797 67.9471 58.6116 67.7577 56.3883 67.6693C54.3915 67.5851 52.3931 67.4743 50.3953 67.5234C49.0603 67.6036 48.5867 68.1384 48.9141 69.4423C49.2919 70.3648 49.7895 71.2312 50.3935 72.0182C49.2753 72.6894 49.0219 73.8772 49.1576 75.3258C49.1619 76.2332 49.0443 77.1369 48.808 78.0117C48.5302 79.5296 48.182 81.0339 47.8929 82.5081C47.7099 83.4074 47.6019 84.3998 47.4321 85.5293C44.5704 84.0225 41.6837 82.988 39.3849 80.6835C37.6862 79.1272 35.8378 77.7504 33.8679 76.5738C31.9592 75.3028 29.8996 74.2808 28.0154 72.9817C26.8206 72.1369 25.4189 71.649 23.9676 71.5729L21.5989 69.1126L26.895 70.4464L27.0367 70.0382C25.8509 69.4552 24.6363 68.9353 23.3979 68.4804C20.2882 67.487 17.6173 65.4131 15.8488 62.6186C15.2006 61.6361 14.3766 60.7707 13.6361 59.847C14.1674 59.1044 14.6626 59.5454 15.252 59.812C18.0306 61.0839 20.8857 62.3246 23.9896 62.1469C26.2036 62.0435 28.3964 62.627 30.2794 63.8206C32.0238 64.9624 33.9307 65.8216 35.9325 66.3676C37.6933 66.7326 38.7606 68.1963 39.9977 69.8896L35.7615 71.8497L37.3193 72.4667C38.7979 72.7733 40.2947 72.98 41.8 73.0856C44.0278 73.1026 44.0308 73.0047 45.4126 70.8697C42.4314 66.3855 38.847 62.6038 33.9455 60.2691C30.9854 58.866 28.0457 57.5149 24.7465 57.3225C23.3707 57.2395 21.991 57.2541 20.6172 57.3664C17.1548 57.539 13.7032 56.8504 10.559 55.3596C9.35117 54.6764 8.26265 53.7933 7.33776 52.7464C5.92115 51.4103 4.5703 50.0081 3.21639 48.5528C2.93051 48.1747 2.69062 47.7626 2.50195 47.3255C6.85148 46.4244 11.2755 46.3627 15.6781 46.0802C17.8886 45.9473 20.1776 46.1206 22.2861 45.5763C24.2327 45.1605 26.2397 45.1334 28.1965 45.4963C31.2106 45.8747 33.9141 44.9394 36.6911 44.2217C37.2678 44.0766 37.7829 43.7444 38.1589 43.2749C38.535 42.8054 38.7517 42.224 38.7765 41.618L36.6298 42.5554L35.8577 40.6298C38.1538 40.7253 40.4229 40.0957 42.356 38.8268C43.8841 37.7222 45.7723 37.733 47.5729 37.8824C49.9032 38.0176 52.2549 38.2226 54.5475 38.1559C56.4735 38.0204 58.3906 37.7747 60.2896 37.4198C63.7576 36.7894 67.0692 35.4642 70.0334 33.5207C70.1027 33.5165 70.0191 33.2728 70.0629 32.977C68.6759 33.0604 67.2457 33.4484 65.9418 33.1626C63.5373 32.7433 61.0644 33.1255 58.8892 34.2529C56.3924 35.2894 53.7266 35.8354 51.0315 35.8623C49.9219 35.9291 48.8124 35.9958 47.7028 36.0625C44.8855 36.2319 42.0182 36.1378 39.3382 37.3293C38.804 37.4957 38.2436 37.5565 37.6871 37.5085C34.854 37.5545 32.0286 37.5823 29.1945 37.6106C27.7162 37.6195 26.4466 38.2288 24.6828 39.1699C25.9954 39.4551 26.8428 39.6707 27.6954 39.8237C29.1202 40.0934 30.4541 40.2974 31.7891 40.5192ZM53.2183 50.1032L53.1403 50.561C53.4075 50.7283 53.6835 50.8807 53.9669 51.0175C57.9251 52.5141 62.0383 53.5425 66.2259 54.0823C68.6267 54.3807 71.055 54.363 73.4514 54.0298C77.1988 53.5469 80.8385 52.5553 84.6986 52.9716C88.7167 53.414 92.638 53.8356 96.1866 56.0916C97.0201 56.6637 98.0056 56.9603 99.0096 56.9412C100.014 56.9221 100.988 56.5884 101.8 55.9851C101.512 53.8528 99.8287 51.9731 97.9267 51.8742C94.5587 51.6948 91.1754 51.7028 87.8028 51.5947C85.9457 51.5198 84.1014 51.3642 82.2488 51.218C78.9548 50.963 75.65 50.3712 72.3692 50.4974C68.7595 50.6522 65.2059 50.1197 61.614 50.1314C58.8049 50.1404 56.0111 50.113 53.2096 50.1038L53.2183 50.1032ZM29.267 67.6834C27.6438 65.9333 22.2631 64.0362 20.4412 64.5721C22.7543 66.3695 27.2645 67.9548 29.2583 67.6839L29.267 67.6834ZM30.4214 67.9426C30.3781 67.9452 30.3205 68.0019 30.3052 68.0384C30.2899 68.0749 30.3536 68.1243 30.373 68.1587L30.5637 67.9962L30.4214 67.9426Z" fill="#A76633"/>
<path d="M23.9707 71.626C25.422 71.7022 26.8237 72.19 28.0185 73.0348C29.9027 74.3339 31.9623 75.3559 33.871 76.6269C35.8409 77.8035 37.6893 79.1803 39.388 80.7366C41.6868 83.0411 44.5735 84.0756 47.4352 85.5824C47.6049 84.453 47.7155 83.5047 47.896 82.5612C48.183 81.0516 48.5312 79.5473 48.8111 78.0648C49.0473 77.19 49.165 76.2863 49.1607 75.3789C49.025 73.9303 49.2763 72.7071 50.3966 72.0713C49.7925 71.2843 49.2949 70.4179 48.9172 69.4954C48.5897 68.1915 49.0609 67.6125 50.3984 67.5765C52.3962 67.5274 54.3946 67.6382 56.3914 67.7225C58.5886 67.8124 60.7568 68.0018 62.979 68.0725C67.5892 68.2217 72.1998 68.2288 76.7295 69.3954C80.4203 70.346 84.1222 69.9813 87.8242 69.3146C88.6302 69.1653 89.4545 69.1487 90.2657 69.2655C92.52 69.5918 94.657 68.9393 96.8058 68.4903C97.7425 68.2919 98.338 67.0036 98.3216 65.9653C98.3514 65.6096 98.2487 65.2556 98.0342 64.9738C97.8196 64.692 97.5089 64.5031 97.1641 64.4449C92.5707 63.2287 88.0884 61.5263 83.3773 60.8324C81.2718 60.5238 79.123 60.5197 76.9952 60.4256C71.3524 60.1697 65.7148 60.0023 60.2199 58.3874C56.3261 57.2358 52.3517 56.3466 48.4539 54.9732L50.182 54.7716C51.3456 54.8882 52.523 54.9418 53.682 55.1297C59.6619 56.1026 65.6162 57.2369 71.6221 58.0572C74.701 58.4043 77.8012 58.5148 80.8964 58.3878C83.0258 58.3575 85.1353 57.8309 87.2652 57.6585C88.2941 57.5704 89.3302 57.6674 90.3262 57.9452C93.7774 58.9635 97.2439 59.9454 100.403 61.7807C101.59 62.3804 102.814 62.9003 104.068 63.3369C103.364 66.2129 102.759 68.843 102.108 71.5825C99.5416 70.9818 97.3812 71.6802 95.1891 72.2828C92.303 73.0692 89.32 72.9288 86.3732 72.8128C82.9368 72.6553 79.5387 72.1045 76.0616 72.2958C73.331 72.46 70.5647 72.1556 67.8188 72.0542C67.5415 72.0709 67.261 72.0344 66.9484 72.0443C62.9435 72.1341 58.9397 72.2416 54.9343 72.3225C54.1802 72.3679 53.426 72.2622 52.5367 72.2268C51.5689 73.2444 52.0789 74.6972 51.8118 75.9479C51.6347 77.3404 51.547 78.7432 51.5494 80.1475C51.5474 80.6432 51.4229 81.1303 51.1874 81.5638C49.5043 84.0545 49.4923 86.8622 49.6097 89.6532C49.6607 90.5384 49.7765 91.4908 48.8847 92.1662C46.025 89.7888 43.2096 87.4265 40.379 85.1006C39.7395 84.5705 38.9695 84.1905 38.3632 83.6318C37.1706 82.5723 36.0524 81.4285 35.0169 80.2088C33.507 78.3098 31.2057 77.7731 29.3536 76.4277C27.5015 75.0823 25.1977 73.8973 23.9707 71.626Z" fill="#8B5327"/>
<path d="M103.912 47.6593C101.978 47.7932 100.046 47.3874 98.3206 46.4854C96.7953 45.8199 95.2165 45.2907 93.6018 44.9037C90.5213 44.1296 87.4225 43.3388 84.312 42.7974C81.7548 42.3472 79.1858 41.9953 76.5322 42.7411C74.708 43.19 72.825 43.3362 70.9553 43.1741C67.4639 42.9665 63.9623 42.5819 60.4546 42.0911C59.1038 41.8969 57.5169 41.8325 56.7224 40.2725C60.4575 40.1811 64.1865 40.1346 67.9176 39.9724C68.8538 39.9161 69.7563 39.4266 70.6981 39.3167C72.4267 39.1239 74.2364 38.9796 76.0119 38.9972C77.377 38.9862 78.7522 39.3032 80.1167 39.2833C84.5457 39.1333 88.9596 39.8856 93.1008 41.4962C96.2461 42.7905 99.3428 44.1499 102.51 45.3719C102.984 45.501 103.392 45.8089 103.652 46.2334C103.913 46.658 104.005 47.1676 103.912 47.6593Z" fill="#8B5327"/>
<path d="M47.887 9.23424C48.0302 9.38132 48.1864 9.51467 48.3535 9.63257C50.6946 10.8598 51.2251 12.9686 49.4226 14.898C47.6223 16.9274 45.5085 18.6418 43.1652 19.9732C42.2531 20.4808 41.4117 21.1109 40.6637 21.8469C37.9986 24.4055 35.3702 26.9944 32.7782 29.6138C31.89 30.5022 31.1466 31.4884 30.2614 32.4299C29.2468 33.5391 28.8409 33.5901 27.5793 32.831C25.894 31.8131 25.9322 31.873 24.4255 32.8963C22.1326 34.4672 19.8016 35.9783 17.4322 37.4295C16.7054 37.758 15.942 37.9948 15.1591 38.1347C14.592 36.4455 16.1854 36.021 16.3587 34.9536L22.7701 29.5315C24.3411 28.8686 25.9101 28.1702 27.6861 28.3477L28.9421 29.1604L29.4006 30.1722L30.2766 29.0713L31.0113 28.5386C31.5387 28.4427 32.0437 28.2466 32.5002 27.9605C33.9532 26.6738 35.2949 25.2617 36.5105 23.7399C38.1243 21.5554 39.3872 19.1699 40.8031 16.873C42.8172 14.5401 44.8128 12.1905 46.8366 9.87477C47.157 9.61413 47.5103 9.39869 47.887 9.23424Z" fill="#B68457"/>
<path d="M31.7891 40.5192C30.4541 40.2974 29.1548 40.0913 27.7938 39.8711C26.9153 39.7196 26.0938 39.5025 24.7812 39.2172C26.545 38.2762 27.8146 37.6669 29.2929 37.658C32.127 37.6297 34.9524 37.6019 37.7855 37.5559C38.342 37.6039 38.9024 37.5431 39.4366 37.3767C42.1167 36.1852 44.9849 36.297 47.8012 36.1099C48.9108 36.0431 50.0203 35.9764 51.1299 35.9097C53.825 35.8828 56.4909 35.3367 58.9876 34.3003C61.1628 33.1729 63.6357 32.7906 66.0402 33.21C67.3441 33.4958 68.7744 33.1078 70.1613 33.0244C70.1782 33.3165 70.1904 33.529 70.1318 33.568C67.1745 35.5047 63.872 36.8262 60.4135 37.4568C58.5145 37.8117 56.5974 38.0574 54.6714 38.1929C52.3442 38.2617 49.9924 38.0567 47.6968 37.9193C45.8728 37.8158 44.008 37.7592 42.4799 38.8637C40.5468 40.1327 38.2777 40.7623 35.9816 40.6668L34.3433 40.7653L31.7891 40.5192Z" fill="#B68457"/>
<path d="M34.2805 40.7335L35.9189 40.635L36.691 42.5605L38.8377 41.6232C38.8129 42.2292 38.5961 42.8106 38.2201 43.2801C37.8441 43.7496 37.329 44.0818 36.7523 44.2268C33.9753 44.9445 31.2718 45.8799 28.2577 45.5015C26.3009 45.1386 24.2939 45.1657 22.3472 45.5815C20.2388 46.1258 17.9492 45.9437 15.7393 46.0854C11.3357 46.3502 6.91266 46.4296 2.56313 47.3307C2.66837 46.8123 2.91658 46.3355 3.2785 45.9565C3.64041 45.5774 4.10094 45.312 4.60574 45.1915C7.49028 44.2275 10.3116 43.0718 13.218 42.1865C14.2755 41.8664 15.3949 41.8235 16.4728 42.0618C20.389 42.9989 24.3352 42.6461 28.231 42.3231C29.9477 42.1649 31.6551 41.914 33.3459 41.5714C33.6835 41.5422 33.9675 41.0366 34.2805 40.7335Z" fill="#8B5327"/>
<path d="M77.4523 36.8232C77.1349 36.5274 76.7712 36.2881 76.3763 36.1151C75.8199 36.0162 75.255 35.9757 74.6906 35.9944L74.665 35.5517C76.3707 34.9606 78.0687 34.2367 79.8345 33.7841C82.6976 33.0524 85.626 32.5476 88.4902 31.8336C91.2626 31.0133 94.1872 30.8831 97.019 31.454C99.1617 31.9559 101.332 32.3317 103.497 32.7612C103.577 34.1509 103.596 35.5444 103.65 36.9357L101.265 37.5143L100.494 37.5607C100.379 37.3811 100.3 37.0661 100.169 37.0473C96.6501 36.3706 93.2672 34.4244 89.4985 35.7436C88.288 36.1716 87.0254 36.4519 85.7838 36.793L77.4523 36.8232Z" fill="#B68457"/>
<path d="M37.383 72.5162L35.8252 71.8992L40.0615 69.939C38.8238 68.2369 37.7223 66.7842 35.9962 66.4172C33.9945 65.8711 32.0875 65.0119 30.3432 63.8701C28.4601 62.6765 26.2673 62.093 24.0533 62.1963C20.95 62.3829 18.0944 61.1334 15.3158 59.8615C14.7263 59.5949 14.2311 59.1539 13.6998 59.8964L12.1986 57.997C12.6828 58.0145 13.1652 58.0657 13.6426 58.15C16.9701 59.0866 20.4219 59.4787 23.8696 59.3116C27.1468 59.2743 30.3606 60.2345 33.1012 62.0699C36.3546 64.0328 39.4361 66.3347 42.5217 68.5564C43.0582 69.0546 43.527 69.6239 43.9154 70.2491C43.8292 70.7333 43.5686 71.1669 43.1848 71.4646C42.8011 71.7622 42.3221 71.9023 41.8422 71.8572C40.802 71.9197 39.7618 71.9823 38.7302 72.0443C38.265 72.1485 37.813 72.3068 37.383 72.5162Z" fill="#8B5327"/>
<path d="M40.8393 16.8975C39.4234 19.1944 38.1258 21.582 36.5467 23.7644C35.3311 25.2862 33.9894 26.6983 32.5364 27.985C32.0799 28.2711 31.5749 28.4672 31.0475 28.563C31.0219 27.4119 31.2764 26.2724 31.788 25.2464C32.2996 24.2203 33.0525 23.3399 33.9792 22.684C35.3677 21.5701 36.4374 20.0579 37.7799 18.9024C38.7482 18.1555 39.771 17.4852 40.8393 16.8975Z" fill="#A76633"/>
<path d="M79.7266 76.4191L77.9775 75.0498C79.6352 74.5326 80.754 74.6252 81.8514 75.7051C82.9488 76.785 84.423 77.7623 85.8534 78.8844C82.9943 79.6869 80.152 78.8186 77.3664 79.0838L76.7196 75.8626L79.7271 76.428L79.9061 76.5149L79.7266 76.4191Z" fill="#8B5327"/>
<path d="M85.7731 36.7581C87.0147 36.417 88.2773 36.1368 89.4878 35.7087C93.2565 34.3895 96.6307 36.3363 100.158 37.0125C100.288 37.0047 100.368 37.3462 100.483 37.5259C98.4909 37.5213 96.5013 37.561 94.5146 37.5028C91.9701 37.4248 89.4302 37.2755 86.899 37.1257C86.5096 37.054 86.1311 36.9304 85.7731 36.7581Z" fill="#A76633"/>
<path d="M96.7318 39.146L103.327 39.318L103.48 41.9736C100.934 41.7181 98.848 40.5466 96.6579 39.6746L96.7318 39.146Z" fill="#8B5327"/>
<path d="M108.931 79.3356C107.315 77.8605 105.633 76.4515 104.099 74.8916C103.378 74.1621 104.019 73.5106 104.626 73.0211C106.058 74.4717 107.496 75.8688 108.841 77.3335C109.149 77.812 109.379 78.338 109.523 78.8914L108.931 79.3356Z" fill="#8B5327"/>
<path d="M108.473 34.5849C107.421 33.5467 106.061 33.1932 106.559 31.5644C106.574 31.4677 106.566 31.3686 106.535 31.2759C106.504 31.1833 106.451 31.0999 106.381 31.0333C104.841 30.4241 105.526 28.8817 104.761 27.6841C106.307 27.7955 106.662 28.9733 107.242 29.6757C108.588 31.3003 108.505 31.3763 108.473 34.5849Z" fill="#8B5327"/>
<path d="M27.704 28.3555C25.9529 28.1587 24.358 28.8587 22.788 29.5393C24.1249 27.6824 25.4358 25.827 27.0139 24.0799C27.2888 25.6801 27.5051 27.0173 27.704 28.3555Z" fill="#A76633"/>
<path d="M108.558 64.275L106.278 64.4121L105.416 60.7775C106.865 61.6142 108.613 62.0599 108.558 64.275Z" fill="#8B5327"/>
<path d="M107.547 55.3375C105.336 55.4705 105.233 55.3434 105.32 53.9791C105.407 52.6148 105.418 51.3083 105.471 49.653C107.319 51.3806 105.896 53.7047 107.547 55.3375Z" fill="#8B5327"/>
<path d="M107.375 52.3544C108.079 52.6407 109.127 52.5688 108.981 53.9633C108.57 53.9334 108.183 53.7551 107.888 53.4604C107.594 53.1656 107.412 52.7736 107.375 52.3544Z" fill="#8B5327"/>
<path d="M101.3 37.5122L103.685 36.9336C103.152 38.1026 102.809 38.1854 101.3 37.5122Z" fill="#A76633"/>
<path d="M30.3561 29.0932L29.4801 30.194L29.0217 29.1823L30.3561 29.0932Z" fill="#A76633"/>
<path d="M104.659 26.0647C104.783 26.1105 104.958 26.1266 104.997 26.2042C105.037 26.2818 104.933 26.4391 104.888 26.5661C104.772 26.5198 104.588 26.5042 104.549 26.4266C104.51 26.349 104.612 26.1564 104.659 26.0647Z" fill="#8B5327"/>
<path d="M53.2096 50.1038C56.0111 50.113 58.8039 50.1227 61.6043 50.1142C65.1962 50.1025 68.7498 50.635 72.3595 50.4802C75.6403 50.354 78.9466 50.9724 82.2391 51.2009C84.0917 51.3471 85.936 51.5026 87.7932 51.5775C91.1668 51.7034 94.5501 51.6954 97.917 51.8571C99.8277 51.9554 101.511 53.8351 101.79 55.9679C100.978 56.5712 100.004 56.9049 98.9999 56.924C97.9959 56.9431 97.0104 56.6465 96.1769 56.0745C92.6456 53.8174 88.7244 53.3958 84.6889 52.9544C80.8115 52.5391 77.1717 53.5308 73.4417 54.0126C71.0453 54.3458 68.617 54.3635 66.2162 54.0651C62.0286 53.5253 57.9154 52.497 53.9572 51.0004C53.6738 50.8635 53.3978 50.7111 53.1306 50.5438L53.2096 50.1038Z" fill="#B68457"/>
<path d="M29.2583 67.6839C27.2645 67.9548 22.7543 66.3695 20.4325 64.5726C22.2544 64.0367 27.6351 65.9338 29.2583 67.6839Z" fill="#B37F50"/>
<path d="M30.4128 67.9431L30.555 67.9967L30.3643 68.1592C30.3643 68.1592 30.2899 68.0748 30.2965 68.0389C30.3031 68.003 30.3709 67.9723 30.4128 67.9431Z" fill="#B37F50"/>
</svg>
