<svg xmlns="http://www.w3.org/2000/svg" width="576" height="1280" viewBox="0 0 576 1280"><g style="isolation:isolate"><g id="fd9f8e26-664e-47ee-8e18-d5f8d4aa34f5" data-name="Livello 12"><path d="M-3,521.19,41,561.47,50.17,762c-1.27-.75-2.61-1.42-3.8-2.29A7.47,7.47,0,0,1,43,753.05c.23-39.1-.36-107.22.63-146.3.58-22.69.62-45.36.88-68,0-1.31,0-2.62,0-4.2M27.68,300.91c2.52-11.41,4.71-22.79,7.62-34a157.83,157.83,0,0,1,7.2-20.58c3.51-8.47,9.52-15.06,17.15-20.1a27.52,27.52,0,0,1,6.21-3,66.48,66.48,0,0,1,34.24-2.93c4.06.74,8.14,1.41,12.18,2.27,7.83,1.67,14.06,5.79,17.91,12.87,2.09,3.84,4.77,4.89,8.91,3.86,8.51-2.13,17.13.07,25.7-.28,1.81-.08,3.67.29,5.43,0,6.94-1.22,13.85-.31,20.77.08,8.42.49,16.85.75,25.26,1.27,8.58.53,17.16,1.1,25.71,1.94,5.76.57,11.42,1.08,17.27.38,14.51-1.73,29.09-1.46,43.67-.85,8.76.37,17.59,1.19,26.29.56,14.92-1.07,29.79-.55,44.68-.31,8.12.13,16.22.61,24.33.91,1.64.06,3.27,0,5.34,0,0-2,.06-3.87,0-5.75-.22-5.76-.6-11.52-.73-17.28-.11-5.11,3-8,7.57-9.05,7.05-1.67,14.05-3.83,21.5-3.14,7.25.67,14.52,1.16,21.8,1.55a29.43,29.43,0,0,0,6.39-.6c5.63-.92,10.86.32,15.89,2.71,4.65,2.2,7.09,5.8,6.79,11.07-.15,2.63-.23,5.26-.35,7.94a7.13,7.13,0,0,0,7.27,1.52c4.76-1.48,9.71-2,14.69-.5a16.4,16.4,0,0,0,3.93.31c6.78.32,13.56.56,20.32,1a26.66,26.66,0,0,1,11.62,4,74.66,74.66,0,0,0,10.61,5.24A21.39,21.39,0,0,1,562.6,252c3.32,6.09,7.42,11.79,10.3,18.07,7.33,16,8.77,32.35,2.35,49.17a78.66,78.66,0,0,1-15.07,24.89,11.75,11.75,0,0,1-4.23,3.33c-7.74,2.92-8.86,9.54-8.34,16.18a176.44,176.44,0,0,1-.16,28.25c-.46,5.77-.31,11.59-.93,17.33a78.45,78.45,0,0,1-2.75,13.55c-1.24,4.16-3,4.84-7.45,5-4.11.11-8.22.55-12.73.88v6.49q-.12,50.2-.26,100.4c0,11.76-.16,23.52-.27,35.28-.19,20.37-.3,40.74-.61,61.11-.26,16.72-.86,33.44-1.09,50.17-.07,4.76.61,9.53.95,14.45,2.79-.41,5.21-.87,7.65-1.09,4.81-.44,6.84.86,7.55,5.71a126.31,126.31,0,0,1,1.59,17.78c0,9.43-.63,18.86-.83,28.3a86.32,86.32,0,0,0,.62,9.34c.34,3.94,1.14,7.88,1,11.8-.15,4.14-2.45,6-6.61,5.54-2.93-.29-5.78-1.35-8.66-2-.79-.19-1.59-.33-2.25-.47-.37.42-.72.64-.74.88-.8,10-1.29,20-1.19,30,.29,30.3.37,60.61.42,90.92,0,15.06,0,30.14-.38,45.2-.23,8.19,3,14.78,8.1,20.55a77.48,77.48,0,0,1,7.73,10.85c4.24,6.88,8.67,13.68,13.52,20.13s4.81,12.41-.67,18.18c-2.5,2.63-4.51,5.71-7,8.34-3.75,3.95-7.6,7.82-11.66,11.45a6.61,6.61,0,0,0-2.45,5.51c0,7.94-.47,15.87-.51,23.81,0,8.6.12,17.21.31,25.81a8.64,8.64,0,0,0,1.08,4.23,34.8,34.8,0,0,1,5.48,22.17,13,13,0,0,1-2.63,6.68,57.27,57.27,0,0,1-8.84,8.63c-4.67,3.67-9.62,7-14.56,10.29a20.68,20.68,0,0,1-14.22,3.29,18.27,18.27,0,0,1-3.89-.79c-5.33-1.83-9.72-2.07-13.77,3.37-2.41,3.22-6.77,5.32-10.63,7.08-15.27,7-31.26,11.09-48.14,9.35-10.17-1-20.38-2.65-29.21-8.71-5.87-4-10.26-9.35-14.11-15.16-1-1.57-1.26-3.67-2-6-5.49-2.16-10.91-5.37-13.06-11.88-2-5.94-3.79-12,0-18.16a9.27,9.27,0,0,0-1.82-.61c-9.75-.58-19.5-1.19-29.25-1.66-5.63-.26-11.26-.24-16.89-.42-6.45-.21-12.9-.66-19.35-.71-7.61-.06-15.23.44-22.83.27-24.67-.55-49.35-.89-73.94-3.45-7.71-.81-15.54-.38-23.32-.47-4.29,0-8.59,0-13.12,0-.59,4.47-1.39,8.65-1.6,12.86-.19,3.83-2,6-5.31,7.59-6,2.8-12.44,3.33-18.9,3.59a86.48,86.48,0,0,1-24.14-2.3c-13.21-3.23-26.63-2.69-40-1.91-1.66.09-3.32.16-5,.39-11.46,1.61-20.8-2.91-28.87-10.4a28.59,28.59,0,0,1-5.88-8.47c-3.94-8.12-5.61-17-6.94-25.8-2.1-13.9-3.82-27.86-5.63-41.81a29.35,29.35,0,0,1,0-5c.54-13.06.9-26.13,1.74-39.17a68.47,68.47,0,0,1,2.79-14,10.51,10.51,0,0,1,7-7.22c4.52-1.48,9.15-2.62,14.21-4,.08-.78.31-2,.34-3.31.73-27.65,1.72-55.3,2.08-83,.41-31.48.35-63,.26-94.45,0-5.25-1-10.53-1.88-15.75-.81-4.87,1-8.34,4.86-11.06,1.47-1,2.76-2.33,4.13-3.51l3.91-1M95.63,1057l-.72,1a44.45,44.45,0,0,0-2.08,5.56,8.35,8.35,0,0,0,0,4.24c1.66,5.53,4.75,7.76,10.73,7,5.23-.64,10.38-2,15.54-3.15a4.92,4.92,0,0,0,4.1-4.94c.25-4.12.78-8.27.54-12.37-.45-7.68-7.81-15.37-15.22-16a18.68,18.68,0,0,0-15,5.34c-3,2.87-5.71,6-8.59,9-4.52,4.68-10.46,5.84-16.33,3.09a20.12,20.12,0,0,1-9.07-8.18c-1.91-3.26-4.4-6.19-6.21-9.51-2-3.58-4.15-7.3-4.91-11.21a43.4,43.4,0,0,1-.15-13.84c1.62-11.81,8.63-20.53,20.74-21.94,4.23-.49,8.56-.16,12.85-.11,2.25,0,4.5.25,7.13.41V968.65c-6.39,0-12.3-.09-18.21,0-7.6.15-15.19.84-22.77.63-7-.19-11.85,2.84-14.6,8.86-2.6,5.68-5,11.54-5.17,18-.34,14.39-.74,28.78-1,43.17a70.85,70.85,0,0,0,.64,7.39c.13,4.4.2,8.8.4,13.2a21.57,21.57,0,0,0,3.91,12c4.16,5.72,8.17,11.55,12.28,17.31.94,1.32,1.83,2.89,3.93,2.2a51.38,51.38,0,0,0,18.49,2.69l1.16.61h0c-1.62,1-3.16,2.61-4.87,2.8a55.73,55.73,0,0,1-10.88-.09c-5.5-.49-10.06-2.38-12.54-8.09-.85-2-3.55-3.15-5.41-4.68l-.94-1.63-.6.43,1.28,1.43c.59,10.41,15.15,20.16,26.42,19.58,4.11-.21,8.21-.75,12.33-.82,9-.18,18-1.48,27.08,0,7.15,1.16,14.3,2.37,21.47,3.39a56,56,0,0,0,22.27-1.11c-4.9-.65-9.81-.81-14.7-1.3-2.41-.24-5.34-.42-7-1.84a15.59,15.59,0,0,0-8.93-3.58c-2.94-.36-5.85-1-8.75-1.6-5.75-1.22-11.49-2.52-17.24-3.79,7.1.43,14.2.72,21.28,1.36,5.43.49,10.86,1.2,15.44,4.76.94.73,2.5.8,3.79.91q10.88,1,21.76,1.8a8,8,0,0,0,2-.45c-2.64-8.3-2.14-16.61-1.81-24.86.63-15.87,1.57-31.72,2.36-47.58.08-1.76,0-3.53,0-5a6.27,6.27,0,0,0-1.39-.64c-18.32-1.26-36.63-2.85-55-2.11a55.45,55.45,0,0,1-6.91-.47c-4.58-.4-9.15-.84-13.73-1.26q-1.06-3-2.14-6a161.31,161.31,0,0,0,1.14-17.51c-9.53-1.19-17.46,4.09-19.69,13.27a32.81,32.81,0,0,0,1.7,21.43,98.17,98.17,0,0,0,9.22,15.82c4.16,6,12.49,7.79,17.46.59a69.7,69.7,0,0,1,6.94-7.77c4.32-4.59,9.81-6.62,16-7,13.3-.88,23.29,13,22.93,23.83-.11,3.64-.41,7.28-.85,10.89s-2.22,6.47-5.83,7.31c-6.27,1.45-12.61,2.71-19,3.58-2.33.31-5-.46-7.27-1.22-5.06-1.65-8.73-8.68-6.93-13.7C90,1059.63,92,1055.56,96,1053c2,0,1,1.26.95,2.17l-.67.89a1.57,1.57,0,0,0-.45.54Zm-21-294.5-7.73-18.37L65.25,744c-3.08.89-6.43,1.28-9.17,2.79-3.34,1.84-6.55,4.34-6.65,8.87-.06.63-.11,1.26-.17,1.89.27,9.72.72,19.44.74,29.17,0,7.91-.76,15.82-.73,23.73.06,12.38.52,24.76.8,37.14.33,14.2.63,28.4,1,42.59.32,12.21.77,24.42,1,36.63.15,7.45,0,14.89.07,22.34,0,1.61.14,3.22.25,5.39h5.68c3.26,1.23,6.33.56,9.65-.76V936.63c-.06-3.24-.13-6.48-.19-9.72a35.6,35.6,0,0,0,.55-4.33q0-35.16,0-70.31a34.15,34.15,0,0,0-.59-4.35c0-3.14,0-6.28,0-9.42q0-6.25,0-12.5l.24-9.57c0-.37.07-.75.1-1.12.07-16.68,1.16-33.37-.7-50-.3-2.75.2-5.59.32-8.39m-1-37c0-2.28,0-4.55,0-6.83a10.64,10.64,0,0,0,.56-2.36c.06-9.09.1-18.19.06-27.28a28.26,28.26,0,0,0-.65-4.34c0-1.6,0-3.21,0-4.81l0-8.12c-.18-2.89-.37-5.77-.56-8.66,0-.43,0-.87,0-1.31,0-.89,0-1.78,0-2.67a44.86,44.86,0,0,0,.51-4.88c0-9.76-.13-19.53,0-29.29.15-10.07.51-20.13.89-30.19.19-5.11.9-10.21.93-15.31.15-35.89.16-71.78.28-107.68,0-11.49.34-23,.41-34.48q.2-28.56.25-57.1c0-1.1-.2-2.21-.33-3.55H50.17c0,.95,0,1.93,0,2.9.28,9.2.84,18.4.8,27.59-.09,19.14-.68,38.27-.74,57.4Q50,524.44,50.15,590c0,3.28.72,6.55.74,9.83,0,4.11-.18,8.23-.55,12.32C49.73,618.87,49,641.3,49,648c0,22.28-.21,28.83.07,51.11.09,6.95.09,13.91.12,20.86v0c-1.67,1.93-1.25,3.95-.25,6,.57,2.8,2.85,3.4,5.14,4M-3.33,492.74m.88-48.45,46.29,65.34V483.34M-1.58,551.85l1.29.34-1.3-.32m181.67,483.85-4.43.64-16.05-1.2c-.4,1-1.14,1.95-1.15,2.92,0,13.9,0,27.8,0,41.7,0,1.28.22,2.55.37,4.18a44.75,44.75,0,0,0,5.54.43c8.74-.39,17.48-1,26.22-1.27,4.1-.11,8.22.63,12.34.75,13,.34,26.11.53,39.16.87q14.63.38,29.22,1c15.52.63,31,1.4,46.54,2,12.05.48,24.1.83,36.15,1.25,1.48,0,3,.23,4.44.37,7.71.78,15.41,1.7,23.14,2.29,4.07.32,8.18.06,12.17.06,1.38-5.19,2.79-9.94,3.85-14.76.44-2,.13-4.22.16-6.34l.62-1.62.78-7.94,7,1c-.44,6.57-.9,13.15-1.33,19.72-.33,5.07-.62,10.14-.95,15.63a58.27,58.27,0,0,0,23.75,2,60.53,60.53,0,0,1,21.11.53c-1.74.27-3.47.65-5.22.79-4.51.38-9,.67-13.55,1,9.72,1.22,18.1,4.42,24.43,12.11a9,9,0,0,0,3.24,2.22c7.05,3.27,14.05,6.69,21.24,9.62,7.93,3.23,16,4.26,23.66-1q8.6-5.86,17.16-11.77c5.3-3.65,5.53-9.33,1.77-13.62a11.13,11.13,0,0,1-2.74-5.13,115.37,115.37,0,0,1-.39-33.09c.64-5.24,1.46-10.45,2.26-15.67.86-5.7,1.61-11.43,2.72-17.09,2.3-11.72,11.91-18.24,19.16-26.43a2.37,2.37,0,0,1,.4-.28c2.8-2.25,3.49-4.18,1.86-7.2-1.13-2.08-2.91-3.8-4.4-5.69l-1,.52a31.4,31.4,0,0,1,.63,3.57c0,.92.13,2.16-.38,2.74-4,4.53-9,7.71-14.16,10.77a33.4,33.4,0,0,1,11.31-12.63c-.64-2.81-.79-5.75-2-8.19-3.52-7.28-7.21-14.5-11.28-21.48-4.32-7.42-11.58-11.47-18.83-15.64-4.85-2.78-9.63-1.38-14.46-1.54-.7,0-1.71,1-2.09,1.78a17.7,17.7,0,0,0-1.58,4.68,39.1,39.1,0,0,1-6.41,14.9c-1.07,1.58-2,2.44-3.85,2.43-2.15,0-4.3,0-6.45,0-6.68.24-13.25,1.12-19,4.76-5,3.15-10.53,5.89-13.41,11.45a60.5,60.5,0,0,0-6.44,19.7c-.58,4.25-1,8.52-1.62,12.76-.5,3.61-1.69,5-5.18,5.49a38.09,38.09,0,0,1-6.92,0c-2.81-.13-5.61-.37-8.42-.6-1.86-.16-3.57.54-4.08,2.17-1,3.25-2.23,6.67-2.1,10,.26,6.26,1.41,12.48,2.19,18.71l-7.5.92c-.53-6-1.06-12.06-1.58-17.94a4.74,4.74,0,0,0-1.23-.44q-20.76-.12-41.53-.16a9.38,9.38,0,0,0-2.58.77h-4.85c-.13-.09-.28-.26-.39-.24a4.14,4.14,0,0,0-.77.27l-3.72.11a11.11,11.11,0,0,0-2.35-.55q-43.1-.6-86.2-1.12a27.39,27.39,0,0,0-4.27.65l-3.68.13-6.2.08c-7.08-.59-14.16-1.28-21.26-1.72a56.05,56.05,0,0,0-7.4.48l-17.05-.06-4.58-.58ZM163.27,303.49l7.25.69,7.69.33,7.21-.06,1.69-.07c3.93.27,7.85.6,11.78.78,8.44.39,16.88.94,25.32,1,6.94,0,13.9-.43,20.84-.9a514.09,514.09,0,0,1,60.56-.35c10.91.52,21.86,0,32.8-.06,7.77-.07,15.55-.26,23.33-.42,1.08,0,2.15-.15,3.46-.25-.25-2.85-.5-5.31-.68-7.78-.34-4.77,2.16-8.07,6.74-8.88,1-.17,2-.18,3-.27,10.06-.51,20.11-1.09,30.17-1.51a85.76,85.76,0,0,1,11.89.08c6.24.6,12.43,1.69,18.65,2.46a21.94,21.94,0,0,0,4.15-.29c.43-6.73.8-13.14,1.25-19.55s2.9-12.9,1.24-19.53h-7.65c-.29,6.35-.56,12.27-.84,18.2-.16,3.6-1,5.24-3.5,5.88-6.13,1.59-12.44,2.41-18.64,1.17-5.94-1.18-9.73-3.63-8.58-10.9.18-1.14.48-2.27.55-3.42.25-3.89.88-7.8-.24-12.2h-30.4c-.33,0-.66.08-1,.11-6.74.62-13.47,1.77-20.21,1.75-22.19-.05-44.37-.72-66.56-.74-9.4,0-18.8,1.08-28.21,1.53-3.46.17-7,0-10.42-.1-3.3-.11-6.59-.56-9.88-.51-7.57.11-15.14.45-22.7.67a198.91,198.91,0,0,1-27.7-1.54c-4.4-.48-8.91.14-13.37.27-1.81.05-3.63.25-5.44.18-3-.13-5.92-.41-8.88-.65-3.62-.29-7.24-.66-10.86-.88-3-.18-6.11-.56-9.19.26.43,2.6.77,4.71,1.11,6.82,0,.52.07,1,.1,1.57l.36,1.28c.66,5.07,1.51,10.13,1.93,15.23a122.87,122.87,0,0,1,.54,15.81c-.24,5-1.31,10-2.07,15.36l22.67-.66A1.08,1.08,0,0,0,163.27,303.49ZM41.05,451.39A43.07,43.07,0,0,0,44,443.05M525.51,706a1.55,1.55,0,0,0,.39-.18c.06-.06,0-.21.05-.32l-.44.5a29.55,29.55,0,0,0-3.63,1.17c-6.25,2.88-12.42,6-18.75,8.68-1.67.72-3.8.5-5.72.5s-4.08-.25-6.55-.42l3.37,8.6c3,.09,5.58-2.22,8.5-.58a19.54,19.54,0,0,1-3.5,1.65c-2.31.57-3.19,2.14-3.46,4.25-.1.81,0,1.65,0,2.47-.47,5.57,1.59,11.57-2.87,16.47-.26.28-.14,1-.08,1.45.28,2.41.61,4.82,1,7.74,2.11-.27,3.83-.56,5.56-.7,7.83-.6,15.8-1.8,22.15,4.66.68.82,1.29,2.26,2,2.34a80.91,80.91,0,0,0,8.25.11c3.19-7.34,3.33-46.8,0-60.24l-4.36,6.22L519.56,714a7.69,7.69,0,0,1,.84-2.29C522,709.71,523.79,707.87,525.51,706ZM466.9,341l0,0c0,.32-.15.77,0,.94a48,48,0,0,0,15.26,11.37,10.49,10.49,0,0,0,3.87.5c5.32.21,9,2.85,9.45,8.12a203.14,203.14,0,0,1,.41,20.65c-.05,3.13-.7,6.23.78,9.2l-.1,18.79c-.65-3.51-1.54-7-1.88-10.55s.49-7.26-1.5-10.67c-.5-.85-.25-2.26-.06-3.37a48.58,48.58,0,0,0-1-19.59c-.77,18.63-1.5,36.66-2.25,54.83,8.05-.51,15.67.54,23.34,1.14,5,.4,10.13-.33,15.2-.56,2.55.35,5.07,1.45,7.39.6,1.22-10,2.41-19.68,3.57-29.32a14.74,14.74,0,0,0,0-2c0-9.6.21-19.21-.21-28.79-.35-7.75,2.49-13.47,8.89-17.6a13.78,13.78,0,0,0,2-1.48q3.28-3,6.51-6c4-3.74,5.75-8.67,7.32-13.7,1.42-3.09,3.2-6.08,4.18-9.31a48.9,48.9,0,0,0,1.46-21c-1.09-8.12-2.85-15.89-6.48-23.22-2.34-4.73-5-9.33-7-14.18-1.07-2.52-2.09-4-5-4.58-6-1.13-11.87-2.89-17.07-6.33a7.16,7.16,0,0,0-3.25-1.13c-10-.76-20.07-2.06-30.09-1.87-5.75.1-11.48.22-17.23-.08-3.87-.2-5.72-1.4-6.68-5.3a53.39,53.39,0,0,1-1-8.32c-.34-4.16-1.17-7.85-6.33-8.43-.92-.1-1.72-1-2.65-1.28A18.69,18.69,0,0,0,453,219.66c.76.55,1,.87,1.25.89,1.65.13,3.31.1,4.95.3a33.82,33.82,0,0,1,3.68.86l-.05,2.18c-3.27.06-6.55.26-9.81.15-10-.36-20-.84-29.94-1.27l-11.14-2.53c-4.2,15.32-3.14,31.14-4.5,47.13h19.72c-.29-2-.52-3.49-.75-5l.07-3.8c.3-1.78.55-3.57.9-5.34,2-10.24.94-11.15,13.07-11.85a16.36,16.36,0,0,1,2,0c3.55.29,5.09,1.66,5.46,5.2.24,2.29.15,4.62.21,6.93A183.33,183.33,0,0,1,444,288.26q-.62,2.89-1.22,5.78a8,8,0,0,1-7.31,4.21,83.58,83.58,0,0,1-9.35-.52c-6.22-.56-12.43-1.22-18.64-1.84.54-.49,1.08-1.4,1.61-1.4q10.14.12,20.28.48c2.63.09,5.35,1.08,8.3-1.73-9.15.7-17.25-.7-25.31-2.61a13.22,13.22,0,0,0-4.44-.12c-7.86.93-15.71,1.89-23.54,3a69.5,69.5,0,0,0-9.19,1.83,4.09,4.09,0,0,0-2.65,2.38c-.61,3.35-1.67,6.73-.3,10.23.9,2.29,1.39,4.74,2.06,7.12.86,3,.86,3,5,2.47L453.13,315c1,2.78,1.9,5.05,2.75,7.32l0,.32.13.31.68,1.63,8.77,14.55Zm43.52,121.12h8.23c-.72-11.14,1.18-21.66.68-32.73h-6.47a14.73,14.73,0,0,0-7.88-1.45v34.18ZM368,1101.56l-.34,1.26c.34,4.57.83,9.14,1,13.72s.51,5.28,5.41,5.44c7.71.24,15.42.37,23.14.55a33.93,33.93,0,0,0,5.75,1c16.87.12,33.74.14,50.61.16,1.9,0,3.8-.2,6.83-.37-3.54-2.57-6.14-4.48-8.75-6.37a19.2,19.2,0,0,0-9-3.8,80.22,80.22,0,0,0-15.68-.93c-7.53.5-15.16-.32-22.74-.74-2.62-.14-4.54-1.75-6-4a14.7,14.7,0,0,1-2.09-8.52c0-2.24-1-3.24-3.28-3.35-8-.38-16-.88-24.64-1.37v7.08ZM399.51,1134c-5-6.53-11.74-6.82-19.38-6.06,1,3.53,3.12,5.49,5,7.62,2.48,2.4,4.78,5,7.47,7.16,7.35,5.89,16.51,7,25.27,7.62a84.47,84.47,0,0,0,46.38-9.64c3.59-2.12,7.7-3.61,10.25-8.26-2.21-1.12-4-2.66-5.9-2.87-7.36-.84-13.08,2.11-17,8.46-.64.18-1.47.16-1.87.57-2.35,2.4-5,2-7.72.95-1.66-.66-3.22-1.58-4.82-2.38-1.53-1.88-2.85-4-4.66-5.57-2.94-2.56-6.78-2.34-10.28-1.87-2.56.34-3.93,2.69-4.51,5.24-1.39,1.37-2.8,2.71-4.16,4.09-3.11,3.17-5.76,2.94-8.65-.36A49.32,49.32,0,0,0,399.51,1134Zm108-369.3h-4.47c-.14,1.56-.32,2.68-.33,3.81q-.18,69.21-.35,138.43c0,2.65.13,5.3-.05,7.93-.49,7.08-1.13,14.14-1.67,21.21a12.39,12.39,0,0,0,.25,2.33l8.59.64,3.84,1.54c.09-2,.19-3.47.22-4.92.46-29.46-.44-58.93.81-88.4,1-24.79.87-49.64,1.19-74.47C515.64,767,513.53,765,507.54,764.73ZM41.2,360.93c.79.64,1.58,1.83,2.37,1.83,8.29,0,16.58-.26,24.87-.43a12.25,12.25,0,0,0,9.29,0v-5.49c.41-8.74.85-17.49,1.21-26.24.11-2.81,0-5.62,0-8.42a22.2,22.2,0,0,0,1-4.17A207.62,207.62,0,0,1,86,274.35a79.8,79.8,0,0,1,4-11.72c1.5-3.58,3.88-6.66,7.85-7.8,7.67-2.22,15.68,2,17.42,9.86a217.36,217.36,0,0,1,3.26,22.05c1.14,10-3.81,16.67-12.12,21.4-2.85,1.63-5.83,1.87-8.38-.2-2.8-2.29-5.59-4.91-4.73-9.15q1.42-7.05,3.15-14a16.38,16.38,0,0,1,2-5c.63-1,2.28-2.19,3-1.95a5.36,5.36,0,0,1,2.79,3c.86,2.27.58,4.67-.34,7.73l-3-5.95A85,85,0,0,0,97.88,297c-.44,2.73,1.14,4.46,3.06,5.8s3.31-.47,4.7-1.57a6.22,6.22,0,0,1,1.59-1.16c5.57-1.95,6.45-6.55,6.69-11.57.37-7.84-.8-15.52-2.42-23.14a8.54,8.54,0,0,0-5.81-6.85c-6.13-2.06-10.41-.1-12.31,6.21a97.85,97.85,0,0,0-3,13.56c-1.89,12.58-3.58,25.2-5.27,37.82-.23,1.77-.66,4.12.21,5.34C88,325.16,91,329.09,96,329.73c5.64.72,11.41.53,16.53-2.1,9.75-5,16.4-12.85,19-23.62,2.18-9.11,2-18.37.42-27.6.2-.43.62-.9.57-1.3-.68-4.72-1.69-9.41-2.1-14.15-.75-8.84-5.33-15.79-10.42-22.54a13.64,13.64,0,0,0-9.52-5.69c-7-.82-14.14-1.14-21.1-2.36-9.52-1.67-18,1-26.15,5.26a28.66,28.66,0,0,0-6.07,5c-7.21,6.95-10.32,16.22-12.65,25.4-3.18,12.58-7.21,25.09-7.75,38.2-.39,9.56-.53,19.16-.27,28.72.21,7.73,1.2,15.44,1.82,23.16.12,1.45.14,2.92.21,4.41ZM509.85,703.19l5.69-2.8c0-1.36,0-2.34,0-3.32.42-24.62-.72-49.25.91-73.87.81-12.34,1-24.75,1.07-37.13.16-29.78.06-59.56.16-89.34,0-4.77.54-9.53.74-14.3a31.92,31.92,0,0,0-.37-4.19l-5.67.3h-7.72c-.32,5.49-.83,10.27-.82,15,.09,34.1.34,68.21.45,102.32q.1,31.51-.07,63c-.08,14.72-.39,29.45-.56,44.18a30.9,30.9,0,0,0,.4,3.8C507.18,707,508.5,705,509.85,703.19ZM73.61,771.8c0,31.16.26,61.47-.08,91.76-.34,30.44-.52,60.86.58,91.24,5.61,2.44,11.12,1.59,16.52,1.71,3.2.07,3.74.27,4.26,3.42a70.42,70.42,0,0,1,1,9.37c.18,6.46.19,12.92.12,19.38,0,3.41-.36,6.82-.56,10.19-5.54,1.6-10.35-1-15.24-1.28v17.86c26-2.07,51.54.63,77.47,2.79.54,3.45,1,6.49,1.45,9.2,3.71,0,7.32-.06,10.93,0,15.07.27,30.14.53,45.21.91,6.28.16,12.57.49,18.84,1,5.44.4,10.86,1.09,16.29,1.63,3,.3,5.93.59,8.9.8,12.24.86,24.47,1.47,36.69-.45a161.11,161.11,0,0,1,32.7-1.64c5.45.26,10.93.56,16.39.37a384.22,384.22,0,0,1,50.9,1.91,4.43,4.43,0,0,0,.44-1c1.4-10.65,8.68-16,19.12-14.25a74.05,74.05,0,0,0,7.7.57,8.68,8.68,0,0,0,.59-1.87c.05-2.81-.1-5.63.07-8.44,1.12-18,7-29.43,23.64-36.85,8.26-3.69,16.86-4.6,25.71-4.52h4.39c0-4.14-.44-8,.08-11.67,1.62-11.24,5.21-14.64,17-16.5,1.51-57.54,1.32-114.75,2-172.08-1.68-.1-2.67-.11-3.65-.24-3.81-.51-7.75-4.67-7.5-8.48.76-11.51-1.11-22.81-2.46-34.15A21.23,21.23,0,0,1,485,711.36c1.29-3.08,3.57-4.49,6.92-4.6,4.83-.15,4.8-.25,4.88-5.18.13-8.28.3-16.56.44-24.85q1-58.62,2-117.26.36-23.12.31-46.23c0-20.86-.22-41.73-.33-62.6,0-6.93,0-13.85,0-20.8-3.59-.69-7.42-1.45-11.25-2.16-2.36-.45-3.36-2-3.43-4.23-.12-3.47-.22-6.95-.06-10.41.36-7.6,1-15.19,1.3-22.8.42-10.34.64-20.69,1-31.26-9.94.21-18.71-3.86-25.76-11.08s-12.36-15.64-10.46-26.65c-3.57-1.75-7-1.89-10.47-1.74C428,320,416,322.12,403.85,321a9.44,9.44,0,0,0-2,.22c-6.25.8-12.48,1.66-18.73,2.36a42.19,42.19,0,0,1-6.93.08,8.54,8.54,0,0,1-7.68-5.42c-1-2.25-2.05-4.49-3.09-6.74-.62-.05-1.09-.11-1.57-.13-15.06-.45-30.12-.69-45.17-1.41a231.36,231.36,0,0,0-36.19,1c-8.23.88-16.49,2.12-24.73,2.11-19.87,0-39.72-.29-59.54-2.57-11.29-1.3-22.8-.72-34.22-.87-8.74-.1-17.48,0-26.44,0-1.86,7.91-7,13.45-12.71,18.65a33.6,33.6,0,0,1-27.4,9c-2.94-.32-5.74-2.22-8.5-3.62a18.48,18.48,0,0,1-3.25-2.72c-.38.45-.73.67-.74.91-.52,10.92-1.15,21.83-1.42,32.75-.12,4.91-.61,5.76-5.6,6-1.88.08-3.76.44-5.19.61v12.49Q72.88,486,73,588.4c0,17.55-.64,35.11.81,52.64.1,1.31,0,2.64-.06,4-.22,11.9-.62,23.8-.6,35.7,0,8.26.58,16.53.93,24.79m14.48,261c.5-2.94-1.12-2.9-2.57-2.87-5.14.1-10.22.11-15.16-1.84-1.58-.62-3.62-.27-5.42-.09-5.57.56-11.14,1.23-16.7,1.93a20,20,0,0,0-3,.89c5.22,2.59,10.67,2.47,15.94,2.16C70.48,966.2,79.29,964.32,88.57,966.53ZM43.77,435.36V410.48M43,964.88c-2-.46-3.25-.85-4.54-1-5.74-.85-10.26,2.06-12.1,7.49-1.44,4.29-1.17,8.63-.72,13.07a23.75,23.75,0,0,0,2.19-5.29,15.19,15.19,0,0,1,9-10.4A51.64,51.64,0,0,0,43,964.88Zm.84-560.53v-18m.39,139.79c0-2.26,0-4,0-5.77M44,456.2v-5.6" fill="#0b0907"/><path d="M448.79,1099.85a60.53,60.53,0,0,0-21.11-.53,58.27,58.27,0,0,1-23.75-2c.33-5.49.62-10.56.95-15.63.43-6.57.89-13.15,1.33-19.72a95.79,95.79,0,0,0,10,1.55,38.33,38.33,0,0,0,8.24-.82c3.51-.6,7-1.46,10.46-2.2l-1.74,8.54-3.25,4.38c5.24,1.75,9.69,3.28,14.18,4.71a30.42,30.42,0,0,0,3.83.71l0,0,2.06,1-.08,0,1,.76,2.13,1,1.87,1.33,0,0c2.55,2,5,4.1,7.65,6,3,2.17,4.12,1.76,6.33-1.33a26.32,26.32,0,0,1,4.85-5.4c7.37-5.84,7.48-7.87.31-14.49l-.91-1-1.63-1.68-.17-.1-1.43-1,.12,0c-1.69-1.9-3.31-3.86-5.07-5.68a39.09,39.09,0,0,0-3.3-2.79c1.59-4,2.95-7.42,4.32-10.85,9.37,2.16,17.92,0,26.27-4.43,6.69-3.53,10.24-9.64,14.11-15.57a5.43,5.43,0,0,0,.74-2.86c-.16-8.49.79-17-5.35-24.48-6.32-7.7-13.19-13.71-23.44-15.14-5.77-.81-11.21.35-16.64,1.77-8.39,2.2-13.06,8.56-16.88,15.71a12.92,12.92,0,0,0-.89,3.83c-.56,3.42-1,6.85-1.61,10.27-.73,4.46-1.08,8.88,1,13.13,3.21,6.62,7.68,11.94,14.83,14.57a9.43,9.43,0,0,1,1.95,1.39,86.7,86.7,0,0,0-5,8.5c-2.74,6.06-.79,9.77,5.84,11.83l0-.06,12.07,10c.08.36.17.73.25,1.09-1.72,4.31-5.22,7-8.69,9.94l-3.67-1.46a2.08,2.08,0,0,0-.7-.62l-2.09-1.28.06.07-1.09-1,.05.06-1.15-1.09a33.41,33.41,0,0,0-18.94-7.26c1.21-4.15,2.41-7.72,3.23-11.38.28-1.25-.39-2.71-.63-4.07-1.84-3.45-4.93-1.72-7.51-1.68-9.05.13-18.09.43-27.14.66-.77-6.23-1.92-12.45-2.18-18.71-.13-3.3,1.09-6.72,2.1-10,.51-1.63,2.22-2.33,4.08-2.17,2.81.23,5.61.47,8.42.6a38.09,38.09,0,0,0,6.92,0c3.49-.47,4.68-1.88,5.18-5.49.6-4.24,1-8.51,1.62-12.76a60.5,60.5,0,0,1,6.44-19.7c2.88-5.56,8.4-8.3,13.41-11.45,5.78-3.64,12.35-4.52,19-4.76,2.15-.07,4.3-.05,6.45,0,1.83,0,2.78-.85,3.85-2.43a39.1,39.1,0,0,0,6.41-14.9,17.7,17.7,0,0,1,1.58-4.68c.38-.78,1.39-1.81,2.09-1.78,4.83.16,9.61-1.24,14.46,1.54,7.25,4.17,14.51,8.22,18.83,15.64,4.07,7,7.76,14.2,11.28,21.48,1.18,2.44,1.33,5.38,2,8.19a33.4,33.4,0,0,0-11.31,12.63c-.49,1-1,2-1.48,3-2.53,4.63-2.9,10.4-7.44,14-3.54,2.6-4.15,6.6-4.91,10.48-.86,4.37-1.65,8.76-2.31,13.16a49.83,49.83,0,0,0-.75,8.34c.06,4.11.77,8.18-.91,12.21-.53,1.26-.26,2.94-.1,4.41.6,5.55,1.16,11.12,2.05,16.63.33,2,1.56,3.95,2.33,5.93a67.82,67.82,0,0,1,2.55,6.93,3.39,3.39,0,0,1-2.29,4.35c-1.68.67-3.36,1.37-5,2.17-4.59,2.24-9.35,4.2-13.66,6.9-3.94,2.47-7.55,3-11.57.67s-8.05-4.54-12.07-6.81C463.39,1104.39,456.11,1102.05,448.79,1099.85Zm29.88-127c4.78,4.73,6.43,4.61,9.82.14,1.69-2.23,3.67-4.23,5.37-6.46,1.46-1.91,3.18-3.65,2.5-6.62-.64-2.78.38-3.84,3.08-3.21a34.23,34.23,0,0,1,7.7,3.08c1.82.92,3.46,1.51,4.81-.33s.08-3.17-1.19-4.29c-4.51-4-9.86-5.14-15.68-4.34a3.52,3.52,0,0,0-2.29,1.65,108.36,108.36,0,0,0-6,13C485.44,969.33,483.81,972.36,478.67,972.81Zm-42.15,44.91a98.11,98.11,0,0,0,3.49-9.33c.61-2.32,1.14-5,.49-7.22-.83-2.8.14-4.3,1.87-6,6.54-6.58,13.3-12.85,22.05-16.47a21.7,21.7,0,0,0,2.82-1.72l-.1-1c-1.5-.11-3.13-.65-4.47-.25A40.14,40.14,0,0,0,444,987.28c-5.47,6-7,13.7-8.84,21.18C434.48,1011.35,434.25,1014.7,436.52,1017.72Zm-4.24,5.42c-2.1,2.71-4.69,3-7.55,3.12-3.59.2-7.13,1.18-10.72,1.64-5.18.65-7.5,4-6.74,10a42,42,0,0,1-.06,6.24c0,1.89-.54,3.89,1.41,5.3,2.49-3.26,2.49-3.26,1.81-6.68-1.07-5.43,1.89-9.36,7.35-9.86,2.79-.25,5.58-.56,8.34-1C430.76,1031.25,432.4,1029,432.28,1023.14Z" fill="#c78f46"/><path d="M74.82,1020.29c4.58.42,9.15.86,13.73,1.26a55.45,55.45,0,0,0,6.91.47c18.4-.74,36.71.85,55,2.11a6.27,6.27,0,0,1,1.39.64c0,1.5.07,3.27,0,5-.79,15.86-1.73,31.71-2.36,47.58-.33,8.25-.83,16.56,1.81,24.86a8,8,0,0,1-2,.45q-10.87-.84-21.76-1.8c-1.29-.11-2.85-.18-3.79-.91-4.58-3.56-10-4.27-15.44-4.76-7.08-.64-14.18-.93-21.28-1.36l-19,.9h0l-1.16-.61a51.38,51.38,0,0,1-18.49-2.69c0-.75.11-1.5.17-2.28,6.52,1.15,7.32,1,10.17-1.62l-6.91-4c9.56.46,18.77,2.07,27.67,1.18-9-2.61-18.21-5.4-27.53-8-3.58-1-5.71-3.1-7.06-6.85l7.39,2a5.41,5.41,0,0,0-2.49-2.83,60.49,60.49,0,0,1-17.5-16.57c-1.43-2-2.95-3.85-4.43-5.78a70.85,70.85,0,0,1-.64-7.39c.28-14.39.68-28.78,1-43.17.16-6.45,2.57-12.31,5.17-18,2.75-6,7.56-9,14.6-8.86,7.58.21,15.17-.48,22.77-.63,5.91-.12,11.82,0,18.21,0v22.72c-2.63-.16-4.88-.39-7.13-.41-4.29-.05-8.62-.38-12.85.11C56.9,992.48,49.89,1001.2,48.27,1013a43.4,43.4,0,0,0,.15,13.84c.76,3.91,2.95,7.63,4.91,11.21,1.81,3.32,4.3,6.25,6.21,9.51a20.12,20.12,0,0,0,9.07,8.18c5.87,2.75,11.81,1.59,16.33-3.09,2.88-3,5.62-6.09,8.59-9a18.68,18.68,0,0,1,15-5.34c7.41.61,14.77,8.3,15.22,16,.24,4.1-.29,8.25-.54,12.37a4.92,4.92,0,0,1-4.1,4.94c-5.16,1.14-10.31,2.51-15.54,3.15-6,.74-9.07-1.49-10.73-7a8.35,8.35,0,0,1,0-4.24,44.45,44.45,0,0,1,2.08-5.56l.72-1,.21-.31a.43.43,0,0,0,.45-.54l.67-.89a25.1,25.1,0,0,1,3-1.81c1.88-.81,3.9-1.26,5.61.27s2.57,3.44,1.68,5.8c-.28.75-.49,1.54-.69,2.18l-7.36,2.47c4.69,3.21,9.53,2.53,10.16-1.28a17.2,17.2,0,0,0-.84-8.19c-1.25-3.49-3.91-4.63-7.63-3.82-1.69.37-3.23,1.45-4.83,2.21-4,2.52-6,6.59-7.53,10.76-1.8,5,1.87,12,6.93,13.7,2.32.76,4.94,1.53,7.27,1.22,6.38-.87,12.72-2.13,19-3.58,3.61-.84,5.39-3.76,5.83-7.31s.74-7.25.85-10.89c.36-10.81-9.63-24.71-22.93-23.83-6.16.41-11.65,2.44-16,7a69.7,69.7,0,0,0-6.94,7.77c-5,7.2-13.3,5.36-17.46-.59a98.17,98.17,0,0,1-9.22-15.82,32.81,32.81,0,0,1-1.7-21.43c2.23-9.18,10.16-14.46,19.69-13.27a161.31,161.31,0,0,1-1.14,17.51l-3.67-6.9c-2.47,5.58-.82,10.36,1.34,15,1.63,3.52,4.58,5,8.42,4.89.63,0,1.27.4,1.92.45,6,.48,12.09,2.09,18.17.4a25.06,25.06,0,0,0,3.88-2.07,20,20,0,0,0-2.91-1q-10.58-1-21.14-2C76.81,1023,75,1022.82,74.82,1020.29Zm70,23.26,1.17.27c.46-.43,1.12-.78,1.35-1.31,2-4.4,1.4-9.07.84-13.6-.13-1.06-2.24-2.47-3.58-2.66a20.65,20.65,0,0,0-6.85.49c-5.93,1.21-11.81,2.63-17.72,4v.45h24.28C144.49,1035.55,144.66,1039.55,144.82,1043.55Z" fill="#c68e45"/><path d="M159.6,1035.16l16.05,1.2c.36.5.64,1.32,1.1,1.44,6.11,1.57,12.3,1.46,19,1.09l-3.43-2.72,17.05.06-6,2.61c1.45,0,2.68,0,3.91,0,2.76.1,5.53.16,8.28.38s5.21.7,7.83.87c5.75.37,11.51.51,17.26.93,7.24.52,14.46,1.34,21.7,1.81s14.52.8,21.79.92c2.63,0,5.28-.67,7.92-1l0-1.36c-3.17-.37-6.33-.91-9.52-1.07-10.56-.51-21.13-.88-31.69-1.33-1.23-.06-2.82.35-2.94-1.7a27.39,27.39,0,0,1,4.27-.65q43.11.51,86.2,1.12a11.11,11.11,0,0,1,2.35.55c-.62.6-1.14,1.5-1.88,1.75-3.69,1.25-7.43,2.32-11.16,3.46a40,40,0,0,0,7.74.62c7.24.25,14.47.63,21.71.85,3.13.09,6.39.46,9.36-.26a31.2,31.2,0,0,1,12.25-.16,30.65,30.65,0,0,0,5.41.39c1.47,0,3-.43,3.22-2.41l-3.88-.83c-6.11-1.33-12-2.3-18.44-.3-4.61,1.41-9.93-.37-14.5-2.79-.09,0-.07-.31-.1-.47a9.38,9.38,0,0,1,2.58-.77q20.76,0,41.53.16a4.74,4.74,0,0,1,1.23.44c.52,5.88,1.05,11.91,1.58,17.93l.84,4.86.22,8.25-.62,1.62c-3,.56-6.07,1.52-9.13,1.61-9.91.27-19.83.28-29.75.27-5,0-9.91-.31-14.86-.44-2.22-.06-3.81.76-4.2,3.48,2.44,2.06,5.35,2.32,8.33,2.32,11.27,0,22.53,0,33.79,0,1.85,0,4.08-.8,5.13,1.78-.81,2.76-2.83,3.32-5.36,3.24-10.25-.33-20.5-.71-30.75-.87-12.08-.2-24.19-.64-36.26-.17-14.5.56-28.63-2.39-43-3.31-11-.71-22-1.88-33-2.79a16.94,16.94,0,0,0-4,.16,179.7,179.7,0,0,1-34.13,1.81,56.73,56.73,0,0,1-15.06-2.45c-6.42-2.08-12.51-5.18-18.74-7.85-.87-.37-1.73-.78-2.59-1.17l1-1.63c8,4,16.48,3.47,24.91,3.19-7-3-13.92-6.07-20.89-8.95-4-1.65-5.94-4.42-5.79-8.79a17.34,17.34,0,0,0-2.8-9.37C159.78,1039.19,159.93,1037,159.6,1035.16Z" fill="#b4899d"/><path d="M374.22,287.23c-1,.09-2,.1-3,.27-4.58.81-7.08,4.11-6.74,8.88.18,2.47.43,4.93.68,7.78-1.31.1-2.38.23-3.46.25-7.78.16-15.56.35-23.33.42-10.94.1-21.89.58-32.8.06a514.09,514.09,0,0,0-60.56.35c-6.94.47-13.9.94-20.84.9-8.44,0-16.88-.59-25.32-1-3.93-.18-7.85-.51-11.78-.78l3.88-2.84-36.79-.85,8.3,2.7-22.67.66c.76-5.4,1.83-10.36,2.07-15.36a122.87,122.87,0,0,0-.54-15.81c-.42-5.1-1.27-10.16-1.93-15.23l-.36-1.28c0-.52-.07-1.05-.1-1.57,4.69,0,9.28.59,13.56,2.7l-4.23,2c10.18,4.31,20.27,1.84,29.64,3.43v11.38c-9.07-.32-18.21-3.26-26.73,2.39,8.57,4.94,17.64,4.82,27.09,3.95,0,4.32.11,8.53-1.51,12.7-9.54-.32-18.86-2.07-28.5,1.39a10.67,10.67,0,0,0,8.05,3.47c6.28-.08,12.56-.18,18.81-.61,5-.35,7-2.39,7.74-7.4.64-4.24,1.24-8.51,1.5-12.79.19-3.27-.18-6.57-.3-9.86.55-.26,1.23-.88,1.63-.74,2.95,1.06,5.8,2.38,8.76,3.38a36.37,36.37,0,0,0,8,2.1c4.62.43,9.27.22,13.53-2.14a4.09,4.09,0,0,1,1.89-.52c9.09.1,18.19.15,27.28.41,4.14.11,8.28,1,12.56,0-.34-.7-.44-1.18-.61-1.21-5.45-.85-10.77-3.15-16.48-1.52a8.68,8.68,0,0,1-3,.07c-7.57-.58-15.13-1.32-22.71-1.76-6.66-.39-12.24-3.34-18.32-6.68,7-2.22,13.68-1.46,20.19-1.39,23.47.24,47-.92,70.4,1.87a32,32,0,0,0,7.45,0c9-1.1,17.95-2.68,27-3.46a74.52,74.52,0,0,1,17.79.29c7.75,1.22,15.36,2,23.14.66a24.68,24.68,0,0,1,4.92.17c-1,3.49-1.85,6.27-2.75,9.3-6.84,0-13.45.1-20.05,0-5.44-.11-10.88-.68-16.32-.73a52.6,52.6,0,0,0-8.34,1c-1.4.21-2.76.91-2.18,2.55.2.55,1.86.9,2.79.81,2.94-.3,5.91-1.49,8.76-1.21,9.84,1,19.65,2.36,29.44,3.76a13.17,13.17,0,0,1,5.4,2.06c2.44,1.65,4.38,4,6.86,5.61C373.92,281.93,374.94,284.1,374.22,287.23ZM201,299.8c2.52.34,5,.77,7.57,1,5.27.47,10.55,1.26,15.81,1.13,9.25-.22,18.48-1.35,27.73-1.49,9.08-.15,18.17.54,27.27.71q30.79.57,61.59.93c4.1,0,8.2-.61,12.29-.94C324,296.4,218.42,295.59,201,299.8Z" fill="#b2889c"/><path d="M448.09,253.48c-.06-2.31,0-4.64-.21-6.93-.37-3.54-1.91-4.91-5.46-5.2a16.36,16.36,0,0,0-2,0c-12.13.7-11.07,1.61-13.07,11.85-.35,1.77-.6,3.56-.9,5.34-.19-3.58-.35-7.17-.56-10.76-.27-4.52,2.58-6.87,6.11-8.68a16.11,16.11,0,0,1,3.33-.86c-7.34-4.85-13.49,0-14.75,5.79a32.18,32.18,0,0,0,1.32,17.07c.83,2.55,2.44,2.81,4.48,1.24.23,1.53.46,3.06.75,5H413.23a44.1,44.1,0,0,1,0-6.4c.38-2.75,1.54-5.41,1.78-8.16.58-6.88.94-13.78,1.19-20.67.22-6.3.1-6.3,6.17-8.71.28-.11.47-.43.7-.66,10,.43,20,.91,29.94,1.27,3.26.11,6.54-.09,9.81-.15,3.55,3.27,3.75,7.32,2.72,11.66a10.31,10.31,0,0,0,8.19,10.2A61,61,0,0,0,495.19,247a33.56,33.56,0,0,1,5.93-.13c.51,0,1,1.07,1.43,1.65-3-.51-5.37,1.2-8,2a40.69,40.69,0,0,0-23.83,18.22c-7.27,11.56-10.58,23.85-8.78,37.36,1.61,12.05,6.8,22.13,17.51,28.66a127.39,127.39,0,0,0,12.2,6.64c15.87,7.46,43.61,5.43,58.29-17.38a54.44,54.44,0,0,0,8.78-26.56l0-5.18-.24-2.83-.11-1,0,0,1.06-2.06c1.47,4.31,2.45,8.08,4,11.56a20.72,20.72,0,0,1,1.82,10.54c-.4,5-.85,10.06-1.28,15.08-1.58,5-3.37,10-7.33,13.7q-3.23,3.06-6.51,6a13.78,13.78,0,0,1-2,1.48c-6.4,4.13-9.24,9.85-8.89,17.6.42,9.58.17,19.19.21,28.79a14.74,14.74,0,0,1,0,2c-1.16,9.64-2.35,19.28-3.57,29.32-2.32.85-4.84-.25-7.39-.6-2-2.14-4.66-2.08-7.29-2.12-6.07-.1-12.09.22-18.11-1.58-3.2-.95-4.88-2.29-5.34-5.41,0-5.25,0-10.5-.1-15.75a32,32,0,0,0-.94-5.16c-1.48-3-.83-6.07-.78-9.2a203.14,203.14,0,0,0-.41-20.65c-.47-5.27-4.13-7.91-9.45-8.12a10.49,10.49,0,0,1-3.87-.5,48,48,0,0,1-15.26-11.37c-.16-.17,0-.62,0-.94a23.73,23.73,0,0,1,3.95,1.73c9,6.08,18.95,8,29.67,6.94-8.84-1.74-16.81-5.51-24.34-10.28-6.51-4.12-12-9.24-15.34-16.33-1.54-3.29-1.93-3.47-5-.7-.85-2.27-1.71-4.54-2.75-7.32l-73.87,2.49c-.49-5.55-1-11.09-1.51-17,1.81-.42,3.53-.93,5.28-1.18,8.13-1.19,16.28-2.3,24.43-3.44,6.21.62,12.42,1.28,18.64,1.84a83.58,83.58,0,0,0,9.35.52,8,8,0,0,0,7.31-4.21,6.82,6.82,0,0,1,1.21.83c1,1,1.6,3.12,3.35,2,1-.59,1.36-2.39,1.65-3.72,1-4.93,2-9.89,2.92-14.84.94,2.76,1.1,5.38,1.61,7.94a2.8,2.8,0,0,0,2,1.81,2.87,2.87,0,0,0,2.2-1.55,18.1,18.1,0,0,0,1.21-5.23c.27-3.46,0-7,.46-10.4.75-5.38-.39-10.43-1.58-15.6-3,1.33-3.9,3.43-4,6.42-.09,2.67-1.13,5.3-1.76,7.94l-.71-.17,1.44-23.88a29.23,29.23,0,0,0-2.91,7.21C449.69,253.21,448.69,253.28,448.09,253.48ZM439,308.23l.23-.34-.17.4c-3.64,0-7.31-.27-10.9.18a112.54,112.54,0,0,1-29.62,0c-4.9-.68-11.35.93-14.29,3.49,4.81.49,9.6.72,14.29,1.51,8.92,1.5,17.83.92,26.61-.49C429.85,312.18,434.34,309.85,439,308.23Zm88.95,105.7c-6.74-2.8-13-3-19-3.53-.9-6.72-2-12.92,1.22-18.87a10,10,0,0,0,.58-3.38c1-8.75-2.06-16.54-5.8-24.14-.43-.86-1.58-1.38-2.38-2.05a4.73,4.73,0,0,0-1.39,5.28c1,3.65,1.94,7.34,2.79,11a24.19,24.19,0,0,1-.88,15,21.15,21.15,0,0,0-1,8.67c.15,3.26,1.08,6.47,1.62,9.72.51,3,1.32,3.73,4.53,4,1.47.14,2.91.54,4.38.65C517.45,416.77,522.4,417.5,527.9,413.93Z" fill="#c68e45"/><path d="M77.73,356.86v5.49a12.25,12.25,0,0,1-9.29,0l2.1-3.24h-3.6c-5.26-2.58-10.81-2.37-16.42-1.81-3.62.36-4.26.19-4.71-3.23a53.71,53.71,0,0,1-.45-13.21A46.28,46.28,0,0,0,44,321.38q.51-6.15,1-12.3a38.83,38.83,0,0,1,.25-4.46c1.36-8.3,2.74-16.61,4.23-24.9,1.36-7.51,3-14.93,7.26-21.49,1.34-2.07,2.41-4.31,3.61-6.47a11.07,11.07,0,0,0,2.36-1.62c4.48-5.32,9.78-9.22,16.89-10.15a17.92,17.92,0,0,0,3.89-.7c2.53-.94,4.74-.22,7.16.61,5.27,1.82,10.7,3.18,16,4.91,2.64.86,5.52,1.67,7.66,3.31,5.8,4.47,10.57,9.89,13.13,17,1.38,3.82,3,7.55,4.47,11.32,1.53,9.23,1.76,18.49-.42,27.6-2.58,10.77-9.23,18.61-19,23.62-5.12,2.63-10.89,2.82-16.53,2.1-5-.64-8-4.57-10.65-8.3-.87-1.22-.44-3.57-.21-5.34,1.69-12.62,3.38-25.24,5.27-37.82a97.85,97.85,0,0,1,3-13.56c1.9-6.31,6.18-8.27,12.31-6.21a8.54,8.54,0,0,1,5.81,6.85c1.62,7.62,2.79,15.3,2.42,23.14-.24,5-1.12,9.62-6.69,11.57a6.22,6.22,0,0,0-1.59,1.16c-1.39,1.1-2.68,3-4.7,1.57s-3.5-3.07-3.06-5.8a85,85,0,0,1,3.17-14.42l3,5.95c.92-3.06,1.2-5.46.34-7.73a5.36,5.36,0,0,0-2.79-3c-.77-.24-2.42,1-3,1.95a16.38,16.38,0,0,0-2,5q-1.73,7-3.15,14c-.86,4.24,1.93,6.86,4.73,9.15,2.55,2.07,5.53,1.83,8.38.2,8.31-4.73,13.26-11.43,12.12-21.4a217.36,217.36,0,0,0-3.26-22.05c-1.74-7.83-9.75-12.08-17.42-9.86-4,1.14-6.35,4.22-7.85,7.8a79.8,79.8,0,0,0-4,11.72A207.62,207.62,0,0,0,79.89,318a21.93,21.93,0,0,1-1,4.16c-1.93.31-4.54-.69-4.84,2.67q-.5,5.38-1.17,10.74C72,343.27,74.35,350.18,77.73,356.86ZM67.69,256a14.09,14.09,0,0,0,4.91,8.84c3.08,2.79,5.48,2.64,7.91-.66a91.12,91.12,0,0,0,5.44-8.3,14.68,14.68,0,0,0,1.89-5.08c.77-5.18-4.21-9.73-8.58-7.67s-8.37,4.8-10.44,9.49A32.59,32.59,0,0,0,67.69,256Zm23.62,67.37c.7.76.94,1.28,1.32,1.41,15.09,5.06,28-1.23,32.69-16.4a8.23,8.23,0,0,0-2.13-8.89C119.92,317.27,107.48,322.61,91.31,323.36ZM76.74,280.47c-.52-4.37-2.59-7.5-6.15-8.58-2.7-.83-5.26.51-7.66,4.13a23.93,23.93,0,0,0-2.15,3.9c-1.73,4.08-1,6.67,2.52,9.46,1.15.92,2.11,2.08,3.26,3,2.41,2,5.3,1.6,6.57-1.25C74.65,287.73,75.56,284,76.74,280.47Zm-19.1,26.71a21.89,21.89,0,0,0,0,3.76,2.76,2.76,0,0,0,3.65,2.37c5.39-1.23,7.93-8.29,4.58-12.7-2-2.67-4.82-2.71-6.34.26C58.47,303,58.12,305.53,57.64,307.18Zm-2.2,24.93c0,3.1.94,4.9,3.23,5.77a5.06,5.06,0,0,0,6-2.21c1.69-2.6,1.06-7.53-1.21-9.58a3.71,3.71,0,0,0-5.91.79A30.3,30.3,0,0,0,55.44,332.11Zm52.29-15.65c-6.39-.69-12,2.21-17.79-.17C93,321.23,100.47,321.4,107.73,316.46Z" fill="#c48c44"/><path d="M374.22,287.23c.72-3.13-.3-5.3-3.1-7.07-2.48-1.57-4.42-4-6.86-5.61a13.17,13.17,0,0,0-5.4-2.06c-9.79-1.4-19.6-2.78-29.44-3.76-2.85-.28-5.82.91-8.76,1.21-.93.09-2.59-.26-2.79-.81-.58-1.64.78-2.34,2.18-2.55a52.6,52.6,0,0,1,8.34-1c5.44.05,10.88.62,16.32.73,6.6.14,13.21,0,20.05,0,.9-3,1.72-5.81,2.75-9.3a24.68,24.68,0,0,0-4.92-.17c-7.78,1.37-15.39.56-23.14-.66a74.52,74.52,0,0,0-17.79-.29c-9,.78-18,2.36-27,3.46a32,32,0,0,1-7.45,0c-23.41-2.79-46.93-1.63-70.4-1.87-6.51-.07-13.17-.83-20.19,1.39,6.08,3.34,11.66,6.29,18.32,6.68,7.58.44,15.14,1.18,22.71,1.76a8.68,8.68,0,0,0,3-.07c5.71-1.63,11,.67,16.48,1.52.17,0,.27.51.61,1.21-4.28,1-8.42.14-12.56,0-9.09-.26-18.19-.31-27.28-.41a4.09,4.09,0,0,0-1.89.52c-4.26,2.36-8.91,2.57-13.53,2.14a36.37,36.37,0,0,1-8-2.1c-3-1-5.81-2.32-8.76-3.38-.4-.14-1.08.48-1.63.75-.92-1.87-2.39-3.68-2.62-5.63-.42-3.52-2.53-4.41-5.4-4.5-3.59-.13-7.19-.06-10.79,0l-12.75.09c-4.28-2.11-8.87-2.66-13.56-2.7-.34-2.11-.68-4.22-1.11-6.82,3.08-.82,6.16-.44,9.19-.26,3.62.22,7.24.59,10.86.88,3,.24,5.92.52,8.88.65,1.81.07,3.63-.13,5.44-.18,4.46-.13,9-.75,13.37-.27a198.91,198.91,0,0,0,27.7,1.54c7.56-.22,15.13-.56,22.7-.67,3.29,0,6.58.4,9.88.51,3.47.12,7,.27,10.42.1,9.41-.45,18.81-1.53,28.21-1.53,22.19,0,44.37.69,66.56.74,6.74,0,13.47-1.13,20.21-1.75.33,0,.66-.11,1-.11h30.4c1.12,4.4.49,8.31.24,12.2-.07,1.15-.37,2.28-.55,3.42-1.15,7.27,2.64,9.72,8.58,10.9,6.2,1.24,12.51.42,18.64-1.17,2.48-.64,3.34-2.28,3.5-5.88.28-5.93.55-11.85.84-18.2h7.65c1.66,6.63-.78,13-1.24,19.53s-.82,12.82-1.25,19.55a21.94,21.94,0,0,1-4.15.29c-6.22-.77-12.41-1.86-18.65-2.46a85.76,85.76,0,0,0-11.89-.08C394.33,286.14,384.28,286.72,374.22,287.23Zm9.52-31.71c-7,0-10.42,2.94-10.47,9a10.48,10.48,0,0,0,10.46,10.84c5.55.05,9.65-3.62,9.28-9.28C392.53,258.48,390.66,255.23,383.74,255.52Z" fill="#5e4953"/><path d="M57.19,371H68.74c.13,1.34.33,2.45.33,3.55q-.09,28.54-.25,57.1c-.07,11.49-.37,23-.41,34.48-.12,35.9-.13,71.79-.28,107.68,0,5.1-.74,10.2-.93,15.31-.38,10.06-.74,20.12-.89,30.19-.14,9.76,0,19.53,0,29.29a44.86,44.86,0,0,1-.51,4.88c-1.54.19-1.61,1.33-1.72,2.53-.33,3.77-.73,7.54-1.1,11.31-3.12,0-2.73,2.26-2.66,4.21.15,4.13.56,8.25.55,12.37,0,3.16-.61,3.47-4.72,3.63,0-4.76.11-9.52,0-14.27-.27-9.57-.78-19.14-1-28.71a62.65,62.65,0,0,1,.73-13.29c2-10.31,2.38-20.67,2-31.09a53.34,53.34,0,0,0-1.13-6.92l-1,.07-.8,2.2c-2.16-6.68.13-13.14,1-19.68.56,1.47.71,3.4,1.76,4.31,2.11,1.82,4.79.39,5.86-2.95,1.92-6,1-12-.11-18,0-.23-.49-.38-.75-.56-2.73,5.81-2.86,12-2.87,18.32-2.56-3.9-1.52-8.19-1.45-12.35.15-9.55.37-19.1.45-28.65a15.75,15.75,0,0,0-1-3.81A6.44,6.44,0,0,1,56,526.78c.12-4,0-7.95,0-11.92,6.86.49,9.17-1.5,8.93-8.22-.18-4.76-.77-9.51-1.24-14.25,0-.33-.64-.6-1.94-1.74-.4,6.89.72,13-.34,18.91-2.82,1.15-3.2-.4-3.47-2.5-1.21-9.23.26-18.39.54-27.58.22-7.58.47-15.16.63-22.74,0-1.42.16-3.14-2-3.26a17.11,17.11,0,0,1-.94-3.57c-.15-2.73-.06-5.48-.06-8.22,1.12.22,2.23.52,3.36.66,3.78.45,6.24-.91,6.93-4.63a45.8,45.8,0,0,0-.26-18.58c-.57-2.55-2.06-2.65-4-1.46l-1.82-.1c-.06-1.81-.14-3.61-.15-5.41q0-10.83,0-21.67c0-2.23-.1-4.39-3-4.72Z" fill="#855749"/><path d="M159.6,1035.16c.33,1.88.18,4,1.08,5.57a17.34,17.34,0,0,1,2.8,9.37c-.15,4.37,1.76,7.14,5.79,8.79,7,2.88,13.87,5.93,20.89,8.95-8.43.28-16.88.85-24.91-3.19l-1,1.63c.86.39,1.72.8,2.59,1.17,6.23,2.67,12.32,5.77,18.74,7.85a56.73,56.73,0,0,0,15.06,2.45,179.7,179.7,0,0,0,34.13-1.81,16.94,16.94,0,0,1,4-.16c11,.91,22,2.08,33,2.79,14.34.92,28.47,3.87,43,3.31,12.07-.47,24.18,0,36.26.17,10.25.16,20.5.54,30.75.87,2.53.08,4.55-.48,5.36-3.24-1.05-2.58-3.28-1.77-5.13-1.78-11.26,0-22.52,0-33.79,0-3,0-5.89-.26-8.33-2.32.39-2.72,2-3.54,4.2-3.48,4.95.13,9.91.43,14.86.44,9.92,0,19.84,0,29.75-.27,3.06-.09,6.09-1,9.13-1.61,0,2.12.28,4.31-.16,6.34-1.06,4.82-2.47,9.57-3.85,14.76-4,0-8.1.26-12.17-.06-7.73-.59-15.43-1.51-23.14-2.29-1.48-.14-3-.32-4.44-.37-12-.42-24.1-.77-36.15-1.25-15.52-.62-31-1.39-46.54-2q-14.59-.6-29.22-1c-13.05-.34-26.11-.53-39.16-.87-4.12-.12-8.24-.86-12.34-.75-8.74.24-17.48.88-26.22,1.27a44.75,44.75,0,0,1-5.54-.43c-.15-1.63-.37-2.9-.37-4.18-.05-13.9-.09-27.8,0-41.7C158.46,1037.11,159.2,1036.14,159.6,1035.16Zm9,38.64c-1.19-1.43-2.14-3.34-4.81-2.44.67,3,2.87,2.43,4.68,2.58.37.24.72.47,1.1.68a2.62,2.62,0,0,0,.27-.33Z" fill="#5e4953"/><path d="M67,760c-9.94,19.9-28.31-2.31-18.06-34.07.09-2,.17-4,.25-6v0c2.9,1.79,4.82,5.62,9.17,4.6-.26-3-5.14-3.08-4-6.88l4.44.73.62-.91a18.42,18.42,0,0,0-3-3.34,4.68,4.68,0,0,1-2.25-4.57c.09-1.64,0-3.29.12-4.94.22-4.58.47-9.15.71-13.73l7.59-.27c.17,1.8.44,3.59.49,5.38.26,8.91,2.75,19.28,3,29,1.28-1.75-.31-4.18.4-5.14" fill="#8b5a4b"/><path d="M67.39,756.89c-.17-4.27-4.21-18.62-4.39-22.89" fill="#8b5a4b"/><path d="M509.85,703.19c-1.35,1.85-2.67,3.77-5.79,3.74a30.9,30.9,0,0,1-.4-3.8c.17-14.73.48-29.46.56-44.18q.16-31.53.07-63c-.11-34.11-.36-68.22-.45-102.32,0-4.78.5-9.56.82-15h7.72c.08,2,.13,4,.25,6,.62,10.19,1.34,20.39,1.82,30.59.12,2.6-.74,5.23-.8,7.85-.39,19.35-.69,38.7-1,58-.08,4.41.34,8.78.18,13.22-.73,20.83-.81,41.68-1.26,62.52-.13,6.25-.82,12.5-1,18.75C510.19,684.71,510.06,694,509.85,703.19Z" fill="#885749"/><path d="M54.93,690.93c-.24,4.58-.49,9.15-.71,13.73-.08,1.65,0,3.3-.12,4.94a4.68,4.68,0,0,0,2.25,4.57,18.42,18.42,0,0,1,3,3.34l-.62.91-4.44-.73c-1.12,3.8,3.76,3.87,4,6.88-4.35,1-6.27-2.81-9.17-4.6,0-7-2.1-18-2.19-25-.28-22.28-1-40.72-1-63,0-6.7,3.73-13.13,4.34-19.84.37-4.09.58-8.21.55-12.32,0-3.28-.74-6.55-.74-9.83q0-65.57.09-131.12c.06-19.13.65-38.26.74-57.4,0-9.19-.52-18.39-.8-27.59,0-1,0-1.95,0-2.9h7l-.09,14.78c-.65,3.85-1.71,7.69-1.87,11.57-.3,7.56,0,15.15-.15,22.72-.1,4.75-.49,9.49-.91,14.23a9.76,9.76,0,0,0,2,7.39c0,2.74-.09,5.49.06,8.22a17.11,17.11,0,0,0,.94,3.57c-1,7.15-2.49,14.27-2.85,21.45-.5,9.91-.29,19.87-.05,29.8.09,3.39,1.2,6.75,1.84,10.13,0,4,.08,7.95,0,11.92a6.44,6.44,0,0,0,1.86,5.34c-3,.58-2.75,3-2.72,5.06.19,12.89.51,25.77.78,38.66-.82,6.54-3.11,13-1,19.68-.25,2.78-1.1,5.65-.66,8.31a59.55,59.55,0,0,1-1.41,25A60.61,60.61,0,0,0,51.39,641c-.14,3.1.62,6.23.66,9.34.12,9.61,0,19.21.16,28.81a81.5,81.5,0,0,0,1.07,10.32C53.35,690,54.35,690.45,54.93,690.93Z" fill="#462d26"/><path d="M516.55,1023.16c4.54-3.56,4.91-9.33,7.44-14,.53-1,1-2,1.48-3,5.12-3.06,10.17-6.24,14.16-10.77.51-.58.43-1.82.38-2.74a31.4,31.4,0,0,0-.63-3.57l1-.52c1.49,1.89,3.27,3.61,4.4,5.69,1.63,3,.94,4.95-1.86,7.2a2.37,2.37,0,0,0-.4.28c-7.25,8.19-16.86,14.71-19.16,26.43-1.11,5.66-1.86,11.39-2.72,17.09-.8,5.22-1.62,10.43-2.26,15.67a115.37,115.37,0,0,0,.39,33.09,11.13,11.13,0,0,0,2.74,5.13c3.76,4.29,3.53,10-1.77,13.62q-8.58,5.9-17.16,11.77c-7.67,5.23-15.73,4.2-23.66,1-7.19-2.93-14.19-6.35-21.24-9.62a9,9,0,0,1-3.24-2.22c-6.33-7.69-14.71-10.89-24.43-12.11,4.52-.32,9-.61,13.55-1,1.75-.14,3.48-.52,5.22-.79,7.32,2.2,14.6,4.54,21.13,8.68,0,.54-.32,1.37-.09,1.56,3.59,2.89,7.16,5.82,10.9,8.49,4.36,3.12,8.72,2.22,13-.48,1.38-.88,2.81-2.12,4.31-2.26,5.9-.55,10.3-4.29,15.28-6.77,3.64-1.81,5.15-5,4.17-9.11-.66-2.71-1.55-5.37-2.26-8.07-.59-2.21-1.17-4.44-1.59-6.69-.69-3.71-1-7.5-1.93-11.14-.87-3.42-1.57-6.65-.41-10.19a9.47,9.47,0,0,0,.07-5.38c-1.22-3.93,0-7.44.95-11.13,1.85-7.5,3.47-15,5.11-22.61C517.49,1024.3,516.85,1023.7,516.55,1023.16Z" fill="#654923"/><path d="M45,309.08q-.51,6.15-1,12.3a6.75,6.75,0,0,0-.79,1.74c-.69,5.22-1.33,10.45-1.95,15.69a65.38,65.38,0,0,0-.81,8.34c0,4.61.47,9.21.74,13.82l0,0-2.7-.43c-.07-1.49-.09-3-.21-4.41-.62-7.72-1.61-15.43-1.82-23.16-.26-9.56-.12-19.16.27-28.72.54-13.11,4.57-25.62,7.75-38.2,2.33-9.18,5.44-18.45,12.65-25.4a28.66,28.66,0,0,1,6.07-5c8.17-4.25,16.63-6.93,26.15-5.26,7,1.22,14.07,1.54,21.1,2.36a13.64,13.64,0,0,1,9.52,5.69c5.09,6.75,9.67,13.7,10.42,22.54.41,4.74,1.42,9.43,2.1,14.15.05.4-.37.87-.57,1.3-1.5-3.77-3.09-7.5-4.47-11.32-2.56-7.08-7.33-12.5-13.13-17-2.14-1.64-5-2.45-7.66-3.31-5.31-1.73-10.74-3.09-16-4.91-2.42-.83-4.63-1.55-7.16-.61a17.92,17.92,0,0,1-3.89.7c-7.11.93-12.41,4.83-16.89,10.15a10.89,10.89,0,0,1-2.37,1.62c-.24-2.87,1.09-5,3-7,4.14-4.47,9.3-7.29,14.94-9.7-1.91-.42-4-.95-5.56-.33-7.39,2.89-12.94,7.71-15.38,15.64a29,29,0,0,1-3.38,7c-2.53,3.9-5,7.74-5.76,12.49-1.27,7.8-2.47,15.64-4.25,23.34A27.19,27.19,0,0,0,45,309.08Z" fill="#654923"/><path d="M502.55,248.5c-.47-.58-.92-1.61-1.43-1.65a33.56,33.56,0,0,0-5.93.13,61,61,0,0,1-21.46-1.23,10.31,10.31,0,0,1-8.19-10.2c.28.14.78.45.82.39,4.74-5.88,4.29-8.81-2-13-.53-.36-1-.8-1.53-1.21a33.82,33.82,0,0,0-3.68-.86c-1.64-.2-3.3-.17-4.95-.3-.26,0-.49-.34-1.25-.89a18.69,18.69,0,0,1,13.77-1.22c.93.28,1.73,1.18,2.65,1.28,5.16.58,6,4.27,6.33,8.43a53.39,53.39,0,0,0,1,8.32c1,3.9,2.81,5.1,6.68,5.3,5.75.3,11.48.18,17.23.08,10-.19,20.07,1.11,30.09,1.87a7.16,7.16,0,0,1,3.25,1.13c5.2,3.44,11.06,5.2,17.07,6.33,2.94.55,4,2.06,5,4.58,2.05,4.85,4.69,9.45,7,14.18,3.63,7.33,5.39,15.1,6.48,23.22a48.9,48.9,0,0,1-1.46,21c-1,3.23-2.76,6.22-4.18,9.31.44-5,.89-10.05,1.29-15.08a20.72,20.72,0,0,0-1.82-10.54c-1.59-3.48-2.57-7.25-4-11.56-.63,1.23-.85,1.64-1.06,2.06-.26-.41-.73-.81-.76-1.23-.8-10.7-5.87-19.16-13.88-25.92-11-9.27-23.28-14.88-38.13-12.68A18.43,18.43,0,0,1,502.55,248.5Z" fill="#654923"/><path d="M509.51,939.08l-8.59-.64a12.39,12.39,0,0,1-.25-2.33c.54-7.07,1.18-14.13,1.67-21.21.18-2.63,0-5.28.05-7.93q.17-69.21.35-138.43c0-1.13.19-2.25.33-3.81h4.47a21.84,21.84,0,0,1,.94,3.83c.74,11.51,1.7,23,2,34.55.2,8.83-.66,17.68-.74,26.53-.15,15.84-1.07,31.65-1.85,47.47-.61,12.5.35,25.09.89,37.62.24,5.74,1.31,11.45,1.67,17.18C510.57,934.28,509.84,936.69,509.51,939.08Z" fill="#885749"/><path d="M67.46,847.92a34.15,34.15,0,0,1,.59,4.35q.08,35.15,0,70.31a35.6,35.6,0,0,1-.55,4.33A22.18,22.18,0,0,1,67,924c-.38-7.93-.66-15.87-1.09-23.8-.11-2.1-.61-4.18-.93-6.27-2.13,23.34-1.3,40.92,1.75,51.39.32-2.88.65-5.79,1-8.71V953.8c-3.32,1.32-6.39,2-9.65.76,0-7.21-.1-14.42,0-21.63.12-6.4.51-12.79.79-19.18.61-11.07-.22-22.23,2.15-33.28,2.81,3,1.35,7,2.84,10.38a83,83,0,0,0,3-11.78c.28-1.61-.78-3.26-2.51-3-2.79.44-6.05.39-7.45,3.75l-1.44,6c-.5-4.71-.4-9.42-.52-14.11-.2-8-.56-16.07-.78-24.1a7.36,7.36,0,0,1,.73-2.26q.17,3,.32,6c3.55-14.28,3.53-28.88,5.6-43.34A13.92,13.92,0,0,1,62,813c.36,4.39.69,8.78,1,13.17q.57,13,1.15,26,.38,2.92.73,5.87l.42,4.78c.88-3.9.78-7.7.93-11.49C66.28,850.19,67,849.06,67.46,847.92Z" fill="#8b5a4b"/><path d="M519.56,714l7.89-3.63c.06.82.11,1.64.16,2.46.32,4.7,3.88,9.42-.12,14.14-.42.49-.08,1.61-.13,2.43-.08,1.29-.19,2.58-.26,3.59-3.32,2.73-3.62-2.2-6.29-1.8-3.52,5.84-1.52,12.79-2.72,19.12-3.27-.14-6.37-2-9.69,1.46,1.93.46,3.25.8,4.58,1.07s2.69.17,3.8.72c6.8,3.37,6.78,3.41,13.31,3.55-2.51,1.52-4.07,2.5-5.66,3.4-.95.54-2,1-2.95,1.44-6.35-6.46-14.32-5.26-22.15-4.66-1.73.14-3.45.43-5.56.7-.37-2.92-.7-5.33-1-7.74-.06-.49-.18-1.17.08-1.45,4.46-4.9,2.4-10.9,2.87-16.47.07-.82-.07-1.66,0-2.47.27-2.11,1.15-3.68,3.46-4.25a19.54,19.54,0,0,0,3.5-1.65c1.51-1.43,2.82-3.25,4.58-4.21C511.27,717.58,515.46,715.86,519.56,714Z" fill="#c48c44"/><path d="M58.91,913.75c-.28,6.39-.67,12.78-.79,19.18-.14,7.21,0,14.42,0,21.63H52.4c-.11-2.17-.24-3.78-.25-5.39,0-7.45.08-14.89-.07-22.34-.25-12.21-.7-24.42-1-36.63-.36-14.19-.66-28.39-1-42.59-.28-12.38-.74-24.76-.8-37.14,0-7.91.74-15.82.73-23.73,0-9.73-.47-19.45-.74-29.17l1.94-1.84,6-2.24.12.12-1.19,2.14c-.94.61-1.25,1.22,0,1.83l2.13.85c-1,1.27-1.88,2.21-2.58,3.27a6.89,6.89,0,0,0-1.51,3c-.42,7.38-.87,14.76-.9,22.15,0,5.57.6,11.14.83,16.71.15,3.6.11,7.21.16,10.82,0,3.39-.19,6.79-.09,10.18a46.05,46.05,0,0,0,.83,5.56q0,7.62-.07,15.24a7.36,7.36,0,0,0-.73,2.26c.22,8,.58,16.06.78,24.1.12,4.69,0,9.4.52,14.11l1.44-6c0,1.82.14,3.64.08,5.45-.28,8.23-.76,16.45-.85,24.68,0,3.51.69,7,1.06,10.53l.41-.1Z" fill="#48322a"/><path d="M368.19,1101.34v-7.08c8.6.49,16.62,1,24.64,1.37,2.3.11,3.32,1.11,3.28,3.35a14.7,14.7,0,0,0,2.09,8.52c1.43,2.22,3.35,3.83,6,4,7.58.42,15.21,1.24,22.74.74a80.22,80.22,0,0,1,15.68.93,19.2,19.2,0,0,1,9,3.8c2.61,1.89,5.21,3.8,8.75,6.37-3,.17-4.93.37-6.83.37-16.87,0-33.74,0-50.61-.16a33.93,33.93,0,0,1-5.75-1c-5.74-4.55-9-10.72-11-17.56-.76-2.53-2.13-3.31-4.63-3.29C377.06,1101.72,372.63,1101.47,368.19,1101.34Z" fill="#5e4953"/><path d="M509.85,703.19c.21-9.24.34-18.48.66-27.71.21-6.25.9-12.5,1-18.75.45-20.84.53-41.69,1.26-62.52.16-4.44-.26-8.81-.18-13.22.34-19.35.64-38.7,1-58,.06-2.62.92-5.25.8-7.85-.48-10.2-1.2-20.4-1.82-30.59-.12-2-.17-4-.25-6l5.67-.3a31.92,31.92,0,0,1,.37,4.19c-.2,4.77-.73,9.53-.74,14.3-.1,29.78,0,59.56-.16,89.34-.07,12.38-.26,24.79-1.07,37.13-1.63,24.62-.49,49.25-.91,73.87,0,1,0,2,0,3.32Z" fill="#48322a"/><path d="M509.51,939.08c.33-2.39,1.06-4.8.91-7.17-.36-5.73-1.43-11.44-1.67-17.18-.54-12.53-1.5-25.12-.89-37.62.78-15.82,1.7-31.63,1.85-47.47.08-8.85.94-17.7.74-26.53-.27-11.53-1.23-23-2-34.55a21.84,21.84,0,0,0-.94-3.83c6,.24,8.1,2.29,8,8.1-.32,24.83-.15,49.68-1.19,74.47-1.25,29.47-.35,58.94-.81,88.4,0,1.45-.13,2.9-.22,4.92Z" fill="#48322a"/><path d="M464.26,1140.73a84.47,84.47,0,0,1-46.38,9.64c-8.76-.65-17.92-1.73-25.27-7.62-2.69-2.14-5-4.76-7.47-7.16a29.46,29.46,0,0,1,4.55-1.08c3.26-.28,6.54-.33,9.82-.48a49.32,49.32,0,0,1,5.45,4.7c2.89,3.3,5.54,3.53,8.65.36,1.36-1.38,2.77-2.72,4.16-4.08,6.31,2.25,13,1.43,19.45,2.19,1.6.8,3.16,1.72,4.82,2.38,2.7,1.08,5.37,1.45,7.72-.95.4-.41,1.23-.39,1.87-.57,2.36.48,4.73,1,7.09,1.44C460.57,1139.89,462.42,1140.32,464.26,1140.73Z" fill="#b2889c"/><path d="M68,1094.76l19-.9c5.75,1.27,11.49,2.57,17.24,3.79,2.9.62,5.81,1.24,8.75,1.6a15.59,15.59,0,0,1,8.93,3.58c1.65,1.42,4.58,1.6,7,1.84,4.89.49,9.8.65,14.7,1.3a56,56,0,0,1-22.27,1.11c-7.17-1-14.32-2.23-21.47-3.39-9-1.48-18.06-.18-27.08,0-4.12.07-8.22.61-12.33.82-11.27.58-25.83-9.17-26.42-19.58l.27-.23c1.85,1.53,4.55,2.71,5.4,4.68,2.48,5.71,7,7.6,12.54,8.09a55.73,55.73,0,0,0,10.88.09C64.88,1097.37,66.42,1095.74,68,1094.76Z" fill="#654923"/><path d="M56.12,755.75l1.19-2.14c0-.14.08-.28.11-.42l-.23.3-6,2.24-1.77-.05c.1-4.53,3.31-7,6.65-8.87,2.74-1.51,6.09-1.9,9.17-2.79a18.5,18.5,0,0,1,.12,2.35c-.33,6.39-1,12.77-1,19.16,0,13,.4,26,.62,39-3.31-2-5.55,0-7.76,2-2,2.38-.83,5.21-1.07,7.83l-.18,0-1.74,0c-.05-3.61,0-7.22-.16-10.82-.23-5.57-.86-11.14-.83-16.71,0-7.39.48-14.77.9-22.15a6.89,6.89,0,0,1,1.51-3c.7-1.06,1.57-2,2.58-3.27l-2.13-.85C56.11,757,56.12,756.36,56.12,755.75Z" fill="#8b5a4b"/><path d="M27.86,1046.72c1.48,1.93,3,3.82,4.43,5.78a60.49,60.49,0,0,0,17.5,16.57,5.41,5.41,0,0,1,2.49,2.83l-7.39-2c1.35,3.75,3.48,5.86,7.06,6.85,9.32,2.57,18.58,5.36,27.53,8-8.9.89-18.11-.72-27.67-1.18l6.91,4c-2.85,2.64-3.65,2.77-10.17,1.62-.06.78-.12,1.53-.17,2.28-2.1.69-3-.88-3.93-2.2-4.11-5.76-8.12-11.59-12.28-17.31a21.57,21.57,0,0,1-3.91-12C28.06,1055.52,28,1051.12,27.86,1046.72Z" fill="#6f4f26"/><path d="M521.48,761.92c1-.47,2-.9,2.95-1.44,1.59-.9,3.15-1.88,5.66-3.4-6.53-.14-6.51-.18-13.31-3.55-1.11-.55-2.53-.46-3.8-.72s-2.65-.61-4.58-1.07c3.32-3.45,6.42-1.6,9.69-1.46,1.2-6.33-.8-13.28,2.72-19.12,2.67-.4,3,4.53,6.29,1.8.07-1,.18-2.3.26-3.59,0-.82-.29-1.94.13-2.43,4-4.72.44-9.44.12-14.14-.05-.82-.1-1.64-.16-2.46l4.36-6.21c3.29,13.44,3.15,52.9,0,60.24a80.91,80.91,0,0,1-8.25-.11C522.77,764.18,522.16,762.74,521.48,761.92Z" fill="#6f4f26"/><path d="M368.19,1101.34c4.44.13,8.87.38,13.31.34,2.5,0,3.87.76,4.63,3.29,2,6.84,5.27,13,11,17.56-7.72-.18-15.43-.31-23.14-.55-4.9-.16-5.27-.76-5.41-5.44s-.63-9.15-1-13.72c.11-.42.23-.84.34-1.26Z" fill="#b2889c"/><path d="M448.09,253.48c.6-.2,1.6-.27,1.72-.64a29.23,29.23,0,0,1,2.91-7.21l-1.44,23.88.71.17c.63-2.64,1.67-5.27,1.76-7.94.11-3,1-5.09,4-6.42,1.19,5.17,2.33,10.22,1.58,15.6-.48,3.42-.19,6.94-.46,10.4a18.1,18.1,0,0,1-1.21,5.23,2.87,2.87,0,0,1-2.2,1.55,2.8,2.8,0,0,1-2-1.81c-.51-2.56-.67-5.18-1.61-7.94-1,4.95-1.87,9.91-2.92,14.84-.29,1.33-.69,3.13-1.65,3.72-1.75,1.08-2.39-1-3.35-2a6.82,6.82,0,0,0-1.21-.83q.6-2.88,1.22-5.78A183.33,183.33,0,0,0,448.09,253.48Z" fill="#6f4f26"/><path d="M407.46,295.89c-8.15,1.14-16.3,2.25-24.43,3.44-1.75.25-3.47.76-5.28,1.18.52,5.91,1,11.45,1.51,17-4.12.57-4.12.57-5-2.47-.67-2.38-1.16-4.83-2.06-7.12-1.37-3.5-.31-6.88.3-10.23a4.09,4.09,0,0,1,2.65-2.38,69.5,69.5,0,0,1,9.19-1.83c7.83-1.08,15.68-2,23.54-3a13.22,13.22,0,0,1,4.44.12c8.06,1.91,16.16,3.31,25.31,2.61-2.95,2.81-5.67,1.82-8.3,1.73q-10.12-.36-20.28-.48C408.54,294.49,408,295.4,407.46,295.89Z" fill="#654923"/><path d="M65,804.49c-.22-13-.6-26-.62-39,0-6.39.67-12.77,1-19.16,0-.78-.07-38.57-.12-39.35l1.62.06c.17,4.27.35,45.54.52,49.81-.12,2.8-.62,5.64-.32,8.39,1.86,16.66.77,33.35.7,50,0,.37-.06.75-.1,1.12L67.43,826c-1.58,2.93-1.78,9.08-.38,12.29,0,.11.28.14.43.21,0,3.14,0,6.28,0,9.42-.43,1.14-1.18,2.27-1.23,3.43-.15,3.79,0,7.59-.93,11.49l-.42-4.78q-.36-2.92-.73-5.87-.57-13-1.15-26l.21-1.77.62-3.25Q64.41,812.82,65,804.49Z" fill="#e3ac90"/><path d="M423.07,222.77c-.23.23-.42.55-.7.66-6.07,2.41-5.95,2.41-6.17,8.71-.25,6.89-.61,13.79-1.19,20.67-.24,2.75-1.4,5.41-1.78,8.16a44.1,44.1,0,0,0,0,6.4h-5.8c1.36-16,.3-31.81,4.5-47.13Z" fill="#654923"/><path d="M247.88,1037.26c.12,2,1.71,1.64,2.94,1.7,10.56.45,21.13.82,31.69,1.33,3.19.16,6.35.7,9.52,1.07l0,1.36c-2.64.37-5.29,1.09-7.92,1-7.27-.12-14.54-.45-21.79-.92s-14.46-1.29-21.7-1.81c-5.75-.42-11.51-.56-17.26-.93-2.62-.17-5.22-.66-7.83-.87s-5.52-.28-8.28-.38c-1.23,0-2.46,0-3.91,0l6-2.61a56.05,56.05,0,0,1,7.4-.48c7.1.44,14.18,1.13,21.26,1.72,2.08,1,4.15,1.51,6.2-.08Z" fill="#f6f1f3"/><path d="M497.74,412.67c.46,3.12,2.14,4.46,5.34,5.41,6,1.8,12,1.48,18.11,1.58,2.63,0,5.28,0,7.29,2.12-5.07.23-10.18,1-15.2.56-7.67-.6-15.29-1.65-23.34-1.14.75-18.17,1.48-36.2,2.25-54.83a48.58,48.58,0,0,1,1,19.59c-.19,1.11-.44,2.52.06,3.37,2,3.41,1.15,7.09,1.5,10.67s1.23,7,1.89,10.56Z" fill="#654923"/><path d="M512.86,429.39h6.47c.5,11.07-1.4,21.59-.68,32.73h-8.23c.08-6.57-.1-13.16.31-19.71C511,438,512.12,433.73,512.86,429.39Z" fill="#48322a"/><path d="M455.88,322.34c3.05-2.77,3.44-2.59,5,.7,3.32,7.09,8.83,12.21,15.34,16.33,7.53,4.77,15.5,8.54,24.34,10.28-10.72,1.08-20.67-.86-29.67-6.94a23.73,23.73,0,0,0-3.95-1.73l0,0-1.46-1.85-8.77-14.55c-.23-.54-.46-1.09-.68-1.63l-.13-.31Z" fill="#f8f38d"/><path d="M350.43,1038.13c0,.16,0,.43.1.47,4.57,2.42,9.89,4.2,14.5,2.79,6.47-2,12.33-1,18.44.3l3.88.83c-.25,2-1.75,2.37-3.22,2.41a30.65,30.65,0,0,1-5.41-.39,31.2,31.2,0,0,0-12.25.16c-3,.72-6.23.35-9.36.26-7.24-.22-14.47-.6-21.71-.85a40,40,0,0,1-7.74-.62c3.73-1.14,7.47-2.21,11.16-3.46.74-.25,1.26-1.15,1.88-1.75l3.72-.11.8.64.36-.67Z" fill="#f6f1f3"/><path d="M398.19,1060.75l-.84-4.86,7.49-.91c9.05-.23,18.09-.53,27.14-.66,2.58,0,5.67-1.77,7.51,1.68-8.64,0-16.74,3-25.08,4.75,4.29.07,8.52-.39,12.76-.56,2.58-.1,5.17.22,7.75.36-3.48.74-6.95,1.6-10.46,2.2a38.33,38.33,0,0,1-8.24.82,95.79,95.79,0,0,1-10-1.55l-7-1Z" fill="#8ff0b6"/><path d="M512.86,429.39c-.74,4.34-1.86,8.65-2.13,13-.41,6.55-.23,13.14-.31,19.71H505V427.94A14.73,14.73,0,0,1,512.86,429.39Z" fill="#855749"/><path d="M519.56,714c-4.1,1.89-8.29,3.61-12.25,5.75-1.76,1-3.07,2.78-4.58,4.21-2.92-1.64-5.52.67-8.5.58l-3.37-8.6c2.47.17,4.51.42,6.55.42s4,.22,5.72-.5c6.33-2.71,12.5-5.8,18.75-8.68a29.55,29.55,0,0,1,3.63-1.17h0c-1.72,1.89-3.48,3.73-5.11,5.7A7.69,7.69,0,0,0,519.56,714Z" fill="#654923"/><path d="M43.84,483.34v26.29" fill="#1e2849"/><path d="M74.82,1020.29c.13,2.53,2,2.66,3.87,2.83q10.57,1,21.14,2a20,20,0,0,1,2.91,1,25.06,25.06,0,0,1-3.88,2.07c-6.08,1.69-12.12.08-18.17-.4-.65,0-1.29-.47-1.92-.45-3.84.1-6.79-1.37-8.42-4.89-2.16-4.66-3.81-9.44-1.34-15l3.67,6.9Q73.76,1017.31,74.82,1020.29Z" fill="#f8f38d"/><path d="M66.4,719.86c-.71,1,.88,18.39-.4,20.14-.24-9.68-2.73-35-3-44,0-1.79-.32-3.58-.49-5.38a8.87,8.87,0,0,0,1.87-6.49c-.22-3-.28-5.95-.4-8.93-.28-2.38-.55-4.76-.83-7.14,0-.26-.12-.52-.19-.78.37-3.77.77-7.54,1.1-11.31.11-1.2.18-2.34,1.72-2.53,0,.89,0,1.78,0,2.67,0,.44,0,.88,0,1.31.19,2.89.38,5.77.56,8.66,0,2.71,0,5.41,0,8.12,0,1.6,0,3.21,0,4.81-.06,3.61-.18,7.21-.16,10.82,0,7.72.12,15.44.19,23.16C66.39,715.31,66.39,717.58,66.4,719.86Z" fill="#e3ac90"/><path d="M426.4,262.35c-2,1.57-3.65,1.31-4.48-1.24A32.18,32.18,0,0,1,420.6,244c1.26-5.77,7.41-10.64,14.75-5.79a16.11,16.11,0,0,0-3.33.86c-3.53,1.81-6.38,4.16-6.11,8.68.21,3.59.37,7.18.56,10.76C426.45,259.82,426.42,261.09,426.4,262.35Z" fill="#f8f38d"/><path d="M464.26,1140.73c-1.84-.41-3.69-.84-5.54-1.23-2.36-.49-4.73-1-7.09-1.44,3.9-6.35,9.62-9.3,17-8.46,1.92.21,3.69,1.75,5.9,2.87C472,1137.12,467.85,1138.61,464.26,1140.73Z" fill="#5e4953"/><path d="M77.73,356.86c-3.38-6.68-5.77-13.59-4.8-21.26q.67-5.36,1.17-10.74c.3-3.36,2.91-2.36,4.84-2.67,0,2.81.11,5.62,0,8.43C78.58,339.37,78.14,348.12,77.73,356.86Z" fill="#f8f38d"/><path d="M88.57,966.53c-9.28-2.21-18.09-.33-27,.18-5.27.31-10.72.43-15.94-2.16a20,20,0,0,1,3-.89c5.56-.7,11.13-1.37,16.7-1.93,1.8-.18,3.84-.53,5.42.09,4.94,1.95,10,1.94,15.16,1.84C87.45,963.63,89.07,963.59,88.57,966.53Z" fill="#654923"/><path d="M43.77,410.48v24.88" fill="#1e2849"/><path d="M67.73,936.63c-.33,2.92-.66,5.83-1,8.71-3-10.47-3.88-28.05-1.75-51.39.32,2.09.82,4.17.93,6.27.43,7.93.71,15.87,1.09,23.8a22.18,22.18,0,0,0,.52,2.89C67.6,930.15,67.67,933.39,67.73,936.63Z" fill="#e3ac90"/><path d="M43,964.88a51.64,51.64,0,0,1-6.12,3.83,15.19,15.19,0,0,0-9,10.4,23.75,23.75,0,0,1-2.19,5.29c-.45-4.44-.72-8.78.72-13.07,1.84-5.43,6.36-8.34,12.1-7.49C39.77,964,41,964.42,43,964.88Z" fill="#654923"/><path d="M44,443.05a43.07,43.07,0,0,1-2.93,8.34" fill="#654923"/><path d="M43.86,386.32v18" fill="#654923"/><path d="M437.22,1137.2c-6.48-.76-13.14.06-19.45-2.19.58-2.56,2-4.91,4.51-5.25,3.5-.47,7.34-.69,10.28,1.87C434.37,1133.19,435.69,1135.32,437.22,1137.2Z" fill="#5e4953"/><path d="M399.51,1134c-3.28.15-6.56.2-9.82.48a29.46,29.46,0,0,0-4.55,1.08c-1.89-2.13-4-4.09-5-7.62C387.77,1127.21,394.54,1127.5,399.51,1134Z" fill="#5e4953"/><path d="M96,1053c1.6-.76,3.14-1.84,4.83-2.21,3.72-.81,6.38.33,7.63,3.82a17.2,17.2,0,0,1,.84,8.19c-.63,3.81-5.47,4.49-10.16,1.28l7.36-2.47c.2-.64.41-1.43.69-2.18.89-2.36,0-4.28-1.68-5.8s-3.73-1.08-5.61-.27a25.1,25.1,0,0,0-3,1.81C97.06,1054.3,98,1053,96,1053Z" fill="#140f07"/><path d="M162.5,303.39l-8.3-2.7,36.79.85-3.88,2.84-1.69.07-7.21.06-7.69-.33-7.25-.69A1.08,1.08,0,0,1,162.5,303.39Z" fill="#f6f1f3"/><path d="M66.94,359.09h3.6l-2.1,3.24c-8.29.17-16.58.4-24.87.43-.79,0-1.58-1.19-2.37-1.83l0,0a60.32,60.32,0,0,0,7.36.08c5.83-.63,11.61-2,17.51-.52C66.21,360.57,66.64,359.59,66.94,359.09Z" fill="#654923"/><path d="M44.25,520.34c0,1.76,0,3.51,0,5.77" fill="#654923"/><path d="M192.29,1036.17l3.43,2.72c-6.67.37-12.86.48-19-1.09-.46-.12-.74-.94-1.1-1.44l4.43-.64,7.63-.13Z" fill="#f6f1f3"/><path d="M462.87,221.71c.51.41,1,.85,1.53,1.21,6.25,4.21,6.7,7.14,2,13,0,.06-.54-.25-.82-.39,1-4.34.83-8.39-2.72-11.66C462.83,223.16,462.85,222.44,462.87,221.71Z" fill="#140f07"/><path d="M66.38,713c-.07-7.72-.16-15.44-.19-23.16,0-3.61.1-7.21.16-10.82a28.26,28.26,0,0,1,.65,4.34c0,9.09,0,18.19-.06,27.28A10.64,10.64,0,0,1,66.38,713Z" fill="#855749"/><path d="M67.48,838.5c-.15-.07-.38-.1-.43-.21-1.4-3.21-1.2-9.36.38-12.29Q67.46,832.25,67.48,838.5Z" fill="#8b5a4b"/><path d="M497.74,412.67l-1.13-2.11.09-18.8a32,32,0,0,1,.94,5.16C497.78,402.17,497.72,407.42,497.74,412.67Z" fill="#6f4f26"/><path d="M44,450.6v5.6" fill="#48322a"/><path d="M398.19,1060.75l1,.31-.78,7.94C398.34,1066.25,398.26,1063.5,398.19,1060.75Z" fill="#5e4953"/><path d="M66.33,674.24c0-2.71,0-5.41,0-8.12C66.35,668.83,66.34,671.53,66.33,674.24Z" fill="#855749"/><path d="M187.71,1035.59l-7.63.13Z" fill="#b4899d"/><path d="M163.27,303.49l7.25.69Z" fill="#b2889c"/><path d="M178.21,304.51l7.21-.06Z" fill="#b2889c"/><path d="M49.19,719.94c-.08,2-.16,4-.25,6C47.94,723.89,47.52,721.87,49.19,719.94Z" fill="#462d26"/><path d="M244.2,1037.39c-2,1.59-4.12,1-6.2.08Z" fill="#b4899d"/><path d="M34.08,1084.93l-1.28-1.43.6-.43.94,1.63Z" fill="#654923"/><path d="M49.43,755.68l1.77.05-1.94,1.84C49.32,756.94,49.37,756.31,49.43,755.68Z" fill="#855749"/><path d="M465.44,339.15,466.9,341Z" fill="#c68e45"/><path d="M66.87,1094.14l1.16.61Z" fill="#654923"/><path d="M96.29,1056.1a.43.43,0,0,1-.45.54A1.57,1.57,0,0,1,96.29,1056.1Z" fill="#140f07"/><path d="M345.58,1038.14l-.36.67-.8-.64a4.14,4.14,0,0,1,.77-.27C345.3,1037.88,345.45,1038.05,345.58,1038.14Z" fill="#b4899d"/><path d="M368,1101.56c-.11.42-.23.84-.34,1.26C367.73,1102.4,367.85,1102,368,1101.56Z" fill="#5e4953"/><path d="M67.67,816.43c0-.37.07-.75.1-1.12C67.74,815.68,67.71,816.06,67.67,816.43Z" fill="#8b5a4b"/><path d="M525.51,706l.44-.5c0,.11,0,.26-.05.32a1.55,1.55,0,0,1-.39.18Z" fill="#654923"/><path d="M139.07,256.37l.36,1.28Z" fill="#5e4953"/><path d="M456,323c.22.54.45,1.09.68,1.63C456.44,324.06,456.21,323.51,456,323Z" fill="#c68e45"/><path d="M95.63,1057l-.72,1Z" fill="#140f07"/><path d="M65.79,657.46c0-.43,0-.87,0-1.31C65.78,656.59,65.79,657,65.79,657.46Z" fill="#855749"/><path d="M460,1042.71a9.43,9.43,0,0,0-1.95-1.39c-7.15-2.63-11.62-8-14.83-14.57-2.06-4.25-1.71-8.67-1-13.13.56-3.42,1-6.85,1.61-10.27a12.92,12.92,0,0,1,.89-3.83c3.82-7.15,8.49-13.51,16.88-15.71,5.43-1.42,10.87-2.58,16.64-1.77,10.25,1.43,17.12,7.44,23.44,15.14,6.14,7.48,5.19,16,5.35,24.48a5.43,5.43,0,0,1-.74,2.86c-3.87,5.93-7.42,12-14.11,15.57-8.35,4.41-16.9,6.59-26.27,4.43L463,1044h0Zm39.58-27.61c.33-4.82.14-9.09-2.84-12.66s-5.88-7.11-9-10.52a7.41,7.41,0,0,0-3.42-1.79c-3.8-1.07-7.72-1.75-11.47-3-9.79-3.17-21,5.78-22.94,15.16-1,4.81-1.42,9.75-1.95,14.64-.41,3.75.78,7.14,2.68,10.37,4.49,7.65,12,10.57,19.93,12.58a10.47,10.47,0,0,0,6.3-.55c6.34-2.79,12.57-5.68,17.38-11.13C497.81,1024.21,500.86,1020.39,499.57,1015.1Z" fill="#090704"/><path d="M516.55,1023.16c.3.54.94,1.14.84,1.59-1.64,7.56-3.26,15.11-5.11,22.61-.91,3.69-2.17,7.2-.95,11.13a9.47,9.47,0,0,1-.07,5.38c-1.16,3.54-.46,6.77.41,10.19.93,3.64,1.24,7.43,1.93,11.14.42,2.25,1,4.48,1.59,6.69.71,2.7,1.6,5.36,2.26,8.07,1,4.08-.53,7.3-4.17,9.11-5,2.48-9.38,6.22-15.28,6.77-1.5.14-2.93,1.38-4.31,2.26-4.24,2.7-8.6,3.6-13,.48-3.74-2.67-7.31-5.6-10.9-8.49-.23-.19.05-1,.09-1.56,4,2.27,8.06,4.52,12.07,6.81s7.63,1.8,11.57-.67c4.31-2.7,9.07-4.66,13.66-6.9,1.63-.8,3.31-1.5,5-2.17a3.39,3.39,0,0,0,2.29-4.35,67.82,67.82,0,0,0-2.55-6.93c-.77-2-2-3.88-2.33-5.93-.89-5.51-1.45-11.08-2.05-16.63-.16-1.47-.43-3.15.1-4.41,1.68-4,1-8.1.91-12.21a49.83,49.83,0,0,1,.75-8.34c.66-4.4,1.45-8.79,2.31-13.16C512.4,1029.76,513,1025.76,516.55,1023.16Z" fill="#140f07"/><path d="M478.67,972.81c5.14-.45,6.77-3.48,8.12-7.37a108.36,108.36,0,0,1,6-13,3.52,3.52,0,0,1,2.29-1.65c5.82-.8,11.17.37,15.68,4.34,1.27,1.12,2.47,2.55,1.19,4.29s-3,1.25-4.81.33a34.23,34.23,0,0,0-7.7-3.08c-2.7-.63-3.72.43-3.08,3.21.68,3-1,4.71-2.5,6.62-1.7,2.23-3.68,4.23-5.37,6.46C485.1,977.42,483.45,977.54,478.67,972.81Z" fill="#f8f38d"/><path d="M434.92,1060.55c-2.58-.14-5.17-.46-7.75-.36-4.24.17-8.47.63-12.76.56,8.34-1.8,16.44-4.7,25.08-4.75.24,1.36.91,2.82.63,4.07-.82,3.66-2,7.23-3.23,11.38a33.41,33.41,0,0,1,18.94,7.26l1.15,1.09-.05-.06,1.09,1-.06-.07,2.09,1.28a2.08,2.08,0,0,1,.7.62,6.87,6.87,0,0,1-2.29.87,20.73,20.73,0,0,1-3.61-.59l0,0-1.87-1.33-2.12-1-1-.76.08,0-2.06-1,0,0c-2.58-3.74-6.82-4-10.66-4.89s-3.95-.8-4.1-4.91Z" fill="#f6f1f3"/><path d="M436.52,1017.72c-2.27-3-2-6.37-1.35-9.26,1.81-7.48,3.37-15.14,8.84-21.18a40.14,40.14,0,0,1,18.66-11.57c1.34-.4,3,.14,4.47.25l.1,1a21.7,21.7,0,0,1-2.82,1.72c-8.75,3.62-15.51,9.89-22.05,16.47-1.73,1.74-2.7,3.24-1.87,6,.65,2.18.12,4.9-.49,7.22A98.11,98.11,0,0,1,436.52,1017.72Z" fill="#f8f38d"/><path d="M432.28,1023.14c.12,5.86-1.52,8.11-6.16,8.82-2.76.43-5.55.74-8.34,1-5.46.5-8.42,4.43-7.35,9.86.68,3.42.68,3.42-1.81,6.68-1.95-1.41-1.46-3.41-1.41-5.3a42,42,0,0,0,.06-6.24c-.76-6.06,1.56-9.4,6.74-10,3.59-.46,7.13-1.44,10.72-1.64C427.59,1026.11,430.18,1025.85,432.28,1023.14Z" fill="#f8f38d"/><path d="M454.85,1082.85a20.73,20.73,0,0,0,3.61.59,6.87,6.87,0,0,0,2.29-.87l3.67,1.46c3.47-2.92,7-5.63,8.69-9.94l2.78.29-1.9-6.75c7.17,6.62,7.06,8.65-.31,14.49a26.32,26.32,0,0,0-4.85,5.4c-2.21,3.09-3.36,3.5-6.33,1.33C459.88,1087,457.4,1084.86,454.85,1082.85Z" fill="#8ff0b6"/><path d="M460,1042.71l3,1.26c-3,.81-3.36,3.6-4.28,5.94-.16.48-.32,1-.49,1.44l.91-1.1c3-1.08,4.61-2.94,3.81-6.29l2.95.56c-1.37,3.43-2.73,6.86-4.32,10.85a39.09,39.09,0,0,1,3.3,2.79c1.76,1.82,3.38,3.78,5.07,5.68-5.58-1.7-9-5.89-12.16-10.5-2.29,1.76-1.7,3.7-.38,5.57,1,1.45,2.26,2.76,3.4,4.13-6.63-2.06-8.58-5.77-5.84-11.83A86.7,86.7,0,0,1,460,1042.71Z" fill="#8ff0b6"/><path d="M433.18,1069.09c.15,4.11.18,4,4.1,4.91s8.08,1.15,10.66,4.89a30.42,30.42,0,0,1-3.83-.71c-4.49-1.43-8.94-3-14.18-4.71Z" fill="#8ff0b6"/><path d="M460.79,1063c3,1.57,6.12,3,9,4.76a5.48,5.48,0,0,1,3,5.26Z" fill="#8ff0b6"/><path d="M453,1081.54l1.87,1.33Z" fill="#8ff0b6"/><path d="M460.05,1082l-2.09-1.28Z" fill="#8ff0b6"/><path d="M447.9,1078.86l2.06,1Z" fill="#8ff0b6"/><path d="M473.08,1066.67l-1.62-1.68Q472.26,1065.83,473.08,1066.67Z" fill="#8ff0b6"/><path d="M471.28,1064.89l-1.43-1Z" fill="#8ff0b6"/><path d="M449.88,1079.83l1,.76Z" fill="#8ff0b6"/><path d="M458,1080.74l-1.09-1Z" fill="#8ff0b6"/><path d="M457,1079.8l-1.15-1.09Z" fill="#8ff0b6"/><path d="M144.82,1043.55c-.16-4-.33-8-.51-12.39H120v-.45c5.91-1.34,11.79-2.76,17.72-4a20.65,20.65,0,0,1,6.85-.49c1.34.19,3.45,1.6,3.58,2.66.56,4.53,1.14,9.2-.84,13.6-.23.53-.89.88-1.35,1.31Z" fill="#f8f38d"/><path d="M152.53,257.5l12.75-.09c3.6,0,7.2-.08,10.79,0,2.87.09,5,1,5.4,4.5.23,2,1.7,3.76,2.62,5.63.12,3.28.49,6.58.3,9.85-.26,4.28-.86,8.55-1.5,12.79-.76,5-2.74,7-7.74,7.4-6.25.43-12.53.53-18.81.61a10.67,10.67,0,0,1-8.05-3.47c9.64-3.46,19-1.71,28.5-1.39,1.62-4.17,1.5-8.38,1.51-12.7-9.45.87-18.52,1-27.09-3.95,8.52-5.65,17.66-2.71,26.73-2.39V263c-9.37-1.59-19.46.88-29.64-3.43Z" fill="#0b0907"/><path d="M201,299.8c17.45-4.21,123.06-3.4,152.26,1.34-4.09.33-8.19,1-12.29.94q-30.79-.31-61.59-.93c-9.1-.17-18.19-.86-27.27-.71-9.25.14-18.48,1.27-27.73,1.49-5.26.13-10.54-.66-15.81-1.13C206,300.57,203.49,300.14,201,299.8Z" fill="#f6f1f3"/><path d="M502.55,248.5a18.43,18.43,0,0,0,3,0c14.85-2.2,27.14,3.41,38.13,12.68,8,6.76,13.08,15.22,13.88,25.92,0,.42.5.82.76,1.23l0,0,.11,1,.24,2.83,0,5.18A54.44,54.44,0,0,1,549.93,324c-14.68,22.81-42.42,24.84-58.29,17.38a127.39,127.39,0,0,1-12.2-6.64c-10.71-6.53-15.9-16.61-17.51-28.66-1.8-13.51,1.51-25.8,8.78-37.36a40.69,40.69,0,0,1,23.83-18.22C497.18,249.7,499.59,248,502.55,248.5Zm37.21,25a36.15,36.15,0,0,1-4.07-1.41c-1.17-.57-2.17-1.5-3.3-2.16-10.12-5.9-21.17-7.5-32.55-6.26a52.41,52.41,0,0,0-15.22,4.05c-6.76,3-11.55,8.76-16.54,14a9.17,9.17,0,0,0-1.86,4,37.15,37.15,0,0,0,.45,19.46,50.87,50.87,0,0,0,10.08,18.6c3.45,4.24,6.79,8.48,11.69,11.23,8.4,4.7,17.67,5.27,26.58,3.75,15.08-2.57,26.5-11.24,32.6-25.43,4.19-9.74,4.93-19.87-1.75-29.32-.89-1.26-1-3.07-1.48-4.62,3.35-1.43,1-2.45-.61-3.5l.63,3.51c-2.55-.85-3.68-2.78-4-5.31,2.14-1,2.42-1.83,1-3.52-.43-.49-1.32-.58-2-.85a6.88,6.88,0,0,0-.52,2.1C538.87,272.41,539.43,273,539.76,273.5ZM500.7,254.65c.17,1.9.29,3.22.41,4.55h8.49l-.44-4.55Zm21.36,1.83-1.48,5.22,7.12,1.91C528.62,258.76,528.62,258.76,522.06,256.48Zm-10.78,3.38,6.92.56c.31-4.81,0-5.44-2.63-5.78C512.81,254.28,512.29,254.85,511.28,259.86Zm25.58,9.64c1.39-3.81-1.17-5.1-2.79-6.8a10,10,0,0,0-2-1.21l-1.71,4.14Zm-43.62-9.23c5.33-.85,5.33-.85,4.7-4.35C492.88,256.47,492.88,256.47,493.24,260.27Zm-3,.85c-1.55-3-2.7-2.77-5.74,1.19a4.6,4.6,0,0,0,1.49.11C487.42,262.05,488.82,261.57,490.25,261.12Z" fill="#090704"/><path d="M527.9,413.93c-5.5,3.57-10.45,2.84-15.34,2.45-1.47-.11-2.91-.51-4.38-.65-3.21-.29-4-1-4.53-4-.54-3.25-1.47-6.46-1.62-9.72a21.15,21.15,0,0,1,1-8.67,24.19,24.19,0,0,0,.88-15c-.85-3.7-1.75-7.39-2.79-11a4.73,4.73,0,0,1,1.39-5.28c.8.67,1.95,1.19,2.38,2.05,3.74,7.6,6.81,15.39,5.8,24.14a10,10,0,0,1-.58,3.38c-3.19,6-2.12,12.15-1.22,18.87C514.93,410.89,521.16,411.13,527.9,413.93Z" fill="#f8f38d"/><path d="M439,308.23c-4.61,1.62-9.1,3.95-13.85,4.72-8.78,1.41-17.69,2-26.61.49-4.69-.79-9.48-1-14.29-1.51,2.94-2.56,9.39-4.17,14.29-3.49a112.54,112.54,0,0,0,29.62,0c3.59-.45,7.26-.14,10.9-.18Z" fill="#f8f38d"/><path d="M558.71,297.42l0-5.18Z" fill="#6f4f26"/><path d="M439,308.29l.17-.4-.23.34Z" fill="#f8f38d"/><path d="M558.44,289.41l-.11-1Z" fill="#6f4f26"/><path d="M67.69,256a32.59,32.59,0,0,1,1.13-3.38c2.07-4.69,6.1-7.44,10.44-9.49s9.35,2.49,8.58,7.67A14.68,14.68,0,0,1,86,255.87a91.12,91.12,0,0,1-5.44,8.3c-2.43,3.3-4.83,3.45-7.91.66A14.09,14.09,0,0,1,67.69,256Zm15-8c-4.67.6-8.26,3.79-8.68,7.44-.35,3,.17,3.84,3.35,5C79.39,256.46,82,252.72,82.74,248Z" fill="#090704"/><path d="M45,309.08a27.19,27.19,0,0,1-1.08-15.93c1.78-7.7,3-15.54,4.25-23.34.76-4.75,3.23-8.59,5.76-12.49a29,29,0,0,0,3.38-7c2.44-7.93,8-12.75,15.38-15.64,1.6-.62,3.65-.09,5.56.33-5.64,2.41-10.8,5.23-14.94,9.7-1.88,2-3.21,4.16-3,7-1.19,2.16-2.26,4.4-3.6,6.47-4.25,6.56-5.9,14-7.26,21.49-1.49,8.29-2.87,16.6-4.23,24.9A38.83,38.83,0,0,0,45,309.08Z" fill="#140f07"/><path d="M66.94,359.09c-.3.5-.73,1.48-.9,1.44-5.9-1.47-11.68-.11-17.51.52a60.32,60.32,0,0,1-7.36-.08c-.27-4.61-.69-9.21-.74-13.82a65.38,65.38,0,0,1,.81-8.34c.62-5.24,1.26-10.47,1.95-15.69a6.75,6.75,0,0,1,.79-1.74,46.28,46.28,0,0,1,1.38,19.46,53.71,53.71,0,0,0,.45,13.21c.45,3.42,1.09,3.59,4.71,3.23C56.13,356.72,61.68,356.51,66.94,359.09Z" fill="#0b0907"/><path d="M91.31,323.36c16.17-.75,28.61-6.09,31.88-23.88a8.23,8.23,0,0,1,2.13,8.89c-4.67,15.17-17.6,21.46-32.69,16.4C92.25,324.64,92,324.12,91.31,323.36Z" fill="#f8f38d"/><path d="M76.74,280.47c-1.18,3.57-2.09,7.26-3.61,10.67-1.27,2.85-4.16,3.21-6.57,1.25-1.15-.93-2.11-2.09-3.26-3-3.48-2.79-4.25-5.38-2.52-9.46a23.93,23.93,0,0,1,2.15-3.9c2.4-3.62,5-5,7.66-4.13C74.15,273,76.22,276.1,76.74,280.47Zm-6.41,7.08c.79-2.28,1.59-4.23,2.14-6.26.93-3.4.49-4-3.32-5.64C64.28,280.92,64.13,285.25,70.33,287.55Z" fill="#0b0907"/><path d="M57.64,307.18c.48-1.65.83-4.17,1.93-6.31,1.52-3,4.31-2.93,6.34-.26,3.35,4.41.81,11.47-4.58,12.7a2.76,2.76,0,0,1-3.65-2.37A21.89,21.89,0,0,1,57.64,307.18Z" fill="#0b0907"/><path d="M55.44,332.11a30.3,30.3,0,0,1,2.08-5.23,3.71,3.71,0,0,1,5.91-.79c2.27,2.05,2.9,7,1.21,9.58a5.06,5.06,0,0,1-6,2.21C56.38,337,55.48,335.21,55.44,332.11Z" fill="#0b0907"/><path d="M107.73,316.46c-7.26,4.94-14.78,4.77-17.79-.17C95.75,318.67,101.34,315.77,107.73,316.46Z" fill="#f8f38d"/><path d="M383.74,255.52c6.92-.29,8.79,3,9.27,10.58.37,5.66-3.73,9.33-9.28,9.28a10.48,10.48,0,0,1-10.46-10.84C373.32,258.46,376.76,255.49,383.74,255.52Zm-3.44,9.53c-.17,3,1.3,4.9,4,5.21,1.86.22,3.51-1.76,3.65-4.39.12-2.14-2.07-4.27-4.49-4.29S380.31,262.94,380.3,265.05Z" fill="#090704"/><path d="M64,675.24c.12,3,.18,6,.4,8.93a8.87,8.87,0,0,1-1.87,6.49l-7.59.27c-.58-.48-1.58-.91-1.65-1.46a81.5,81.5,0,0,1-1.07-10.32c-.16-9.6,0-19.2-.16-28.81,0-3.11-.8-6.24-.66-9.34a60.61,60.61,0,0,1,1.54-12.18,59.55,59.55,0,0,0,1.41-25c-.44-2.66.41-5.53.66-8.31.27-.73.54-1.46.8-2.2l1-.07a53.34,53.34,0,0,1,1.13,6.92c.34,10.42,0,20.78-2,31.09a62.65,62.65,0,0,0-.73,13.29c.18,9.57.69,19.14,1,28.71.13,4.75,0,9.51,0,14.27,4.11-.16,4.7-.47,4.72-3.63,0-4.12-.4-8.24-.55-12.37-.07-1.95-.46-4.23,2.66-4.21.07.26.14.52.19.78C63.44,670.48,63.71,672.86,64,675.24Z" fill="#0b0907"/><path d="M56.13,441.69a9.76,9.76,0,0,1-2-7.39c.42-4.74.81-9.48.91-14.23.15-7.57-.15-15.16.15-22.72.16-3.88,1.22-7.72,1.87-11.57,2.94.33,3,2.49,3,4.72q0,10.85,0,21.67c0,1.8.09,3.6.15,5.41-.35,7.13-.7,14.25-1,21.3,2.92.79,3.77-.67,4-2.7.61-5.74,2.32-11.56-1.16-17.05-.21-.34,0-1,0-1.45,1.95-1.19,3.44-1.09,4,1.46a45.8,45.8,0,0,1,.26,18.58c-.69,3.72-3.15,5.08-6.93,4.63C58.36,442.21,57.25,441.91,56.13,441.69Z" fill="#090704"/><path d="M56.07,514.86c-.64-3.38-1.75-6.74-1.84-10.13-.24-9.93-.45-19.89.05-29.8.36-7.18,1.86-14.3,2.85-21.45,2.21.12,2.08,1.84,2,3.26-.16,7.58-.41,15.16-.63,22.74-.28,9.19-1.75,18.35-.54,27.58.27,2.1.65,3.65,3.47,2.5,1.06-5.9-.06-12,.34-18.91,1.3,1.14,1.91,1.41,1.94,1.74.47,4.74,1.06,9.49,1.24,14.25C65.24,513.36,62.93,515.35,56.07,514.86Z" fill="#0b0907"/><path d="M56,575.84c-.27-12.89-.59-25.77-.78-38.66,0-2-.24-4.48,2.72-5.06a15.75,15.75,0,0,1,1,3.81c-.08,9.55-.3,19.1-.45,28.65-.07,4.16-1.11,8.45,1.45,12.35,0-6.29.14-12.51,2.87-18.32.26.18.71.33.75.56,1.1,6,2,12,.11,18-1.07,3.34-3.75,4.77-5.86,2.95C56.66,579.24,56.51,577.31,56,575.84Z" fill="#0b0907"/><path d="M62.15,417.68c0,.49-.25,1.11,0,1.45,3.48,5.49,1.77,11.31,1.16,17.05-.21,2-1.06,3.49-4,2.7.34-7.05.69-14.17,1-21.3Z" fill="#74493d"/><path d="M168.43,1074c-1.81-.16-4,.38-4.68-2.59,2.67-.9,3.62,1,4.81,2.44Z" fill="#8b5a4b"/><path d="M168.56,1073.8l1.24.49a2.62,2.62,0,0,1-.27.33c-.38-.21-.73-.44-1.1-.68Z" fill="#8b5a4b"/><path d="M65,804.49q-.57,8.34-1.16,16.67c-.2,1.08-.41,2.16-.62,3.25L63,826.18c-.34-4.39-.67-8.78-1-13.17a13.92,13.92,0,0,0-1.14-5c-2.07,14.46-2,29.06-5.6,43.34q-.15-3-.32-6,0-7.62.07-15.24c0-1.26.09-2.53.14-3.79q.45-4.5.91-9c0-1,0-2-.05-3l.18,0q.53-3.92,1.07-7.83C59.44,804.45,61.68,802.44,65,804.49Z" fill="#140f07"/><path d="M58.91,913.75l-1.29,6.65-.41.1c-.37-3.51-1.1-7-1.06-10.53.09-8.23.57-16.45.85-24.68.06-1.81,0-3.63-.08-5.45,1.4-3.36,4.66-3.31,7.45-3.75,1.73-.28,2.79,1.37,2.51,3a83,83,0,0,1-3,11.78c-1.49-3.42,0-7.38-2.84-10.38C58.69,891.52,59.52,902.68,58.91,913.75Z" fill="#140f07"/><path d="M64.15,852.19q.38,2.94.73,5.87Q64.52,855.12,64.15,852.19Z" fill="#c78f46"/><path d="M55.12,826.3c0,1.26-.1,2.53-.14,3.79a46.05,46.05,0,0,1-.83-5.56c-.1-3.39.05-6.79.09-10.18l1.74,0c0,1,0,2,.05,3Q55.57,821.8,55.12,826.3Z" fill="#855749"/><path d="M56.12,755.75c0,.61,0,1.22,0,1.83C54.87,757,55.18,756.36,56.12,755.75Z" fill="#855749"/><path d="M57.23,806.54q-.54,3.91-1.07,7.83C56.4,811.75,55.21,808.92,57.23,806.54Z" fill="#48322a"/><path d="M57.19,753.49l.23-.3c0,.14-.07.28-.11.42Z" fill="#855749"/><path d="M63.21,824.41c.21-1.09.42-2.17.62-3.25C63.63,822.24,63.42,823.32,63.21,824.41Z" fill="#8b5a4b"/><path d="M64,675.24c-.28-2.38-.55-4.76-.83-7.14C63.44,670.48,63.71,672.86,64,675.24Z" fill="#885749"/><path d="M499.57,1015.1c1.29,5.29-1.76,9.11-5.31,13.14-4.81,5.45-11,8.34-17.38,11.13a10.47,10.47,0,0,1-6.3.55c-7.95-2-15.44-4.93-19.93-12.58-1.9-3.23-3.09-6.62-2.68-10.37.53-4.89.95-9.83,1.95-14.64,1.95-9.38,13.15-18.33,22.94-15.16,3.75,1.21,7.67,1.89,11.47,3a7.41,7.41,0,0,1,3.42,1.79c3.1,3.41,6,7,9,10.52S499.9,1010.28,499.57,1015.1Z" fill="#212127"/><path d="M458.74,1049.91c.92-2.34,1.23-5.13,4.28-5.94h0c.8,3.35-.85,5.21-3.81,6.29Z" fill="#f6f1f3"/><path d="M459.16,1050.25l-.91,1.1c.17-.48.33-1,.49-1.44Z" fill="#f6f1f3"/><path d="M544.39,279.41c.48,1.55.59,3.36,1.48,4.62,6.68,9.45,5.94,19.58,1.75,29.32-6.1,14.19-17.52,22.86-32.6,25.43-8.91,1.52-18.18,1-26.58-3.75-4.9-2.75-8.24-7-11.69-11.23a50.87,50.87,0,0,1-10.08-18.6,37.15,37.15,0,0,1-.45-19.46,9.17,9.17,0,0,1,1.86-4c5-5.29,9.78-11.07,16.54-14a52.41,52.41,0,0,1,15.22-4.05c11.38-1.24,22.43.36,32.55,6.26,1.13.66,2.13,1.59,3.3,2.16a36.69,36.69,0,0,0,4.06,1.41,1.14,1.14,0,0,1,.63.61c.35,2.53,1.48,4.46,4,5.31Z" fill="#212127"/><path d="M500.7,254.65h8.46l.44,4.55h-8.49C501,257.87,500.87,256.55,500.7,254.65Z" fill="#654923"/><path d="M522.06,256.48c6.56,2.28,6.56,2.28,5.64,7.13l-7.12-1.91Z" fill="#654923"/><path d="M511.28,259.86c1-5,1.53-5.58,4.29-5.22,2.61.34,2.94,1,2.63,5.78Z" fill="#654923"/><path d="M536.86,269.5l-6.52-3.87,1.71-4.14a10,10,0,0,1,2,1.21C535.69,264.4,538.25,265.69,536.86,269.5Z" fill="#48322a"/><path d="M493.24,260.27c-.36-3.8-.36-3.8,4.7-4.35C498.57,259.42,498.57,259.42,493.24,260.27Z" fill="#654923"/><path d="M490.25,261.12c-1.43.45-2.83.93-4.25,1.3a4.6,4.6,0,0,1-1.49-.11C487.55,258.35,488.7,258.09,490.25,261.12Z" fill="#462d26"/><path d="M540.38,274.11a1.14,1.14,0,0,0-.63-.61c-.32-.55-.88-1.09-.93-1.66a6.88,6.88,0,0,1,.52-2.1c.67.27,1.56.36,2,.85C542.8,272.28,542.52,273.12,540.38,274.11Z" fill="#462d26"/><path d="M544.41,279.42l-.63-3.51c1.62,1,4,2.07.61,3.5Z" fill="#212127"/><path d="M82.74,248c-.75,4.73-3.35,8.47-5.33,12.46-3.18-1.18-3.7-2-3.35-5C74.48,251.78,78.07,248.59,82.74,248Z" fill="#1e2849"/><path d="M70.33,287.55c-6.2-2.3-6-6.63-1.18-11.9,3.81,1.6,4.25,2.24,3.32,5.64C71.92,283.32,71.12,285.27,70.33,287.55Z" fill="#48322a"/><path d="M380.3,265.05c0-2.11.84-3.5,3.16-3.47s4.61,2.15,4.49,4.29c-.14,2.63-1.79,4.61-3.65,4.39C381.6,270,380.13,268,380.3,265.05Z" fill="#212127"/><path d="M55.12,826.3q.45-4.5.91-9Q55.57,821.8,55.12,826.3Z" fill="#48322a"/></g></g></svg>