<svg xmlns="http://www.w3.org/2000/svg" width="120" height="60" viewBox="0 0 120 60"><g style="isolation:isolate"><g id="e864a351-a742-44f9-8156-3c084b09dd00" data-name="button_fumetti"><g id="a4539e9a-e8dc-422e-881b-2102f982ebeb" data-name="default"><path d="M8.57,39.63l3.35-.78c2.08-.48,2.34-.85,1.92-2.58.57-.87,1.16-1.65,1.6-2.48.57-1.06.08-2.08-1.22-2.46a29.13,29.13,0,0,0-3.12-.6c-.55-.09-1.11-.14-1.67-.21L7.61,30.3c.2-.32.29-.61.5-.76,2.15-1.5,4.24-3.07,6.49-4.45a33.2,33.2,0,0,1,13.6-4.88,42.68,42.68,0,0,1,5.88-.09c3,.05,5.82,0,8.5-1.42,3-1.58,6.38-2.13,9.79-2.64a67.19,67.19,0,0,1,11.08-.95c2.48,0,5-.26,7.43-.21,3.38.08,6.76.26,10.11.6a41,41,0,0,1,5.21,1.23c1.84.45,3.68.92,5.52,1.34,2.29.53,4.6,1,6.87,1.55a5.88,5.88,0,0,1,1.76.86A19.09,19.09,0,0,0,106.24,23a7.61,7.61,0,0,1,3.16,1.62c1,.84,2.14,1.56,3.39,2.45-.47.08-.82.13-1.15.2A3.29,3.29,0,0,0,109,29.13,2.16,2.16,0,0,0,109.9,32a17,17,0,0,1,1.66,1c.41.35.89.86.89,1.3,0,1.33.87,2.15,1.92,2.92l.52.37c1.29,1,1.32,1.61,0,2.61a6.77,6.77,0,0,1-1.44.75c-.61.25-1.26.43-1.86.7a2,2,0,0,0-1.41,2.52c.25,1.24,0,1.5-1.37,1.76-1.65.31-3.32.56-5,.94-1.81.41-3.58.92-4.7,2.4a1.62,1.62,0,0,1-1.14.45,12.31,12.31,0,0,1-2.49-.32,9,9,0,0,0-4.17,0c-2.13.48-4.25,1-6.4,1.35a45.12,45.12,0,0,1-4.53.46c-1.51.12-3,.26-4.55.24-2.36,0-4.73-.12-7.08-.34A7.72,7.72,0,0,1,66,50.21,27.72,27.72,0,0,0,55.24,47.4c-2.13-.19-4.28-.16-6.42-.29-.89,0-1.77-.25-2.66-.37-1.33-.18-2.67-.32-4-.52a21.7,21.7,0,0,1-3.45-.67A29.78,29.78,0,0,0,31,44.2a3.72,3.72,0,0,1-.67,0c-3.15-.82-6.39-.58-9.6-.56a15.66,15.66,0,0,1-7.82-2C11.6,40.9,10.21,40.37,8.57,39.63Z" fill="#0f1114"/><text transform="translate(34.1 38.46)" font-size="18" fill="#599ef7" font-family="Skranji">Fumetti</text><path d="M11.68,36.94,14,33.35c-1.49-.19-2.8-.34-4.09-.53a19,19,0,0,1-2.74-.56c-2-.65-2.25-2.66-.53-3.72,2.52-1.56,4.93-3.24,7.39-4.87a2.75,2.75,0,0,1,.4-.26A62.85,62.85,0,0,1,21,20.27a31.9,31.9,0,0,1,10.8-2.1c1.83,0,3.66,0,5.49,0a9.1,9.1,0,0,0,4.42-1A36.68,36.68,0,0,1,53.3,14a136.6,136.6,0,0,1,17.39-1c.5,0,1,.07,1.5.1,1.87.11,3.74.3,5.62.32a31.24,31.24,0,0,1,8.61,1.44c2.14.62,4.37,1,6.54,1.58,3.28.81,6.67,1.32,9.47,3.27a12.87,12.87,0,0,0,4.07,1.57,11.39,11.39,0,0,1,6.37,3.63,16.1,16.1,0,0,0,2.37,2c.6.49,1.05,1,.55,1.76a1.86,1.86,0,0,1-2.08.82,5.72,5.72,0,0,0-1.49-.07,1.34,1.34,0,0,0-1.26,1c-.17.56.33.75.73,1s.66.36,1,.55a1.85,1.85,0,0,1,1.09,1.82,2.09,2.09,0,0,0,1.14,2.09c.52.35,1,.71,1.55,1.08,1.13.81,1.29,1.35.76,2.51a5.81,5.81,0,0,1-3.5,3.09c-.69.25-1.37.55-2,.79,0,.26-.06.36,0,.44.78,1.95.47,2.71-1.75,3.44-1.49.49-3.07.77-4.62,1.14A22.56,22.56,0,0,0,103,49,4.67,4.67,0,0,0,101.05,50a4.58,4.58,0,0,1-5,1.35c-2.61-.77-5-.29-7.5.27a43.94,43.94,0,0,1-5.37.91,73.63,73.63,0,0,1-14.77.14,10.26,10.26,0,0,1-3.85-1.24,17.49,17.49,0,0,0-5-1.59,44.19,44.19,0,0,0-8.9-.8,31.3,31.3,0,0,1-4-.42c-1.58-.19-3.18-.37-4.75-.62a29.38,29.38,0,0,1-3.38-.71,23.32,23.32,0,0,0-6.17-1.05,6.67,6.67,0,0,1-1.49-.12,31.27,31.27,0,0,0-8.58-.6,18.48,18.48,0,0,1-9.89-2.47,38,38,0,0,0-3.74-1.53,15.79,15.79,0,0,1-2.49-1.37c-1.16-.8-.64-2.41.95-2.54,1.38-.11,2.73-.37,4.1-.58A1.65,1.65,0,0,0,11.68,36.94ZM9.91,39.59c1.6.72,3,1.24,4.22,1.92a15.31,15.31,0,0,0,7.66,2c3.14,0,6.32-.26,9.4.55a3.68,3.68,0,0,0,.67,0,29,29,0,0,1,7.59,1.32,20.83,20.83,0,0,0,3.38.66c1.3.2,2.62.33,3.92.51.87.12,1.74.31,2.61.36,2.1.13,4.21.1,6.29.29A27.17,27.17,0,0,1,66.2,50a7.66,7.66,0,0,0,2.76.9c2.31.21,4.63.29,7,.32,1.48,0,3-.11,4.46-.23s3-.2,4.44-.45c2.1-.37,4.19-.85,6.27-1.33a8.83,8.83,0,0,1,4.09,0,12.44,12.44,0,0,0,2.44.31A1.62,1.62,0,0,0,98.73,49c1.1-1.45,2.83-1.95,4.6-2.36,1.6-.37,3.24-.61,4.86-.91,1.39-.26,1.58-.51,1.34-1.73a2,2,0,0,1,1.38-2.47c.59-.27,1.23-.44,1.83-.69a6.48,6.48,0,0,0,1.41-.73c1.27-1,1.24-1.58,0-2.56l-.51-.37a3.57,3.57,0,0,1-1.89-2.86c0-.43-.46-.93-.87-1.27a16.36,16.36,0,0,0-1.63-1,2.13,2.13,0,0,1-.85-2.82,3.24,3.24,0,0,1,2.56-1.83c.33-.07.66-.11,1.12-.19-1.22-.88-2.33-1.59-3.32-2.4a7.43,7.43,0,0,0-3.09-1.6,18.48,18.48,0,0,1-5.78-2.46A5.85,5.85,0,0,0,98.15,20c-2.23-.55-4.49-1-6.73-1.51-1.81-.42-3.61-.88-5.42-1.32a39.69,39.69,0,0,0-5.1-1.2c-3.28-.34-6.6-.51-9.91-.59-2.43-.06-4.86.24-7.29.21a64.63,64.63,0,0,0-10.86.92c-3.34.51-6.68,1.05-9.6,2.59-2.62,1.38-5.43,1.45-8.33,1.39a44.22,44.22,0,0,0-5.76.09,32.44,32.44,0,0,0-13.33,4.79c-2.21,1.35-4.26,2.88-6.36,4.35-.21.15-.3.44-.5.75l1.79.22c.54.07,1.09.11,1.63.2a30.82,30.82,0,0,1,3.07.59,1.6,1.6,0,0,1,1.19,2.41c-.44.82-1,1.58-1.57,2.44.41,1.69.16,2.05-1.88,2.52Z" fill="#6c4324"/></g></g></g></svg>