<svg xmlns="http://www.w3.org/2000/svg" width="90" height="60" viewBox="0 0 90 60"><g style="isolation:isolate"><g id="f6ee02f7-b31f-408c-910e-d9afb4a3df7e" data-name="button_shop"><g id="a1991a72-1fb9-49b5-bb07-5b0ae8ca5308" data-name="default"><path d="M7.06,39.63l2.36-.78c1.48-.48,1.66-.85,1.36-2.58.4-.87.82-1.65,1.13-2.48a1.81,1.81,0,0,0-.86-2.46,15.22,15.22,0,0,0-2.2-.6c-.39-.09-.79-.14-1.18-.21L6.38,30.3a3.19,3.19,0,0,1,.36-.76c1.51-1.5,3-3.07,4.58-4.45a19.64,19.64,0,0,1,9.6-4.88,21.4,21.4,0,0,1,4.16-.09c2.09.05,4.11,0,6-1.42A16.73,16.73,0,0,1,38,16.06a33.94,33.94,0,0,1,7.82-.95c1.75,0,3.51-.26,5.25-.21a65.86,65.86,0,0,1,7.15.6,22.29,22.29,0,0,1,3.67,1.23c1.3.45,2.6.92,3.9,1.34,1.62.53,3.25,1,4.85,1.55a3.75,3.75,0,0,1,1.24.86A11.93,11.93,0,0,0,76.05,23a5.12,5.12,0,0,1,2.23,1.62c.71.84,1.51,1.56,2.39,2.45-.33.08-.57.13-.81.2A2.55,2.55,0,0,0,78,29.13,2.68,2.68,0,0,0,78.63,32a12.47,12.47,0,0,1,1.18,1,2.43,2.43,0,0,1,.62,1.3,4,4,0,0,0,1.36,2.92c.12.12.25.24.37.37.91,1,.93,1.61,0,2.61a4.4,4.4,0,0,1-1,.75c-.42.25-.89.43-1.31.7a2.22,2.22,0,0,0-1,2.52c.18,1.24,0,1.5-1,1.76-1.17.31-2.35.56-3.5.94a5.06,5.06,0,0,0-3.32,2.4,1,1,0,0,1-.8.45,6.28,6.28,0,0,1-1.76-.32,4.58,4.58,0,0,0-3,0c-1.5.48-3,1-4.52,1.35a23.05,23.05,0,0,1-3.2.46,24.77,24.77,0,0,1-3.21.24,44.22,44.22,0,0,1-5-.34,4.49,4.49,0,0,1-2-.91A15.23,15.23,0,0,0,40,47.4c-1.5-.19-3-.16-4.53-.29a17.83,17.83,0,0,1-1.88-.37c-.94-.18-1.89-.32-2.82-.52a11.46,11.46,0,0,1-2.44-.67,15.59,15.59,0,0,0-5.47-1.35,1.91,1.91,0,0,1-.48,0c-2.23-.82-4.51-.58-6.78-.56a8.65,8.65,0,0,1-5.52-2C9.2,40.9,8.22,40.37,7.06,39.63Z" fill="#0f1114"/><path d="M9.26,36.94l1.65-3.59c-1.05-.19-2-.34-2.89-.53a10.23,10.23,0,0,1-1.94-.56,2.24,2.24,0,0,1-.37-3.72C7.49,27,9.19,25.3,10.93,23.67a2.27,2.27,0,0,1,.28-.26,41.14,41.14,0,0,1,4.6-3.14,16.94,16.94,0,0,1,7.63-2.1c1.29,0,2.59,0,3.88,0a4.92,4.92,0,0,0,3.12-1A20.46,20.46,0,0,1,38.65,14a68.62,68.62,0,0,1,12.29-1c.35,0,.7.07,1.05.1,1.33.11,2.65.3,4,.32a16.34,16.34,0,0,1,6.08,1.44c1.51.62,3.08,1,4.62,1.58,2.32.81,4.71,1.32,6.69,3.27a7.69,7.69,0,0,0,2.87,1.57,8,8,0,0,1,4.5,3.63,14,14,0,0,0,1.67,2,1.48,1.48,0,0,1,.4,1.76c-.33.69-.8,1-1.48.82a2.86,2.86,0,0,0-1-.07c-.48.05-.77.43-.89,1s.23.75.52,1l.69.55a2.06,2.06,0,0,1,.77,1.82,2.41,2.41,0,0,0,.8,2.09c.37.35.74.71,1.1,1.08a2,2,0,0,1,.54,2.51,5,5,0,0,1-2.47,3.09c-.5.25-1,.55-1.4.79a2.69,2.69,0,0,0,0,.44c.56,1.95.34,2.71-1.23,3.44a31.46,31.46,0,0,1-3.26,1.14,12.09,12.09,0,0,0-1.69.6A3.19,3.19,0,0,0,72.38,50a2.68,2.68,0,0,1-3.55,1.35c-1.85-.77-3.54-.29-5.3.27a23,23,0,0,1-3.79.91,36.82,36.82,0,0,1-10.43.14,5.86,5.86,0,0,1-2.72-1.24,10,10,0,0,0-3.5-1.59,22.39,22.39,0,0,0-6.29-.8A15.82,15.82,0,0,1,34,48.64c-1.12-.19-2.25-.37-3.36-.62a15.59,15.59,0,0,1-2.39-.71,12.17,12.17,0,0,0-4.36-1.05,3.36,3.36,0,0,1-1-.12,15.77,15.77,0,0,0-6.06-.6,10.17,10.17,0,0,1-7-2.47,24.8,24.8,0,0,0-2.64-1.53,10.42,10.42,0,0,1-1.76-1.37,1.51,1.51,0,0,1,.67-2.54A29,29,0,0,0,9,37.05,1,1,0,0,0,9.26,36.94ZM8,39.59c1.13.72,2.09,1.24,3,1.92a8.53,8.53,0,0,0,5.42,2c2.22,0,4.46-.26,6.64.55a1.8,1.8,0,0,0,.47,0,15.18,15.18,0,0,1,5.36,1.32,11.16,11.16,0,0,0,2.39.66c.92.2,1.85.33,2.77.51a17.56,17.56,0,0,0,1.84.36c1.48.13,3,.1,4.45.29A15,15,0,0,1,47.77,50a4.39,4.39,0,0,0,1.95.9,44.62,44.62,0,0,0,4.9.32A24,24,0,0,0,57.78,51a23.83,23.83,0,0,0,3.13-.45c1.49-.37,3-.85,4.43-1.33a4.47,4.47,0,0,1,2.89,0,6.35,6.35,0,0,0,1.72.31,1,1,0,0,0,.79-.44A5,5,0,0,1,74,46.68c1.13-.37,2.29-.61,3.43-.91,1-.26,1.12-.51,1-1.73a2.16,2.16,0,0,1,1-2.47c.41-.27.87-.44,1.29-.69a4.37,4.37,0,0,0,1-.73c.9-1,.88-1.58,0-2.56l-.36-.37a3.85,3.85,0,0,1-1.33-2.86,2.27,2.27,0,0,0-.62-1.27,10.81,10.81,0,0,0-1.15-1,2.65,2.65,0,0,1-.6-2.82,2.52,2.52,0,0,1,1.8-1.83c.24-.07.48-.11.8-.19-.86-.88-1.65-1.59-2.35-2.4a5,5,0,0,0-2.18-1.6,11.44,11.44,0,0,1-4.08-2.46A3.76,3.76,0,0,0,70.33,20c-1.57-.55-3.17-1-4.75-1.51C64.3,18,63,17.58,61.75,17.14a21.42,21.42,0,0,0-3.6-1.2,63.13,63.13,0,0,0-7-.59c-1.71-.06-3.43.24-5.15.21a32.64,32.64,0,0,0-7.67.92,16.62,16.62,0,0,0-6.78,2.59c-1.85,1.38-3.84,1.45-5.89,1.39a22.13,22.13,0,0,0-4.07.09,19.18,19.18,0,0,0-9.41,4.79c-1.56,1.35-3,2.88-4.49,4.35a2.94,2.94,0,0,0-.35.75l1.26.22c.39.07.77.11,1.15.2a16.17,16.17,0,0,1,2.17.59,1.78,1.78,0,0,1,.84,2.41c-.31.82-.71,1.58-1.11,2.44.29,1.69.11,2.05-1.33,2.52Z" fill="#6c4324"/><text transform="translate(28.1 38.46)" font-size="18" fill="#599ef7" font-family="Skranji">Shop</text></g></g></g></svg>