<svg xmlns="http://www.w3.org/2000/svg" width="140" height="60" viewBox="0 0 140 60"><g style="isolation:isolate"><g id="af733bc9-883f-43ca-acff-fc66fd71c23b" data-name="button_animantra" style="mix-blend-mode:multiply"><g id="ae373455-9fa3-4574-b813-679d8de5f3e3" data-name="default"><path d="M9.15,39.63l4-.78c2.47-.48,2.78-.85,2.28-2.58.68-.87,1.38-1.65,1.9-2.48.68-1.06.1-2.08-1.44-2.46-1.2-.29-2.47-.42-3.71-.6-.66-.09-1.32-.14-2-.21L8,30.3c.25-.32.35-.61.6-.76,2.55-1.5,5-3.07,7.71-4.45a44.34,44.34,0,0,1,16.14-4.88,60.13,60.13,0,0,1,7-.09c3.52.05,6.93,0,10.1-1.42,3.54-1.58,7.58-2.13,11.63-2.64a94.34,94.34,0,0,1,13.15-.95c3,0,5.9-.26,8.83-.21,4,.08,8,.26,12,.6a56.75,56.75,0,0,1,6.18,1.23c2.19.45,4.37.92,6.56,1.34,2.72.53,5.45,1,8.15,1.55a7.55,7.55,0,0,1,2.09.86,25.22,25.22,0,0,0,7,2.51,9.72,9.72,0,0,1,3.75,1.62c1.2.84,2.54,1.56,4,2.45-.56.08-1,.13-1.36.2a4,4,0,0,0-3.1,1.87,2,2,0,0,0,1,2.87,21.54,21.54,0,0,1,2,1c.48.35,1.05.86,1.05,1.3,0,1.33,1,2.15,2.29,2.92l.61.37c1.54,1,1.57,1.61,0,2.61a8.84,8.84,0,0,1-1.71.75c-.72.25-1.5.43-2.21.7-1.51.57-2,1.3-1.68,2.52s.06,1.5-1.63,1.76c-2,.31-3.94.56-5.87.94-2.15.41-4.25.92-5.58,2.4a2.15,2.15,0,0,1-1.35.45,17.19,17.19,0,0,1-3-.32,12.69,12.69,0,0,0-5,0c-2.52.48-5,1-7.6,1.35-1.76.26-3.57.35-5.37.46s-3.61.26-5.41.24c-2.81,0-5.62-.12-8.41-.34a10.46,10.46,0,0,1-3.35-.91A37.85,37.85,0,0,0,64.57,47.4c-2.53-.19-5.09-.16-7.62-.29-1.07,0-2.11-.25-3.17-.37-1.58-.18-3.17-.32-4.75-.52a30.08,30.08,0,0,1-4.09-.67,41.54,41.54,0,0,0-9.2-1.35,5.39,5.39,0,0,1-.81,0c-3.74-.82-7.58-.58-11.39-.56a21.31,21.31,0,0,1-9.28-2C12.75,40.9,11.09,40.37,9.15,39.63Z" fill="#0f1114"/><path d="M12.84,36.94l2.77-3.59c-1.76-.19-3.31-.34-4.85-.53a26.73,26.73,0,0,1-3.26-.56c-2.42-.65-2.67-2.66-.62-3.72,3-1.56,5.85-3.24,8.77-4.87a3.54,3.54,0,0,1,.47-.26,81.85,81.85,0,0,1,7.74-3.14,44.14,44.14,0,0,1,12.83-2.1c2.17,0,4.34,0,6.52,0a12.6,12.6,0,0,0,5.25-1A49.82,49.82,0,0,1,62.26,14a192.45,192.45,0,0,1,20.66-1c.59,0,1.18.07,1.77.1,2.23.11,4.45.3,6.68.32a43.38,43.38,0,0,1,10.22,1.44c2.55.62,5.19,1,7.77,1.58,3.9.81,7.92,1.32,11.25,3.27a17,17,0,0,0,4.83,1.57c3.06.67,5.68,1.67,7.57,3.63a18.33,18.33,0,0,0,2.81,2c.71.49,1.25,1,.65,1.76a2.42,2.42,0,0,1-2.48.82,7.94,7.94,0,0,0-1.76-.07,1.57,1.57,0,0,0-1.5,1c-.2.56.39.75.88,1s.78.36,1.15.55c.85.45,1.44,1,1.3,1.82s.42,1.55,1.35,2.09c.62.35,1.24.71,1.85,1.08,1.33.81,1.52,1.35.9,2.51A6.67,6.67,0,0,1,134,42.55c-.83.25-1.63.55-2.35.79,0,.26-.06.36,0,.44.94,1.95.56,2.71-2.07,3.44-1.77.49-3.65.77-5.49,1.14-.95.2-1.94.32-2.84.6A5.79,5.79,0,0,0,119,50a6.13,6.13,0,0,1-6,1.35c-3.1-.77-5.95-.29-8.9.27a62,62,0,0,1-6.38.91,103.65,103.65,0,0,1-17.53.14,13.77,13.77,0,0,1-4.58-1.24,23.61,23.61,0,0,0-5.88-1.59,62.09,62.09,0,0,0-10.57-.8,43.87,43.87,0,0,1-4.7-.42c-1.88-.19-3.77-.37-5.65-.62-1.35-.18-2.7-.4-4-.71a32.33,32.33,0,0,0-7.33-1.05,9.24,9.24,0,0,1-1.76-.12,44,44,0,0,0-10.19-.6,25.22,25.22,0,0,1-11.74-2.47c-1.34-.66-3-1-4.44-1.53a19.55,19.55,0,0,1-3-1.37c-1.38-.8-.76-2.41,1.13-2.54,1.63-.11,3.24-.37,4.86-.58A2.17,2.17,0,0,0,12.84,36.94Zm-2.11,2.65c1.91.72,3.53,1.24,5,1.92a21,21,0,0,0,9.1,2c3.74,0,7.5-.26,11.17.55a5.07,5.07,0,0,0,.79,0,40.5,40.5,0,0,1,9,1.32,28.67,28.67,0,0,0,4,.66c1.55.2,3.11.33,4.66.51,1,.12,2.06.31,3.1.36,2.49.13,5,.1,7.47.29A37.14,37.14,0,0,1,77.58,50a10.29,10.29,0,0,0,3.28.9c2.74.21,5.5.29,8.25.32,1.77,0,3.54-.11,5.3-.23s3.54-.2,5.27-.45c2.5-.37,5-.85,7.44-1.33a12.42,12.42,0,0,1,4.86,0,17.5,17.5,0,0,0,2.9.31,2.14,2.14,0,0,0,1.33-.44c1.31-1.45,3.37-1.95,5.47-2.36,1.89-.37,3.84-.61,5.76-.91,1.66-.26,1.88-.51,1.6-1.73s.16-1.92,1.64-2.47c.7-.27,1.46-.44,2.16-.69a8.27,8.27,0,0,0,1.68-.73c1.51-1,1.48-1.58,0-2.56l-.61-.37c-1.23-.75-2.23-1.55-2.24-2.86,0-.43-.55-.93-1-1.27a20.68,20.68,0,0,0-1.94-1,2,2,0,0,1-1-2.82,3.86,3.86,0,0,1,3-1.83c.39-.07.79-.11,1.34-.19-1.46-.88-2.77-1.59-4-2.4a9.61,9.61,0,0,0-3.67-1.6,24.22,24.22,0,0,1-6.86-2.46,7.69,7.69,0,0,0-2-.84c-2.65-.55-5.33-1-8-1.51-2.15-.42-4.29-.88-6.43-1.32A54.55,54.55,0,0,0,95,15.94c-3.9-.34-7.84-.51-11.77-.59-2.88-.06-5.77.24-8.66.21a90.65,90.65,0,0,0-12.89.92c-4,.51-7.93,1.05-11.4,2.59-3.11,1.38-6.45,1.45-9.9,1.39a62.35,62.35,0,0,0-6.84.09,43.35,43.35,0,0,0-15.83,4.79c-2.62,1.35-5.05,2.88-7.55,4.35-.25.15-.35.44-.59.75l2.12.22c.65.07,1.3.11,1.94.2,1.22.18,2.47.31,3.64.59,1.51.37,2.08,1.37,1.42,2.41-.52.82-1.2,1.58-1.87,2.44.49,1.69.19,2.05-2.23,2.52Z" fill="#6c4324"/><text transform="translate(34.1 38.46)" font-size="18" fill="#599ef7" font-family="Skranji">Animantra</text></g></g></g></svg>