<svg xmlns="http://www.w3.org/2000/svg" width="531" height="763" viewBox="0 0 531 763"><g id="e697e1f2-9c92-4701-80c4-81d000ce2432" data-name="Livello 10"><path d="M411.9,179.82c1.62.24,3.24.49,4.86.71,1.86.25,3.31.71,3.31,3.13,0,10.59.15,21.18.19,31.78a26.17,26.17,0,0,1-.36,3.5c2.54,2.87,4.84,5.33,7,7.91,8.56,10.35,17.65,20.32,25.41,31.24,6.51,9.17,11.47,19.45,17.1,29.25,3.06,5.31,1.85,10.87.35,16.18-2.59,9.18-7,17.6-13.06,27,7.09,6.48,14.71,12.79,21.55,19.85a46.71,46.71,0,0,1,12.64,24.87c1.93,11.45,1.35,23-3.44,33.84-3.73,8.47-7.16,17.12-11.63,25.2a69.31,69.31,0,0,1-15,18.31c-8.16,7.21-17.13,13-27.58,16.3-8.83,2.78-17.7,5.46-26.56,8.14a14.51,14.51,0,0,1-2.94.45c-6.15.6-8.54,3.89-8.15,10.09s.24,12.39.22,18.58a3.36,3.36,0,0,0,1.89,3.48c6.45,3.71,13.16,7.14,19,11.66a63.17,63.17,0,0,1,13.13,13.84c4.33,6.27,7.91,13.21,8.5,21.15.36,4.77.93,9.54,1,14.3.05,6.53-2.8,12.24-6.11,17.63-5.23,8.54-10.74,16.91-16,25.41a58.56,58.56,0,0,0-2.58,5.62c-.65,1.32-1.4,2.6-2.15,3.87-3.91,6.59-10.11,6.64-16.61,5.79-1.07-.14-2.12-.4-3.18-.59-3.78-.7-3.89-.74-5.19,3-1.46,4.2-2.58,8.53-4.08,12.73a30.35,30.35,0,0,1-3.47,7.32,20.09,20.09,0,0,0-3.65,8.83c-.43,3-2.57,4.49-5.15,5-5.34,1.12-10.73,2.45-16.13,2.66-10.75.4-21.52.2-32.28.06-9-.11-15.06-5-17.3-13.83a22.29,22.29,0,0,1-.26-4.54c-8.6.21-17.1.31-25.6.65-7.37.29-14.74,1.28-22.1,1.18-13.42-.17-26.83-1.08-40.25-1.35-7.68-.15-15.39.55-23.08.54-7.86,0-15.72-.3-23.56-.77-2.72-.17-4.75-.17-6,2.7a22.41,22.41,0,0,1-3.64,5.89c-1.1,1.22-2.91,2.48-4.44,2.52-13.83.37-27.69,1-41.42-1.41a8.22,8.22,0,0,1-4.75-2.61,72.06,72.06,0,0,1-5.84-9.18c-.84-1.47-1.75-2-3.41-1.59a30.48,30.48,0,0,1-23.48-3.35c-7-4-12.82-9.38-16.61-16.89-3.27-6.48-6.65-12.88-7.18-20.19-.27-3.65.38-7.4.92-11.06,1-6.87,3.54-13.13,8.47-18.18,2.19-2.25,4.6-4.27,6.93-6.38.84-.77,1.73-1.48,3.18-2.71-4.1-.52-7.59-.84-11-1.44a35.48,35.48,0,0,1-7.88-2,5.27,5.27,0,0,1-2.56-3.52,51.31,51.31,0,0,1-.92-11.37c.52-7.91,1.73-15.79,2.34-23.7a38.82,38.82,0,0,1,4.61-15.05c1.45-2.81,6.37-5.16,10.29-4.55,2.27.35,4.49,1,6.84,1.55,0-3.29-.19-6.71,0-10.11C75.31,492.1,76,487,76.5,482c.45-4.58,1.47-9,.86-13.78s-.1-9.55-.11-14.33a33.68,33.68,0,0,0-.16-5.69,6.43,6.43,0,0,0-1.83-3c-1.84-2-3.77-3.88-5.77-5.7-2.26-2.05-4.61-4-7-5.94-3.42-2.84-5.75-6.14-6-10.85-.27-4.92-1-9.81-1.62-15a50.36,50.36,0,0,1-5.42-.46,32.21,32.21,0,0,1-6.42-1.73,6.26,6.26,0,0,1-4-6.34,140.63,140.63,0,0,1,1.1-16.06,178.26,178.26,0,0,0,1.55-28.46c-.07-9,.42-18,.87-27,.2-3.93,3.16-5.69,6.57-6.52s6.66-1.22,10-2a2.85,2.85,0,0,0,1.66-1.59,5.57,5.57,0,0,0,.16-2.7c-.74-5.43.85-10.53,2.25-15.63,1.44-5.29,4.49-7.43,10-7.5a12.65,12.65,0,0,0,2.93-.43c2.34-.58,3.42-1.76,3.38-4.53-.2-16.72-.19-33.44-.18-50.16,0-5.64.21-11.27.36-16.91a2.9,2.9,0,0,0-2.07-3.25c-3.09-1-4.26-3.09-5.1-6.45-3-11.86-2.16-23.65-.61-35.5,1.21-9.36,2.42-18.73,4-28,.88-5.2,2.84-10.21,3.74-15.41,2.2-12.64,10.43-19.39,22.08-22,12.67-2.87,25.53-4.91,38.36-7,3.69-.59,7.58,0,11.38.2s7.76.52,11.64.86a44.94,44.94,0,0,1,6.35.9,2.76,2.76,0,0,1,1.45,1.92c.35,1.85.4,3.76.58,5.69,3.88,0,7.59,0,11.31,0,2.11,0,2-1.81,1.91-3.11-.18-4.41,2-7.73,4.64-10.89,2.88-3.4,6.74-2.71,10.4-2.56,9.94.39,19.87,1,29.81,1.35a49.57,49.57,0,0,0,9.64-.77c10-1.67,20-.08,30,.63,5.34.37,10.76-.12,16.14-.33,6-.24,11.91-.72,17.87-.86,7.21-.17,12.58,5.23,12.86,12.64.17,4.24.2,4.26,4.35,4.44l39,1.75a31.91,31.91,0,0,1,3.22.32,22.37,22.37,0,0,0,12.06-1.13c4.37-1.68,9.4-1.69,14.17-2.21,7.81-.84,15.64-1.49,23.46-2.24,4.5-.43,5.14-.14,7.14,3.86a173.61,173.61,0,0,1,10.91,29c2,6.84,1.27,13.64-.88,20.31a57.05,57.05,0,0,1-3.68,9.14A7.27,7.27,0,0,1,418,175a45.56,45.56,0,0,0-4.95-.34c-.35,0-.72.57-1.07.87l-2.94-1-12.5-.55c-1.27-.82-3-1.35-3.72-2.5-1.94-3-3.44-6.33-5-9.29l-8.93,16.4,21.12.92,4.62,0h.19l.18-.07h3.54Zm30.46,176.51.43.56c.63.85,1.29,1.68,1.87,2.56.91,1.41,1.71,1,3-.36l-4.72-2.35-.59-.4-.19-.13ZM430.89,239.82l.5.49.16.69.33-.14-.47-.57-.49-.5-.37-.62-.49-.52-.55-.93c-2.49-3.36-4.84-6.85-7.55-10-1.45-1.7-2.3-3.84-4.7-5-1.26-.62-1.53-3.82-1.69-5.9-.37-4.76-.4-9.55-.57-14.32a7.44,7.44,0,0,0,.4-1.43q.59-7.4,1.12-14.79a3.62,3.62,0,0,0-.21-.94h-4A15,15,0,0,1,415,195q-.25,3.71-.49,7.4l-.63,5.49c-.76-4.76-1-9.53-1.44-14.29a25.79,25.79,0,0,0-1.09-4.23c-.22-1.54-1.22-1.92-2.64-2a77.44,77.44,0,0,1-8.88-.76c-7.49-1.27-14.92-2.86-22.41-4.08-4.16-.68-4.78-1.16-2.88-4.95,3.91-7.76,8.07-15.39,12.21-23,1.12-2.07,2.61-2,3.57.18a99.65,99.65,0,0,1,4.57,11.81c.77,2.66,1.84,4.06,4.69,3.61l5.78.26c4.42.23,8.84.53,13.26.61a2.75,2.75,0,0,0,2.05-1.47c1.7-4.54,3.28-9.12,4.79-13.72.63-1.94,1.61-4,1.35-5.92-.61-4.46-1.87-8.83-2.86-13.23q-1.59-5.16-3.16-10.3l-1.11.36,3.36,9.95c0,4.5.29,9-.23,13.49-.34,2.88-1.92,5.62-2.95,8.42.09-.57.17-1.14.28-1.71a55,55,0,0,0-.23-20.69c-.75-4.19-2.37-8.23-3.6-12.34-.38-2.61-.65-5.23-1.14-7.81-.92-4.74-1.34-5-6.14-4-7.53,1.45-15.07,2.83-22.58,4.41-4.89,1-9.74,2.25-14.56,3.56-.9.24-1.58,1.31-2.37,2-3.2,2.45-6.53,4.75-9.57,7.4-2.75,2.4-5.19,5.18-7.75,7.78l9.57,6.52c1.47,2.54,3.26,4.95,4.34,7.65,2.53,6.27,2.56,13,3,19.63-.05,2.17-.11,4.35-.15,6.53L368.69,194c0,.63,0,1.26,0,1.9-.18,6.59-.29,13.19-.55,19.78-.23,5.69-.4,11.39-1,17-.43,4,.34,5.4,4.57,6.05l.21.08.23,0c1.61.13,3.22.24,4.83.38,7.67.71,15.37,1.14,23,2.25,5.3.76,10.83,1.9,14.85,5.77a55.28,55.28,0,0,1,7.39,9.56c6.11,9.35,12.09,18.8,18,28.27a29,29,0,0,1,2.66,5.86c2,5.78,1,11.6.13,17.44a10.77,10.77,0,0,1-4,6.89c-5,4.23-10.07,8.37-14.93,12.74-6.89,6.21-14,11.77-23.31,14.16-5.24,1.35-7.82,1-11.26-3.88a86.85,86.85,0,0,1-14.55-35.6c-.92-5.2.52-8.48,4.72-11.2,4.45-2.89,8.64-6.27,14.16-6.82,1-.1,2.46.2,2.86.85,2.26,3.62,4.29,7.38,6.3,11.16.15.29-.39,1.19-.83,1.5-3.44,2.51-6.93,4.95-10.61,7.55,2.21,3.53,4.7,7.34,7,11.26.83,1.42,1.68,2,3.13,1.13,5.14-3.14,10.36-6.17,15.35-9.53,3.43-2.32,3.28-2.53.56-5.81a9,9,0,0,1-1.16-1.61q-3.86-7.8-7.65-15.61c-2.64-5.43-5.2-10.91-7.94-16.29a3.87,3.87,0,0,0-2.4-1.83,99.16,99.16,0,0,0-13-2c-6.34-.32-12.71-.08-18.9-.08,0,3.83.09,7.54,0,11.24-.39,13.09-1.08,26.19-1.21,39.28-.17,16.59.12,33.18.15,49.77,0,1.69.65,2.24,2.2,2.13.66,0,1.33,0,2,0,9-.14,18-.25,27-.5a4.15,4.15,0,0,0,2.47-1.54c2.11-2.42,3.92-5.12,6.14-7.42a32.25,32.25,0,0,1,24.56-10.2c17.83.35,30.16,11.68,33.32,28.31.82,4.31-.3,9-.78,13.53a16.38,16.38,0,0,1-1.73,6.43c-3.05,5.16-5.44,10.83-10.3,14.73L449,412.17l-2.11,1.47-1.22.83-3.74,1.75-5,1.87-1.45.3-3.52.72-2,.15-2.06,0-1-.07a42.45,42.45,0,0,1-4.92-.83c-3.36-.95-6.67-2.07-10-3.12l-1.73-.81-1.76-1.28,0,0-1.42-1L405.66,411l-3.69-3.8-.05-.05-1.76-2.27a.27.27,0,0,0-.18-.26l-1-1.43,0,0-1.29-2.26-.26-.74c-.3-.66-.59-1.32-.89-2l-.25-.51-.54-1.31c-.18-.55-.36-1.11-.55-1.66-.29-1.43-.43-1.46-2.12-.53l-3.44.76-1.54.22-2.45.27-2,.25-7.45.06-2-.2-4.47-.37-2-.35-1-.19c-.75-.55-1.45-1-1.41.54.18,3.36.47,6.72.51,10.09.11,9.06.12,18.13.16,27.2,0,.36,0,.72,0,1.08l0,2.91c0,1.35,0,2.7,0,4L365.69,453l0,1c0,.33,0,.66,0,1a11.05,11.05,0,0,0-.37,1.94c-.05,5-.12,10.09-.05,15.13.05,4.43.27,8.87.42,13.31,0,.83,0,1.66,0,2.49v1.49c0,.67,0,1.33,0,2l.06,1,.18,2.46q.15,3,.31,6c.06,1,.13,2,.2,2.94l.26,3.52.22,13.42.1,6.06c-.67,2.58-1.35,5.16-1.9,7.3,6.05,3.06,10.67,1.45,14.61-3a4.29,4.29,0,0,1,.78-.61,10.11,10.11,0,0,0,4.64-8.08c.26-5.46.52-10.92,1-16.36a19.45,19.45,0,0,1,1.4-4.3c.51,1,1.49,2,1.46,3-.2,6.7-.32,13.42-1.12,20.05-.32,2.58-2.31,5-3.59,7.41a15.06,15.06,0,0,1-1.5,1.93c5.39-1.5,7.16-3.73,7.27-8.8.22-10.77.28-21.55.63-32.32a113.46,113.46,0,0,1,1.43-11.55,3.23,3.23,0,0,1,.76-1.78c3.13-2.94,6.39-5.67,10.55-7.11,8.13-2.81,16.31-5.48,24.29-8.66a132.78,132.78,0,0,0,17-8.15c10.93-6.27,18.31-16.21,25.72-26l3-4-1-.64-2.22,3.77c-.76.62-1.53,1.23-2.28,1.87-4.58,3.92-9.09,7.92-13.76,11.72-1.24,1-3,1.46-4.46,2.16l-.39-.59a5.19,5.19,0,0,1,.77-1.39c4.07-3.86,8.24-7.62,12.27-11.52,6.26-6.08,12.24-12.5,15.24-20.86,2.45-6.82,4.08-13.94,6.28-20.85A18.17,18.17,0,0,0,484,377.2c-.67-1.85-1-3.82-1.72-5.67-3-8.16-6.45-15.92-14.08-21.25-3.62-2.52-6.23-6.52-9.29-9.85l-4.5-4.92c-3-2.11-7.1-2.47-9.07-6.07l.58-3.46,3.47-4,0,0a40.37,40.37,0,0,0-1,5c-.19,2.52.56,3.13,3.63,3.18-.69-4.67,1.93-8.29,3.89-12.14l1.27-2.1c.42-.95.83-1.9,1.25-2.86l1.31-2.6.24-1.33.77-1.15.13-.94c.57-1.14,1.15-2.27,1.73-3.4l-.83-.4-1,2.16-5.18,7.21-.58-.43c.35-.74.73-1.46,1-2.22,2-5,4.41-9.83,5.89-15,1.16-4,1.57-8.34-2.37-11.65a10.35,10.35,0,0,1-2.41-3.74,52.44,52.44,0,0,0-9.36-14.43,97.88,97.88,0,0,1-13.54-18c-4.07-7.13-10.8-12.18-18.25-15.94a9.14,9.14,0,0,1-3.89-6.77q.39-3.71.77-7.41l.7-.13c.46,2.35.84,4.72,1.41,7,.31,1.3.59,2.94,1.5,3.71,4.13,3.55,8.47,6.83,12.73,10.21l.6.94c.16.17.33.33.5.49ZM405.5,322.45l-.68.44-.2.12a9.45,9.45,0,0,0-1.94.25c-4.05,1.41-5.07.94-6.9-2.89-1.53-3.21-3.3-6.3-4.84-9.51-1.19-2.48-3.14-4.78-2.36-7.87L390,301.9l.59-.38h0l9.51-3.44-5.16-9.87L378,297.38c.48,1.88.75,3.53,1.31,5.07,2.8,7.61,5.53,15.26,8.6,22.76a77.25,77.25,0,0,0,5.52,10.19,2.92,2.92,0,0,0,2.44,1,24.9,24.9,0,0,0,10.46-4.26c7.23-5.11,14.7-9.88,22-14.95,4.85-3.38,10.86-6,10.45-13.48,0-.08.07-.16.06-.24-.32-3.57-.14-7.3-1.12-10.68-.83-2.82-3-5.24-4.62-7.84-2.89-4.73-5.77-9.47-8.68-14.2-3.38-5.49-6.93-10.9-10.13-16.5-1.77-3.1-4-5.28-7.53-5.86-7.34-1.21-14.68-2.4-22-3.38-3.17-.43-6.4-.31-9.6-.44l-4.86-.45c-5.4-2.2-7.59-5-7.5-9.51q.42-23,.86-45.94c.21-10.53.46-21.08-1.44-31.49-1.12-6.12-3.7-11.47-9.48-14.73-2.23-1.25-4.26-2.85-6.45-4.34l6.81-9.15-34.61-1.8c-.55,5.88-1,11.73-1.72,17.55a4.28,4.28,0,0,1-1.93,2.89,13.9,13.9,0,0,1-5.75,1.92c-15.58.47-31.16.74-46.74,1-4.09.08-5.78-1.36-5.79-5.5a41.38,41.38,0,0,1,1.07-9.06c.8-3.54,2.41-4.18,5.92-3.81a111,111,0,0,0,11.1.38,2,2,0,0,0,1.43-1.23,26.65,26.65,0,0,0,.55-4.06c-5.18,1-9.91-.36-15.06,1.1-8.56,2.43-17.54,1.64-26.27-.74-2.62-.72-5.48-.59-8.64-.88.4,2.21.69,3.86,1,5.64l7.41-.49c4.69-.28,6.41,1.17,6.9,5.84a4.73,4.73,0,0,1,.05,1c-.37,3.91-.75,7.82-1.13,11.83-1.25,0-2,0-2.72,0-9.36-.31-18.72-.69-28.09-.91-6.13-.15-12.27,0-18.41-.09-4.66-.08-7.18-2.2-7.74-6.75-.65-5.24-1-10.51-1.46-15.78L171,125.61c-.33,2.74-.64,5.38-.93,7.83-2.15,0-3.86,0-5.56,0-15.23.4-30.45.76-45.68,1.29a53,53,0,0,0-8.32,1.36,5.55,5.55,0,0,0-4.4,3.92c-3,9-6.15,17.92-9.31,27.09l6.8,2.07a10.45,10.45,0,0,0,.62-1.58c.76-3.73,1.6-7.44,2.19-11.2s1.91-4.9,5.68-4a68,68,0,0,1,8.15,2.21c1.4.54,2.48,1.94,3.68,3a5,5,0,0,1,.67.94h-.86a75.35,75.35,0,0,1-1.86,8.52c-1.81,5.33-4.15,10.49-5.89,15.84-2,6.06-3.78,12.19-5.16,18.4-.87,3.93.61,8.46-3.86,11.42a13.45,13.45,0,0,0-1.92.35,84.83,84.83,0,0,1-8.31,2.45c-1.92.35-2.52,1.07-2.46,2.89q.22,6.34.25,12.69c0,19.82,0,39.63.12,59.45.12,20.88.47,41.76.54,62.64q.12,37-.1,74c-.09,17.87-.41,35.74-.58,53.62-.11,10.1-.12,20.21-.21,30.31,0,1.81.53,2.75,2.52,3.27a8,8,0,0,1,4.35,2.95,18.56,18.56,0,0,1,3.34,11.71c-.63,8.73-1.61,17.44-2.42,26.17-.45,4.88-.86,9.77-1.29,14.78,1.4.47,2.78,1,4.21,1.4,5.06,1.43,9.14,4.36,13.15,7.72,5.67,4.76,8.76,11.15,12.13,17.38a18.27,18.27,0,0,1,2.56,8,35.5,35.5,0,0,1-4.08,17.71A94.31,94.31,0,0,0,125,631.3h2.88c25.38,0,50.76,0,76.14.13,25.54.11,51.09.37,76.63.52,23.64.14,47.27,0,70.9.45,5.38.09,8.54-1.58,10.76-6.26,1.25-2.64,2.87-5.27,6.13-6a88.22,88.22,0,0,1-1.12-9c-.15-5.11.08-10.24.1-15.36,0-7.2-.19-14.4,0-21.6.3-10.51.8-21,1.36-31.52.12-2.1-.84-3.13-2.55-3-3.86.24-5-2.67-6-5.21-2.48-6.21-2-12.83-2.12-19.38-.1-9.18-1.1-18.42-.41-27.53,1.32-17.3,1.25-34.6,1.45-51.91.13-11.6-.08-23.2.1-34.8a102.48,102.48,0,0,1,1.34-12.57c.2-1.43.62-2.67,2.81-1.28,1.28.81,3.47.18,5.26.21h4.44a5,5,0,0,0,1.21.16c8.48-.73,16.8.84,25.15,1.78a2.71,2.71,0,0,1,1.83,1.61c2.84,10.29,9.24,17.1,19.46,20.27,5.66,1.76,10.71.93,14.85-3.6l.84-.69c1.15-1.06,2.3-2.14,3.46-3.19,4.91-4.41,7.22-10,8.09-16.46.5-3.63-1-6.84-1.16-10.24-.33-6-2.91-11-5.71-16-3.38-6-7.75-8-14.5-6.82-11.41,2.06-19.44,8.39-23.91,19.1a2.33,2.33,0,0,1-2.81,1.65c-3.87-.28-7.76-.37-11.65-.45-3.3-.07-6.6,0-9.9,0-1.73,0-3.46.08-5.19.12l-4.44-.05c-2.43-.91-5.47-1.19-7.16-2.85a12,12,0,0,1-3.41-9.93c.62-7.09,1-14.21,1.32-21.32q1.72-36.37,3.34-72.76c.2-4.33.52-4.7,4.57-5.74l1.24-.13,2.2-.41.14,0,.09-.11,3.06-.37,1.51.16c.9-.05,1.8-.13,2.7-.16a89.3,89.3,0,0,1,22.69,2.4l2.92,2.45.49.65a.34.34,0,0,0,.12.27l.44.6v0c1,2.14,2.09,4.28,3.12,6.43q6.06,12.64,12.09,25.31c1.11,2.34,2.1,4.74,3.14,7.11l0,1.49-.57,1.73-.09.08-11.34,9.58a.32.32,0,0,0-.25.15l-.62.42-3.93,2.43-1,.54Zm-315-4.53v-.77a24,24,0,0,0,.35-2.65c.12-8.86.24-17.71.29-26.57q.18-30.06.29-60.12c0-3.7,0-7.41,0-11.09H85.29l.41,2.65c-.13,5.75-.23,11.5-.4,17.25-.29,9.77-.66,19.54-.93,29.31-.26,9.56-.5,19.13-.65,28.7-.09,6.2,0,12.4,0,18.61q-.18,35.94-.4,71.89c0,3.22.13,6.44.2,9.66L83.45,399l-.2,1.68-.11,15.28,0,1.3v.7c-.11,1.31-.29,2.62-.32,3.93-.16,6.36-.37,12.71-.39,19.07,0,4.88.2,9.76.34,14.64.17,6,.5,12.08.49,18.12,0,3.54-.74,7.07-.86,10.61-.27,7.7-.31,15.41-.56,23.1-.06,1.91.55,3,2.43,3.36l6,2V490.33q-.15-4.81-.29-9.63c0-.76,0-1.52,0-2.28a26.13,26.13,0,0,0,.41-3.39q-.09-13.12-.28-26.23c0-1.44-.24-2.88-.37-4.32l0-1,0-7.49v-1.48l0-1.51c0-2.14,0-4.28,0-6.42l.05-2.62v-1.32l0-4.19v-.77c0-2.73,0-5.46,0-8.19l0-1.76V406l0-1.86c.06-3.6.14-7.2.17-10.8q.18-25.94.35-51.89c0-5.7.19-11.4.29-17.1l0-3.83ZM371.71,547.63q.06,6.27.13,12.53l-.12,1.35-.15,2.5,0,1-.09,1.17c0,1.24-.1,2.48-.14,3.72,0,1.06,0,2.11,0,3.17,0,.43,0,.87,0,1.31,0,.72,0,1.45,0,2.18,0,.27,0,.54,0,.81,0,1.22-.05,2.45-.07,3.67,0,.94,0,1.87,0,2.8l0,1.17c0,.44,0,.88,0,1.32l.05.69-.07,1.82-.12,5.57,0,7.91,0,1.09.24,3.25-.09,12c-.51,1.45-.15,2.12,1.54,2.15,2.31,0,4.61.32,6.91.51,4.24.36,8.47.8,12.72,1a15.9,15.9,0,0,0,5.24-.51,25,25,0,0,0,5.12-2.5,23.06,23.06,0,0,0,9.08-9.49,16.49,16.49,0,0,0,2.1-2.74c2.55-5.38,5.12-10.75,7.42-16.24a74.71,74.71,0,0,0,2.46-8.42c.32-3.92.49-7.87,1-11.76.48-3.65,1.33-7.26,2-10.88l.91.16v24.86c5.89-7.68,6.55-15.89,4.84-24.56-.58-3-.56-6.26-1.84-8.91-3-6.21-6-12.35-10.59-17.77-6.89-8.16-15.21-14.35-24.05-20.05-1.35,4.13-.46,5.91,3.49,7.35a10.06,10.06,0,0,1,3.46,1.82c3,2.75,5.81,5.63,8.62,8.54,2.61,2.71,4.55,6.1,8.16,7.83a3.86,3.86,0,0,1,1.71,2.33c.71,2.86,1.18,5.77,1.74,8.67a30.57,30.57,0,0,1-3.44-6,4.59,4.59,0,0,0-4.39-3.06c-1-1.12-1.9-2.26-2.9-3.34-3.17-3.44-4.83-8.18-9.15-10.64-2.24-1.71-4.25-3.86-7.55-4.18-.16,3.56-.38,7-.45,10.36-.11,5.08-1.81,6.23-5.93,4.24-2.2,1.14-4.14,2.69-6.3,3.14-3.25.68-3.6,2.53-3.19,5.16.05.32.11.65.16,1,.31,10.08.45,20.18,1,30.24a46.15,46.15,0,0,0,2.25,10.15c1.52,5.15,4.79,8.6,10.25,9.71,1.74.35,3.31.38,4.39-1.33,1.81-2.86,3.82-5.63,5.39-8.62,2.65-5.06,4.93-10.32,7.56-15.39,1.87-3.58,1.93-4-1.37-6.18-.68-.46-1.46-.8-2.11-1.3-3.2-2.47-6.37-5-9.55-7.46-.4-.32-.78-.68-1.52-1.31-1.91,5.69-3.72,11-5.47,16.36-.16.52-.25,1.36,0,1.67,2,2.19,4.18,4.28,6.75,6.86.34-4.24.45-7.69,3.64-10.31-.22,3.73-.45,7.12-.6,10.5-.11,2.72-1.52,3.8-3.81,2.32-3.17-2.05-6-4.63-9-6.89a3.4,3.4,0,0,1-1.54-4.06c1.81-6,3.58-12,5.44-18,.63-2,1-4.52,3.62-4.85s3.61,2,5.15,3.42c2.57,2.44,5.15,4.87,7.81,7.21,1.6,1.42,3.43,2.59,5,4,2.27,2,3,4.47,1.64,7.39-1.45,3.15-3,6.27-4.18,9.54-2.25,6.34-4.81,12.51-8.67,18.08-1.84,2.65-4.19,4.45-7.51,3.83-7.07-1.31-12.65-4.75-15.6-11.68-.69-1.62-1.6-3.16-2.41-4.74-.22-2.37-.57-4.74-.63-7.12-.17-6.36-.2-12.73-.28-19.09q.31-6,.64-12.06c.14-1.91.29-3.83.43-5.71-5.47-.68-5.47-.68-5.4,4.28C371.65,546.64,371.69,547.13,371.71,547.63ZM103.14,187.46l-.43,1L101,192.65c-1.35,3.31-3.23,5.8-7.35,5.56-3.44-.19-7.74-1.84-7-6.35.59-3.59,1.07-7.21,1.84-10.76,1.58-7.36,3.62-14.63,4.93-22s3.27-14.33,7.07-20.79c2-3.38,4.38-5.95,8.62-6.18,2.21-.12,4.4-.53,6.6-.8a61.67,61.67,0,0,0,6.94-.18c4.8-.66,9.58-1.57,14.36-2.39h11.49c1.38.06,2.76.16,4.14.16,1.79,0,3.58-.06,5.36-.09l10.28,1.06.36.23v-.57L166.16,112c-.34-3.32-.34-3.25-3.62-3.26a47.81,47.81,0,0,1-8.64-.41,55.56,55.56,0,0,0-19.63.17c-9.52,1.56-19,3.26-28.55,4.78-6.34,1-11.76,3.51-16,8.58-3.84,4.64-4.5,10.5-6.53,15.84,0,.14,0,.33.07.49l-.26.2s.12,0,.15,0a1.21,1.21,0,0,0,.09-.2c.18-.17.41-.3.52-.51,2.36-4.15,4.67-8.34,7.09-12.46.36-.63,1.21-1,1.83-1.44-.87,2.83-1.42,5.8-2.65,8.46-8.62,18.47-11.66,38-11.86,58.21a27.48,27.48,0,0,0,3,13.65c1.39,2.59,3.27,3.85,6.23,3.39,1.47-.23,3-.4,4.44-.59l.2.62-3.92,2.11c5.49-.12,11,0,16-2.48a4.07,4.07,0,0,0,1.83-2.53c.5-2.25.45-4.62.93-6.87a125.85,125.85,0,0,1,14.28-36.39,26.45,26.45,0,0,0,1.13-2.52l-9.81-1.54c-1.13,4.15-2.19,8-3.25,11.89l-.3.66c-4.3,5-9,1.85-13.85.63C93.06,176.88,91,183.22,90.39,190c-.25,3,1.64,4.94,4.68,4.56a2.27,2.27,0,0,0,1.64-1.15c1.13-3.62,2.1-7.28,3.17-11.12l-2.4-.74L94.82,187l-.63-.13c0-3.12-.37-6.29,1.14-9.25a2.26,2.26,0,0,1,2-1,19.82,19.82,0,0,1,5.45,2.59,4.67,4.67,0,0,1,1.28,3.38,25.11,25.11,0,0,1-.87,4.85Zm258.28-66.05,3.51-3.08-47.18-2.16c.08,1.56.13,2.62.18,3.67-.27,1.42-.54,2.83-.74,3.85,6.1,0,11.94-.1,17.77,0,6.29.13,12.64,0,18.81.93a6.53,6.53,0,0,0,6.76-2.4C360.8,122,361.12,121.69,361.42,121.41ZM112.14,582.47h0a29.07,29.07,0,0,0-12.38-6.89c-2.16-.59-4.46-3.22-4.36-5.13.25-4.52.49-9.05.92-13.56,1-10.71,2.2-21.4,3.17-32.1.14-1.54,0-3.19-2.18-3.9-8.72-2.82-17.37-5.84-26.06-8.74a21.65,21.65,0,0,0-2.91-.55c-3.1-.86-4.22-.09-5.58,2.6a34,34,0,0,0-3.14,12.39c-1,9.75-3.13,19.37-2.75,29.26.18,4.59,0,4.59,4.58,5.94q.72.21,1.41.48L78.22,568l2.52-9.51,5.47-22.41-14.35-5.13-5.77,16.92,6.5,1.18c2.2-8,2.2-8,5-10,2.2,6.07-1.39,11.08-2.48,16.42a24.65,24.65,0,0,1-4.06-.75c-2.15-.75-4.17-1.87-6.31-2.63-3.33-1.19-4-2.37-2.95-5.74.86-2.73,1.8-5.43,2.7-8.15l2.94-7.54c1.23-3.17,3.82-4.19,7-2.89,3.28,1.36,6.6,2.62,9.92,3.86,4.43,1.66,5,2.48,5,7.28,0,.58,0,1.16.06,1.73l-.17,1.81a16.69,16.69,0,0,0-.81,2.31c-1.18,6.35-2,12.79-3.58,19-.89,3.47-.57,8.81-6.88,7.91-.06,0-.13.1-.2.15-1.5.83-3.34,1.36-4.46,2.55-3.46,3.73-7.1,7.42-9.84,11.67-3.54,5.48-3.91,12-3.67,18.38.26,7,4,12.87,7.4,18.7,5.05,8.61,12.43,14.31,22.42,16,2.63.44,5.45-.22,8.19-.37a18.73,18.73,0,0,0,4.13-.4,49.52,49.52,0,0,0,9-3.44c4.58-2.57,8.44-6,10.67-11,.77-1.73,1.66-3.41,2.44-5.13,3.07-6.81,6-13.73,1.72-21-2-3.49-4.75-6.59-7.16-9.86l-1.45-1.46-2.46-2.1-.49-.42-.59-.43a.36.36,0,0,0-.25-.17ZM53.41,401.64l2.21.47c.38-3,.64-5.74,1.11-8.49,1.12-6.59,2.6-13.19,1.59-19.9-.61-4.05.21-7.86.75-11.78a38.66,38.66,0,0,0,0-6.89c-.36-8.58-.85-17.14-1.1-25.72-.05-1.71.71-3.44,1.25-5.82l-3.53,1.1a42.4,42.4,0,0,1-5,1.36c-2.37.36-3.08,1.82-3.23,3.94-.5,7.25-1.06,14.51-1.6,21.76-.47,6.51-1.45,13-1.3,19.53.2,8.64,1.29,17.25,2,25.88.18,2.25,1.18,3.73,3.46,4.14C51.13,401.42,52.27,401.5,53.41,401.64ZM298.92,131.75c-.06-.26-.11-.52,0-.09l.05.06c-.12,2.3-1.3,3.31-3.63,3.44-11,.62-22,1.33-33,2.07-.6,0-1.6.52-1.67.91-.47,2.82-.74,5.66-1.12,8.85l15.07-1.24,7.86-.62c3.72-.09,7.43-.11,11.14-.28,5.2-.24,10.4-.6,15.6-.88,1.71-.1,2.23-.88,2.4-2.64a83.51,83.51,0,0,0-1-20.41,11.94,11.94,0,0,0,.05-1.46c-.23-3-1.08-6-.6-8.86a9.44,9.44,0,0,0-2.63-8.58,5,5,0,0,0-3-1.63c-10.43-.43-20.87-.69-31.3-1-1.81-.06-3.6-.43-5.41-.54a43.75,43.75,0,0,0-6.16-.16c-3.87.3-7.77,1.46-11.56,1.12-6.74-.59-13.32-1.29-20.19-.61-10.7,1.06-21.52.83-32.28,1.13-4.07.11-7.73,4.83-7,8.92a24.72,24.72,0,0,1,.22,5.44c-.22,4-.58,8.06-.89,12.1a10.86,10.86,0,0,0-.94,3c0,3.8.31,7.61.24,11.41,0,2.1.89,2.76,2.74,2.84,5.79.25,11.58.46,17.36.8,6.16.37,12.3.9,18.46,1.3,3.27.22,6.55.3,10,.46.12-2,.28-3.76.32-5.56.07-3.85,0-3.84-3.67-3.9-1.16,0-2.32-.12-3.48-.2-8.41-.59-16.82-1.25-25.25-1.74-2.38-.14-3.76-1-3.87-3.45.17-.2.34-.39.06-.06.09-.43,0-.17,0,.09-2.54-2.87-3.87-6-2.89-10a70.07,70.07,0,0,0,1.22-8.32c.35-2.85.61-5.71.91-8.56a8.88,8.88,0,0,1,1.91-.47c5.14-.06,10.28-.15,15.41,0,.88,0,1.74,1.21,2.6,1.85.46,3.78,1.12,7.55,1.33,11.35.26,4.77-2.27,7.22-7,7.23l-1.49,0c-2.94,0-3-.17-2.43-3.16a4.5,4.5,0,0,0-.25-1.93,25.31,25.31,0,0,1-1.22-4.29,8.78,8.78,0,0,1,.78-3.84,2.8,2.8,0,0,1,2.16-.09,17.66,17.66,0,0,1,1.19,4c.09.42-.28.94-.44,1.41-.49,1.46-1,2.93-1.62,4.82a40,40,0,0,1,5.3,0c2.2.31,2.71-.65,2.32-2.51-.69-3.33-1.41-6.65-2.22-9.95a1.86,1.86,0,0,0-1.26-1.15c-3.76-.26-7.53-.41-11.37-.59.18,3.13.32,6.09.51,9.06s.43,6,.64,8.92c-.15,1.77-.31,3.54-.46,5.21l18.56,1.45c.14-1.53.23-2.67.33-3.82.8-4.21.8-4.39,5.38-4.28,6.61.15,13.22.84,19.82.83,7.5,0,15-.58,22.5-.83a9.94,9.94,0,0,1,4.34.52c.71.32.85,1.88,1.3,2.86.09.19.41.27.62.4l1,4.22,15.91-1.47c-.21-1.2-.38-2.15-.55-3.1q.58-10,1.18-20c-3.79.19-7.34.33-10.88.59-.6,0-1.57.5-1.68.94-.88,3.53-1.66,7.1-2.29,10.69-.1.6.63,1.9,1.08,2a62.42,62.42,0,0,0,6.5.09c-.42-1.42-.7-2.34-1-3.28a25.16,25.16,0,0,1-1.17-4.28c-.17-1.6.45-3.13,2.4-3s2.36,1.62,2.09,3.25c-.24,1.38-.85,2.7-1,4.08s.13,2.8-.12,4.15c-.14.75-.92,1.92-1.5,2a48.36,48.36,0,0,1-6.7,0c-.44,0-1.15-.33-1.25-.66-.8-2.75-2.69-5.18-2-8.4.78-3.38,1.11-6.86,1.63-10.3a12.75,12.75,0,0,1,3.25-.94c4.54-.11,9.09,0,13.63-.09,1.68,0,2.83.45,3.45,2,.31,4.51.22,9.1,1,13.52S302.33,128.32,298.92,131.75ZM74.08,349.53a18,18,0,0,0,3.46-1.26,4.11,4.11,0,0,0,1.7-2.18,11.33,11.33,0,0,0,.07-3.11l-5.25-2.24a47.12,47.12,0,0,1-3.59-4c-2.11-2.95-3-6.31.66-8.62,1.38-.87,2.6-2,3.9-3,3.57-1.26,5.35-3.44,4.88-7.55-.35-3,.26-6.07.32-9.11.07-3.89,0-7.79,0-11.92l-4.49,1.66c-4,0-6.39,1.87-7.16,6-.83,4.37-2,8.68-3.07,13a79.15,79.15,0,0,0-2.39,25.54c.48,6.47-.14,13-.66,19.54-.33,4.09-1.86,8.09-2,12.17-.24,6.85,0,13.75.39,20.6.57,8.82,1.66,17.61,2.32,26.43.26,3.42,1.93,5.58,4.66,7.35,2,1.33,3.91,2.94,5.86,4.42,1.54,2,3.09,4.07,5,6.67,0-5.09,0-9.44,0-13.79s0-4.43-4.21-6.16c-2.29-2.85-4.25-6.1-7-8.44-2.36-2-1.27-3.23.07-4.52,2.3-2.21,4.83-4.18,7.27-6.26,3.56-.61,4.49-2.9,3.92-6.15a2.09,2.09,0,0,1,0-.25c0-3.47,0-3.47-3.46-3.64L68,385.25a2.76,2.76,0,0,1-.7-4.14A13.84,13.84,0,0,1,70.11,378c1.87-1.48,3.9-2.78,5.86-4.16l2.76-.27v-8.12l-3.45-.63c-1.91-1.16-3.88-2.24-5.71-3.51-2.94-2.07-3.16-3.86-.75-6.57C70.46,352.93,72.32,351.27,74.08,349.53ZM130,655c1.21-3.16,2.32-6.07,3.58-9.38a11.67,11.67,0,0,1,3,10c1.95,0,3.59,0,5.22,0s2.39-.31,2.06-2.3c-.49-2.9-.25-5.85,2.06-8.08,1.59-1.54,2.61-1.3,3.16.77a23.83,23.83,0,0,1,.58,4.86c.1,1.52,0,3.06,0,4.54,5.65.9,5.91.78,8.4-3.77.08-.14.13-.31.22-.44,2.74-4.29,6-7.67,11.75-7a72.91,72.91,0,0,0,7.68.43q24.36.5,48.72.92c6,.11,12.07.24,18.1.3,8.83.1,17.67.26,26.5.17,10.4-.12,20.77-1.63,31.21-.86,2.78.21,5.06.94,6.57,3.65,2.17,3.89,4.62,7.64,7,11.4,1.61,2.53,4,3.2,7.32,2.66a41.38,41.38,0,0,0-2.8-4.62,21.83,21.83,0,0,1-4.63-10.57c-.35-2.27.7-3.49,2.92-3.52,13.34-.18,26.69-.41,40-.54,4.35,0,7.84-1,8.68-6a4,4,0,0,1,.63-1.34c1.89-3.11,3.8-6.22,5.76-9.43a17,17,0,0,1-3-.77c-2.5-1.08-3.86,0-5,2.15s-2.53,4.26-3.66,6.46a3.72,3.72,0,0,1-3.83,2.11c-22.3-.2-44.61-.31-66.92-.51-13.16-.12-26.33-.38-39.49-.51q-32.22-.33-64.44-.57c-2.5,0-5,0-8,0l1.83,1.13c-4.46,0-8.36-.06-12.26,0-14.16.27-28.31.67-42.47.84-3.83,0-7.44-.57-10.59,2.76-1.72,1.83-4.59,2.55-6.94,3.78-1.25.65-1.69,1.41-.69,2.75a50.27,50.27,0,0,1,3.24,5c1.73,3,4.28,3.61,7.42,2.87-.5-5.57.64-8.84,3.47-9.58.29,3.33.57,6.63.87,10.2Zm193.35.42A49.08,49.08,0,0,1,326,661.1c.55,1.71,1.49,2.11,3.12,2,6.5-.37,13-.56,19.5-1,5.34-.37,10.68-.94,16-1.61a34.15,34.15,0,0,0,5.4-1.56l-.16-.26Zm-3.06-7.23c.4,1.7.07,3.32,2.34,3.33,5.19,0,10.38,0,15.57.14,10.24.28,20.49.59,30.73,1.07,2.92.14,3.86-1.45,4.68-3.8a5.86,5.86,0,0,0-1.06-.27c-5.41-.17-10.82-.31-16.24-.47-5.12-.16-10.24-.46-15.37-.45-5.62,0-11.24.29-16.86.44C322.89,648.2,321.75,648.18,320.24,648.18ZM171.57,122.37h11.35c.13-2.45.26-4.86.38-7.11H171.57ZM457.93,374.63l-8.25,2.75c.21,1.73.45,3.69.69,5.72a55.5,55.5,0,0,0,6-1.56,3.09,3.09,0,0,0,1.73-2A29,29,0,0,0,457.93,374.63Zm-8.53-5.37c.11,1.7.22,3.53.36,5.56l7.46-2.46-2.52-4.84ZM451,390.45c4.85.26,6.83-2,5.95-6.69L451,384.94ZM377,644.07c.54-2.23,1.07-4.39,1.6-6.58-3.47-.51-5.53,1-7.15,4.94Zm77.2-250.55c-4.11-.1-5.81,2.38-6.59,5.84C450.9,400.49,454.44,397.94,454.18,393.52Zm-1.37-28.35c-2.44-3.91-4.27-5.06-6.54-2.65l2,4.34Zm-74.3,262.54c-.93,4.82-.7,5.55,1.91,6.28a28.64,28.64,0,0,0,1.78-3.76,2.06,2.06,0,0,0-.7-1.86A12,12,0,0,0,378.51,627.71Zm66.06-220.39,5.76-5-.47-.56C447.41,402.82,444.55,403.34,444.57,407.32Zm37.93-.84-.84-.29c-.41,1.27-.81,2.54-1.22,3.81l.64.21C481.55,409,482,407.73,482.5,406.48Zm-2,4.94-.49-.12-.25,1.25.4.09Zm-60.91-286.3-.06.18.26,0a.41.41,0,0,0-.05-.19S419.68,125.12,419.63,125.12ZM382.26,534.36l.12.08,0-.13Z" fill="#090807"/><path d="M409,174.6l2.94,1c0,1.43,0,2.85,0,4.27l-3.39-.29C408.67,177.89,408.84,176.24,409,174.6Z" fill="#8af4bc"/><path d="M416.27,123.9c1.23,4.11,2.85,8.15,3.6,12.34a55,55,0,0,1,.23,20.69c-.11.57-.19,1.14-.28,1.71L417,164.07c-3.76,4.29-8.89,4.16-13.94,4.38l.91.23-4.39,1.51c-2.85.45-3.92-.95-4.69-3.61a99.65,99.65,0,0,0-4.57-11.81c-1-2.2-2.45-2.25-3.57-.18-4.14,7.64-8.3,15.27-12.21,23-1.9,3.79-1.28,4.27,2.88,4.95,7.49,1.22,14.92,2.81,22.41,4.08a77.44,77.44,0,0,0,8.88.76c1.42.08,2.42.46,2.64,2-.26.37-.69.7-.77,1.11a73.45,73.45,0,0,0-.91,25.6c.44,2.87,1.63,5.61,2.48,8.41A9.14,9.14,0,0,0,416,231.3c2.19,3.46,4.35,6.94,6.56,10.37,2.4,3.73,5.1,7.28,7.23,11.15,3.74,6.79,7.83,13.26,13.25,18.89,3,3.14,5.67,6.57,6.51,11.16,1.13,6.15,2.74,12.22,4,18.35a9.42,9.42,0,0,1-.18,4.12c-.52,2-1.41,3.88-2.12,5.82q-2.7,7.41-5.38,14.82c-.19,1.15-.39,2.31-.58,3.46a4.64,4.64,0,0,0-.94,5.67,32.49,32.49,0,0,0,11.92,14.51c2.88,1.89,6.26,3.32,8.54,5.77a42.43,42.43,0,0,1,10.95,20.69,24.71,24.71,0,0,1,.77,7.32,65.55,65.55,0,0,1-2.24,11.15c-2.28,8-4.61,16-7.31,23.88s-7.21,14.66-14.25,19.39c-3,2-6.28,3.67-9.46,5.44q-9.31,5.14-18.66,10.23c-5.13,2.79-10.31,5.5-15.41,8.36a11.24,11.24,0,0,0-2.29,2.37l-14.44,7a8.77,8.77,0,0,0-5.15,9.07c.33,4.45.58,8.91.87,13.37-.23,2.65-.45,5.31-.68,8a19.45,19.45,0,0,0-1.4,4.3c-.44,5.44-.7,10.9-1,16.36a10.11,10.11,0,0,1-4.64,8.08,4.29,4.29,0,0,0-.78.61c-3.94,4.43-8.56,6-14.61,3,.55-2.14,1.23-4.72,1.9-7.3,0-2-.07-4-.1-6.06q-.1-6.72-.22-13.42c.32-.5.63-1,.95-1.49.52,2.7.86,5.46,1.63,8.09.41,1.4,1.56,2.57,2.38,3.85a.53.53,0,0,0,0,.18s.09,0,.13,0l-.22-.2c-2-3.85-.74-7.88-.31-11.73,1.7-15.35,2.44-30.67.44-46.05-.21-1.63.29-3.35.47-5,1.81,5,5.46,8.1,10.46,9.69,3.67,1.17,5.25.35,6.49-3.24.15-.46.63-.82.73-1.27.21-1,.68-2.26.27-2.93s-1.77-.83-2.74-1.09c-1.7-.46-3.57-.54-5.12-1.3a37.45,37.45,0,0,1-5.28-3.66c-3-2.2-3.11-2.2-4.87.91q.1-7.89.2-15.76c4.88,5.46,10.22,10.31,17.11,13.19,2.28.95,4.37,2.37,6.69,3.21a31,31,0,0,0,7.38,1.79,4.62,4.62,0,0,0,4.83-3.18c-.71-.64-1.28-1.14-1.84-1.67-.74-.68-1.35-1.66-2.22-2-3.87-1.63-7.94-2.82-11.69-4.68-5.75-2.85-9.88-7.64-13.82-12.59-2.71-3.42-4.81-3.24-7.09.35Q371,420,370.22,409.45c-.29-4.17.7-5.78,4.58-7.44,1.13-.48,2.29-.91,3.45-1.33s2.49-.86,4.32-1.49l-6.45-2.52,0-.9,7.45-.06,2-.25,2.45-.27,1.54-.22,3.44-.76,2.12.53c.19.55.37,1.11.55,1.66l.54,1.31c.08.17.16.34.25.51.3.65.59,1.31.89,2,.09.24.18.49.26.74l1.29,2.26,0,0,1,1.43a.27.27,0,0,1,.18.27l1.76,2.26.05.05,3.69,3.8,1.33,1.11,1.42,1,0,0,1.76,1.28,1.73.81c4.39,3.55,9.47,4.47,14.93,4l1,.07c.71,1.15,1.4,1.17,2.06,0l2-.15,3.52-.72,1.45-.3,5-1.87,3.74-1.75,1.22-.83,2.11-1.47,1.37-1.05c4.86-3.9,7.25-9.57,10.3-14.73a16.38,16.38,0,0,0,1.73-6.43c.48-4.5,1.6-9.22.78-13.53-3.16-16.63-15.49-28-33.32-28.31a32.25,32.25,0,0,0-24.56,10.2c-2.22,2.3-4,5-6.14,7.42a4.15,4.15,0,0,1-2.47,1.54c-9,.25-18,.36-27,.5-.66,0-1.33,0-2,0-1.55.11-2.2-.44-2.2-2.13,0-16.59-.32-33.18-.15-49.77.13-13.09.82-26.19,1.21-39.28.11-3.7,0-7.41,0-11.24,6.19,0,12.56-.24,18.9.08a99.16,99.16,0,0,1,13,2,3.87,3.87,0,0,1,2.4,1.83c2.74,5.38,5.3,10.86,7.94,16.29q3.79,7.81,7.65,15.61a9,9,0,0,0,1.16,1.61c2.72,3.28,2.87,3.49-.56,5.81-5,3.36-10.21,6.39-15.35,9.53-1.45.89-2.3.29-3.13-1.13-2.31-3.92-4.8-7.73-7-11.26,3.68-2.6,7.17-5,10.61-7.55.44-.31,1-1.21.83-1.5-2-3.78-4-7.54-6.3-11.16-.4-.65-1.91-.95-2.86-.85-5.52.55-9.71,3.93-14.16,6.82-4.2,2.72-5.64,6-4.72,11.2a86.85,86.85,0,0,0,14.55,35.6c3.44,4.85,6,5.23,11.26,3.88C410,339.76,417.13,334.2,424,328c4.86-4.37,9.94-8.51,14.93-12.74a10.77,10.77,0,0,0,4-6.89c.87-5.84,1.88-11.66-.13-17.44a29,29,0,0,0-2.66-5.86c-5.93-9.47-11.91-18.92-18-28.27a55.28,55.28,0,0,0-7.39-9.56c-4-3.87-9.55-5-14.85-5.77-7.61-1.11-15.31-1.54-23-2.25-1.61-.14-3.22-.25-4.83-.38.57-2.64,1.22-5.27,1.69-7.93.76-4.29,1.85-8.58,2-12.89a110,110,0,0,0-.84-17c-.49-4,.6-8.66-3.66-11.55-.26-.17-.11-.94-.15-1.44l.24-.2c-.05,0-.12,0-.15,0a.64.64,0,0,0-.08.19,19.45,19.45,0,0,0-1.9,3,13.89,13.89,0,0,0-.56,3.07l.24-16.51c0-2.18.1-4.36.15-6.53.11.59.22,1.17.37,2,3.44-3.84,4.76-7.78,2.58-12.45a12.65,12.65,0,0,1-.45-1.66c-1.6-5.26-3-10.62-4.91-15.75-1.1-2.89-3.8-4.63-6.9-6,.75,2.52,1.36,4.54,2,6.56l-9.57-6.52c2.56-2.6,5-5.38,7.75-7.78,3-2.65,6.37-5,9.57-7.4,1.06,0,2.11,0,3.16,0,6.9-.37,13.8-.78,20.7-1.12,4.34-.21,8.68-.25,13-.48,3.17-.17,6.54-1.31,8.54,2.52C415.12,123.36,415.8,123.58,416.27,123.9Zm3.05,317.57c2.48-.13,5-.14,7.42-.44a6.75,6.75,0,0,0,5.53-6.13,3.46,3.46,0,0,0-3.67-4,50.44,50.44,0,0,1-23.14-5.83c-8-4.33-14.72-10-18.52-18.63a4.72,4.72,0,0,0-3.54-2.17,4.54,4.54,0,0,0-3.63,1.91c-1.56,3.45-2.37,7.27.18,10.6,3.42,4.45,6.8,9,10.81,12.89C398.64,437.28,407.91,442.07,419.32,441.47ZM374.83,129.78c1.25,1.89,2.13,3.49,3.25,4.88,2.44,3,5,6,7.53,8.9.8.94,1.66,1.84,2.53,2.73,1.72,1.76,3.45,1.74,5.53.39a48.26,48.26,0,0,0,12.54-12.26,15,15,0,0,0,1.81-4.58c.44-1.48-.25-2.33-1.71-3-5.4-2.67-11.08-2.66-16.79-1.86A47.76,47.76,0,0,0,374.83,129.78ZM400.2,213.9a19.63,19.63,0,0,0-.73-3.61c-1.6-3.82-3.25-7.61-5.05-11.34a12.23,12.23,0,0,0-2.59-3.29c-1.18-1.14-2.82-1.23-3.71.14-3.21,4.94-7.49,9.43-7.88,15.75-.51,8.34,3.2,15.61,6.21,23,.29.73,1.75,1,2.67,1.46.35-.75.71-1.48,1.05-2.23.17-.37.28-.78.48-1.14,2.79-5.06,5.63-10.09,8.36-15.19A19.68,19.68,0,0,0,400.2,213.9ZM373.52,356q.64-21.19,1.29-42.35c-1.26,5.12-2.1,10.24-2.93,15.36s-1.74,10.26-2.43,15.41c-.59,4.34-1,8.7-1.31,13.06-.16,2.66.84,3.33,3.38,3.45a33.79,33.79,0,0,1,5.56.84c1.94.43,3.81,1.32,5.75,1.46,1,.07,2.11-1,3.16-1.6a14.52,14.52,0,0,0-1.73-2.91,4.78,4.78,0,0,0-2.28-.87C379.17,357.18,376.36,356.59,373.52,356Zm-2.64-51.9c2-8.72,2.23-23.34.46-33.78C368.76,290.4,369.48,299,370.88,304.08Zm35.95-104.61c0-2.8-2-5.15-4.36-5.08a3.75,3.75,0,0,0-3.31,4,4.6,4.6,0,0,0,4.27,4.64A3.37,3.37,0,0,0,406.83,199.47Zm-27.69.5a3.48,3.48,0,0,0,3.52-3.64,4,4,0,0,0-4-3.89,3.18,3.18,0,0,0-3.48,3.33A4,4,0,0,0,379.14,200Z" fill="#c68e45"/><path d="M130,655h-6.66c-.3-3.57-.58-6.87-.87-10.2-2.83.74-4,4-3.47,9.58-3.14.74-5.69.1-7.42-2.87a50.27,50.27,0,0,0-3.24-5c-1-1.34-.56-2.1.69-2.75,2.35-1.23,5.22-2,6.94-3.78,3.15-3.33,6.76-2.72,10.59-2.76,14.16-.17,28.31-.57,42.47-.84,3.9-.08,7.8,0,12.26,0l-1.83-1.13c2.94,0,5.45,0,8,0q32.22.27,64.44.57c13.16.13,26.33.39,39.49.51,22.31.2,44.62.31,66.92.51A3.72,3.72,0,0,0,362,634.7c1.13-2.2,2.51-4.27,3.66-6.46s2.47-3.23,5-2.15a17,17,0,0,0,3,.77c-2,3.21-3.87,6.32-5.76,9.43a4,4,0,0,0-.63,1.34c-.84,5-4.33,6-8.68,6-13.34.13-26.69.36-40,.54-2.22,0-3.27,1.25-2.92,3.52a21.83,21.83,0,0,0,4.63,10.57,41.38,41.38,0,0,1,2.8,4.62c-3.32.54-5.71-.13-7.32-2.66-2.39-3.76-4.84-7.51-7-11.4-1.51-2.71-3.79-3.44-6.57-3.65-10.44-.77-20.81.74-31.21.86-8.83.09-17.67-.07-26.5-.17-6-.06-12.06-.19-18.1-.3q-24.36-.45-48.72-.92a72.91,72.91,0,0,1-7.68-.43c-5.77-.72-9,2.66-11.75,7-.09.13-.14.3-.22.44-2.49,4.55-2.75,4.67-8.4,3.77,0-1.48.08-3,0-4.54A23.83,23.83,0,0,0,149,646c-.55-2.07-1.57-2.31-3.16-.77-2.31,2.23-2.55,5.18-2.06,8.08.33,2-.42,2.35-2.06,2.3s-3.27,0-5.22,0a11.67,11.67,0,0,0-3-10C132.27,648.92,131.16,651.83,130,655Z" fill="#3a4a89"/><path d="M403.56,527c4.32,2.46,6,7.2,9.15,10.64,1,1.08,1.94,2.22,2.9,3.34.44.94.82,1.92,1.33,2.81,1.47,2.56,3.34,4.94,4.44,7.64,2.67,6.57,2.92,13.48,2.38,20.5a102.19,102.19,0,0,0,.21,10.49,74.71,74.71,0,0,1-2.46,8.42c-2.3,5.49-4.87,10.86-7.42,16.24a16.49,16.49,0,0,1-2.1,2.74,6.18,6.18,0,0,1-.68-2.05c.07-1.22.52-2.41.66-3.64.6-5.51,1.16-11,1.78-17-.69,1.37-1.3,2.4-1.74,3.51-2.6,6.52-5.11,13.08-7.76,19.59-.59,1.47-1.43,3-3.68,2.25.46-2.68.91-5.24,1.36-7.8a48.45,48.45,0,0,0-6,5.87c-1.53,1.69-2.78,4.49-4.59,4.9-6.55,1.5-13.29,2.2-19.95,3.21l.09-12c.63,2.34,1.26,4.67,2.06,7.61a9.3,9.3,0,0,0,1-2.08c.7-6.23,1.39-12.46,2-18.7.24-2.53.26-5.09.38-7.64.81,1.58,1.72,3.12,2.41,4.74,2.95,6.93,8.53,10.37,15.6,11.68,3.32.62,5.67-1.18,7.51-3.83,3.86-5.57,6.42-11.74,8.67-18.08,1.16-3.27,2.73-6.39,4.18-9.54,1.34-2.92.63-5.36-1.64-7.39-1.6-1.43-3.43-2.6-5-4-2.66-2.34-5.24-4.77-7.81-7.21-1.54-1.45-2.64-3.74-5.15-3.42s-3,2.84-3.62,4.85c-1.86,6-3.63,12-5.44,18a3.4,3.4,0,0,0,1.54,4.06c3,2.26,5.87,4.84,9,6.89,2.29,1.48,3.7.4,3.81-2.32.15-3.38.38-6.77.6-10.5-3.19,2.62-3.3,6.07-3.64,10.31-2.57-2.58-4.71-4.67-6.75-6.86-.29-.31-.2-1.15,0-1.67,1.75-5.34,3.56-10.67,5.47-16.36.74.63,1.12,1,1.52,1.31,3.18,2.49,6.35,5,9.55,7.46.65.5,1.43.84,2.11,1.3,3.3,2.23,3.24,2.6,1.37,6.18-2.63,5.07-4.91,10.33-7.56,15.39-1.57,3-3.58,5.76-5.39,8.62-1.08,1.71-2.65,1.68-4.39,1.33-5.46-1.11-8.73-4.56-10.25-9.71a46.15,46.15,0,0,1-2.25-10.15c-.56-10.06-.7-20.16-1-30.24,5.67-1.42,11.4-2.67,17-4.38a6.72,6.72,0,0,0,3.79-3.63c1.06-2.79,1.34-5.88,1.94-8.84C403.2,528.9,403.38,528,403.56,527Z" fill="#8a594a"/><path d="M166.16,112l2.52,17.5-.35.34-10.28-1.06c-4.75-.68-9.5-1.51-14.28-2-4.53-.43-9.1-.36-13.64-.7a98,98,0,0,0-24.26.73c-.4.07-.75.47-1.13.71l-.09.89,11.11,2.83c-2.2.27-4.39.68-6.6.8-4.24.23-6.63,2.8-8.62,6.18-3.8,6.46-5.76,13.45-7.07,20.79s-3.35,14.67-4.93,22c-.77,3.55-1.25,7.17-1.84,10.76-.75,4.51,3.55,6.16,7,6.35,4.12.24,6-2.25,7.35-5.56l1.67-4.14h.5q-1,6.69-2,13.4l.7.12c.23-1.09.4-2.2.7-3.26a131.13,131.13,0,0,1,14.54-32.71c.49-.8.28-2,.39-3.06a14.64,14.64,0,0,0-3.35.48c-.7.26-1.22,1.08-1.74,1.72-1.07,1.31-2.08,2.67-3.11,4,1.06-3.87,2.12-7.74,3.25-11.89l9.81,1.54a26.45,26.45,0,0,1-1.13,2.52,125.85,125.85,0,0,0-14.28,36.39c-.48,2.25-.43,4.62-.93,6.87a4.07,4.07,0,0,1-1.83,2.53c-5,2.5-10.49,2.36-16,2.48l3.92-2.11-.2-.62c-1.48.19-3,.36-4.44.59-3,.46-4.84-.8-6.23-3.39a27.48,27.48,0,0,1-3-13.65c.2-20.18,3.24-39.74,11.86-58.21,1.23-2.66,1.78-5.63,2.65-8.46,1.31-1,2.49-2.44,4-2.82a145.21,145.21,0,0,1,14.74-3.14c6.42-1,13-1.31,19.36-2.54s13-2.89,19.52-1.35A23.47,23.47,0,0,0,166.16,112Z" fill="#c68e45"/><path d="M118.56,588c2.41,3.27,5.11,6.37,7.16,9.86,4.28,7.29,1.35,14.21-1.72,21-.78,1.72-1.67,3.4-2.44,5.13-2.23,5-6.09,8.44-10.67,11a49.52,49.52,0,0,1-9,3.44,18.73,18.73,0,0,1-4.13.4c-.92-.21-1.83-.47-2.76-.61-3.82-.59-7.85-.61-11-3.24a61,61,0,0,1-6.79-6.46,45.14,45.14,0,0,1-10.06-21.59c-1.85-9.64-1.09-19.34,6.31-27.14a6.76,6.76,0,0,0,1.28-1.52c1.05-2.1,2-4.24,3-6.37.07,0,.14-.16.2-.15,6.31.9,6-4.44,6.88-7.91,1.58-6.25,2.4-12.69,3.58-19a16.69,16.69,0,0,1,.81-2.31q.6,8.06,1.19,16.11l.65-.08a76.8,76.8,0,0,1,1.1-9c1.37-5.76,3-11.46,4.69-17.14,1.27-4.29.2-7.12-3.91-8.85A37.44,37.44,0,0,0,86,521.39a28.64,28.64,0,0,0-13.77.06c.25.42.32.73.49.79,3,1.15,6,2.34,9,3.39,2.72,1,5.5,1.73,8.25,2.61,1.5.49,1.66,1.31,1.11,2.85a42.08,42.08,0,0,0-1.35,6.46c-.19,1-.3,2.07-.44,3.11,0-.57-.06-1.15-.06-1.73,0-4.8-.6-5.62-5-7.28-3.32-1.24-6.64-2.5-9.92-3.86-3.13-1.3-5.72-.28-7,2.89l-2.94,7.54a5.53,5.53,0,0,1-.46-1.84c.51-4.42,1-8.85,1.71-13.23.68-3.88,1.75-7.7,2.65-11.54a21.65,21.65,0,0,1,2.91.55c8.69,2.9,17.34,5.92,26.06,8.74,2.19.71,2.32,2.36,2.18,3.9-1,10.7-2.15,21.39-3.17,32.1-.43,4.51-.67,9-.92,13.56-.1,1.91,2.2,4.54,4.36,5.13a29.07,29.07,0,0,1,12.38,6.89c-.83-.31-1.66-.65-2.5-.92-3.51-1.13-7-2.23-10.54-3.34l-.36.87c3,2.47,5.81,5,8.87,7.37a26.77,26.77,0,0,1,8.14,9.86c3,6.33,4.66,12.77.85,19.42l-.28.27.46-.1a17,17,0,0,0,3-2.5c4.19-5.53,5.34-14.82,1.1-21.17A45,45,0,0,1,118.56,588Zm-4.73,19.15a25.21,25.21,0,0,0-22.35-25.54c-5.31-.6-10,1.2-14.31,4a16.74,16.74,0,0,0-6.75,8.75C66.25,605.44,71,618.85,82,625.13,96.72,633.55,113.69,623.91,113.83,607.1Z" fill="#c38c45"/><path d="M387.51,501.67c.23-2.66.45-5.32.68-8,.27-.25.75-.48.78-.76.56-4.58.88-9.21,1.67-13.75a9.29,9.29,0,0,1,2.66-5c1.52-1.38,3.74-2,5.69-2.87,5.89-2.61,11.87-5,17.68-7.8,4.6-2.2,9-4.78,13.5-7.21,1.7-.93,3.36-1.93,5-2.9a1.69,1.69,0,0,0-1.52,0c-5.93,2.51-11.82,5.09-17.77,7.54-3,1.22-6,2.21-9,3.31a11.24,11.24,0,0,1,2.29-2.37c5.1-2.86,10.28-5.57,15.41-8.36q9.34-5.08,18.66-10.23c3.18-1.77,6.45-3.41,9.46-5.44,7-4.73,11.55-11.51,14.25-19.39s5-15.87,7.31-23.88a65.55,65.55,0,0,0,2.24-11.15,24.71,24.71,0,0,0-.77-7.32,42.43,42.43,0,0,0-10.95-20.69c-2.28-2.45-5.66-3.88-8.54-5.77a32.49,32.49,0,0,1-11.92-14.51,4.64,4.64,0,0,1,.94-5.67c2,3.6,6.11,4,9.07,6.07.75,2.32,1.72,4.45,4.5,4.92,3.06,3.33,5.67,7.33,9.29,9.85,7.63,5.33,11,13.09,14.08,21.25.68,1.85,1,3.82,1.72,5.67a18.17,18.17,0,0,1-.11,12.11c-2.2,6.91-3.83,14-6.28,20.85-3,8.36-9,14.78-15.24,20.86-4,3.9-8.2,7.66-12.27,11.52a5.19,5.19,0,0,0-.77,1.39l.39.59c1.5-.7,3.22-1.14,4.46-2.16,4.67-3.8,9.18-7.8,13.76-11.72.75-.64,1.52-1.25,2.28-1.87l.2.89c-7.41,9.83-14.79,19.77-25.72,26a132.78,132.78,0,0,1-17,8.15c-8,3.18-16.16,5.85-24.29,8.66-4.16,1.44-7.42,4.17-10.55,7.11a3.23,3.23,0,0,0-.76,1.78A113.46,113.46,0,0,0,390.66,493c-.35,10.77-.41,21.55-.63,32.32-.11,5.07-1.88,7.3-7.27,8.8a15.06,15.06,0,0,0,1.5-1.93c1.28-2.45,3.27-4.83,3.59-7.41.8-6.63.92-13.35,1.12-20.05C389,503.69,388,502.67,387.51,501.67Z" fill="#684c25"/><path d="M373.19,374.48c1.73,0,3.46-.11,5.19-.12,3.3,0,6.6-.08,9.9,0,3.89.08,7.78.17,11.65.45a2.33,2.33,0,0,0,2.81-1.65c4.47-10.71,12.5-17,23.91-19.1,6.75-1.22,11.12.81,14.5,6.82,2.8,5,5.38,10,5.71,16,.18,3.4,1.66,6.61,1.16,10.24-.87,6.46-3.18,12.05-8.09,16.46-1.16,1.05-2.31,2.13-3.46,3.19l-.24-.21a13.81,13.81,0,0,0-2.32,0c-9.1,1.56-17.32-2.71-20.84-10.86l1-.14a22.93,22.93,0,0,0,3.3,3.24c7.06,4.66,14.65,1.83,19.42-4.25,3.41-4.34,4.71-9.32,2.27-14.17-5-9.84-11.38-12-21.86-9-5.23,1.5-8.25,5.27-7.78,11.51.06.72,0,1.45,0,2.22-2.7.28-3.47,1.77-3.48,4.12a20.09,20.09,0,0,0,14.48,18.95c5.1,1.34,10,.35,14.89-1.11l.36.41c-4.15,4.53-9.2,5.36-14.86,3.6-10.22-3.17-16.62-10-19.46-20.27a2.71,2.71,0,0,0-1.83-1.61c-8.35-.94-16.67-2.51-25.15-1.78a5,5,0,0,1-1.21-.16l.51-5.52a50,50,0,0,0,6.26,1.09c5.34.3,10.72.12,16.05.61a23.4,23.4,0,0,0,11.55-1.64.54.54,0,0,0,.07.19s.1,0,.16,0l-.23-.21a9.47,9.47,0,0,0-8.57-4.39c-8.43.12-16.85.6-25.28.93C373.5,377,373.34,375.75,373.19,374.48Zm61.21-5.71a1.31,1.31,0,0,0,.08.21.4.4,0,0,0,.16,0l-.26-.19a3.37,3.37,0,0,0-.45-1.09c-4.76-4.76-10.52-6.88-17.14-5.79S406,370.18,408,376.06c.2-.14.45-.23.56-.4,3.75-6.46,9.62-9.14,16.79-8.85C428.35,366.94,431.37,368.09,434.4,368.77Z" fill="#47c785"/><path d="M278.36,128c-.21-.13-.53-.21-.62-.4-.45-1-.59-2.54-1.3-2.86a9.94,9.94,0,0,0-4.34-.52c-7.5.25-15,.81-22.5.83-6.6,0-13.21-.68-19.82-.83-4.58-.11-4.58.07-5.38,4.28A63.24,63.24,0,0,0,206,125.64c-.21-3-.45-6-.64-8.92s-.33-5.93-.51-9.06c3.84.18,7.61.33,11.37.59a1.86,1.86,0,0,1,1.26,1.15c.81,3.3,1.53,6.62,2.22,9.95.39,1.86-.12,2.82-2.32,2.51a40,40,0,0,0-5.3,0c.63-1.89,1.13-3.36,1.62-4.82.16-.47.53-1,.44-1.41a17.66,17.66,0,0,0-1.19-4,2.8,2.8,0,0,0-2.16.09,8.78,8.78,0,0,0-.78,3.84,25.31,25.31,0,0,0,1.22,4.29,4.5,4.5,0,0,1,.25,1.93c-.61,3-.51,3.16,2.43,3.16l1.49,0c4.69,0,7.22-2.46,7-7.23-.21-3.8-.87-7.57-1.33-11.35,2.8.18,5.6.51,8.4.49q11.16-.09,22.32-.45c7.42-.25,14.84-.71,22.26-1,2-.09,4.07,0,6.1,0-.52,3.44-.85,6.92-1.63,10.3-.73,3.22,1.16,5.65,2,8.4.1.33.81.64,1.25.66a48.36,48.36,0,0,0,6.7,0c.58,0,1.36-1.22,1.5-2,.25-1.35-.07-2.79.12-4.15s.8-2.7,1-4.08c.27-1.63-.11-3.17-2.09-3.25s-2.57,1.45-2.4,3a25.16,25.16,0,0,0,1.17,4.28c.27.94.55,1.86,1,3.28a62.42,62.42,0,0,1-6.5-.09c-.45,0-1.18-1.35-1.08-2,.63-3.59,1.41-7.16,2.29-10.69.11-.44,1.08-.89,1.68-.94,3.54-.26,7.09-.4,10.88-.59q-.58,10-1.18,20c-1.47,0-2.95-.19-4.42-.14C286.35,127.61,282.35,127.81,278.36,128Zm-25.12-18.47c-3.7.5-6.56.84-9.41,1.27-2.25.34-3,2-1.74,3.58a57,57,0,0,0,7,7.12,2.8,2.8,0,0,0,2.73-.13,85.48,85.48,0,0,0,6.63-7.6,2.5,2.5,0,0,0-.54-2.39A32.74,32.74,0,0,0,253.24,109.51ZM271,113.63a3.22,3.22,0,0,0-3.2-3.12c-2-.09-3.94,1.52-4,3.29s1.36,3,3.49,3A3.44,3.44,0,0,0,271,113.63ZM230.46,116a3,3,0,0,0,3.27-2.94,3.19,3.19,0,0,0-3.25-3.29c-2,0-2.71,1.36-2.77,3.08A2.78,2.78,0,0,0,230.46,116Z" fill="#c18a43"/><path d="M75,325.1c-1.3,1-2.52,2.11-3.9,3-3.62,2.31-2.77,5.67-.66,8.62a47.12,47.12,0,0,0,3.59,4q0,4.39,0,8.79c-1.76,1.74-3.62,3.4-5.26,5.25-2.41,2.71-2.19,4.5.75,6.57,1.83,1.27,3.8,2.35,5.71,3.51l.69,9c-2,1.38-4,2.68-5.86,4.16a13.84,13.84,0,0,0-2.85,3.07,2.76,2.76,0,0,0,.7,4.14l7.4,5.42q-.24,5-.46,10c-2.44,2.08-5,4.05-7.27,6.26-1.34,1.29-2.43,2.51-.07,4.52,2.73,2.34,4.69,5.59,7,8.44,0,3.7.09,7.41,0,11.12a6.87,6.87,0,0,1-.86,2.16c-2-1.48-3.81-3.09-5.86-4.42-2.73-1.77-4.4-3.93-4.66-7.35-.66-8.82-1.75-17.61-2.32-26.43-.44-6.85-.63-13.75-.39-20.6.15-4.08,1.68-8.08,2-12.17.52-6.5,1.14-13.07.66-19.54a79.15,79.15,0,0,1,2.39-25.54c1.08-4.32,2.24-8.63,3.07-13,.77-4.11,3.14-5.94,7.16-6a5.36,5.36,0,0,1,0,1A93.17,93.17,0,0,0,75,325.1Z" fill="#c38b44"/><path d="M390,301.9,388.58,303c-1.91,1.41-1.77,3.15-1.13,5.21,1.86,6.06,5.54,11,9.21,16,2.48,3.37,3,3.44,6.3.5.59-.53,1.1-1.15,1.66-1.73l.2-.12.68-.44h0l1-.54,3.93-2.43.62-.42a.32.32,0,0,1,.25-.15c3.32-.39,6.42-.94,7.87-4.68.5-1.28,1.9-2.2,2.81-3.34a6.05,6.05,0,0,0,.66-1.56l.09-.08c1.5-.66,3-1.25,4.48-2,1.14-.59,1.3-1.47.69-2.69-1.68-3.4-3.09-6.94-4.87-10.29-3.95-7.41-7.88-14.85-12.21-22-1.27-2.1-3.86-3.39-5.84-5.06v0l-.44-.6a.34.34,0,0,1-.12-.27l-.49-.65L401,263.24c-2.3-2.8-4.64-5.44-8.89-4a5,5,0,0,1-2.2-.13c-2.76-.46-5.5-1-8.25-1.43-2.18-.34-4.37-.58-6.56-.87,0-.19,0-.39,0-.58v-8.8a2.88,2.88,0,0,0,.13-.31c3.42.57,6.85,1.09,10.26,1.72,8,1.47,16.27,1.76,22.54,8.62,6.6,7.21,13.72,13.89,17.43,23.22,3,7.5,6,15,9,22.47,1.19,3,.33,5.36-2,6.33a23.2,23.2,0,0,0-11,9.18,7,7,0,0,1-5.39,3.48,10.29,10.29,0,0,0-4.23,1.28c-4,2.67-8.06,5.44-11.88,8.43-2.6,2-3.74,2-5.43-.84-1.87-3.11-4-6.08-5.89-9.16-3.55-5.69-7.06-11.4-5.27-18.62.08-.34-.19-.77-.31-1.16-.7-2.17,0-4.32,2.21-5,2.76-.87,5.68-1.25,9.22-2l-4,6.47h0Z" fill="#8dfbf8"/><path d="M390.53,301.52l4-6.47c-3.54.72-6.46,1.1-9.22,2-2.19.69-2.91,2.84-2.21,5,.12.39.39.82.31,1.16-1.79,7.22,1.72,12.93,5.27,18.62,1.93,3.08,4,6.05,5.89,9.16,1.69,2.81,2.83,2.88,5.43.84,3.82-3,7.83-5.76,11.88-8.43a10.29,10.29,0,0,1,4.23-1.28,7,7,0,0,0,5.39-3.48,23.2,23.2,0,0,1,11-9.18c2.31-1,3.17-3.3,2-6.33-2.94-7.51-6-15-9-22.47-3.71-9.33-10.83-16-17.43-23.22-6.27-6.86-14.51-7.15-22.54-8.62-3.41-.63-6.84-1.15-10.26-1.72-.06-.84-.12-1.69-.17-2.54,3.2.13,6.43,0,9.6.44,7.37,1,14.71,2.17,22,3.38,3.5.58,5.76,2.76,7.53,5.86,3.2,5.6,6.75,11,10.13,16.5,2.91,4.73,5.79,9.47,8.68,14.2,1.59,2.6,3.79,5,4.62,7.84,1,3.38.8,7.11,1.12,10.68,0,.08-.07.16-.06.24.41,7.5-5.6,10.1-10.45,13.48-7.26,5.07-14.73,9.84-22,14.95a24.9,24.9,0,0,1-10.46,4.26,2.92,2.92,0,0,1-2.44-1,77.25,77.25,0,0,1-5.52-10.19c-3.07-7.5-5.8-15.15-8.6-22.76-.56-1.54-.83-3.19-1.31-5.07l16.89-9.17,5.16,9.87Z" fill="#45c483"/><path d="M280.08,105.34c-2,0-4.07-.12-6.1,0-7.42.31-14.84.77-22.26,1s-14.88.39-22.32.45c-2.8,0-5.6-.31-8.4-.49-.86-.64-1.72-1.82-2.6-1.85-5.13-.16-10.27-.07-15.41,0a8.88,8.88,0,0,0-1.91.47c-1.24.5-2.8.68-3.66,1.55-3,3-3.95,6.78-4.09,10.94-.11,3.44-.53,6.9-3.48,9.35.31-4,.67-8.07.89-12.1a24.72,24.72,0,0,0-.22-5.44c-.7-4.09,3-8.81,7-8.92,10.76-.3,21.58-.07,32.28-1.13,6.87-.68,13.45,0,20.19.61,3.79.34,7.69-.82,11.56-1.12a43.75,43.75,0,0,1,6.16.16c1.81.11,3.6.48,5.41.54,10.43.36,20.87.62,31.3,1a5,5,0,0,1,3,1.63,9.44,9.44,0,0,1,2.63,8.58c-.48,2.84.37,5.9.6,8.86a11.71,11.71,0,0,1-.05,1.45c-2.06-3.88-4.36-7.67-6.08-11.7-.9-2.12-1.92-3.12-4.14-2.87-.62-1.58-1.77-2.07-3.45-2-4.54.1-9.09,0-13.63.09A12.75,12.75,0,0,0,280.08,105.34Z" fill="#684c25"/><path d="M445.87,326q2.69-7.41,5.38-14.82c.71-1.94,1.6-3.83,2.12-5.82a9.42,9.42,0,0,0,.18-4.12c-1.26-6.13-2.87-12.2-4-18.35-.84-4.59-3.49-8-6.51-11.16-5.42-5.63-9.51-12.1-13.25-18.89-2.13-3.87-4.83-7.42-7.23-11.15-2.21-3.43-4.37-6.91-6.56-10.37,7.45,3.76,14.18,8.81,18.25,15.94a97.88,97.88,0,0,0,13.54,18,52.44,52.44,0,0,1,9.36,14.43,10.35,10.35,0,0,0,2.41,3.74c3.94,3.31,3.53,7.65,2.37,11.65-1.48,5.13-3.87,10-5.89,15-.3.76-.68,1.48-1,2.22l.58.43,5.18-7.21c0,.55,0,1.09.05,1.64,0,.31-.09.62-.13.94l-.77,1.15-.24,1.33c-.44.87-.87,1.74-1.31,2.6s-.83,1.91-1.25,2.86c-.42.7-.84,1.4-1.27,2.1-2,3.85-4.58,7.47-3.89,12.14-3.07-.05-3.82-.66-3.63-3.18a40.37,40.37,0,0,1,1-5l.11-.17-.08.2Z" fill="#684c25"/><path d="M189.85,126.74c3-2.45,3.37-5.91,3.48-9.35.14-4.16,1.12-8,4.09-10.94.86-.87,2.42-1,3.66-1.55-.3,2.85-.56,5.71-.91,8.56a70.07,70.07,0,0,1-1.22,8.32c-1,4,.35,7.1,2.89,10l0,0c.11,2.48,1.49,3.31,3.87,3.45,8.43.49,16.84,1.15,25.25,1.74,1.16.08,2.32.18,3.48.2,3.71.06,3.74,0,3.67,3.9,0,1.8-.2,3.6-.32,5.56-3.49-.16-6.77-.24-10-.46-6.16-.4-12.3-.93-18.46-1.3-5.78-.34-11.57-.55-17.36-.8-1.85-.08-2.78-.74-2.74-2.84.07-3.8-.25-7.61-.24-11.41A10.86,10.86,0,0,1,189.85,126.74Zm3.4,13.43c10.44,3.49,21.14,1.35,31,4.7C218.38,140.22,202.56,135.34,193.25,140.17Z" fill="#c38c45"/><path d="M300.41,106.34c2.22-.25,3.24.75,4.14,2.87,1.72,4,4,7.82,6.08,11.7,1,6.78,1.66,13.55,1,20.42-.17,1.76-.69,2.54-2.4,2.64-5.2.28-10.4.64-15.6.88-3.71.17-7.42.19-11.14.28,8.07-2.66,16.12-5.43,25.07-4.3-.33-.39-.4-.55-.52-.6-.46-.18-.94-.34-1.41-.48-7.22-2.12-14.55-1.9-21.87-.81a67.67,67.67,0,0,0-9.58,2.27c-.86.26-2.09,1.73-1.94,2.31.24.89,1.54,1.5,2.39,2.23L259.54,147c.38-3.19.65-6,1.12-8.85.07-.39,1.07-.87,1.67-.91,11-.74,22-1.45,33-2.07,2.33-.13,3.51-1.14,3.63-3.44l0,0c3.41-3.43,3.36-7.41,2.53-11.89S300.72,110.85,300.41,106.34Z" fill="#c38c45"/><path d="M53.41,401.64c-1.14-.14-2.28-.22-3.4-.42-2.28-.41-3.28-1.89-3.46-4.14-.67-8.63-1.76-17.24-2-25.88-.15-6.5.83-13,1.3-19.53.54-7.25,1.1-14.51,1.6-21.76.15-2.12.86-3.58,3.23-3.94a41.72,41.72,0,0,0,5-1.36c-2.5,12.3-2.69,24.72-2.42,37.21C53.57,375.09,53.38,388.37,53.41,401.64Z" fill="#c38b44"/><path d="M424,582.43a102.19,102.19,0,0,1-.21-10.49c.54-7,.29-13.93-2.38-20.5-1.1-2.7-3-5.08-4.44-7.64-.51-.89-.89-1.87-1.33-2.81a4.59,4.59,0,0,1,4.39,3.06,30.57,30.57,0,0,0,3.44,6c-.56-2.9-1-5.81-1.74-8.67a3.86,3.86,0,0,0-1.71-2.33c-3.61-1.73-5.55-5.12-8.16-7.83-2.81-2.91-5.65-5.79-8.62-8.54a10.06,10.06,0,0,0-3.46-1.82c-3.95-1.44-4.84-3.22-3.49-7.35,8.84,5.7,17.16,11.89,24.05,20.05,4.58,5.42,7.61,11.56,10.59,17.77,1.28,2.65,1.26,5.92,1.84,8.91,1.71,8.67,1.05,16.88-4.84,24.56V560l-.91-.16c-.69,3.62-1.54,7.23-2,10.88C424.46,574.56,424.29,578.51,424,582.43Z" fill="#472f27"/><path d="M68.34,511.61c-.9,3.84-2,7.66-2.65,11.54-.76,4.38-1.2,8.81-1.71,13.23a5.53,5.53,0,0,0,.46,1.84c-.9,2.72-1.84,5.42-2.7,8.15-1.07,3.37-.38,4.55,2.95,5.74,2.14.76,4.16,1.88,6.31,2.63a24.65,24.65,0,0,0,4.06.75l5.68,3L78.22,568l-15.36-5.7q-.69-.27-1.41-.48c-4.55-1.35-4.4-1.35-4.58-5.94-.38-9.89,1.79-19.51,2.75-29.26a34,34,0,0,1,3.14-12.39C64.12,511.52,65.24,510.75,68.34,511.61Z" fill="#684c25"/><path d="M166.16,112a23.47,23.47,0,0,1-15.85,1.91c-6.56-1.54-13,.11-19.52,1.35s-12.94,1.53-19.36,2.54A145.21,145.21,0,0,0,96.69,121c-1.47.38-2.65,1.85-4,2.82-.62.47-1.47.81-1.83,1.44-2.42,4.12-4.73,8.31-7.09,12.46-.11.21-.34.34-.52.51l0,0c0-.16-.12-.35-.07-.49,2-5.34,2.69-11.2,6.53-15.84,4.19-5.07,9.61-7.56,16-8.58,9.53-1.52,19-3.22,28.55-4.78a55.56,55.56,0,0,1,19.63-.17,47.81,47.81,0,0,0,8.64.41C165.82,108.78,165.82,108.71,166.16,112Z" fill="#684c25"/><path d="M83.51,394.79c-.07-3.22-.22-6.44-.2-9.66q.18-35.94.4-71.89c0-6.21-.08-12.41,0-18.61.15-9.57.39-19.14.65-28.7.27-9.77.64-19.54.93-29.31.17-5.75.27-11.5.4-17.25a6.11,6.11,0,0,1,.63,1.25c.63,2.58,1.23,5.16,1.84,7.74,0,.64,0,1.28,0,1.92l0,.62-.55,7.82-.06.68v.82l0,.66,0,.91a3.5,3.5,0,0,0-.48,1.07c-.52,8.32-1.32,16.63-1.42,25-.13,11.9.25,23.8.41,35.7l.33,8.42.36,0v-8.32a34.82,34.82,0,0,1,0-4.68,50.62,50.62,0,0,1,1.23-5.22c.19,5.85.36,11.71.58,17.56a8.07,8.07,0,0,0,.52,1.79l0,2a18,18,0,0,0-.54,3.3c.07,4.7.61,9.43.34,14.11-.78,13.09-1.88,26.16-2.84,39.25-.53,7.24-1,14.48-1.58,21.72C84.19,393.87,83.76,394.32,83.51,394.79Z" fill="#5e4953"/><path d="M77.7,571.88c-1,2.13-1.94,4.27-3,6.37a6.76,6.76,0,0,1-1.28,1.52c-7.4,7.8-8.16,17.5-6.31,27.14A45.14,45.14,0,0,0,77.18,628.5,61,61,0,0,0,84,635c3.16,2.63,7.19,2.65,11,3.24.93.14,1.84.4,2.76.61-2.74.15-5.56.81-8.19.37-10-1.69-17.37-7.39-22.42-16-3.41-5.83-7.14-11.7-7.4-18.7-.24-6.35.13-12.9,3.67-18.38,2.74-4.25,6.38-7.94,9.84-11.67C74.36,573.24,76.2,572.71,77.7,571.88Z" fill="#684c25"/><path d="M83.51,394.79c.25-.47.68-.92.72-1.41.56-7.24,1-14.48,1.58-21.72,1-13.09,2.06-26.16,2.84-39.25.27-4.68-.27-9.41-.34-14.11a18,18,0,0,1,.54-3.3c.15.68.32,1.37.45,2.06.47,2.43.92,4.87,1.38,7.31-.1,5.7-.24,11.4-.29,17.1q-.21,25.95-.35,51.89c0,3.6-.11,7.2-.17,10.8A11.23,11.23,0,0,0,88.25,407c-.92,4.58-1.71,9.19-2.45,13.81-.46,2.88-.74,5.8-1.1,8.7-.15-1.27-.26-2.54-.44-3.81-.37-2.6-.77-5.2-1.16-7.8v-.7c0-.43,0-.87,0-1.3q.06-7.63.11-15.28c.07-.56.13-1.12.2-1.68Z" fill="#aa8294"/><path d="M53.41,401.64c0-13.27.16-26.55-.13-39.82-.27-12.49-.08-24.91,2.42-37.21l3.54-1.1c-.54,2.38-1.3,4.11-1.25,5.82.25,8.58.74,17.14,1.1,25.72a38.66,38.66,0,0,1,0,6.89c-.54,3.92-1.36,7.73-.75,11.78,1,6.71-.47,13.31-1.59,19.9-.47,2.75-.73,5.53-1.11,8.49Z" fill="#684c25"/><path d="M371.38,618.64c6.66-1,13.4-1.71,19.95-3.21,1.81-.41,3.06-3.21,4.59-4.9a48.45,48.45,0,0,1,6-5.87c-.45,2.56-.9,5.12-1.36,7.8,2.25.8,3.09-.78,3.68-2.25,2.65-6.51,5.16-13.07,7.76-19.59.44-1.11,1.05-2.14,1.74-3.51-.62,6-1.18,11.52-1.78,17-.14,1.23-.59,2.42-.66,3.64a6.18,6.18,0,0,0,.68,2.05,23.06,23.06,0,0,1-9.08,9.49,25,25,0,0,1-5.12,2.5,15.9,15.9,0,0,1-5.24.51c-4.25-.23-8.48-.67-12.72-1-2.3-.19-4.6-.48-6.91-.51C371.23,620.76,370.87,620.09,371.38,618.64Z" fill="#4b3129"/><path d="M88.17,228.36c-.61-2.58-1.21-5.16-1.84-7.74a6.11,6.11,0,0,0-.63-1.25c-.12-.81-.25-1.62-.41-2.65h6.09c0,3.68,0,7.39,0,11.09q-.13,30.06-.29,60.12c0,8.86-.17,17.71-.29,26.57a24,24,0,0,1-.35,2.65L88.87,313a8.07,8.07,0,0,1-.52-1.79c-.22-5.85-.39-11.71-.58-17.55,0-.47,0-.94,0-1.41l-.21-1.17-.76-1.95.4-5.13c.06-3.12.12-6.23.17-9.35q.4-8.07.8-16.14c.31-10.65.63-21.31.94-31.89Z" fill="#aa8294"/><path d="M368.69,194a13.89,13.89,0,0,1,.56-3.07,19.45,19.45,0,0,1,1.9-3h0c0,.5-.11,1.27.15,1.44,4.26,2.89,3.17,7.57,3.66,11.55a110,110,0,0,1,.84,17c-.13,4.31-1.22,8.6-2,12.89-.47,2.66-1.12,5.29-1.69,7.93l-.23,0-.21-.08a17.1,17.1,0,0,1-3.55-11.31q.66-11.48,1-23c.08-2.86-.29-5.72-.45-8.58C368.67,195.29,368.68,194.66,368.69,194Z" fill="#faf690"/><path d="M80.74,558.47l-5.68-3c1.09-5.34,4.68-10.35,2.48-16.42-2.75,2-2.75,2-5,10l-6.5-1.18,5.77-16.92,14.35,5.13Z" fill="#c18a43"/><path d="M416.27,123.9c-.47-.32-1.15-.54-1.38-1-2-3.83-5.37-2.69-8.54-2.52-4.33.23-8.67.27-13,.48-6.9.34-13.8.75-20.7,1.12-1.05.06-2.1,0-3.16,0,.79-.69,1.47-1.76,2.37-2,4.82-1.31,9.67-2.54,14.56-3.56,7.51-1.58,15-3,22.58-4.41,4.8-.93,5.22-.69,6.14,4C415.62,118.67,415.89,121.29,416.27,123.9Z" fill="#684c25"/><path d="M83.1,417.94c.39,2.6.79,5.2,1.16,7.8.18,1.27.29,2.54.44,3.81,0,2.47-.09,4.94-.14,7.41l.1,1.59q.87,8.4,1.73,16.79l.18.66.2,2.42a16.85,16.85,0,0,0-.41,2.61c0,3.53.31,7.08.08,10.59-.38,5.64-1.33,11.24-1.63,16.88-.4,7.41-.4,14.84-.58,22.27-1.88-.34-2.49-1.45-2.43-3.36.25-7.69.29-15.4.56-23.1.12-3.54.84-7.07.86-10.61,0-6-.32-12.08-.49-18.12-.14-4.88-.36-9.76-.34-14.64,0-6.36.23-12.71.39-19.07C82.81,420.56,83,419.25,83.1,417.94Z" fill="#5e4953"/><path d="M376.89,585.84c-.12,2.55-.14,5.11-.38,7.64-.6,6.24-1.29,12.47-2,18.7a9.3,9.3,0,0,1-1,2.08c-.8-2.94-1.43-5.27-2.06-7.61l-.24-3.25c0-.36,0-.72,0-1.09l0-7.91.12-5.57c0-.61,0-1.22.07-1.82,0-.23,0-.46-.05-.69V585l0-1.17c0-.93,0-1.86,0-2.8,0-1.22,0-2.45.07-3.67,0-.27,0-.54,0-.81,0-.73,0-1.46,0-2.18,0-.44,0-.88,0-1.31,0-1.06,0-2.11,0-3.17,0-1.24.09-2.48.14-3.72l.09-1.17c0-.33,0-.66,0-1l.15-2.5.12-1.35c1.19-1.66,2.54-2.07,4.14-.53.08,6.36.11,12.73.28,19.09C376.32,581.1,376.67,583.47,376.89,585.84Z" fill="#f8bb9d"/><path d="M89.34,540.66c.14-1,.25-2.08.44-3.11a42.08,42.08,0,0,1,1.35-6.46c.55-1.54.39-2.36-1.11-2.85-2.75-.88-5.53-1.66-8.25-2.61-3-1-6-2.24-9-3.39-.17-.06-.24-.37-.49-.79A28.64,28.64,0,0,1,86,521.39a37.44,37.44,0,0,1,6.85,2.12c4.11,1.73,5.18,4.56,3.91,8.85-1.68,5.68-3.32,11.38-4.69,17.14a76.8,76.8,0,0,0-1.1,9l-.65.08q-.58-8.05-1.19-16.11C89.23,541.87,89.28,541.26,89.34,540.66Z" fill="#faf690"/><path d="M118.56,588a45,45,0,0,0,2.27,4.29c4.24,6.35,3.09,15.64-1.1,21.17a17,17,0,0,1-3,2.5l-.18-.17c3.81-6.65,2.17-13.09-.85-19.42a26.77,26.77,0,0,0-8.14-9.86c-3.06-2.32-5.92-4.9-8.87-7.37l.36-.87c3.51,1.11,7,2.21,10.54,3.34.84.27,1.67.61,2.5.92h0l1.18.9a.36.36,0,0,1,.25.17l.59.43.49.42,2.46,2.1Z" fill="#faf690"/><path d="M323.3,655.41l46.53,3.26.16.26a34.15,34.15,0,0,1-5.4,1.56c-5.32.67-10.66,1.24-16,1.61-6.49.46-13,.65-19.5,1-1.63.09-2.57-.31-3.12-2A49.08,49.08,0,0,0,323.3,655.41Z" fill="#1e2646"/><path d="M84.23,510.77c.18-7.43.18-14.86.58-22.27.3-5.64,1.25-11.24,1.63-16.88.23-3.51-.08-7.06-.08-10.59a16.85,16.85,0,0,1,.41-2.61q.63,3.74,1.24,7.48c.42-4.31.59-8.61.87-12.9.19-2.85.55-5.68.83-8.52.13,1.44.35,2.88.37,4.32q.19,13.11.28,26.23a26.13,26.13,0,0,1-.41,3.39c-.14-.89-.28-1.78-.45-2.8-2,4.17-2.26,32.17-.43,35.16q.59-5.79,1.16-11.54v13.51Z" fill="#aa8294"/><path d="M403.56,527c-.18,1-.36,1.89-.55,2.84-.6,3-.88,6-1.94,8.84a6.72,6.72,0,0,1-3.79,3.63c-5.58,1.71-11.31,3-17,4.38-.05-.32-.11-.65-.16-1-.41-2.63-.06-4.48,3.19-5.16,2.16-.45,4.1-2,6.3-3.14,4.12,2,5.82.84,5.93-4.24.07-3.4.29-6.8.45-10.36C399.31,523.15,401.32,525.3,403.56,527Z" fill="#4b3129"/><path d="M320.24,648.18c1.51,0,2.65,0,3.79,0,5.62-.15,11.24-.44,16.86-.44,5.13,0,10.25.29,15.37.45,5.42.16,10.83.3,16.24.47a5.86,5.86,0,0,1,1.06.27c-.82,2.35-1.76,3.94-4.68,3.8-10.24-.48-20.49-.79-30.73-1.07-5.19-.15-10.38-.11-15.57-.14C320.31,651.5,320.64,649.88,320.24,648.18Z" fill="#1e2646"/><path d="M412.11,224.53c-.85-2.8-2-5.54-2.48-8.41a73.45,73.45,0,0,1,.91-25.6c.08-.41.51-.74.77-1.11a25.79,25.79,0,0,1,1.09,4.23c.42,4.76.68,9.53,1.44,14.29l.63-5.49H415c.17,4.77.2,9.56.57,14.32.16,2.08.43,5.28,1.69,5.9,2.4,1.2,3.25,3.34,4.7,5,2.71,3.18,5.06,6.67,7.55,10a3.36,3.36,0,0,1-.29.24c-4.26-3.38-8.6-6.66-12.73-10.21-.91-.77-1.19-2.41-1.5-3.71-.57-2.33-.95-4.7-1.41-7l-.7.13Q412.51,220.83,412.11,224.53Z" fill="#684c25"/><path d="M400,179.58l-21.12-.92,8.93-16.4c1.55,3,3,6.26,5,9.29.73,1.15,2.45,1.68,3.72,2.5,3.79-.13,6.27,2.58,9.18,4.48l-.71,1-.18.07h-.19Z" fill="#7df0df"/><path d="M405,267.19c2,1.67,4.57,3,5.84,5.06,4.33,7.19,8.26,14.63,12.21,22,1.78,3.35,3.19,6.89,4.87,10.29.61,1.22.45,2.1-.69,2.69-1.46.74-3,1.33-4.48,2l.57-1.73,0-1.49c-1-2.37-2-4.77-3.14-7.11q-6-12.68-12.09-25.31C407.09,271.47,406,269.33,405,267.19Z" fill="#47c785"/><path d="M103.14,187.46a25.11,25.11,0,0,0,.87-4.85,4.67,4.67,0,0,0-1.28-3.38,19.82,19.82,0,0,0-5.45-2.59,2.26,2.26,0,0,0-2,1c-1.51,3-1.18,6.13-1.14,9.25l.63.13,2.66-5.5,2.4.74c-1.07,3.84-2,7.5-3.17,11.12a2.27,2.27,0,0,1-1.64,1.15c-3,.38-4.93-1.53-4.68-4.56.56-6.73,2.67-13.07,4.75-19.46,4.83,1.22,9.55,4.34,13.85-.63a18.79,18.79,0,0,1-.47,2.35q-2.17,6.67-4.44,13.34A15.34,15.34,0,0,1,103.14,187.46Z" fill="#c18a43"/><path d="M361.42,121.41c-.3.28-.62.54-.89.84a6.53,6.53,0,0,1-6.76,2.4c-6.17-1-12.52-.8-18.81-.93-5.83-.13-11.67,0-17.77,0,.2-1,.47-2.43.74-3.85,6.62.13,13.23.24,19.85.39q10.79.24,21.58.58A8.44,8.44,0,0,1,361.42,121.41Z" fill="#aa8294"/><path d="M417,164.07l2.86-5.43c1-2.8,2.61-5.54,2.95-8.42.52-4.45.2-9,.23-13.49h.91c1,4.4,2.25,8.77,2.86,13.23.26,1.88-.72,4-1.35,5.92-1.51,4.6-3.09,9.18-4.79,13.72a2.75,2.75,0,0,1-2.05,1.47c-4.42-.08-8.84-.38-13.26-.61l-5.78-.26,4.39-1.51c2.17.42,4.31.94,6.49,1.23C414.41,170.44,417,168.12,417,164.07Z" fill="#684c25"/><path d="M115.76,131.3l-11.11-2.83.09-.89c.38-.24.73-.64,1.13-.71a98,98,0,0,1,24.26-.73c4.54.34,9.11.27,13.64.7,4.78.46,9.53,1.29,14.28,2-1.78,0-3.57.1-5.36.09-1.38,0-2.76-.1-4.14-.16H137.06c-4.78.82-9.56,1.73-14.36,2.39A61.67,61.67,0,0,1,115.76,131.3Z" fill="#faf690"/><path d="M365.89,436.48l0-2.91c0-.36,0-.72,0-1.08,0-9.07-.05-18.14-.16-27.2,0-3.37-.33-6.73-.51-10.09l1.41-.54,1,.19,2,.35,4.47.37,0,.55c-4.38.1-6.43,1.6-6.47,4.8,0,4.35-.11,8.7-.05,13,.07,4,.4,7.92.44,11.88.07,8.43.11,16.87,0,25.3,0,1.3-1,2.59-1.56,3.89l-.81-.09c0-.33,0-.66,0-1l0-1,.18-12.42A2.72,2.72,0,0,0,365.89,436.48Z" fill="#c68e45"/><path d="M361.42,121.41a8.44,8.44,0,0,0-2.06-.6q-10.78-.34-21.58-.58c-6.62-.15-13.23-.26-19.85-.39-.05-1-.1-2.11-.18-3.67l47.18,2.16Z" fill="#5e4953"/><path d="M274.61,145.75c-.85-.73-2.15-1.34-2.39-2.23-.15-.58,1.08-2.05,1.94-2.31a67.67,67.67,0,0,1,9.58-2.27c7.32-1.09,14.65-1.31,21.87.81.47.14.95.3,1.41.48.12.05.19.21.52.6-9-1.13-17,1.64-25.07,4.3Z" fill="#faf690"/><path d="M75,325.1a93.17,93.17,0,0,1,.77-25.94,5.36,5.36,0,0,0,0-1l4.49-1.66c0,4.13,0,8,0,11.92-.06,3-.67,6.13-.32,9.11C80.38,321.66,78.6,323.84,75,325.1Z" fill="#684c25"/><path d="M103.14,187.46a15.34,15.34,0,0,0,.94-1.91q2.27-6.66,4.44-13.34a18.79,18.79,0,0,0,.47-2.35l.3-.66c1-1.33,2-2.69,3.11-4,.52-.64,1-1.46,1.74-1.72a14.64,14.64,0,0,1,3.35-.48c-.11,1,.1,2.26-.39,3.06a131.13,131.13,0,0,0-14.54,32.71c-.3,1.06-.47,2.17-.7,3.26l-.7-.12q1-6.71,2-13.4c0-.35,0-.7-.07-1Z" fill="#faf690"/><path d="M361.73,143.71c-.6-2-1.21-4-2-6.56,3.1,1.34,5.8,3.08,6.9,6,1.95,5.13,3.31,10.49,4.91,15.75a12.65,12.65,0,0,0,.45,1.66c2.18,4.67.86,8.61-2.58,12.45-.15-.82-.26-1.4-.37-2-.45-6.63-.48-13.36-3-19.63C365,148.66,363.2,146.25,361.73,143.71Z" fill="#faf690"/><path d="M206,125.64a63.24,63.24,0,0,1,18.43,2.84c-.1,1.15-.19,2.29-.33,3.82l-18.56-1.45C205.66,129.18,205.82,127.41,206,125.64Z" fill="#684c25"/><path d="M171.57,122.37v-7.11H183.3c-.12,2.25-.25,4.66-.38,7.11Z" fill="#5e4953"/><path d="M375.14,256.77c2.19.29,4.38.53,6.56.87,2.75.44,5.49,1,8.25,1.43a5,5,0,0,0,2.2.13c4.25-1.4,6.59,1.24,8.89,4a89.3,89.3,0,0,0-22.69-2.4c-.9,0-1.8.11-2.7.16l-.85-.78C374.91,259.07,375,257.92,375.14,256.77Z" fill="#47c785"/><path d="M73.7,433.21a6.87,6.87,0,0,0,.86-2.16c.07-3.71,0-7.42,0-11.12,4.17,1.73,4.22,1.81,4.21,6.16s0,8.7,0,13.79C76.79,437.28,75.24,435.25,73.7,433.21Z" fill="#684c25"/><path d="M278.36,128c4-.17,8-.37,12-.49,1.47,0,3,.09,4.42.14.17,1,.34,1.9.55,3.1L279.4,132.2Z" fill="#684c25"/><path d="M404.62,323c-.56.58-1.07,1.2-1.66,1.73-3.28,2.94-3.82,2.87-6.3-.5-3.67-5-7.35-10-9.21-16-.64-2.06-.78-3.8,1.13-5.21-.78,3.09,1.17,5.39,2.36,7.87,1.54,3.21,3.31,6.3,4.84,9.51,1.83,3.83,2.85,4.3,6.9,2.89A9.45,9.45,0,0,1,404.62,323Z" fill="#45c483"/><path d="M376,559.63c-1.6-1.54-3-1.13-4.14.53q-.06-6.27-.13-12.53l4.91-.06Q376.31,553.6,376,559.63Z" fill="#8a594a"/><path d="M373.19,374.48c.15,1.27.31,2.53.46,3.79-1.13,1.13-.49,2.27,0,3.4l-.51,5.52h-4.44c.08-3.14.2-6.27.25-9.4,0-1.12-.12-2.25-.19-3.38Z" fill="#8af4bc"/><path d="M457.93,374.63a29,29,0,0,1,.21,4.88,3.09,3.09,0,0,1-1.73,2,55.5,55.5,0,0,1-6,1.56c-.24-2-.48-4-.69-5.72Z" fill="#684c25"/><path d="M449.4,369.26l5.3-1.74,2.52,4.84-7.46,2.46C449.62,372.79,449.51,371,449.4,369.26Z" fill="#684c25"/><path d="M74.08,349.53q0-4.39,0-8.79L79.31,343a11.33,11.33,0,0,1-.07,3.11,4.11,4.11,0,0,1-1.7,2.18A18,18,0,0,1,74.08,349.53Z" fill="#684c25"/><path d="M368.67,195.93c.16,2.86.53,5.72.45,8.58q-.33,11.49-1,23a17.1,17.1,0,0,0,3.55,11.31c-4.23-.65-5-2.09-4.57-6.05.61-5.65.78-11.35,1-17C368.38,209.12,368.49,202.52,368.67,195.93Z" fill="#c68e45"/><path d="M74.9,400.71q.22-5,.46-10c3.48.17,3.48.17,3.46,3.64a2.09,2.09,0,0,0,0,.25C79.39,397.81,78.46,400.1,74.9,400.71Z" fill="#684c25"/><path d="M451,390.45v-5.51l5.95-1.18C457.82,388.44,455.84,390.71,451,390.45Z" fill="#684c25"/><path d="M365.67,454.94l.81.09a24.74,24.74,0,0,0-.22,2.71c.08,3.88.22,7.75.33,11.63-.14,4.3-.27,8.6-.46,12.9a26.75,26.75,0,0,1-.46,3.05c-.15-4.44-.37-8.88-.42-13.31-.07-5,0-10.09.05-15.13A11.05,11.05,0,0,1,365.67,454.94Z" fill="#a37439"/><path d="M405,179.53l.71-1c-2.91-1.9-5.39-4.61-9.18-4.48l12.5.55c-.16,1.64-.33,3.29-.49,4.93Z" fill="#47c785"/><path d="M376.62,547.57l-4.91.06c0-.5-.06-1-.06-1.49-.07-5-.07-5,5.4-4.28C376.91,543.74,376.76,545.66,376.62,547.57Z" fill="#472f27"/><path d="M377,644.07l-5.55-1.64c1.62-3.95,3.68-5.45,7.15-4.94C378.05,639.68,377.52,641.84,377,644.07Z" fill="#1e2646"/><path d="M365.67,485.32a26.75,26.75,0,0,0,.46-3.05c.19-4.3.32-8.6.46-12.9.16.28.45.55.45.83q0,12.32-.08,24.62l-1-.09-.18-2.46-.06-1c0-.67,0-1.33,0-2v-1.49C365.67,487,365.67,486.15,365.67,485.32Z" fill="#c68e45"/><path d="M454.18,393.52c.26,4.42-3.28,7-6.59,5.84C448.37,395.9,450.07,393.42,454.18,393.52Z" fill="#684c25"/><path d="M76,373.88l-.69-9,3.45.63v8.12Z" fill="#684c25"/><path d="M422.66,309.34a6.05,6.05,0,0,1-.66,1.56c-.91,1.14-2.31,2.06-2.81,3.34-1.45,3.74-4.55,4.29-7.87,4.68Z" fill="#45c483"/><path d="M452.81,365.17l-4.55,1.69-2-4.34C448.54,360.11,450.37,361.26,452.81,365.17Z" fill="#684c25"/><path d="M415,202.43h-.53q.24-3.69.49-7.4a15,15,0,0,0-2.64-9.77h4a3.62,3.62,0,0,1,.21.94Q416,193.6,415.4,201A7.44,7.44,0,0,1,415,202.43Z" fill="#4b3129"/><path d="M378.51,627.71a12,12,0,0,1,3,.66,2.06,2.06,0,0,1,.7,1.86,28.64,28.64,0,0,1-1.78,3.76C377.81,633.26,377.58,632.53,378.51,627.71Z" fill="#1e2646"/><path d="M375.14,256.77c-.11,1.15-.23,2.3-.35,3.45l-.65.62-3.06.37c.05-1.89.1-3.78.16-5.67l3.86.65Z" fill="#8af4bc"/><path d="M426.87,419.23c-5.46.52-10.54-.4-14.93-4,3.34,1.05,6.65,2.17,10,3.12A42.45,42.45,0,0,0,426.87,419.23Z" fill="#a37439"/><path d="M375.06,244.54c.05.85.11,1.7.17,2.54a2.88,2.88,0,0,1-.13.31l-3.91.37-.57-2.5-.42-1.17Z" fill="#8af4bc"/><path d="M423.91,136.72H423l-3.36-9.95,1.11-.36Q422.33,131.57,423.91,136.72Z" fill="#4b3129"/><path d="M444.57,407.32c0-4,2.84-4.5,5.29-5.53l.47.56Z" fill="#4b3129"/><path d="M365.93,494.73l1,.09c0,1.8.08,3.6.11,5.41l-.83.53Q366.08,497.75,365.93,494.73Z" fill="#a37439"/><path d="M370.62,245.26l.57,2.5c0,2.59,0,5.19.05,7.78-.06,1.89-.11,3.78-.16,5.67l-.09.11-.14,0Q370.73,253.27,370.62,245.26Z" fill="#5e4953"/><path d="M442.94,356.74l4.72,2.35c-1.29,1.39-2.09,1.77-3,.36-.58-.88-1.24-1.71-1.87-2.56Z" fill="#4b3129"/><path d="M89.73,443.5c0-2.5,0-5,0-7.49Z" fill="#aa8294"/><path d="M458.86,340.43c-2.78-.47-3.75-2.6-4.5-4.92Z" fill="#8a594a"/><path d="M470.37,429.66l-.2-.89,2.22-3.77,1,.64Z" fill="#472f27"/><path d="M366.92,520.64c0,2,.07,4,.1,6.06C367,524.68,367,522.66,366.92,520.64Z" fill="#a37439"/><path d="M137.06,128.73h0Z" fill="#c68e45"/><path d="M405.66,411l-3.69-3.8Z" fill="#a37439"/><path d="M90.23,490.33q-.15-4.81-.29-9.63Q90.08,485.52,90.23,490.33Z" fill="#aa8294"/><path d="M441.89,416.22l-5,1.87Z" fill="#a37439"/><path d="M367.65,505.73c-.32.49-.63,1-.95,1.49-.09-1.17-.17-2.34-.26-3.52l1,.08Z" fill="#a37439"/><path d="M482.5,406.48c-.47,1.25-.95,2.49-1.42,3.73l-.64-.21c.41-1.27.81-2.54,1.22-3.81Z" fill="#0f0a05"/><path d="M367.47,503.78l-1-.08c-.07-1-.14-2-.2-2.94l.83-.53C367.2,501.41,367.34,502.6,367.47,503.78Z" fill="#c68e45"/><path d="M365.89,436.48a2.72,2.72,0,0,1,0,4C365.88,439.18,365.88,437.83,365.89,436.48Z" fill="#a37439"/><path d="M460.82,307.06c0-.55,0-1.09-.05-1.64l1-2.16.83.4C462,304.79,461.39,305.92,460.82,307.06Z" fill="#472f27"/><path d="M89.9,417.7q0-4.09,0-8.19C89.89,412.24,89.9,415,89.9,417.7Z" fill="#aa8294"/><path d="M435.43,418.39l-3.52.72Z" fill="#a37439"/><path d="M117.11,586.49l-2.46-2.1Z" fill="#c38c45"/><path d="M371.28,588.83l-.12,5.57Z" fill="#8a594a"/><path d="M458.37,313.08c.44-.86.87-1.73,1.31-2.6C459.24,311.35,458.81,312.22,458.37,313.08Z" fill="#472f27"/><path d="M371.72,561.51l-.15,2.5Z" fill="#8a594a"/><path d="M401.92,407.18l-1.76-2.26Z" fill="#a37439"/><path d="M400,179.58l4.62,0Z" fill="#47c785"/><path d="M395.18,394.74l-2.12-.53C394.75,393.28,394.89,393.31,395.18,394.74Z" fill="#a37439"/><path d="M374.15,396.12l0-.55,2,.2,0,.9Z" fill="#a37439"/><path d="M89.87,422.66l0-4.19Z" fill="#aa8294"/><path d="M399,403.19l-1.29-2.26Z" fill="#a37439"/><path d="M369.65,395.2l-2-.35Z" fill="#a37439"/><path d="M385.63,395.46l-2,.25Z" fill="#a37439"/><path d="M455.85,318c.43-.7.85-1.4,1.27-2.1Z" fill="#472f27"/><path d="M429.94,419.26c-.66,1.21-1.35,1.19-2.06,0Z" fill="#a37439"/><path d="M371.39,577.36c0,1.22-.05,2.45-.07,3.67C371.34,579.81,371.36,578.58,371.39,577.36Z" fill="#8a594a"/><path d="M410.21,414.47l-1.76-1.28Z" fill="#a37439"/><path d="M397.41,400.19c-.3-.66-.59-1.32-.89-2C396.82,398.87,397.11,399.53,397.41,400.19Z" fill="#a37439"/><path d="M480.54,411.42l-.34,1.22-.4-.09.25-1.25Z" fill="#0f0a05"/><path d="M389.62,395l-1.54.22Z" fill="#a37439"/><path d="M366.67,394.66l-1.41.54C365.22,393.7,365.92,394.11,366.67,394.66Z" fill="#a37439"/><path d="M83.45,399c-.07.56-.13,1.12-.2,1.68C83.32,400.1,83.38,399.54,83.45,399Z" fill="#5e4953"/><path d="M423.35,306l0,1.49Z" fill="#45c483"/><path d="M374.14,260.84l.65-.62.86.78Z" fill="#5e4953"/><path d="M89.78,434.53l0-1.51Z" fill="#aa8294"/><path d="M371.32,569.89c0,1.06,0,2.11,0,3.17C371.35,572,371.33,571,371.32,569.89Z" fill="#8a594a"/><path d="M365.66,487.81c0,.5,0,1,0,1.49C365.67,488.8,365.67,488.31,365.66,487.81Z" fill="#a37439"/><path d="M408.41,413.16l-1.42-1Z" fill="#a37439"/><path d="M450.33,411.12,449,412.17Z" fill="#a37439"/><path d="M89.82,426.6c0-.87,0-1.75.05-2.62C89.85,424.85,89.84,425.73,89.82,426.6Z" fill="#aa8294"/><path d="M90.66,320.54c-.07-.87-.13-1.75-.2-2.62C90.53,318.79,90.59,319.67,90.66,320.54Z" fill="#aa8294"/><path d="M400,404.65l-1-1.43Z" fill="#a37439"/><path d="M446.85,413.64l-1.22.83Z" fill="#a37439"/><path d="M367.41,261.83l1.24-.13Z" fill="#5e4953"/><path d="M396.27,397.71l-.54-1.31Z" fill="#a37439"/><path d="M371.55,565l-.09,1.17Z" fill="#8a594a"/><path d="M365.93,432.49c0,.36,0,.72,0,1.08C365.93,433.21,365.93,432.85,365.93,432.49Z" fill="#a37439"/><path d="M371.37,574.37c0,.72,0,1.45,0,2.18C371.38,575.82,371.38,575.09,371.37,574.37Z" fill="#8a594a"/><path d="M113.32,583.37l-1.18-.9Z" fill="#c38c45"/><path d="M365.69,453l0,1Z" fill="#a37439"/><path d="M365.69,491.3l.06,1Z" fill="#a37439"/><path d="M83.14,415.94c0,.43,0,.87,0,1.3C83.12,416.81,83.13,416.37,83.14,415.94Z" fill="#5e4953"/><path d="M459.92,309.15l.77-1.15Z" fill="#472f27"/><path d="M89.91,407.75c0-.58,0-1.15,0-1.73C89.9,406.6,89.91,407.17,89.91,407.75Z" fill="#aa8294"/><path d="M371.34,583.83l0,1.17Z" fill="#8a594a"/><path d="M103.14,187.46c0,.35,0,.7.07,1h-.5Z" fill="#c18a43"/><path d="M299,131.72l-.05-.06c-.09-.43,0-.17,0,.09Z" fill="#c38c45"/><path d="M201.84,131.75c0-.26.11-.52,0-.09.28-.33.11-.14-.06.06Z" fill="#c38c45"/><path d="M419.63,125.12c.05,0,.13,0,.15,0a.41.41,0,0,1,.05.19l-.26,0Z" fill="#4b3129"/><path d="M406.52,321.92l-1,.54Z" fill="#45c483"/><path d="M371.19,602.31c0,.37,0,.73,0,1.09C371.22,603,371.2,602.68,371.19,602.31Z" fill="#8a594a"/><path d="M436.47,406.72l-.84.69-.35-.41,1-.49Z" fill="#47c785"/><path d="M431.41,240.29l.47.57-.33.14c-.05-.23-.11-.46-.16-.69Z" fill="#684c25"/><path d="M429.81,238.9l-.59-.94a3.36,3.36,0,0,0,.29-.24l.55.93A3,3,0,0,1,429.81,238.9Z" fill="#684c25"/><path d="M430.32,239.39c-.17-.16-.34-.32-.5-.49l.24-.25c.16.17.32.35.49.52Z" fill="#684c25"/><path d="M430.55,239.17l.37.62,0,0-.57-.43Z" fill="#684c25"/><path d="M430.92,239.79l.49.5,0,0-.5-.49Z" fill="#684c25"/><path d="M404,265.69l.49.65Z" fill="#47c785"/><path d="M405.5,322.45l-.68.44Z" fill="#45c483"/><path d="M442.36,356.33l-.2-.12.19.13Z" fill="#4b3129"/><path d="M371.3,586.32c0,.23,0,.46.05.69C371.33,586.78,371.32,586.55,371.3,586.32Z" fill="#8a594a"/><polygon points="382.26 534.36 382.4 534.31 382.38 534.44 382.26 534.36" fill="#684c25"/><path d="M442.79,356.89l-.43-.56h0l.59.4Z" fill="#4b3129"/><path d="M411.07,319.07l-.62.42Z" fill="#45c483"/><path d="M168.68,129.53v.57l-.36-.23Z" fill="#c68e45"/><path d="M390,301.9l.59-.38Z" fill="#45c483"/><path d="M83.29,138.2a1.21,1.21,0,0,1-.09.2s-.1,0-.15,0l.26-.2Z" fill="#684c25"/><path d="M404.57,266.61l.44.6Z" fill="#47c785"/><path d="M114.16,584l-.59-.43Z" fill="#c38c45"/><path d="M419.32,441.47c-11.41.6-20.68-4.19-28.56-11.81-4-3.87-7.39-8.44-10.81-12.89-2.55-3.33-1.74-7.15-.18-10.6a4.54,4.54,0,0,1,3.63-1.91,4.72,4.72,0,0,1,3.54,2.17c3.8,8.63,10.47,14.3,18.52,18.63a50.44,50.44,0,0,0,23.14,5.83,3.46,3.46,0,0,1,3.67,4,6.75,6.75,0,0,1-5.53,6.13C424.29,441.33,421.8,441.34,419.32,441.47Z" fill="#070503"/><path d="M374.15,396.12l2,.55,6.45,2.52c-1.83.63-3.08,1-4.32,1.49s-2.32.85-3.45,1.33c-3.88,1.66-4.87,3.27-4.58,7.44q.73,10.59,1.49,21.18c0,1.09,0,2.19,0,3.28.13.55.26,1.1.38,1.65l.25.68q-.09,7.88-.2,15.76l.06,2.89c-.18,1.68-.68,3.4-.47,5,2,15.38,1.26,30.7-.44,46.05-.43,3.85-1.7,7.88.31,11.73l0,0c-.82-1.28-2-2.45-2.38-3.85-.77-2.63-1.11-5.39-1.63-8.09l-.18-2c-.13-1.18-.27-2.37-.4-3.55,0-1.81-.07-3.61-.11-5.41q.06-12.31.08-24.62c0-.28-.29-.55-.45-.83-.11-3.88-.25-7.75-.33-11.63a24.74,24.74,0,0,1,.22-2.71c.55-1.3,1.54-2.59,1.56-3.89.14-8.43.1-16.87,0-25.3,0-4-.37-7.92-.44-11.88-.06-4.34,0-8.69.05-13C367.72,397.72,369.77,396.22,374.15,396.12Z" fill="#faf690"/><path d="M374.83,129.78a47.76,47.76,0,0,1,14.69-4.85c5.71-.8,11.39-.81,16.79,1.86,1.46.72,2.15,1.57,1.71,3a15,15,0,0,1-1.81,4.58,48.26,48.26,0,0,1-12.54,12.26c-2.08,1.35-3.81,1.37-5.53-.39-.87-.89-1.73-1.79-2.53-2.73-2.53-2.94-5.09-5.87-7.53-8.9C377,133.27,376.08,131.67,374.83,129.78Zm6.17,1.07c3.17,4.21,6,8,8.91,11.72a2.31,2.31,0,0,0,2.16-.17c3.39-3.27,6.69-6.64,10-10a9.36,9.36,0,0,0,1.14-2l-.33-.88Z" fill="#070503"/><path d="M372.36,436.24l-.25-.68c-.12-.55-.25-1.1-.38-1.65,0-1.09,0-2.19,0-3.28,2.28-3.59,4.38-3.77,7.09-.35,3.94,5,8.07,9.74,13.82,12.59,3.75,1.86,7.82,3.05,11.69,4.68.87.37,1.48,1.35,2.22,2,.56.53,1.13,1,1.84,1.67a4.62,4.62,0,0,1-4.83,3.18,31,31,0,0,1-7.38-1.79c-2.32-.84-4.41-2.26-6.69-3.21C382.58,446.55,377.24,441.7,372.36,436.24Z" fill="#070503"/><path d="M400.2,213.9a19.68,19.68,0,0,1-1.19,3.57c-2.73,5.1-5.57,10.13-8.36,15.19-.2.36-.31.77-.48,1.14-.34.75-.7,1.48-1.05,2.23-.92-.48-2.38-.73-2.67-1.46-3-7.41-6.72-14.68-6.21-23,.39-6.32,4.67-10.81,7.88-15.75.89-1.37,2.53-1.28,3.71-.14a12.23,12.23,0,0,1,2.59,3.29c1.8,3.73,3.45,7.52,5.05,11.34A19.63,19.63,0,0,1,400.2,213.9Zm-10.66-14.44c-6.85,9.88-7.13,21.19-.7,30.69,2.39-4.8,4.7-9.34,6.9-13.94a3.59,3.59,0,0,0,.27-2.63C394,208.91,391.78,204.3,389.54,199.46Z" fill="#0f0a05"/><path d="M373.52,356c2.84.61,5.65,1.2,8.46,1.85a4.78,4.78,0,0,1,2.28.87,14.52,14.52,0,0,1,1.73,2.91c-1.05.57-2.15,1.67-3.16,1.6-1.94-.14-3.81-1-5.75-1.46a33.79,33.79,0,0,0-5.56-.84c-2.54-.12-3.54-.79-3.38-3.45.27-4.36.72-8.72,1.31-13.06.69-5.15,1.6-10.28,2.43-15.41s1.67-10.24,2.93-15.36Q374.17,334.8,373.52,356Z" fill="#faf690"/><path d="M406.91,464.22c3-1.1,6-2.09,9-3.31,5.95-2.45,11.84-5,17.77-7.54a1.69,1.69,0,0,1,1.52,0c-1.68,1-3.34,2-5,2.9-4.48,2.43-8.9,5-13.5,7.21-5.81,2.77-11.79,5.19-17.68,7.8-1.95.87-4.17,1.49-5.69,2.87a9.29,9.29,0,0,0-2.66,5c-.79,4.54-1.11,9.17-1.67,13.75,0,.28-.51.51-.78.76-.29-4.46-.54-8.92-.87-13.37a8.77,8.77,0,0,1,5.15-9.07Z" fill="#0f0a05"/><path d="M372.22,454.89l-.06-2.89c1.76-3.11,1.86-3.11,4.87-.91a37.45,37.45,0,0,0,5.28,3.66c1.55.76,3.42.84,5.12,1.3,1,.26,2.32.42,2.74,1.09s-.06,1.95-.27,2.93c-.1.45-.58.81-.73,1.27-1.24,3.59-2.82,4.41-6.49,3.24C377.68,463,374,459.93,372.22,454.89Z" fill="#070503"/><path d="M370.88,304.08c-1.4-5.09-2.12-13.68.46-33.78C373.11,280.74,372.85,295.36,370.88,304.08Z" fill="#faf690"/><path d="M406.83,199.47a3.37,3.37,0,0,1-3.4,3.51,4.6,4.6,0,0,1-4.27-4.64,3.75,3.75,0,0,1,3.31-4C404.82,194.32,406.84,196.67,406.83,199.47Z" fill="#0f0a05"/><path d="M379.14,200a4,4,0,0,1-4-4.2,3.18,3.18,0,0,1,3.48-3.33,4,4,0,0,1,4,3.89A3.48,3.48,0,0,1,379.14,200Z" fill="#0f0a05"/><path d="M417,164.07c0,4.05-2.55,6.37-6.54,5.84-2.18-.29-4.32-.81-6.49-1.23l-.91-.23C408.07,168.23,413.2,168.36,417,164.07Z" fill="#0f0a05"/><path d="M371.62,517.7l.22.2s-.11,0-.13,0a.53.53,0,0,1,0-.18Z" fill="#faf690"/><path d="M371.15,188a.64.64,0,0,1,.08-.19s.1,0,.15,0l-.24.2Z" fill="#faf690"/><path d="M113.83,607.1c-.14,16.81-17.11,26.45-31.86,18-11-6.28-15.72-19.69-11.55-30.84a16.74,16.74,0,0,1,6.75-8.75c4.34-2.78,9-4.58,14.31-4A25.21,25.21,0,0,1,113.83,607.1ZM93.4,624.28c10.83-.28,16.2-8.72,16.13-17.22-.06-8.26-4.41-14.41-11.52-18.41-2-1.1-4.17-2.67-6.7-1A25.51,25.51,0,0,0,81.47,600c-1.26,3.27-2.65,6.65-1.18,10.06a65.28,65.28,0,0,0,5.57,10.14C87.64,622.91,90.15,624.88,93.4,624.28ZM73.07,596.73c3.42,1.61,3.42,1.61,5.57-3l-2-1.52ZM72.71,608c.69,1.78,1.06,2.93,1.58,4a1.94,1.94,0,0,0,1.13.73c.19,0,.75-.35.73-.46a12,12,0,0,0-1-3.24C74.93,608.57,74,608.49,72.71,608Z" fill="#070503"/><path d="M116.78,615.91l-.46.1.28-.27Z" fill="#faf690"/><path d="M436.23,406.51l-1,.49c-4.88,1.46-9.79,2.45-14.89,1.11a20.09,20.09,0,0,1-14.48-18.95c0-2.35.78-3.84,3.48-4.12,0-.77.05-1.5,0-2.22-.47-6.24,2.55-10,7.78-11.51,10.48-3,16.9-.81,21.86,9,2.44,4.85,1.14,9.83-2.27,14.17-4.77,6.08-12.36,8.91-19.42,4.25a22.93,22.93,0,0,1-3.3-3.24q-1.65-3.34-3.32-6.69l-1,.5q1.67,3.17,3.32,6.33c3.52,8.15,11.74,12.42,20.84,10.86A13.81,13.81,0,0,1,436.23,406.51Z" fill="#8efdfb"/><path d="M373.64,381.67c-.48-1.13-1.12-2.27,0-3.4,8.43-.33,16.85-.81,25.28-.93a9.47,9.47,0,0,1,8.57,4.39h0A23.4,23.4,0,0,1,396,383.37c-5.33-.49-10.71-.31-16.05-.61A50,50,0,0,1,373.64,381.67Z" fill="#8dfbf8"/><path d="M434.4,368.77c-3-.68-6-1.83-9.1-2-7.17-.29-13,2.39-16.79,8.85-.11.17-.36.26-.56.4-2-5.88,2.36-13.08,8.84-14.14s12.38,1,17.14,5.79a3.37,3.37,0,0,1,.45,1.09Z" fill="#8dfbf8"/><path d="M413.07,395.66q-1.65-3.17-3.32-6.33l1-.5q1.67,3.35,3.32,6.69Z" fill="#8af4bc"/><path d="M407.5,381.73l.23.21c-.06,0-.13,0-.16,0a.54.54,0,0,1-.07-.19Z" fill="#8dfbf8"/><path d="M434.38,368.8l.26.19a.4.4,0,0,1-.16,0,1.31,1.31,0,0,1-.08-.21Z" fill="#8dfbf8"/><path d="M253.24,109.51a32.74,32.74,0,0,1,4.7,1.85,2.5,2.5,0,0,1,.54,2.39,85.48,85.48,0,0,1-6.63,7.6,2.8,2.8,0,0,1-2.73.13,57,57,0,0,1-7-7.12c-1.21-1.55-.51-3.24,1.74-3.58C246.68,110.35,249.54,110,253.24,109.51Z" fill="#070503"/><path d="M271,113.63a3.44,3.44,0,0,1-3.7,3.21c-2.13,0-3.55-1.27-3.49-3s2-3.38,4-3.29A3.22,3.22,0,0,1,271,113.63Z" fill="#0f0a05"/><path d="M230.46,116a2.78,2.78,0,0,1-2.75-3.15c.06-1.72.77-3,2.77-3.08a3.19,3.19,0,0,1,3.25,3.29A3,3,0,0,1,230.46,116Z" fill="#0f0a05"/><path d="M449.34,322l.08-.2-.11.17Z" fill="#090807"/><path d="M193.25,140.17c9.31-4.83,25.13.05,31,4.7C214.39,141.52,203.69,143.66,193.25,140.17Z" fill="#faf690"/><path d="M87.22,284c-.13,1.71-.26,3.42-.4,5.13l.06,1.92.91,1.2c0,.47,0,.94,0,1.41a49.84,49.84,0,0,0-1.23,5.21,34.82,34.82,0,0,0,0,4.68l-.69-.07c-.16-11.9-.54-23.8-.41-35.7.1-8.33.9-16.64,1.42-25a3.5,3.5,0,0,1,.48-1.07c.14,1.85.32,3.7.4,5.56.17,3.73.29,7.47.43,11.2q-.41,8.07-.8,16.14l-.47-.39a.68.68,0,0,0-.07.2c-.2,2.53-.46,5.07-.54,7.61C86.3,282.74,86.9,283.39,87.22,284Z" fill="#c098ae"/><path d="M85.87,303.52l.69.07v8.32l-.36,0Z" fill="#aa8294"/><path d="M88.13,230.28c0,.21,0,.41,0,.62C88.1,230.69,88.12,230.49,88.13,230.28Z" fill="#aa8294"/><path d="M87.53,238.72l-.06.68Z" fill="#c098ae"/><path d="M87.46,240.22c0,.22,0,.44,0,.66C87.43,240.66,87.44,240.44,87.46,240.22Z" fill="#c098ae"/><path d="M86.88,291.09l-.06-1.92c.26.65.51,1.3.76,1.95Z" fill="#8a594a"/><path d="M86.88,291.09l.7,0,.21,1.17Z" fill="#5e4953"/><path d="M84.56,437c0,.53.07,1.06.1,1.59C84.63,438,84.6,437.49,84.56,437Z" fill="#aa8294"/><path d="M86.39,455.34l.18.66Z" fill="#aa8294"/><path d="M371.73,433.91l.38,1.65C372,435,371.86,434.46,371.73,433.91Z" fill="#c68e45"/><path d="M381,130.85l21.84-1.36.33.88a9.36,9.36,0,0,1-1.14,2c-3.27,3.38-6.57,6.75-10,10a2.31,2.31,0,0,1-2.16.17C387,138.87,384.17,135.06,381,130.85Z" fill="#3b3b46"/><path d="M389.54,199.46c2.24,4.84,4.44,9.45,6.47,14.12a3.59,3.59,0,0,1-.27,2.63c-2.2,4.6-4.51,9.14-6.9,13.94C382.41,220.65,382.69,209.34,389.54,199.46Zm2.21,15.95a11.54,11.54,0,0,0-.26-3.15c-.39-1-1.12-2.38-1.83-2.45a3.07,3.07,0,0,0-2.52,1.71,30.42,30.42,0,0,0-.31,7.26c0,.61,1.42,1.63,2.11,1.58a3.34,3.34,0,0,0,2.3-1.74A10.58,10.58,0,0,0,391.75,215.41Z" fill="#c18a43"/><path d="M93.4,624.28c-3.25.6-5.76-1.37-7.54-4a65.28,65.28,0,0,1-5.57-10.14c-1.47-3.41-.08-6.79,1.18-10.06a25.51,25.51,0,0,1,9.84-12.36c2.53-1.7,4.75-.13,6.7,1,7.11,4,11.46,10.15,11.52,18.41C109.6,615.56,104.23,624,93.4,624.28Z" fill="#202126"/><path d="M73.07,596.73l3.54-4.5,2,1.52C76.49,598.34,76.49,598.34,73.07,596.73Z" fill="#684c25"/><path d="M72.71,608c1.24.48,2.22.56,2.48,1a12,12,0,0,1,1,3.24c0,.11-.54.51-.73.46a1.94,1.94,0,0,1-1.13-.73C73.77,610.94,73.4,609.79,72.71,608Z" fill="#684c25"/><path d="M391.75,215.41a10.58,10.58,0,0,1-.51,3.21,3.34,3.34,0,0,1-2.3,1.74c-.69,0-2.08-1-2.11-1.58a30.42,30.42,0,0,1,.31-7.26,3.07,3.07,0,0,1,2.52-1.71c.71.07,1.44,1.49,1.83,2.45A11.54,11.54,0,0,1,391.75,215.41Z" fill="#0f0a05"/></g></svg>