<svg xmlns="http://www.w3.org/2000/svg" width="568" height="541" viewBox="0 0 568 541"><g id="ac8b7eb3-1231-4a9e-92e5-a659c4b01a16" data-name="Livello 11"><path d="M106.19,167.2c-7-.52-13.46-2-18.31-7-6.36-6.62-11.76-13.82-10.53-23.85.23-1.89-1-2.29-2.41-2.82-7.35-2.78-14.66-5.69-22-8.48-3.51-1.33-5-3.75-4.79-7.49a34.58,34.58,0,0,1,3.48-14.12,4.06,4.06,0,0,1,3.09-1.79c9.93.43,19.85,1,29.77,1.68,1.93.13,2.85-.38,3.39-2.26a21.6,21.6,0,0,1,8.72-11.74l2-1.4c-3.32-4.3-6.63-8.41-9.74-12.68a104.77,104.77,0,0,1-6.11-9.34c-2.67-4.6-2.28-7.68,2.21-10.37,5.8-3.47,12-6.21,18.11-9.21a8.45,8.45,0,0,1,2.44-.46A4.31,4.31,0,0,1,110.15,48c4.21,5.94,8.87,11.56,13.3,17.35,2.27,3,4.55,5.92,6.58,9a4.41,4.41,0,0,0,4.69,2.3c11.13-1.06,21.77.59,31.63,6.15S183.2,96.25,186.87,107c.56,1.64,1.25,2.29,3.11,2.23,9.53-.32,19.05-.66,28.58-.61,12.91.07,25.82.64,38.74.68,8.35,0,16.71-.69,25.07-.79,5.62-.07,11.25.49,16.88.54,6.7.06,13.41-.1,20.11-.19,7.44-.09,14.89-.38,22.33-.27,11.09.16,22.18.62,33.27.93,4.57.12,4.57.1,5.3-4.47.34-2.11,2.93-4.11,6-4.26,5.62-.28,11.24-.4,16.87-.53,4.8-.11,9.6-.23,14.4-.18,1.81,0,1.94-1.15,2.28-2.35Q425,79.58,430.16,61.43a6.86,6.86,0,0,1,1.23-2.93,4.88,4.88,0,0,1,3-1.37c4.13-.16,8.26-.07,12.39-.08.91,0,1.83,0,2.73,0,4.47.28,5.79,1.49,6.44,5.94.14,1,.11,2,.2,3,.51,5.42,1.21,10.84,1.51,16.28C458,88.13,458,94,458,99.87c0,2.86.73,4.55,3.84,5.16,6.49,1.28,12.18,4.59,17.94,7.69a4.07,4.07,0,0,0,3.36.09c8.9-5.08,17.72-10.28,26.53-15.52,3.06-1.81,5.91-4,9-5.66,5.7-3.07,8-2.4,11,3.31,1.81,3.51,3,7.35,4.63,11,1.51,3.31,3.18,6.55,4.89,9.76s1.41,4.74-1.35,7.07c-6.19,5.23-12.29,10.58-18.52,15.77-4,3.33-8.15,6.48-12.28,9.65-1.41,1.09-1.37,2.22-1,3.88,1.63,7.35,2.95,14.7,1.8,22.33-.75,5-.71,10-1.22,15.06a13,13,0,0,1-1.48,4.92,7.11,7.11,0,0,1-6.86,3.65c-1.23,0-2.46,0-4,0v4.36c0,17,0,33.95.05,50.92q.21,45,.54,89.92c.15,19.62.4,39.23.52,58.85,0,2.33.68,3.7,3.11,4.15,2.6.47,5.14,1.29,7.74,1.75a5.45,5.45,0,0,1,4.19,3.38,16,16,0,0,1,1,11.81c-.54,2.06-.59,4.25-1,6.34a23.14,23.14,0,0,1-1.5,3.64c2.61.43,5.17,2.1,8.33,1.51a2.77,2.77,0,0,1,2.38,1c.74,2.22,1.93,4.72,1.5,6.83a109.19,109.19,0,0,1-13.06,34.39c-5.28,8.89-13.53,14.38-22,19.92-11.38,7.46-23.87,11.09-37.07,12.38-7.43.73-15.13.78-22.23-2.34-6.23-2.74-10.11-7.3-9.77-14.58a2.6,2.6,0,0,0-.13-.72c0-.08-.09-.14-.29-.41H404.91c-3.48,0-7,.22-10.41,0-.81-.06-1.87-1.45-2.19-2.43a35.84,35.84,0,0,1-.95-5.49c-5.85,0-11.64-.32-17.37.08a160.14,160.14,0,0,1-28.21-1c-7.48-.81-14.95-1.68-22.45-2.13-3.26-.19-6.57.84-9.87.88-4.62.07-9.26-.55-13.87-.35-7,.3-14,1.4-21,1.53-8.84.16-17.7-.41-26.55-.5-12.24-.14-24.49-.07-36.74-.18-7.44-.07-14.89-.3-22.33-.45-.9,0-1.79,0-2.83,0-.35,2.36-.7,4.47-1,6.59-.39,2.94-1.51,4.45-4.51,4.7-4.77.4-9.57.38-14.35.58-5.62.23-11.26.26-16.85.82-9.19.93-18-1.05-26.75-3.17-2.72-.66-5.64-.72-8.25-1.66-11.1-4-18.18-11.89-22.05-22.92-1.42-4.05-3-8.06-4.77-12-2.37-5.29-2.72-10.83-2.71-16.5,0-8-.34-16-.27-24,.07-7.35.31-14.71.88-22a11.5,11.5,0,0,1,2.75-5.87c2.22-2.72,5.18-1.22,7.86-.57,2.21.53,4.38,1.25,6.22,1.78V356.93l-20.81-1.64c-2.26-.18-2.9-1.78-3.39-3.68a113.49,113.49,0,0,1-3-30.32c.25-11.24.83-22.49,1.78-33.69.89-10.37,2.23-20.72,3.83-31,.7-4.45,3-8.63,3.79-13.07.77-4.29,3.69-5.51,7.06-6.43,2.83-.78,5.74-1.28,9.21-2A439.38,439.38,0,0,0,106.19,167.2ZM458.3,434.36l-.5,1v0a25.09,25.09,0,0,0-1.58,2.14A44,44,0,0,1,441,453.22c-3.5,2.09-7.32,4.22-11.24,4.91-5.73,1-11.67.89-17.53,1-4.79.08-9.59-.2-14.38-.38-1.19,0-2.2-.05-2.21,1.52,0,1,0,2,0,3l.58,13.84c0,2.48,0,5-.08,7.43,0,1.31.5,1.7,1.76,1.72,5,.08,10.05.27,15.08.35a6.77,6.77,0,0,0,2.64-.45c.44-.18.65-.93,1-1.52-5.74-.35-11.13.66-16.42-1.07a4.35,4.35,0,0,1,2.54-1.37c4,0,8-.09,12,.24,1.6.12,2.18-.14,2.16-1.65s-.06-3.13-.09-4.7c0-.33.06-.65.08-1,.35-6.91-.22-7.5,7.16-7.43,3.77,0,7.54-.11,11.32-.17l1-.2,5.45-1.22,1-.27,1-.23,1-.3c2.28-.71,4.86-1,6.79-2.23,7.38-4.84,13-11.19,15.56-19.88a54,54,0,0,1,3.29-8.56c.56-1.13,2.09-1.77,3.18-2.64l5.53,0,9.42,0h1.06a53.89,53.89,0,0,0,6.1-.08,3.24,3.24,0,0,0,2.28-1.6c1-2.61,1.62-5.38,2.55-8,.74-2.07,1.75-4.06,2.63-6.08l1.08.31c-.17,3.43-.35,6.85-.54,10.52,2.4-1.2,2.49-3.3,2.73-5.29.22-1.72.24-3.47.57-5.16.65-3.28.71-3.25-2.77-3.63-.81-.09-1.59-.41-2.4-.57-2.42-.47-4.84-.91-7.26-1.36l-1.06.11-1.49.35-1.31,1c-.7,0-1.4-.12-2.1-.1-3,.1-6.21-1.49-9,.83l-1,.09c-2.26-2.26-5.11-1.92-7.92-1.82l-1.53-.2-5-.09c-2,.46-.4,1.12-.09,1.7l0,2.64-.22,1q-1.81,6.18-3.61,12.34l-.58,2.16a.29.29,0,0,0-.12.25l-.33.75a.44.44,0,0,0-.12.3l-.32.7a.49.49,0,0,0-.14.32l-.51,1.08Zm34.91-282.59c.15.5.31,1,.46,1.5l1.11-.71.09-.67c1.79-1.65,3.65-3.25,5.37-5,8.34-8.37,17-16.38,27.17-22.48.82-.49,1.06-2,1.57-3,.12-.17.24-.33.34-.5,0,0-.1-.08-.16-.13l-.18.63c-5.4,3.19-10.86,6.27-16.16,9.62-3.62,2.28-7,5-10.51,7.41-.46.32-1.21.22-1.82.32,2.22-2.51,4.34-5.12,6.68-7.5,4.9-5,11.05-8,17.24-11,1.13-.46,2.25-1,3.42-1.36,1.39-.44,1.82-1.15,1.28-2.58-1-2.51-1.75-5.07-2.68-7.59-.6-1.61-1.38-3.17-2-4.77-1.11-2.88-2.17-5.77-3.39-9L514.55,101a13.74,13.74,0,0,0-1.38.56q-17.46,9.2-34.91,18.43c-1.12.59-2.2,1.29-3.05,1.79,5.16,9,13.42,15.31,17.46,24.76a25.88,25.88,0,0,1,3-3.16,25,25,0,0,1,3.92-2c-.87,3-3.07,5-5.49,6.72C491.63,148.75,493,150.41,493.21,151.77ZM98.64,74.13l-2-1.89-.61,1,2.5,1.09.64,2.87,9.71,18.06,3.87-2.34c-2-1.44-4.44-2.41-5.69-4.19-1.9-2.72-3-6-4.45-9a13.28,13.28,0,0,1,2.46,1.27c1.23,1,2.32,2.17,3.46,3.27,0,.12.11.25.17.37l1.22,2.19c.74,2.27,2.44,3,4.64,2.77,5.86-.71,11.72-1.5,17.67-2.27a85.69,85.69,0,0,0-4.45-7.45c-6.67-9-13.52-18-20.2-27-1-1.39-1.86-1.84-3.47-1.06-4.38,2.13-8.83,4.14-13.23,6.24A13.43,13.43,0,0,0,89,59.15l11.49,15-1.4.07A2.52,2.52,0,0,0,98.64,74.13ZM64.31,124l-2.74-.28-.13.5,2.81.83a7.13,7.13,0,0,0,1.28.73q9.5,3.12,19,6.2c2.6.83,5.22,1.6,7.83,2.39l.43-.84A11.62,11.62,0,0,0,90.65,132c-2.46-1-5-1.66-7.43-2.72-1-.44-1.66-1.55-2.48-2.36l12.48,2c.34-5.4.69-10.94,1-16.48a.28.28,0,0,0,.06-.25l.46-1.14h0l1.91-2.81c-13.11,1.45-25.66-1.71-38.78-2,0,3.14.08,6,0,8.9a5.24,5.24,0,0,0,3.2,5.4c3.34,1.47,6.82,2.59,10.25,3.87a12.24,12.24,0,0,1-2.72.36A42.88,42.88,0,0,1,64.31,124Zm71.11,277.1.41.64c.19,2.46.42,4.92.56,7.39.25,4.58.46,9.17.69,13.76.74,7.45,1.45,9.43,4.5,11.48-.22-2.36-.41-4.4-.59-6.44l-.12-1.41c-.21-4.05-.5-8.09-.59-12.14-.08-3.28.09-6.56.15-9.84v-.92c.06-.06.17-.12.16-.16a3.47,3.47,0,0,0-.16-.41v-.94c0-.05.16-.12.15-.15a2.53,2.53,0,0,0-.18-.37c-.11-2.83,0-5.79-3.36-7a7.46,7.46,0,0,0-1.61-.45q-7.53-.29-15.05-.5c-2.36-.07-4.75.1-7.09-.15-4.38-.45-8.73-1.13-13.09-1.72a10.61,10.61,0,0,0-3.15-.5c-.64.07-1.68.94-1.71,1.5-.18,3.36-.18,6.74-.13,10.11.09,5.1.42,10.2.39,15.29,0,7.12-.42,14.23-.47,21.34a30.12,30.12,0,0,0,.83,8.82c1.76,5.75,4.07,11.34,6.2,17,3.87,10.26,10.84,17,21.88,19,1.38.26,2.73.67,4.1,1,7,1.67,14,3.66,21.27,2.71a210.31,210.31,0,0,1,29.46-1.39c4.13,0,4.84-.7,5-5.11a42.49,42.49,0,0,1,1.1-6.83c2.41-7.33,1.21-14.74.76-22.13-.19-3.13-1.79-4.62-5-4.6-3.87,0-7.75.39-11.6.78-6.64.68-13,.16-19-3.24a35.83,35.83,0,0,0-3.81-1.64c-.36-.21-.72-.41-1.06-.63-6.72-4.34-12.59-9.31-13.39-18.05a14.67,14.67,0,0,0-.53-2.15l-.33-1.19a.41.41,0,0,0-.07-.31l.45-16.49-27.77-3.07c1,15.79,2,31.14,2.77,46.49.3,6.07,2.77,11.2,6.12,16a17.9,17.9,0,0,0,5.21,4.9,64.3,64.3,0,0,0,33,9.41c6.61.07,13.22.33,19.84.47,2.25,0,3.46-1.07,4.32-3.28,2.23-5.74.48-11.6,1.32-17.39-2.15,0-3.95,0-5.74,0-6.93-.11-13.59-1.58-20.26-3.4a40.49,40.49,0,0,1-13.77-6.58,28.71,28.71,0,0,1-5.72-5.72,38,38,0,0,1-6.44-15.19c-.82-3.84-2.25-7.66-.88-11.73a15.36,15.36,0,0,0,.22-3.75L110.88,411a49,49,0,0,0,0,5.45c1.1,9.1,2.5,18.17,3.38,27.3a25.8,25.8,0,0,0,5.75,13.5,23.2,23.2,0,0,0,8,6.53,71,71,0,0,0,21.74,6.71c5.14.67,10.25,1.89,15.62.48l-.26-4.53a15.29,15.29,0,0,0-1.55-.28c-9.38-.63-18.59-2-27.26-5.91a19.12,19.12,0,0,1-4.17-2.15,40.32,40.32,0,0,1-12-15.24,32.4,32.4,0,0,1-2.85-7.88c-.72-4.47-.87-9-1.14-13.56-.08-1.45.16-3,2.19-3.45a14.43,14.43,0,0,1,.62,1.95c.83,5.31,1.76,10.6,2.38,15.93s3.15,9.84,6.14,13.95a22.59,22.59,0,0,0,8.31,7.22c6,2.73,12.22,5.13,19.06,5a52.72,52.72,0,0,1,7.19.54c5.86.68,5.86.71,6.9,6.36.92,4.94.16,5.92-4.79,6.23-9.31.59-18.3-1.14-27.16-3.76-2.21-.66-4.27-1.86-6.48-2.5-10.19-2.95-16.34-10.21-19.12-19.81-1.84-6.39-1.62-13.38-2.32-20.11-.13-1.31-.27-2.62-.33-3.93-.2-4.93-.39-9.87-.52-14.8,0-1.67,1-2.4,2.58-2.27,4,.31,7.92.59,11.86,1a4.65,4.65,0,0,1,4,4.85c0,.9-.07,1.81-.1,2.71.61,8.1,1.53,16,6.12,23.18,4,6.26,9.82,10,16.5,12.31a63,63,0,0,0,23.71,2.85c6-.31,6.52-1,6.93,6.3.19,2.38.35,4.75.59,7.12.47,4.77-.48,9.1-3.76,12.76-2.54,1.48-5.31,1.63-8.15,1.5-2.3-.09-4.61-.13-6.91,0-8.25.33-16.57,1.2-24.65-1a102.92,102.92,0,0,1-14.29-5.44c-10.44-4.62-17.07-12.66-19.49-23.75a97.53,97.53,0,0,1-2.37-18.86c-.2-10.21-.83-20.46.35-30.67.26-.49.81-1,.72-1.47-.38-2,.76-2.39,2.25-2.35,7.85.22,15.7.41,23.54.8a65.55,65.55,0,0,1,7.79,1.29ZM480.78,259.22c.07.88.14,1.75.22,2.63.07,1.13.14,2.25.2,3.38,0,2.52-.15,5-.1,7.55.31,14.39.92,28.79.94,43.18,0,29-.24,58-.38,87,0,4,0,4,4,3.52,1.81-.47,4.12.21,4.15-3.15.19-20,.64-40,.84-60.06.08-8-.37-16-.36-24,0-10.84.24-21.67.39-32.51.16-11.17.45-22.34.48-33.52,0-8.66-.36-17.33-.38-26,0-6.53.28-13.06.39-19.59.06-3.12,0-6.23,0-9.6-1.95.21-3.49.48-5,.53-5.5.17-5.5.14-5.38,5.51v19.42Q480.76,241.35,480.78,259.22ZM329.41,464.85l-52.13-.53-1.15.12-4.72.09a14.63,14.63,0,0,0-2.18-.29c-7.85.05-15.7.13-23.56.19q-21.73.18-43.46.34c-3.28,0-6.56,0-10.12,0v4.51c-.33,1.54-.65,3.08-1,4.93,15.44,0,30.38-.14,45.21,1.57l-34.11,1.37c-3.58-.32-7.16-.67-10.74-.92-.34,0-.73.61-1.1.93.44.34.89,1,1.34,1,3.46.05,6.92,0,10.39-.06l8.94.2c6.86.12,13.73.55,20.58.29,9.72-.37,19.42-1.36,29.13-1.85,7.27-.37,14.55-.33,21.83-.56,2.67-.09,5.34-.44,8-.67v-.34l-15.19-1,0-.53h23.27l6.47.16,23.77.75c1,.05,2,.18,3,.15q16.31-.45,32.63-1a109,109,0,0,0,11.59-.59c4.69-.64,9.19-.76,13.52,1.45.23.11.6,0,.93-.07-.09-.94-.17-1.75-.25-2.56-.06-1.64-.12-3.27-.17-4.91,0-1.33-.72-1.85-2-1.84-5.74,0-11.48,0-17.22,0l-3.48-.33h-5.58l-.91-.07-2.07.06-3.38,0h-3.47l-.68,0-15.74,0-.6-.08a1,1,0,0,0-.42,0l-3.07,0-1.38,0ZM447.7,130.23l1.19.23,1.36.28.66.13,9.35,2.59a24.38,24.38,0,0,0,2.53,2.15c4,2.56,6.7,5.88,7.5,10.74a65.79,65.79,0,0,0,2.34,8c.11,2,.23,3.91.35,5.86-.21.23-.55.43-.6.68-1.19,7.13,0,14.24,1.38,21.1.65,3.19,1.35,6.48,2.05,9.73.11.54.9,1.36,1.36,1.35,5.64-.1,11.28-.32,16.92-.51h7.53c-.08-1.12-.17-1.93-.19-2.73-.07-3.92-.76-8,0-11.72a49.54,49.54,0,0,0-.1-18.05l-.77-4.65-5.47,2c-4.51-1.41-5.94-4.86-6.59-9.18-.29-1.91-1.57-3.76-2.72-5.43s-2.81-3.25-4.19-4.89c-2.33-2.78-4.94-5.4-6.83-8.46-1.23-2-2.37-3.65-4.55-4.58a18.41,18.41,0,0,1-2.9-1.88,3.29,3.29,0,0,1,2.05-3.57,50.36,50.36,0,0,0,4.43-2.7l0-.93c-4.22-1.54-8.42-3.13-12.67-4.57-1-.32-2.31-.88-2.72,1-.88,3.89-1.63,4.52-5.58,5-6.81-.39-13.63-.74-20.44-1.17q-6.15-.39-12.27-1c-2.31-.23-4.22-1.06-4-4l.92-4H384.88c-.25,2-.44,3.53-.62,5.07-.05.91,0,1.82-.14,2.72-.42,3.83-.74,7.67-1.37,11.46-.33,2,.35,5.1,1.8,6.37a26,26,0,0,1,4.38-1c5.86-.3,11.72-.6,17.58-.63,6.19,0,12.38.38,18.56.36,5.84,0,11.68-.32,17.51-.57a40.48,40.48,0,0,0,4.34-.62Zm1.57-23.2a12.36,12.36,0,0,0,.22-2c-.18-3.89-.55-7.79.89-11.67.66,3.25,1.44,6.26,1.86,9.32s.45,6,.66,9c2.68-4.54,0-40.91-3.18-46.07q.5,8.7,1,17.42a121.48,121.48,0,0,1-4.13-16.29c-.35-2-1.08-2.77-2.81-3.05l-9.94-1.58c-.75,3.22-1.56,6.65-2.36,10.09-3.39,12.66-6.77,25.32-10.23,38.24,9.69.5,19,2.68,28.43,1.15C449.53,110,449.4,108.49,449.27,107ZM189.18,117.48v6.44c.61,0,1,.1,1.41.1,10.83.15,21.66.2,32.48.48,6.6.18,13.19,1.32,19.77-.14a6.66,6.66,0,0,1,1.48,0c7.19,0,14.39.23,21.57,0,11-.28,22-1.06,33-1.2,8.77-.11,17.53.46,26.3.68q21.36.54,42.72,1c3.51.08,7,0,10.89,0v-11.7c-.78-.09-1.18-.17-1.58-.18q-13.38-.27-26.77-.51c-7.94-.16-15.89-.56-23.82-.41-6.77.13-13.51,1.14-20.27,1.32-10.75.28-21.51,0-32.25.33-8.57.29-17.09,1.17-25.73.8-11-.47-22.14-.21-33.22-.1a75.76,75.76,0,0,1-21.07-2.72,52.53,52.53,0,0,0-5.66-.89C188.72,113.43,189,115.45,189.18,117.48ZM162.3,138.39c-.78.4-1.58.78-2.35,1.22-2.71,1.55-5.41,3.13-8.11,4.69-4.41.52-8.8,1.18-13.22,1.52-2.31.18-4.89.36-7-.45-5-2-7.14-6.25-7.8-11.38a12.81,12.81,0,0,1-.18-2.68,38.74,38.74,0,0,1,8.22-18.87c1.55-2,3.6-3.28,6.24-2.89a88.74,88.74,0,0,1,10.42,1.86c5.84,1.59,6.42,8.17,4.7,11.79a30.58,30.58,0,0,1-6.32,8.19,6.6,6.6,0,0,1-9.2.6c-5-4.07-5-8.2-.14-13,1.14-1.12,2.43-2.16,3.89-1.29,1.09.65,1.72,2.07,2.89,3.58a8.43,8.43,0,0,1-2,.13c-3-.9-3.64,1.51-4.56,3.32-1,2,.89,2.9,2,3.69,1.59,1.12,3.32.76,4.63-.8,1.75-2.09,3.56-4.14,5.18-6.32,1.51-2,.75-5.62-1.57-6.39a78.14,78.14,0,0,0-10.27-2.41,3.06,3.06,0,0,0-2.42.87c-4.66,5.25-7.53,11.38-7.31,18.45.19,6.09,4.27,9.33,9.41,8.5a51.51,51.51,0,0,1,9.58-.88c5.45.17,9.29-2.73,12.62-6.34,1.4-1.52,1.95-3.94,2.6-6,1.53-5,1-10,.54-15.1-.26-3.15-.9-6.14-4.21-7.57-2.79-1.2-5.59-2.43-8.48-3.37-4.42-1.45-8.95-.85-13.5-.6-6.3.35-11.08,3-14.5,8.15a42.25,42.25,0,0,0-6.63,18.94c-.27,2.46-.33,4.95-.61,7.4-.74,6.63-1.83,13.23-2.27,19.88-.73,11-1,22.05-1.55,33.08-.09,1.8-.47,3.6-.51,5.4-.21,8.94-.28,17.88-.54,26.82-.11,4-.62,8-.79,12.09-.27,6.77-.54,13.55-.56,20.33,0,3.19.61,6.39.89,9.59.26,3,.42,5.93.71,8.88.55,5.74,1.41,11.46,1.69,17.2.29,6.09.12,12.2,0,18.3s-.44,11.91-.42,17.86c0,8.11.32,16.21.43,24.32.08,5.45.15,10.9,0,16.35-.19,7.47,1,15-1.38,22.59l7.34.54c2.26.13,4.52.34,6.78.32.34,0,1-1.12,1-1.69-.15-3.18-.46-6.36-.74-9.54-.11-1.35-.28-2.71-.42-4.06,0-2.9,0-5.79-.12-8.68-.75-15.19-1.69-30.37-2.28-45.56-.49-12.54-.58-25.1-.85-37.65.12-3.87.15-7.75.37-11.62.4-7,1.12-14,1.33-21,.32-10.74.32-21.49.46-32.23,0-1.24,0-2.48.17-3.7,1-8,2.46-16,.57-24.06a10.5,10.5,0,0,1-.06-3.45c.49-5,1-9.95,1.57-14.93a4.73,4.73,0,0,0,.62-1.61,50.07,50.07,0,0,0-.34-5.2c-.27-2.14.67-2.9,2.68-2.65a63.81,63.81,0,0,0,7.86.94c12.4,0,23.71-3.32,33.12-11.75a40.89,40.89,0,0,0,4-4.77l.23-.32c.45-.32,1.05-.55,1.31-1a83.45,83.45,0,0,0,5.19-9.26c4.69-10.93,4-21.83-2.08-31.89-9.15-15.14-23.48-20.44-40.55-19.75-1.71.07-1.93.9-1.41,2.29.41,1.09.79,2.2,1.05,2.92-4,1.3-7.76,2.26-11.31,3.72-5.18,2.13-10.24,4.56-15.31,7a26.14,26.14,0,0,0-4,2.6,3.33,3.33,0,0,0-1.28,4.29c.14.37-.16,1-.35,1.4-1.58,3.65-3.09,7.32-4.79,10.91a25.2,25.2,0,0,0-1.93,14.72c.5,3.39,1,6.78,1.56,10.91l-7.77-1.69c0,.3,0,.67.09.9,2.86,4.49,6.07,8.66,10.79,11.38l3.25,1.65c.45-4.08.71-7.61,1.25-11.1.5-3.25,1.6-6.43,1.9-9.68.58-6.32.76-12.67,3-18.7,1.33-2.18,2.78-4.29,4-6.54,3.85-7.42,9.82-12.52,17.89-14.06,8.79-1.68,17.45,0,25.51,4.08,3.94,2,6.85,4.74,7.39,9.49.4,3.51,1.18,7,1.77,10.45a2.31,2.31,0,0,1,0,1C167.6,127.06,167.22,133.6,162.3,138.39ZM451.38,468.33c-9.69,2.48-19.42,4.51-29.55,2.21-.08.91-.15,1.23-.14,1.54.29,6.86.73,13.72.81,20.58a7.14,7.14,0,0,0,2.21,5.28c2.63,2.65,5.92,3.68,9.86,3.85l-.83-7.53c-.4-3.55.71-5.06,4.18-5.72,10.95-2.09,21-6.53,30.5-12.16a10.58,10.58,0,0,0,1.93-1.55A59.94,59.94,0,0,0,486,450.22c.74-2.3,2-4.35,4.51-4.88,5.44-1.16,10.91-2.14,16.48-.77a49.24,49.24,0,0,0,5.35,1.09c.64.08,1.85-.29,2-.68.59-2.23.92-4.53,1.37-7-4.51-.39-8.3-.85-12.09-1-9.33-.45-18.66-.78-28-1.08A2.15,2.15,0,0,0,474,437c-3,6.86-6,13.77-8.94,20.66Q458.23,463,451.38,468.33Zm-57.69-15.07.78.55a11.59,11.59,0,0,0,1.79.42c8.76.59,17.53,1,26.27,1.8a17.54,17.54,0,0,0,9.7-1.74c18-8.65,24.55-24.72,28.25-42.73a.9.9,0,0,0,0-.49c-.8-2.19.56-3.12,2.28-3.61a18.41,18.41,0,0,1,4.36-.67c3.11-.1,6.23,0,9.38,0,0-8.17,0-16.1,0-24-.05-23.53-.32-47.06-.13-70.59.31-37.28.92-74.57,1.46-111.85,0-1.67-.3-2.45-2.1-2.9a10.09,10.09,0,0,1-7.47-9.89c.1-5,.58-10.09-1.19-15a5.38,5.38,0,0,1-.15-2,79.11,79.11,0,0,0-2-22.14c-1.53-6.22-6-9-10.94-11.14-3.24-1.35-7.12-1.33-10.73-1.62-7.25-.58-14.53-.82-21.78-1.44a82,82,0,0,0-21.28.52c-5,.87-10,1.53-15,2-3.53.31-5.63-1.85-6-5.41a10.32,10.32,0,0,0-.74-2.3c-3.81.24-7.1.67-10.38.62q-17.28-.27-34.54-.82c-8.6-.26-17.22-1.13-25.81-1-19.71.39-39.41,1.25-59.12,1.92-6,.21-11.91.51-17.87.61-2,0-4.08-.51-6.12-.55-7.2-.14-14.41,0-21.59-.33-4.77-.21-9.5-1-14.38-1.58-2.78,13.56-10.21,23.76-21.73,31.07s-23.95,9.4-37,7.39c0,3.52.08,6.82,0,10.11-.49,16.73-.89,33.46-1.62,50.17-.36,8.53-.68,17,.22,25.53.82,7.64,1.82,15.29,2,23,.42,14.77.42,29.55.48,44.32.05,14-.07,28.06-.09,42.09,0,8.79,0,17.58,0,26.51.72.06,1.37.06,2,.17,3.42.59,6.86,1.1,10.23,1.89a3.3,3.3,0,0,1,2,2.09,22.37,22.37,0,0,1,.29,4.65c.23,7.44.43,14.89.7,22.32q.28,8.29.76,16.59a2.76,2.76,0,0,0,1,2c4.34,2.42,8.7,5,13.8,5.32,6.93.41,13.88.5,20.82.66,4.86.11,7.92,2.7,8.52,7.52.39,3.18.64,6.38,1,9.78h2.29c7.46,0,14.91-.08,22.36,0,19.88.15,39.76.53,59.64.49,28.08-.07,56.17-.43,84.25-.66,9.2-.08,18.39-.1,27.59-.23a3.24,3.24,0,0,0,2.37-1.07C391.65,457.58,392.62,455.39,393.69,453.26ZM105.07,253.09c0-3,.05-5.89,0-8.77-.07-3.08-1.58-4.37-4.63-3.87a42.66,42.66,0,0,0-6,1.39,2.81,2.81,0,0,0-1.63,1.69c-3.11,13.12-5.61,26.32-6.25,39.85-.56,11.71-1.77,23.4-2.25,35.11-.41,9.83-.45,19.7,1.43,29.45.28,1.43.69,1.9,2.26,1.77a58.72,58.72,0,0,1,7.62,0c2.73.12,5.44.41,8.16.58,1.34.09,2-.56,1.88-1.95-.21-2.7-.39-5.4-.57-8H98.48c-3.81,0-4.92-.82-5.52-4.55a59.81,59.81,0,0,1-.35-6.43c-.08-1.65-.17-3.29-.27-4.94-.34-5.28-1.15-10.58-.92-15.83.44-10,1.46-19.95,2.27-29.91.43-5.36.69-10.74,1.43-16.05C96.26,254.46,96.65,254.24,105.07,253.09ZM495,483.65c-4.81-3.77-9.46-7.15-13.76-10.91-1.88-1.64-2.84-1.36-4.43.14-2.85,2.69-5.95,5.12-8.84,7.77a2.38,2.38,0,0,0-.58,2.11c2.37,4.51,4.87,8.93,7.44,13.55C482.29,492.64,489.19,488.77,495,483.65Zm3.84-4.68c4.59-4.9,6.84-10.68,9.21-16.46-7.08-1.13-13.86-2.27-19.94-5.47l-5.19,8.06Zm-27.94,19.28L461,484.81c-2.82,1-5.88,2-8.81,3.23a3,3,0,0,0-1.2,2.49c.44,3.08,1.23,6.12,1.82,9.18.29,1.48,1,2.18,2.57,1.92,2.43-.41,4.88-.73,7.29-1.26C465.44,499.76,468.14,499,470.87,498.25ZM96.25,298.08c2.5,0,4.72-.08,6.93,0,1.77.09,2.34-.77,2.42-2.35.09-1.88.35-3.77.38-5.65.07-3.37,0-6.74,0-10-2.44.19-4.72.29-7,.59A2,2,0,0,0,97.71,282C97.17,287.2,96.74,292.43,96.25,298.08ZM95,311.63h.16c0,1.65-.08,3.31,0,5s.65,2.67,2.6,2.39,3.94-.28,5.88-.61A2.06,2.06,0,0,0,105,317c.28-3.2.41-6.42.52-9.63.06-1.58-.64-2.35-2.39-2.37a20.94,20.94,0,0,1-5.09-.74c-1.68-.44-2.54,0-2.65,1.73ZM512.53,450.81c-6.69-2.22-13.27-1.51-19.81-.86-2.28.22-2.89,2.06-2.93,4.16,6.8.69,13.64.63,19.86,5C510.7,456.08,511.63,453.4,512.53,450.81ZM105.24,257.05c-3.37-.3-5.13.41-5.4,2.51-.59,4.57-.87,9.18-1.19,13.78,0,.42.47,1.2.81,1.25,1.93.27,3.88.37,5.78.52ZM445,490.59c-1.82.41-3.64.89-5.49,1.21s-2.23,1.36-2,3c.23,1.88.25,3.79.58,5.64.13.75.81,1.95,1.29,2,3,.19,5.94.09,9,.09C447.21,498.62,446.11,494.69,445,490.59ZM96,324.46c.35,2.72.55,5.57,1.17,8.33a3.57,3.57,0,0,0,2.42,1.9,34.37,34.37,0,0,0,5.38.49c0-2.92,0-5.71,0-8.49,0-1.62-.79-2.48-2.67-2.27S98.48,324.46,96,324.46ZM59.44,123.38l.19-.51A14.06,14.06,0,0,1,57.7,121c-1-1.38-2.56-2.81-2.67-4.31-.22-3,.41-6,.66-9a10.49,10.49,0,0,0-.08-1.48,29.82,29.82,0,0,0-2.69,13.66,2.35,2.35,0,0,0,1.22,1.62C55.85,122.28,57.66,122.79,59.44,123.38Zm46.41,38.4c.75-1.76,1.65-3.74-.09-4.89s-3.79-1.17-5.74-1.71C99.25,159.35,99.9,160.06,105.85,161.78Zm-16-15.17c-.54,1-1.69,2.18-1.55,3.16.39,2.74,2.25,4.7,4.66,6.77C93.22,152.68,94.56,149.14,89.83,146.61Zm9,12.89c0-3.12.28-6.43-3.88-7.44C93.45,157.73,93.38,159.63,98.78,159.5Zm-13.3-13.64.8.37c2.19-1.14,3-2.25,2.69-3.7-.48-2-.58-4.36-3.69-4.36V142l1.81.56Zm447-30.4-.69.33-1.14,6,.5.42c1.05-.91,2.81-1.72,3-2.77C534.33,118.25,533.12,116.81,532.51,115.46ZM390.8,478.15c-5.7-1.34-11.84-1.3-14.26.11C381.53,477.67,386.18,479.42,390.8,478.15ZM95.37,103.05l6.94.54C98.9,100.16,97.61,100,95.37,103.05Z" fill="#090807"/><path d="M118,388.16l-7.34-.54C113,380.05,111.84,372.5,112,365c.14-5.45.07-10.9,0-16.35-.11-8.11-.41-16.21-.43-24.32,0-5.95.34-11.9.42-17.86s.25-12.21,0-18.3c-.28-5.74-1.14-11.46-1.69-17.2-.29-2.95-.45-5.92-.71-8.88-.28-3.2-.89-6.4-.89-9.59,0-6.78.29-13.56.56-20.33.17-4,.68-8.06.79-12.09.26-8.94.33-17.88.54-26.82,0-1.8.42-3.6.51-5.4.52-11,.82-22.07,1.55-33.08.44-6.65,1.53-13.25,2.27-19.88.28-2.45.34-4.94.61-7.4a42.25,42.25,0,0,1,6.63-18.94c3.42-5.2,8.2-7.8,14.5-8.15,4.55-.25,9.08-.85,13.5.6,2.89.94,5.69,2.17,8.48,3.37,3.31,1.43,3.95,4.42,4.21,7.57.41,5,1,10.14-.54,15.1-.65,2.1-1.2,4.52-2.6,6-3.33,3.61-7.17,6.51-12.62,6.34a51.51,51.51,0,0,0-9.58.88c-5.14.83-9.22-2.41-9.41-8.5-.22-7.07,2.65-13.2,7.31-18.45a3.06,3.06,0,0,1,2.42-.87,78.14,78.14,0,0,1,10.27,2.41c2.32.77,3.08,4.36,1.57,6.39-1.62,2.18-3.43,4.23-5.18,6.32-1.31,1.56-3,1.92-4.63.8-1.14-.79-3.07-1.66-2-3.69.92-1.81,1.57-4.22,4.56-3.32a8.43,8.43,0,0,0,2-.13c-1.17-1.51-1.8-2.93-2.89-3.58-1.46-.87-2.75.17-3.89,1.29-4.87,4.78-4.85,8.91.14,13a6.6,6.6,0,0,0,9.2-.6,30.58,30.58,0,0,0,6.32-8.19c1.72-3.62,1.14-10.2-4.7-11.79a88.74,88.74,0,0,0-10.42-1.86c-2.64-.39-4.69.88-6.24,2.89a38.74,38.74,0,0,0-8.22,18.87,12.81,12.81,0,0,0,.18,2.68l-2.24-2.86c-.79,2.37-1.51,4.28-2.06,6.23-1.36,4.9-3.32,9.75-3.82,14.75-.88,8.59-1,17.27-1.13,25.92q-.26,14.5,0,29c.08,4,.82,8,1.18,12a27.08,27.08,0,0,1,.1,4.93c-.91,10.09-2.37,20.16-2.7,30.26-.26,8,1,16.12,1.27,24.2.35,10.25.39,20.51.55,30.77,0,.49-.13,1-.13,1.48-.09,5.42-.44,10.85-.17,16.25.36,7.48,1.29,14.93,1.77,22.41.26,3.85-.36,7.79.19,11.58C118,370,119.05,379,118,388.16Z" fill="#493028"/><path d="M472.63,154.32a65.79,65.79,0,0,1-2.34-8c-.8-4.86-3.51-8.18-7.5-10.74a24.38,24.38,0,0,1-2.53-2.15c3.57.13,7.06.49,9.93,3.11a5.74,5.74,0,0,0-3.62-4.5c-4.71-1.79-9.38-3.81-14.24-5-4-1-8.3-.92-12.47-1.28-5.17-.45-10.34-1.09-15.53-1.22-8.86-.21-17.73-.09-26.59-.11a71.14,71.14,0,0,0-7.45.07c-1,.11-1.93,1.13-2.89,1.74.85.66,1.63,1.74,2.55,1.88a56.21,56.21,0,0,0,8.39.71c8.2.11,16.4.08,24.6.1,5.95,0,11.89-.06,17.83.09a42.32,42.32,0,0,1,6.15,1.06,40.48,40.48,0,0,1-4.34.62c-5.83.25-11.67.55-17.51.57-6.18,0-12.37-.39-18.56-.36-5.86,0-11.72.33-17.58.63a26,26,0,0,0-4.38,1c-1.45-1.27-2.13-4.42-1.8-6.37.63-3.79.95-7.63,1.37-11.46.1-.9.09-1.81.13-2.72,4.14,0,8.29.08,12.42-.11,6.47-.28,12.86-2,19.4-1-.24,2.9,1.67,3.73,4,4q6.12.61,12.27,1c6.81.43,13.63.78,20.44,1.17L467.28,123a18.41,18.41,0,0,0,2.9,1.88c2.18.93,3.32,2.59,4.55,4.58,1.89,3.06,4.5,5.68,6.83,8.46,1.38,1.64,3,3.13,4.19,4.89s2.43,3.52,2.72,5.43c.65,4.32,2.08,7.77,6.59,9.18-.48,3.83-.87,7.67-1.5,11.48-.17,1-1.07,1.93-1.92,3.37-1.56-5.21-2.9-9.65-4.24-14.09-.19,2.75-.19,5.29-.19,7.83,0,4.88-.12,9.77,0,14.65a13.47,13.47,0,0,0,3.69,9l2.1-9.55c.46.39.89.58.9.78.08,3.88.12,7.76.17,11.64-5.64.19-11.28.41-16.92.51-.46,0-1.25-.81-1.36-1.35-.7-3.25-1.4-6.54-2.05-9.73-1.39-6.86-2.57-14-1.38-21.1.05-.25.39-.45.6-.68q1.77,7.89,3.53,15.8l1-.18c-.68-7.32-1.27-14.66-2.11-22-.18-1.5-1.27-2.89-2.15-4.78C473,151.26,472.8,152.79,472.63,154.32Z" fill="#3b4c8c"/><path d="M118,388.16C119.05,379,118,370,116.7,361c-.55-3.79.07-7.73-.19-11.58-.48-7.48-1.41-14.93-1.77-22.41-.27-5.4.08-10.83.17-16.25,0-.5.14-1,.13-1.48-.16-10.26-.2-20.52-.55-30.77-.27-8.08-1.53-16.16-1.27-24.2.33-10.1,1.79-20.17,2.7-30.26a27.08,27.08,0,0,0-.1-4.93c-.36-4-1.1-8-1.18-12q-.27-14.49,0-29c.15-8.65.25-17.33,1.13-25.92.5-5,2.46-9.85,3.82-14.75.55-2,1.27-3.86,2.06-6.23l2.24,2.86c.66,5.13,2.81,9.43,7.8,11.38,2.07.81,4.65.63,7,.45,4.42-.34,8.81-1,13.22-1.52a22.75,22.75,0,0,1-15,2.65c3.33,3.22,7.1,3.27,10.59,4.42l-12.22,3.19.22.73c.78,0,1.57,0,2.35,0s1.64.2,2.46.32c12.24,1.8,23.17-.7,32.15-9.71a5.06,5.06,0,0,1,1.24-.66,40.89,40.89,0,0,1-4,4.77c-9.41,8.43-20.72,11.73-33.12,11.75a63.81,63.81,0,0,1-7.86-.94c-2-.25-3,.51-2.68,2.65a50.07,50.07,0,0,1,.34,5.2,4.73,4.73,0,0,1-.62,1.61c-.34-.64-.55-1.46-1.08-1.86a2.08,2.08,0,0,0-1.74.07,68.23,68.23,0,0,0-1.86,6.72c-1.62,7.53-1.19,15.13-.36,22.68.69,6.2,1.84,12.35,2.79,18.53-.14,10.74-.14,21.49-.46,32.23-.21,7-.93,14-1.33,21-.22,3.87-.25,7.75-.37,11.62-.22.31-.61.61-.63.93-.53,9.25-1.37,18.49-1.43,27.75-.07,10.83.54,21.67.87,32.5a16.78,16.78,0,0,0,.31,2.21,54.08,54.08,0,0,1-.3,17.77c-.67,4-2.07,7.94-.19,11.93,1.08,2.3,2.27,4.54,3.6,7.17.18-1.8.3-3.32.48-4.83.15-1.19.36-2.36.54-3.54.14,1.35.31,2.71.42,4.06.28,3.18.59,6.36.74,9.54,0,.57-.61,1.69-1,1.69C122.51,388.5,120.25,388.29,118,388.16Z" fill="#8a5a4b"/><path d="M126.55,416.57c0-.9.09-1.81.1-2.71a4.65,4.65,0,0,0-4-4.85c-3.94-.45-7.9-.73-11.86-1-1.59-.13-2.62.6-2.58,2.27.13,4.93.32,9.87.52,14.8.06,1.31.2,2.62.33,3.93.7,6.73.48,13.72,2.32,20.11,2.78,9.6,8.93,16.86,19.12,19.81,2.21.64,4.27,1.84,6.48,2.5,8.86,2.62,17.85,4.35,27.16,3.76,4.95-.31,5.71-1.29,4.79-6.23-1-5.65-1-5.68-6.9-6.36a52.72,52.72,0,0,0-7.19-.54c-6.84.15-13.09-2.25-19.06-5a22.59,22.59,0,0,1-8.31-7.22c-3-4.11-5.52-8.63-6.14-13.95s-1.55-10.62-2.38-15.93a14.43,14.43,0,0,0-.62-1.95c-2,.48-2.27,2-2.19,3.45.27,4.53.42,9.09,1.14,13.56a32.4,32.4,0,0,0,2.85,7.88,40.32,40.32,0,0,0,12,15.24,19.12,19.12,0,0,0,4.17,2.15c8.67,3.87,17.88,5.28,27.26,5.91a15.29,15.29,0,0,1,1.55.28l.26,4.53c-5.37,1.41-10.48.19-15.62-.48A71,71,0,0,1,128,463.8a23.2,23.2,0,0,1-8-6.53,25.8,25.8,0,0,1-5.75-13.5c-.88-9.13-2.28-18.2-3.38-27.3a49,49,0,0,1,0-5.45l12.82,1.11a15.36,15.36,0,0,1-.22,3.75c-1.37,4.07.06,7.89.88,11.73a38,38,0,0,0,6.44,15.19,28.71,28.71,0,0,0,5.72,5.72,40.49,40.49,0,0,0,13.77,6.58c6.67,1.82,13.33,3.29,20.26,3.4,1.79,0,3.59,0,5.74,0-.84,5.79.91,11.65-1.32,17.39-.86,2.21-2.07,3.32-4.32,3.28-6.62-.14-13.23-.4-19.84-.47a64.3,64.3,0,0,1-33-9.41,17.9,17.9,0,0,1-5.21-4.9c-3.35-4.77-5.82-9.9-6.12-16-.79-15.35-1.81-30.7-2.77-46.49L131.45,405,131,421.5c-1.1-2.31-2.2-4.61-3.48-7.31Z" fill="#c08943"/><path d="M465.08,457.64c3-6.89,5.91-13.8,8.94-20.66a2.15,2.15,0,0,1,1.59-1.09c9.34.3,18.67.63,28,1.08,3.79.18,7.58.64,12.09,1-.45,2.45-.78,4.75-1.37,7-.11.39-1.32.76-2,.68a49.24,49.24,0,0,1-5.35-1.09c-5.57-1.37-11-.39-16.48.77-2.51.53-3.77,2.58-4.51,4.88a59.94,59.94,0,0,1-15.68,24.61,10.58,10.58,0,0,1-1.93,1.55c-9.54,5.63-19.55,10.07-30.5,12.16-3.47.66-4.58,2.17-4.18,5.72l.83,7.53c-3.94-.17-7.23-1.2-9.86-3.85a7.14,7.14,0,0,1-2.21-5.28c-.08-6.86-.52-13.72-.81-20.58,0-.31.06-.63.14-1.54,10.13,2.3,19.86.27,29.55-2.21.36.13.76.43,1.1.37,5.33-.94,10.41-2.5,14.44-6.38,1.65-1.59,2.84-3.41,2.11-6.08Zm9.19-.05c2.91-.44,6.14-4.45,6.06-7.64-.07-2.82-2.38-4.39-5-3.16a14.61,14.61,0,0,0-3.73,2.79c-1.47,1.44-2.68,3.39-1.48,5.28C471,456.13,472.86,456.7,474.27,457.59Zm-34.49,24.2.14.46a74.82,74.82,0,0,0,7.73-2.31,2.62,2.62,0,0,0,1.49-3.71c-.56-.92-2.23-1.92-3.13-1.72a77.18,77.18,0,0,0-10.16,3.19,2.72,2.72,0,0,0-1.22,2.34c.17.67,1.34,1.28,2.18,1.55A12.11,12.11,0,0,0,439.78,481.79Z" fill="#c38b44"/><path d="M103.12,154.37c-4.72-2.72-7.93-6.89-10.79-11.38-.14-.23-.06-.6-.09-.9l7.77,1.69c-.59-4.13-1.06-7.52-1.56-10.91a25.2,25.2,0,0,1,1.93-14.72c1.7-3.59,3.21-7.26,4.79-10.91.19-.44.49-1,.35-1.4a3.33,3.33,0,0,1,1.28-4.29,26.14,26.14,0,0,1,4-2.6c5.07-2.41,10.13-4.84,15.31-7,3.55-1.46,7.29-2.42,11.31-3.72-.26-.72-.64-1.83-1.05-2.92-.52-1.39-.3-2.22,1.41-2.29,17.07-.69,31.4,4.61,40.55,19.75,6.08,10.06,6.77,21,2.08,31.89A83.45,83.45,0,0,1,175.2,144c-.26.43-.86.66-1.31,1a9.81,9.81,0,0,1,.6-1.73,40.22,40.22,0,0,0,5.12-24.41c-.11-1.11-1.23-2.13-1.88-3.18l-3,2.38-.25.15s.1,0,.12,0a.54.54,0,0,0,.1-.16l1.7-.33c-1.26,4.71-2.44,9.24-3.69,13.75-1.45,5.21-4,9.78-8.38,13.09-1.15.87-2.45,1.55-3.68,2.32,1.26-2.88,3-5.28,1.61-8.4,4.92-4.79,5.3-11.33,6.77-17.45a2.31,2.31,0,0,0,0-1c-.59-3.48-1.37-6.94-1.77-10.45-.54-4.75-3.45-7.47-7.39-9.49-8.06-4.13-16.72-5.76-25.51-4.08-8.07,1.54-14,6.64-17.89,14.06-1.17,2.25-2.62,4.36-4,6.53.49-2.46.9-5,1.49-7.4s1.32-4.72,2-7.08a.56.56,0,0,0,.18-.07s0-.08,0-.12l-.2.2c-2.14,2.33-4.81,4.36-6.33,7-5,8.93-6.77,18.83-7.06,29C102.5,143.49,103,148.93,103.12,154.37Z" fill="#8a5a4b"/><path d="M492.16,411.46l1.49-.35c.18.47.36.94.53,1.41l-.63,3-.84,2.12L491.6,421l-.85,1.71c-.07.59-.15,1.19-.22,1.78l-.78,1.21c-.05.76-.11,1.51-.16,2.27-.3,1.35-.61,2.69-.91,4l-9.42,0-5.53,0c-1.09.87-2.62,1.51-3.18,2.64a54,54,0,0,0-3.29,8.56c-2.59,8.69-8.18,15-15.56,19.88-1.93,1.26-4.51,1.52-6.79,2.23l-1,.3-1,.23-1,.27-5.45,1.22-1,.2c-3.78.06-7.55.2-11.32.17-7.38-.07-6.81.52-7.16,7.43,0,.33-.05.65-.08,1l-20.64,1q-.28-6.91-.58-13.84c0-1,0-2,0-3,0-1.57,1-1.56,2.21-1.52,4.79.18,9.59.46,14.38.38,5.86-.1,11.8,0,17.53-1,3.92-.69,7.74-2.82,11.24-4.91a44,44,0,0,0,15.19-15.72,25.09,25.09,0,0,1,1.58-2.14c-1.72,4.17-3.17,8.48-5.26,12.46a26.12,26.12,0,0,1-5.71,7.37c-5.74,5.08-13.12,6.8-20.21,9.05-1.49.47-2.95,1.06-4.42,1.59l.19.77c5.76-.62,11.54-1.16,17.28-1.9a21.47,21.47,0,0,0,15.67-9.81c4.41-6.67,6.71-14.27,9-21.85.57-1.93.82-3.81-.56-5.68l-2.4,1.56-.95-.09q1.8-6.18,3.61-12.35c.07-.34.14-.68.22-1l0-2.64.09-1.7,5,.09,1.53.2c2.81-.1,5.66-.44,7.92,1.82l.54.59.45-.68c2.82-2.32,6-.73,9-.83.7,0,1.4.06,2.1.1Z" fill="#c68d45"/><path d="M370.82,465.19c5.74,0,11.48,0,17.22,0,1.32,0,2,.51,2,1.84.05,1.64.11,3.27.16,4.91a23.35,23.35,0,0,0-4-1.21c-11.23-1.37-22.43-.18-33.62.68-5.66.44-11.3,1.14-16.94,1.83-2.29.27-4.54.84-6.8,1.28l-23.77-.75c-2.15-.56-4.28-1.48-6.47-.16H297.2c-.43-.3-.83-.84-1.28-.87-7.24-.54-14.47-1.28-21.72-1.44-7.43-.16-14.88.26-22.32.43-.41,0-.82.1-1.23.14-6.87.6-13.74,1.23-20.61,1.77a5.86,5.86,0,0,1-2-.67,30.9,30.9,0,0,0-5.22-1.71c-4.39-.64-8.83-1-13.25-1.46-5.81-.59-11.6-1.81-17.46-.52v-4.51c3.56,0,6.84,0,10.12,0q21.73-.15,43.46-.34c7.86-.06,15.71-.14,23.56-.19a14.63,14.63,0,0,1,2.18.29l-2.49,1.08c9,.53,17.9.34,26.84.57,12,.31,24,1.34,35.94,1.34,12.56,0,25.12-.83,37.68-1.36C369.87,466.14,370.34,465.53,370.82,465.19Z" fill="#3b4c8c"/><path d="M189.18,117.48c-.23-2-.46-4-.75-6.65a52.53,52.53,0,0,1,5.66.89,75.76,75.76,0,0,0,21.07,2.72c11.08-.11,22.17-.37,33.22.1,8.64.37,17.16-.51,25.73-.8,10.74-.36,21.5,0,32.25-.33,6.76-.18,13.5-1.19,20.27-1.32,7.93-.15,15.88.25,23.82.41q13.38.25,26.77.51c.4,0,.8.09,1.58.18v4.2a57.36,57.36,0,0,1-6.32,1c-3.36.18-6.74,0-10.1.11-9,.28-17.95.78-26.93.89-7.08.08-14.16-.24-21.24-.47-3-.1-5.93-.54-8.89-.61-4.46-.11-8.93-.24-13.37,0-6.17.35-12.32,1.2-18.5,1.55-4.63.26-9.28,0-13.92.13-3.29.11-6.62,1.09-9.85.79a219.28,219.28,0,0,0-24.19-1c-8.57.16-17.15-.82-25.73-1.37C196.23,118.21,192.71,117.81,189.18,117.48Z" fill="#5f4a54"/><path d="M105.07,253.09c-8.42,1.15-8.81,1.37-9.95,9.56-.74,5.31-1,10.69-1.43,16.05-.81,10-1.83,19.92-2.27,29.91-.23,5.25.58,10.55.92,15.83.1,1.65.19,3.29.27,4.94a59.81,59.81,0,0,0,.35,6.43c.6,3.73,1.71,4.53,5.52,4.55H105c.18,2.59.36,5.29.57,8,.11,1.39-.54,2-1.88,1.95-2.72-.17-5.43-.46-8.16-.58a58.72,58.72,0,0,0-7.62,0c-1.57.13-2-.34-2.26-1.77-1.88-9.75-1.84-19.62-1.43-29.45.48-11.71,1.69-23.4,2.25-35.11.64-13.53,3.14-26.73,6.25-39.85a2.81,2.81,0,0,1,1.63-1.69,42.66,42.66,0,0,1,6-1.39c3-.5,4.56.79,4.63,3.87C105.12,247.2,105.07,250.08,105.07,253.09Z" fill="#3a4a88"/><path d="M485.62,406.44c-3.95.51-4,.51-4-3.52.14-29,.42-58,.38-87,0-14.39-.63-28.79-.94-43.18-.05-2.52.07-5,.11-7.55a17.5,17.5,0,0,1,.56,2.3q1.25,11.78,2.45,23.54c.39-6.05.17-12.08.44-18.09.62-14.27-.71-28.42-2.1-42.58-.23-2.34-1.2-4.62-1.83-6.93V204.05l8.13.36c-.22,3.11-.54,6.13-.63,9.16-.24,7.52-.37,15-.56,22.56-.16,6.12-.36,12.23-.5,18.35,0,1.94,0,3.89.1,5.84.06,2.38.31,4.76.22,7.12-.14,3.37-.54,6.73-.76,10.1-.08,1.2.12,2.43,0,3.63-.32,4.69-1,9.37-1,14.06,0,5.41.55,10.83.91,16.25.28,4.25.61,8.5,1,12.74.29,3.53,1.06,7.08.84,10.57-.54,8.54-1.53,17-2.3,25.57-.14,1.54-.17,3.09-.17,4.63,0,4.85.18,9.69.05,14.53-.08,3-.84,6.05-.86,9.08C485.19,394.54,485.47,400.49,485.62,406.44Z" fill="#87584a"/><path d="M189.18,117.48c3.53.33,7,.73,10.58,1,8.58.55,17.16,1.53,25.73,1.37a219.28,219.28,0,0,1,24.19,1c3.23.3,6.56-.68,9.85-.79,4.64-.17,9.29.13,13.92-.13,6.18-.35,12.33-1.2,18.5-1.55,4.44-.25,8.91-.12,13.37,0,3,.07,5.92.51,8.89.61,7.08.23,14.16.55,21.24.47,9-.11,17.95-.61,26.93-.89,3.36-.1,6.74.07,10.1-.11a57.36,57.36,0,0,0,6.32-1v7.5c-3.85,0-7.38.07-10.89,0q-21.36-.47-42.72-1c-8.77-.22-17.53-.79-26.3-.68-11,.14-22,.92-33,1.2-7.18.19-14.38,0-21.57,0a6.66,6.66,0,0,0-1.48,0c-6.58,1.46-13.17.32-19.77.14-10.82-.28-21.65-.33-32.48-.48-.4,0-.8,0-1.41-.1Z" fill="#ac8396"/><path d="M101.13,402.82c-1.18,10.21-.55,20.46-.35,30.67a97.53,97.53,0,0,0,2.37,18.86c2.42,11.09,9,19.13,19.49,23.75a102.92,102.92,0,0,0,14.29,5.44c8.08,2.21,16.4,1.34,24.65,1,2.3-.09,4.61-.05,6.91,0,2.84.13,5.61,0,8.15-1.5.25.27.51.79.75.78,2.17-.08,4.34-.24,6.52-.38-.2,4.41-.91,5.15-5,5.11A210.31,210.31,0,0,0,149.41,488c-7.24.95-14.28-1-21.27-2.71-1.37-.33-2.72-.74-4.1-1-11-2-18-8.78-21.88-19-2.13-5.64-4.44-11.23-6.2-17a30.12,30.12,0,0,1-.83-8.82c.05-7.11.42-14.22.47-21.34,0-5.09-.3-10.19-.39-15.29,0-3.37,0-6.75.13-10.11,0-.56,1.07-1.43,1.71-1.5a10.61,10.61,0,0,1,3.15.5Z" fill="#654923"/><path d="M499.62,141.32a25,25,0,0,0-3.92,2,25.88,25.88,0,0,0-3,3.16c-4-9.45-12.3-15.79-17.46-24.76.85-.5,1.93-1.2,3.05-1.79q17.44-9.24,34.91-18.43a13.74,13.74,0,0,1,1.38-.56c.9,1.56,1.89,3.07,2.69,4.68,2.43,4.89,4.78,9.81,7.17,14.71-6.19,3-12.34,6-17.24,11-2.34,2.38-4.46,5-6.68,7.5l-.89,2v.54ZM499,116.75a4.86,4.86,0,0,0-1.12-.23A29,29,0,0,0,483,121.46c-1.89,1.19-1.68,3.08.05,4.54s3.12,3.14,4.93,4.32a5.42,5.42,0,0,0,4,.71c.71-.2,1-2,1.37-3.17.14-.43-.19-1.16.05-1.4,2-1.93.77-3.77-.27-5.84Zm22.41,4.58-9.77-15.46C511.46,113.17,516.6,121,521.36,121.33Z" fill="#c68d45"/><path d="M485.62,406.44c-.15-5.95-.43-11.9-.4-17.84,0-3,.78-6.05.86-9.08.13-4.84,0-9.68-.05-14.53,0-1.54,0-3.09.17-4.63.77-8.52,1.76-17,2.3-25.57.22-3.49-.55-7-.84-10.57-.34-4.24-.67-8.49-1-12.74-.36-5.42-.9-10.84-.91-16.25,0-4.69.65-9.37,1-14.06.08-1.2-.12-2.43,0-3.63.22-3.37.62-6.73.76-10.1.09-2.36-.16-4.74-.22-7.12-.06-1.95-.14-3.9-.1-5.84.14-6.12.34-12.23.5-18.35.19-7.52.32-15,.56-22.56.09-3,.41-6,.63-9.16l-8.13-.36c-.12-5.37-.12-5.34,5.38-5.51,1.54,0,3.08-.32,5-.53,0,3.37.05,6.48,0,9.6-.11,6.53-.4,13.06-.39,19.59,0,8.66.4,17.33.38,26,0,11.18-.32,22.35-.48,33.52-.15,10.84-.37,21.67-.39,32.51,0,8,.44,16,.36,24-.2,20-.65,40-.84,60.06C489.74,406.65,487.43,406,485.62,406.44Z" fill="#493029"/><path d="M449.27,107c.13,1.46.26,2.93.41,4.58-9.47,1.53-18.74-.65-28.43-1.15,3.46-12.92,6.84-25.58,10.23-38.24,4.26.29,8.57.27,12.77,1,3,.49,3.61,2.29,2.68,5.5-1.78-.63-3.54-1.29-5.33-1.87a10.53,10.53,0,0,0-9.28,1c-.64.41-.87,1.43-1.29,2.17.66.36,1.29,1,2,1,4.42.43,8.86.71,13.28,1.14.54.05,1,.7,1.53,1.08a5.75,5.75,0,0,1-1.74.64c-2.86.07-5.73,0-8.6,0,2.09,2.81,5.06,3.31,7.9,3.56,2.22.19,2.56,1.1,2.5,3a84.25,84.25,0,0,0,.07,9.13A70.16,70.16,0,0,0,449.27,107Zm-10.33-6.51a31.76,31.76,0,0,1-4,1.5,1.86,1.86,0,0,1-2.23-2.64c.81-2.08.26-4-1.48-4.56a2.84,2.84,0,0,0-3.92,2.35,43.53,43.53,0,0,0-.77,8.07,4.1,4.1,0,0,0,5.43,4C436.07,108,437.86,104.84,438.94,100.52Z" fill="#c58d45"/><path d="M108.7,84.56c-.06-.12-.12-.25-.17-.37a20.4,20.4,0,0,0-7.25-9.14l-.77-.86L89,59.15A13.43,13.43,0,0,1,90.88,58c4.4-2.1,8.85-4.11,13.23-6.24,1.61-.78,2.44-.33,3.47,1.06,6.68,9,13.53,18,20.2,27a85.69,85.69,0,0,1,4.45,7.45c-5.95.77-11.81,1.56-17.67,2.27-2.2.26-3.9-.5-4.64-2.77C109.52,86,109.11,85.29,108.7,84.56Zm9.49,1.1c1.16.44,2,.75,2.84,1.09,1.81.73,3.78,1,5-.65s.53-3.4-.59-5c-2-2.84-3.85-5.76-5.79-8.63a34.79,34.79,0,0,0-13-11.65,9.44,9.44,0,0,0-1.61-.51l.55-.11,12,19.49c-4.25,1.59-4.1,3.52.23,8.16Z" fill="#c28c45"/><path d="M71.34,124.4c-3.43-1.28-6.91-2.4-10.25-3.87a5.24,5.24,0,0,1-3.2-5.4c.1-2.88,0-5.76,0-8.9,13.12.33,25.67,3.49,38.78,2l-1.91,2.81c-.46-.47-.94-1.36-1.37-1.34-2.67.16-5.46.12-8,.93a2.17,2.17,0,0,0,.17,4.15c2.33.76,2.84,2.28,3.18,4.28a14.79,14.79,0,0,0,1,2.65l.68.08,3.8-9.36c-.34,5.54-.69,11.08-1,16.48l-12.48-2c-2.13-.54-4.26-1.06-6.38-1.62C73.34,125.06,72.34,124.71,71.34,124.4Z" fill="#c38b44"/><path d="M192.09,469.28c5.86-1.29,11.65-.07,17.46.52,4.42.45,8.86.82,13.25,1.46A30.9,30.9,0,0,1,228,473a5.86,5.86,0,0,0,2,.67c6.87-.54,13.74-1.17,20.61-1.77.41,0,.82-.13,1.23-.14,7.44-.17,14.89-.59,22.32-.43,7.25.16,14.48.9,21.72,1.44.45,0,.85.57,1.28.87H275.36l0,.53,15.19,1v.34c-2.67.23-5.34.58-8,.67-7.28.23-14.56.19-21.83.56-9.71.49-19.41,1.48-29.13,1.85-6.85.26-13.72-.17-20.58-.29l-8.94-.2c0-.31.07-.61.11-.92l34.11-1.37c-14.83-1.71-29.77-1.6-45.21-1.57Z" fill="#20294b"/><path d="M162.3,138.39c1.41,3.12-.35,5.52-1.61,8.4,1.23-.77,2.53-1.45,3.68-2.32,4.42-3.31,6.93-7.88,8.38-13.09,1.25-4.51,2.43-9,3.69-13.75l-1.7.33,0,0,3-2.38c.65,1,1.77,2.07,1.88,3.18a40.22,40.22,0,0,1-5.12,24.41,9.81,9.81,0,0,0-.6,1.73c-.07.11-.15.21-.23.32a5.06,5.06,0,0,0-1.24.66c-9,9-19.91,11.51-32.15,9.71-.82-.12-1.64-.26-2.46-.32s-1.57,0-2.35,0l-.22-.73,12.22-3.19c-3.49-1.15-7.26-1.2-10.59-4.42a22.75,22.75,0,0,0,15-2.65c2.7-1.56,5.4-3.14,8.11-4.69C160.72,139.17,161.52,138.79,162.3,138.39Z" fill="#f7bb9d"/><path d="M126.55,416.57l1-2.38c1.28,2.7,2.38,5,3.48,7.31a.41.41,0,0,1,.07.31l.33,1.19a14.67,14.67,0,0,1,.53,2.15c.8,8.74,6.67,13.71,13.39,18.05.34.22.7.42,1.06.63a52.1,52.1,0,0,0,5,3.95,14.33,14.33,0,0,0,5.5,2.45c2.75.33,5.6-.21,8.41-.26,4.47-.08,8.95-.27,13.4,0s6.43,3.38,5.5,7.58a41.48,41.48,0,0,0-.51,4.18l-.72,6.35-.67.05-2.47-6.89c-.41-7.25-.92-6.61-6.93-6.3a63,63,0,0,1-23.71-2.85c-6.68-2.28-12.48-6.05-16.5-12.31C128.08,432.6,127.16,424.67,126.55,416.57Z" fill="#f8f08a"/><path d="M449.27,107A70.16,70.16,0,0,1,448,99.62a84.25,84.25,0,0,1-.07-9.13c.06-1.87-.28-2.78-2.5-3-2.84-.25-5.81-.75-7.9-3.56,2.87,0,5.74,0,8.6,0a5.75,5.75,0,0,0,1.74-.64c-.51-.38-1-1-1.53-1.08-4.42-.43-8.86-.71-13.28-1.14-.69-.06-1.32-.68-2-1,.42-.74.65-1.76,1.29-2.17a10.53,10.53,0,0,1,9.28-1c1.79.58,3.55,1.24,5.33,1.87.93-3.21.31-5-2.68-5.5-4.2-.7-8.51-.68-12.77-1,.8-3.44,1.61-6.87,2.36-10.09l9.94,1.58c1.73.28,2.46,1.07,2.81,3.05a121.48,121.48,0,0,0,4.13,16.29q-.5-8.72-1-17.42c3.22,5.16,5.86,41.53,3.18,46.07-.21-3-.25-6-.66-9s-1.2-6.07-1.86-9.32c-1.44,3.88-1.07,7.78-.89,11.67A12.36,12.36,0,0,1,449.27,107Z" fill="#6a4d25"/><path d="M494.09,192.53c0-3.88-.09-7.76-.17-11.64,0-.2-.44-.39-.9-.78l-2.1,9.55a13.47,13.47,0,0,1-3.69-9c-.14-4.88,0-9.77,0-14.65,0-2.54,0-5.08.19-7.83,1.34,4.44,2.68,8.88,4.24,14.09.85-1.44,1.75-2.34,1.92-3.37.63-3.81,1-7.65,1.5-11.48l5.47-2,.77,4.65a49.54,49.54,0,0,1,.1,18.05c-.73,3.76,0,7.8,0,11.72,0,.8.11,1.61.19,2.73Z" fill="#20294b"/><path d="M495,483.65c-5.78,5.12-12.68,9-20.17,12.66-2.57-4.62-5.07-9-7.44-13.55a2.38,2.38,0,0,1,.58-2.11c2.89-2.65,6-5.08,8.84-7.77,1.59-1.5,2.55-1.78,4.43-.14C485.51,476.5,490.16,479.88,495,483.65Z" fill="#674a24"/><path d="M446.92,130.11a42.32,42.32,0,0,0-6.15-1.06c-5.94-.15-11.88-.07-17.83-.09-8.2,0-16.4,0-24.6-.1a56.21,56.21,0,0,1-8.39-.71c-.92-.14-1.7-1.22-2.55-1.88,1-.61,1.87-1.63,2.89-1.74a71.14,71.14,0,0,1,7.45-.07c8.86,0,17.73-.1,26.59.11,5.19.13,10.36.77,15.53,1.22,4.17.36,8.45.3,12.47,1.28,4.86,1.19,9.53,3.21,14.24,5a5.74,5.74,0,0,1,3.62,4.5c-2.87-2.62-6.36-3-9.93-3.11l-9.35-2.59-.66-.13-1.36-.28-1.19-.23Z" fill="#799df6"/><path d="M461.36,428.92l2.4-1.56c1.38,1.87,1.13,3.75.56,5.68-2.26,7.58-4.56,15.18-9,21.85a21.47,21.47,0,0,1-15.67,9.81c-5.74.74-11.52,1.28-17.28,1.9l-.19-.77c1.47-.53,2.93-1.12,4.42-1.59,7.09-2.25,14.47-4,20.21-9.05a26.12,26.12,0,0,0,5.71-7.37c2.09-4,3.54-8.29,5.26-12.46v0l.5-1v0l.51-1.08a.49.49,0,0,1,.14-.32c.1-.24.21-.47.32-.7a.44.44,0,0,1,.12-.3l.33-.75a.29.29,0,0,1,.12-.25Z" fill="#fbf891"/><path d="M498.81,479,482.89,465.1l5.19-8.06c6.08,3.2,12.86,4.34,19.94,5.47C505.65,468.29,503.4,474.07,498.81,479Z" fill="#664a23"/><path d="M116,102.05c-.66,2.36-1.41,4.7-2,7.08s-1,4.94-1.49,7.4c-2.28,6-2.46,12.39-3,18.71-.3,3.25-1.4,6.43-1.9,9.68-.54,3.49-.8,7-1.25,11.1l-3.25-1.65c-.17-5.44-.62-10.88-.46-16.3.29-10.13,2-20,7.06-29,1.52-2.69,4.19-4.72,6.33-7Z" fill="#493029"/><path d="M124.56,373.19c-.18,1.18-.39,2.35-.54,3.54-.18,1.51-.3,3-.48,4.83-1.33-2.63-2.52-4.87-3.6-7.17-1.88-4-.48-8,.19-11.93a54.08,54.08,0,0,0,.3-17.77,16.78,16.78,0,0,1-.31-2.21c-.33-10.83-.94-21.67-.87-32.5.06-9.26.9-18.5,1.43-27.75,0-.32.41-.62.63-.93.27,12.55.36,25.11.85,37.65.59,15.19,1.53,30.37,2.28,45.56C124.58,367.4,124.53,370.29,124.56,373.19Z" fill="#f1b396"/><path d="M101.13,402.82l-.93-11.12c4.36.59,8.71,1.27,13.09,1.72,2.34.25,4.73.08,7.09.15q7.53.21,15.05.5a7.46,7.46,0,0,1,1.61.45c-.41.4-1.12.76-1.18,1.21-.26,1.77-.31,3.57-.43,5.36a65.55,65.55,0,0,0-7.79-1.29c-7.84-.39-15.69-.58-23.54-.8-1.49,0-2.63.4-2.25,2.35C101.94,401.78,101.39,402.33,101.13,402.82Z" fill="#c08943"/><path d="M489.59,427.93c.05-.76.11-1.51.16-2.27l.78-1.21c.07-.59.15-1.19.22-1.78l.85-1.71,1.11-3.35.84-2.12.63-3c.18-.51.36-1,.53-1.52,2.42.45,4.84.89,7.26,1.36.81.16,1.59.48,2.4.57,3.48.38,3.42.35,2.77,3.63-.33,1.69-.35,3.44-.57,5.16-.24,2-.33,4.09-2.73,5.29.19-3.67.37-7.09.54-10.52l-1.08-.31c-.88,2-1.89,4-2.63,6.08-.93,2.64-1.54,5.41-2.55,8a3.24,3.24,0,0,1-2.28,1.6,53.89,53.89,0,0,1-6.1.08Z" fill="#674a24"/><path d="M470.87,498.25c-2.73.72-5.43,1.51-8.17,2.12-2.41.53-4.86.85-7.29,1.26-1.53.26-2.28-.44-2.57-1.92-.59-3.06-1.38-6.1-1.82-9.18a3,3,0,0,1,1.2-2.49c2.93-1.26,6-2.22,8.81-3.23Z" fill="#664a23"/><path d="M370.82,465.19c-.48.34-.95.95-1.44,1-12.56.53-25.12,1.36-37.68,1.36-12,0-24-1-35.94-1.34-8.94-.23-17.88,0-26.84-.57l2.49-1.08,4.72-.09,1.15-.12,52.13.53.63,0,1.38,0,3.07,0a1,1,0,0,1,.42,0l.6.08,15.74,0,.68,0h3.47l3.38,0,2.07-.06.91.07h5.58Z" fill="#7396f0"/><path d="M179.81,461.21l2.47,6.89.67-.05.72-6.35a41.48,41.48,0,0,1,.51-4.18c.93-4.2-1.13-7.34-5.5-7.58s-8.93-.05-13.4,0c-2.81,0-5.66.59-8.41.26a14.33,14.33,0,0,1-5.5-2.45,52.1,52.1,0,0,1-5-3.95,35.83,35.83,0,0,1,3.81,1.64c5.95,3.4,12.34,3.92,19,3.24,3.85-.39,7.73-.76,11.6-.78,3.21,0,4.81,1.47,5,4.6.45,7.39,1.65,14.8-.76,22.13a42.49,42.49,0,0,0-1.1,6.83c-2.18.14-4.35.3-6.52.38-.24,0-.5-.51-.75-.78,3.28-3.66,4.23-8,3.76-12.76C180.16,466,180,463.59,179.81,461.21Z" fill="#c08943"/><path d="M123.47,216.43c-1-6.18-2.1-12.33-2.79-18.53-.83-7.55-1.26-15.15.36-22.68a68.23,68.23,0,0,1,1.86-6.72,2.08,2.08,0,0,1,1.74-.07c.53.4.74,1.22,1.08,1.86-.53,5-1.08,10-1.57,14.93a10.5,10.5,0,0,0,.06,3.45c1.89,8.08.46,16.06-.57,24.06C123.48,214,123.52,215.19,123.47,216.43Z" fill="#f5b89a"/><path d="M480.73,223.47c.63,2.31,1.6,4.59,1.83,6.93,1.39,14.16,2.72,28.31,2.1,42.58-.27,6-.05,12-.44,18.09q-1.22-11.76-2.45-23.54a17.5,17.5,0,0,0-.56-2.3l-.21-3.38c-.08-.88-.15-1.75-.22-2.63Q480.75,241.36,480.73,223.47Z" fill="#f5b89a"/><path d="M524.41,120.35c-2.39-4.9-4.74-9.82-7.17-14.71-.8-1.61-1.79-3.12-2.69-4.68L521,95.05c1.22,3.23,2.28,6.12,3.39,9,.62,1.6,1.4,3.16,2,4.77.93,2.52,1.73,5.08,2.68,7.59.54,1.43.11,2.14-1.28,2.58C526.66,119.35,525.54,119.89,524.41,120.35Z" fill="#6a4d25"/><path d="M396.25,477.09l20.64-1c0,1.57.08,3.13.09,4.7s-.56,1.77-2.16,1.65c-4-.33-8-.28-12-.24a4.35,4.35,0,0,0-2.54,1.37c5.29,1.73,10.68.72,16.42,1.07-.38.59-.59,1.34-1,1.52a6.77,6.77,0,0,1-2.64.45c-5-.08-10.06-.27-15.08-.35-1.26,0-1.8-.41-1.76-1.72C396.25,482.05,396.23,479.57,396.25,477.09Z" fill="#674a24"/><path d="M328.87,474.51c2.26-.44,4.51-1,6.8-1.28,5.64-.69,11.28-1.39,16.94-1.83,11.19-.86,22.39-2,33.62-.68a23.35,23.35,0,0,1,4,1.21c.09.81.17,1.62.26,2.56-.33,0-.7.18-.93.07-4.33-2.21-8.83-2.09-13.52-1.45a109,109,0,0,1-11.59.59q-16.32.53-32.63,1C330.84,474.69,329.85,474.56,328.87,474.51Z" fill="#20294b"/><path d="M96.25,298.08c.49-5.65.92-10.88,1.46-16.1A2,2,0,0,1,99,280.71c2.25-.3,4.53-.4,7-.59,0,3.25,0,6.62,0,10,0,1.88-.29,3.77-.38,5.65-.08,1.58-.65,2.44-2.42,2.35C101,298,98.75,298.08,96.25,298.08Z" fill="#1e2748"/><path d="M416.07,111c-6.54-1-12.93.68-19.4,1-4.13.19-8.28.09-12.42.11.19-1.54.38-3.09.63-5.07H417Z" fill="#20294b"/><path d="M95,311.63l.39-5.66c.11-1.77,1-2.17,2.65-1.73a20.94,20.94,0,0,0,5.09.74c1.75,0,2.45.79,2.39,2.37-.11,3.21-.24,6.43-.52,9.63a2.06,2.06,0,0,1-1.34,1.4c-1.94.33-3.93.33-5.88.61s-2.51-.84-2.6-2.39,0-3.31,0-5Z" fill="#1e2748"/><path d="M499.6,140.82l.89-2c.61-.1,1.36,0,1.82-.32,3.53-2.44,6.89-5.13,10.51-7.41,5.3-3.35,10.76-6.43,16.16-9.62h0c-.51,1-.75,2.49-1.57,3-10.22,6.1-18.83,14.11-27.17,22.48-1.72,1.72-3.58,3.32-5.37,5-.25-1.28-.5-2.56-.74-3.85,2.42-1.75,4.62-3.69,5.49-6.72l0,0Z" fill="#654923"/><path d="M512.53,450.81c-.9,2.59-1.83,5.27-2.88,8.31-6.22-4.38-13.06-4.32-19.86-5,0-2.1.65-3.94,2.93-4.16C499.26,449.3,505.84,448.59,512.53,450.81Z" fill="#654923"/><path d="M467.28,123l-14.52-5.84c3.95-.44,4.7-1.07,5.58-5,.41-1.85,1.76-1.29,2.72-1,4.25,1.44,8.45,3,12.67,4.57l0,.93a50.36,50.36,0,0,1-4.43,2.7A3.29,3.29,0,0,0,467.28,123Z" fill="#20294b"/><path d="M105.24,257.05v18.06c-1.9-.15-3.85-.25-5.78-.52-.34,0-.84-.83-.81-1.25.32-4.6.6-9.21,1.19-13.78C100.11,257.46,101.87,256.75,105.24,257.05Z" fill="#1e2748"/><path d="M445,490.59c1.14,4.1,2.24,8,3.33,11.92-3,0-6,.1-9-.09-.48,0-1.16-1.23-1.29-2-.33-1.85-.35-3.76-.58-5.64-.21-1.64.22-2.69,2-3S443.15,491,445,490.59Z" fill="#654923"/><path d="M135.43,401.09c.12-1.79.17-3.59.43-5.36.06-.45.77-.81,1.18-1.21,3.41,1.25,3.25,4.21,3.36,7l0,.52v2.43c-.69,3.52-1.4,7-2.07,10.56-.8,4.16.37,7.9,2.51,11.42l.12,1.41-3.91-5c-.23-4.59-.44-9.18-.69-13.76-.14-2.47-.37-4.93-.56-7.39l-.41-.64Z" fill="#f8f08a"/><path d="M96,324.46c2.51,0,4.41.16,6.27,0s2.63.65,2.67,2.27c.08,2.78,0,5.57,0,8.49a34.37,34.37,0,0,1-5.38-.49,3.57,3.57,0,0,1-2.42-1.9C96.52,330,96.32,327.18,96,324.46Z" fill="#1e2748"/><path d="M94.25,112.47l-3.8,9.36-.68-.08a14.79,14.79,0,0,1-1-2.65c-.34-2-.85-3.52-3.18-4.28a2.17,2.17,0,0,1-.17-4.15c2.49-.81,5.28-.77,8-.93.43,0,.91.87,1.37,1.34h0c-.15.38-.3.76-.46,1.14A.28.28,0,0,1,94.25,112.47Z" fill="#fbf891"/><path d="M71.34,124.4c1,.31,2,.66,3,.93,2.12.56,4.25,1.08,6.38,1.62.82.81,1.5,1.92,2.48,2.36,2.41,1.06,5,1.76,7.43,2.72a11.62,11.62,0,0,1,2.16,1.47l-.43.84c-2.61-.79-5.23-1.56-7.83-2.39q-9.52-3.07-19-6.2a7.13,7.13,0,0,1-1.28-.73l.06-1a42.88,42.88,0,0,0,4.31.79A12.24,12.24,0,0,0,71.34,124.4Z" fill="#654923"/><path d="M465.08,457.64l3.95-1.4c.73,2.67-.46,4.49-2.11,6.08-4,3.88-9.11,5.44-14.44,6.38-.34.06-.74-.24-1.1-.37Q458.22,463,465.08,457.64Z" fill="#f8f08a"/><path d="M472.63,154.32c.17-1.53.35-3.06.6-5.26.88,1.89,2,3.28,2.15,4.78.84,7.3,1.43,14.64,2.11,22l-1,.18q-1.77-7.9-3.53-15.8C472.86,158.23,472.74,156.27,472.63,154.32Z" fill="#799df6"/><path d="M102.61,79.65c1.44,3,2.55,6.32,4.45,9,1.25,1.78,3.65,2.75,5.69,4.19l-3.87,2.34L99.17,77.16l3.48,1.89,0,.62Z" fill="#4e391b"/><path d="M59.44,123.38c-1.78-.59-3.59-1.1-5.3-1.83a2.35,2.35,0,0,1-1.22-1.62,29.82,29.82,0,0,1,2.69-13.66,10.49,10.49,0,0,1,.08,1.48c-.25,3-.88,6-.66,9,.11,1.5,1.66,2.93,2.67,4.31a14.06,14.06,0,0,0,1.93,1.84Z" fill="#4e391b"/><path d="M140.87,426.49c-2.14-3.52-3.31-7.26-2.51-11.42.67-3.52,1.38-7,2.07-10.56-.06,3.28-.23,6.56-.15,9.84C140.37,418.4,140.66,422.44,140.87,426.49Z" fill="#c08943"/><path d="M105.85,161.78c-5.95-1.72-6.6-2.43-5.83-6.6,2,.54,4.15.66,5.74,1.71S106.6,160,105.85,161.78Z" fill="#493028"/><path d="M89.83,146.61c4.73,2.53,3.39,6.07,3.11,9.93-2.41-2.07-4.27-4-4.66-6.77C88.14,148.79,89.29,147.64,89.83,146.61Z" fill="#493028"/><path d="M98.78,159.5c-5.4.13-5.33-1.77-3.88-7.44C99.06,153.07,98.73,156.38,98.78,159.5Z" fill="#493028"/><path d="M137.08,422.86l3.91,5c.18,2,.37,4.08.59,6.44C138.53,432.29,137.82,430.31,137.08,422.86Z" fill="#c08943"/><path d="M102.65,79.05l-3.48-1.89c-.21-1-.43-1.92-.64-2.87l.11-.16a2.52,2.52,0,0,1,.47.13c.4,1.13,1,1.74,2.17.79a20.4,20.4,0,0,1,7.25,9.14c-1.14-1.1-2.23-2.27-3.46-3.27a13.28,13.28,0,0,0-2.46-1.27l0,0Z" fill="#6a4d25"/><path d="M85.48,145.86l1.61-3.28L85.28,142v-3.85c3.11,0,3.21,2.38,3.69,4.36.35,1.45-.5,2.56-2.69,3.7Z" fill="#493028"/><path d="M202.15,477.15c0,.31-.08.61-.11.92-3.47,0-6.93.11-10.39.06-.45,0-.9-.63-1.34-1,.37-.32.76-1,1.1-.93C195,476.48,198.57,476.83,202.15,477.15Z" fill="#3a4a88"/><path d="M532.51,115.46c.61,1.35,1.82,2.79,1.63,4-.15,1-1.91,1.86-3,2.77l-.5-.42,1.14-6Z" fill="#654923"/><path d="M390.8,478.15c-4.62,1.27-9.27-.48-14.26.11C379,476.85,385.1,476.81,390.8,478.15Z" fill="#1e2748"/><path d="M95.37,103.05c2.24-3,3.53-2.89,6.94.54Z" fill="#493028"/><path d="M298.63,473.6c2.19-1.32,4.32-.4,6.47.16Z" fill="#20294b"/><path d="M494.13,148c.24,1.29.49,2.57.74,3.85l-.09.67-1.57-.79C493,150.41,491.63,148.75,494.13,148Z" fill="#c08943"/><path d="M473.73,432l5.53,0Z" fill="#c58d45"/><path d="M489.59,427.93l.15,4h-1.06C489,430.62,489.29,429.28,489.59,427.93Z" fill="#c58d45"/><path d="M98.53,74.29,96,73.2l.61-1,2,1.89Z" fill="#4e391b"/><path d="M367.34,464.86h0Z" fill="#3b4c8c"/><path d="M64.31,124l-.06,1-2.81-.83.13-.5Z" fill="#4e391b"/><path d="M395.68,460.26c0,1,0,2,0,3C395.68,462.25,395.68,461.26,395.68,460.26Z" fill="#6a4d25"/><path d="M101.28,75.05c-1.17,1-1.77.34-2.17-.79l1.4-.07Z" fill="#4e391b"/><path d="M108.7,84.56c.41.73.82,1.46,1.22,2.19C109.52,86,109.11,85.29,108.7,84.56Z" fill="#6a4d25"/><path d="M461.36,428.92,459.83,431c.2-.72.39-1.44.58-2.16Z" fill="#c58d45"/><path d="M493.21,151.77l1.57.79-1.11.71Z" fill="#654923"/><path d="M470.81,411.41l-1.53-.2Z" fill="#c58d45"/><path d="M494.71,411c-.17.51-.35,1-.53,1.52-.17-.47-.35-.94-.53-1.41Z" fill="#c58d45"/><path d="M334.49,464.79l-3.07,0Z" fill="#3b4c8c"/><path d="M355.4,464.86h0Z" fill="#3b4c8c"/><path d="M480.78,259.22c.07.88.14,1.75.22,2.63C480.92,261,480.85,260.1,480.78,259.22Z" fill="#87584a"/><path d="M464.3,411.12l-.09,1.7C463.9,412.24,462.34,411.58,464.3,411.12Z" fill="#c58d45"/><path d="M447.7,130.23l1.19.23Z" fill="#3b4c8c"/><path d="M492.16,411.46l-1.31,1Z" fill="#c58d45"/><path d="M479.72,413.14l-.45.68-.54-.59Z" fill="#c58d45"/><path d="M441.92,466.07l1-.27Z" fill="#c58d45"/><path d="M435.45,467.49l1-.2Z" fill="#c58d45"/><path d="M443.91,465.57l1-.3Z" fill="#c58d45"/><path d="M464.24,415.46c-.08.34-.15.68-.22,1C464.09,416.14,464.16,415.8,464.24,415.46Z" fill="#c58d45"/><path d="M360.85,464.78l-2.07.06Z" fill="#3b4c8c"/><path d="M458.8,433.3l-.51,1.08Z" fill="#c68d45"/><path d="M458.3,434.36l-.5,1Z" fill="#c68d45"/><path d="M94.31,112.22c.16-.38.31-.76.46-1.14C94.62,111.46,94.47,111.84,94.31,112.22Z" fill="#c38b44"/><path d="M131.4,423l-.33-1.19Z" fill="#c08943"/><path d="M277.28,464.32l-1.15.12Z" fill="#3b4c8c"/><path d="M529,121.46l.18-.63c.06,0,.17.12.16.13-.1.17-.22.33-.34.5Z" fill="#654923"/><path d="M459.26,432.28c-.11.23-.22.46-.32.7C459,432.75,459.15,432.52,459.26,432.28Z" fill="#c58d45"/><path d="M140.43,402.08l0-.52a2.53,2.53,0,0,1,.18.37S140.48,402,140.43,402.08Z" fill="#c08943"/><path d="M135.42,401.07l.41.64Z" fill="#c08943"/><path d="M140.44,403.59V403a3.47,3.47,0,0,1,.16.41S140.5,403.53,140.44,403.59Z" fill="#c08943"/><path d="M450.25,130.74l.66.13Z" fill="#3b4c8c"/><path d="M335.51,464.87l-.6-.08Z" fill="#3b4c8c"/><path d="M351.93,464.87l-.68,0Z" fill="#3b4c8c"/><path d="M459.71,431.23l-.33.75Z" fill="#c58d45"/><path d="M330,464.87l-.63,0Z" fill="#3b4c8c"/><path d="M474.27,457.59c-1.41-.89-3.3-1.46-4.11-2.73-1.2-1.89,0-3.84,1.48-5.28a14.61,14.61,0,0,1,3.73-2.79c2.58-1.23,4.89.34,5,3.16C480.41,453.14,477.18,457.15,474.27,457.59Z" fill="#090807"/><path d="M439.78,481.79a12.11,12.11,0,0,1-3-.2c-.84-.27-2-.88-2.18-1.55a2.72,2.72,0,0,1,1.22-2.34A77.18,77.18,0,0,1,446,474.51c.9-.2,2.57.8,3.13,1.72a2.62,2.62,0,0,1-1.49,3.71,74.82,74.82,0,0,1-7.73,2.31Z" fill="#090807"/><path d="M174.74,118a.54.54,0,0,1-.1.16s-.07,0-.12,0l.25-.15Z" fill="#f7bb9d"/><path d="M116.05,102.06l.2-.2s0,.1,0,.12a.56.56,0,0,1-.18.07Z" fill="#493029"/><path d="M493.55,415.49l-.84,2.12Z" fill="#c58d45"/><path d="M491.6,421l-.85,1.71Z" fill="#c58d45"/><path d="M490.53,424.45l-.78,1.21Z" fill="#c58d45"/><path d="M499,116.75l-5.8,3.87c1,2.07,2.23,3.91.27,5.84-.24.24.09,1-.05,1.4-.38,1.13-.66,3-1.37,3.17a5.42,5.42,0,0,1-4-.71c-1.81-1.18-3.26-2.91-4.93-4.32s-1.94-3.35-.05-4.54a29,29,0,0,1,14.81-4.94A4.86,4.86,0,0,1,499,116.75Z" fill="#fbf891"/><path d="M521.36,121.33c-4.76-.3-9.9-8.16-9.77-15.46Z" fill="#6a4d25"/><path d="M499.6,140.82v0Z" fill="#090807"/><path d="M438.94,100.52c-1.08,4.32-2.87,7.52-7,8.73a4.1,4.1,0,0,1-5.43-4,43.53,43.53,0,0,1,.77-8.07,2.84,2.84,0,0,1,3.92-2.35c1.74.59,2.29,2.48,1.48,4.56a1.86,1.86,0,0,0,2.23,2.64A31.76,31.76,0,0,0,438.94,100.52Z" fill="#fbf891"/><path d="M118.19,85.66l-.26,2.17c-4.33-4.64-4.48-6.57-.23-8.16l-12-19.49-.55.11a9.44,9.44,0,0,1,1.61.51,34.79,34.79,0,0,1,13,11.65c1.94,2.87,3.81,5.79,5.79,8.63,1.12,1.62,1.81,3.43.59,5s-3.22,1.38-5,.65C120.19,86.41,119.35,86.1,118.19,85.66Z" fill="#fbf891"/><path d="M102.65,79.05l0,.62Z" fill="#090807"/></g></svg>