<svg xmlns="http://www.w3.org/2000/svg" viewBox="0 0 174 144"><defs><style>.a52c8b5b-2eef-4889-9009-bda72010d165{fill:#b68457;stroke:#6e4220;stroke-miterlimit:10;stroke-width:4.25px;}</style></defs><g id="be4c49f5-b8b7-4e5c-8f40-1f849c82c896" data-name="Livello 1"><path class="a52c8b5b-2eef-4889-9009-bda72010d165" d="M137.34,115a26.28,26.28,0,0,1-.18-3.46h0a3.06,3.06,0,0,0-.85-2.32c-.13-.12-.26-.22-.39-.32l-.17-.13c-.45-.37-.77-.84-.07-1.74a8.06,8.06,0,0,0,1.18-4.14l0-.16a3.61,3.61,0,0,0,0-.54c0-.2,0-.4,0-.61l0-1.15c0-.65,0-1.31,0-2a62.93,62.93,0,0,1,.17-7.14,21.65,21.65,0,0,0,.08-4.45,2.28,2.28,0,0,1,.21-1.33,5.75,5.75,0,0,0,.38-4.24c-.11-.36-.18-.74-.26-1.12s-.12-.58-.19-.87-.24-.83-.38-1.22A1.52,1.52,0,0,0,135.6,77l-.32,0a10.73,10.73,0,0,0-1.51-.15c-2.21,0-4.42,0-6.63,0-1.41,0-3,0-4.54-.21a14.2,14.2,0,0,0-4.55.14,7.3,7.3,0,0,1-3.19,0,13.24,13.24,0,0,0-3-.49c-1.24,0-2.48,0-3.72,0-1.63,0-3.33,0-5,0a34.52,34.52,0,0,0-6.5.34,20.43,20.43,0,0,1-4.69.09,37.71,37.71,0,0,0-4.11-.08h-.5a28,28,0,0,1-4.48-.14,31.36,31.36,0,0,0-5.3-.38c-1.51,0-3,.06-4.54.08-.28,0-.57,0-.85,0-.59,0-1.19,0-1.8,0-1.27.13-2.54.29-3.8.45l-2.11.25A30.09,30.09,0,0,1,59,77.1a18.12,18.12,0,0,0-4.86.29,15.49,15.49,0,0,1-4.48.46c-1.33-.1-2.74-.12-4.31-.1-1.24,0-2.47.07-3.7.13L39.8,78H39c-.54,0-1.08-.06-1.62-.11a12.77,12.77,0,0,0-3.27,0L33,78.05c-.64.12-1.27.24-1.91.32a13.16,13.16,0,0,1-1.4.09c-.45,0-.9,0-1.34.09a8.83,8.83,0,0,0-2.15.47c-.42.17-1.35.74-.72,2.58a2,2,0,0,1,.12.61c0,1-.07,2-.11,3l-.06,1.33c0,1-.08,2-.14,2.93a3,3,0,0,1-.06.42,3.72,3.72,0,0,0-.08.57c0,.42,0,.84,0,1.25,0,.26,0,.52,0,.79l0,.53c0,.24,0,.48,0,.69a2,2,0,0,0,1,2l.21.07h0a1.49,1.49,0,0,1,.56,1l-.92.6a1.75,1.75,0,0,0-.73,1.33c0,.32-.07.65-.09,1V100a11.42,11.42,0,0,0,0,1.17,6,6,0,0,1-.11,1.79.8.8,0,0,0,0,.36,4.89,4.89,0,0,1,.08,1.59l0,.34a23,23,0,0,0-.08,8.69,2.84,2.84,0,0,0,.34,1.5l.18.3v0a53.12,53.12,0,0,0-.34,6.31c0,.43,0,.86,0,1.29,0,.89.23,1.54,1.07,1.85a1.44,1.44,0,0,1,.22.15l.27.18a6.52,6.52,0,0,0,1.38.67,8.93,8.93,0,0,0,3.75,0c.58-.09,1.16-.2,1.73-.3.74-.14,1.51-.28,2.26-.37a36.12,36.12,0,0,1,6.57-.2,9,9,0,0,0,3-.24,3.42,3.42,0,0,1,1.56,0c1,.17,2,.4,3,.61l1.21.27.23.06c.49.12,1,.24,1.46.32a20.83,20.83,0,0,0,5.69,0l.31,0a13.6,13.6,0,0,1,3.76.31,11,11,0,0,0,2.91.31c1-.08,2.06-.23,3.06-.38.7-.11,1.4-.21,2.11-.29a32.29,32.29,0,0,1,3.59-.22,52.21,52.21,0,0,0,6.48-.28c.24,0,.48-.06.72-.09a13,13,0,0,1,2.13-.16c2.3,0,4.63.21,6.6.37,1.4.11,2.8.24,4.2.38l3.21.29a33.27,33.27,0,0,0,5.82-.07l.63-.06c1.16-.1,2.35-.2,3.51-.23,1.38,0,2.75,0,4.16,0,.56,0,1.12,0,1.68.07l1,0,.79,0c.76,0,1.51.07,2.26.07.44,0,.91,0,1.36,0,.64,0,1.24,0,1.85,0s1.47.12,2.21.2c.58.06,1.16.13,1.74.17.42,0,.83,0,1.25,0a15.11,15.11,0,0,1,1.53.07,18.75,18.75,0,0,0,2.8.21c.54,0,1.07,0,1.61-.07s1.21-.09,1.81-.1,1,0,1.48-.07a3.58,3.58,0,0,0,1.28-.42,1.6,1.6,0,0,0,.86-1,12,12,0,0,0,.37-2.1,43.53,43.53,0,0,0,0-6.56C137.45,116.16,137.4,115.6,137.34,115ZM47.56,91.29ZM102,78.36Zm9.17,0Z"/></g><g id="f94b6743-a157-4c33-8869-1276adf257fc" data-name="Livello 2"><path class="a52c8b5b-2eef-4889-9009-bda72010d165" d="M137.34,115a26.28,26.28,0,0,1-.18-3.46h0a3.06,3.06,0,0,0-.85-2.32c-.13-.12-.26-.22-.39-.32l-.17-.13c-.45-.37-.77-.84-.07-1.74a8.06,8.06,0,0,0,1.18-4.14l0-.16a3.61,3.61,0,0,0,0-.54c0-.2,0-.4,0-.61l0-1.15c0-.65,0-1.31,0-2a62.93,62.93,0,0,1,.17-7.14,21.65,21.65,0,0,0,.08-4.45,2.28,2.28,0,0,1,.21-1.33,5.75,5.75,0,0,0,.38-4.24c-.11-.36-.18-.74-.26-1.12s-.12-.58-.19-.87-.24-.83-.38-1.22A1.52,1.52,0,0,0,135.6,77l-.32,0a10.73,10.73,0,0,0-1.51-.15c-2.21,0-4.42,0-6.63,0-1.41,0-3,0-4.54-.21a14.2,14.2,0,0,0-4.55.14,7.3,7.3,0,0,1-3.19,0,13.24,13.24,0,0,0-3-.49c-1.24,0-2.48,0-3.72,0-1.63,0-3.33,0-5,0a34.52,34.52,0,0,0-6.5.34,20.43,20.43,0,0,1-4.69.09,37.71,37.71,0,0,0-4.11-.08h-.5a28,28,0,0,1-4.48-.14,31.36,31.36,0,0,0-5.3-.38c-1.51,0-3,.06-4.54.08-.28,0-.57,0-.85,0-.59,0-1.19,0-1.8,0-1.27.13-2.54.29-3.8.45l-2.11.25A30.09,30.09,0,0,1,59,77.1a18.12,18.12,0,0,0-4.86.29,15.49,15.49,0,0,1-4.48.46c-1.33-.1-2.74-.12-4.31-.1-1.24,0-2.47.07-3.7.13L39.8,78H39c-.54,0-1.08-.06-1.62-.11a12.77,12.77,0,0,0-3.27,0L33,78.05c-.64.12-1.27.24-1.91.32a13.16,13.16,0,0,1-1.4.09c-.45,0-.9,0-1.34.09a8.83,8.83,0,0,0-2.15.47c-.42.17-1.35.74-.72,2.58a2,2,0,0,1,.12.61c0,1-.07,2-.11,3l-.06,1.33c0,1-.08,2-.14,2.93a3,3,0,0,1-.06.42,3.72,3.72,0,0,0-.08.57c0,.42,0,.84,0,1.25,0,.26,0,.52,0,.79l0,.53c0,.24,0,.48,0,.69a2,2,0,0,0,1,2l.21.07h0a1.49,1.49,0,0,1,.56,1l-.92.6a1.75,1.75,0,0,0-.73,1.33c0,.32-.07.65-.09,1V100a11.42,11.42,0,0,0,0,1.17,6,6,0,0,1-.11,1.79.8.8,0,0,0,0,.36,4.89,4.89,0,0,1,.08,1.59l0,.34a23,23,0,0,0-.08,8.69,2.84,2.84,0,0,0,.34,1.5l.18.3v0a53.12,53.12,0,0,0-.34,6.31c0,.43,0,.86,0,1.29,0,.89.23,1.54,1.07,1.85a1.44,1.44,0,0,1,.22.15l.27.18a6.52,6.52,0,0,0,1.38.67,8.93,8.93,0,0,0,3.75,0c.58-.09,1.16-.2,1.73-.3.74-.14,1.51-.28,2.26-.37a36.12,36.12,0,0,1,6.57-.2,9,9,0,0,0,3-.24,3.42,3.42,0,0,1,1.56,0c1,.17,2,.4,3,.61l1.21.27.23.06c.49.12,1,.24,1.46.32a20.83,20.83,0,0,0,5.69,0l.31,0a13.6,13.6,0,0,1,3.76.31,11,11,0,0,0,2.91.31c1-.08,2.06-.23,3.06-.38.7-.11,1.4-.21,2.11-.29a32.29,32.29,0,0,1,3.59-.22,52.21,52.21,0,0,0,6.48-.28c.24,0,.48-.06.72-.09a13,13,0,0,1,2.13-.16c2.3,0,4.63.21,6.6.37,1.4.11,2.8.24,4.2.38l3.21.29a33.27,33.27,0,0,0,5.82-.07l.63-.06c1.16-.1,2.35-.2,3.51-.23,1.38,0,2.75,0,4.16,0,.56,0,1.12,0,1.68.07l1,0,.79,0c.76,0,1.51.07,2.26.07.44,0,.91,0,1.36,0,.64,0,1.24,0,1.85,0s1.47.12,2.21.2c.58.06,1.16.13,1.74.17.42,0,.83,0,1.25,0a15.11,15.11,0,0,1,1.53.07,18.75,18.75,0,0,0,2.8.21c.54,0,1.07,0,1.61-.07s1.21-.09,1.81-.1,1,0,1.48-.07a3.58,3.58,0,0,0,1.28-.42,1.6,1.6,0,0,0,.86-1,12,12,0,0,0,.37-2.1,43.53,43.53,0,0,0,0-6.56C137.45,116.16,137.4,115.6,137.34,115ZM47.56,91.29ZM102,78.36Zm9.17,0Z"/></g></svg>