<svg xmlns="http://www.w3.org/2000/svg" viewBox="0 0 196 122"><defs><style>.b8fd4106-46d5-47a5-bdbe-eefb1c533664{fill:#b68457;stroke:#6e4220;stroke-miterlimit:10;stroke-width:5.01px;}.f73aad9d-564a-4c84-9cfc-36cb5228b082{fill:#6e4220;}</style></defs><g id="f600a0d5-8913-432b-9227-7988d67f2247" data-name="Livello 1"><path class="b8fd4106-46d5-47a5-bdbe-eefb1c533664" d="M173.14,93a19.79,19.79,0,0,1-.26-3.46h0a2.64,2.64,0,0,0-1.17-2.32c-.18-.12-.36-.22-.54-.32l-.23-.13c-.63-.37-1.07-.84-.1-1.74,1.18-1.1,1.41-2.65,1.64-4.14l0-.16c0-.17,0-.34-.06-.54a6,6,0,0,1,0-.61l0-1.15c0-.65,0-1.31,0-2a46,46,0,0,1,.25-7.14,15.53,15.53,0,0,0,.1-4.45,1.72,1.72,0,0,1,.29-1.33,4.29,4.29,0,0,0,.53-4.24,10.45,10.45,0,0,1-.36-1.12q-.12-.44-.27-.87a10.16,10.16,0,0,0-.52-1.22A2,2,0,0,0,170.73,55l-.46,0a20.15,20.15,0,0,0-2.08-.15c-3.07,0-6.14,0-9.2,0-2,0-4.16-.05-6.29-.21a27.12,27.12,0,0,0-6.3.14,14.07,14.07,0,0,1-4.44,0,24.78,24.78,0,0,0-4.13-.49c-1.72,0-3.44,0-5.16,0-2.27,0-4.62,0-6.91,0a66.1,66.1,0,0,0-9,.34,39.18,39.18,0,0,1-6.5.09c-1.65-.1-3.46-.12-5.71-.08h-.69a53.65,53.65,0,0,1-6.21-.14A60.12,60.12,0,0,0,90.29,54c-2.09,0-4.18.06-6.29.08-.39,0-.79,0-1.19,0-.81,0-1.65,0-2.49.05-1.76.13-3.51.29-5.27.45l-2.91.25a58,58,0,0,1-7.67.27,34.59,34.59,0,0,0-6.73.29,29.54,29.54,0,0,1-6.21.46c-1.85-.1-3.81-.12-6-.1-1.71,0-3.42.07-5.13.13L37.9,56H36.83c-.75,0-1.5-.06-2.25-.11a24.45,24.45,0,0,0-4.53,0l-1.64.22c-.88.12-1.76.24-2.65.32-.64.06-1.29.08-1.94.09s-1.25,0-1.85.09A16.07,16.07,0,0,0,19,57c-.59.17-1.87.74-1,2.58a1.42,1.42,0,0,1,.16.61c0,1-.1,2-.16,3l-.07,1.33c-.06,1-.12,2-.19,2.93a3.15,3.15,0,0,1-.09.42,2.87,2.87,0,0,0-.11.57c0,.42,0,.84-.05,1.25,0,.26,0,.52,0,.79s0,.35,0,.53-.05.48-.05.69a1.89,1.89,0,0,0,1.36,2l.29.07h0a1.43,1.43,0,0,1,.77,1l-1.27.6a1.71,1.71,0,0,0-1,1.33c-.06.32-.1.65-.13,1l0,.19a7.62,7.62,0,0,0,0,1.17,4.55,4.55,0,0,1-.16,1.79.59.59,0,0,0,.05.36,3.37,3.37,0,0,1,.11,1.59l0,.34a16.65,16.65,0,0,0-.11,8.69,2.19,2.19,0,0,0,.47,1.5l.25.3v0c-.6,3.24-.3,4-.47,6.31a11.11,11.11,0,0,0,0,1.29A1.75,1.75,0,0,0,19,103.18a1.71,1.71,0,0,1,.31.15l.38.18a10.5,10.5,0,0,0,1.91.67,17.09,17.09,0,0,0,5.2,0l2.4-.3c1-.14,2.09-.28,3.13-.37a69.32,69.32,0,0,1,9.11-.2,17.3,17.3,0,0,0,4.19-.24,6.52,6.52,0,0,1,2.16,0c1.36.17,2.75.4,4.09.61l1.68.27.31.06c.68.12,1.36.24,2,.32a40,40,0,0,0,7.89,0l.42,0a25.92,25.92,0,0,1,5.21.31,20.85,20.85,0,0,0,4,.31c1.42-.08,2.85-.23,4.24-.38,1-.11,2-.21,2.92-.29,1.87-.15,3.5-.22,5-.22,3.51,0,6.36-.06,9-.28.33,0,.66-.06,1-.09a25,25,0,0,1,3-.16c3.19,0,6.42.21,9.15.37,1.95.11,3.88.24,5.82.38l4.46.29a63.9,63.9,0,0,0,8.07-.07l.87-.06c1.6-.1,3.26-.2,4.87-.23,1.91,0,3.81,0,5.76,0,.78,0,1.56,0,2.33.07l1.34,0,1.09,0c1.05,0,2.09.07,3.13.07.61,0,1.26,0,1.88,0,.89,0,1.73,0,2.57,0,1,0,2,.12,3.06.2.81.06,1.61.13,2.42.17.58,0,1.15,0,1.73,0,.74,0,1.44,0,2.12.07a36.07,36.07,0,0,0,3.89.21c.74,0,1.48,0,2.22-.07s1.69-.09,2.52-.1c.67,0,1.35,0,2-.07a6.45,6.45,0,0,0,1.78-.42,2,2,0,0,0,1.18-1,8.37,8.37,0,0,0,.51-2.1,30.61,30.61,0,0,0,0-6.56C173.29,94.16,173.21,93.6,173.14,93ZM48.65,69.29Zm75.47-12.93Zm12.72,0Z"/><path class="f73aad9d-564a-4c84-9cfc-36cb5228b082" d="M47.54,82a1.09,1.09,0,0,0-.36,0,.91.91,0,0,1-.33,0l-.35-.14a.08.08,0,0,1-.06-.08c-.22,0-.33,0-.34,0s0-.07-.08-.07a1.41,1.41,0,0,1-.63-.22L45,81.34l-.16,0a.8.8,0,0,0-.44,0,.48.48,0,0,1-.3,0l-.14,0a1.14,1.14,0,0,1-.3,0l-.21,0a2,2,0,0,0-.35,0H43a2.91,2.91,0,0,0-.45-.06,1.57,1.57,0,0,0-.79.13.55.55,0,0,0-.36,0l-.33.09a.88.88,0,0,1-.24,0,.44.44,0,0,0-.27,0,.34.34,0,0,0-.06.22.5.5,0,0,0,.06.26.63.63,0,0,0-.05.3,2.66,2.66,0,0,1,0,.3c-.05.27-.08.44-.1.5a1.66,1.66,0,0,0,0,.24.65.65,0,0,1,0,.24,3.06,3.06,0,0,0,0,.54,1.18,1.18,0,0,1,0,.28,1.39,1.39,0,0,0-.13.6,1.57,1.57,0,0,0,.13.34.18.18,0,0,1,0,.11,3.16,3.16,0,0,0-.05.68c0,.13,0,.28,0,.42a1.66,1.66,0,0,1,0,.24,2,2,0,0,0,0,.27,1.53,1.53,0,0,1,.11.54,2.09,2.09,0,0,0,0,.25c0,.13,0,.25.08.38a1.65,1.65,0,0,1,0,.38,1.6,1.6,0,0,1,0,.49,1,1,0,0,0,0,.49.59.59,0,0,0,0,.21.51.51,0,0,1,.05.17.86.86,0,0,1-.08.38c0,.11-.11.21-.17.32a1.29,1.29,0,0,0-.29,0,.28.28,0,0,1-.22,0,1.1,1.1,0,0,1-.44,0,1.38,1.38,0,0,0-.45,0,.8.8,0,0,0-.34-.06,1.45,1.45,0,0,0-.37,0l-.46,0a.56.56,0,0,0-.26,0l-.21,0a2.27,2.27,0,0,0-.46-.11l-.33,0a1.09,1.09,0,0,0-.32,0H36a1.16,1.16,0,0,1-.53-.11.31.31,0,0,0-.27,0L35,90.18a1.2,1.2,0,0,1-.28-.28,1.06,1.06,0,0,1-.13-.54,2.23,2.23,0,0,1,.09-.32.93.93,0,0,0,0-.22,1.49,1.49,0,0,1,0-.25.36.36,0,0,0,0-.19,2.09,2.09,0,0,1,0-.25,1.41,1.41,0,0,1,0-.22c0-.07,0-.14,0-.23a3.63,3.63,0,0,0,0-.5,1.65,1.65,0,0,1,.06-.48,1.16,1.16,0,0,0,0-.41,1.42,1.42,0,0,1,0-.19.9.9,0,0,1,0-.25.22.22,0,0,0,0-.1,2.45,2.45,0,0,1,0-.55,2.63,2.63,0,0,0,0-.43,2.94,2.94,0,0,1,0-.46.78.78,0,0,0,0-.14c0-.1,0-.2,0-.3a1.87,1.87,0,0,0,0-.3,1.48,1.48,0,0,0,0-.22c0-.06,0-.14-.05-.22a1,1,0,0,1,0-.3.39.39,0,0,0,0-.14.77.77,0,0,0,0-.31.67.67,0,0,1,0-.26v-.35a1.06,1.06,0,0,0,0-.29,2.82,2.82,0,0,1-.06-.47c0-.15,0-.29.05-.41a1.91,1.91,0,0,0,0-.41V80a1.12,1.12,0,0,0,0-.24,1.28,1.28,0,0,0,0-.19.72.72,0,0,1,0-.22v-.2a.66.66,0,0,1,0-.21v-.44l.06-.18a.33.33,0,0,0,0-.17.84.84,0,0,1,0-.51.76.76,0,0,0,0-.5.15.15,0,0,0,0-.15.5.5,0,0,1,0-.2.89.89,0,0,1,0-.32.65.65,0,0,0,0-.31,2.09,2.09,0,0,1-.14-.73c0-.19,0-.37,0-.54a2.19,2.19,0,0,1,0-.41.22.22,0,0,0,0-.1,1.26,1.26,0,0,1,0-.47,1.46,1.46,0,0,0,.07-.19,1.36,1.36,0,0,0,0-.46.18.18,0,0,1,0-.17v-.6a.5.5,0,0,1,0-.34,1.24,1.24,0,0,0,0-.33.83.83,0,0,1,0-.32q0-.09-.09-.12c0-.21.07-.34.08-.38a.32.32,0,0,0,0-.16l-.06-.47a.28.28,0,0,1-.05-.21,2.65,2.65,0,0,0,0-.27,1.46,1.46,0,0,1-.08-.47,1.28,1.28,0,0,0,0-.19c0-.24-.06-.36,0-.38a.17.17,0,0,0,0-.07c0-.21-.07-.37-.08-.47a1.25,1.25,0,0,0-.08-.35,1.54,1.54,0,0,1,.15-.41.12.12,0,0,0,0-.13,2,2,0,0,0,.37-.19.14.14,0,0,1,.07-.06A2.35,2.35,0,0,1,35.8,67a.47.47,0,0,0,.24,0l.11,0,.41,0,.29.05a1.34,1.34,0,0,0,.35-.05.34.34,0,0,1,.31.08.16.16,0,0,1,.18,0,.18.18,0,0,0,.17,0l.47-.06a1.42,1.42,0,0,1,.78,0,1.34,1.34,0,0,0,.59.06L40,67.1A.42.42,0,0,0,40.2,67a1.61,1.61,0,0,1,.37,0h.17a1.62,1.62,0,0,0,.38,0l.38,0,.25,0h.46l.21,0a.38.38,0,0,0,.3.07l.2,0,.4,0,.39,0a1.4,1.4,0,0,0,.38-.07,3.27,3.27,0,0,0,.51.07,1.07,1.07,0,0,1,.25,0,.78.78,0,0,0,.35,0,1.93,1.93,0,0,1,.54-.11A.52.52,0,0,0,46,67a1.12,1.12,0,0,1,.38-.08.18.18,0,0,0,.16,0l.44-.07a.63.63,0,0,1,.27,0,.22.22,0,0,0,.14,0c.19.08.29.14.29.17a.23.23,0,0,0,0,.11,1.5,1.5,0,0,1,.09.18s.06.12.1.2.08.34.13.38a1.49,1.49,0,0,1,.12.45.47.47,0,0,0,.07.25.87.87,0,0,0,.07.17.74.74,0,0,1,.08.15,1.05,1.05,0,0,0,0,.34,1.17,1.17,0,0,1,.09.48.15.15,0,0,0,0,.16.73.73,0,0,0,0,.22c0,.06,0,.14.07.22a1,1,0,0,1,0,.3,1,1,0,0,0,0,.3.63.63,0,0,0,0,.19l.06.19a.47.47,0,0,1,0,.21.34.34,0,0,0,0,.2v.43a.5.5,0,0,1-.16.36l-.32,0-.28,0-.49,0-.27,0a1.63,1.63,0,0,1-.34-.1l-.07,0-.48-.09a1.16,1.16,0,0,0-.28-.1,1.23,1.23,0,0,1-.29-.09.42.42,0,0,1-.31,0,2.33,2.33,0,0,0-.32-.1,3.1,3.1,0,0,0-.86,0h-.79l-.39,0a2.22,2.22,0,0,0-.43,0l-.21,0a.22.22,0,0,1-.2-.11,1.62,1.62,0,0,1-.35,0h-.27l-.08,0-.31,0s0,0-.07,0a1.84,1.84,0,0,0-.55.08.61.61,0,0,1-.24,0l-.25.54a2.39,2.39,0,0,0,0,.41.69.69,0,0,1,0,.13.81.81,0,0,1,0,.35,1,1,0,0,0,0,.31q0,.28,0,.42v.25a1.59,1.59,0,0,0,0,.31.45.45,0,0,1,0,.19c0,.05,0,.12,0,.21s0,.19,0,.27a.6.6,0,0,0,0,.25.59.59,0,0,1,0,.13,2,2,0,0,1,0,.22.28.28,0,0,0,0,.19,1.2,1.2,0,0,1,.36.32.18.18,0,0,0,.17.09h.45a1.14,1.14,0,0,1,.31,0,2.48,2.48,0,0,1,.46,0h.24a2.54,2.54,0,0,1,.39,0l.15,0c.19,0,.29-.06.31,0l.1.07a1.05,1.05,0,0,0,.31,0s0,0,.07,0a2.83,2.83,0,0,0,.47,0l.38,0a1.17,1.17,0,0,1,.32,0,.58.58,0,0,0,.19,0l.17,0,.18,0h.34a1.83,1.83,0,0,0,.35,0l.67.08a.51.51,0,0,0,.31,0,.56.56,0,0,1,.24,0,.81.81,0,0,1,.27,0l.17.07a.15.15,0,0,0,.18,0,2.17,2.17,0,0,1,.28.38.76.76,0,0,1,.11.14.89.89,0,0,1,.08.17.58.58,0,0,1,0,.21.47.47,0,0,0,0,.17,1.66,1.66,0,0,1,0,.51l-.06.19v.3a1.12,1.12,0,0,1,0,.27.53.53,0,0,0,0,.25.74.74,0,0,1,0,.29,1.53,1.53,0,0,0-.07.5,1.93,1.93,0,0,1,0,.26.9.9,0,0,0,0,.33.37.37,0,0,1,0,.11,1.07,1.07,0,0,0-.22.41.23.23,0,0,1-.06.16,1.84,1.84,0,0,0-.16.38A.43.43,0,0,1,47.54,82Z"/><path class="f73aad9d-564a-4c84-9cfc-36cb5228b082" d="M57.86,67a3.24,3.24,0,0,1,.06,1.58.7.7,0,0,1-.06.35.63.63,0,0,0,0,.19.55.55,0,0,1,0,.16,1,1,0,0,0-.05.28.25.25,0,0,1,0,.1.56.56,0,0,0,0,.27,1.87,1.87,0,0,1,0,.27,1.2,1.2,0,0,1,0,.28c0,.08,0,.18-.07.29a2,2,0,0,0,0,.42.8.8,0,0,1-.08.4c0,.21,0,.38,0,.52a1.76,1.76,0,0,1,0,.4,2.61,2.61,0,0,0,0,.34.5.5,0,0,1,0,.16.22.22,0,0,0,0,.19,2.79,2.79,0,0,0-.1.46,2.13,2.13,0,0,1,0,.3,2.51,2.51,0,0,1,0,.44,2.64,2.64,0,0,1,0,.45,1.07,1.07,0,0,0,0,.25v.25a1.85,1.85,0,0,0,0,.54,1.13,1.13,0,0,1,0,.25,1.11,1.11,0,0,1,0,.3.17.17,0,0,0,0,.08,2.71,2.71,0,0,1,0,.4.91.91,0,0,0,0,.17.76.76,0,0,0,0,.21.88.88,0,0,1,0,.24,3,3,0,0,0,0,1,1.51,1.51,0,0,0,0,.55.86.86,0,0,1,0,.27,1.93,1.93,0,0,1,0,.26.73.73,0,0,0,0,.25,3.13,3.13,0,0,0,0,.51,1.57,1.57,0,0,1,0,.25,1.94,1.94,0,0,1,0,.24.34.34,0,0,0,0,.23.62.62,0,0,0,0,.48,1.16,1.16,0,0,0,0,.17.65.65,0,0,0,.05.18v.38a.87.87,0,0,1,0,.26.17.17,0,0,0,0,.08,1.22,1.22,0,0,0,0,.29.14.14,0,0,1,0,.06c0,.23-.06.35,0,.37s0,0,0,0a2.17,2.17,0,0,0,0,.54l.09.44a.76.76,0,0,1,0,.26.44.44,0,0,0,0,.25.73.73,0,0,0,.54.38,1.91,1.91,0,0,0,.51,0,1.32,1.32,0,0,1,.44,0l.48.1.34.08h.4a.22.22,0,0,1,.14,0,2.44,2.44,0,0,1,.48,0,.69.69,0,0,0,.47-.08.21.21,0,0,0,.24,0,.48.48,0,0,1,.24-.06l.3,0,.27,0,.38-.07a.92.92,0,0,1,.38-.08.27.27,0,0,0,.22-.07c0-.24,0-.5,0-.8a4.75,4.75,0,0,0,0-.85,3.6,3.6,0,0,1-.07-.7,3.18,3.18,0,0,1,0-.53,3.33,3.33,0,0,0,0-.54,3.56,3.56,0,0,0,0-.37,1.64,1.64,0,0,1,0-.23.58.58,0,0,0,0-.19.26.26,0,0,1,0-.16,4.45,4.45,0,0,0,0-.57,3.17,3.17,0,0,1,0-.41c0-.19,0-.38,0-.56s0-.35,0-.52a5.21,5.21,0,0,0,0-.6.34.34,0,0,1,0-.25,1.73,1.73,0,0,0,0-.32q-.06-.41-.09-.63a3.42,3.42,0,0,1-.05-.43,2.24,2.24,0,0,1,0-.52.65.65,0,0,1-.1-.36,3.93,3.93,0,0,0,0-.46c0-.3,0-.51-.06-.64a1.42,1.42,0,0,1,0-.34.62.62,0,0,0,0-.31.51.51,0,0,1,0-.17.85.85,0,0,1,0-.33.17.17,0,0,0,0-.14l-.13-.64a3.2,3.2,0,0,0,0-.58,2,2,0,0,1,0-.27,1.13,1.13,0,0,1,0-.43.6.6,0,0,0,0-.3.33.33,0,0,0,0-.17,1.91,1.91,0,0,1-.06-.21.39.39,0,0,0,.05-.31,1.46,1.46,0,0,1-.05-.38c0-.13,0-.22,0-.26a.19.19,0,0,1,0-.12,1.39,1.39,0,0,1,0-.32.51.51,0,0,0,0-.29l0-.44a.87.87,0,0,1,.07-.17.27.27,0,0,0,0-.18,1.69,1.69,0,0,0,0-.23.65.65,0,0,1,0-.24l.19-.41c.13-.17.22-.26.29-.27A.35.35,0,0,0,63.4,67a.12.12,0,0,0,.15,0,1,1,0,0,1,.19-.08h.16l.19,0,.37,0,.11,0h.23l.27,0,.27,0a.58.58,0,0,1,.24,0,4.82,4.82,0,0,0,.81.09.91.91,0,0,1,.49.13l.2-.06.18-.07a.74.74,0,0,1,.26,0,.44.44,0,0,0,.15,0,5.82,5.82,0,0,1,.68-.11.93.93,0,0,1,.36,0,3.27,3.27,0,0,0,0,.62,4.51,4.51,0,0,1,0,.62,2.26,2.26,0,0,0,0,.39s0,0,0,.11a.88.88,0,0,0,0,.24.55.55,0,0,1,0,.24,2.66,2.66,0,0,0-.09.54v.35a2.7,2.7,0,0,0-.06.47,1.7,1.7,0,0,0,0,.25,1.5,1.5,0,0,1,0,.22,1.27,1.27,0,0,0,0,.32s0,.06,0,.13a.73.73,0,0,1,0,.22.63.63,0,0,0,0,.19,1.37,1.37,0,0,0,0,.16,1.15,1.15,0,0,1,0,.19,1.83,1.83,0,0,0-.06.41,2.13,2.13,0,0,1,0,.27,1.69,1.69,0,0,0,0,.23c0,.22,0,.42,0,.61a3.07,3.07,0,0,1,0,.53.72.72,0,0,1-.1.35.69.69,0,0,1,0,.24.34.34,0,0,0,0,.2,4.06,4.06,0,0,1,0,.92,1.5,1.5,0,0,0,0,.6,2.62,2.62,0,0,0,0,.54.73.73,0,0,1,0,.22,1.35,1.35,0,0,0,0,.37.76.76,0,0,0,0,.11,1.28,1.28,0,0,0,0,.33,1.16,1.16,0,0,1,0,.17,1.21,1.21,0,0,1,0,.38,1.9,1.9,0,0,0,.07.54,5.57,5.57,0,0,1,.06.87q0,.49,0,.9a1.41,1.41,0,0,0,0,.48v.47a5.13,5.13,0,0,1,.06.54,1.84,1.84,0,0,1,0,.33,1.89,1.89,0,0,0,0,.3,2.39,2.39,0,0,1,.05.53c0,.11,0,.24,0,.39a2.41,2.41,0,0,0,0,.4,1.84,1.84,0,0,1,0,.33.85.85,0,0,0,0,.41v.47a1.87,1.87,0,0,1,0,.34,3,3,0,0,0,0,.39,2.12,2.12,0,0,0,.09.73,1.19,1.19,0,0,1,.1.51,4.41,4.41,0,0,0-.05.49,1.94,1.94,0,0,0,.05.55,4,4,0,0,1,.06.55v.34c0,.06,0,.12.07.19A.58.58,0,0,1,69,90a1.12,1.12,0,0,1-.29.2.28.28,0,0,0-.12.08,2.91,2.91,0,0,0-.41.14,1.23,1.23,0,0,1-.23.08l-.28.08-.1,0a2,2,0,0,1-.44,0,.41.41,0,0,0-.19,0l-.41.11-.38.11a1.77,1.77,0,0,1-.3,0,1.53,1.53,0,0,0-.3,0,2.54,2.54,0,0,1-.6.12,1.42,1.42,0,0,0-.37,0h0c-.13,0-.2-.09-.21-.14a.58.58,0,0,0,0-.14l-.17-.34a.05.05,0,0,1,0,0c-.08,0-.12-.1-.11-.16a.16.16,0,0,0-.05-.16,2.87,2.87,0,0,1-.15-.38,1.26,1.26,0,0,1-.07-.41,2.43,2.43,0,0,0,0-.38c-.25.06-.38.11-.38.14s0,0-.06,0a1.76,1.76,0,0,0-.3.21l-.11.11-.35.19c-.17.12-.26.18-.29.17l-.09,0a1.08,1.08,0,0,1-.29.16.09.09,0,0,0-.06,0,1.2,1.2,0,0,1-.38.15l-.22,0a1.07,1.07,0,0,1-.25.16.11.11,0,0,0-.07,0,.82.82,0,0,1-.34.1.21.21,0,0,0-.19.09l-.51,0a.33.33,0,0,0-.19.08.24.24,0,0,0-.17,0,.49.49,0,0,1-.24,0,1.36,1.36,0,0,1-.51-.09l-.44-.12-.13,0a.38.38,0,0,0-.27-.08.44.44,0,0,1-.2,0,1,1,0,0,1-.3-.11.26.26,0,0,0-.27,0,1.46,1.46,0,0,0-.44-.16.58.58,0,0,1-.19,0,2.17,2.17,0,0,0-.65-.19,1.25,1.25,0,0,1-.4-.07l-.36-.14-.05,0a1.14,1.14,0,0,0-.33-.15l-.27-.07a1.24,1.24,0,0,1-.36-.12A.19.19,0,0,0,54,89.2L53.65,89l-.46-.26-.14-.11-.35-.16L52.26,88a1,1,0,0,1-.19-.3,2.75,2.75,0,0,1,0-.34.33.33,0,0,0,0-.17,1.81,1.81,0,0,0-.07-.6l0-.51a6.21,6.21,0,0,1,0-1.14v-.34a1.91,1.91,0,0,1,0-.43,1.12,1.12,0,0,0,0-.27,2.8,2.8,0,0,1,.06-.63,1.06,1.06,0,0,0,0-.34,1.26,1.26,0,0,1,0-.36,3.45,3.45,0,0,1,.06-.51.58.58,0,0,0,0-.19,3.7,3.7,0,0,0,0-.42.14.14,0,0,1,0-.15.26.26,0,0,1,0-.23.56.56,0,0,0-.05-.3,2.22,2.22,0,0,0,.05-.49,1.07,1.07,0,0,0-.05-.21,1.22,1.22,0,0,1,0-.3.88.88,0,0,0,0-.17l0-.7a2.85,2.85,0,0,1-.08-.71,2.1,2.1,0,0,0,0-.43c0-.1,0-.2,0-.3a1.42,1.42,0,0,1,0-.3v-.41a1,1,0,0,1,0-.22.28.28,0,0,0-.07-.19l0-.64c0-.14,0-.27,0-.38s0-.21,0-.31a.86.86,0,0,0-.05-.24.86.86,0,0,1,0-.27c0-.06,0-.16,0-.3a1,1,0,0,0,0-.36.69.69,0,0,0,0-.22.93.93,0,0,1,0-.26.52.52,0,0,1,0-.35,1.55,1.55,0,0,0,0-.37c-.06-.17-.08-.27-.06-.29a.09.09,0,0,0,0-.06c0-.26,0-.45,0-.59a.7.7,0,0,0-.12-.36,1.88,1.88,0,0,0,0-.35s0,0,0,0c0-.25,0-.42,0-.49a1.29,1.29,0,0,0-.05-.21,2.28,2.28,0,0,1,0-.36v-.33l0-.45a1.47,1.47,0,0,1,0-.27.36.36,0,0,0-.06-.2,2.23,2.23,0,0,1,0-.73,1,1,0,0,0-.06-.6,1.84,1.84,0,0,1,.14-.32l.11-.12a2.08,2.08,0,0,0,.25-.29,1.27,1.27,0,0,0,.42,0,.34.34,0,0,1,.31.08h.41l.07,0,.41,0a.19.19,0,0,1,.13.07.73.73,0,0,1,.33,0,1.15,1.15,0,0,0,.36,0,3.17,3.17,0,0,1,.62,0,1.54,1.54,0,0,0,.43,0,3.12,3.12,0,0,0,.56,0l.26,0,.2,0a.25.25,0,0,0,.21,0l.58.06a1,1,0,0,0,.34,0Z"/><path class="f73aad9d-564a-4c84-9cfc-36cb5228b082" d="M79.37,81.23a2.75,2.75,0,0,0-.06.43v.17a1.29,1.29,0,0,0-.09.36.55.55,0,0,1-.07.24c0,.11-.08.2-.11.29A1.87,1.87,0,0,0,79,83c0,.23-.06.36-.06.38a.09.09,0,0,1,0,.06,1.55,1.55,0,0,0-.1.61.79.79,0,0,0-.08.3.36.36,0,0,1,0,.11c-.11.21-.15.32-.13.35a4,4,0,0,0-.06.56,1.21,1.21,0,0,1-.06.38c0,.22-.07.34-.08.37l0,.11a1,1,0,0,1,0,.36.44.44,0,0,0,0,.15.38.38,0,0,0-.06.22v.22a.38.38,0,0,0,0,.17.62.62,0,0,1,0,.18,2,2,0,0,1,0,.34.3.3,0,0,0,0,.1,1,1,0,0,1,0,.32.33.33,0,0,0,0,.15.5.5,0,0,1,0,.27.21.21,0,0,0,0,.24,1.75,1.75,0,0,0-.08.41,3,3,0,0,1-.08.48,1,1,0,0,0,0,.34.58.58,0,0,1,0,.23.75.75,0,0,1-.13.15.12.12,0,0,0,0,.19.27.27,0,0,0-.25.18.4.4,0,0,1-.29.2.56.56,0,0,1-.17-.09,1,1,0,0,0-.21-.13,1.65,1.65,0,0,1-.36-.09l-.11-.07a.24.24,0,0,1-.21,0,.56.56,0,0,0-.17-.09l-.38-.13-.16-.06a1.21,1.21,0,0,1-.32-.11s-.07,0-.09,0a.42.42,0,0,0-.35-.12.26.26,0,0,0-.14-.12L74.31,90l-.35-.1a1.29,1.29,0,0,0-.66-.28.39.39,0,0,0-.21-.13.54.54,0,0,1-.2-.1l-.32-.15a3.28,3.28,0,0,0-.38-.26c-.17-.12-.3-.22-.41-.28a.76.76,0,0,0-.09-.18,1.09,1.09,0,0,1-.13-.17.8.8,0,0,1-.1-.41.53.53,0,0,1,.13-.38,1.87,1.87,0,0,1,0-.27.25.25,0,0,0,0-.08.84.84,0,0,1,.1-.41.22.22,0,0,1,0-.19.35.35,0,0,0,.06-.19,1.17,1.17,0,0,1,0-.39,1,1,0,0,0,0-.24l.16-.32.12-.44.1-.35a1.21,1.21,0,0,1,0-.47,3.49,3.49,0,0,1,.12-.38c0-.17.1-.33.16-.48,0-.32.07-.52.08-.6s0-.18,0-.28a1.18,1.18,0,0,0,.16-.54l.06-.19a.84.84,0,0,1,.1-.22.36.36,0,0,1,0-.32,1.3,1.3,0,0,0,.11-.35.77.77,0,0,0,.13-.3.55.55,0,0,1,0-.17l.1-.35a2.57,2.57,0,0,1,0-.48c0-.06,0-.11,0-.15s0-.11,0-.19a.78.78,0,0,1,.07-.29.35.35,0,0,0,0-.16,1.8,1.8,0,0,1,0-.33.13.13,0,0,0,0-.08.56.56,0,0,0,0-.19.69.69,0,0,1,0-.19,2.53,2.53,0,0,0,.1-.42,2.59,2.59,0,0,1,.09-.4v-.44a2.38,2.38,0,0,0,.11-.32.51.51,0,0,0,0-.13l.09-.41a.51.51,0,0,1,0-.22.45.45,0,0,0,0-.19c0-.21,0-.35,0-.43a.38.38,0,0,1,0-.17,2.27,2.27,0,0,1,.09-.54,1.81,1.81,0,0,0,.09-.31.83.83,0,0,0,0-.31.68.68,0,0,1,0-.3l.12-.38a1.62,1.62,0,0,1,0-.41,2.25,2.25,0,0,1,.11-.5c0-.07.06-.13.08-.19s0-.29,0-.3,0,0,0-.08a3.12,3.12,0,0,1,.11-.54.52.52,0,0,0,0-.28.44.44,0,0,0,.06-.23,1.49,1.49,0,0,1,0-.28,1.15,1.15,0,0,1,0-.16,1.21,1.21,0,0,0,0-.19,1.58,1.58,0,0,1,.07-.47,1,1,0,0,1,.12-.61.64.64,0,0,1,.1-.34,2.12,2.12,0,0,0,.16-.51,1.7,1.7,0,0,0,.22-.32.23.23,0,0,1,0-.09c.1-.17.15-.26.14-.29s0,0,0-.09a.77.77,0,0,0,.5-.16c.19-.06.3-.08.32,0s0,0,.09,0a1.21,1.21,0,0,1,.4,0l.14,0A2,2,0,0,1,78,67a.19.19,0,0,0,.13,0,3.23,3.23,0,0,0,.46,0,1.08,1.08,0,0,1,.36,0,1.35,1.35,0,0,1,.54.06,2.51,2.51,0,0,1,.44,0h.54a2.11,2.11,0,0,1,.38,0A.42.42,0,0,0,81,67a1.28,1.28,0,0,0,.4,0,.74.74,0,0,1,.3,0A1.34,1.34,0,0,1,82,67a.69.69,0,0,0,.24,0,.74.74,0,0,1,.19.26.1.1,0,0,0,0,.08l.19.32c.09.23.13.37.15.41a.65.65,0,0,0,0,.13,1.17,1.17,0,0,0,.13.41,2.37,2.37,0,0,1,.13.51,2.41,2.41,0,0,1,.14.52.34.34,0,0,0,.11.24.2.2,0,0,0,0,.17.53.53,0,0,1,.08.17c0,.24.07.37.08.42l0,.15a1.39,1.39,0,0,1,.11.45c0,.06,0,.09.08.09a.13.13,0,0,0,0,.16.77.77,0,0,1,.08.19,1.41,1.41,0,0,1,0,.2.35.35,0,0,0,0,.24.65.65,0,0,0,.11.26.07.07,0,0,1,0,.06c.05.21.09.42.13.63a1.08,1.08,0,0,1,.08.37s0,.07,0,.07a.17.17,0,0,0,0,.21.83.83,0,0,0,.12.17c0,.19,0,.32,0,.38a.33.33,0,0,0,.06.19c.06.21.11.32.16.32a.17.17,0,0,0,0,.21.53.53,0,0,1,.09.2,4.08,4.08,0,0,0,.1.48,2.22,2.22,0,0,0,.09.28c.21.13.33.15.37.08a.7.7,0,0,0,0-.27,1.45,1.45,0,0,0,.22-.36.16.16,0,0,1,.07-.11,2.67,2.67,0,0,0,.17-.54,1.25,1.25,0,0,1,.08-.32,1.07,1.07,0,0,0,.16-.36.32.32,0,0,1,0-.14c0-.13.09-.26.14-.38a1,1,0,0,1,.24-.35c.06-.21.11-.38.14-.51s.07-.25.11-.38a1.8,1.8,0,0,1,.15-.36.49.49,0,0,1,.11-.14c.06-.26.1-.38.12-.38s0,0,0,0a1.34,1.34,0,0,1,.26-.53,2.65,2.65,0,0,0,.06-.34s0,0,.06,0c0-.25.08-.41.1-.48l.06-.19a2.43,2.43,0,0,0,.1-.28.63.63,0,0,1,.09-.22.78.78,0,0,0,.11-.33s0-.06,0-.08a.3.3,0,0,1,0-.23l.11-.25a1.7,1.7,0,0,0,.12-.39A.1.1,0,0,1,88.3,68l.17-.35a.5.5,0,0,1,.11-.16.8.8,0,0,1,.16-.4.59.59,0,0,0,.16-.23h.41a.2.2,0,0,0,.13,0,.68.68,0,0,0,.19-.08.25.25,0,0,1,.15,0,.52.52,0,0,1,.26.08.22.22,0,0,0,.28,0l.48,0a1,1,0,0,1,.3-.06.53.53,0,0,0,.23-.06,1,1,0,0,1,.43,0,.3.3,0,0,0,.14,0,.78.78,0,0,1,.35,0l.16,0H93a1,1,0,0,0,.46,0l.17-.08a1.08,1.08,0,0,1,.43.1.64.64,0,0,0,.43,0,3.5,3.5,0,0,1,.33.21.44.44,0,0,1,.08.11,1.37,1.37,0,0,1,.22.39.37.37,0,0,0,0,.15,1,1,0,0,1,.21.47.72.72,0,0,0,0,.29.47.47,0,0,0,0,.17s0,.11.07.17,0,.18.09.35a2.15,2.15,0,0,0,.06.35.65.65,0,0,1,0,.19,4.21,4.21,0,0,1,.06.49,1.57,1.57,0,0,0,0,.27.8.8,0,0,0,.06.3,2.08,2.08,0,0,1,.13.3,1.35,1.35,0,0,1,.14.51.6.6,0,0,0,0,.22.56.56,0,0,1,.08.3.44.44,0,0,0,0,.2,1.94,1.94,0,0,1,.13.57,1,1,0,0,0,.06.35,1.39,1.39,0,0,1,.1.33,2.83,2.83,0,0,0,.09.37,2.29,2.29,0,0,0,.07.44,1.38,1.38,0,0,0,.06.16,3.8,3.8,0,0,1,.08.38,2.21,2.21,0,0,0,0,.25,1.89,1.89,0,0,1,.08.49.63.63,0,0,0,0,.27c0,.17.07.27.08.32a.5.5,0,0,1,0,.12.49.49,0,0,1,0,.24c0,.08,0,.13.09.18a.26.26,0,0,0,0,.2l.11.17a.82.82,0,0,0,.06.35,1.51,1.51,0,0,0,0,.38,1.47,1.47,0,0,1,.13.4.32.32,0,0,0,0,.14l.13.35a2.84,2.84,0,0,0,.06.47.78.78,0,0,1,0,.22,4.33,4.33,0,0,0,.07.53l.06.3a1,1,0,0,1,.09.44,2.92,2.92,0,0,0,0,.51,5.62,5.62,0,0,0,.09.57c0,.19.08.37.13.53a3.35,3.35,0,0,1,.09.35,1.41,1.41,0,0,0,.08.41,1.18,1.18,0,0,0,.11.19.49.49,0,0,0,0,.37,2.47,2.47,0,0,1,.16.39,1.61,1.61,0,0,0,0,.26l0,.09a3,3,0,0,0,.09.33.69.69,0,0,0,.07.15l.12.44a2.39,2.39,0,0,1,.13.6.52.52,0,0,1,.08.19.39.39,0,0,0,.08.19,1.29,1.29,0,0,1,0,.19.3.3,0,0,0,.08.16,1.63,1.63,0,0,0,.13.69,2,2,0,0,1,0,.29v.19a1.34,1.34,0,0,1,0,.46.61.61,0,0,0,0,.27l-.25.26a.28.28,0,0,1-.06.08,2.41,2.41,0,0,1-.38.21l-.13,0-.35.09-.12.06a2.24,2.24,0,0,0-.51.18.83.83,0,0,1-.29.11l-.31.13a2.3,2.3,0,0,0-.32.15l-.3.07-.14.06-.32.1-.22.06a1.39,1.39,0,0,0-.35,0,1,1,0,0,0-.31.22c-.24,0-.35.06-.34.1s0,.06,0,.06a.19.19,0,0,0-.19,0,.26.26,0,0,1-.16.07.51.51,0,0,1-.29-.1.4.4,0,0,0-.31-.06,2.53,2.53,0,0,0-.22-.35c-.05,0-.05-.08,0-.13a1.12,1.12,0,0,1-.18-.28.35.35,0,0,0,0-.13,1.09,1.09,0,0,1,0-.44,1.29,1.29,0,0,0-.08-.38.56.56,0,0,1,0-.29l-.1-.63a2.83,2.83,0,0,1-.06-.44,1.25,1.25,0,0,0-.06-.44,1.46,1.46,0,0,1-.1-.32,2.15,2.15,0,0,0,0-.44l-.1-.45-.06-.3q0-.14-.06-.3a.4.4,0,0,0-.05-.22.57.57,0,0,1-.08-.19,2,2,0,0,0,0-.21,2.46,2.46,0,0,1,0-.26.7.7,0,0,0,0-.24.61.61,0,0,0-.07-.14.88.88,0,0,1-.07-.37.45.45,0,0,0-.05-.24,1.63,1.63,0,0,1-.1-.44,1.49,1.49,0,0,0,0-.17,1.11,1.11,0,0,0,0-.24,1.55,1.55,0,0,1-.16-.57q0-.19-.06-.36l-.06-.37a2.77,2.77,0,0,0-.1-.34l-.06-.13a.63.63,0,0,1-.07-.25,1.59,1.59,0,0,0,0-.29,1.53,1.53,0,0,1-.16-.41l-.09-.35c0-.23,0-.39,0-.47a.69.69,0,0,0,0-.22c0-.07-.05-.13-.07-.19a.22.22,0,0,1,0-.16L91.18,78a3.05,3.05,0,0,1-.13-.32l-.32.16-.22.33a.24.24,0,0,0,0,.12,1.75,1.75,0,0,1-.16.28.29.29,0,0,0-.06.1,1.91,1.91,0,0,1-.16.44.28.28,0,0,0,0,.22.68.68,0,0,0-.16.51.72.72,0,0,0-.13.28,1.92,1.92,0,0,1-.09.32l-.11.27-.11.26a.67.67,0,0,0-.08.24.65.65,0,0,1,0,.18,1.85,1.85,0,0,0-.22.69,2.7,2.7,0,0,1-.21.38.34.34,0,0,0,0,.19,1,1,0,0,0-.16.51l-.16.35a1.5,1.5,0,0,1-.08.3.21.21,0,0,0,0,.08,1,1,0,0,0-.06.26.48.48,0,0,1-.06.21.63.63,0,0,0-.07.22.19.19,0,0,1-.06.13v.39a.3.3,0,0,1,0,.12l-.06.34a4.06,4.06,0,0,1-.16.4.2.2,0,0,0,0,.11,2.26,2.26,0,0,0-.1.41.32.32,0,0,0-.06.17.27.27,0,0,1-.07.18,2.28,2.28,0,0,0-.12.3,1.18,1.18,0,0,1-.07.2.42.42,0,0,0-.06.21.42.42,0,0,1-.06.21.6.6,0,0,1-.1.38c-.08.29-.13.48-.16.55s0,.16-.06.27a.61.61,0,0,0-.19.35c0,.29-.08.46-.13.49s0,.09,0,.17a4,4,0,0,0-.42.27l-.11.08a.25.25,0,0,1-.16.06.28.28,0,0,0-.19.07,1,1,0,0,0-.35,0h-.13a1,1,0,0,1-.47-.15c-.15-.15-.27-.23-.35-.23a.39.39,0,0,0-.08-.25l-.14-.19a.4.4,0,0,0-.08-.35.41.41,0,0,1-.11-.34l-.1-.35a2,2,0,0,1-.15-.48c0-.21-.08-.32-.12-.35s0-.05,0-.09l-.14-.27a.33.33,0,0,1,0-.27,2.33,2.33,0,0,1-.19-.43l-.06-.2a5.74,5.74,0,0,0-.15-.59A1,1,0,0,0,83,85.6L83,85.22a.67.67,0,0,0-.1-.21l-.06-.11a1.8,1.8,0,0,0-.09-.51,1.33,1.33,0,0,1-.1-.28.33.33,0,0,0,0-.1,1.35,1.35,0,0,1-.1-.34.35.35,0,0,0,0-.16.66.66,0,0,0-.09-.19,1.56,1.56,0,0,1-.13-.26,1.24,1.24,0,0,1-.09-.37l-.07-.38a3.28,3.28,0,0,1-.17-.65,1.34,1.34,0,0,0-.08-.37.93.93,0,0,0-.09-.28.11.11,0,0,1,0-.1c-.08-.25-.13-.41-.14-.47a1.38,1.38,0,0,0-.08-.25q-.12-.25-.09-.27s0,0,0-.08l-.22-.35-.07-.35a1.62,1.62,0,0,1-.19-.44,3.37,3.37,0,0,1-.15-.48s-.08-.08-.1-.17a.17.17,0,0,0-.19-.14.23.23,0,0,0-.14.16c0,.08-.07.16-.11.25s-.12.36-.16.52-.08.32-.13.49,0,.24,0,.27l-.05.11a2.08,2.08,0,0,0-.06.24c0,.09-.05.17-.07.24-.08.27-.15.48-.2.63S79.42,81.1,79.37,81.23Z"/><path class="f73aad9d-564a-4c84-9cfc-36cb5228b082" d="M116,76.83a.3.3,0,0,0,.07.21.27.27,0,0,1,.06.17c0,.23,0,.42,0,.56s0,.26,0,.39c-.07.28-.11.49-.13.63a1.58,1.58,0,0,1-.06.53,1,1,0,0,0-.1.3,1.2,1.2,0,0,0-.08.36c0,.14,0,.29,0,.46a4.56,4.56,0,0,1-.11.46.35.35,0,0,0,0,.17,1.26,1.26,0,0,1-.05.46.89.89,0,0,0-.08.17c0,.24,0,.38,0,.43a.13.13,0,0,1-.08.11c-.25.07-.38.08-.39.05a.33.33,0,0,0-.08-.11l-.49-.18a.35.35,0,0,1-.21-.17l-.53-.09a1.54,1.54,0,0,0-.46-.19.49.49,0,0,1-.27-.13,1.83,1.83,0,0,0-.41-.13h-.16a.68.68,0,0,0-.35,0,2.39,2.39,0,0,1-.41,0l-.16,0a1,1,0,0,1-.28,0l-.22,0a1.75,1.75,0,0,0-.34,0h-.11l-.28-.06a.57.57,0,0,0-.26,0,1.62,1.62,0,0,0-.53.06,1.44,1.44,0,0,0-.53.07,1,1,0,0,1-.36.06.49.49,0,0,1-.24,0,.61.61,0,0,0-.27,0,.35.35,0,0,0-.06.24.54.54,0,0,0,.06.27.63.63,0,0,0,0,.3,2.81,2.81,0,0,1,0,.3,1,1,0,0,1,0,.3.47.47,0,0,0,0,.17.72.72,0,0,0,0,.25,2.48,2.48,0,0,1,0,.29,1.85,1.85,0,0,0,0,.47,1.23,1.23,0,0,1-.1.67.55.55,0,0,0,.1.41.87.87,0,0,0,.16.35,1.78,1.78,0,0,1,.36.06.12.12,0,0,0,.14,0,.33.33,0,0,0,.18.08.5.5,0,0,1,.2.08h.48l.38.06.49,0h.17a1.61,1.61,0,0,1,.41.07l.35,0,.29.07a.2.2,0,0,0,.19,0,.38.38,0,0,0,.23,0,.2.2,0,0,1,.11,0c.19-.06.3-.08.34-.06s.06,0,.11,0a.63.63,0,0,1,.42,0,2.16,2.16,0,0,0,.46,0l.48,0H114l.33-.07.4-.06h.73a.94.94,0,0,0,.36,0s.06,0,.08.06h.51a.92.92,0,0,1,.38.07.94.94,0,0,0,0,.33.2.2,0,0,1,0,.11.34.34,0,0,1,0,.2.18.18,0,0,0,0,.18.36.36,0,0,0-.13.3,3.22,3.22,0,0,1,0,.43l-.06.22-.06.16c-.07.17-.12.28-.15.34l-.11.23a3.27,3.27,0,0,0-.17.6,1.18,1.18,0,0,1-.08.31,1.13,1.13,0,0,0-.19.41c0,.07,0,.12-.13.16a.54.54,0,0,1,0,.32c0,.08-.08.17-.13.25a.86.86,0,0,0,0,.3s0,0,0,0-.27.15-.32.14a.17.17,0,0,0-.12,0l-.51.09a1.2,1.2,0,0,1-.28,0,1.8,1.8,0,0,0-.6,0,.13.13,0,0,1-.1,0,1.13,1.13,0,0,0-.35,0,.56.56,0,0,1-.22,0,3.31,3.31,0,0,1-.55,0,1.84,1.84,0,0,0-.52,0,1.06,1.06,0,0,0-.51-.06h-.73a1.87,1.87,0,0,1-.36,0l-.08,0a2.82,2.82,0,0,0-.4,0h-.41a1.05,1.05,0,0,0-.3,0,1,1,0,0,1-.41,0c-.11,0-.18,0-.22.07l-.24,0s-.09,0-.11,0a.45.45,0,0,0-.33,0,1.8,1.8,0,0,1-.37,0,.3.3,0,0,0-.26,0,.65.65,0,0,1-.31,0h-.23a.43.43,0,0,0-.24.06l-.35-.09-1.2,0a2.31,2.31,0,0,0-.59-.1,1.55,1.55,0,0,1-.33,0h-.79a.4.4,0,0,1-.3-.06.47.47,0,0,0-.3-.1,3,3,0,0,1-.35-.22l-.22-.32a1.72,1.72,0,0,1-.11-.25.51.51,0,0,1,0-.09c0-.26.08-.42.1-.48,0-.25.07-.39.08-.43a.34.34,0,0,0,0-.11.57.57,0,0,0,0-.22,1.11,1.11,0,0,1,0-.19,2.13,2.13,0,0,0,0-.54.94.94,0,0,1,0-.28,1.12,1.12,0,0,0,0-.27,1.24,1.24,0,0,1,0-.27l.08-.24a.4.4,0,0,0,0-.3c0-.19-.06-.29,0-.31a.25.25,0,0,0,0-.1c0-.27,0-.45,0-.53v-.45a1.28,1.28,0,0,0,0-.19,1,1,0,0,1,0-.16,4.4,4.4,0,0,0,0-.57c0-.08,0-.17,0-.28a2.88,2.88,0,0,0,0-.48.62.62,0,0,1,0-.28.35.35,0,0,0,0-.16,2.08,2.08,0,0,0,0-.5,1.35,1.35,0,0,0,0-.31.35.35,0,0,1,0-.17,3.91,3.91,0,0,1,0-.7c0-.16,0-.33,0-.5s0-.29,0-.3,0,0,0-.08a1.06,1.06,0,0,1,0-.3.61.61,0,0,0,0-.24,1.46,1.46,0,0,1,0-.66v-.21a.64.64,0,0,1,0-.2.48.48,0,0,1,0-.18.47.47,0,0,0,0-.17,1.33,1.33,0,0,1,0-.41.28.28,0,0,0,0-.1.87.87,0,0,0,0-.51l.06-.47a2.54,2.54,0,0,0,.1-.25.42.42,0,0,0,0-.26,1.86,1.86,0,0,1-.11-.42,1.51,1.51,0,0,1,0-.3.88.88,0,0,1,0-.4.92.92,0,0,0,0-.43,1.93,1.93,0,0,0,0-.38.58.58,0,0,1,0-.19l.06-.5c0-.28.07-.45.08-.51a1.23,1.23,0,0,0,0-.19,2.6,2.6,0,0,0,0-.36,1.23,1.23,0,0,1,0-.46.72.72,0,0,0,0-.25.28.28,0,0,1,0-.1,2.72,2.72,0,0,0,0-.43.34.34,0,0,1,0-.11c0-.29,0-.47-.07-.53a1.23,1.23,0,0,1,0-.45.52.52,0,0,0,0-.25,2.3,2.3,0,0,1,0-.48.58.58,0,0,0,0-.19c0-.25-.07-.39-.08-.42a.37.37,0,0,1,0-.11,1.11,1.11,0,0,0,0-.53c0-.09-.07-.17-.09-.23s.14-.35.16-.4a.36.36,0,0,0,0-.11,1.67,1.67,0,0,0,.44-.28L103,67l.21,0a.56.56,0,0,0,.3,0,.27.27,0,0,1,.24.07.38.38,0,0,1,.25,0l.29,0a1.21,1.21,0,0,0,.34,0,.33.33,0,0,1,.32.08,1.93,1.93,0,0,0,.46,0,.43.43,0,0,1,.14,0,.73.73,0,0,0,.29,0,.12.12,0,0,1,.09,0,1.62,1.62,0,0,1,.6.05,1.62,1.62,0,0,0,.6,0,1.54,1.54,0,0,0,.51-.1.7.7,0,0,1,.33,0l.14,0a1.34,1.34,0,0,0,.4,0l.4,0,.25,0a1.07,1.07,0,0,0,.25,0,1,1,0,0,0,.3,0,.32.32,0,0,1,.27,0,.82.82,0,0,0,.27.05l.08,0,.43,0h.39a.58.58,0,0,0,.19,0,.63.63,0,0,1,.19,0l.48,0,.3.08a.6.6,0,0,0,.3,0,1.53,1.53,0,0,1,.53-.11.76.76,0,0,0,.26,0,1.56,1.56,0,0,1,.38-.09l.6-.1a.85.85,0,0,1,.22-.08.38.38,0,0,0,.16,0c.21.13.32.21.32.24a.26.26,0,0,0,0,.11,1,1,0,0,1,.09.18,1.67,1.67,0,0,1,.06.2,4.6,4.6,0,0,0,.19.45.32.32,0,0,1,.07.22,2.23,2.23,0,0,1,.12.35.16.16,0,0,0,0,.09c.08.27.13.45.14.52a.81.81,0,0,0,.08.27,2.38,2.38,0,0,0,.12.51.9.9,0,0,1,.13.41,4,4,0,0,1,.16.82c0,.15,0,.23,0,.25l-.06.1a2.59,2.59,0,0,1-.07.62,1,1,0,0,1-.19.39,1.21,1.21,0,0,1-.36.07l-.37,0a.72.72,0,0,1-.26,0,2.05,2.05,0,0,1-.37,0,1.27,1.27,0,0,1-.31-.1.17.17,0,0,0-.1,0,1.72,1.72,0,0,0-.36-.09c-.06,0-.08,0-.08,0a.6.6,0,0,0-.24-.06.6.6,0,0,1-.24-.06,1,1,0,0,0-.27-.05.1.1,0,0,1-.07,0,.48.48,0,0,1-.2,0l-.18-.06a.69.69,0,0,0-.24,0,.63.63,0,0,1-.27,0h-.41a.65.65,0,0,1-.19,0,.58.58,0,0,1-.19,0h-.19l-.54,0a2,2,0,0,0-.44,0h-.22a.38.38,0,0,1-.23-.1.19.19,0,0,1-.19,0,.58.58,0,0,0-.19,0,1.12,1.12,0,0,1-.44,0,.28.28,0,0,0-.12,0c-.28,0-.42.09-.42.13a.39.39,0,0,0-.25,0l-.25.06a2.57,2.57,0,0,0-.19.37.61.61,0,0,1-.07.14v.57a.62.62,0,0,1,.07.33v.3a4.24,4.24,0,0,0,.05.44,2.26,2.26,0,0,1,0,.26,1.18,1.18,0,0,0,0,.53.54.54,0,0,0,0,.26c0,.1,0,.2,0,.28v.35a.22.22,0,0,1,0,.14,1.34,1.34,0,0,0,0,.24,1,1,0,0,1,.32.21.8.8,0,0,1,.09.14h.41a.41.41,0,0,0,.16,0c.21.08.35.1.41,0a.54.54,0,0,1,.22,0h.57l.19,0h.23c.16,0,.25,0,.26,0l.08.07a1.54,1.54,0,0,1,.45,0h.16l.28,0,.35,0a2.84,2.84,0,0,1,.47.06h.19l.19,0H113l.35,0,.41,0h.13a.81.81,0,0,0,.25,0,.76.76,0,0,1,.57,0l.25,0h.51a2.33,2.33,0,0,0,.38.16Z"/><path class="f73aad9d-564a-4c84-9cfc-36cb5228b082" d="M133.92,66.86c.15.15.22.25.22.29a.24.24,0,0,0,0,.13,1.29,1.29,0,0,1,0,.44c0,.15,0,.33,0,.54a.69.69,0,0,0,0,.28.39.39,0,0,1,0,.22,1,1,0,0,1-.07.18.7.7,0,0,0-.08.14,1,1,0,0,0,0,.32.19.19,0,0,1,0,.15.85.85,0,0,0-.06.4.88.88,0,0,1,0,.24c0,.25,0,.39-.08.42s-.08.07-.08.12a.34.34,0,0,1,0,.25,2.06,2.06,0,0,0-.07.25,2.55,2.55,0,0,1-.11.46,1.35,1.35,0,0,0-.08.24.86.86,0,0,1-.17.25.21.21,0,0,0-.08.1,1.49,1.49,0,0,1-.41,0h-.19a1.26,1.26,0,0,1-.46,0l-.17-.08a.26.26,0,0,0-.21,0,.35.35,0,0,1-.24,0,1.68,1.68,0,0,0-.46-.05l-.36,0-.3,0a1.11,1.11,0,0,1-.3-.08.28.28,0,0,1-.22,0,1.29,1.29,0,0,0-.29,0,.34.34,0,0,0-.2,0,.49.49,0,0,1-.24,0,1,1,0,0,0-.05.36c0,.12,0,.24,0,.37l0,.35.06.41a1.37,1.37,0,0,0,0,.19,1.15,1.15,0,0,1,0,.19,2.36,2.36,0,0,1,0,.35,2.14,2.14,0,0,0,0,.34l.09.57a2.19,2.19,0,0,1,0,.46.68.68,0,0,0,0,.4,1.48,1.48,0,0,0,0,.54,2.44,2.44,0,0,1,0,.28.53.53,0,0,0,0,.22,1.63,1.63,0,0,0,0,.51.89.89,0,0,1,0,.19.68.68,0,0,1,0,.19.58.58,0,0,0,0,.19,1.45,1.45,0,0,0,0,.39.14.14,0,0,1,0,.15,1.51,1.51,0,0,1,.06.41,3.17,3.17,0,0,0,0,.41.89.89,0,0,0,.07.28.11.11,0,0,1,0,.07.83.83,0,0,0,0,.38v.41c0,.17,0,.33,0,.5a2.46,2.46,0,0,0,0,.54,2.1,2.1,0,0,1,0,.27.27.27,0,0,0,0,.21,2,2,0,0,1,0,.34.25.25,0,0,0,0,.1,4.23,4.23,0,0,1,0,1l0,.6v.35c0,.15,0,.29,0,.43s0,.28,0,.42a5.38,5.38,0,0,0,.07.61,2.58,2.58,0,0,1,0,.47,1,1,0,0,0,0,.16,1.53,1.53,0,0,1,0,.3,1.24,1.24,0,0,0,0,.27c0,.25,0,.4,0,.46a1.15,1.15,0,0,1,0,.2l0,.45a5.13,5.13,0,0,0,.06.6c.08.27.11.45.06.53a.63.63,0,0,0,0,.23l.07.12a1,1,0,0,0-.05.35.7.7,0,0,1,0,.16,1,1,0,0,1-.34.24H129a3.34,3.34,0,0,1-.64,0h-.57a1.7,1.7,0,0,1-.34,0l-.1,0-.35,0h-.19l-.49,0-.17,0h-.37s-.08,0-.14,0l-.22,0H125l-.27,0a2.75,2.75,0,0,0-.45,0,.41.41,0,0,1-.24,0,.94.94,0,0,1-.32-.16,1.43,1.43,0,0,0-.17-.27l-.11-.14a.22.22,0,0,0,0-.16.78.78,0,0,1,0-.22,2.16,2.16,0,0,1,0-.35,2.53,2.53,0,0,0,0-.38.81.81,0,0,0,0-.24.14.14,0,0,1,0-.11.37.37,0,0,1,0-.21.35.35,0,0,0,0-.14,2.34,2.34,0,0,0,0-.38,1.69,1.69,0,0,1,0-.38,1.34,1.34,0,0,0,.06-.5.57.57,0,0,1,0-.26,1.51,1.51,0,0,0,0-.33.06.06,0,0,1,0-.05,1.16,1.16,0,0,1,0-.38.09.09,0,0,0,0-.06s0-.1,0-.19a2.3,2.3,0,0,0,0-.28q.06-.45.06-.54a1.54,1.54,0,0,1,0-.32s0,0,0,0V84.3a.31.31,0,0,1,0-.13,1.23,1.23,0,0,1,0-.27.34.34,0,0,0,0-.11,2.21,2.21,0,0,1,0-.46.59.59,0,0,0,0-.2,2.35,2.35,0,0,1,0-.76.86.86,0,0,1,0-.25.32.32,0,0,0,0-.13.62.62,0,0,0,0-.19.78.78,0,0,1,0-.25c0-.24,0-.41,0-.53s0-.24,0-.39-.07-.48-.08-.54a.41.41,0,0,1,0-.19c0-.32,0-.53,0-.63a1.72,1.72,0,0,0,0-.32,3.32,3.32,0,0,0,0-.46,2.5,2.5,0,0,1,0-.46.36.36,0,0,1,0-.19.26.26,0,0,0,0-.22,1,1,0,0,0,0-.39c0-.2,0-.36,0-.46s0-.19.07-.25a.69.69,0,0,0,0-.29v-.44a2.56,2.56,0,0,0,0-.57,1.73,1.73,0,0,1,0-.32,2.26,2.26,0,0,1,0-.27,1.5,1.5,0,0,0,0-.2V73.9a1.86,1.86,0,0,0-.07-.52,2.54,2.54,0,0,1,0-.39.54.54,0,0,0,0-.24,2.81,2.81,0,0,0,0-.3,3.25,3.25,0,0,1,0-.33,3.36,3.36,0,0,1-.5.06l-.3,0a1.57,1.57,0,0,0-.3,0,1.3,1.3,0,0,1-.35,0s0,0,0,0a1.47,1.47,0,0,1-.32.09l-.16,0a1.14,1.14,0,0,0-.36.07.44.44,0,0,1-.15,0,1,1,0,0,1-.3,0,.68.68,0,0,0-.3,0l-.34.06h-.34a.14.14,0,0,0-.11,0l-.39.13-.11.06a1,1,0,0,0-.29,0h-.06c-.17-.06-.26-.11-.26-.14s0,0-.06,0a1.34,1.34,0,0,0-.09-.26.82.82,0,0,1-.08-.63c0-.13.06-.25.08-.38a2.73,2.73,0,0,0,0-.35,1.32,1.32,0,0,1,.09-.41c0-.21,0-.35,0-.43a.64.64,0,0,1,0-.2c0-.23.1-.37.16-.41a2.91,2.91,0,0,1,0-.54.78.78,0,0,0,.08-.37.62.62,0,0,1,0-.23.69.69,0,0,1,0-.22.93.93,0,0,0,0-.26c0-.15,0-.29.05-.44a3.22,3.22,0,0,1,0-.38l.12-.13a.75.75,0,0,0,.13-.16l.35-.06.68,0,.65,0a1.86,1.86,0,0,0,.57.08l.31,0a1.34,1.34,0,0,1,.4,0,.9.9,0,0,0,.33,0h.24a.5.5,0,0,0,.3,0,.21.21,0,0,0,.16,0l.19,0a1.35,1.35,0,0,0,.41,0l.39,0a.67.67,0,0,1,.3.06l.37,0a.32.32,0,0,1,.14,0h.51l.19,0a1.88,1.88,0,0,1,.38.06,3.25,3.25,0,0,1,.61,0h.49a.79.79,0,0,1,.26,0c.12,0,.2.05.23,0a.11.11,0,0,1,.11,0l.45,0a2,2,0,0,0,.44,0,3.89,3.89,0,0,0,.51,0,1.62,1.62,0,0,1,.44,0,2.47,2.47,0,0,1,.66,0,1.33,1.33,0,0,0,.45,0l.35-.06a.64.64,0,0,1,.2,0,1.57,1.57,0,0,0,.3,0,1.24,1.24,0,0,0,.51,0,.48.48,0,0,1,.28,0,2.37,2.37,0,0,1,.7,0A.75.75,0,0,0,133.92,66.86Z"/><path class="f73aad9d-564a-4c84-9cfc-36cb5228b082" d="M150.09,66.86c.15.15.22.25.22.29a.35.35,0,0,0,0,.13,1.09,1.09,0,0,1,0,.44c0,.15,0,.33,0,.54a.9.9,0,0,0,0,.28.5.5,0,0,1,0,.22.58.58,0,0,1-.08.18s0,.1-.07.14a1,1,0,0,0,0,.32.24.24,0,0,1,0,.15.85.85,0,0,0-.06.4.88.88,0,0,1,0,.24c0,.25,0,.39-.08.42s-.08.07-.08.12a.29.29,0,0,1,0,.25,2.33,2.33,0,0,0-.06.25,2.55,2.55,0,0,1-.11.46,1.35,1.35,0,0,0-.08.24.86.86,0,0,1-.17.25.21.21,0,0,0-.08.1,1.49,1.49,0,0,1-.41,0h-.19a1.22,1.22,0,0,1-.46,0,.75.75,0,0,0-.18-.08.24.24,0,0,0-.2,0,.35.35,0,0,1-.24,0,1.68,1.68,0,0,0-.46-.05l-.36,0-.3,0a1.11,1.11,0,0,1-.3-.08.28.28,0,0,1-.22,0,1.29,1.29,0,0,0-.29,0,.34.34,0,0,0-.2,0,.49.49,0,0,1-.24,0,1,1,0,0,0,0,.36c0,.12,0,.24,0,.37l0,.35.06.41a1.28,1.28,0,0,0,0,.19.58.58,0,0,1,0,.19,2.36,2.36,0,0,1,0,.35,2.14,2.14,0,0,0,0,.34l.09.57a1.66,1.66,0,0,1-.05.46.77.77,0,0,0,0,.4,1.48,1.48,0,0,0,0,.54,2.44,2.44,0,0,1,0,.28.53.53,0,0,0,0,.22,1.63,1.63,0,0,0,0,.51.89.89,0,0,1,0,.19.68.68,0,0,1,0,.19.58.58,0,0,0,0,.19,1.45,1.45,0,0,0,0,.39.14.14,0,0,1,0,.15,1.51,1.51,0,0,1,.06.41,3.17,3.17,0,0,0,0,.41.66.66,0,0,0,.07.28.11.11,0,0,1,0,.07.83.83,0,0,0,0,.38v.41c0,.17,0,.33,0,.5a3.33,3.33,0,0,0,0,.54,1.87,1.87,0,0,1,0,.27.33.33,0,0,0,0,.21,2,2,0,0,1,0,.34.25.25,0,0,0,0,.1,4.23,4.23,0,0,1,0,1l0,.6v.35c0,.15,0,.29,0,.43s0,.28,0,.42a3.65,3.65,0,0,0,.07.61,2.58,2.58,0,0,1,0,.47,1,1,0,0,0,0,.16,1.53,1.53,0,0,1,0,.3,1.24,1.24,0,0,0,0,.27c0,.25,0,.4.05.46a1.15,1.15,0,0,1,0,.2l0,.45a5.13,5.13,0,0,0,.06.6.91.91,0,0,1,.06.53.63.63,0,0,0,0,.23l.07.12a1,1,0,0,0,0,.35.7.7,0,0,1,0,.16,1,1,0,0,1-.34.24h-.65a3.22,3.22,0,0,1-.63,0h-.57a1.79,1.79,0,0,1-.35,0l-.09,0-.35,0h-.19l-.49,0-.17,0h-.37s-.08,0-.14,0l-.22,0h-.4l-.27,0a2.75,2.75,0,0,0-.45,0,.41.41,0,0,1-.24,0,.85.85,0,0,1-.32-.16,1.43,1.43,0,0,0-.17-.27l-.11-.14a.22.22,0,0,0,0-.16.78.78,0,0,1,0-.22,2.16,2.16,0,0,1,0-.35,2.53,2.53,0,0,0,0-.38.68.68,0,0,0,0-.24.15.15,0,0,1,0-.11.37.37,0,0,1,0-.21.35.35,0,0,0,0-.14,2.34,2.34,0,0,0,0-.38,1.69,1.69,0,0,1,0-.38,1.34,1.34,0,0,0,.06-.5.57.57,0,0,1,0-.26,1.51,1.51,0,0,0,.05-.33s0,0,0-.05a1.16,1.16,0,0,1,0-.38.09.09,0,0,0,0-.06s0-.1,0-.19a2.44,2.44,0,0,0,0-.28,4.68,4.68,0,0,0,.07-.54,1.54,1.54,0,0,1,0-.32s0,0,0,0V84.3a.31.31,0,0,1,0-.13,1.23,1.23,0,0,1,0-.27.34.34,0,0,0,0-.11,2.21,2.21,0,0,1-.05-.46,1,1,0,0,0,0-.2,2.35,2.35,0,0,1,0-.76.86.86,0,0,1,0-.25.69.69,0,0,0,0-.13,1.23,1.23,0,0,0,0-.19.78.78,0,0,1,0-.25c0-.24,0-.41,0-.53s0-.24,0-.39-.07-.48-.08-.54a.41.41,0,0,1,0-.19c0-.32,0-.53,0-.63s0-.21,0-.32,0-.32,0-.46a2.5,2.5,0,0,1,0-.46.36.36,0,0,1,.05-.19s0-.11,0-.22a1.28,1.28,0,0,0,0-.39c0-.2,0-.36,0-.46a1.64,1.64,0,0,1,.07-.25.69.69,0,0,0,0-.29v-.44a2.56,2.56,0,0,0,0-.57,1.75,1.75,0,0,1,0-.32,2.13,2.13,0,0,1,0-.27,1.5,1.5,0,0,0,0-.2V73.9a1.86,1.86,0,0,0-.07-.52,2.54,2.54,0,0,1,0-.39.75.75,0,0,0,0-.24,2.81,2.81,0,0,0,0-.3,3.25,3.25,0,0,1,0-.33,3.36,3.36,0,0,1-.5.06l-.31,0a1.87,1.87,0,0,0-.3,0,1.24,1.24,0,0,1-.34,0s0,0,0,0a1.31,1.31,0,0,1-.31.09l-.16,0a1.14,1.14,0,0,0-.36.07l-.15,0a1,1,0,0,1-.3,0,.68.68,0,0,0-.3,0l-.35.06h-.33a.14.14,0,0,0-.11,0l-.39.13-.11.06a1,1,0,0,0-.29,0h-.06c-.17-.06-.26-.11-.26-.14s0,0-.06,0a1.34,1.34,0,0,0-.09-.26.82.82,0,0,1-.08-.63c0-.13,0-.25.08-.38a2.73,2.73,0,0,0,0-.35,1.32,1.32,0,0,1,.09-.41c0-.21,0-.35,0-.43a.64.64,0,0,1,0-.2.69.69,0,0,1,.16-.41,2.91,2.91,0,0,1,0-.54.78.78,0,0,0,.08-.37.62.62,0,0,1,0-.23.69.69,0,0,1,0-.22.93.93,0,0,0,0-.26c0-.15,0-.29.05-.44a3.43,3.43,0,0,1,0-.38.8.8,0,0,0,.13-.13.75.75,0,0,0,.13-.16l.35-.06.68,0,.65,0a1.84,1.84,0,0,0,.56.08l.32,0a1.34,1.34,0,0,1,.4,0,.91.91,0,0,0,.33,0h.24a.5.5,0,0,0,.3,0,.21.21,0,0,0,.16,0l.18,0a1.47,1.47,0,0,0,.42,0l.39,0a.67.67,0,0,1,.3.06l.37,0a.32.32,0,0,1,.14,0h.5l.2,0a1.71,1.71,0,0,1,.37.06,3.39,3.39,0,0,1,.62,0h.49a.79.79,0,0,1,.26,0c.12,0,.2.05.23,0a.11.11,0,0,1,.11,0l.45,0a2.06,2.06,0,0,0,.44,0,3.89,3.89,0,0,0,.51,0,1.62,1.62,0,0,1,.44,0,2.5,2.5,0,0,1,.66,0,1.33,1.33,0,0,0,.45,0l.34-.06a.71.71,0,0,1,.21,0,1.87,1.87,0,0,0,.3,0,1.26,1.26,0,0,0,.51,0,.47.47,0,0,1,.28,0,2.37,2.37,0,0,1,.7,0A.75.75,0,0,0,150.09,66.86Z"/><path class="f73aad9d-564a-4c84-9cfc-36cb5228b082" d="M152.56,66.9l.66-.13a.92.92,0,0,1,.29-.08l.06,0a1.36,1.36,0,0,1,.49,0,.59.59,0,0,0,.21,0,.24.24,0,0,0,.2,0,1,1,0,0,0,.21-.07.92.92,0,0,0,.35,0l.31,0a3.76,3.76,0,0,0,.67,0,.94.94,0,0,1,.44,0,1.73,1.73,0,0,1,.52,0l.15.06a.64.64,0,0,1,.41.1,1.33,1.33,0,0,1,.31-.06.33.33,0,0,1,.19.06,4,4,0,0,1,.67.13,1,1,0,0,1,.31.5,2.45,2.45,0,0,1,0,.48c0,.25,0,.4-.07.44v.47q0,.13-.06.24l-.06.24a.47.47,0,0,0,0,.17.28.28,0,0,1,0,.18,1.61,1.61,0,0,1,0,.42,1.4,1.4,0,0,0-.05.34,1,1,0,0,0,0,.2.41.41,0,0,1-.08.24,2.1,2.1,0,0,1,0,.4,3.56,3.56,0,0,1-.1.36,1.06,1.06,0,0,0,0,.41,1.15,1.15,0,0,1,0,.32,1.05,1.05,0,0,0-.08.42,1.28,1.28,0,0,1,0,.34,2.11,2.11,0,0,1,0,.25c0,.08,0,.18-.05.28a1.51,1.51,0,0,1,0,.34s0,0,0,0a2.24,2.24,0,0,0,0,.43.52.52,0,0,1,0,.3,1.08,1.08,0,0,1,0,.51c0,.15,0,.28,0,.39s0,.23,0,.34c0,.42,0,.77-.07,1a1,1,0,0,1,0,.33.22.22,0,0,0,0,.18.84.84,0,0,0-.1.41.13.13,0,0,1,0,.12q0,.36,0,.57a.58.58,0,0,1,0,.19.68.68,0,0,0,0,.19,6.81,6.81,0,0,1,.11,1.19c0,.28,0,.57,0,.87a.52.52,0,0,1,0,.22c0,.09,0,.16,0,.22s0,.25.05.37,0,.24,0,.39a.28.28,0,0,0,0,.22.61.61,0,0,1,0,.16,2.66,2.66,0,0,0,0,.44c0,.07,0,.14,0,.23s0,.34,0,.34a2.78,2.78,0,0,0,0,.45,1,1,0,0,1,0,.16,1.75,1.75,0,0,1,0,.34s0,0,0,0a4,4,0,0,0,0,.49c0,.15,0,.31.07.45s0,.49,0,.64l.06.2.06.21a.51.51,0,0,0,0,.22.63.63,0,0,1,0,.19v.41a1.39,1.39,0,0,0,0,.3l.06.3a1.59,1.59,0,0,1,0,.29.47.47,0,0,0,.07.25,1.85,1.85,0,0,0,.12.76,1.69,1.69,0,0,0,0,.55.32.32,0,0,1,0,.27,1.63,1.63,0,0,1-.19.27l-.12.18c-.15,0-.24,0-.26.07a.09.09,0,0,1-.09,0,.91.91,0,0,0-.44.13,1.63,1.63,0,0,0-.34,0s0,0-.08,0a3,3,0,0,0-.71,0,1.24,1.24,0,0,0-.33,0,.47.47,0,0,0-.17,0l-.18.06a1.15,1.15,0,0,0-.28,0,.15.15,0,0,1-.1,0l-.5-.09-.18-.07a.34.34,0,0,0-.2,0,1.21,1.21,0,0,1-.38,0,1.7,1.7,0,0,0-.45,0l-.3-.11a.15.15,0,0,0-.11,0,.77.77,0,0,0-.31,0,.22.22,0,0,1-.16,0l-.3-.18a.42.42,0,0,1-.14-.08,1.26,1.26,0,0,1-.15-.52.56.56,0,0,0,0-.3.18.18,0,0,0,0-.2.32.32,0,0,1,0-.21,1.18,1.18,0,0,0,.08-.38s0-.05,0-.09a1.34,1.34,0,0,0,.05-.4.42.42,0,0,1,0-.27,2.64,2.64,0,0,1,.06-.44.91.91,0,0,1,.06-.16v-.63a2.29,2.29,0,0,1,.06-.43.33.33,0,0,0,0-.17,1.64,1.64,0,0,0,0-.49.27.27,0,0,1,0-.18.89.89,0,0,0,0-.33c0-.12,0-.23,0-.33a1.36,1.36,0,0,1,0-.3.45.45,0,0,0,0-.3,5.61,5.61,0,0,0,.08-.87c0-.33,0-.65,0-1a1.23,1.23,0,0,0,0-.19,1.48,1.48,0,0,1,0-.22,4.69,4.69,0,0,0,0-.52.3.3,0,0,1,0-.21.15.15,0,0,1,0-.17.16.16,0,0,0,0-.18.16.16,0,0,0,0-.15,1.28,1.28,0,0,1,0-.19.92.92,0,0,1,0-.16.55.55,0,0,0,0-.22,2.41,2.41,0,0,1,0-.48,1.33,1.33,0,0,1,0-.19,1.14,1.14,0,0,0,0-.25.57.57,0,0,1,0-.13v-.6a1.48,1.48,0,0,0,0-.33.13.13,0,0,1,0-.08.89.89,0,0,0,0-.33.88.88,0,0,1,0-.21.73.73,0,0,1,0-.22.63.63,0,0,0,0-.19c0-.11,0-.22,0-.33a2.88,2.88,0,0,0-.05-.33c0-.19,0-.29,0-.29s0,0,0-.06a1.73,1.73,0,0,1,0-.45,1.41,1.41,0,0,0,0-.22,1.1,1.1,0,0,0-.06-.27.18.18,0,0,1,0-.11,1,1,0,0,1,0-.22,1.2,1.2,0,0,0,0-.28,2.39,2.39,0,0,1-.06-.38.58.58,0,0,0,0-.19,2.22,2.22,0,0,0,0-.34.68.68,0,0,1,0-.14v-.66a1.2,1.2,0,0,1,0-.32,1.15,1.15,0,0,0,0-.19,1.34,1.34,0,0,1,0-.57,2.47,2.47,0,0,0,0-.5,1.73,1.73,0,0,1-.05-.45,1.69,1.69,0,0,1,0-.23c0-.08,0-.14,0-.18a1.82,1.82,0,0,0,0-.66c0-.19-.07-.42-.1-.7a3.2,3.2,0,0,1-.12-1.3c0-.21.07-.31.08-.3s0,0,0,0a2.41,2.41,0,0,1,.1-.45Z"/></g><g id="edeca213-7eaf-4f01-ae47-6cd9f4f0ea5a" data-name="Livello 2"><path class="b8fd4106-46d5-47a5-bdbe-eefb1c533664" d="M173.14,93a19.79,19.79,0,0,1-.26-3.46h0a2.64,2.64,0,0,0-1.17-2.32c-.18-.12-.36-.22-.54-.32l-.23-.13c-.63-.37-1.07-.84-.1-1.74,1.18-1.1,1.41-2.65,1.64-4.14l0-.16c0-.17,0-.34-.06-.54a6,6,0,0,1,0-.61l0-1.15c0-.65,0-1.31,0-2a46,46,0,0,1,.25-7.14,15.53,15.53,0,0,0,.1-4.45,1.72,1.72,0,0,1,.29-1.33,4.29,4.29,0,0,0,.53-4.24,10.45,10.45,0,0,1-.36-1.12q-.12-.44-.27-.87a10.16,10.16,0,0,0-.52-1.22A2,2,0,0,0,170.73,55l-.46,0a20.15,20.15,0,0,0-2.08-.15c-3.07,0-6.14,0-9.2,0-2,0-4.16-.05-6.29-.21a27.12,27.12,0,0,0-6.3.14,14.07,14.07,0,0,1-4.44,0,24.78,24.78,0,0,0-4.13-.49c-1.72,0-3.44,0-5.16,0-2.27,0-4.62,0-6.91,0a66.1,66.1,0,0,0-9,.34,39.18,39.18,0,0,1-6.5.09c-1.65-.1-3.46-.12-5.71-.08h-.69a53.65,53.65,0,0,1-6.21-.14A60.12,60.12,0,0,0,90.29,54c-2.09,0-4.18.06-6.29.08-.39,0-.79,0-1.19,0-.81,0-1.65,0-2.49.05-1.76.13-3.51.29-5.27.45l-2.91.25a58,58,0,0,1-7.67.27,34.59,34.59,0,0,0-6.73.29,29.54,29.54,0,0,1-6.21.46c-1.85-.1-3.81-.12-6-.1-1.71,0-3.42.07-5.13.13L37.9,56H36.83c-.75,0-1.5-.06-2.25-.11a24.45,24.45,0,0,0-4.53,0l-1.64.22c-.88.12-1.76.24-2.65.32-.64.06-1.29.08-1.94.09s-1.25,0-1.85.09A16.07,16.07,0,0,0,19,57c-.59.17-1.87.74-1,2.58a1.42,1.42,0,0,1,.16.61c0,1-.1,2-.16,3l-.07,1.33c-.06,1-.12,2-.19,2.93a3.15,3.15,0,0,1-.09.42,2.87,2.87,0,0,0-.11.57c0,.42,0,.84-.05,1.25,0,.26,0,.52,0,.79s0,.35,0,.53-.05.48-.05.69a1.89,1.89,0,0,0,1.36,2l.29.07h0a1.43,1.43,0,0,1,.77,1l-1.27.6a1.71,1.71,0,0,0-1,1.33c-.06.32-.1.65-.13,1l0,.19a7.62,7.62,0,0,0,0,1.17,4.55,4.55,0,0,1-.16,1.79.59.59,0,0,0,.05.36,3.37,3.37,0,0,1,.11,1.59l0,.34a16.65,16.65,0,0,0-.11,8.69,2.19,2.19,0,0,0,.47,1.5l.25.3v0c-.6,3.24-.3,4-.47,6.31a11.11,11.11,0,0,0,0,1.29A1.75,1.75,0,0,0,19,103.18a1.71,1.71,0,0,1,.31.15l.38.18a10.5,10.5,0,0,0,1.91.67,17.09,17.09,0,0,0,5.2,0l2.4-.3c1-.14,2.09-.28,3.13-.37a69.32,69.32,0,0,1,9.11-.2,17.3,17.3,0,0,0,4.19-.24,6.52,6.52,0,0,1,2.16,0c1.36.17,2.75.4,4.09.61l1.68.27.31.06c.68.12,1.36.24,2,.32a40,40,0,0,0,7.89,0l.42,0a25.92,25.92,0,0,1,5.21.31,20.85,20.85,0,0,0,4,.31c1.42-.08,2.85-.23,4.24-.38,1-.11,2-.21,2.92-.29,1.87-.15,3.5-.22,5-.22,3.51,0,6.36-.06,9-.28.33,0,.66-.06,1-.09a25,25,0,0,1,3-.16c3.19,0,6.42.21,9.15.37,1.95.11,3.88.24,5.82.38l4.46.29a63.9,63.9,0,0,0,8.07-.07l.87-.06c1.6-.1,3.26-.2,4.87-.23,1.91,0,3.81,0,5.76,0,.78,0,1.56,0,2.33.07l1.34,0,1.09,0c1.05,0,2.09.07,3.13.07.61,0,1.26,0,1.88,0,.89,0,1.73,0,2.57,0,1,0,2,.12,3.06.2.81.06,1.61.13,2.42.17.58,0,1.15,0,1.73,0,.74,0,1.44,0,2.12.07a36.07,36.07,0,0,0,3.89.21c.74,0,1.48,0,2.22-.07s1.69-.09,2.52-.1c.67,0,1.35,0,2-.07a6.45,6.45,0,0,0,1.78-.42,2,2,0,0,0,1.18-1,8.37,8.37,0,0,0,.51-2.1,30.61,30.61,0,0,0,0-6.56C173.29,94.16,173.21,93.6,173.14,93ZM48.65,69.29Zm75.47-12.93Zm12.72,0Z"/><path class="f73aad9d-564a-4c84-9cfc-36cb5228b082" d="M47.54,82a1.09,1.09,0,0,0-.36,0,.91.91,0,0,1-.33,0l-.35-.14a.08.08,0,0,1-.06-.08c-.22,0-.33,0-.34,0s0-.07-.08-.07a1.41,1.41,0,0,1-.63-.22L45,81.34l-.16,0a.8.8,0,0,0-.44,0,.48.48,0,0,1-.3,0l-.14,0a1.14,1.14,0,0,1-.3,0l-.21,0a2,2,0,0,0-.35,0H43a2.91,2.91,0,0,0-.45-.06,1.57,1.57,0,0,0-.79.13.55.55,0,0,0-.36,0l-.33.09a.88.88,0,0,1-.24,0,.44.44,0,0,0-.27,0,.34.34,0,0,0-.06.22.5.5,0,0,0,.06.26.63.63,0,0,0-.05.3,2.66,2.66,0,0,1,0,.3c-.05.27-.08.44-.1.5a1.66,1.66,0,0,0,0,.24.65.65,0,0,1,0,.24,3.06,3.06,0,0,0,0,.54,1.18,1.18,0,0,1,0,.28,1.39,1.39,0,0,0-.13.6,1.57,1.57,0,0,0,.13.34.18.18,0,0,1,0,.11,3.16,3.16,0,0,0-.05.68c0,.13,0,.28,0,.42a1.66,1.66,0,0,1,0,.24,2,2,0,0,0,0,.27,1.53,1.53,0,0,1,.11.54,2.09,2.09,0,0,0,0,.25c0,.13,0,.25.08.38a1.65,1.65,0,0,1,0,.38,1.6,1.6,0,0,1,0,.49,1,1,0,0,0,0,.49.59.59,0,0,0,0,.21.51.51,0,0,1,.05.17.86.86,0,0,1-.08.38c0,.11-.11.21-.17.32a1.29,1.29,0,0,0-.29,0,.28.28,0,0,1-.22,0,1.1,1.1,0,0,1-.44,0,1.38,1.38,0,0,0-.45,0,.8.8,0,0,0-.34-.06,1.45,1.45,0,0,0-.37,0l-.46,0a.56.56,0,0,0-.26,0l-.21,0a2.27,2.27,0,0,0-.46-.11l-.33,0a1.09,1.09,0,0,0-.32,0H36a1.16,1.16,0,0,1-.53-.11.31.31,0,0,0-.27,0L35,90.18a1.2,1.2,0,0,1-.28-.28,1.06,1.06,0,0,1-.13-.54,2.23,2.23,0,0,1,.09-.32.93.93,0,0,0,0-.22,1.49,1.49,0,0,1,0-.25.36.36,0,0,0,0-.19,2.09,2.09,0,0,1,0-.25,1.41,1.41,0,0,1,0-.22c0-.07,0-.14,0-.23a3.63,3.63,0,0,0,0-.5,1.65,1.65,0,0,1,.06-.48,1.16,1.16,0,0,0,0-.41,1.42,1.42,0,0,1,0-.19.9.9,0,0,1,0-.25.22.22,0,0,0,0-.1,2.45,2.45,0,0,1,0-.55,2.63,2.63,0,0,0,0-.43,2.94,2.94,0,0,1,0-.46.78.78,0,0,0,0-.14c0-.1,0-.2,0-.3a1.87,1.87,0,0,0,0-.3,1.48,1.48,0,0,0,0-.22c0-.06,0-.14-.05-.22a1,1,0,0,1,0-.3.39.39,0,0,0,0-.14.77.77,0,0,0,0-.31.67.67,0,0,1,0-.26v-.35a1.06,1.06,0,0,0,0-.29,2.82,2.82,0,0,1-.06-.47c0-.15,0-.29.05-.41a1.91,1.91,0,0,0,0-.41V80a1.12,1.12,0,0,0,0-.24,1.28,1.28,0,0,0,0-.19.72.72,0,0,1,0-.22v-.2a.66.66,0,0,1,0-.21v-.44l.06-.18a.33.33,0,0,0,0-.17.84.84,0,0,1,0-.51.76.76,0,0,0,0-.5.15.15,0,0,0,0-.15.5.5,0,0,1,0-.2.89.89,0,0,1,0-.32.65.65,0,0,0,0-.31,2.09,2.09,0,0,1-.14-.73c0-.19,0-.37,0-.54a2.19,2.19,0,0,1,0-.41.22.22,0,0,0,0-.1,1.26,1.26,0,0,1,0-.47,1.46,1.46,0,0,0,.07-.19,1.36,1.36,0,0,0,0-.46.18.18,0,0,1,0-.17v-.6a.5.5,0,0,1,0-.34,1.24,1.24,0,0,0,0-.33.83.83,0,0,1,0-.32q0-.09-.09-.12c0-.21.07-.34.08-.38a.32.32,0,0,0,0-.16l-.06-.47a.28.28,0,0,1-.05-.21,2.65,2.65,0,0,0,0-.27,1.46,1.46,0,0,1-.08-.47,1.28,1.28,0,0,0,0-.19c0-.24-.06-.36,0-.38a.17.17,0,0,0,0-.07c0-.21-.07-.37-.08-.47a1.25,1.25,0,0,0-.08-.35,1.54,1.54,0,0,1,.15-.41.12.12,0,0,0,0-.13,2,2,0,0,0,.37-.19.14.14,0,0,1,.07-.06A2.35,2.35,0,0,1,35.8,67a.47.47,0,0,0,.24,0l.11,0,.41,0,.29.05a1.34,1.34,0,0,0,.35-.05.34.34,0,0,1,.31.08.16.16,0,0,1,.18,0,.18.18,0,0,0,.17,0l.47-.06a1.42,1.42,0,0,1,.78,0,1.34,1.34,0,0,0,.59.06L40,67.1A.42.42,0,0,0,40.2,67a1.61,1.61,0,0,1,.37,0h.17a1.62,1.62,0,0,0,.38,0l.38,0,.25,0h.46l.21,0a.38.38,0,0,0,.3.07l.2,0,.4,0,.39,0a1.4,1.4,0,0,0,.38-.07,3.27,3.27,0,0,0,.51.07,1.07,1.07,0,0,1,.25,0,.78.78,0,0,0,.35,0,1.93,1.93,0,0,1,.54-.11A.52.52,0,0,0,46,67a1.12,1.12,0,0,1,.38-.08.18.18,0,0,0,.16,0l.44-.07a.63.63,0,0,1,.27,0,.22.22,0,0,0,.14,0c.19.08.29.14.29.17a.23.23,0,0,0,0,.11,1.5,1.5,0,0,1,.09.18s.06.12.1.2.08.34.13.38a1.49,1.49,0,0,1,.12.45.47.47,0,0,0,.07.25.87.87,0,0,0,.07.17.74.74,0,0,1,.08.15,1.05,1.05,0,0,0,0,.34,1.17,1.17,0,0,1,.09.48.15.15,0,0,0,0,.16.73.73,0,0,0,0,.22c0,.06,0,.14.07.22a1,1,0,0,1,0,.3,1,1,0,0,0,0,.3.63.63,0,0,0,0,.19l.06.19a.47.47,0,0,1,0,.21.34.34,0,0,0,0,.2v.43a.5.5,0,0,1-.16.36l-.32,0-.28,0-.49,0-.27,0a1.63,1.63,0,0,1-.34-.1l-.07,0-.48-.09a1.16,1.16,0,0,0-.28-.1,1.23,1.23,0,0,1-.29-.09.42.42,0,0,1-.31,0,2.33,2.33,0,0,0-.32-.1,3.1,3.1,0,0,0-.86,0h-.79l-.39,0a2.22,2.22,0,0,0-.43,0l-.21,0a.22.22,0,0,1-.2-.11,1.62,1.62,0,0,1-.35,0h-.27l-.08,0-.31,0s0,0-.07,0a1.84,1.84,0,0,0-.55.08.61.61,0,0,1-.24,0l-.25.54a2.39,2.39,0,0,0,0,.41.69.69,0,0,1,0,.13.81.81,0,0,1,0,.35,1,1,0,0,0,0,.31q0,.28,0,.42v.25a1.59,1.59,0,0,0,0,.31.45.45,0,0,1,0,.19c0,.05,0,.12,0,.21s0,.19,0,.27a.6.6,0,0,0,0,.25.59.59,0,0,1,0,.13,2,2,0,0,1,0,.22.28.28,0,0,0,0,.19,1.2,1.2,0,0,1,.36.32.18.18,0,0,0,.17.09h.45a1.14,1.14,0,0,1,.31,0,2.48,2.48,0,0,1,.46,0h.24a2.54,2.54,0,0,1,.39,0l.15,0c.19,0,.29-.06.31,0l.1.07a1.05,1.05,0,0,0,.31,0s0,0,.07,0a2.83,2.83,0,0,0,.47,0l.38,0a1.17,1.17,0,0,1,.32,0,.58.58,0,0,0,.19,0l.17,0,.18,0h.34a1.83,1.83,0,0,0,.35,0l.67.08a.51.51,0,0,0,.31,0,.56.56,0,0,1,.24,0,.81.81,0,0,1,.27,0l.17.07a.15.15,0,0,0,.18,0,2.17,2.17,0,0,1,.28.38.76.76,0,0,1,.11.14.89.89,0,0,1,.08.17.58.58,0,0,1,0,.21.47.47,0,0,0,0,.17,1.66,1.66,0,0,1,0,.51l-.06.19v.3a1.12,1.12,0,0,1,0,.27.53.53,0,0,0,0,.25.74.74,0,0,1,0,.29,1.53,1.53,0,0,0-.07.5,1.93,1.93,0,0,1,0,.26.9.9,0,0,0,0,.33.37.37,0,0,1,0,.11,1.07,1.07,0,0,0-.22.41.23.23,0,0,1-.06.16,1.84,1.84,0,0,0-.16.38A.43.43,0,0,1,47.54,82Z"/><path class="f73aad9d-564a-4c84-9cfc-36cb5228b082" d="M57.86,67a3.24,3.24,0,0,1,.06,1.58.7.7,0,0,1-.06.35.63.63,0,0,0,0,.19.55.55,0,0,1,0,.16,1,1,0,0,0-.05.28.25.25,0,0,1,0,.1.56.56,0,0,0,0,.27,1.87,1.87,0,0,1,0,.27,1.2,1.2,0,0,1,0,.28c0,.08,0,.18-.07.29a2,2,0,0,0,0,.42.8.8,0,0,1-.08.4c0,.21,0,.38,0,.52a1.76,1.76,0,0,1,0,.4,2.61,2.61,0,0,0,0,.34.5.5,0,0,1,0,.16.22.22,0,0,0,0,.19,2.79,2.79,0,0,0-.1.46,2.13,2.13,0,0,1,0,.3,2.51,2.51,0,0,1,0,.44,2.64,2.64,0,0,1,0,.45,1.07,1.07,0,0,0,0,.25v.25a1.85,1.85,0,0,0,0,.54,1.13,1.13,0,0,1,0,.25,1.11,1.11,0,0,1,0,.3.17.17,0,0,0,0,.08,2.71,2.71,0,0,1,0,.4.91.91,0,0,0,0,.17.76.76,0,0,0,0,.21.88.88,0,0,1,0,.24,3,3,0,0,0,0,1,1.51,1.51,0,0,0,0,.55.86.86,0,0,1,0,.27,1.93,1.93,0,0,1,0,.26.73.73,0,0,0,0,.25,3.13,3.13,0,0,0,0,.51,1.57,1.57,0,0,1,0,.25,1.94,1.94,0,0,1,0,.24.34.34,0,0,0,0,.23.62.62,0,0,0,0,.48,1.16,1.16,0,0,0,0,.17.65.65,0,0,0,.05.18v.38a.87.87,0,0,1,0,.26.17.17,0,0,0,0,.08,1.22,1.22,0,0,0,0,.29.14.14,0,0,1,0,.06c0,.23-.06.35,0,.37s0,0,0,0a2.17,2.17,0,0,0,0,.54l.09.44a.76.76,0,0,1,0,.26.44.44,0,0,0,0,.25.73.73,0,0,0,.54.38,1.91,1.91,0,0,0,.51,0,1.32,1.32,0,0,1,.44,0l.48.1.34.08h.4a.22.22,0,0,1,.14,0,2.44,2.44,0,0,1,.48,0,.69.69,0,0,0,.47-.08.21.21,0,0,0,.24,0,.48.48,0,0,1,.24-.06l.3,0,.27,0,.38-.07a.92.92,0,0,1,.38-.08.27.27,0,0,0,.22-.07c0-.24,0-.5,0-.8a4.75,4.75,0,0,0,0-.85,3.6,3.6,0,0,1-.07-.7,3.18,3.18,0,0,1,0-.53,3.33,3.33,0,0,0,0-.54,3.56,3.56,0,0,0,0-.37,1.64,1.64,0,0,1,0-.23.58.58,0,0,0,0-.19.26.26,0,0,1,0-.16,4.45,4.45,0,0,0,0-.57,3.17,3.17,0,0,1,0-.41c0-.19,0-.38,0-.56s0-.35,0-.52a5.21,5.21,0,0,0,0-.6.34.34,0,0,1,0-.25,1.73,1.73,0,0,0,0-.32q-.06-.41-.09-.63a3.42,3.42,0,0,1-.05-.43,2.24,2.24,0,0,1,0-.52.65.65,0,0,1-.1-.36,3.93,3.93,0,0,0,0-.46c0-.3,0-.51-.06-.64a1.42,1.42,0,0,1,0-.34.62.62,0,0,0,0-.31.51.51,0,0,1,0-.17.85.85,0,0,1,0-.33.17.17,0,0,0,0-.14l-.13-.64a3.2,3.2,0,0,0,0-.58,2,2,0,0,1,0-.27,1.13,1.13,0,0,1,0-.43.6.6,0,0,0,0-.3.33.33,0,0,0,0-.17,1.91,1.91,0,0,1-.06-.21.39.39,0,0,0,.05-.31,1.46,1.46,0,0,1-.05-.38c0-.13,0-.22,0-.26a.19.19,0,0,1,0-.12,1.39,1.39,0,0,1,0-.32.51.51,0,0,0,0-.29l0-.44a.87.87,0,0,1,.07-.17.27.27,0,0,0,0-.18,1.69,1.69,0,0,0,0-.23.65.65,0,0,1,0-.24l.19-.41c.13-.17.22-.26.29-.27A.35.35,0,0,0,63.4,67a.12.12,0,0,0,.15,0,1,1,0,0,1,.19-.08h.16l.19,0,.37,0,.11,0h.23l.27,0,.27,0a.58.58,0,0,1,.24,0,4.82,4.82,0,0,0,.81.09.91.91,0,0,1,.49.13l.2-.06.18-.07a.74.74,0,0,1,.26,0,.44.44,0,0,0,.15,0,5.82,5.82,0,0,1,.68-.11.93.93,0,0,1,.36,0,3.27,3.27,0,0,0,0,.62,4.51,4.51,0,0,1,0,.62,2.26,2.26,0,0,0,0,.39s0,0,0,.11a.88.88,0,0,0,0,.24.55.55,0,0,1,0,.24,2.66,2.66,0,0,0-.09.54v.35a2.7,2.7,0,0,0-.06.47,1.7,1.7,0,0,0,0,.25,1.5,1.5,0,0,1,0,.22,1.27,1.27,0,0,0,0,.32s0,.06,0,.13a.73.73,0,0,1,0,.22.63.63,0,0,0,0,.19,1.37,1.37,0,0,0,0,.16,1.15,1.15,0,0,1,0,.19,1.83,1.83,0,0,0-.06.41,2.13,2.13,0,0,1,0,.27,1.69,1.69,0,0,0,0,.23c0,.22,0,.42,0,.61a3.07,3.07,0,0,1,0,.53.72.72,0,0,1-.1.35.69.69,0,0,1,0,.24.34.34,0,0,0,0,.2,4.06,4.06,0,0,1,0,.92,1.5,1.5,0,0,0,0,.6,2.62,2.62,0,0,0,0,.54.73.73,0,0,1,0,.22,1.35,1.35,0,0,0,0,.37.76.76,0,0,0,0,.11,1.28,1.28,0,0,0,0,.33,1.16,1.16,0,0,1,0,.17,1.21,1.21,0,0,1,0,.38,1.9,1.9,0,0,0,.07.54,5.57,5.57,0,0,1,.06.87q0,.49,0,.9a1.41,1.41,0,0,0,0,.48v.47a5.13,5.13,0,0,1,.06.54,1.84,1.84,0,0,1,0,.33,1.89,1.89,0,0,0,0,.3,2.39,2.39,0,0,1,.05.53c0,.11,0,.24,0,.39a2.41,2.41,0,0,0,0,.4,1.84,1.84,0,0,1,0,.33.85.85,0,0,0,0,.41v.47a1.87,1.87,0,0,1,0,.34,3,3,0,0,0,0,.39,2.12,2.12,0,0,0,.09.73,1.19,1.19,0,0,1,.1.51,4.41,4.41,0,0,0-.05.49,1.94,1.94,0,0,0,.05.55,4,4,0,0,1,.06.55v.34c0,.06,0,.12.07.19A.58.58,0,0,1,69,90a1.12,1.12,0,0,1-.29.2.28.28,0,0,0-.12.08,2.91,2.91,0,0,0-.41.14,1.23,1.23,0,0,1-.23.08l-.28.08-.1,0a2,2,0,0,1-.44,0,.41.41,0,0,0-.19,0l-.41.11-.38.11a1.77,1.77,0,0,1-.3,0,1.53,1.53,0,0,0-.3,0,2.54,2.54,0,0,1-.6.12,1.42,1.42,0,0,0-.37,0h0c-.13,0-.2-.09-.21-.14a.58.58,0,0,0,0-.14l-.17-.34a.05.05,0,0,1,0,0c-.08,0-.12-.1-.11-.16a.16.16,0,0,0-.05-.16,2.87,2.87,0,0,1-.15-.38,1.26,1.26,0,0,1-.07-.41,2.43,2.43,0,0,0,0-.38c-.25.06-.38.11-.38.14s0,0-.06,0a1.76,1.76,0,0,0-.3.21l-.11.11-.35.19c-.17.12-.26.18-.29.17l-.09,0a1.08,1.08,0,0,1-.29.16.09.09,0,0,0-.06,0,1.2,1.2,0,0,1-.38.15l-.22,0a1.07,1.07,0,0,1-.25.16.11.11,0,0,0-.07,0,.82.82,0,0,1-.34.1.21.21,0,0,0-.19.09l-.51,0a.33.33,0,0,0-.19.08.24.24,0,0,0-.17,0,.49.49,0,0,1-.24,0,1.36,1.36,0,0,1-.51-.09l-.44-.12-.13,0a.38.38,0,0,0-.27-.08.44.44,0,0,1-.2,0,1,1,0,0,1-.3-.11.26.26,0,0,0-.27,0,1.46,1.46,0,0,0-.44-.16.58.58,0,0,1-.19,0,2.17,2.17,0,0,0-.65-.19,1.25,1.25,0,0,1-.4-.07l-.36-.14-.05,0a1.14,1.14,0,0,0-.33-.15l-.27-.07a1.24,1.24,0,0,1-.36-.12A.19.19,0,0,0,54,89.2L53.65,89l-.46-.26-.14-.11-.35-.16L52.26,88a1,1,0,0,1-.19-.3,2.75,2.75,0,0,1,0-.34.33.33,0,0,0,0-.17,1.81,1.81,0,0,0-.07-.6l0-.51a6.21,6.21,0,0,1,0-1.14v-.34a1.91,1.91,0,0,1,0-.43,1.12,1.12,0,0,0,0-.27,2.8,2.8,0,0,1,.06-.63,1.06,1.06,0,0,0,0-.34,1.26,1.26,0,0,1,0-.36,3.45,3.45,0,0,1,.06-.51.58.58,0,0,0,0-.19,3.7,3.7,0,0,0,0-.42.14.14,0,0,1,0-.15.26.26,0,0,1,0-.23.56.56,0,0,0-.05-.3,2.22,2.22,0,0,0,.05-.49,1.07,1.07,0,0,0-.05-.21,1.22,1.22,0,0,1,0-.3.88.88,0,0,0,0-.17l0-.7a2.85,2.85,0,0,1-.08-.71,2.1,2.1,0,0,0,0-.43c0-.1,0-.2,0-.3a1.42,1.42,0,0,1,0-.3v-.41a1,1,0,0,1,0-.22.28.28,0,0,0-.07-.19l0-.64c0-.14,0-.27,0-.38s0-.21,0-.31a.86.86,0,0,0-.05-.24.86.86,0,0,1,0-.27c0-.06,0-.16,0-.3a1,1,0,0,0,0-.36.69.69,0,0,0,0-.22.93.93,0,0,1,0-.26.52.52,0,0,1,0-.35,1.55,1.55,0,0,0,0-.37c-.06-.17-.08-.27-.06-.29a.09.09,0,0,0,0-.06c0-.26,0-.45,0-.59a.7.7,0,0,0-.12-.36,1.88,1.88,0,0,0,0-.35s0,0,0,0c0-.25,0-.42,0-.49a1.29,1.29,0,0,0-.05-.21,2.28,2.28,0,0,1,0-.36v-.33l0-.45a1.47,1.47,0,0,1,0-.27.36.36,0,0,0-.06-.2,2.23,2.23,0,0,1,0-.73,1,1,0,0,0-.06-.6,1.84,1.84,0,0,1,.14-.32l.11-.12a2.08,2.08,0,0,0,.25-.29,1.27,1.27,0,0,0,.42,0,.34.34,0,0,1,.31.08h.41l.07,0,.41,0a.19.19,0,0,1,.13.07.73.73,0,0,1,.33,0,1.15,1.15,0,0,0,.36,0,3.17,3.17,0,0,1,.62,0,1.54,1.54,0,0,0,.43,0,3.12,3.12,0,0,0,.56,0l.26,0,.2,0a.25.25,0,0,0,.21,0l.58.06a1,1,0,0,0,.34,0Z"/><path class="f73aad9d-564a-4c84-9cfc-36cb5228b082" d="M79.37,81.23a2.75,2.75,0,0,0-.06.43v.17a1.29,1.29,0,0,0-.09.36.55.55,0,0,1-.07.24c0,.11-.08.2-.11.29A1.87,1.87,0,0,0,79,83c0,.23-.06.36-.06.38a.09.09,0,0,1,0,.06,1.55,1.55,0,0,0-.1.61.79.79,0,0,0-.08.3.36.36,0,0,1,0,.11c-.11.21-.15.32-.13.35a4,4,0,0,0-.06.56,1.21,1.21,0,0,1-.06.38c0,.22-.07.34-.08.37l0,.11a1,1,0,0,1,0,.36.44.44,0,0,0,0,.15.38.38,0,0,0-.06.22v.22a.38.38,0,0,0,0,.17.62.62,0,0,1,0,.18,2,2,0,0,1,0,.34.3.3,0,0,0,0,.1,1,1,0,0,1,0,.32.33.33,0,0,0,0,.15.5.5,0,0,1,0,.27.21.21,0,0,0,0,.24,1.75,1.75,0,0,0-.08.41,3,3,0,0,1-.08.48,1,1,0,0,0,0,.34.58.58,0,0,1,0,.23.75.75,0,0,1-.13.15.12.12,0,0,0,0,.19.27.27,0,0,0-.25.18.4.4,0,0,1-.29.2.56.56,0,0,1-.17-.09,1,1,0,0,0-.21-.13,1.65,1.65,0,0,1-.36-.09l-.11-.07a.24.24,0,0,1-.21,0,.56.56,0,0,0-.17-.09l-.38-.13-.16-.06a1.21,1.21,0,0,1-.32-.11s-.07,0-.09,0a.42.42,0,0,0-.35-.12.26.26,0,0,0-.14-.12L74.31,90l-.35-.1a1.29,1.29,0,0,0-.66-.28.39.39,0,0,0-.21-.13.54.54,0,0,1-.2-.1l-.32-.15a3.28,3.28,0,0,0-.38-.26c-.17-.12-.3-.22-.41-.28a.76.76,0,0,0-.09-.18,1.09,1.09,0,0,1-.13-.17.8.8,0,0,1-.1-.41.53.53,0,0,1,.13-.38,1.87,1.87,0,0,1,0-.27.25.25,0,0,0,0-.08.84.84,0,0,1,.1-.41.22.22,0,0,1,0-.19.35.35,0,0,0,.06-.19,1.17,1.17,0,0,1,0-.39,1,1,0,0,0,0-.24l.16-.32.12-.44.1-.35a1.21,1.21,0,0,1,0-.47,3.49,3.49,0,0,1,.12-.38c0-.17.1-.33.16-.48,0-.32.07-.52.08-.6s0-.18,0-.28a1.18,1.18,0,0,0,.16-.54l.06-.19a.84.84,0,0,1,.1-.22.36.36,0,0,1,0-.32,1.3,1.3,0,0,0,.11-.35.77.77,0,0,0,.13-.3.55.55,0,0,1,0-.17l.1-.35a2.57,2.57,0,0,1,0-.48c0-.06,0-.11,0-.15s0-.11,0-.19a.78.78,0,0,1,.07-.29.35.35,0,0,0,0-.16,1.8,1.8,0,0,1,0-.33.13.13,0,0,0,0-.08.56.56,0,0,0,0-.19.69.69,0,0,1,0-.19,2.53,2.53,0,0,0,.1-.42,2.59,2.59,0,0,1,.09-.4v-.44a2.38,2.38,0,0,0,.11-.32.51.51,0,0,0,0-.13l.09-.41a.51.51,0,0,1,0-.22.45.45,0,0,0,0-.19c0-.21,0-.35,0-.43a.38.38,0,0,1,0-.17,2.27,2.27,0,0,1,.09-.54,1.81,1.81,0,0,0,.09-.31.83.83,0,0,0,0-.31.68.68,0,0,1,0-.3l.12-.38a1.62,1.62,0,0,1,0-.41,2.25,2.25,0,0,1,.11-.5c0-.07.06-.13.08-.19s0-.29,0-.3,0,0,0-.08a3.12,3.12,0,0,1,.11-.54.52.52,0,0,0,0-.28.44.44,0,0,0,.06-.23,1.49,1.49,0,0,1,0-.28,1.15,1.15,0,0,1,0-.16,1.21,1.21,0,0,0,0-.19,1.58,1.58,0,0,1,.07-.47,1,1,0,0,1,.12-.61.64.64,0,0,1,.1-.34,2.12,2.12,0,0,0,.16-.51,1.7,1.7,0,0,0,.22-.32.23.23,0,0,1,0-.09c.1-.17.15-.26.14-.29s0,0,0-.09a.77.77,0,0,0,.5-.16c.19-.06.3-.08.32,0s0,0,.09,0a1.21,1.21,0,0,1,.4,0l.14,0A2,2,0,0,1,78,67a.19.19,0,0,0,.13,0,3.23,3.23,0,0,0,.46,0,1.08,1.08,0,0,1,.36,0,1.35,1.35,0,0,1,.54.06,2.51,2.51,0,0,1,.44,0h.54a2.11,2.11,0,0,1,.38,0A.42.42,0,0,0,81,67a1.28,1.28,0,0,0,.4,0,.74.74,0,0,1,.3,0A1.34,1.34,0,0,1,82,67a.69.69,0,0,0,.24,0,.74.74,0,0,1,.19.26.1.1,0,0,0,0,.08l.19.32c.09.23.13.37.15.41a.65.65,0,0,0,0,.13,1.17,1.17,0,0,0,.13.41,2.37,2.37,0,0,1,.13.51,2.41,2.41,0,0,1,.14.52.34.34,0,0,0,.11.24.2.2,0,0,0,0,.17.53.53,0,0,1,.08.17c0,.24.07.37.08.42l0,.15a1.39,1.39,0,0,1,.11.45c0,.06,0,.09.08.09a.13.13,0,0,0,0,.16.77.77,0,0,1,.08.19,1.41,1.41,0,0,1,0,.2.35.35,0,0,0,0,.24.65.65,0,0,0,.11.26.07.07,0,0,1,0,.06c.05.21.09.42.13.63a1.08,1.08,0,0,1,.08.37s0,.07,0,.07a.17.17,0,0,0,0,.21.83.83,0,0,0,.12.17c0,.19,0,.32,0,.38a.33.33,0,0,0,.06.19c.06.21.11.32.16.32a.17.17,0,0,0,0,.21.53.53,0,0,1,.09.2,4.08,4.08,0,0,0,.1.48,2.22,2.22,0,0,0,.09.28c.21.13.33.15.37.08a.7.7,0,0,0,0-.27,1.45,1.45,0,0,0,.22-.36.16.16,0,0,1,.07-.11,2.67,2.67,0,0,0,.17-.54,1.25,1.25,0,0,1,.08-.32,1.07,1.07,0,0,0,.16-.36.32.32,0,0,1,0-.14c0-.13.09-.26.14-.38a1,1,0,0,1,.24-.35c.06-.21.11-.38.14-.51s.07-.25.11-.38a1.8,1.8,0,0,1,.15-.36.49.49,0,0,1,.11-.14c.06-.26.1-.38.12-.38s0,0,0,0a1.34,1.34,0,0,1,.26-.53,2.65,2.65,0,0,0,.06-.34s0,0,.06,0c0-.25.08-.41.1-.48l.06-.19a2.43,2.43,0,0,0,.1-.28.63.63,0,0,1,.09-.22.78.78,0,0,0,.11-.33s0-.06,0-.08a.3.3,0,0,1,0-.23l.11-.25a1.7,1.7,0,0,0,.12-.39A.1.1,0,0,1,88.3,68l.17-.35a.5.5,0,0,1,.11-.16.8.8,0,0,1,.16-.4.59.59,0,0,0,.16-.23h.41a.2.2,0,0,0,.13,0,.68.68,0,0,0,.19-.08.25.25,0,0,1,.15,0,.52.52,0,0,1,.26.08.22.22,0,0,0,.28,0l.48,0a1,1,0,0,1,.3-.06.53.53,0,0,0,.23-.06,1,1,0,0,1,.43,0,.3.3,0,0,0,.14,0,.78.78,0,0,1,.35,0l.16,0H93a1,1,0,0,0,.46,0l.17-.08a1.08,1.08,0,0,1,.43.1.64.64,0,0,0,.43,0,3.5,3.5,0,0,1,.33.21.44.44,0,0,1,.08.11,1.37,1.37,0,0,1,.22.39.37.37,0,0,0,0,.15,1,1,0,0,1,.21.47.72.72,0,0,0,0,.29.47.47,0,0,0,0,.17s0,.11.07.17,0,.18.09.35a2.15,2.15,0,0,0,.06.35.65.65,0,0,1,0,.19,4.21,4.21,0,0,1,.06.49,1.57,1.57,0,0,0,0,.27.8.8,0,0,0,.06.3,2.08,2.08,0,0,1,.13.3,1.35,1.35,0,0,1,.14.51.6.6,0,0,0,0,.22.56.56,0,0,1,.08.3.44.44,0,0,0,0,.2,1.94,1.94,0,0,1,.13.57,1,1,0,0,0,.06.35,1.39,1.39,0,0,1,.1.33,2.83,2.83,0,0,0,.09.37,2.29,2.29,0,0,0,.07.44,1.38,1.38,0,0,0,.06.16,3.8,3.8,0,0,1,.08.38,2.21,2.21,0,0,0,0,.25,1.89,1.89,0,0,1,.08.49.63.63,0,0,0,0,.27c0,.17.07.27.08.32a.5.5,0,0,1,0,.12.49.49,0,0,1,0,.24c0,.08,0,.13.09.18a.26.26,0,0,0,0,.2l.11.17a.82.82,0,0,0,.06.35,1.51,1.51,0,0,0,0,.38,1.47,1.47,0,0,1,.13.4.32.32,0,0,0,0,.14l.13.35a2.84,2.84,0,0,0,.06.47.78.78,0,0,1,0,.22,4.33,4.33,0,0,0,.07.53l.06.3a1,1,0,0,1,.09.44,2.92,2.92,0,0,0,0,.51,5.62,5.62,0,0,0,.09.57c0,.19.08.37.13.53a3.35,3.35,0,0,1,.09.35,1.41,1.41,0,0,0,.08.41,1.18,1.18,0,0,0,.11.19.49.49,0,0,0,0,.37,2.47,2.47,0,0,1,.16.39,1.61,1.61,0,0,0,0,.26l0,.09a3,3,0,0,0,.09.33.69.69,0,0,0,.07.15l.12.44a2.39,2.39,0,0,1,.13.6.52.52,0,0,1,.08.19.39.39,0,0,0,.08.19,1.29,1.29,0,0,1,0,.19.3.3,0,0,0,.08.16,1.63,1.63,0,0,0,.13.69,2,2,0,0,1,0,.29v.19a1.34,1.34,0,0,1,0,.46.61.61,0,0,0,0,.27l-.25.26a.28.28,0,0,1-.06.08,2.41,2.41,0,0,1-.38.21l-.13,0-.35.09-.12.06a2.24,2.24,0,0,0-.51.18.83.83,0,0,1-.29.11l-.31.13a2.3,2.3,0,0,0-.32.15l-.3.07-.14.06-.32.1-.22.06a1.39,1.39,0,0,0-.35,0,1,1,0,0,0-.31.22c-.24,0-.35.06-.34.1s0,.06,0,.06a.19.19,0,0,0-.19,0,.26.26,0,0,1-.16.07.51.51,0,0,1-.29-.1.4.4,0,0,0-.31-.06,2.53,2.53,0,0,0-.22-.35c-.05,0-.05-.08,0-.13a1.12,1.12,0,0,1-.18-.28.35.35,0,0,0,0-.13,1.09,1.09,0,0,1,0-.44,1.29,1.29,0,0,0-.08-.38.56.56,0,0,1,0-.29l-.1-.63a2.83,2.83,0,0,1-.06-.44,1.25,1.25,0,0,0-.06-.44,1.46,1.46,0,0,1-.1-.32,2.15,2.15,0,0,0,0-.44l-.1-.45-.06-.3q0-.14-.06-.3a.4.4,0,0,0-.05-.22.57.57,0,0,1-.08-.19,2,2,0,0,0,0-.21,2.46,2.46,0,0,1,0-.26.7.7,0,0,0,0-.24.61.61,0,0,0-.07-.14.88.88,0,0,1-.07-.37.45.45,0,0,0-.05-.24,1.63,1.63,0,0,1-.1-.44,1.49,1.49,0,0,0,0-.17,1.11,1.11,0,0,0,0-.24,1.55,1.55,0,0,1-.16-.57q0-.19-.06-.36l-.06-.37a2.77,2.77,0,0,0-.1-.34l-.06-.13a.63.63,0,0,1-.07-.25,1.59,1.59,0,0,0,0-.29,1.53,1.53,0,0,1-.16-.41l-.09-.35c0-.23,0-.39,0-.47a.69.69,0,0,0,0-.22c0-.07-.05-.13-.07-.19a.22.22,0,0,1,0-.16L91.18,78a3.05,3.05,0,0,1-.13-.32l-.32.16-.22.33a.24.24,0,0,0,0,.12,1.75,1.75,0,0,1-.16.28.29.29,0,0,0-.06.1,1.91,1.91,0,0,1-.16.44.28.28,0,0,0,0,.22.68.68,0,0,0-.16.51.72.72,0,0,0-.13.28,1.92,1.92,0,0,1-.09.32l-.11.27-.11.26a.67.67,0,0,0-.08.24.65.65,0,0,1,0,.18,1.85,1.85,0,0,0-.22.69,2.7,2.7,0,0,1-.21.38.34.34,0,0,0,0,.19,1,1,0,0,0-.16.51l-.16.35a1.5,1.5,0,0,1-.08.3.21.21,0,0,0,0,.08,1,1,0,0,0-.06.26.48.48,0,0,1-.06.21.63.63,0,0,0-.07.22.19.19,0,0,1-.06.13v.39a.3.3,0,0,1,0,.12l-.06.34a4.06,4.06,0,0,1-.16.4.2.2,0,0,0,0,.11,2.26,2.26,0,0,0-.1.41.32.32,0,0,0-.06.17.27.27,0,0,1-.07.18,2.28,2.28,0,0,0-.12.3,1.18,1.18,0,0,1-.07.2.42.42,0,0,0-.06.21.42.42,0,0,1-.06.21.6.6,0,0,1-.1.38c-.08.29-.13.48-.16.55s0,.16-.06.27a.61.61,0,0,0-.19.35c0,.29-.08.46-.13.49s0,.09,0,.17a4,4,0,0,0-.42.27l-.11.08a.25.25,0,0,1-.16.06.28.28,0,0,0-.19.07,1,1,0,0,0-.35,0h-.13a1,1,0,0,1-.47-.15c-.15-.15-.27-.23-.35-.23a.39.39,0,0,0-.08-.25l-.14-.19a.4.4,0,0,0-.08-.35.41.41,0,0,1-.11-.34l-.1-.35a2,2,0,0,1-.15-.48c0-.21-.08-.32-.12-.35s0-.05,0-.09l-.14-.27a.33.33,0,0,1,0-.27,2.33,2.33,0,0,1-.19-.43l-.06-.2a5.74,5.74,0,0,0-.15-.59A1,1,0,0,0,83,85.6L83,85.22a.67.67,0,0,0-.1-.21l-.06-.11a1.8,1.8,0,0,0-.09-.51,1.33,1.33,0,0,1-.1-.28.33.33,0,0,0,0-.1,1.35,1.35,0,0,1-.1-.34.35.35,0,0,0,0-.16.66.66,0,0,0-.09-.19,1.56,1.56,0,0,1-.13-.26,1.24,1.24,0,0,1-.09-.37l-.07-.38a3.28,3.28,0,0,1-.17-.65,1.34,1.34,0,0,0-.08-.37.93.93,0,0,0-.09-.28.11.11,0,0,1,0-.1c-.08-.25-.13-.41-.14-.47a1.38,1.38,0,0,0-.08-.25q-.12-.25-.09-.27s0,0,0-.08l-.22-.35-.07-.35a1.62,1.62,0,0,1-.19-.44,3.37,3.37,0,0,1-.15-.48s-.08-.08-.1-.17a.17.17,0,0,0-.19-.14.23.23,0,0,0-.14.16c0,.08-.07.16-.11.25s-.12.36-.16.52-.08.32-.13.49,0,.24,0,.27l-.05.11a2.08,2.08,0,0,0-.06.24c0,.09-.05.17-.07.24-.08.27-.15.48-.2.63S79.42,81.1,79.37,81.23Z"/><path class="f73aad9d-564a-4c84-9cfc-36cb5228b082" d="M116,76.83a.3.3,0,0,0,.07.21.27.27,0,0,1,.06.17c0,.23,0,.42,0,.56s0,.26,0,.39c-.07.28-.11.49-.13.63a1.58,1.58,0,0,1-.06.53,1,1,0,0,0-.1.3,1.2,1.2,0,0,0-.08.36c0,.14,0,.29,0,.46a4.56,4.56,0,0,1-.11.46.35.35,0,0,0,0,.17,1.26,1.26,0,0,1-.05.46.89.89,0,0,0-.08.17c0,.24,0,.38,0,.43a.13.13,0,0,1-.08.11c-.25.07-.38.08-.39.05a.33.33,0,0,0-.08-.11l-.49-.18a.35.35,0,0,1-.21-.17l-.53-.09a1.54,1.54,0,0,0-.46-.19.49.49,0,0,1-.27-.13,1.83,1.83,0,0,0-.41-.13h-.16a.68.68,0,0,0-.35,0,2.39,2.39,0,0,1-.41,0l-.16,0a1,1,0,0,1-.28,0l-.22,0a1.75,1.75,0,0,0-.34,0h-.11l-.28-.06a.57.57,0,0,0-.26,0,1.62,1.62,0,0,0-.53.06,1.44,1.44,0,0,0-.53.07,1,1,0,0,1-.36.06.49.49,0,0,1-.24,0,.61.61,0,0,0-.27,0,.35.35,0,0,0-.06.24.54.54,0,0,0,.06.27.63.63,0,0,0,0,.3,2.81,2.81,0,0,1,0,.3,1,1,0,0,1,0,.3.47.47,0,0,0,0,.17.72.72,0,0,0,0,.25,2.48,2.48,0,0,1,0,.29,1.85,1.85,0,0,0,0,.47,1.23,1.23,0,0,1-.1.67.55.55,0,0,0,.1.41.87.87,0,0,0,.16.35,1.78,1.78,0,0,1,.36.06.12.12,0,0,0,.14,0,.33.33,0,0,0,.18.08.5.5,0,0,1,.2.08h.48l.38.06.49,0h.17a1.61,1.61,0,0,1,.41.07l.35,0,.29.07a.2.2,0,0,0,.19,0,.38.38,0,0,0,.23,0,.2.2,0,0,1,.11,0c.19-.06.3-.08.34-.06s.06,0,.11,0a.63.63,0,0,1,.42,0,2.16,2.16,0,0,0,.46,0l.48,0H114l.33-.07.4-.06h.73a.94.94,0,0,0,.36,0s.06,0,.08.06h.51a.92.92,0,0,1,.38.07.94.94,0,0,0,0,.33.2.2,0,0,1,0,.11.34.34,0,0,1,0,.2.18.18,0,0,0,0,.18.36.36,0,0,0-.13.3,3.22,3.22,0,0,1,0,.43l-.06.22-.06.16c-.07.17-.12.28-.15.34l-.11.23a3.27,3.27,0,0,0-.17.6,1.18,1.18,0,0,1-.08.31,1.13,1.13,0,0,0-.19.41c0,.07,0,.12-.13.16a.54.54,0,0,1,0,.32c0,.08-.08.17-.13.25a.86.86,0,0,0,0,.3s0,0,0,0-.27.15-.32.14a.17.17,0,0,0-.12,0l-.51.09a1.2,1.2,0,0,1-.28,0,1.8,1.8,0,0,0-.6,0,.13.13,0,0,1-.1,0,1.13,1.13,0,0,0-.35,0,.56.56,0,0,1-.22,0,3.31,3.31,0,0,1-.55,0,1.84,1.84,0,0,0-.52,0,1.06,1.06,0,0,0-.51-.06h-.73a1.87,1.87,0,0,1-.36,0l-.08,0a2.82,2.82,0,0,0-.4,0h-.41a1.05,1.05,0,0,0-.3,0,1,1,0,0,1-.41,0c-.11,0-.18,0-.22.07l-.24,0s-.09,0-.11,0a.45.45,0,0,0-.33,0,1.8,1.8,0,0,1-.37,0,.3.3,0,0,0-.26,0,.65.65,0,0,1-.31,0h-.23a.43.43,0,0,0-.24.06l-.35-.09-1.2,0a2.31,2.31,0,0,0-.59-.1,1.55,1.55,0,0,1-.33,0h-.79a.4.4,0,0,1-.3-.06.47.47,0,0,0-.3-.1,3,3,0,0,1-.35-.22l-.22-.32a1.72,1.72,0,0,1-.11-.25.51.51,0,0,1,0-.09c0-.26.08-.42.1-.48,0-.25.07-.39.08-.43a.34.34,0,0,0,0-.11.57.57,0,0,0,0-.22,1.11,1.11,0,0,1,0-.19,2.13,2.13,0,0,0,0-.54.94.94,0,0,1,0-.28,1.12,1.12,0,0,0,0-.27,1.24,1.24,0,0,1,0-.27l.08-.24a.4.4,0,0,0,0-.3c0-.19-.06-.29,0-.31a.25.25,0,0,0,0-.1c0-.27,0-.45,0-.53v-.45a1.28,1.28,0,0,0,0-.19,1,1,0,0,1,0-.16,4.4,4.4,0,0,0,0-.57c0-.08,0-.17,0-.28a2.88,2.88,0,0,0,0-.48.62.62,0,0,1,0-.28.35.35,0,0,0,0-.16,2.08,2.08,0,0,0,0-.5,1.35,1.35,0,0,0,0-.31.35.35,0,0,1,0-.17,3.91,3.91,0,0,1,0-.7c0-.16,0-.33,0-.5s0-.29,0-.3,0,0,0-.08a1.06,1.06,0,0,1,0-.3.61.61,0,0,0,0-.24,1.46,1.46,0,0,1,0-.66v-.21a.64.64,0,0,1,0-.2.48.48,0,0,1,0-.18.47.47,0,0,0,0-.17,1.33,1.33,0,0,1,0-.41.28.28,0,0,0,0-.1.87.87,0,0,0,0-.51l.06-.47a2.54,2.54,0,0,0,.1-.25.42.42,0,0,0,0-.26,1.86,1.86,0,0,1-.11-.42,1.51,1.51,0,0,1,0-.3.88.88,0,0,1,0-.4.92.92,0,0,0,0-.43,1.93,1.93,0,0,0,0-.38.58.58,0,0,1,0-.19l.06-.5c0-.28.07-.45.08-.51a1.23,1.23,0,0,0,0-.19,2.6,2.6,0,0,0,0-.36,1.23,1.23,0,0,1,0-.46.72.72,0,0,0,0-.25.28.28,0,0,1,0-.1,2.72,2.72,0,0,0,0-.43.34.34,0,0,1,0-.11c0-.29,0-.47-.07-.53a1.23,1.23,0,0,1,0-.45.52.52,0,0,0,0-.25,2.3,2.3,0,0,1,0-.48.58.58,0,0,0,0-.19c0-.25-.07-.39-.08-.42a.37.37,0,0,1,0-.11,1.11,1.11,0,0,0,0-.53c0-.09-.07-.17-.09-.23s.14-.35.16-.4a.36.36,0,0,0,0-.11,1.67,1.67,0,0,0,.44-.28L103,67l.21,0a.56.56,0,0,0,.3,0,.27.27,0,0,1,.24.07.38.38,0,0,1,.25,0l.29,0a1.21,1.21,0,0,0,.34,0,.33.33,0,0,1,.32.08,1.93,1.93,0,0,0,.46,0,.43.43,0,0,1,.14,0,.73.73,0,0,0,.29,0,.12.12,0,0,1,.09,0,1.62,1.62,0,0,1,.6.05,1.62,1.62,0,0,0,.6,0,1.54,1.54,0,0,0,.51-.1.7.7,0,0,1,.33,0l.14,0a1.34,1.34,0,0,0,.4,0l.4,0,.25,0a1.07,1.07,0,0,0,.25,0,1,1,0,0,0,.3,0,.32.32,0,0,1,.27,0,.82.82,0,0,0,.27.05l.08,0,.43,0h.39a.58.58,0,0,0,.19,0,.63.63,0,0,1,.19,0l.48,0,.3.08a.6.6,0,0,0,.3,0,1.53,1.53,0,0,1,.53-.11.76.76,0,0,0,.26,0,1.56,1.56,0,0,1,.38-.09l.6-.1a.85.85,0,0,1,.22-.08.38.38,0,0,0,.16,0c.21.13.32.21.32.24a.26.26,0,0,0,0,.11,1,1,0,0,1,.09.18,1.67,1.67,0,0,1,.06.2,4.6,4.6,0,0,0,.19.45.32.32,0,0,1,.07.22,2.23,2.23,0,0,1,.12.35.16.16,0,0,0,0,.09c.08.27.13.45.14.52a.81.81,0,0,0,.08.27,2.38,2.38,0,0,0,.12.51.9.9,0,0,1,.13.41,4,4,0,0,1,.16.82c0,.15,0,.23,0,.25l-.06.1a2.59,2.59,0,0,1-.07.62,1,1,0,0,1-.19.39,1.21,1.21,0,0,1-.36.07l-.37,0a.72.72,0,0,1-.26,0,2.05,2.05,0,0,1-.37,0,1.27,1.27,0,0,1-.31-.1.17.17,0,0,0-.1,0,1.72,1.72,0,0,0-.36-.09c-.06,0-.08,0-.08,0a.6.6,0,0,0-.24-.06.6.6,0,0,1-.24-.06,1,1,0,0,0-.27-.05.1.1,0,0,1-.07,0,.48.48,0,0,1-.2,0l-.18-.06a.69.69,0,0,0-.24,0,.63.63,0,0,1-.27,0h-.41a.65.65,0,0,1-.19,0,.58.58,0,0,1-.19,0h-.19l-.54,0a2,2,0,0,0-.44,0h-.22a.38.38,0,0,1-.23-.1.19.19,0,0,1-.19,0,.58.58,0,0,0-.19,0,1.12,1.12,0,0,1-.44,0,.28.28,0,0,0-.12,0c-.28,0-.42.09-.42.13a.39.39,0,0,0-.25,0l-.25.06a2.57,2.57,0,0,0-.19.37.61.61,0,0,1-.07.14v.57a.62.62,0,0,1,.07.33v.3a4.24,4.24,0,0,0,.05.44,2.26,2.26,0,0,1,0,.26,1.18,1.18,0,0,0,0,.53.54.54,0,0,0,0,.26c0,.1,0,.2,0,.28v.35a.22.22,0,0,1,0,.14,1.34,1.34,0,0,0,0,.24,1,1,0,0,1,.32.21.8.8,0,0,1,.09.14h.41a.41.41,0,0,0,.16,0c.21.08.35.1.41,0a.54.54,0,0,1,.22,0h.57l.19,0h.23c.16,0,.25,0,.26,0l.08.07a1.54,1.54,0,0,1,.45,0h.16l.28,0,.35,0a2.84,2.84,0,0,1,.47.06h.19l.19,0H113l.35,0,.41,0h.13a.81.81,0,0,0,.25,0,.76.76,0,0,1,.57,0l.25,0h.51a2.33,2.33,0,0,0,.38.16Z"/><path class="f73aad9d-564a-4c84-9cfc-36cb5228b082" d="M133.92,66.86c.15.15.22.25.22.29a.24.24,0,0,0,0,.13,1.29,1.29,0,0,1,0,.44c0,.15,0,.33,0,.54a.69.69,0,0,0,0,.28.39.39,0,0,1,0,.22,1,1,0,0,1-.07.18.7.7,0,0,0-.08.14,1,1,0,0,0,0,.32.19.19,0,0,1,0,.15.85.85,0,0,0-.06.4.88.88,0,0,1,0,.24c0,.25,0,.39-.08.42s-.08.07-.08.12a.34.34,0,0,1,0,.25,2.06,2.06,0,0,0-.07.25,2.55,2.55,0,0,1-.11.46,1.35,1.35,0,0,0-.08.24.86.86,0,0,1-.17.25.21.21,0,0,0-.08.1,1.49,1.49,0,0,1-.41,0h-.19a1.26,1.26,0,0,1-.46,0l-.17-.08a.26.26,0,0,0-.21,0,.35.35,0,0,1-.24,0,1.68,1.68,0,0,0-.46-.05l-.36,0-.3,0a1.11,1.11,0,0,1-.3-.08.28.28,0,0,1-.22,0,1.29,1.29,0,0,0-.29,0,.34.34,0,0,0-.2,0,.49.49,0,0,1-.24,0,1,1,0,0,0-.05.36c0,.12,0,.24,0,.37l0,.35.06.41a1.37,1.37,0,0,0,0,.19,1.15,1.15,0,0,1,0,.19,2.36,2.36,0,0,1,0,.35,2.14,2.14,0,0,0,0,.34l.09.57a2.19,2.19,0,0,1,0,.46.68.68,0,0,0,0,.4,1.48,1.48,0,0,0,0,.54,2.44,2.44,0,0,1,0,.28.53.53,0,0,0,0,.22,1.63,1.63,0,0,0,0,.51.89.89,0,0,1,0,.19.68.68,0,0,1,0,.19.58.58,0,0,0,0,.19,1.45,1.45,0,0,0,0,.39.14.14,0,0,1,0,.15,1.51,1.51,0,0,1,.06.41,3.17,3.17,0,0,0,0,.41.89.89,0,0,0,.07.28.11.11,0,0,1,0,.07.83.83,0,0,0,0,.38v.41c0,.17,0,.33,0,.5a2.46,2.46,0,0,0,0,.54,2.1,2.1,0,0,1,0,.27.27.27,0,0,0,0,.21,2,2,0,0,1,0,.34.25.25,0,0,0,0,.1,4.23,4.23,0,0,1,0,1l0,.6v.35c0,.15,0,.29,0,.43s0,.28,0,.42a5.38,5.38,0,0,0,.07.61,2.58,2.58,0,0,1,0,.47,1,1,0,0,0,0,.16,1.53,1.53,0,0,1,0,.3,1.24,1.24,0,0,0,0,.27c0,.25,0,.4,0,.46a1.15,1.15,0,0,1,0,.2l0,.45a5.13,5.13,0,0,0,.06.6c.08.27.11.45.06.53a.63.63,0,0,0,0,.23l.07.12a1,1,0,0,0-.05.35.7.7,0,0,1,0,.16,1,1,0,0,1-.34.24H129a3.34,3.34,0,0,1-.64,0h-.57a1.7,1.7,0,0,1-.34,0l-.1,0-.35,0h-.19l-.49,0-.17,0h-.37s-.08,0-.14,0l-.22,0H125l-.27,0a2.75,2.75,0,0,0-.45,0,.41.41,0,0,1-.24,0,.94.94,0,0,1-.32-.16,1.43,1.43,0,0,0-.17-.27l-.11-.14a.22.22,0,0,0,0-.16.78.78,0,0,1,0-.22,2.16,2.16,0,0,1,0-.35,2.53,2.53,0,0,0,0-.38.81.81,0,0,0,0-.24.14.14,0,0,1,0-.11.37.37,0,0,1,0-.21.35.35,0,0,0,0-.14,2.34,2.34,0,0,0,0-.38,1.69,1.69,0,0,1,0-.38,1.34,1.34,0,0,0,.06-.5.57.57,0,0,1,0-.26,1.51,1.51,0,0,0,0-.33.06.06,0,0,1,0-.05,1.16,1.16,0,0,1,0-.38.09.09,0,0,0,0-.06s0-.1,0-.19a2.3,2.3,0,0,0,0-.28q.06-.45.06-.54a1.54,1.54,0,0,1,0-.32s0,0,0,0V84.3a.31.31,0,0,1,0-.13,1.23,1.23,0,0,1,0-.27.34.34,0,0,0,0-.11,2.21,2.21,0,0,1,0-.46.59.59,0,0,0,0-.2,2.35,2.35,0,0,1,0-.76.86.86,0,0,1,0-.25.32.32,0,0,0,0-.13.62.62,0,0,0,0-.19.78.78,0,0,1,0-.25c0-.24,0-.41,0-.53s0-.24,0-.39-.07-.48-.08-.54a.41.41,0,0,1,0-.19c0-.32,0-.53,0-.63a1.72,1.72,0,0,0,0-.32,3.32,3.32,0,0,0,0-.46,2.5,2.5,0,0,1,0-.46.36.36,0,0,1,0-.19.26.26,0,0,0,0-.22,1,1,0,0,0,0-.39c0-.2,0-.36,0-.46s0-.19.07-.25a.69.69,0,0,0,0-.29v-.44a2.56,2.56,0,0,0,0-.57,1.73,1.73,0,0,1,0-.32,2.26,2.26,0,0,1,0-.27,1.5,1.5,0,0,0,0-.2V73.9a1.86,1.86,0,0,0-.07-.52,2.54,2.54,0,0,1,0-.39.54.54,0,0,0,0-.24,2.81,2.81,0,0,0,0-.3,3.25,3.25,0,0,1,0-.33,3.36,3.36,0,0,1-.5.06l-.3,0a1.57,1.57,0,0,0-.3,0,1.3,1.3,0,0,1-.35,0s0,0,0,0a1.47,1.47,0,0,1-.32.09l-.16,0a1.14,1.14,0,0,0-.36.07.44.44,0,0,1-.15,0,1,1,0,0,1-.3,0,.68.68,0,0,0-.3,0l-.34.06h-.34a.14.14,0,0,0-.11,0l-.39.13-.11.06a1,1,0,0,0-.29,0h-.06c-.17-.06-.26-.11-.26-.14s0,0-.06,0a1.34,1.34,0,0,0-.09-.26.82.82,0,0,1-.08-.63c0-.13.06-.25.08-.38a2.73,2.73,0,0,0,0-.35,1.32,1.32,0,0,1,.09-.41c0-.21,0-.35,0-.43a.64.64,0,0,1,0-.2c0-.23.1-.37.16-.41a2.91,2.91,0,0,1,0-.54.78.78,0,0,0,.08-.37.62.62,0,0,1,0-.23.69.69,0,0,1,0-.22.93.93,0,0,0,0-.26c0-.15,0-.29.05-.44a3.22,3.22,0,0,1,0-.38l.12-.13a.75.75,0,0,0,.13-.16l.35-.06.68,0,.65,0a1.86,1.86,0,0,0,.57.08l.31,0a1.34,1.34,0,0,1,.4,0,.9.9,0,0,0,.33,0h.24a.5.5,0,0,0,.3,0,.21.21,0,0,0,.16,0l.19,0a1.35,1.35,0,0,0,.41,0l.39,0a.67.67,0,0,1,.3.06l.37,0a.32.32,0,0,1,.14,0h.51l.19,0a1.88,1.88,0,0,1,.38.06,3.25,3.25,0,0,1,.61,0h.49a.79.79,0,0,1,.26,0c.12,0,.2.05.23,0a.11.11,0,0,1,.11,0l.45,0a2,2,0,0,0,.44,0,3.89,3.89,0,0,0,.51,0,1.62,1.62,0,0,1,.44,0,2.47,2.47,0,0,1,.66,0,1.33,1.33,0,0,0,.45,0l.35-.06a.64.64,0,0,1,.2,0,1.57,1.57,0,0,0,.3,0,1.24,1.24,0,0,0,.51,0,.48.48,0,0,1,.28,0,2.37,2.37,0,0,1,.7,0A.75.75,0,0,0,133.92,66.86Z"/><path class="f73aad9d-564a-4c84-9cfc-36cb5228b082" d="M150.09,66.86c.15.15.22.25.22.29a.35.35,0,0,0,0,.13,1.09,1.09,0,0,1,0,.44c0,.15,0,.33,0,.54a.9.9,0,0,0,0,.28.5.5,0,0,1,0,.22.58.58,0,0,1-.08.18s0,.1-.07.14a1,1,0,0,0,0,.32.24.24,0,0,1,0,.15.85.85,0,0,0-.06.4.88.88,0,0,1,0,.24c0,.25,0,.39-.08.42s-.08.07-.08.12a.29.29,0,0,1,0,.25,2.33,2.33,0,0,0-.06.25,2.55,2.55,0,0,1-.11.46,1.35,1.35,0,0,0-.08.24.86.86,0,0,1-.17.25.21.21,0,0,0-.08.1,1.49,1.49,0,0,1-.41,0h-.19a1.22,1.22,0,0,1-.46,0,.75.75,0,0,0-.18-.08.24.24,0,0,0-.2,0,.35.35,0,0,1-.24,0,1.68,1.68,0,0,0-.46-.05l-.36,0-.3,0a1.11,1.11,0,0,1-.3-.08.28.28,0,0,1-.22,0,1.29,1.29,0,0,0-.29,0,.34.34,0,0,0-.2,0,.49.49,0,0,1-.24,0,1,1,0,0,0,0,.36c0,.12,0,.24,0,.37l0,.35.06.41a1.28,1.28,0,0,0,0,.19.58.58,0,0,1,0,.19,2.36,2.36,0,0,1,0,.35,2.14,2.14,0,0,0,0,.34l.09.57a1.66,1.66,0,0,1-.05.46.77.77,0,0,0,0,.4,1.48,1.48,0,0,0,0,.54,2.44,2.44,0,0,1,0,.28.53.53,0,0,0,0,.22,1.63,1.63,0,0,0,0,.51.89.89,0,0,1,0,.19.68.68,0,0,1,0,.19.58.58,0,0,0,0,.19,1.45,1.45,0,0,0,0,.39.14.14,0,0,1,0,.15,1.51,1.51,0,0,1,.06.41,3.17,3.17,0,0,0,0,.41.66.66,0,0,0,.07.28.11.11,0,0,1,0,.07.83.83,0,0,0,0,.38v.41c0,.17,0,.33,0,.5a3.33,3.33,0,0,0,0,.54,1.87,1.87,0,0,1,0,.27.33.33,0,0,0,0,.21,2,2,0,0,1,0,.34.25.25,0,0,0,0,.1,4.23,4.23,0,0,1,0,1l0,.6v.35c0,.15,0,.29,0,.43s0,.28,0,.42a3.65,3.65,0,0,0,.07.61,2.58,2.58,0,0,1,0,.47,1,1,0,0,0,0,.16,1.53,1.53,0,0,1,0,.3,1.24,1.24,0,0,0,0,.27c0,.25,0,.4.05.46a1.15,1.15,0,0,1,0,.2l0,.45a5.13,5.13,0,0,0,.06.6.91.91,0,0,1,.06.53.63.63,0,0,0,0,.23l.07.12a1,1,0,0,0,0,.35.7.7,0,0,1,0,.16,1,1,0,0,1-.34.24h-.65a3.22,3.22,0,0,1-.63,0h-.57a1.79,1.79,0,0,1-.35,0l-.09,0-.35,0h-.19l-.49,0-.17,0h-.37s-.08,0-.14,0l-.22,0h-.4l-.27,0a2.75,2.75,0,0,0-.45,0,.41.41,0,0,1-.24,0,.85.85,0,0,1-.32-.16,1.43,1.43,0,0,0-.17-.27l-.11-.14a.22.22,0,0,0,0-.16.78.78,0,0,1,0-.22,2.16,2.16,0,0,1,0-.35,2.53,2.53,0,0,0,0-.38.68.68,0,0,0,0-.24.15.15,0,0,1,0-.11.37.37,0,0,1,0-.21.35.35,0,0,0,0-.14,2.34,2.34,0,0,0,0-.38,1.69,1.69,0,0,1,0-.38,1.34,1.34,0,0,0,.06-.5.57.57,0,0,1,0-.26,1.51,1.51,0,0,0,.05-.33s0,0,0-.05a1.16,1.16,0,0,1,0-.38.09.09,0,0,0,0-.06s0-.1,0-.19a2.44,2.44,0,0,0,0-.28,4.68,4.68,0,0,0,.07-.54,1.54,1.54,0,0,1,0-.32s0,0,0,0V84.3a.31.31,0,0,1,0-.13,1.23,1.23,0,0,1,0-.27.34.34,0,0,0,0-.11,2.21,2.21,0,0,1-.05-.46,1,1,0,0,0,0-.2,2.35,2.35,0,0,1,0-.76.86.86,0,0,1,0-.25.69.69,0,0,0,0-.13,1.23,1.23,0,0,0,0-.19.78.78,0,0,1,0-.25c0-.24,0-.41,0-.53s0-.24,0-.39-.07-.48-.08-.54a.41.41,0,0,1,0-.19c0-.32,0-.53,0-.63s0-.21,0-.32,0-.32,0-.46a2.5,2.5,0,0,1,0-.46.36.36,0,0,1,.05-.19s0-.11,0-.22a1.28,1.28,0,0,0,0-.39c0-.2,0-.36,0-.46a1.64,1.64,0,0,1,.07-.25.69.69,0,0,0,0-.29v-.44a2.56,2.56,0,0,0,0-.57,1.75,1.75,0,0,1,0-.32,2.13,2.13,0,0,1,0-.27,1.5,1.5,0,0,0,0-.2V73.9a1.86,1.86,0,0,0-.07-.52,2.54,2.54,0,0,1,0-.39.75.75,0,0,0,0-.24,2.81,2.81,0,0,0,0-.3,3.25,3.25,0,0,1,0-.33,3.36,3.36,0,0,1-.5.06l-.31,0a1.87,1.87,0,0,0-.3,0,1.24,1.24,0,0,1-.34,0s0,0,0,0a1.31,1.31,0,0,1-.31.09l-.16,0a1.14,1.14,0,0,0-.36.07l-.15,0a1,1,0,0,1-.3,0,.68.68,0,0,0-.3,0l-.35.06h-.33a.14.14,0,0,0-.11,0l-.39.13-.11.06a1,1,0,0,0-.29,0h-.06c-.17-.06-.26-.11-.26-.14s0,0-.06,0a1.34,1.34,0,0,0-.09-.26.82.82,0,0,1-.08-.63c0-.13,0-.25.08-.38a2.73,2.73,0,0,0,0-.35,1.32,1.32,0,0,1,.09-.41c0-.21,0-.35,0-.43a.64.64,0,0,1,0-.2.69.69,0,0,1,.16-.41,2.91,2.91,0,0,1,0-.54.78.78,0,0,0,.08-.37.62.62,0,0,1,0-.23.69.69,0,0,1,0-.22.93.93,0,0,0,0-.26c0-.15,0-.29.05-.44a3.43,3.43,0,0,1,0-.38.8.8,0,0,0,.13-.13.75.75,0,0,0,.13-.16l.35-.06.68,0,.65,0a1.84,1.84,0,0,0,.56.08l.32,0a1.34,1.34,0,0,1,.4,0,.91.91,0,0,0,.33,0h.24a.5.5,0,0,0,.3,0,.21.21,0,0,0,.16,0l.18,0a1.47,1.47,0,0,0,.42,0l.39,0a.67.67,0,0,1,.3.06l.37,0a.32.32,0,0,1,.14,0h.5l.2,0a1.71,1.71,0,0,1,.37.06,3.39,3.39,0,0,1,.62,0h.49a.79.79,0,0,1,.26,0c.12,0,.2.05.23,0a.11.11,0,0,1,.11,0l.45,0a2.06,2.06,0,0,0,.44,0,3.89,3.89,0,0,0,.51,0,1.62,1.62,0,0,1,.44,0,2.5,2.5,0,0,1,.66,0,1.33,1.33,0,0,0,.45,0l.34-.06a.71.71,0,0,1,.21,0,1.87,1.87,0,0,0,.3,0,1.26,1.26,0,0,0,.51,0,.47.47,0,0,1,.28,0,2.37,2.37,0,0,1,.7,0A.75.75,0,0,0,150.09,66.86Z"/><path class="f73aad9d-564a-4c84-9cfc-36cb5228b082" d="M152.56,66.9l.66-.13a.92.92,0,0,1,.29-.08l.06,0a1.36,1.36,0,0,1,.49,0,.59.59,0,0,0,.21,0,.24.24,0,0,0,.2,0,1,1,0,0,0,.21-.07.92.92,0,0,0,.35,0l.31,0a3.76,3.76,0,0,0,.67,0,.94.94,0,0,1,.44,0,1.73,1.73,0,0,1,.52,0l.15.06a.64.64,0,0,1,.41.1,1.33,1.33,0,0,1,.31-.06.33.33,0,0,1,.19.06,4,4,0,0,1,.67.13,1,1,0,0,1,.31.5,2.45,2.45,0,0,1,0,.48c0,.25,0,.4-.07.44v.47q0,.13-.06.24l-.06.24a.47.47,0,0,0,0,.17.28.28,0,0,1,0,.18,1.61,1.61,0,0,1,0,.42,1.4,1.4,0,0,0-.05.34,1,1,0,0,0,0,.2.41.41,0,0,1-.08.24,2.1,2.1,0,0,1,0,.4,3.56,3.56,0,0,1-.1.36,1.06,1.06,0,0,0,0,.41,1.15,1.15,0,0,1,0,.32,1.05,1.05,0,0,0-.08.42,1.28,1.28,0,0,1,0,.34,2.11,2.11,0,0,1,0,.25c0,.08,0,.18-.05.28a1.51,1.51,0,0,1,0,.34s0,0,0,0a2.24,2.24,0,0,0,0,.43.52.52,0,0,1,0,.3,1.08,1.08,0,0,1,0,.51c0,.15,0,.28,0,.39s0,.23,0,.34c0,.42,0,.77-.07,1a1,1,0,0,1,0,.33.22.22,0,0,0,0,.18.84.84,0,0,0-.1.41.13.13,0,0,1,0,.12q0,.36,0,.57a.58.58,0,0,1,0,.19.68.68,0,0,0,0,.19,6.81,6.81,0,0,1,.11,1.19c0,.28,0,.57,0,.87a.52.52,0,0,1,0,.22c0,.09,0,.16,0,.22s0,.25.05.37,0,.24,0,.39a.28.28,0,0,0,0,.22.61.61,0,0,1,0,.16,2.66,2.66,0,0,0,0,.44c0,.07,0,.14,0,.23s0,.34,0,.34a2.78,2.78,0,0,0,0,.45,1,1,0,0,1,0,.16,1.75,1.75,0,0,1,0,.34s0,0,0,0a4,4,0,0,0,0,.49c0,.15,0,.31.07.45s0,.49,0,.64l.06.2.06.21a.51.51,0,0,0,0,.22.63.63,0,0,1,0,.19v.41a1.39,1.39,0,0,0,0,.3l.06.3a1.59,1.59,0,0,1,0,.29.47.47,0,0,0,.07.25,1.85,1.85,0,0,0,.12.76,1.69,1.69,0,0,0,0,.55.32.32,0,0,1,0,.27,1.63,1.63,0,0,1-.19.27l-.12.18c-.15,0-.24,0-.26.07a.09.09,0,0,1-.09,0,.91.91,0,0,0-.44.13,1.63,1.63,0,0,0-.34,0s0,0-.08,0a3,3,0,0,0-.71,0,1.24,1.24,0,0,0-.33,0,.47.47,0,0,0-.17,0l-.18.06a1.15,1.15,0,0,0-.28,0,.15.15,0,0,1-.1,0l-.5-.09-.18-.07a.34.34,0,0,0-.2,0,1.21,1.21,0,0,1-.38,0,1.7,1.7,0,0,0-.45,0l-.3-.11a.15.15,0,0,0-.11,0,.77.77,0,0,0-.31,0,.22.22,0,0,1-.16,0l-.3-.18a.42.42,0,0,1-.14-.08,1.26,1.26,0,0,1-.15-.52.56.56,0,0,0,0-.3.18.18,0,0,0,0-.2.32.32,0,0,1,0-.21,1.18,1.18,0,0,0,.08-.38s0-.05,0-.09a1.34,1.34,0,0,0,.05-.4.42.42,0,0,1,0-.27,2.64,2.64,0,0,1,.06-.44.91.91,0,0,1,.06-.16v-.63a2.29,2.29,0,0,1,.06-.43.33.33,0,0,0,0-.17,1.64,1.64,0,0,0,0-.49.27.27,0,0,1,0-.18.89.89,0,0,0,0-.33c0-.12,0-.23,0-.33a1.36,1.36,0,0,1,0-.3.45.45,0,0,0,0-.3,5.61,5.61,0,0,0,.08-.87c0-.33,0-.65,0-1a1.23,1.23,0,0,0,0-.19,1.48,1.48,0,0,1,0-.22,4.69,4.69,0,0,0,0-.52.3.3,0,0,1,0-.21.15.15,0,0,1,0-.17.16.16,0,0,0,0-.18.16.16,0,0,0,0-.15,1.28,1.28,0,0,1,0-.19.92.92,0,0,1,0-.16.55.55,0,0,0,0-.22,2.41,2.41,0,0,1,0-.48,1.33,1.33,0,0,1,0-.19,1.14,1.14,0,0,0,0-.25.57.57,0,0,1,0-.13v-.6a1.48,1.48,0,0,0,0-.33.13.13,0,0,1,0-.08.89.89,0,0,0,0-.33.88.88,0,0,1,0-.21.73.73,0,0,1,0-.22.63.63,0,0,0,0-.19c0-.11,0-.22,0-.33a2.88,2.88,0,0,0-.05-.33c0-.19,0-.29,0-.29s0,0,0-.06a1.73,1.73,0,0,1,0-.45,1.41,1.41,0,0,0,0-.22,1.1,1.1,0,0,0-.06-.27.18.18,0,0,1,0-.11,1,1,0,0,1,0-.22,1.2,1.2,0,0,0,0-.28,2.39,2.39,0,0,1-.06-.38.58.58,0,0,0,0-.19,2.22,2.22,0,0,0,0-.34.68.68,0,0,1,0-.14v-.66a1.2,1.2,0,0,1,0-.32,1.15,1.15,0,0,0,0-.19,1.34,1.34,0,0,1,0-.57,2.47,2.47,0,0,0,0-.5,1.73,1.73,0,0,1-.05-.45,1.69,1.69,0,0,1,0-.23c0-.08,0-.14,0-.18a1.82,1.82,0,0,0,0-.66c0-.19-.07-.42-.1-.7a3.2,3.2,0,0,1-.12-1.3c0-.21.07-.31.08-.3s0,0,0,0a2.41,2.41,0,0,1,.1-.45Z"/></g></svg>